<svg viewBox="0 0 465.015017509285826 423.249357875617534">
  <defs>
    <style>
      .cls-1 {
        fill: var(--black);
      }

      .cls-2 {
        fill: var(--yellow);
      }
    </style>
  </defs>
  <g>
    <g>
      <path
        class="cls-1"
        d="M465.015017509285826,71.635936266732642c-.679931640625-9.4200439453125-40.510009765625-22.8599853515625-50.669921875-28.1400146484375-26.93994140625-14.02001953125-54.670166015625-26.5-82.280029296875-39.03997802734375-10.610107421875-9.1600341796875-18.2099609375-1.99005126953125-28.150146484375,3.449951171875-27.5498046875,8.300048828125-56.52978515625,10.6300048828125-84.9599609375,9.33001708984375-19.68994140625-.3900146484375-39.159912109375-3.2099609375-57.669921875-9.72998046875-15.10009765625-7.66998291015625-17.080078125-11.739990234375-32.3701171875-.8599853515625-27.1298828125,11.6300048828125-56.02001953125,25.5899658203125-82.52001953125,38.5799560546875-10.079833984375,3.739990234375-19.309814453125,8.6700439453125-28.81982421875,13.59002685546875C4.525027274910826,64.955943590951392-1.494992256339174,64.285899645638892.315066337410826,80.795909411263892c.659912109375,19.8599853515625.0899658203125,39.60003662109375.10986328125,59.41998291015625.260009765625,6.300048828125-.5599365234375,12,.4600830078125,18.280029296875-1.27001953125,8.05999755859375-.77001953125,19.40997314453125,10.4600830078125,16.92999267578125,21.2900390625-7.95001220703125,42.5-16.27001953125,64.31005859375-23.65997314453125,21.669921875-7.3800048828125,11.179931640625-8.550048828125,12.829833984375,13.3599853515625.590087890625,73.8800048828125-.699951171875,147.219970703125.219970703125,220.989990234375.400146484375,4.78997802734375.5,8.8499755859375-.5498046875,13.52001953125,2.48974609375,11.89996337890625,17.119873046875,7.97998046875,26.309814453125,7.7099609375,18.110107421875.3900146484375,35.760009765625.07000732421875,53.780029296875.3900146484375,50.929931640625.1199951171875,101.669921875-.41998291015625,152.27001953125,0,9.080078125.6099853515625,10.449951171875-14.16998291015625,2.419921875-16.0999755859375-.72998046875-.17999267578125-1.52978515625-.25-2.419921875-.19000244140625-4.330078125.04998779296875-8.64990234375.1199951171875-12.9599609375.19000244140625-12.169921875.20001220703125-24.2900390625.3499755859375-36.590087890625-.42999267578125-31.599853515625,1.39996337890625-62.889892578125-.1700439453125-94.5.39996337890625-21.18994140625-.0999755859375-41.989990234375.3800048828125-62.949951171875-.3599853515625-15.739990234375,5.41998291015625-7.02001953125-8.67999267578125-9.0400390625-17.6099853515625.130126953125-16.6199951171875.56005859375-32.8800048828125-.39990234375-49.4200439453125,1-47.9599609375-.14013671875-95.65997314453125.56982421875-143.67999267578125-.659912109375-10.75.35009765625-20.65997314453125-.579833984375-31.42999267578125-.739990234375-5.8299560546875,2.889892578125-11.66998291015625-.739990234375-17.01995849609375-6.25-9.6500244140625-18.610107421875.699951171875-26.590087890625,2.67999267578125-11.780029296875,3.22998046875-22.869873046875,7.97998046875-34.5,12.01995849609375-7.079833984375,3.19000244140625-13.919921875,5.8699951171875-21.429931640625,7.8699951171875-4.199951171875,3.2900390625-5.8701171875,2.1600341796875-4.1600341796875-2.8699951171875-.6099853515625-22.239990234375.27001953125-44.02996826171875.0599365234375-66.239990234375-1.599853515625-13.0999755859375,3-9.51995849609375,12.010009765625-14.9599609375,9.949951171875-3.77001953125,19.190185546875-8.760009765625,28.880126953125-13.260009765625,27.510009765625-12.60003662109375,54.639892578125-26.27001953125,82.099853515625-38.69000244140625,12.050048828125-2.80999755859375,24.920166015625,11.219970703125,38.460205078125,9.82000732421875,34.199951171875,7.5799560546875,69.619873046875,5.8699951171875,104.369873046875,1.57000732421875,13.43994140625-2.760009765625,27.139892578125-6.06005859375,38.719970703125-13.46002197265625,6.75,3.5899658203125,13.43994140625,6.80999755859375,20.449951171875,10.02001953125,30.31005859375,13.87994384765625,60.239990234375,28.12994384765625,90.35009765625,42.51995849609375,22.869873046875,8.4200439453125,15.699951171875,8.8900146484375,16.52001953125,29.71002197265625-1.010009765625,19.0899658203125.719970703125,39.3599853515625.090087890625,57.6199951171875-17.7900390625-6.28997802734375-37.090087890625-14.28997802734375-56.0302734375-20.32000732421875-20.72998046875-8.3499755859375-33.949951171875-18.1300048828125-32.449951171875,13.010009765625.820068359375,28.57000732421875.090087890625,56.760009765625.400146484375,85.28997802734375-.89013671875,23.83001708984375,1.119873046875,47.98004150390625-.469970703125,71.760009765625.25,2.3900146484375.31982421875,4.780029296875.409912109375,7.1500244140625.10986328125,3.469970703125.27001953125,6.90997314453125,1.1201171875,10.27996826171875,4.02001953125,7.5400390625,14.409912109375,3.6400146484375,15.25-3.969970703125-1.60009765625-18.35003662109375.0498046875-36.3900146484375.10986328125-54.530029296875-2.330078125-13.6400146484375.3798828125-27.1300048828125-.239990234375-40.8800048828125-.860107421875-24-.159912109375-48.40997314453125-.02001953125-72.6300048828125-1.56005859375-4.6199951171875.159912109375-5.8199462890625,3.969970703125-2.67999267578125,5.97998046875,1.84002685546875,11.64013671875,3.3800048828125,17.16015625,6.30999755859375,14.5400390625,4.3800048828125,28.719970703125,10.1700439453125,42.8798828125,15.70001220703125,31.669921875,12.5,21.780029296875-3.510009765625,23.89013671875-26.16998291015625.429931640625-24.3699951171875-1.5400390625-48.97998046875.3798828125-73.1199951171875ZM273.785037040535826,190.615916735482642c-.4599609375.489990234375-.41015625,1.05999755859375.3798828125.8499755859375-.0400390625-.05999755859375-.33984375-.79998779296875-.3798828125-.8499755859375ZM343.345095634285826,247.385936266732642c-.760009765625-2.04998779296875-3.380126953125-2.73004150390625-4-4.75-.650146484375-3.739990234375.329833984375-10.20001220703125.159912109375-14.84002685546875.300048828125-.89996337890625,1.510009765625-1.22998046875,2.219970703125-2.010009765625,1.22998046875-1.27996826171875,1.780029296875-2.78997802734375,2.16015625-4.6300048828125,1.23974609375-6.3399658203125-.820068359375-15.89996337890625-.400146484375-21.5699462890625.409912109375-2.1500244140625-.599853515625-4.300048828125-2.81005859375-4.87005615234375-1.18994140625-.39996337890625-1.679931640625-1.25-1.519775390625-2.40997314453125.369873046875-4.15997314453125.159912109375-8.22998046875-.1201171875-12.40997314453125-.14990234375-1.2900390625.3798828125-2.33001708984375,1.52001953125-2.84002685546875,7.02001953125-3.52001953125,1.56982421875-18.58001708984375,2.989990234375-26.6500244140625.43994140625-1.72998046875.199951171875-3.6199951171875-1.22998046875-4.8499755859375-.949951171875-.8699951171875-2.150146484375-.94000244140625-2.52001953125-1.760009765625-.699951171875-4.78997802734375-.85009765625-9.52996826171875-.949951171875-14.6300048828125-.02001953125-1.39996337890625.579833984375-2.239990234375,1.699951171875-2.8499755859375,6.68994140625-3.25,1.300048828125-14.59002685546875,3.340087890625-21.46002197265625.419921875-1.6199951171875.289794921875-3.4599609375-.10009765625-5.07000732421875-1.22998046875-5.22998046875-4.25-4.30999755859375-5-9.42999267578125-.260009765625-3.57000732421875-.43994140625-7.66998291015625.97998046875-11.010009765625l.10986328125-.1300048828125c4.610107421875-2.16998291015625,3.81005859375-7.22998046875,4.230224609375-11.5.780029296875-4.12994384765625.300048828125-9.37994384765625-2.60009765625-11.4599609375-2.300048828125-2.33001708984375-6.989990234375-1.8900146484375-10.510009765625-1.5-2.60009765625-.05999755859375-5.68994140625.07000732421875-7.949951171875,1.03997802734375-3.110107421875,1.55999755859375-3.030029296875,4.8599853515625-7.409912109375,4.1300048828125-3.420166015625-.8399658203125-6.75.239990234375-10.150146484375.04998779296875-2.070068359375-.29998779296875-1.099853515625-3.0899658203125-3.56005859375-4.4599609375-.829833984375-.57000732421875-1.85986328125-.82000732421875-2.849853515625-.67999267578125-5,.87994384765625-14.380126953125-.9000244140625-20.72998046875-.260009765625-3.5.3699951171875-5.9501953125,1.38995361328125-6.47021484375,4.17999267578125-.159912109375.52996826171875-.3798828125,1.0999755859375-.9697265625,1.2099609375-6.240234375-1.3199462890625-13.960205078125.61004638671875-19.960205078125.07000732421875-1.510009765625-.22998046875-2.64990234375-.719970703125-3.4599609375-1.989990234375-3.739990234375-6.90997314453125-15.030029296875-2.1300048828125-22.409912109375-3.3399658203125-2.919921875-.5400390625-6.64013671875-.4200439453125-8.760009765625,1.94000244140625-.89013671875,1.14996337890625-.4599609375,3.01995849609375-2,3.16998291015625-6.630126953125.1400146484375-13.280029296875.70001220703125-19.940185546875-.010009765625-4.269775390625-1.16998291015625-3.079833984375-4.9000244140625-8.72998046875-5.22998046875-2.3798828125-.30999755859375-4.599853515625-.0400390625-6.9599609375.1300048828125-6.02001953125.55999755859375-15.6298828125-2.17999267578125-18.3798828125,3.05999755859375-.56005859375,1-1.43017578125,1.8499755859375-2.64013671875,1.989990234375-4.35986328125.40997314453125-8.97998046875.27001953125-13.259765625-.280029296875-.7900390625-.64996337890625-.740234375-2.67999267578125-1.89013671875-3.44000244140625-2.2099609375-1.75-5.030029296875-1.25-7.760009765625-1.52996826171875-4.639892578125-.16998291015625-10.630126953125-.6400146484375-13.330078125,2.510009765625-1.81982421875,2.260009765625-1.969970703125,6.239990234375-1.789794921875,12.8699951171875.2998046875,2.70001220703125-.630126953125,6.14996337890625,1.829833984375,7.95001220703125,1.330078125,1.12994384765625,3.719970703125.3699951171875,3.6201171875,2.27996826171875-.580078125,4.58001708984375.869873046875,10.67999267578125-.72998046875,14.34002685546875-1.739990234375,2.3699951171875-4.449951171875,4.04998779296875-4.780029296875,7.3299560546875-1.239990234375,6.050048828125,1.18994140625,14.59002685546875.4599609375,20.72003173828125-.14990234375,1.08001708984375-.090087890625,2.239990234375.419921875,3.22998046875,1.050048828125,2.1500244140625,3.010009765625,2.1600341796875,3.93994140625,3.3800048828125,1.25,1.8800048828125.60009765625,4.6400146484375.76025390625,6.989990234375-.02001953125,2.35003662109375,1.349853515625,5.48004150390625-.26025390625,7.4100341796875-1.06982421875,1.219970703125-3.119873046875,1.0999755859375-4.349853515625,3.29998779296875-.630126953125,1.1099853515625-.7099609375,2.41998291015625-.550048828125,3.64996337890625,1.030029296875,8.27001953125-3.760009765625,21.1300048828125,2.43994140625,26.27001953125.7001953125.6300048828125,1.880126953125.72998046875,2.610107421875,1.32000732421875.889892578125.9000244140625.099853515625,2.66998291015625.25,3.97998046875-.030029296875,1.49005126953125.030029296875,3.17999267578125.0400390625,4.6199951171875-.16015625,2.02001953125.39990234375,5.33001708984375-.41015625,6.8900146484375-.47998046875.85003662109375-1.489990234375-.01995849609375-3.309814453125,2.1300048828125-.97021484375,1.07000732421875-1.7099609375,2.42999267578125-1.56005859375,3.9100341796875.39990234375,4.37994384765625-.68017578125,10.22998046875-.860107421875,15.47998046875-.119873046875,4.6400146484375.27001953125,10.04998779296875,4.97998046875,11.77996826171875.60009765625.24005126953125,1.190185546875.59002685546875,1.199951171875,1.300048828125-.93994140625,3.13995361328125.300048828125,8.00994873046875-.059814453125,10.89996337890625-.60009765625,5.60003662109375-4.4599609375,4.91998291015625-5.780029296875,11.7900390625-1.14013671875,5.90997314453125.1298828125,11.719970703125.419921875,17.79998779296875-.5,3.1400146484375-.4599609375,6.8900146484375,3.080078125,7.8399658203125.7099609375.260009765625,1.60009765625.42999267578125,1.919921875,1.1600341796875.7001953125,3.2099609375.510009765625,9.80999755859375-.099853515625,13.51995849609375-.280029296875,2.05999755859375-1.0400390625,2.21002197265625-2.52001953125,3.19000244140625-5.820068359375,4.49005126953125-1.920166015625,18.25-2.050048828125,26.10003662109375-.0400390625,1.20001220703125.1201171875,2.41998291015625.7099609375,3.510009765625,3,4.0899658203125,5.580078125,1.17999267578125,4.6201171875,8.13995361328125-.940185546875,3.1600341796875.81982421875,7.44000244140625-1.2099609375,10.1600341796875-.940185546875.989990234375-2.47021484375.989990234375-3.830078125,2.8699951171875-.739990234375,1.02001953125-.969970703125,2.3399658203125-.8701171875,3.58001708984375.7099609375,6.25-2.669921875,15.65997314453125,3.39013671875,18.1300048828125,1.77001953125.63995361328125,4.429931640625.17999267578125,6.469970703125-.030029296875,2.72998046875-.19000244140625,6.35986328125.33001708984375,9.25.010009765625,1.7099609375-.22003173828125,3.099853515625-.59002685546875,4.059814453125-1.85003662109375.730224609375-.8599853515625.630126953125-2.62994384765625,1.490234375-3.03997802734375.309814453125-.16998291015625.739990234375-.17999267578125,1.239990234375-.1199951171875,3.9599609375.9000244140625,8.14990234375.17999267578125,12.219970703125.010009765625,3.56005859375.25.889892578125,4.469970703125,6.5,5.15997314453125,5.31005859375.9200439453125,14.179931640625-.97998046875,18.83984375-.03997802734375,1.630126953125.34002685546875,3.400146484375.1099853515625,5.050048828125-.260009765625,3.070068359375-.739990234375,3.0400390625-2.1199951171875,3.679931640625-3.260009765625,2.2900390625-3.75,15.81005859375-.67999267578125,21.22998046875-1.969970703125,1.68017578125-.04998779296875,2.0302734375.20001220703125,2.51025390625,1.010009765625.539794921875.9599609375,1.60986328125,2.719970703125,2.579833984375,3.57000732421875.64013671875.55999755859375,1.429931640625.9599609375,2.31005859375.87994384765625,6.179931640625-.89996337890625,12.179931640625-.219970703125,18.409912109375.34002685546875,10.4501953125.17999267578125,6.670166015625-4.489990234375,10.72998046875-5.32000732421875,4.440185546875-.03997802734375,8.670166015625-.14996337890625,13.10009765625-.239990234375,1.27001953125-.08001708984375,2.25.46002197265625,2.489990234375,1.70001220703125,2.5,8.41998291015625,22.06005859375,1.03997802734375,30.43994140625,3.65997314453125,15.91015625,2.5,13.10009765625-6.53997802734375,7.72998046875-18.8599853515625-1.85986328125-5.91998291015625-1.639892578125-13.19000244140625,1.980224609375-18.30999755859375,1.289794921875-2.67999267578125,3.599853515625-4.6199951171875,5.349853515625-7.02001953125,3.25-2.91998291015625,7.400146484375-4.25,11.85009765625-4.91998291015625,4.139892578125-1.19000244140625,8.22998046875-.239990234375,12.289794921875,1.05999755859375,2.400146484375,1.1500244140625,6.10009765625,1.4000244140625,7.52001953125-1.05999755859375,2.340087890625-3.65997314453125.66015625-11.65997314453125,1.56005859375-17.33001708984375.130126953125-.89996337890625.18994140625-1.8900146484375-.10009765625-2.75-1.059814453125-2.90997314453125-5.08984375-3-4.919921875-6.510009765625-.06005859375-3.0699462890625-.419921875-6-.010009765625-9.02996826171875,1.010009765625-6.60003662109375,5.47998046875-5.78997802734375,4.949951171875-12.67999267578125-1.5-6.71002197265625,2.170166015625-15.4100341796875-.5498046875-22.25ZM332.944949149910826,85.965892321420142l.090087890625-.02996826171875c6.739990234375,11.33001708984375-40.6298828125,44.6500244140625-50.989990234375,57.6400146484375-5.330078125,6.66998291015625-12.75,10.92999267578125-17.969970703125,17.82000732421875-.610107421875.78997802734375-1.18994140625,1.5-2.0400390625,2.05999755859375-2.56005859375,2.2099609375-15.280029296875,3.50994873046875-11.25.0799560546875,27.5400390625-25.14996337890625,55.35009765625-53.50994873046875,82.159912109375-77.57000732421875ZM298.085085868660826,207.995921618295142c-.280029296875.3499755859375-.550048828125.5-.7900390625.280029296875-4.300048828125-9.77001953125,7.02001953125-15.9300537109375,13.679931640625-22.22003173828125,2.14990234375-1.27001953125,20.860107421875-25.6099853515625,17.4599609375-13.08001708984375l-.010009765625.1700439453125c2.2900390625,10.5-22.769775390625,24.47998046875-30.33984375,34.8499755859375ZM294.575076103035826,191.735911852670142c-.330078125.30999755859375-.840087890625.760009765625-1.22998046875.52001953125-.2900390625-.16998291015625-.489990234375-.55999755859375-.66015625-.9000244140625-1.10986328125-2.75-3.89990234375-4.79998779296875-1.68994140625-6.79998779296875.6201171875-.52996826171875,1.820068359375-1.05999755859375,2.4599609375-1.6400146484375,10.380126953125-11.739990234375,23.97998046875-23.3800048828125,34.2099609375-33.16998291015625l.080078125.03997802734375c4.969970703125,12.92999267578125-13.159912109375,19.09002685546875-19.68994140625,28.61004638671875-4.080078125,5.0699462890625-8.97998046875,8.8499755859375-13.47998046875,13.3399658203125ZM301.974978446785826,164.395946032357642c-4.3798828125,5.75-10.5400390625,9.6300048828125-15.300048828125,14.91998291015625-1.08984375,1.39996337890625-2.08984375.239990234375-2.89990234375-.78997802734375-1.449951171875-1.77001953125-1.85009765625-3.07000732421875-1.409912109375-4.32000732421875.9599609375-2.2900390625,3.889892578125-4.67999267578125,5.809814453125-6.48004150390625,15.400146484375-12.02996826171875,29.14013671875-32.010009765625,44.400146484375-40.78997802734375l.080078125.02996826171875c3.769775390625,12.58001708984375-21.75,26.030029296875-30.68017578125,37.4300537109375ZM134.775027274910826,296.195933825326392c-.840087890625-2.739990234375.52001953125-4.75,2.56005859375-6.55999755859375,2.3798828125-2.1099853515625,5.800048828125-4.02001953125,8.389892578125-6.32000732421875,14.360107421875-15.07000732421875,30.56005859375-27.91998291015625,44.7099609375-43.1600341796875l.14013671875-.13995361328125c7.969970703125-7.96002197265625,10.8798828125-11.19000244140625,22.199951171875-10.9100341796875.7099609375.10003662109375.4599609375.5-.119873046875.96002197265625-10.22021484375,8.17999267578125-19.14013671875,18.02001953125-28.9501953125,26.739990234375-9.9599609375,9.94000244140625-20.919921875,18.70001220703125-30.419921875,29.05999755859375-5.179931640625,3.8499755859375-13.550048828125,14.32000732421875-17.39990234375,15.8699951171875-1.81005859375.3699951171875-.93017578125-2.22998046875-.900146484375-3.3399658203125.070068359375-.5400390625-.06005859375-1.57000732421875-.2099609375-2.20001220703125ZM149.424929618660826,299.345897204232642c16.010009765625-16.219970703125,33.710205078125-30.5999755859375,49.31005859375-47.16998291015625,9-8.510009765625,18.900146484375-16.41998291015625,26.8701171875-25.77996826171875.619873046875-.6600341796875,1.309814453125-1.1700439453125,2.139892578125-1.46002197265625,2.4599609375-.67999267578125,3.89990234375-.52001953125,4.3701171875.15997314453125,1.809814453125,6.96002197265625-35.780029296875,36.0400390625-43.18017578125,41.760009765625-5.31982421875,6.33001708984375-14.239990234375,9.60003662109375-18.389892578125,17.10003662109375-1.31005859375,2.469970703125-1.530029296875,5.3699951171875-2.93994140625,7.7099609375-1.510009765625,2.95001220703125-4.31005859375,5.030029296875-6.93017578125,6.989990234375-8.530029296875,6.80999755859375-16.22998046875,16.9300537109375-23.989990234375,23.1500244140625-.349853515625.260009765625-.669921875.4000244140625-.929931640625.32000732421875l-.090087890625-.03997802734375c-3.989990234375-8.9000244140625,7.97998046875-17.530029296875,13.760009765625-22.74005126953125ZM224.845095634285826,257.915904528451392c6.969970703125-5.05999755859375,42.5400390625-42.760009765625,39.97998046875-57.6099853515625-.719970703125-2.53997802734375-4.14013671875-3.02996826171875-6.81005859375-2.57000732421875-24.7099609375,5.45001220703125-59.510009765625,31.8800048828125-73.89990234375-1.3399658203125-3.43017578125-26.61004638671875,88.219970703125-113.0400390625,84.56982421875-77.050048828125-.06005859375,1.07000732421875-1,1.97003173828125-1.989990234375,2.48004150390625-28.579833984375,16.95001220703125-47.489990234375,47.76995849609375-65.219970703125,75.489990234375l.030029296875.05999755859375c24.9599609375-5.3499755859375,61.27001953125-32.760009765625,75.949951171875-1.510009765625,15.89013671875,44.08001708984375-44.08984375,90.75-75.679931640625,114.95001220703125-1.679931640625-.09002685546875-3.139892578125-1.44000244140625-4.77001953125-2.280029296875-6.97998046875-4.26995849609375-9.969970703125-8.44000244140625-10.159912109375-12.469970703125-.68017578125-12.8599853515625,26.81005859375-25.08001708984375,38-38.1500244140625ZM269.905154228035826,167.865916735482642l-.080078125-.1099853515625c-.650146484375-5.010009765625,11.27001953125-13.20001220703125,14.89990234375-16.3599853515625,11.10009765625-10.4300537109375,21.39013671875-21.80999755859375,33.260009765625-31.510009765625,2.60009765625-2.33001708984375,4.7900390625-5.739990234375,7.429931640625-8.030029296875.81005859375-.69000244140625,1.590087890625-1.51995849609375,2.150146484375-1.0999755859375,1.599853515625,2.22998046875,1.22998046875,5.6199951171875.39990234375,7.79998779296875-1.22998046875,3.4000244140625-4.39990234375,5.72003173828125-7.099853515625,7.97998046875-10.920166015625,10.48004150390625-20.93017578125,20.8800048828125-32.47021484375,30.55999755859375-4.919921875,4.5-10.64990234375,15.85003662109375-18.48974609375,10.77001953125ZM326.055056571785826,72.355906969857642c1.10009765625-.6099853515625,1.5.739990234375,3.510009765625,4.1300048828125.329833984375.59002685546875.60986328125,1.33001708984375.4599609375,1.96002197265625-.090087890625.40997314453125-.35009765625.760009765625-.68994140625,1.08001708984375-14,12.62994384765625-27.650146484375,25.8599853515625-41.210205078125,39.1099853515625-.909912109375.8800048828125-1.0498046875.27996826171875-1.019775390625-.59002685546875.099853515625-4.07000732421875-2.830078125-7.94000244140625.969970703125-10.45001220703125,9.849853515625-7.78997802734375,18.31005859375-16.5799560546875,27.330078125-25.26995849609375l.14990234375-.1400146484375c3.3798828125-2.6300048828125,7.659912109375-7.3599853515625,10.5-9.83001708984375ZM310.984988212410826,67.145946032357642c.590087890625-.6500244140625,1.27001953125-1.19000244140625,2.110107421875-1.47003173828125,16.25-2.44000244140625-1.860107421875,10.8800048828125-5.630126953125,14.27001953125-1.119873046875.95001220703125-1.949951171875,1.739990234375-2.840087890625,2.83001708984375-4.269775390625,5.26995849609375-9.639892578125,9.18994140625-14.52978515625,13.9599609375-2.18017578125,1.8599853515625-4.260009765625,5.30999755859375-7.030029296875,5.8599853515625-1.030029296875.09002685546875-2.190185546875-.52996826171875-3.75-1.78997802734375-.52001953125-.42999267578125-1.340087890625-.969970703125-1.440185546875-1.6199951171875v-.1300048828125c9.830078125-11.469970703125,22.7900390625-20.80999755859375,33.110107421875-31.90997314453125ZM284.214968681160826,72.785899645638892l.14013671875-.1199951171875c2.619873046875-2.89996337890625,7.68994140625-2.239990234375,11.56982421875-1.92999267578125.630126953125.1199951171875.5400390625.41998291015625.10009765625.8900146484375-7.110107421875,6.969970703125-17.080078125,15.3800048828125-24.929931640625,23.1099853515625-1.010009765625,1.10003662109375-2.340087890625.95001220703125-3.780029296875.83001708984375-2.219970703125-.08001708984375-5.260009765625-.47998046875-5.030029296875-1.4000244140625.219970703125-1.67999267578125,3.68994140625-3.79998779296875,5.070068359375-5.0799560546875,5.659912109375-5.46002197265625,10.75-11.300048828125,16.85986328125-16.300048828125ZM264.265017509285826,72.525950915170142c1.89013671875-1.99005126953125,3.6201171875-4.25,5.5400390625-6.1800537109375,2.239990234375-2.219970703125,1.030029296875.84002685546875,4.659912109375,3.24005126953125.420166015625.28997802734375.820068359375.62994384765625,1.080078125,1.00994873046875.169921875.35003662109375.119873046875.33001708984375.1298828125.5-.010009765625.300048828125-.199951171875.61004638671875-.5.9300537109375-6.099853515625,6.02996826171875-12.449951171875,11.8499755859375-18.85986328125,17.42999267578125-6.8701171875,5.969970703125-13.880126953125,11.66998291015625-21.10009765625,17.15997314453125-32.079833984375,23.02001953125-53.510009765625,57.69000244140625-83.9599609375,82.46002197265625-4.619873046875,4.260009765625-8.860107421875,9.1300048828125-13.320068359375,12.8800048828125-1.0400390625.8800048828125-2.52978515625,2.239990234375-3.2900390625.7099609375-.39990234375-1.04998779296875.650146484375-2.969970703125.2001953125-4.5-.380126953125-1.5999755859375-1.080078125-3.4599609375.260009765625-4.52996826171875,43.68994140625-39.20001220703125,85.25-81.6600341796875,129.010009765625-120.95001220703125l.14990234375-.15997314453125ZM178.734988212410826,221.935924059701392c-13.099853515625,12.21002197265625-25.199951171875,25.03997802734375-38.550048828125,36.96002197265625-1.010009765625.8800048828125-1.679931640625,1.92999267578125-2.429931640625,3.03997802734375-.9599609375,1.3599853515625-2.110107421875,2.34002685546875-2.47998046875.17999267578125-.35009765625-2.25-.10009765625-5.5-.010009765625-7.739990234375.050048828125-.82000732421875.35009765625-1.55999755859375.93994140625-2.1500244140625,7.880126953125-6.94000244140625,15.4501953125-14.449951171875,23.260009765625-21.55999755859375l.130126953125-.13995361328125c5.419921875-5.21002197265625,10.3798828125-10.7900390625,16.2099609375-15.530029296875.72998046875-.55999755859375,1.5400390625-.3699951171875,2.179931640625.21002197265625,3.06005859375,2.8399658203125,4.409912109375,4.32000732421875.75,6.72998046875ZM171.144900321785826,179.805919176888892c-.18994140625.6300048828125-.829833984375,2.17999267578125-1.02001953125,3.03997802734375-1.099853515625,4.11004638671875-.83984375,8.2900390625-3.56982421875,11.300048828125-8.5,8.8299560546875-17.7099609375,16.64996337890625-26.630126953125,25.15997314453125-1.030029296875.989990234375-1.68994140625,2.17999267578125-2.550048828125,3.30999755859375-2.89990234375,3.47998046875-2.019775390625-4.02996826171875-1.929931640625-7.28997802734375.050048828125-1.23004150390625.590087890625-2.23004150390625,1.469970703125-3.07000732421875,7.22021484375-7.4000244140625,15.2099609375-13.94000244140625,22.35009765625-21.44000244140625l.14013671875-.1400146484375c3.679931640625-3.72998046875,8.1298828125-6.54998779296875,11.3798828125-10.58001708984375.22998046875-.26995849609375.35986328125-.3800048828125.35986328125-.28997802734375ZM222.624880790535826,72.615916735482642c2.2900390625-1.47998046875,4.7900390625-2.44000244140625,7.51025390625-2.44000244140625,1.27978515625.030029296875,5.219970703125.16998291015625,2.869873046875,2.1300048828125-16.630126953125,15.6500244140625-35.330078125,33.989990234375-53.300048828125,49.72003173828125-9.260009765625,10.449951171875-20.2998046875,19.00994873046875-30.06005859375,29.14996337890625-4.0498046875,2.92999267578125-8.25,7.96002197265625-11.829833984375,11.34002685546875-4.929931640625,4.47998046875-2.659912109375-1.98004150390625-2.52001953125-4.6300048828125.579833984375-7.2900390625,7.9599609375-11.4200439453125,13.8798828125-16.2900390625,2.320068359375-1.76995849609375,4.080078125-4.00994873046875,5.969970703125-6.16998291015625,3.91015625-3.32000732421875,7.860107421875-6.5999755859375,11.550048828125-10.21002197265625,7.949951171875-7.62994384765625,15.580078125-15.66998291015625,23.929931640625-22.8299560546875l.14013671875-.1300048828125c6.93994140625-7.3900146484375,14.219970703125-14.1500244140625,21.989990234375-20.6600341796875,3.18994140625-3.01995849609375,6.159912109375-6.5699462890625,9.869873046875-8.97998046875ZM179.845095634285826,72.295909411263892l.1298828125-.1400146484375c2.43994140625-3.38995361328125,6.60009765625.12005615234375,9.56005859375-1.5.530029296875-.3499755859375.83984375-.8699951171875,1.10009765625-1.47998046875.2099609375-.5.3798828125-1.03997802734375.579833984375-1.53997802734375,1.030029296875-2.6500244140625,4.14013671875-3.33001708984375,5.780029296875-2.82000732421875,1.39013671875.45001220703125,1.35009765625,1.469970703125.110107421875,2.53997802734375-1.35009765625,1.1300048828125-2.980224609375,1.73004150390625-4.16015625,3.04998779296875-17.7099609375,18.300048828125-37.429931640625,34.030029296875-54.849853515625,52.58001708984375-2.89013671875,3.58001708984375-2.89013671875-2.6199951171875-2.340087890625-6.4599609375.159912109375-.94000244140625.580078125-1.81005859375,1.219970703125-2.49005126953125,13.8701171875-14.17999267578125,29.52001953125-26.8499755859375,42.8701171875-41.739990234375ZM159.365115165535826,72.345897204232642l.139892578125-.15997314453125c2.179931640625-2.8800048828125,2.31005859375-1.69000244140625,5.639892578125-1.3499755859375,1.31005859375.0999755859375,8.2001953125-1.70001220703125,6.080078125.989990234375-9.14990234375,9.1300048828125-21.58984375,18.989990234375-30.969970703125,29.19000244140625-.969970703125.760009765625-4.929931640625,6.8800048828125-5.130126953125,3.1300048828125-.06982421875-1.80999755859375.18017578125-4.9200439453125-.519775390625-6.71002197265625-.25-.80999755859375-.02001953125-1.52001953125.619873046875-2.1099853515625,8.10009765625-7.58001708984375,16.419921875-14.8900146484375,24.14013671875-22.98004150390625ZM131.405154228035826,81.075938708138892c-.01025390625-.510009765625-.0302734375-1.07000732421875.119873046875-1.52001953125.360107421875-1.30999755859375,2.429931640625-1.45001220703125,3.469970703125-2.44000244140625,3.8701171875-6,13.89990234375-16.1099853515625,20.66015625-11.15997314453125.509765625,2.949951171875-8.18017578125,7.63995361328125-10.330078125,9.719970703125-4.77001953125,3.760009765625-9.18017578125,11.41998291015625-14.110107421875,13.60003662109375l-.10986328125-.02001953125c-2.080078125-1.33001708984375.669921875-5.47998046875.300048828125-8.17999267578125ZM136.515017509285826,134.065928942513892c6.5-6.5,13.2099609375-12.59002685546875,19.780029296875-19.02001953125,17.43994140625-16.05999755859375,34.7900390625-32.41998291015625,51.64990234375-49.1199951171875,1.10009765625-.6199951171875,2.219970703125-.44000244140625,3.6201171875-.32000732421875,1.679931640625.239990234375,3.159912109375.30999755859375,4.059814453125,1.23004150390625.690185546875.77996826171875.090087890625,1.8599853515625-1.199951171875,3.15997314453125-2,2.04998779296875-5.93994140625,4.739990234375-8.25,7.260009765625-10.429931640625,10.75-21.39990234375,20.82000732421875-32.43994140625,31.1099853515625-8.97998046875,8.47003173828125-17.97998046875,16.84002685546875-26.869873046875,25.47998046875-3.2900390625,3.1300048828125-10.830078125,13.20001220703125-15.820068359375,10.69000244140625l-.110107421875-.1199951171875c-2.869873046875-4.78997802734375,2.56005859375-7.6099853515625,5.580078125-10.3499755859375ZM153.795046806160826,157.235911852670142c22.530029296875-22.27996826171875,45.3798828125-43.219970703125,68.280029296875-65.03997802734375,6.010009765625-5.91998291015625,12.199951171875-11.80999755859375,18.39990234375-17.489990234375,2.949951171875-2.67999267578125,5.830078125-5.3699951171875,8.739990234375-7.9100341796875.630126953125-.5,1.320068359375-.89996337890625,2.090087890625-1.16998291015625,3.139892578125-1.1500244140625,12.119873046875-1.52001953125,7.719970703125,1.75-43.10009765625,38.70001220703125-85.260009765625,82.32000732421875-127.639892578125,120.3599853515625l-.10009765625.010009765625c-6.5400390625-6.6099853515625,16.93994140625-25.05999755859375,22.510009765625-30.510009765625ZM146.135134696785826,223.815928942513892c7.02978515625-6.780029296875,13.60986328125-13.530029296875,20.619873046875-20.35003662109375.570068359375-.699951171875,1.669921875-1.489990234375,2.340087890625-.969970703125,1.010009765625.6199951171875,1.77978515625,2.80999755859375,2.739990234375,4.53997802734375.39990234375.77001953125.389892578125,1.58001708984375-.27001953125,2.21002197265625-5.219970703125,4.67999267578125-9.7099609375,9.8599853515625-15.330078125,14.07000732421875-7.18994140625,4.52001953125-15.989990234375,22.29998779296875-25.280029296875,20.33001708984375l-.099853515625-.10003662109375c-2.980224609375-8.9599609375,10.409912109375-14.219970703125,15.280029296875-19.72998046875ZM159.464968681160826,250.555919176888892c2.409912109375-2.25,3.929931640625-4.52996826171875,6.199951171875-6.5999755859375,7.1201171875-6.27001953125,13.080078125-13.510009765625,20.440185546875-19.4000244140625.559814453125-.44000244140625,1.159912109375-.71002197265625,1.85986328125-.55999755859375.380126953125.05999755859375.800048828125.27001953125,1.159912109375.45001220703125,1.72021484375,1,3.590087890625,1.69000244140625,4.22021484375,2.52996826171875.949951171875,1.32000732421875-1.5400390625,2.67999267578125-2.489990234375,3.45001220703125-20.5,17.6500244140625-39.590087890625,39.80999755859375-59.550048828125,56.59002685546875l-.080078125-.010009765625c-4.369873046875-11.80999755859375,21.090087890625-28.58001708984375,28.239990234375-36.45001220703125ZM133.624880790535826,342.965892321420142l-.1298828125.0400390625c-12.889892578125-2.780029296875,24-30.82000732421875,29.780029296875-37.22003173828125,2.070068359375-2.3399658203125,5.449951171875-6.04998779296875,7.260009765625-4.65997314453125.93994140625.40997314453125,2.1298828125,2.3800048828125,2.679931640625,3.70001220703125.469970703125,1.04998779296875.190185546875,1.72998046875-.6298828125,2.44000244140625-13.699951171875,11.0799560546875-24.97998046875,25.01995849609375-38.960205078125,35.699951171875ZM149.194949149910826,349.625926501107642l-.14990234375.1300048828125c-1.659912109375,1.1300048828125-3.080078125,2.67999267578125-4.699951171875,3.760009765625-.739990234375.3499755859375-1.22998046875-.510009765625-1.72998046875-.96002197265625-1.41015625-1.45001220703125-4.97998046875-1.42999267578125-5.030029296875-2.27996826171875,12.699951171875-12.61004638671875,25.93994140625-25.20001220703125,38.929931640625-37.56005859375.449951171875-.39996337890625.89013671875-.8199462890625,1.5-.8499755859375.75.08001708984375,1.340087890625.53997802734375,1.8701171875,1.08001708984375,2.559814453125,2.510009765625,2.369873046875,4.69000244140625.2099609375,7.01995849609375-2.06005859375,2.31005859375-6.02001953125,4.530029296875-8.340087890625,7.24005126953125-6.97998046875,8.03997802734375-15.300048828125,14.64996337890625-22.56005859375,22.41998291015625ZM169.684939384285826,348.905894762826392l-.119873046875.1700439453125c-2.219970703125,4-4.25.78997802734375-7.570068359375,1.8499755859375-1.93994140625.91998291015625-1.739990234375,3.95001220703125-3.169921875,4.8699951171875-.800048828125.58001708984375-2.169921875.1300048828125-3.150146484375.16998291015625-.519775390625.010009765625-.97998046875.1400146484375-1.43994140625.31005859375-5.340087890625,1.97998046875.580078125-3.95001220703125,8.6201171875-11.1600341796875,4.019775390625-3.5999755859375,7.889892578125-6.94000244140625,11.969970703125-10.469970703125,5.7099609375-5.05999755859375,9.719970703125-8.1500244140625,11.030029296875-10.21002197265625,2.019775390625-4.05999755859375,3.719970703125-3.22003173828125,7.349853515625-.28997802734375.360107421875.28997802734375.7099609375.69000244140625.739990234375,1.1199951171875.0400390625.41998291015625-.219970703125.8499755859375-.5,1.199951171875-1.760009765625,2.10003662109375-3.659912109375,4.07000732421875-5.6298828125,5.97003173828125-5.780029296875,5.72998046875-12.590087890625,10.47998046875-18.130126953125,16.469970703125ZM187.174929618660826,350.605906969857642c-.079833984375.4100341796875-11.409912109375,2.030029296875-7.800048828125-.9599609375,7.920166015625-7.49005126953125,16.460205078125-16.75,26.210205078125-22.77001953125,3.300048828125-2.260009765625,7.10986328125-3.4100341796875,10.5-5.41998291015625,27.89990234375-21.20001220703125,50.039794921875-48.6199951171875,72.18994140625-74.92999267578125,10.139892578125-9.19000244140625,20.639892578125-19.57000732421875,30.380126953125-29.10003662109375,2.759765625-2.6400146484375,5.47998046875-5.19000244140625,8.1298828125-7.52001953125.3701171875-.29998779296875.7900390625-.5699462890625,1.22998046875-.449951171875.35986328125.15997314453125.60009765625.57000732421875.719970703125,1.00994873046875.659912109375,2.32000732421875.389892578125,4.71002197265625-.510009765625,6.8800048828125-.72998046875,1.77001953125-1.8798828125,3.45001220703125-3.280029296875,4.95001220703125-2.2099609375,2.57000732421875-5.449951171875,4-7.829833984375,6.3900146484375-27.68017578125,27.55999755859375-57.340087890625,53.32000732421875-84.860107421875,81.08001708984375l-.130126953125.1300048828125c-13.27978515625,12.19000244140625-26.3798828125,24.19000244140625-39.329833984375,36.699951171875-1.659912109375,1.6300048828125-3.630126953125,3.33001708984375-5.6201171875,4.010009765625ZM210.444949149910826,350.035899645638892c-4.25,3.98004150390625-10.4599609375,8.6700439453125-16.25,5.95001220703125,26.22998046875-27.7099609375,58.900146484375-55.7099609375,87.510009765625-83.219970703125,9.3701171875-10.34002685546875,20.14013671875-18.97003173828125,30.300048828125-28.46002197265625,5.030029296875-4.989990234375,13.719970703125-17.6300048828125,21.419921875-16.70001220703125l.090087890625.08001708984375c2.550048828125,9.28997802734375-12.830078125,17.1300048828125-18.68994140625,22.6400146484375-30.2900390625,30.1300048828125-61.56005859375,59.0999755859375-93,88.010009765625-4.030029296875,3.62994384765625-7.27001953125,7.8199462890625-11.380126953125,11.699951171875ZM332.335085868660826,243.875926501107642c0-.41998291015625.429931640625-.41998291015625.849853515625-.41998291015625.4599609375-.17999267578125-1.06005859375.75994873046875-.849853515625.41998291015625ZM232.174929618660826,349.475902087045142l-.1298828125.1199951171875c-2.670166015625,2.83001708984375-7.239990234375,1.6199951171875-11.070068359375,1.83001708984375-.33984375-.02001953125-1.06005859375.09002685546875-1.030029296875-.27001953125.080078125-.239990234375.2900390625-.449951171875.52001953125-.66998291015625,34.429931640625-33.52001953125,72.570068359375-68.4599609375,106.400146484375-101.3499755859375,1.14990234375-1.1500244140625,1.35986328125-.4200439453125,1.4599609375.5999755859375.14990234375,3.5400390625.119873046875,6.6300048828125-1.5,9.27001953125-31.25,30.02001953125-63.43017578125,60.3599853515625-94.650146484375,90.469970703125ZM287.345095634285826,351.085948473763892c-1.68994140625,1.15997314453125-6.6201171875.949951171875-4.170166015625-1.1800537109375.35009765625-.28997802734375.75-.40997314453125,1.199951171875-.75994873046875.380126953125-.3900146484375.580078125-.80999755859375.900146484375-1.20001220703125.56005859375-.71002197265625,1.130126953125-1.489990234375,1.280029296875.04998779296875.06982421875.8599853515625.47998046875,2.16998291015625.830078125,2.96002197265625l-.0400390625.1300048828125ZM279.525027274910826,343.935924059701392c-3.5400390625,2.1199951171875-5.60009765625,6.70001220703125-9.719970703125,7.3499755859375-1.43017578125.20001220703125-3.130126953125.260009765625-4.010009765625,1.57000732421875-.97998046875,1.34002685546875-.659912109375,3-2.830078125,2.92999267578125-1.739990234375-.02996826171875-7.869873046875,1.94000244140625-5.93994140625-.5999755859375,9.9599609375-9.90997314453125,22.369873046875-22,33.719970703125-31.6300048828125l.030029296875.03997802734375c-3.10009765625,7.52001953125-3.619873046875,15.780029296875-11.25,20.34002685546875ZM247.914919853035826,353.795909411263892c-1.059814453125.5400390625-1.72998046875-1.52996826171875-4.179931640625-2.219970703125-.919921875-.32000732421875-2.449951171875-.32000732421875-3.219970703125-.280029296875-.35986328125-.07000732421875-.27001953125-.16998291015625-.239990234375-.27996826171875.080078125-.1500244140625.349853515625-.4100341796875.52001953125-.55999755859375,6.659912109375-5.77001953125,13.159912109375-12.25,19.579833984375-18.6400146484375,21.77001953125-20.83001708984375,45.7802734375-42.66998291015625,66.820068359375-62.8800048828125.940185546875-.8900146484375,1.5-.58001708984375,1.570068359375.45001220703125.10009765625,1.65997314453125-.760009765625,3.6199951171875.1298828125,5.0999755859375.210205078125.4000244140625.47021484375.84002685546875.550048828125,1.25.10009765625.54998779296875-.169921875,1.02001953125-.570068359375,1.42999267578125-4.309814453125,4.1700439453125-8.48974609375,8.21002197265625-12.849853515625,12.3900146484375l-.139892578125.1300048828125c-22.740234375,21.1300048828125-45.68017578125,42.53997802734375-67.97021484375,64.1099853515625ZM310.515017509285826,304.885936266732642c-.2099609375-.1400146484375.39990234375-.70001220703125.60986328125-.92999267578125,6.77001953125-6.8900146484375,15.0400390625-15.08001708984375,21.400146484375-20.72003173828125.25-.19000244140625.47998046875-.27001953125.669921875-.17999267578125l.10009765625.04998779296875c5.239990234375,13.1700439453125-11.780029296875,18.57000732421875-22.780029296875,21.780029296875ZM333.335085868660826,190.315928942513892c-.02001953125.95001220703125.300048828125,2.1199951171875.070068359375,3.010009765625-.26025390625.760009765625-1.380126953125.760009765625-2.210205078125,1.51995849609375-7.760009765625,7.800048828125-16.179931640625,17.25-25.570068359375,24.8800048828125-4.169921875,3.780029296875-7.699951171875,7.96002197265625-11.93994140625,11.59002685546875-.389892578125.33001708984375-.760009765625.719970703125-.4599609375.16998291015625,1.85009765625-2.8499755859375,1.39990234375-8.29998779296875,2.590087890625-11.04998779296875.4599609375-1.0999755859375,1.449951171875-1.78997802734375,2.300048828125-2.65997314453125,11.4599609375-10.800048828125,23.5498046875-24.780029296875,35.449951171875-33.9000244140625l.1298828125-.010009765625c2.3701171875.510009765625-.719970703125,4.32000732421875-.35986328125,6.45001220703125ZM274.164919853035826,191.465892321420142c-.0400390625-.05999755859375-.33984375-.79998779296875-.3798828125-.8499755859375-.4599609375.489990234375-.41015625,1.05999755859375.3798828125.8499755859375ZM273.785037040535826,190.615916735482642c-.4599609375.489990234375-.41015625,1.05999755859375.3798828125.8499755859375-.0400390625-.05999755859375-.33984375-.79998779296875-.3798828125-.8499755859375ZM405.275027274910826,408.965892321420142c-11.090087890625-11.18994140625-23.469970703125-22.51995849609375-33.56005859375-33.6099853515625v-.1099853515625c.010009765625-.29998779296875.2099609375-.58001708984375.510009765625-.8599853515625,1.0400390625-.9100341796875,2.39013671875-2.1099853515625,3.56005859375-3.260009765625,16.909912109375-15.8599853515625-2.93994140625-20.54998779296875-15.27001953125-24.4100341796875-.4599609375-.14996337890625-.909912109375-.28997802734375-1.340087890625-.42999267578125-10.800048828125-3.1199951171875-39.97998046875-24.27996826171875-40.4599609375-3.25994873046875.7900390625,8.63995361328125,6.880126953125,16.18994140625,9.670166015625,24.12994384765625,3.699951171875,7.5400390625,4.759765625,17.32000732421875,9.669921875,24.48004150390625.81982421875,1.20001220703125,1.739990234375,2.32000732421875,2.81005859375,3.3499755859375,1.7998046875,1.8699951171875,4.619873046875,3.05999755859375,7.25,2.08001708984375,2.7900390625-.85003662109375,5.099853515625-3.1099853515625,7.18994140625-5.42999267578125,1.260009765625-1.3800048828125,2.43994140625-2.780029296875,3.60986328125-3.9100341796875.360107421875-.3399658203125.840087890625-.67999267578125,1.300048828125-.6300048828125.10009765625.09002685546875.199951171875.1800537109375.300048828125.27001953125,10.739990234375,9.510009765625,21.699951171875,21.3599853515625,32.1298828125,31.95001220703125,1.77001953125,2.05999755859375,4.320068359375,4.22998046875,7.16015625,3.89996337890625,6.550048828125-.489990234375,10.85986328125-9.41998291015625,5.469970703125-14.25Z"
      />
      <path
        class="cls-2"
        d="M448.565066337410826,98.815928942513892c-.820068359375-20.82000732421875,6.349853515625-21.28997802734375-16.52001953125-29.71002197265625-30.110107421875-14.3900146484375-60.0400390625-28.6400146484375-90.35009765625-42.51995849609375-7.010009765625-3.21002197265625-13.699951171875-6.4300537109375-20.449951171875-10.02001953125-11.580078125,7.39996337890625-25.280029296875,10.70001220703125-38.719970703125,13.46002197265625-34.75,4.29998779296875-70.169921875,6.00994873046875-104.369873046875-1.57000732421875-13.5400390625,1.39996337890625-26.41015625-12.6300048828125-38.460205078125-9.82000732421875-27.4599609375,12.41998291015625-54.58984375,26.0899658203125-82.099853515625,38.69000244140625-9.68994140625,4.5-18.93017578125,9.489990234375-28.880126953125,13.260009765625-9.010009765625,5.44000244140625-13.60986328125,1.8599853515625-12.010009765625,14.9599609375.2100830078125,22.21002197265625-.669921875,44-.0599365234375,66.239990234375-1.7100830078125,5.030029296875-.0399169921875,6.1600341796875,4.1600341796875,2.8699951171875,7.510009765625-2,14.35009765625-4.67999267578125,21.429931640625-7.8699951171875,11.630126953125-4.03997802734375,22.719970703125-8.78997802734375,34.5-12.01995849609375,7.97998046875-1.98004150390625,20.340087890625-12.33001708984375,26.590087890625-2.67999267578125,3.6298828125,5.3499755859375,0,11.19000244140625.739990234375,17.01995849609375.929931640625,10.77001953125-.080078125,20.67999267578125.579833984375,31.42999267578125-.7099609375,48.02001953125.43017578125,95.72003173828125-.56982421875,143.67999267578125.9599609375,16.5400390625.530029296875,32.800048828125.39990234375,49.4200439453125,2.02001953125,8.92999267578125-6.699951171875,23.02996826171875,9.0400390625,17.6099853515625,20.9599609375.739990234375,41.760009765625.260009765625,62.949951171875.3599853515625,31.610107421875-.57000732421875,62.900146484375,1,94.5-.39996337890625,12.300048828125.77996826171875,24.420166015625.6300048828125,36.590087890625.42999267578125,4.31005859375-.07000732421875,8.6298828125-.1400146484375,12.9599609375-.19000244140625.89013671875-.05999755859375,1.68994140625.010009765625,2.419921875.19000244140625h15.1201171875c-4.91015625-7.1600341796875-5.969970703125-16.94000244140625-9.669921875-24.48004150390625-2.7900390625-7.94000244140625-8.880126953125-15.489990234375-9.670166015625-24.12994384765625.47998046875-21.02001953125,29.659912109375.13995361328125,40.4599609375,3.25994873046875.43017578125.1400146484375.880126953125.280029296875,1.340087890625.42999267578125v-33.38995361328125c-.090087890625-2.3699951171875-.159912109375-4.760009765625-.409912109375-7.1500244140625,1.58984375-23.77996826171875-.420166015625-47.92999267578125.469970703125-71.760009765625-.31005859375-28.52996826171875.419921875-56.719970703125-.400146484375-85.28997802734375-1.5-31.1400146484375,11.719970703125-21.3599853515625,32.449951171875-13.010009765625,18.940185546875,6.030029296875,38.240234375,14.030029296875,56.0302734375,20.32000732421875.6298828125-18.260009765625-1.10009765625-38.530029296875-.090087890625-57.6199951171875ZM338.785037040535826,90.355906969857642c.75,5.1199951171875,3.77001953125,4.20001220703125,5,9.42999267578125.389892578125,1.61004638671875.52001953125,3.45001220703125.10009765625,5.07000732421875-2.0400390625,6.8699951171875,3.349853515625,18.21002197265625-3.340087890625,21.46002197265625-1.1201171875.6099853515625-1.719970703125,1.45001220703125-1.699951171875,2.8499755859375.099853515625,5.10003662109375.25,9.84002685546875.949951171875,14.6300048828125.369873046875.82000732421875,1.570068359375.8900146484375,2.52001953125,1.760009765625,1.429931640625,1.22998046875,1.669921875,3.1199951171875,1.22998046875,4.8499755859375-1.420166015625,8.07000732421875,4.030029296875,23.1300048828125-2.989990234375,26.6500244140625-1.14013671875.510009765625-1.669921875,1.54998779296875-1.52001953125,2.84002685546875.280029296875,4.17999267578125.489990234375,8.25.1201171875,12.40997314453125-.16015625,1.15997314453125.329833984375,2.010009765625,1.519775390625,2.40997314453125,2.210205078125.57000732421875,3.219970703125,2.72003173828125,2.81005859375,4.87005615234375-.419921875,5.66998291015625,1.639892578125,15.22998046875.400146484375,21.5699462890625-.380126953125,1.84002685546875-.93017578125,3.35003662109375-2.16015625,4.6300048828125-.7099609375.780029296875-1.919921875,1.11004638671875-2.219970703125,2.010009765625.169921875,4.6400146484375-.81005859375,11.10003662109375-.159912109375,14.84002685546875.619873046875,2.01995849609375,3.239990234375,2.70001220703125,4,4.75,2.719970703125,6.8399658203125-.9501953125,15.53997802734375.5498046875,22.25.530029296875,6.8900146484375-3.93994140625,6.0799560546875-4.949951171875,12.67999267578125-.409912109375,3.02996826171875-.050048828125,5.96002197265625.010009765625,9.02996826171875-.169921875,3.510009765625,3.860107421875,3.60003662109375,4.919921875,6.510009765625.2900390625.8599853515625.230224609375,1.85003662109375.10009765625,2.75-.89990234375,5.6700439453125.780029296875,13.6700439453125-1.56005859375,17.33001708984375-1.419921875,2.46002197265625-5.119873046875,2.21002197265625-7.52001953125,1.05999755859375-4.059814453125-1.29998779296875-8.14990234375-2.25-12.289794921875-1.05999755859375-4.449951171875.66998291015625-8.60009765625,2-11.85009765625,4.91998291015625-1.75,2.4000244140625-4.06005859375,4.34002685546875-5.349853515625,7.02001953125-3.6201171875,5.1199951171875-3.840087890625,12.3900146484375-1.980224609375,18.30999755859375,5.3701171875,12.32000732421875,8.18017578125,21.3599853515625-7.72998046875,18.8599853515625-8.3798828125-2.6199951171875-27.93994140625,4.760009765625-30.43994140625-3.65997314453125-.239990234375-1.239990234375-1.219970703125-1.780029296875-2.489990234375-1.70001220703125-4.429931640625.09002685546875-8.659912109375.20001220703125-13.10009765625.239990234375-4.059814453125.83001708984375-.27978515625,5.5-10.72998046875,5.32000732421875-6.22998046875-.55999755859375-12.22998046875-1.239990234375-18.409912109375-.34002685546875-.880126953125.08001708984375-1.669921875-.3199462890625-2.31005859375-.87994384765625-.969970703125-.85003662109375-2.0400390625-2.61004638671875-2.579833984375-3.57000732421875-.47998046875-.80999755859375-.830078125-1.05999755859375-2.51025390625-1.010009765625-5.419921875,1.28997802734375-18.93994140625-1.780029296875-21.22998046875,1.969970703125-.639892578125,1.1400146484375-.60986328125,2.52001953125-3.679931640625,3.260009765625-1.64990234375.3699951171875-3.419921875.60003662109375-5.050048828125.260009765625-4.659912109375-.94000244140625-13.52978515625.96002197265625-18.83984375.03997802734375-5.610107421875-.69000244140625-2.93994140625-4.90997314453125-6.5-5.15997314453125-4.070068359375.16998291015625-8.260009765625.8900146484375-12.219970703125-.010009765625-.5-.05999755859375-.93017578125-.04998779296875-1.239990234375.1199951171875-.860107421875.4100341796875-.760009765625,2.17999267578125-1.490234375,3.03997802734375-.9599609375,1.260009765625-2.349853515625,1.6300048828125-4.059814453125,1.85003662109375-2.89013671875.32000732421875-6.52001953125-.20001220703125-9.25-.010009765625-2.0400390625.21002197265625-4.699951171875.66998291015625-6.469970703125.030029296875-6.06005859375-2.47003173828125-2.68017578125-11.8800048828125-3.39013671875-18.1300048828125-.099853515625-1.24005126953125.130126953125-2.55999755859375.8701171875-3.58001708984375,1.35986328125-1.8800048828125,2.889892578125-1.8800048828125,3.830078125-2.8699951171875,2.02978515625-2.72003173828125.269775390625-7,1.2099609375-10.1600341796875.9599609375-6.9599609375-1.6201171875-4.04998779296875-4.6201171875-8.13995361328125-.58984375-1.09002685546875-.75-2.30999755859375-.7099609375-3.510009765625.1298828125-7.85003662109375-3.77001953125-21.6099853515625,2.050048828125-26.10003662109375,1.47998046875-.97998046875,2.239990234375-1.1300048828125,2.52001953125-3.19000244140625.60986328125-3.7099609375.800048828125-10.30999755859375.099853515625-13.51995849609375-.31982421875-.73004150390625-1.2099609375-.9000244140625-1.919921875-1.1600341796875-3.5400390625-.949951171875-3.580078125-4.699951171875-3.080078125-7.8399658203125-.2900390625-6.08001708984375-1.56005859375-11.8900146484375-.419921875-17.79998779296875,1.320068359375-6.87005615234375,5.179931640625-6.19000244140625,5.780029296875-11.7900390625.35986328125-2.8900146484375-.880126953125-7.760009765625.059814453125-10.89996337890625-.009765625-.71002197265625-.599853515625-1.05999755859375-1.199951171875-1.300048828125-4.7099609375-1.72998046875-5.099853515625-7.13995361328125-4.97998046875-11.77996826171875.179931640625-5.25,1.260009765625-11.10003662109375.860107421875-15.47998046875-.14990234375-1.48004150390625.58984375-2.84002685546875,1.56005859375-3.9100341796875,1.81982421875-2.14996337890625,2.829833984375-1.27996826171875,3.309814453125-2.1300048828125.81005859375-1.55999755859375.25-4.8699951171875.41015625-6.8900146484375-.010009765625-1.44000244140625-.070068359375-3.12994384765625-.0400390625-4.6199951171875-.150146484375-1.30999755859375.639892578125-3.0799560546875-.25-3.97998046875-.72998046875-.59002685546875-1.909912109375-.69000244140625-2.610107421875-1.32000732421875-6.199951171875-5.1400146484375-1.409912109375-18-2.43994140625-26.27001953125-.159912109375-1.22998046875-.080078125-2.53997802734375.550048828125-3.64996337890625,1.22998046875-2.20001220703125,3.280029296875-2.08001708984375,4.349853515625-3.29998779296875,1.610107421875-1.92999267578125.240234375-5.05999755859375.26025390625-7.4100341796875-.16015625-2.3499755859375.48974609375-5.1099853515625-.76025390625-6.989990234375-.929931640625-1.219970703125-2.889892578125-1.22998046875-3.93994140625-3.3800048828125-.510009765625-.989990234375-.56982421875-2.14996337890625-.419921875-3.22998046875.72998046875-6.1300048828125-1.699951171875-14.66998291015625-.4599609375-20.72003173828125.330078125-3.27996826171875,3.0400390625-4.9599609375,4.780029296875-7.3299560546875,1.599853515625-3.6600341796875.14990234375-9.760009765625.72998046875-14.34002685546875.099853515625-1.90997314453125-2.2900390625-1.1500244140625-3.6201171875-2.27996826171875-2.4599609375-1.800048828125-1.530029296875-5.25-1.829833984375-7.95001220703125-.18017578125-6.6300048828125-.030029296875-10.6099853515625,1.789794921875-12.8699951171875,2.699951171875-3.1500244140625,8.690185546875-2.67999267578125,13.330078125-2.510009765625,2.72998046875.27996826171875,5.550048828125-.22003173828125,7.760009765625,1.52996826171875,1.14990234375.760009765625,1.10009765625,2.7900390625,1.89013671875,3.44000244140625,4.27978515625.550048828125,8.89990234375.69000244140625,13.259765625.280029296875,1.2099609375-.1400146484375,2.080078125-.989990234375,2.64013671875-1.989990234375,2.75-5.239990234375,12.35986328125-2.5,18.3798828125-3.05999755859375,2.360107421875-.1700439453125,4.580078125-.44000244140625,6.9599609375-.1300048828125,5.650146484375.3299560546875,4.460205078125,4.05999755859375,8.72998046875,5.22998046875,6.66015625.71002197265625,13.31005859375.1500244140625,19.940185546875.010009765625,1.5400390625-.1500244140625,1.10986328125-2.02001953125,2-3.16998291015625,2.119873046875-2.36004638671875,5.840087890625-2.48004150390625,8.760009765625-1.94000244140625,7.3798828125,1.2099609375,18.669921875-3.57000732421875,22.409912109375,3.3399658203125.81005859375,1.27001953125,1.949951171875,1.760009765625,3.4599609375,1.989990234375,6,.5400390625,13.719970703125-1.38995361328125,19.960205078125-.07000732421875.58984375-.1099853515625.809814453125-.67999267578125.9697265625-1.2099609375.52001953125-2.7900390625,2.97021484375-3.80999755859375,6.47021484375-4.17999267578125,6.349853515625-.6400146484375,15.72998046875,1.13995361328125,20.72998046875.260009765625.989990234375-.1400146484375,2.02001953125.1099853515625,2.849853515625.67999267578125,2.460205078125,1.3699951171875,1.489990234375,4.15997314453125,3.56005859375,4.4599609375,3.400146484375.19000244140625,6.72998046875-.88995361328125,10.150146484375-.04998779296875,4.3798828125.72998046875,4.2998046875-2.57000732421875,7.409912109375-4.1300048828125,2.260009765625-.969970703125,5.349853515625-1.0999755859375,7.949951171875-1.03997802734375,3.52001953125-.3900146484375,8.2099609375-.83001708984375,10.510009765625,1.5,2.900146484375,2.08001708984375,3.380126953125,7.33001708984375,2.60009765625,11.4599609375-.420166015625,4.27001953125.3798828125,9.33001708984375-4.230224609375,11.5l-.10986328125.1300048828125c-1.419921875,3.34002685546875-1.239990234375,7.44000244140625-.97998046875,11.010009765625ZM277.455857570312219,195.862260913299906c-14.679931640625-31.25-50.989990234375-3.84002685546875-75.949951171875,1.510009765625l-.030029296875-.05999755859375c17.72998046875-27.72003173828125,36.64013671875-58.5400390625,65.219970703125-75.49005126953125.989990234375-.50994873046875,1.929931640625-1.40997314453125,1.989990234375-2.47998046875,3.650146484375-35.989990234375-88,50.44000244140625-84.56982421875,77.04998779296875,14.389892578125,33.22003173828125,49.18994140625,6.7900390625,73.89990234375,1.34002685546875,2.669921875-.46002197265625,6.090087890625.02996826171875,6.81005859375,2.57000732421875,2.56005859375,14.8499755859375-33.010009765625,52.54998779296875-39.97998046875,57.6099853515625-11.18994140625,13.07000732421875-38.68017578125,25.28997802734375-38,38.1500244140625.18994140625,4.02996826171875,3.179931640625,8.199951171875,10.159912109375,12.469970703125,1.630126953125.84002685546875,3.090087890625,2.19000244140625,4.77001953125,2.280029296875,31.590087890625-24.20001220703125,91.570068359375-70.8699951171875,75.679931640625-114.95001220703125ZM273.785935695312219,190.612260913299906c.0400390625.04998779296875.33984375.78997802734375.3798828125.8499755859375-.7900390625.21002197265625-.83984375-.3599853515625-.3798828125-.8499755859375Z"
      />
    </g>
  </g>
</svg>
