<svg viewBox="0 0 459.318928121710996 438.282652976382451">
  <defs>
    <style>
      .cls-1 {
        fill: var(--black);
      }

      .cls-2 {
        fill: var(--yellow);
      }
    </style>
  </defs>
  <g>
    <g>
      <path
        class="cls-1"
        d="M264.02391357846318,84.149531945586205c-6.5,13.3699951171875-11.409912109375,42.5799560546875-.369873046875,21.8800048828125l.0498046875-.1700439453125c1.2900390625-7.02996826171875.169921875-14.3699951171875.72998046875-21.4599609375.050048828125-.5400390625.010009765625-1.08001708984375-.409912109375-.25ZM264.02391357846318,84.149531945586205c-6.5,13.3699951171875-11.409912109375,42.5799560546875-.369873046875,21.8800048828125l.0498046875-.1700439453125c1.2900390625-7.02996826171875.169921875-14.3699951171875.72998046875-21.4599609375.050048828125-.5400390625.010009765625-1.08001708984375-.409912109375-.25ZM300.34398193783818,96.489497765898705c-6.91015625-6.80999755859375-13.9501953125-12.57000732421875-14-16.44000244140625-.52001953125-3.0899658203125.27001953125-7.32000732421875,1.56982421875-15.17999267578125.820068359375-4.05999755859375.990234375-8.219970703125,2.260009765625-12.45001220703125,3.989990234375-12.3499755859375-7.35986328125-26.66998291015625-19.5-29.69000244140625-5.889892578125-1.47998046875-12.059814453125-.25994873046875-16.579833984375,5.1500244140625-12.300048828125,24.32000732421875-18.239990234375,52.05999755859375-26.31005859375,78.3900146484375-.2900390625,1.0799560546875-.8798828125,1.8800048828125-1.919921875,2.22998046875-5.91015625,2.280029296875-13.490234375,7.21002197265625-15.5,14.1099853515625-1.610107421875,6.7900390625,5.759765625,13.1500244140625,4.509765625,18.989990234375-.179931640625,1.27001953125-1.35986328125,2.6600341796875-2.409912109375,3.6600341796875-17.329833984375,16.33001708984375-14.780029296875,29.96002197265625,7.699951171875,41.25l.170166015625.08001708984375c14.85986328125,7.50994873046875,28.75-8.050048828125,33.449951171875-21.5400390625.010009765625-.02996826171875.280029296875-.1300048828125.43994140625-.02996826171875.75.5,1.110107421875,1,1.9599609375,1.75,23.380126953125,22.44000244140625,39.239990234375,1.38995361328125,32.93994140625-27.44000244140625-.5498046875-2.69000244140625-1.89990234375-6.34002685546875-1.099853515625-8.8900146484375,1.580078125-5.45001220703125,9.010009765625-6.1300048828125,12.489990234375-10.03997802734375,6.280029296875-8.17999267578125,8.489990234375-16.8699951171875-.169921875-23.9100341796875ZM288.93382568783818,108.649531945586205c-1.949951171875,1.16998291015625-3.7900390625,2.17999267578125-5.7900390625,3.3299560546875-11.099853515625,6.260009765625-11.909912109375,6.57000732421875-11.289794921875,14.8800048828125.419921875,4.29998779296875.68994140625,10.6500244140625.929931640625,15.30999755859375,1.070068359375,5.02001953125,3.489990234375,15.9100341796875.60009765625,17.4100341796875-.8701171875.6199951171875-3.050048828125-.8599853515625-4.01025390625-1.84002685546875-4.33984375-4.1199951171875-4.64990234375-15.95001220703125-4.929931640625-21.91998291015625-.1298828125-5.07000732421875.080078125-10.22998046875.010009765625-15.010009765625-.06005859375-.90997314453125-.60986328125-1.32000732421875-1.56982421875-1.21002197265625-24.960205078125,3.34002685546875-18.64013671875,69.4000244140625-44.840087890625,46.98004150390625-.43994140625-.4200439453125-2.659912109375-2.010009765625-1.590087890625-2.4000244140625l.130126953125-.03997802734375c12.60986328125-.780029296875,12.929931640625-21.3800048828125,17.829833984375-31.4000244140625.18017578125-.3900146484375.22998046875-.66998291015625.080078125-.80999755859375-.8798828125-.32000732421875-1.949951171875-.010009765625-2.830078125-.64996337890625-1.559814453125-.98004150390625-5.2900390625-3.52001953125-4.419921875-5.510009765625,1.3701171875-3.30999755859375,12.6201171875-4.6700439453125,14.969970703125-10.6700439453125.739990234375-1.72998046875.22998046875-3.449951171875.699951171875-4.64996337890625,3.89013671875-8.32000732421875,23.7900390625-100.85003662109375,31.260009765625-61.6300048828125.219970703125,1.22998046875.340087890625,2.5.130126953125,3.66998291015625-2.5400390625,14.80999755859375-7.760009765625,45.33001708984375-.2099609375,52.989990234375.760009765625.8699951171875,1.889892578125-.05999755859375,2.639892578125-.5799560546875,2.489990234375-1.80999755859375,4.780029296875-2.6300048828125,6.909912109375-2.33001708984375,1.9501953125.27001953125,3.7900390625,1.5,5.4501953125,3.739990234375.58984375.83001708984375.829833984375,1.6600341796875-.16015625,2.34002685546875ZM264.02391357846318,84.149531945586205c-6.5,13.3699951171875-11.409912109375,42.5799560546875-.369873046875,21.8800048828125l.0498046875-.1700439453125c1.2900390625-7.02996826171875.169921875-14.3699951171875.72998046875-21.4599609375.050048828125-.5400390625.010009765625-1.08001708984375-.409912109375-.25ZM300.34398193783818,96.489497765898705c-6.91015625-6.80999755859375-13.9501953125-12.57000732421875-14-16.44000244140625-.52001953125-3.0899658203125.27001953125-7.32000732421875,1.56982421875-15.17999267578125.820068359375-4.05999755859375.990234375-8.219970703125,2.260009765625-12.45001220703125,3.989990234375-12.3499755859375-7.35986328125-26.66998291015625-19.5-29.69000244140625-5.889892578125-1.47998046875-12.059814453125-.25994873046875-16.579833984375,5.1500244140625-12.300048828125,24.32000732421875-18.239990234375,52.05999755859375-26.31005859375,78.3900146484375-.2900390625,1.0799560546875-.8798828125,1.8800048828125-1.919921875,2.22998046875-5.91015625,2.280029296875-13.490234375,7.21002197265625-15.5,14.1099853515625-1.610107421875,6.7900390625,5.759765625,13.1500244140625,4.509765625,18.989990234375-.179931640625,1.27001953125-1.35986328125,2.6600341796875-2.409912109375,3.6600341796875-17.329833984375,16.33001708984375-14.780029296875,29.96002197265625,7.699951171875,41.25l.170166015625.08001708984375c14.85986328125,7.50994873046875,28.75-8.050048828125,33.449951171875-21.5400390625.010009765625-.02996826171875.280029296875-.1300048828125.43994140625-.02996826171875.75.5,1.110107421875,1,1.9599609375,1.75,23.380126953125,22.44000244140625,39.239990234375,1.38995361328125,32.93994140625-27.44000244140625-.5498046875-2.69000244140625-1.89990234375-6.34002685546875-1.099853515625-8.8900146484375,1.580078125-5.45001220703125,9.010009765625-6.1300048828125,12.489990234375-10.03997802734375,6.280029296875-8.17999267578125,8.489990234375-16.8699951171875-.169921875-23.9100341796875ZM288.93382568783818,108.649531945586205c-1.949951171875,1.16998291015625-3.7900390625,2.17999267578125-5.7900390625,3.3299560546875-11.099853515625,6.260009765625-11.909912109375,6.57000732421875-11.289794921875,14.8800048828125.419921875,4.29998779296875.68994140625,10.6500244140625.929931640625,15.30999755859375,1.070068359375,5.02001953125,3.489990234375,15.9100341796875.60009765625,17.4100341796875-.8701171875.6199951171875-3.050048828125-.8599853515625-4.01025390625-1.84002685546875-4.33984375-4.1199951171875-4.64990234375-15.95001220703125-4.929931640625-21.91998291015625-.1298828125-5.07000732421875.080078125-10.22998046875.010009765625-15.010009765625-.06005859375-.90997314453125-.60986328125-1.32000732421875-1.56982421875-1.21002197265625-24.960205078125,3.34002685546875-18.64013671875,69.4000244140625-44.840087890625,46.98004150390625-.43994140625-.4200439453125-2.659912109375-2.010009765625-1.590087890625-2.4000244140625l.130126953125-.03997802734375c12.60986328125-.780029296875,12.929931640625-21.3800048828125,17.829833984375-31.4000244140625.18017578125-.3900146484375.22998046875-.66998291015625.080078125-.80999755859375-.8798828125-.32000732421875-1.949951171875-.010009765625-2.830078125-.64996337890625-1.559814453125-.98004150390625-5.2900390625-3.52001953125-4.419921875-5.510009765625,1.3701171875-3.30999755859375,12.6201171875-4.6700439453125,14.969970703125-10.6700439453125.739990234375-1.72998046875.22998046875-3.449951171875.699951171875-4.64996337890625,3.89013671875-8.32000732421875,23.7900390625-100.85003662109375,31.260009765625-61.6300048828125.219970703125,1.22998046875.340087890625,2.5.130126953125,3.66998291015625-2.5400390625,14.80999755859375-7.760009765625,45.33001708984375-.2099609375,52.989990234375.760009765625.8699951171875,1.889892578125-.05999755859375,2.639892578125-.5799560546875,2.489990234375-1.80999755859375,4.780029296875-2.6300048828125,6.909912109375-2.33001708984375,1.9501953125.27001953125,3.7900390625,1.5,5.4501953125,3.739990234375.58984375.83001708984375.829833984375,1.6600341796875-.16015625,2.34002685546875ZM264.02391357846318,84.149531945586205c-6.5,13.3699951171875-11.409912109375,42.5799560546875-.369873046875,21.8800048828125l.0498046875-.1700439453125c1.2900390625-7.02996826171875.169921875-14.3699951171875.72998046875-21.4599609375.050048828125-.5400390625.010009765625-1.08001708984375-.409912109375-.25ZM333.30394287533818,33.969539269804955c-103.590087890625-102.8800048828125-255.6201171875,51.14996337890625-151.7900390625,153.88995361328125l.14990234375.1400146484375c11.9501953125,10.22003173828125,25.43017578125,18.94000244140625,40.580078125,23.66998291015625.5400390625.20001220703125.93994140625.489990234375,1.080078125.95001220703125-2.169921875,23.3900146484375-13.68017578125,44.80999755859375-29.7099609375,61.20001220703125-.340087890625,3.52001953125,2.18994140625,7.010009765625,4.5400390625,8.52001953125,6.619873046875,3.989990234375,16.25,1.44000244140625,23.9697265625-1.22003173828125,16.070068359375-5.719970703125,34.02001953125-17.47998046875,40.420166015625-23.75,12.599853515625-8.8699951171875,21.27001953125-21.28997802734375,29.570068359375-33.55999755859375,6.43994140625-9.33001708984375,13-18.42999267578125,21.909912109375-25.3800048828125,3.39990234375-2.79998779296875,7.380126953125-4.8499755859375,11.18994140625-7.02996826171875,23.190185546875-19.02001953125,36.39013671875-48.47003173828125,37.699951171875-78.010009765625,1.400146484375-29.09002685546875-8.699951171875-58.6099853515625-29.60986328125-79.41998291015625ZM302.53392334408818,188.069514855742455c-1.60009765625.91998291015625-3.60009765625,1.33001708984375-5.18994140625,2.1400146484375-5.52001953125,2.6099853515625-8.650146484375,7.27996826171875-11.320068359375,12.39996337890625-12.639892578125,26.47003173828125-35.179931640625,49.489990234375-62.60009765625,60.6500244140625-.72998046875.16998291015625-.219970703125-.75-.010009765625-1.1300048828125,9.550048828125-17.47998046875,17.75-37.78997802734375,16.380126953125-57.83001708984375-.820068359375-3.76995849609375-4.68994140625-5.6400146484375-8.090087890625-7.0999755859375-5.27001953125-2.04998779296875-11.679931640625-2.85003662109375-16.77001953125-5.17999267578125-35.9599609375-18.780029296875-59.599853515625-61.1199951171875-49.419921875-101.80999755859375l.0400390625-.17999267578125c7.06982421875-43.1500244140625,47.969970703125-72.6400146484375,90.1298828125-73.25,93-1.510009765625,125.2900390625,124.3599853515625,46.85009765625,171.28997802734375ZM300.34398193783818,96.489497765898705c-6.91015625-6.80999755859375-13.9501953125-12.57000732421875-14-16.44000244140625-.52001953125-3.0899658203125.27001953125-7.32000732421875,1.56982421875-15.17999267578125.820068359375-4.05999755859375.990234375-8.219970703125,2.260009765625-12.45001220703125,3.989990234375-12.3499755859375-7.35986328125-26.66998291015625-19.5-29.69000244140625-5.889892578125-1.47998046875-12.059814453125-.25994873046875-16.579833984375,5.1500244140625-12.300048828125,24.32000732421875-18.239990234375,52.05999755859375-26.31005859375,78.3900146484375-.2900390625,1.0799560546875-.8798828125,1.8800048828125-1.919921875,2.22998046875-5.91015625,2.280029296875-13.490234375,7.21002197265625-15.5,14.1099853515625-1.610107421875,6.7900390625,5.759765625,13.1500244140625,4.509765625,18.989990234375-.179931640625,1.27001953125-1.35986328125,2.6600341796875-2.409912109375,3.6600341796875-17.329833984375,16.33001708984375-14.780029296875,29.96002197265625,7.699951171875,41.25l.170166015625.08001708984375c14.85986328125,7.50994873046875,28.75-8.050048828125,33.449951171875-21.5400390625.010009765625-.02996826171875.280029296875-.1300048828125.43994140625-.02996826171875.75.5,1.110107421875,1,1.9599609375,1.75,23.380126953125,22.44000244140625,39.239990234375,1.38995361328125,32.93994140625-27.44000244140625-.5498046875-2.69000244140625-1.89990234375-6.34002685546875-1.099853515625-8.8900146484375,1.580078125-5.45001220703125,9.010009765625-6.1300048828125,12.489990234375-10.03997802734375,6.280029296875-8.17999267578125,8.489990234375-16.8699951171875-.169921875-23.9100341796875ZM288.93382568783818,108.649531945586205c-1.949951171875,1.16998291015625-3.7900390625,2.17999267578125-5.7900390625,3.3299560546875-11.099853515625,6.260009765625-11.909912109375,6.57000732421875-11.289794921875,14.8800048828125.419921875,4.29998779296875.68994140625,10.6500244140625.929931640625,15.30999755859375,1.070068359375,5.02001953125,3.489990234375,15.9100341796875.60009765625,17.4100341796875-.8701171875.6199951171875-3.050048828125-.8599853515625-4.01025390625-1.84002685546875-4.33984375-4.1199951171875-4.64990234375-15.95001220703125-4.929931640625-21.91998291015625-.1298828125-5.07000732421875.080078125-10.22998046875.010009765625-15.010009765625-.06005859375-.90997314453125-.60986328125-1.32000732421875-1.56982421875-1.21002197265625-24.960205078125,3.34002685546875-18.64013671875,69.4000244140625-44.840087890625,46.98004150390625-.43994140625-.4200439453125-2.659912109375-2.010009765625-1.590087890625-2.4000244140625l.130126953125-.03997802734375c12.60986328125-.780029296875,12.929931640625-21.3800048828125,17.829833984375-31.4000244140625.18017578125-.3900146484375.22998046875-.66998291015625.080078125-.80999755859375-.8798828125-.32000732421875-1.949951171875-.010009765625-2.830078125-.64996337890625-1.559814453125-.98004150390625-5.2900390625-3.52001953125-4.419921875-5.510009765625,1.3701171875-3.30999755859375,12.6201171875-4.6700439453125,14.969970703125-10.6700439453125.739990234375-1.72998046875.22998046875-3.449951171875.699951171875-4.64996337890625,3.89013671875-8.32000732421875,23.7900390625-100.85003662109375,31.260009765625-61.6300048828125.219970703125,1.22998046875.340087890625,2.5.130126953125,3.66998291015625-2.5400390625,14.80999755859375-7.760009765625,45.33001708984375-.2099609375,52.989990234375.760009765625.8699951171875,1.889892578125-.05999755859375,2.639892578125-.5799560546875,2.489990234375-1.80999755859375,4.780029296875-2.6300048828125,6.909912109375-2.33001708984375,1.9501953125.27001953125,3.7900390625,1.5,5.4501953125,3.739990234375.58984375.83001708984375.829833984375,1.6600341796875-.16015625,2.34002685546875ZM264.02391357846318,84.149531945586205c-6.5,13.3699951171875-11.409912109375,42.5799560546875-.369873046875,21.8800048828125l.0498046875-.1700439453125c1.2900390625-7.02996826171875.169921875-14.3699951171875.72998046875-21.4599609375.050048828125-.5400390625.010009765625-1.08001708984375-.409912109375-.25ZM264.02391357846318,84.149531945586205c-6.5,13.3699951171875-11.409912109375,42.5799560546875-.369873046875,21.8800048828125l.0498046875-.1700439453125c1.2900390625-7.02996826171875.169921875-14.3699951171875.72998046875-21.4599609375.050048828125-.5400390625.010009765625-1.08001708984375-.409912109375-.25ZM264.02391357846318,84.149531945586205c-6.5,13.3699951171875-11.409912109375,42.5799560546875-.369873046875,21.8800048828125l.0498046875-.1700439453125c1.2900390625-7.02996826171875.169921875-14.3699951171875.72998046875-21.4599609375.050048828125-.5400390625.010009765625-1.08001708984375-.409912109375-.25ZM300.34398193783818,96.489497765898705c-6.91015625-6.80999755859375-13.9501953125-12.57000732421875-14-16.44000244140625-.52001953125-3.0899658203125.27001953125-7.32000732421875,1.56982421875-15.17999267578125.820068359375-4.05999755859375.990234375-8.219970703125,2.260009765625-12.45001220703125,3.989990234375-12.3499755859375-7.35986328125-26.66998291015625-19.5-29.69000244140625-5.889892578125-1.47998046875-12.059814453125-.25994873046875-16.579833984375,5.1500244140625-12.300048828125,24.32000732421875-18.239990234375,52.05999755859375-26.31005859375,78.3900146484375-.2900390625,1.0799560546875-.8798828125,1.8800048828125-1.919921875,2.22998046875-5.91015625,2.280029296875-13.490234375,7.21002197265625-15.5,14.1099853515625-1.610107421875,6.7900390625,5.759765625,13.1500244140625,4.509765625,18.989990234375-.179931640625,1.27001953125-1.35986328125,2.6600341796875-2.409912109375,3.6600341796875-17.329833984375,16.33001708984375-14.780029296875,29.96002197265625,7.699951171875,41.25l.170166015625.08001708984375c14.85986328125,7.50994873046875,28.75-8.050048828125,33.449951171875-21.5400390625.010009765625-.02996826171875.280029296875-.1300048828125.43994140625-.02996826171875.75.5,1.110107421875,1,1.9599609375,1.75,23.380126953125,22.44000244140625,39.239990234375,1.38995361328125,32.93994140625-27.44000244140625-.5498046875-2.69000244140625-1.89990234375-6.34002685546875-1.099853515625-8.8900146484375,1.580078125-5.45001220703125,9.010009765625-6.1300048828125,12.489990234375-10.03997802734375,6.280029296875-8.17999267578125,8.489990234375-16.8699951171875-.169921875-23.9100341796875ZM288.93382568783818,108.649531945586205c-1.949951171875,1.16998291015625-3.7900390625,2.17999267578125-5.7900390625,3.3299560546875-11.099853515625,6.260009765625-11.909912109375,6.57000732421875-11.289794921875,14.8800048828125.419921875,4.29998779296875.68994140625,10.6500244140625.929931640625,15.30999755859375,1.070068359375,5.02001953125,3.489990234375,15.9100341796875.60009765625,17.4100341796875-.8701171875.6199951171875-3.050048828125-.8599853515625-4.01025390625-1.84002685546875-4.33984375-4.1199951171875-4.64990234375-15.95001220703125-4.929931640625-21.91998291015625-.1298828125-5.07000732421875.080078125-10.22998046875.010009765625-15.010009765625-.06005859375-.90997314453125-.60986328125-1.32000732421875-1.56982421875-1.21002197265625-24.960205078125,3.34002685546875-18.64013671875,69.4000244140625-44.840087890625,46.98004150390625-.43994140625-.4200439453125-2.659912109375-2.010009765625-1.590087890625-2.4000244140625l.130126953125-.03997802734375c12.60986328125-.780029296875,12.929931640625-21.3800048828125,17.829833984375-31.4000244140625.18017578125-.3900146484375.22998046875-.66998291015625.080078125-.80999755859375-.8798828125-.32000732421875-1.949951171875-.010009765625-2.830078125-.64996337890625-1.559814453125-.98004150390625-5.2900390625-3.52001953125-4.419921875-5.510009765625,1.3701171875-3.30999755859375,12.6201171875-4.6700439453125,14.969970703125-10.6700439453125.739990234375-1.72998046875.22998046875-3.449951171875.699951171875-4.64996337890625,3.89013671875-8.32000732421875,23.7900390625-100.85003662109375,31.260009765625-61.6300048828125.219970703125,1.22998046875.340087890625,2.5.130126953125,3.66998291015625-2.5400390625,14.80999755859375-7.760009765625,45.33001708984375-.2099609375,52.989990234375.760009765625.8699951171875,1.889892578125-.05999755859375,2.639892578125-.5799560546875,2.489990234375-1.80999755859375,4.780029296875-2.6300048828125,6.909912109375-2.33001708984375,1.9501953125.27001953125,3.7900390625,1.5,5.4501953125,3.739990234375.58984375.83001708984375.829833984375,1.6600341796875-.16015625,2.34002685546875ZM264.02391357846318,84.149531945586205c-6.5,13.3699951171875-11.409912109375,42.5799560546875-.369873046875,21.8800048828125l.0498046875-.1700439453125c1.2900390625-7.02996826171875.169921875-14.3699951171875.72998046875-21.4599609375.050048828125-.5400390625.010009765625-1.08001708984375-.409912109375-.25ZM456.79393310971318,316.409480676054955l-.050048828125-.199951171875c-16.33984375-63.71002197265625-93.6201171875-90.86004638671875-147.18994140625-54.4000244140625-35.91015625-2.08001708984375-75,11-97.570068359375,39.80999755859375-9.849853515625,13.72003173828125,3.330078125,18.3800048828125,19.330078125,13.02001953125.93994140625-.30999755859375,1.85986328125-.510009765625,2.800048828125-.47003173828125,10.43994140625.6400146484375,27.829833984375-.2099609375,34.97998046875,6.08001708984375,2.949951171875,2.58001708984375,4.14990234375,6.3900146484375,2.43994140625,11.989990234375-.260009765625.8599853515625-.5,1.82000732421875-.56005859375,2.66998291015625-.2099609375,6.1300048828125.22998046875,12.19000244140625,1.14013671875,18.1800537109375,22.409912109375,128.05999755859375,211.06982421875,89.39996337890625,184.679931640625-36.6800537109375ZM439.99388428158818,317.899531945586205l-.0400390625.01995849609375c-1.260009765625-1.30999755859375-3.0498046875-2.260009765625-4.43994140625-3.3399658203125,2.0400390625-5.73004150390625,4.179931640625.52996826171875,4.47998046875,3.32000732421875ZM435.69383545346318,306.359492883086205l-.02001953125.1700439453125c-1.68994140625,5.3699951171875-5.9599609375,5.78997802734375-10.849853515625,4.01995849609375-.64013671875-.3299560546875.179931640625-.77996826171875.449951171875-1.2099609375,2.9599609375-3.58001708984375,8.639892578125-12.86004638671875,10.419921875-2.98004150390625ZM409.40404053158818,341.559505090117455l-.06005859375-.20001220703125c-1.420166015625-3.28997802734375-1.239990234375-6.92999267578125.58984375-9.469970703125,5.8701171875-8.32000732421875,20.47998046875-8.20001220703125,22.43994140625,3.3499755859375,4.590087890625,14.71002197265625-20.02978515625,20.9000244140625-22.9697265625,6.32000732421875ZM428.66380615658818,293.979488000273705l.1201171875.1400146484375c3.800048828125,3.30999755859375-1.989990234375,5.3599853515625-4.52001953125,7.72998046875-9.1201171875,12.1500244140625-27.550048828125,13.24005126953125-31.330078125,30.280029296875-.099853515625.52001953125-.369873046875,1.8599853515625-.829833984375.96002197265625-.800048828125-1.55999755859375-1.35009765625-3.4300537109375-.730224609375-5.260009765625.650146484375-2.34002685546875,3.240234375-3.6099853515625,4.7900390625-5.2900390625,5.240234375-6.1199951171875,11.380126953125-11.40997314453125,17.420166015625-16.8199462890625,2.570068359375-2.71002197265625,5.619873046875-7.07000732421875,8.349853515625-10.0400390625,2-2.15997314453125,4.77001953125-4.89996337890625,6.72998046875-1.70001220703125ZM396.57396240658818,352.269527062773705c-.06005859375-.09002685546875-.080078125-.1600341796875-.090087890625-.19000244140625.0400390625.04998779296875.06005859375.1300048828125.090087890625.19000244140625ZM422.07396240658818,285.249507531523705c.389892578125.42999267578125.68994140625.91998291015625.7900390625,1.489990234375l-.010009765625.1500244140625c-9.960205078125,12.64996337890625-22.940185546875,23.82000732421875-34.170166015625,35.45001220703125-.449951171875.42999267578125-.849853515625.47998046875-1.349853515625.27996826171875-1.1201171875-.97998046875-2.800048828125-2.6199951171875-2.650146484375-4.1300048828125.14013671875-.77996826171875.860107421875-1.39996337890625,1.85009765625-2.260009765625,7.989990234375-8.239990234375,15.719970703125-16.47998046875,24.22998046875-24.29998779296875,2.39013671875-1.69000244140625,4.64013671875-4.52001953125,6.47998046875-6.5899658203125,1.590087890625-1.6300048828125,3.110107421875-2.19000244140625,4.830078125-.09002685546875ZM414.16380615658818,277.999507531523705c.3701171875.4000244140625.56005859375.41998291015625.75,1.04998779296875l.010009765625.1500244140625c-8.239990234375,11.1199951171875-20.099853515625,20.03997802734375-29.719970703125,30.42999267578125-1.349853515625,1.47998046875-2.58984375,3.84002685546875-4.58984375,4.3699951171875-1.570068359375.46002197265625-3.27001953125-.1500244140625-5.380126953125-1.28997802734375-.869873046875-.46002197265625-1.360107421875-1.1500244140625-.449951171875-1.989990234375,3.989990234375-4,9.2099609375-7.06005859375,12.639892578125-11.74005126953125,5.75-5.94000244140625,11.25-11.28997802734375,17.3701171875-16.949951171875,2.599853515625-2.24005126953125,5.7099609375-7.57000732421875,9.369873046875-4.030029296875ZM364.64378662533818,349.699519738554955l-.219970703125.010009765625c-3.559814453125.4599609375-7-.7900390625-8.8798828125-3.260009765625-5.400146484375-6.58001708984375-2.719970703125-19.8699951171875,6.860107421875-20.71002197265625,17.269775390625-2.05999755859375,19.22998046875,23.96002197265625,2.23974609375,23.96002197265625ZM404.28392334408818,271.159480676054955c.469970703125.34002685546875.89990234375.71002197265625,1.1201171875,1.25v.1300048828125c-10.41015625,13.30999755859375-24.460205078125,24.52001953125-36.090087890625,37.19000244140625-1.10009765625,1.300048828125-2.659912109375.95001220703125-4.27001953125.8699951171875-2.02001953125-.16998291015625-4.830078125-.15997314453125-2.420166015625-2.6099853515625,5.730224609375-5.89996337890625,11.26025390625-12.010009765625,17.400146484375-17.3900146484375,4.630126953125-5.27996826171875,10.119873046875-9.28997802734375,15.0400390625-14.40997314453125,2.7900390625-2.82000732421875,4.7099609375-8.530029296875,9.219970703125-5.030029296875ZM389.96385498471318,265.249507531523705c.900146484375-.219970703125,2.27001953125.29998779296875,3.25.65997314453125,5.159912109375,1.8900146484375-3.97998046875,6.24005126953125-5.39990234375,8.3800048828125-4.070068359375,4.6400146484375-7.940185546875,8.99005126953125-12.280029296875,13.27001953125-13.610107421875,13.030029296875-26.570068359375,26.91998291015625-40.050048828125,39.72998046875-.659912109375.60003662109375-1.409912109375.3800048828125-1.860107421875-.29998779296875-1.099853515625-1.6400146484375-1.2998046875-3.33001708984375-.4697265625-4.97998046875,1.7998046875-3.21002197265625,5.559814453125-5.07000732421875,8.059814453125-7.69000244140625,3.1201171875-3.260009765625,5.580078125-6.80999755859375,8.5-9.9100341796875,14.400146484375-11.719970703125,25.360107421875-28.03997802734375,40.090087890625-39.1199951171875l.159912109375-.03997802734375ZM378.04393310971318,262.489497765898705h.14990234375c9.91015625.29998779296875,1.780029296875,3.85003662109375-1.300048828125,7.1300048828125-7.75,9.1600341796875-16.7099609375,16.9000244140625-25.02001953125,25.6400146484375-6.73974609375,6.3399658203125-14.289794921875,12.5999755859375-19.98974609375,19.8800048828125-2.240234375,3.02996826171875-4.81005859375,3.70001220703125-7.490234375.26995849609375-.0498046875-.14996337890625-.139892578125-.4599609375-.18994140625-.6199951171875.010009765625-.44000244140625.380126953125-.80999755859375.68994140625-1.1300048828125,12.820068359375-13.00994873046875,25.85009765625-25.89996337890625,39.080078125-38.43994140625,4.090087890625-4.23004150390625,7.830078125-12.06005859375,14.070068359375-12.73004150390625ZM361.66380615658818,261.439509972929955l.16015625-.07000732421875c14.679931640625-4.42999267578125-.570068359375,8.02001953125-3.93994140625,11.71002197265625-12.710205078125,13.26995849609375-26.81005859375,25.8299560546875-39.090087890625,39.1300048828125-.830078125.3699951171875-2.150146484375-.2900390625-3.02001953125-.60003662109375-1.699951171875-.64996337890625-3.280029296875-1.5999755859375-1.760009765625-3.3699951171875,4.75-4.6099853515625,10.409912109375-8.78997802734375,14.570068359375-14.010009765625,5.4599609375-6.8299560546875,12.22998046875-12.05999755859375,18.489990234375-18.199951171875,4.760009765625-4.8900146484375,8.369873046875-11.35003662109375,14.58984375-14.59002685546875ZM308.64378662533818,349.699519738554955l-.219970703125.010009765625c-3.559814453125.4599609375-7-.7900390625-8.8798828125-3.260009765625-5.400146484375-6.58001708984375-2.719970703125-19.8699951171875,6.860107421875-20.71002197265625,17.269775390625-2.05999755859375,19.22998046875,23.96002197265625,2.23974609375,23.96002197265625ZM244.85399170346318,298.329524621367455l-.0400390625-.1099853515625c3.85986328125-7.2900390625,14.43994140625-14.050048828125,22.85986328125-14.6700439453125-1.56982421875,1.6700439453125-3.7099609375,3.35003662109375-5.33984375,5.3699951171875-4.460205078125,4.94000244140625-10.030029296875,12.20001220703125-17.47998046875,9.4100341796875ZM259.32396240658818,299.929500207304955l-.0400390625-.1099853515625c-.06005859375-.17999267578125.02001953125-.4100341796875.169921875-.6600341796875,3.669921875-5.7099609375,10.570068359375-9.219970703125,14.570068359375-14.93994140625,2.22998046875-3.3800048828125,7.860107421875-5.71002197265625,10.9599609375-5.86004638671875,2.31005859375-.0999755859375,2.920166015625.96002197265625,1.360107421875,2.86004638671875-1.4501953125,1.78997802734375-3.2900390625,3.02996826171875-5.050048828125,4.43994140625-6.820068359375,5.5-12.840087890625,17.84002685546875-21.969970703125,14.27001953125ZM277.61400146908818,304.889522179961205c-1.360107421875.3599853515625-2.97021484375-.21002197265625-4.8701171875-1.0400390625-.280029296875-.12994384765625-.68994140625-.3399658203125-.81005859375-.5899658203125l-.0498046875-.1199951171875c-.070068359375-.23004150390625.039794921875-.5.25-.780029296875,5.849853515625-7.3299560546875,14.22998046875-13.97998046875,20.89990234375-21.1199951171875,1.159912109375-1.26995849609375,2.320068359375-2.76995849609375,3.97998046875-3.3499755859375,2.169921875-.85003662109375,4.77001953125-.6300048828125,7.219970703125-.32000732421875.340087890625.04998779296875.75.1300048828125.880126953125.40997314453125.08984375.21002197265625-.070068359375.530029296875-.360107421875.8800048828125-2.75,3.260009765625-6.199951171875,5.6400146484375-9.449951171875,8.36004638671875-4.9599609375,4.5799560546875-8.860107421875,9.489990234375-13.93017578125,13.8499755859375-1.25,1.3599853515625-1.93994140625,3.4000244140625-3.759765625,3.82000732421875ZM285.35399170346318,308.269527062773705l-.150146484375-.07000732421875c-.72998046875-.33001708984375-1.169921875-.3599853515625-1.7099609375-.739990234375-1.5-1.260009765625,4.330078125-3.8699951171875,5.22998046875-5.3800048828125,7.070068359375-8.6300048828125,15.330078125-15.8900146484375,23.199951171875-23.70001220703125.530029296875-.3800048828125,1.150146484375-.55999755859375,1.7900390625-.65997314453125,5.170166015625-.73004150390625,9.580078125-4.510009765625,14.090087890625-7.20001220703125.75-.44000244140625.64990234375-.20001220703125.080078125.39996337890625-9.080078125,9.780029296875-19.210205078125,18.42999267578125-28.7001953125,27.97003173828125-3.239990234375,3.30999755859375-8.329833984375,13.52996826171875-13.829833984375,9.3800048828125ZM289.81395264096318,357.939509972929955c.010009765625-.010009765625.010009765625-.030029296875.02001953125,0h-.02001953125ZM290.59398193783818,315.989497765898705c10.489990234375-11.3399658203125,23.7099609375-23.25,34.89990234375-34.719970703125,7.199951171875-6.59002685546875,16.02001953125-20.08001708984375,26.7099609375-19.510009765625l.030029296875.05999755859375c-8.010009765625,10.3900146484375-18.570068359375,19.15997314453125-27.829833984375,28.760009765625-1.5302734375,1.54998779296875-3.080078125,3.07000732421875-4.5,4.739990234375-8.22021484375,9.6099853515625-18.10009765625,15.42999267578125-29.02001953125,21.1099853515625-.85009765625.42999267578125-.990234375.33001708984375-.2900390625-.44000244140625ZM291.37376709408818,363.789485558867455l-.009765625-.13995361328125c.429931640625-4.8699951171875,4.02978515625-.6700439453125,6.969970703125.4599609375.039794921875.04998779296875.119873046875.1400146484375.159912109375.17999267578125-4.18994140625,4.05999755859375-5.5400390625,7.73004150390625-7.1201171875-.5ZM298.15404053158818,379.809505090117455c-5.72021484375-5.70001220703125,2.289794921875-10.3599853515625,6.83984375-13.6300048828125l.169921875-.08001708984375c2.510009765625-.54998779296875,7.5400390625-.92999267578125,7.02001953125.35003662109375-.56982421875,1.30999755859375-2.639892578125,2.1099853515625-3.6298828125,3.19000244140625-1.989990234375,1.510009765625-8.41015625,12.1300048828125-10.39990234375,10.16998291015625ZM301.84398193783818,385.519527062773705c-.18994140625-.61004638671875-.030029296875-1.1700439453125.349853515625-1.61004638671875,11.16015625-11.1199951171875,22.760009765625-21.969970703125,33.719970703125-33.29998779296875,3.800048828125-4.88995361328125,6.47021484375,3.5400390625,2.070068359375,6.32000732421875-.429931640625.2900390625-.89990234375.54998779296875-1.31005859375.83001708984375l-.169921875.1199951171875c-8.050048828125,9.469970703125-18.030029296875,17.44000244140625-26.030029296875,27.09002685546875-2.58984375,3.16998291015625-6.35986328125,5.8499755859375-8.6298828125.54998779296875ZM310.70384521908818,395.499507531523705c-.419921875-.44000244140625-1.06982421875-1.08001708984375-1.080078125-1.66998291015625l.02001953125-.1400146484375c9.650146484375-12.75,23.0400390625-22.969970703125,33.77001953125-35.1300048828125.7900390625-1.02996826171875,1.650146484375-.53997802734375,2.510009765625.1300048828125.690185546875.469970703125,1.460205078125,1.09002685546875,1.840087890625,1.6400146484375,1.25,1.80999755859375-.4599609375,3.28997802734375-1.760009765625,4.5999755859375-1.18994140625,1.1099853515625-2.389892578125,2.3800048828125-3.599853515625,3.47003173828125-2.440185546875,2.04998779296875-4.06005859375,4.3699951171875-6.18017578125,6.44000244140625-1.1298828125,1.16998291015625-2.7099609375,2.0699462890625-3.830078125,3.3399658203125-4.259765625,4.8699951171875-9.139892578125,8.72998046875-13.85986328125,13.260009765625-2.320068359375,2.1199951171875-4.449951171875,7.40997314453125-7.830078125,4.05999755859375ZM323.29393310971318,403.719539269804955c-.909912109375.75-1.9599609375.00994873046875-2.75-.6700439453125l-.139892578125-.1099853515625c-1.900146484375-1.0999755859375-4.18017578125-1.969970703125-1.5302734375-4.03997802734375,1.47021484375-1.20001220703125,3.630126953125-2.42999267578125,4.91015625-4.030029296875,6.7900390625-8.21002197265625,14.75-14.96002197265625,22.22998046875-22.5899658203125,3.52001953125-3.99005126953125,7.39013671875-9.07000732421875,13.4599609375-7.010009765625.860107421875.27996826171875,1.199951171875.8800048828125.47998046875,1.7099609375-2.81982421875,3.57000732421875-7.080078125,6.21002197265625-9.81005859375,10.09002685546875-7.56982421875,6.83001708984375-14.75,13.989990234375-22.369873046875,20.9000244140625-1.610107421875,1.739990234375-2.989990234375,4.76995849609375-4.47998046875,5.75ZM327.72386475033818,407.689509972929955v-.1099853515625c9.72998046875-12.530029296875,22.669921875-23.02001953125,33.68994140625-34.79998779296875,2.280029296875-2.99005126953125,5.070068359375-5.60003662109375,8.590087890625-7.030029296875,14.409912109375-5.260009765625,17.169921875-8.760009765625,22.659912109375-22.84002685546875.22998046875-.53997802734375.2900390625-1.02996826171875.27001953125-.53997802734375-.239990234375,1.760009765625,1.420166015625,4.030029296875,1,5.5-9.85986328125,12.72003173828125-23.179931640625,22.47003173828125-33.659912109375,34.96002197265625-2.06005859375,2.239990234375-4.080078125,3.14996337890625-6.510009765625,5.8599853515625-4.2900390625,3.72998046875-20.3701171875,25.82000732421875-26.0400390625,19ZM341.83397217221318,413.469539269804955l-.150146484375-.050048828125c-7.349853515625-1.25.900146484375-4.65997314453125,3.3701171875-7.41998291015625,6.929931640625-7.97998046875,14.31982421875-15.489990234375,21.889892578125-22.79998779296875,7.440185546875-7.10003662109375,14.840087890625-14.1500244140625,21.75-21.83001708984375,2.0400390625-2.239990234375,8.199951171875-6.1199951171875,7.900146484375-9.03997802734375,0-.010009765625-.010009765625-.02001953125-.010009765625-.030029296875.010009765625.010009765625.010009765625.02001953125.02001953125.030029296875.079833984375.14996337890625.2099609375.3499755859375.369873046875.5899658203125,1.27001953125,1.97003173828125,4.110107421875,4.02001953125,1.93994140625,6.33001708984375-6.199951171875,7.45001220703125-13.349853515625,13.69000244140625-20.4599609375,20.34002685546875-7.679931640625,9.3199462890625-16.429931640625,17.13995361328125-24.919921875,25.66998291015625-2.89990234375,2.89996337890625-7.31005859375,10.07000732421875-11.699951171875,8.21002197265625ZM352.43382568783818,415.799495324492455l-.179931640625-.03997802734375c-.840087890625-.22998046875-1.639892578125-.35003662109375-.75-1.30999755859375,1.090087890625-1.22998046875,4.139892578125-3.25,5.719970703125-4.95001220703125.81005859375-.8800048828125,1.260009765625-1.65997314453125,1.989990234375-2.46002197265625,12.070068359375-13.469970703125,26.1201171875-24.8199462890625,38.39013671875-38.13995361328125,2.329833984375-1.96002197265625,4.469970703125-5.17999267578125,7.010009765625-6.70001220703125,1.159912109375-.67999267578125,3.159912109375-.1600341796875,4.719970703125,1.010009765625.389892578125.14996337890625.8798828125.8800048828125.800048828125,1.0999755859375-.670166015625,1.78997802734375-2.47021484375,3.09002685546875-3.780029296875,4.47998046875-2.960205078125,2.760009765625-6.300048828125,5.24005126953125-9.1201171875,8.21002197265625-9.139892578125,9.77001953125-18.27001953125,19-28.25,27.8800048828125-4.5400390625,4.77001953125-8.449951171875,14.489990234375-16.550048828125,10.91998291015625ZM367.08397217221318,417.209529504179955c-.630126953125.01995849609375-1.340087890625-.05999755859375-.690185546875-.85003662109375,5.420166015625-6.54998779296875,11.35009765625-12.739990234375,18.190185546875-17.94000244140625l.139892578125-.1300048828125c9.56005859375-11.13995361328125,20.6201171875-21.13995361328125,30.989990234375-31.5699462890625.81005859375-.87005615234375,1.820068359375-.98004150390625,3-1.02001953125,1.590087890625.010009765625,4.830078125-.66998291015625,5.06005859375.6400146484375-.469970703125,1.75994873046875-2.889892578125,3.5799560546875-4.199951171875,4.949951171875-15.2001953125,14.80999755859375-30.090087890625,30.32000732421875-45.570068359375,44.6700439453125-1.969970703125,1.03997802734375-4.39990234375,1.1199951171875-6.919921875,1.25ZM416.35399170346318,389.779536828398705l-.1201171875.14996337890625c-2.81005859375,4.6400146484375-7.2900390625,7.44000244140625-11.050048828125,11.33001708984375-5.219970703125,6.64996337890625-12.31982421875,13.27001953125-20.5498046875,13.55999755859375-1.0400390625.02996826171875-.990234375-.3599853515625-.35009765625-.96002197265625,19.320068359375-17.9599609375,37.429931640625-38.3499755859375,56.81005859375-55.54998779296875-1.380126953125,13.030029296875-15.16015625,22.29998779296875-24.739990234375,31.47003173828125ZM108.43382568783818,283.609492883086205l-.22998046875-.03997802734375c-15.7099609375.5899658203125-11.60986328125-13.0999755859375-12.599853515625-25.05999755859375-.110107421875-.6600341796875-.360107421875-1.22998046875-.780029296875-1.66998291015625-6.650146484375-5.3800048828125-19.840087890625-6.71002197265625-23.1201171875,2.3699951171875-.58984375,1.52996826171875-.199951171875,3.39996337890625-.0498046875,4.8800048828125.25,2.42999267578125.6298828125,6.9599609375-.60009765625,8.66998291015625-2.570068359375,3.58001708984375-10.31005859375-6.80999755859375-13.27001953125,3.239990234375-.969970703125,3.53997802734375-1.3798828125,7.52001953125-1.030029296875,11.6199951171875.650146484375,3.20001220703125,2.7099609375,6.33001708984375,5.650146484375,7.84002685546875,1.2099609375.67999267578125,2.77978515625.82000732421875,4.199951171875.89996337890625,17.14990234375,1.4000244140625.83984375,33.22003173828125,22.039794921875,29.69000244140625,11.300048828125-.22998046875,11.090087890625-8.469970703125,10.01025390625-17.8299560546875-.0400390625-.33001708984375-.090087890625-.9200439453125.139892578125-1.06005859375.199951171875-.15997314453125.590087890625-.03997802734375,1.099853515625.1800537109375,13.820068359375,6.7099609375,24.02001953125-19.8800048828125,8.5400390625-23.73004150390625ZM108.43382568783818,283.609492883086205l-.22998046875-.03997802734375c-15.7099609375.5899658203125-11.60986328125-13.0999755859375-12.599853515625-25.05999755859375-.110107421875-.6600341796875-.360107421875-1.22998046875-.780029296875-1.66998291015625-6.650146484375-5.3800048828125-19.840087890625-6.71002197265625-23.1201171875,2.3699951171875-.58984375,1.52996826171875-.199951171875,3.39996337890625-.0498046875,4.8800048828125.25,2.42999267578125.6298828125,6.9599609375-.60009765625,8.66998291015625-2.570068359375,3.58001708984375-10.31005859375-6.80999755859375-13.27001953125,3.239990234375-.969970703125,3.53997802734375-1.3798828125,7.52001953125-1.030029296875,11.6199951171875.650146484375,3.20001220703125,2.7099609375,6.33001708984375,5.650146484375,7.84002685546875,1.2099609375.67999267578125,2.77978515625.82000732421875,4.199951171875.89996337890625,17.14990234375,1.4000244140625.83984375,33.22003173828125,22.039794921875,29.69000244140625,11.300048828125-.22998046875,11.090087890625-8.469970703125,10.01025390625-17.8299560546875-.0400390625-.33001708984375-.090087890625-.9200439453125.139892578125-1.06005859375.199951171875-.15997314453125.590087890625-.03997802734375,1.099853515625.1800537109375,13.820068359375,6.7099609375,24.02001953125-19.8800048828125,8.5400390625-23.73004150390625ZM206.79393310971318,333.389522179961205l-.18994140625.010009765625c-24.06005859375,3.8499755859375-49.64013671875-4.6700439453125-66.610107421875-22.23004150390625-.780029296875-.77996826171875-.75-1.47998046875.1201171875-2.16998291015625,11.3798828125-9.41998291015625,22.5498046875-19.07000732421875,33.77001953125-29,4.829833984375-3.8599853515625,11.259765625-7.6400146484375,14.869873046875-12.83001708984375,3.820068359375-5.3499755859375.52001953125-9.82000732421875-3.820068359375-13.41998291015625-12.929931640625-13.42999267578125-28.7099609375-22.3900146484375-45.60986328125-27.15997314453125-32.02001953125-9.050048828125-67.8701171875-3.02001953125-94.969970703125,16.3800048828125-11.699951171875,8.3199462890625-21.830078125,19.42999267578125-29.130126953125,32.28997802734375-66.280029296875,118.47998046875,100.469970703125,227.42999267578125,181.380126953125,117.5,7.289794921875-10.30999755859375,33.08984375-58.79998779296875,10.18994140625-59.3699951171875ZM167.92381592221318,400.709529504179955l-.159912109375.1300048828125c-92.419921875,74.0799560546875-208.31005859375-57.57000732421875-121.030029296875-138.48004150390625,20.030029296875-19.969970703125,49.75-27.40997314453125,77.35009765625-22.8299560546875,11.169921875,1.94000244140625,22.179931640625,5.5799560546875,31.68994140625,11.78997802734375,3.669921875,2.21002197265625,8.18994140625,4.44000244140625,11.39990234375,7.3399658203125,2.650146484375,2.48004150390625,3.380126953125,4.99005126953125-.079833984375,7.44000244140625-1.77001953125,1.1800537109375-3.47021484375,1.800048828125-5.0400390625,3.35003662109375-39.949951171875,33.760009765625-58.340087890625,38.82000732421875-20.2900390625,63.3599853515625,5.530029296875,3.489990234375,10.929931640625,6.79998779296875,17.659912109375,10.32000732421875,12.170166015625,4.02996826171875,25,8.52996826171875,38.02001953125,6.80999755859375.440185546875-.03997802734375.780029296875,0,.949951171875.19000244140625-4.02978515625,19.34002685546875-15.199951171875,37.67999267578125-30.469970703125,50.58001708984375ZM108.43382568783818,283.609492883086205l-.22998046875-.03997802734375c-15.7099609375.5899658203125-11.60986328125-13.0999755859375-12.599853515625-25.05999755859375-.110107421875-.6600341796875-.360107421875-1.22998046875-.780029296875-1.66998291015625-6.650146484375-5.3800048828125-19.840087890625-6.71002197265625-23.1201171875,2.3699951171875-.58984375,1.52996826171875-.199951171875,3.39996337890625-.0498046875,4.8800048828125.25,2.42999267578125.6298828125,6.9599609375-.60009765625,8.66998291015625-2.570068359375,3.58001708984375-10.31005859375-6.80999755859375-13.27001953125,3.239990234375-.969970703125,3.53997802734375-1.3798828125,7.52001953125-1.030029296875,11.6199951171875.650146484375,3.20001220703125,2.7099609375,6.33001708984375,5.650146484375,7.84002685546875,1.2099609375.67999267578125,2.77978515625.82000732421875,4.199951171875.89996337890625,17.14990234375,1.4000244140625.83984375,33.22003173828125,22.039794921875,29.69000244140625,11.300048828125-.22998046875,11.090087890625-8.469970703125,10.01025390625-17.8299560546875-.0400390625-.33001708984375-.090087890625-.9200439453125.139892578125-1.06005859375.199951171875-.15997314453125.590087890625-.03997802734375,1.099853515625.1800537109375,13.820068359375,6.7099609375,24.02001953125-19.8800048828125,8.5400390625-23.73004150390625ZM108.43382568783818,283.609492883086205l-.22998046875-.03997802734375c-15.7099609375.5899658203125-11.60986328125-13.0999755859375-12.599853515625-25.05999755859375-.110107421875-.6600341796875-.360107421875-1.22998046875-.780029296875-1.66998291015625-6.650146484375-5.3800048828125-19.840087890625-6.71002197265625-23.1201171875,2.3699951171875-.58984375,1.52996826171875-.199951171875,3.39996337890625-.0498046875,4.8800048828125.25,2.42999267578125.6298828125,6.9599609375-.60009765625,8.66998291015625-2.570068359375,3.58001708984375-10.31005859375-6.80999755859375-13.27001953125,3.239990234375-.969970703125,3.53997802734375-1.3798828125,7.52001953125-1.030029296875,11.6199951171875.650146484375,3.20001220703125,2.7099609375,6.33001708984375,5.650146484375,7.84002685546875,1.2099609375.67999267578125,2.77978515625.82000732421875,4.199951171875.89996337890625,17.14990234375,1.4000244140625.83984375,33.22003173828125,22.039794921875,29.69000244140625,11.300048828125-.22998046875,11.090087890625-8.469970703125,10.01025390625-17.8299560546875-.0400390625-.33001708984375-.090087890625-.9200439453125.139892578125-1.06005859375.199951171875-.15997314453125.590087890625-.03997802734375,1.099853515625.1800537109375,13.820068359375,6.7099609375,24.02001953125-19.8800048828125,8.5400390625-23.73004150390625ZM108.43382568783818,283.609492883086205l-.22998046875-.03997802734375c-15.7099609375.5899658203125-11.60986328125-13.0999755859375-12.599853515625-25.05999755859375-.110107421875-.6600341796875-.360107421875-1.22998046875-.780029296875-1.66998291015625-6.650146484375-5.3800048828125-19.840087890625-6.71002197265625-23.1201171875,2.3699951171875-.58984375,1.52996826171875-.199951171875,3.39996337890625-.0498046875,4.8800048828125.25,2.42999267578125.6298828125,6.9599609375-.60009765625,8.66998291015625-2.570068359375,3.58001708984375-10.31005859375-6.80999755859375-13.27001953125,3.239990234375-.969970703125,3.53997802734375-1.3798828125,7.52001953125-1.030029296875,11.6199951171875.650146484375,3.20001220703125,2.7099609375,6.33001708984375,5.650146484375,7.84002685546875,1.2099609375.67999267578125,2.77978515625.82000732421875,4.199951171875.89996337890625,17.14990234375,1.4000244140625.83984375,33.22003173828125,22.039794921875,29.69000244140625,11.300048828125-.22998046875,11.090087890625-8.469970703125,10.01025390625-17.8299560546875-.0400390625-.33001708984375-.090087890625-.9200439453125.139892578125-1.06005859375.199951171875-.15997314453125.590087890625-.03997802734375,1.099853515625.1800537109375,13.820068359375,6.7099609375,24.02001953125-19.8800048828125,8.5400390625-23.73004150390625ZM264.02391357846318,84.149531945586205c-6.5,13.3699951171875-11.409912109375,42.5799560546875-.369873046875,21.8800048828125l.0498046875-.1700439453125c1.2900390625-7.02996826171875.169921875-14.3699951171875.72998046875-21.4599609375.050048828125-.5400390625.010009765625-1.08001708984375-.409912109375-.25ZM264.02391357846318,84.149531945586205c-6.5,13.3699951171875-11.409912109375,42.5799560546875-.369873046875,21.8800048828125l.0498046875-.1700439453125c1.2900390625-7.02996826171875.169921875-14.3699951171875.72998046875-21.4599609375.050048828125-.5400390625.010009765625-1.08001708984375-.409912109375-.25ZM264.02391357846318,84.149531945586205c-6.5,13.3699951171875-11.409912109375,42.5799560546875-.369873046875,21.8800048828125l.0498046875-.1700439453125c1.2900390625-7.02996826171875.169921875-14.3699951171875.72998046875-21.4599609375.050048828125-.5400390625.010009765625-1.08001708984375-.409912109375-.25ZM300.34398193783818,96.489497765898705c-6.91015625-6.80999755859375-13.9501953125-12.57000732421875-14-16.44000244140625-.52001953125-3.0899658203125.27001953125-7.32000732421875,1.56982421875-15.17999267578125.820068359375-4.05999755859375.990234375-8.219970703125,2.260009765625-12.45001220703125,3.989990234375-12.3499755859375-7.35986328125-26.66998291015625-19.5-29.69000244140625-5.889892578125-1.47998046875-12.059814453125-.25994873046875-16.579833984375,5.1500244140625-12.300048828125,24.32000732421875-18.239990234375,52.05999755859375-26.31005859375,78.3900146484375-.2900390625,1.0799560546875-.8798828125,1.8800048828125-1.919921875,2.22998046875-5.91015625,2.280029296875-13.490234375,7.21002197265625-15.5,14.1099853515625-1.610107421875,6.7900390625,5.759765625,13.1500244140625,4.509765625,18.989990234375-.179931640625,1.27001953125-1.35986328125,2.6600341796875-2.409912109375,3.6600341796875-17.329833984375,16.33001708984375-14.780029296875,29.96002197265625,7.699951171875,41.25l.170166015625.08001708984375c14.85986328125,7.50994873046875,28.75-8.050048828125,33.449951171875-21.5400390625.010009765625-.02996826171875.280029296875-.1300048828125.43994140625-.02996826171875.75.5,1.110107421875,1,1.9599609375,1.75,23.380126953125,22.44000244140625,39.239990234375,1.38995361328125,32.93994140625-27.44000244140625-.5498046875-2.69000244140625-1.89990234375-6.34002685546875-1.099853515625-8.8900146484375,1.580078125-5.45001220703125,9.010009765625-6.1300048828125,12.489990234375-10.03997802734375,6.280029296875-8.17999267578125,8.489990234375-16.8699951171875-.169921875-23.9100341796875ZM288.93382568783818,108.649531945586205c-1.949951171875,1.16998291015625-3.7900390625,2.17999267578125-5.7900390625,3.3299560546875-11.099853515625,6.260009765625-11.909912109375,6.57000732421875-11.289794921875,14.8800048828125.419921875,4.29998779296875.68994140625,10.6500244140625.929931640625,15.30999755859375,1.070068359375,5.02001953125,3.489990234375,15.9100341796875.60009765625,17.4100341796875-.8701171875.6199951171875-3.050048828125-.8599853515625-4.01025390625-1.84002685546875-4.33984375-4.1199951171875-4.64990234375-15.95001220703125-4.929931640625-21.91998291015625-.1298828125-5.07000732421875.080078125-10.22998046875.010009765625-15.010009765625-.06005859375-.90997314453125-.60986328125-1.32000732421875-1.56982421875-1.21002197265625-24.960205078125,3.34002685546875-18.64013671875,69.4000244140625-44.840087890625,46.98004150390625-.43994140625-.4200439453125-2.659912109375-2.010009765625-1.590087890625-2.4000244140625l.130126953125-.03997802734375c12.60986328125-.780029296875,12.929931640625-21.3800048828125,17.829833984375-31.4000244140625.18017578125-.3900146484375.22998046875-.66998291015625.080078125-.80999755859375-.8798828125-.32000732421875-1.949951171875-.010009765625-2.830078125-.64996337890625-1.559814453125-.98004150390625-5.2900390625-3.52001953125-4.419921875-5.510009765625,1.3701171875-3.30999755859375,12.6201171875-4.6700439453125,14.969970703125-10.6700439453125.739990234375-1.72998046875.22998046875-3.449951171875.699951171875-4.64996337890625,3.89013671875-8.32000732421875,23.7900390625-100.85003662109375,31.260009765625-61.6300048828125.219970703125,1.22998046875.340087890625,2.5.130126953125,3.66998291015625-2.5400390625,14.80999755859375-7.760009765625,45.33001708984375-.2099609375,52.989990234375.760009765625.8699951171875,1.889892578125-.05999755859375,2.639892578125-.5799560546875,2.489990234375-1.80999755859375,4.780029296875-2.6300048828125,6.909912109375-2.33001708984375,1.9501953125.27001953125,3.7900390625,1.5,5.4501953125,3.739990234375.58984375.83001708984375.829833984375,1.6600341796875-.16015625,2.34002685546875ZM264.02391357846318,84.149531945586205c-6.5,13.3699951171875-11.409912109375,42.5799560546875-.369873046875,21.8800048828125l.0498046875-.1700439453125c1.2900390625-7.02996826171875.169921875-14.3699951171875.72998046875-21.4599609375.050048828125-.5400390625.010009765625-1.08001708984375-.409912109375-.25ZM264.02391357846318,84.149531945586205c-6.5,13.3699951171875-11.409912109375,42.5799560546875-.369873046875,21.8800048828125l.0498046875-.1700439453125c1.2900390625-7.02996826171875.169921875-14.3699951171875.72998046875-21.4599609375.050048828125-.5400390625.010009765625-1.08001708984375-.409912109375-.25Z"
      />
      <path
        class="cls-2"
        d="M289.09398193783818,106.309505090117455c-1.66015625-2.239990234375-3.5-3.469970703125-5.4501953125-3.739990234375-2.1298828125-.29998779296875-4.419921875.52001953125-6.909912109375,2.33001708984375-.75.51995849609375-1.8798828125,1.449951171875-2.639892578125.5799560546875-7.550048828125-7.65997314453125-2.330078125-38.17999267578125.2099609375-52.989990234375.2099609375-1.16998291015625.08984375-2.44000244140625-.130126953125-3.66998291015625-7.469970703125-39.22003173828125-27.369873046875,53.30999755859375-31.260009765625,61.6300048828125-.469970703125,1.20001220703125.0400390625,2.91998291015625-.699951171875,4.64996337890625-2.349853515625,6-13.599853515625,7.36004638671875-14.969970703125,10.6700439453125-.8701171875,1.989990234375,2.860107421875,4.52996826171875,4.419921875,5.510009765625.880126953125.63995361328125,1.9501953125.3299560546875,2.830078125.64996337890625.14990234375.1400146484375.10009765625.41998291015625-.080078125.80999755859375-4.89990234375,10.02001953125-5.219970703125,30.6199951171875-17.829833984375,31.4000244140625l-.130126953125.03997802734375c-1.06982421875.3900146484375,1.150146484375,1.97998046875,1.590087890625,2.4000244140625,26.199951171875,22.41998291015625,19.8798828125-43.6400146484375,44.840087890625-46.98004150390625.9599609375-.1099853515625,1.509765625.300048828125,1.56982421875,1.21002197265625.070068359375,4.780029296875-.139892578125,9.94000244140625-.010009765625,15.010009765625.280029296875,5.969970703125.590087890625,17.79998779296875,4.929931640625,21.91998291015625.960205078125.98004150390625,3.14013671875,2.46002197265625,4.01025390625,1.84002685546875,2.889892578125-1.5.469970703125-12.3900146484375-.60009765625-17.4100341796875-.239990234375-4.65997314453125-.510009765625-11.010009765625-.929931640625-15.30999755859375-.6201171875-8.30999755859375.18994140625-8.6199951171875,11.289794921875-14.8800048828125,2-1.14996337890625,3.840087890625-2.15997314453125,5.7900390625-3.3299560546875.989990234375-.67999267578125.75-1.510009765625.16015625-2.34002685546875ZM264.43382568783818,84.399531945586205c-.56005859375,7.0899658203125.56005859375,14.42999267578125-.72998046875,21.4599609375l-.0498046875.1700439453125c-11.0400390625,20.699951171875-6.130126953125-8.510009765625.369873046875-21.8800048828125.419921875-.83001708984375.4599609375-.2900390625.409912109375.25ZM197.44383545346318,349.939509972929955c-13.02001953125,1.719970703125-25.849853515625-2.780029296875-38.02001953125-6.80999755859375-6.72998046875-3.52001953125-12.1298828125-6.83001708984375-17.659912109375-10.32000732421875-38.050048828125-24.53997802734375-19.659912109375-29.5999755859375,20.2900390625-63.3599853515625,1.56982421875-1.54998779296875,3.27001953125-2.16998291015625,5.0400390625-3.35003662109375,3.4599609375-2.449951171875,2.72998046875-4.9599609375.079833984375-7.44000244140625-3.2099609375-2.89996337890625-7.72998046875-5.12994384765625-11.39990234375-7.3399658203125-9.510009765625-6.21002197265625-20.52001953125-9.8499755859375-31.68994140625-11.78997802734375-27.60009765625-4.58001708984375-57.320068359375,2.8599853515625-77.35009765625,22.8299560546875-87.280029296875,80.9100341796875,28.610107421875,212.55999755859375,121.030029296875,138.48004150390625l.159912109375-.1300048828125c15.27001953125-12.9000244140625,26.440185546875-31.239990234375,30.469970703125-50.58001708984375-.169921875-.19000244140625-.509765625-.22998046875-.949951171875-.19000244140625ZM99.89378662533818,307.339534386992455c-.509765625-.22003173828125-.89990234375-.34002685546875-1.099853515625-.1800537109375-.22998046875.1400146484375-.179931640625.73004150390625-.139892578125,1.06005859375,1.079833984375,9.3599853515625,1.289794921875,17.5999755859375-10.01025390625,17.8299560546875-21.199951171875,3.530029296875-4.889892578125-28.28997802734375-22.039794921875-29.69000244140625-1.420166015625-.0799560546875-2.989990234375-.219970703125-4.199951171875-.89996337890625-2.940185546875-1.510009765625-5-4.6400146484375-5.650146484375-7.84002685546875-.349853515625-4.0999755859375.06005859375-8.08001708984375,1.030029296875-11.6199951171875,2.9599609375-10.04998779296875,10.699951171875.34002685546875,13.27001953125-3.239990234375,1.22998046875-1.71002197265625.85009765625-6.239990234375.60009765625-8.66998291015625-.150146484375-1.48004150390625-.5400390625-3.35003662109375.0498046875-4.8800048828125,3.280029296875-9.08001708984375,16.469970703125-7.75,23.1201171875-2.3699951171875.419921875.44000244140625.669921875,1.00994873046875.780029296875,1.66998291015625.989990234375,11.96002197265625-3.110107421875,25.64996337890625,12.599853515625,25.05999755859375l.22998046875.03997802734375c15.47998046875,3.85003662109375,5.280029296875,30.44000244140625-8.5400390625,23.73004150390625Z"
      />
    </g>
  </g>
</svg>
