<svg viewBox="0 0 466.027746212432248 465.249460581093444">
  <defs>
    <style>
      .cls-1 {
        fill: var(--black);
      }

      .cls-2 {
        fill: var(--yellow);
      }
    </style>
  </defs>
  <g>
    <g>
      <path
        class="cls-1"
        d="M428.7999267578125,232.3599853515625l-.169921875-.02996826171875c-4.429931640625-1.28997802734375-10.199951171875-.3699951171875-12.06005859375,4.3499755859375-2.35986328125,5.47003173828125.330078125,13.010009765625,6.31005859375,11.46002197265625,3.820068359375-.0999755859375,8.800048828125.95001220703125,9.639892578125-3.09002685546875.06005859375-4.15997314453125,2.070068359375-11.75994873046875-3.719970703125-12.69000244140625ZM432.2799072265625,44.42999267578125l-.039794921875-.17999267578125c-1.72021484375-6.469970703125-12.380126953125-5.719970703125-15.320068359375-.22998046875-1.10009765625,1.79998779296875-.800048828125,4.3399658203125-.22998046875,6.32000732421875,1.469970703125,6.9599609375-3.920166015625,18.57000732421875,3.030029296875,21.91998291015625,1.02978515625.47003173828125,2.72998046875.46002197265625,4.10986328125.510009765625,1.93017578125.05999755859375,4.35009765625.27001953125,5.840087890625-.30999755859375,2.72998046875-.69000244140625,2.909912109375-6.82000732421875,3-9.72998046875.099853515625-6.1500244140625.079833984375-12.1300048828125-.39013671875-18.300048828125ZM432.8800048828125,140.52001953125l-.0400390625-.1400146484375c-16.010009765625-15.3599853515625-18.739990234375,7.510009765625-16.18994140625,22.85003662109375.169921875,1.15997314453125.27001953125,2.68994140625,1.0400390625,3.5799560546875,1.929931640625,2.1600341796875,5.949951171875,1.46002197265625,8.739990234375,1.92999267578125,5.330078125.57000732421875,5.639892578125-2.4599609375,6.31982421875-7.94000244140625,1.0400390625-6.80999755859375-.699951171875-13.469970703125.130126953125-20.27996826171875ZM432.9100341796875,188.3800048828125l-.02001953125-.1400146484375c-2.68994140625-6.19000244140625-17.030029296875-6.5799560546875-16.8701171875,1.34002685546875-.02001953125,1.15997314453125.56005859375,2.67999267578125.7900390625,3.79998779296875.880126953125,7.77001953125-4.330078125,23.33001708984375,6.110107421875,22.82000732421875,5.22998046875.02001953125,8.909912109375.9000244140625,10.070068359375-5.5999755859375,1.02978515625-6.1600341796875-1.22021484375-16.11004638671875-.080078125-22.22003173828125ZM432.6700439453125,92.3800048828125l-.02001953125-.14996337890625c-2.31005859375-6.49005126953125-17.0400390625-6.1700439453125-16.760009765625,1.8399658203125.02001953125,1.32000732421875.6201171875,2.82000732421875.8798828125,4.1199951171875,1.47998046875,8.20001220703125-5.489990234375,22.1500244140625,5.9501953125,22.02001953125,4.719970703125.1199951171875,8.93994140625.489990234375,9.949951171875-5.25,1.179931640625-6.17999267578125-1.530029296875-16.32000732421875,0-22.58001708984375ZM432.2200927734375,10.9000244140625c1.0498046875-7.48004150390625-4.010009765625-10.77001953125-11.18017578125-10.9000244140625-92.929931640625,1.780029296875-186.52001953125-1.01995849609375-279.18994140625.75-17.280029296875,3.20001220703125-32.33984375,11.8699951171875-48.08984375,19.530029296875-28.14013671875,14.63995361328125-55.900146484375,29.03997802734375-84.570068359375,42.39996337890625C.1400146484375,67.760009765625.9500732421875,67.98004150390625.7999267578125,78.17999267578125c-1.0499267578125,99.30999755859375.900146484375,199.1199951171875-.7999267578125,298.489990234375.6800537109375,17.07000732421875,2.8699951171875,24.32000732421875,21.4300537109375,24.21002197265625,81.85986328125-1.3900146484375,168.18994140625-.05999755859375,251.06005859375-.64996337890625,9.39990234375-1.45001220703125,25.869873046875,4.6199951171875,31.449951171875-5.11004638671875,2.039794921875-21.989990234375-1.070068359375-44.29998779296875.97998046875-66.3699951171875.570068359375-83.5999755859375-2.550048828125-169.489990234375,1.18994140625-252.1099853515625,32.119873046875-16.84002685546875,65.900146484375-32.08001708984375,97.900146484375-49.3699951171875,6.64990234375-1.72003173828125,9.409912109375-8.41998291015625,16.60986328125-3.239990234375l.2099609375.0799560546875c9.090087890625,2.510009765625,14.280029296875-4.66998291015625,11.39013671875-13.2099609375ZM16.0699462890625,91.9000244140625c-1.2900390625-4.1099853515625,2.130126953125-5.9100341796875,5.300048828125-8.260009765625.47998046875-.40997314453125.820068359375-.92999267578125,1.1400146484375-1.46002197265625,1.7999267578125-3.02996826171875,7.1099853515625-3.2099609375,9.6900634765625-2.2099609375.39990234375.15997314453125.56982421875.4599609375.3199462890625.88995361328125-2.5400390625,3.9000244140625-8.530029296875,7.800048828125-12.3900146484375,11.47003173828125-.8900146484375.77001953125-1.4100341796875,2.28997802734375-1.77001953125,3.21002197265625-.280029296875.72998046875-.919921875,1.1199951171875-1.77001953125.89996337890625l-.169921875-.04998779296875c-1.85009765625-.6300048828125.219970703125-2.90997314453125-.35009765625-4.489990234375ZM189.7498779296875,106.92999267578125c11.940185546875-7.26995849609375,18.31005859375-26.25,32.630126953125-27.1199951171875.7900390625-.219970703125,2.39990234375-.42999267578125,2.599853515625.4000244140625.110107421875,1.15997314453125-1.509765625,2.1099853515625-2.47998046875,2.760009765625-.619873046875.41998291015625-1.219970703125.8800048828125-1.719970703125,1.42999267578125-8.6298828125,9.1199951171875-17.919921875,17.3399658203125-26.2099609375,26.32000732421875-.469970703125.22998046875-1-.050048828125-1.409912109375-.36004638671875-4.050048828125-3.1199951171875-9.93994140625-5.72998046875-15.199951171875-5.78997802734375-.630126953125-.02001953125-1.710205078125.04998779296875-.699951171875-.72998046875,9.699951171875-7.44000244140625,19.199951171875-27.489990234375,31.18994140625-23.71002197265625l.06005859375.08001708984375c.159912109375.239990234375.02978515625.55999755859375-.110107421875.80999755859375-.920166015625,1.69000244140625-3.0400390625,3.82000732421875-5.630126953125,6.1099853515625-4.759765625,4.4000244140625-13.83984375,10.739990234375-16.5498046875,15.77001953125-1.440185546875,2.54998779296875.949951171875,4.52996826171875,3.52978515625,4.02996826171875ZM194.1300048828125,255.010009765625c-.429931640625.5-.800048828125.96002197265625-1.070068359375,1.3800048828125-11.159912109375,25.30999755859375-73.7099609375,106.54998779296875-97.719970703125,82.29998779296875-8.1298828125-9.14996337890625.199951171875-21.510009765625,9.18994140625-26.3399658203125,5.260009765625-4.60003662109375,15.650146484375-12.96002197265625,27.090087890625-22.99005126953125,13.969970703125-12.65997314453125,62.47998046875-54.17999267578125,42.6201171875-70.699951171875-.530029296875-.050048828125-.97021484375.05999755859375-1.5.27996826171875-12.440185546875,5.22003173828125-21.72998046875,8.6199951171875-32.25,11.6099853515625-99.56005859375,28.6400146484375-29.320068359375-86.52996826171875,39.08984375-110.26995849609375,5.0400390625.14996337890625,3.760009765625,7.260009765625,6.18017578125,6.7099609375.509765625-.219970703125.98974609375-.50994873046875,1.429931640625-.8599853515625-1.300048828125,1.29998779296875-2.590087890625,2.46002197265625-3.550048828125,3.10003662109375-26.72998046875,22.739990234375-56.919921875,54.739990234375-74.800048828125,88.77996826171875.090087890625.19000244140625.420166015625.19000244140625.860107421875.0999755859375,26.679931640625-6.3599853515625,68.409912109375-36.50994873046875,84.7900390625-1.489990234375l.08984375.19000244140625c4.81005859375,11.94000244140625,3.880126953125,26.02001953125-1.02001953125,37.8900146484375-.099853515625.489990234375.150146484375.530029296875.570068359375.30999755859375ZM124.9200439453125,260.67999267578125c-18.830078125,20.4200439453125-58.699951171875,55.73004150390625-67.420166015625,67.35003662109375-14.35986328125,12.3800048828125-27.2099609375,28.42999267578125-40.909912109375,40.1099853515625-.93994140625.71002197265625-.300048828125-6.69000244140625.1201171875-7.69000244140625l.06982421875-.1199951171875c37.449951171875-36.02001953125,72.380126953125-76.75,111.77001953125-109.8599853515625.210205078125-.1300048828125.400146484375-.22003173828125.570068359375-.2900390625,1.669921875-.449951171875,2.469970703125-.19000244140625,2.60009765625.52001953125.25,1.47998046875-2.380126953125,5.08001708984375-6.800048828125,9.97998046875ZM74.1400146484375,248.45001220703125c-10.25,9.96002197265625-24.10009765625,19.6199951171875-29.31005859375,28.280029296875-9.510009765625,8.12994384765625-18.47998046875,19.1099853515625-27.260009765625,26.949951171875-1.8299560546875,1.46002197265625-2.0699462890625,0-1.5-1.489990234375.52001953125-1.58001708984375-.3199462890625-3.4599609375.14013671875-4.989990234375.869873046875-2.79998779296875,3.949951171875-4.030029296875,6.10986328125-6.29998779296875,21.239990234375-22.25,44.679931640625-44.83001708984375,66.159912109375-66.75-.47998046875,1.239990234375-6.559814453125,6.5-8.3798828125,8.6300048828125-.139892578125.20001220703125-.219970703125.3699951171875-.239990234375.53997802734375v.1099853515625c3.449951171875,5.3900146484375-1.56005859375,10.6400146484375-5.719970703125,15.02001953125ZM28.5499267578125,269.09002685546875c13.030029296875-16.59002685546875,33.110107421875-30.6500244140625,44.449951171875-46.989990234375.72021484375-.760009765625.920166015625.5999755859375,1.150146484375,1.05999755859375l.050048828125.1199951171875c7.219970703125,9.0899658203125-35.800048828125,40.04998779296875-44.1201171875,51.8299560546875-.639892578125.8900146484375-1.239990234375,1.1500244140625-2.27001953125,2.09002685546875-3.7099609375,3.40997314453125-9.72998046875,12.02001953125-11.179931640625,10.8900146484375-.6199951171875-.69000244140625-.1500244140625-2.3900146484375-.199951171875-3.3599853515625-.9200439453125-7.1600341796875,7.5599365234375-11.44000244140625,12.119873046875-15.6400146484375ZM82.4000244140625,187.02001953125l-.10009765625.15997314453125c-17.239990234375,25.800048828125-44.469970703125,46.45001220703125-64.969970703125,68.739990234375-.469970703125.47003173828125-.869873046875.56005859375-1.0999755859375.12005615234375-1.5-4.760009765625,1.7100830078125-9.37005615234375,4.9600830078125-12.80999755859375,4.0299072265625-4.35003662109375,8.7999267578125-7.33001708984375,12.43994140625-11.22003173828125,17.949951171875-20.5999755859375,38.849853515625-38.59002685546875,57.330078125-58.71002197265625-2.10009765625,4.84002685546875-5.89013671875,9.1199951171875-8.56005859375,13.72003173828125ZM15.8599853515625,268.34002685546875c.169921875-1.79998779296875.2900390625-3.6400146484375,1.679931640625-4.94000244140625,18.360107421875-18.1600341796875,36.989990234375-38.25,55.93994140625-55.47003173828125.070068359375.4000244140625-.039794921875.6300048828125-.079833984375.989990234375-.800048828125,3.96002197265625-.219970703125,5.83001708984375,1.9599609375,4.6800537109375-.860107421875.90997314453125-1.68994140625,1.78997802734375-2.4599609375,2.64996337890625l-.10009765625.1300048828125c-17.97998046875,18.5-36.989990234375,36.010009765625-54.4599609375,54.95001220703125-2.5899658203125,2.05999755859375-2.68994140625-.79998779296875-2.47998046875-2.989990234375ZM16.5799560546875,312.530029296875c5.4300537109375-6.11004638671875,11.77001953125-11.44000244140625,17.530029296875-17.59002685546875,4-3.6300048828125,7.10009765625-6.53997802734375,13.139892578125-13.17999267578125,15.650146484375-16.78997802734375,40.76025390625-45.59002685546875,44.130126953125-36.3699951171875l-.050048828125.1099853515625c-23.85009765625,24.84002685546875-50.080078125,50.21002197265625-73.869873046875,74.1099853515625-.64013671875.60003662109375-1.2000732421875.800048828125-1.4901123046875.12005615234375-.489990234375-1.6500244140625.02001953125-5.1400146484375.6099853515625-7.20001220703125ZM16.1900634765625,331.1400146484375c.2999267578125-1.33001708984375.869873046875-2.6199951171875,1.619873046875-3.9000244140625,3.7900390625-6.2099609375,10.64013671875-10.51995849609375,15.590087890625-15.47998046875,20.699951171875-21.59002685546875,42.27001953125-42.3499755859375,63.2099609375-63.57000732421875,2.090087890625-.83001708984375,3.909912109375,2.010009765625,6.159912109375,2.25.320068359375.0400390625.64013671875.1300048828125.820068359375.27001953125l.030029296875.05999755859375c-29.31005859375,25.1199951171875-57.419921875,58.3399658203125-86.02001953125,84.46002197265625-2.179931640625,1.969970703125-1.64990234375-3.08001708984375-1.409912109375-4.09002685546875ZM190.3299560546875,147.239990234375c-14.669921875,12.3699951171875-26.909912109375,29.35003662109375-42.22998046875,40.33001708984375l-.02001953125-.02001953125c11.1201171875-15.9599609375,25.130126953125-30.75,42.25-40.30999755859375ZM195.6900634765625,284.3800048828125c23.43994140625-39.19000244140625,63.2099609375-66.42999267578125,92.9599609375-100.6300048828125,1.570068359375-.76995849609375.369873046875,5.94000244140625.349853515625,7.44000244140625-.0498046875.29998779296875-.10986328125.6199951171875-.25.8800048828125l-.06982421875.1199951171875c-30.68994140625,31.1199951171875-61.93994140625,62.8699951171875-93.360107421875,92.97003173828125-.010009765625-.09002685546875.14013671875-.3900146484375.3701171875-.780029296875ZM205.9400634765625,202.67999267578125c26.5-26.7099609375,55.949951171875-54.72998046875,82.260009765625-82.5799560546875,1.419921875-.48004150390625,1.06005859375,5.53997802734375.52001953125,7.92999267578125l-.0400390625.1099853515625c-11.669921875,8.20001220703125-77.780029296875,88.0999755859375-83.5400390625,76.16998291015625-.179931640625-.6099853515625.219970703125-.97998046875.800048828125-1.6300048828125ZM288.7401123046875,176.010009765625l-.080078125.1400146484375c-25.39013671875,26.47998046875-52.25,52.17999267578125-77.93994140625,78.30999755859375,7.949951171875-26.60003662109375,38.22998046875-42.989990234375,56.449951171875-64.1400146484375,5.239990234375-5.40997314453125,10.52001953125-12.46002197265625,15.969970703125-17.79998779296875,5.85009765625-5.8800048828125,7.85986328125-4.02001953125,5.60009765625,3.489990234375ZM213.7698974609375,226.55999755859375c23.360107421875-22.0899658203125,49.510009765625-48.70001220703125,72.85009765625-73.15997314453125,3-4.02001953125,2.590087890625,4.219970703125,1.929931640625,6.760009765625l-.070068359375.13995361328125c-20.18994140625,21.050048828125-41.019775390625,41.70001220703125-62.08984375,61.9300537109375-3.25,3.03997802734375-6.64990234375,7.89996337890625-9.25,10.3199462890625-3.449951171875,3.3699951171875-4.2900390625.1600341796875-4.419921875-3.0999755859375-.1201171875-1.27001953125.179931640625-2.0999755859375,1.0498046875-2.8900146484375ZM288.6800537109375,144.10003662109375l-.090087890625.16998291015625c-24.820068359375,25.6199951171875-51.169921875,51.5899658203125-76.349853515625,76.20001220703125-.300048828125-.47003173828125-.41015625-1.780029296875-.64013671875-2.48004150390625-.580078125-2.1199951171875-1.5-2.52996826171875-2.530029296875-2.07000732421875,15.900146484375-15.969970703125,37.9599609375-38.68994140625,58.35009765625-57.97998046875,3.530029296875-3.27001953125,26.93994140625-33.510009765625,21.260009765625-13.8399658203125ZM289.5399169921875,108.1199951171875c-.10986328125,1.30999755859375-.199951171875,2.96002197265625-.7099609375,4.02001953125l-.080078125.1500244140625c-28.1298828125,28.9599609375-57.52978515625,57.28997802734375-86.1298828125,85.89996337890625-1.31005859375.7900390625-.8798828125.239990234375-2.06005859375-.760009765625-.719970703125-.69000244140625-1.68994140625-1.3499755859375-2.31005859375-2.0999755859375-.389892578125-.52001953125-.169921875-.96002197265625.320068359375-1.46002197265625,24.830078125-23.969970703125,49.070068359375-49.82000732421875,74.64013671875-73.469970703125,3.929931640625-3.69000244140625,7.539794921875-9.1400146484375,11.469970703125-12.9000244140625,2.199951171875-2.1199951171875,5.06005859375-4.3800048828125,4.85986328125.6199951171875ZM288.7498779296875,96.04998779296875l-.0498046875.11004638671875c-18.570068359375,14.79998779296875-88.5,99.44000244140625-100.31005859375,92.13995361328125-.050048828125-.219970703125.300048828125-.65997314453125.8701171875-1.219970703125,33.22998046875-32.71002197265625,66.889892578125-65.66998291015625,98.909912109375-98.9100341796875,1.39990234375-.53997802734375.909912109375,5.5400390625.579833984375,7.8800048828125ZM272.8199462890625,96.17999267578125l-.059814453125.08001708984375c-3.980224609375,3.90997314453125-25.170166015625,25.6099853515625-34.440185546875,35.010009765625-11.64990234375,11.46002197265625-55.619873046875,57.1199951171875-58.309814453125,53.03997802734375-.35009765625-.64996337890625,2.059814453125-5.51995849609375,3.7998046875-7.15997314453125,31.3701171875-32.33001708984375,64.5400390625-63.8900146484375,95.489990234375-95.82000732421875.670166015625-.71002197265625,1.320068359375-1.17999267578125,2.330078125-1.41998291015625,16.820068359375-2.4200439453125-3.85009765625,9.22998046875-8.81005859375,16.26995849609375ZM180.9000244140625,171.07000732421875c-3.85009765625,3.92999267578125-7.050048828125,9.1099853515625-11.72998046875,12.16998291015625-2.449951171875,1.58001708984375-5.400146484375,2.4200439453125-8.64013671875,1.75-.849853515625-.2099609375-.929931640625-.67999267578125-.199951171875-1.3599853515625,28.449951171875-26.6099853515625,55.570068359375-55.94000244140625,83.93017578125-82.27001953125,7.4697265625-7.13995361328125,17.27978515625-23.8699951171875,28.48974609375-20.94000244140625l.02001953125.07000732421875c-29.18994140625,29.9100341796875-60.989990234375,61.34002685546875-91.869873046875,90.58001708984375ZM198.4901123046875,138.4000244140625c1.919921875-16.1600341796875,18.3798828125-24.57000732421875,28.559814453125-36.42999267578125,7.210205078125-6.4200439453125,18.710205078125-25.17999267578125,29.510009765625-21.83001708984375l.02001953125.08001708984375c-17.719970703125,19.30999755859375-39.10009765625,39.0799560546875-58.08984375,58.17999267578125ZM200.6700439453125,120.85003662109375c-.340087890625.3800048828125-.679931640625.54998779296875-1.010009765625.3499755859375-4.449951171875-6.07000732421875,2.2900390625-10.07000732421875,6.43994140625-14.8800048828125,11.2900390625-6.80999755859375,21.280029296875-29.8900146484375,34.39013671875-26.17999267578125l.02978515625.08001708984375c-11.0498046875,13.8800048828125-28.25,26.65997314453125-39.849853515625,40.6300048828125ZM146.8800048828125,117.32000732421875c14.18994140625-9.22998046875,30.619873046875-39.70001220703125,45.869873046875-37.010009765625l.01025390625.08001708984375c-11.960205078125,14.67999267578125-28.16015625,28.1300048828125-45.880126953125,36.92999267578125ZM15.989990234375,239.80999755859375c-.72998046875-2.8399658203125,1.0499267578125-6.69000244140625,4.25-11.02996826171875,7.1400146484375-9.69000244140625,21.4200439453125-21.82000732421875,30.9801025390625-30.71002197265625,29.64990234375-30.83001708984375,60.759765625-60.0899658203125,90.119873046875-90.6300048828125,11.2900390625-6.72998046875,20.969970703125-29.6300048828125,35.06005859375-27.19000244140625l.030029296875.07000732421875c-51.919921875,51.97998046875-107.7099609375,110.030029296875-160.4400634765625,159.489990234375ZM160.5101318359375,80.1300048828125c-46.18017578125,47.08001708984375-95.81005859375,96.57000732421875-142.7001953125,142.97003173828125-.760009765625.75-1.3099365234375.969970703125-1.4599609375.0699462890625-.5-3.5799560546875,1.1700439453125-7.37994384765625,4.0400390625-11.2099609375,6.169921875-8.239990234375,17.919921875-16.760009765625,25.889892578125-24.42999267578125,29.110107421875-31.60003662109375,60.91015625-61.08001708984375,91.330078125-91.989990234375,4.179931640625-5.61004638671875,9.889892578125-9.8800048828125,14.4599609375-14.98004150390625.75-.54998779296875,1.820068359375-.54998779296875,2.75-.52996826171875,2.469970703125.260009765625,5.800048828125-1.489990234375,5.719970703125,0l-.02978515625.0999755859375ZM144.4998779296875,79.95001220703125c-40.619873046875,42.21002197265625-85.64990234375,86.05999755859375-126.83984375,127.6099853515625-.72998046875.73004150390625-1.300048828125.9200439453125-1.5400390625.09002685546875-.739990234375-3.21002197265625.6099853515625-6.3900146484375,2.8699951171875-9.59002685546875,3.780029296875-5.28997802734375,10.2899169921875-10.47998046875,15.2000732421875-15.1400146484375,31.619873046875-31.7099609375,62.6298828125-63.54998779296875,94.739990234375-94.79998779296875,2.75-2.55999755859375,4.7998046875-6.22998046875,8.489990234375-7.51995849609375,1.2900390625-.45001220703125,2.659912109375-.21002197265625,4.050048828125-.57000732421875.869873046875-.1600341796875,1.75-.760009765625,2.58984375-.75.330078125.03997802734375.5.25.469970703125.54998779296875l-.030029296875.1199951171875ZM17.3699951171875,191.9100341796875c-.6400146484375.65997314453125-1.1400146484375.7099609375-1.340087890625-.07000732421875-.659912109375-3.09002685546875.35009765625-6.1300048828125,2.10009765625-8.760009765625,3.469970703125-5.1500244140625,9.050048828125-9.0999755859375,13.39990234375-13.489990234375,22.31005859375-22.75,44.840087890625-45.60003662109375,67.60009765625-67.3800048828125,7.169921875-7.05999755859375,17.849853515625-24.83001708984375,29.320068359375-22.04998779296875l.02001953125.0799560546875c-35.39013671875,36.75-75.330078125,75.23004150390625-111.10009765625,111.6700439453125ZM112.5198974609375,80.239990234375c-30.5498046875,31.260009765625-65.25,66.1400146484375-96.159912109375,96-.159912109375-.14996337890625-.280029296875-.449951171875-.3599853515625-.80999755859375-1.8900146484375-9.40997314453125,9.72998046875-16,16.9500732421875-22.989990234375,16.5-13.1199951171875,66.0400390625-76.83001708984375,79.599853515625-72.27996826171875l-.030029296875.0799560546875ZM96.5999755859375,80.33001708984375c-24.93994140625,26.03997802734375-53.9599609375,53.72998046875-79.320068359375,79.44000244140625-.739990234375.71002197265625-1.669921875.8499755859375-1.56982421875-.22003173828125.409912109375-1.469970703125,1.0299072265625-3.3699951171875.3798828125-4.80999755859375-.489990234375-1.15997314453125-.139892578125-2.3399658203125.8800048828125-3.04998779296875,4.3499755859375-3.04998779296875,7.3199462890625-7.52001953125,11.3699951171875-11.17999267578125,15.380126953125-11.77996826171875,55.22998046875-64.8499755859375,68.2900390625-60.25l-.030029296875.07000732421875ZM80.5198974609375,80.239990234375c-19.409912109375,20.8800048828125-43.35986328125,43.2900390625-63.2099609375,63.61004638671875-1.929931640625,1.67999267578125-1.679931640625-3.3699951171875-1.389892578125-4.280029296875,1.639892578125-6.21002197265625,8.0699462890625-10.0999755859375,12.1298828125-14.91998291015625.9200439453125-1.10003662109375,1.52001953125-1.9000244140625,2.5400390625-2.530029296875,13.330078125-8.719970703125,36.400146484375-46.2099609375,49.929931640625-41.9599609375v.0799560546875ZM64.6300048828125,80.239990234375c-14.090087890625,15.6600341796875-32.929931640625,32.6199951171875-47.4100341796875,47.58001708984375-.449951171875.4100341796875-.97998046875.59002685546875-1.2799072265625.34002685546875-.56005859375-.57000732421875-.030029296875-1.5400390625.099853515625-2.260009765625.300048828125-1.030029296875.2100830078125-2.35003662109375-.0499267578125-3.20001220703125-.4000244140625-1.1300048828125-.0299072265625-2.3900146484375.9000244140625-3.20001220703125,6.139892578125-5.69000244140625,12.3499755859375-11.45001220703125,18.169921875-17.8399658203125,6.81005859375-7.1300048828125,14.5400390625-13.5,20.800048828125-20.8699951171875.530029296875-.59002685546875,1.239990234375-.7900390625,2.02001953125-.7900390625,2.419921875.16998291015625,6.64990234375-1.44000244140625,6.780029296875.1400146484375l-.030029296875.0999755859375ZM17.1700439453125,112.0400390625c-1,.8699951171875-1.14013671875-.6300048828125-1.2099609375-1.37005615234375-.25-2.719970703125.719970703125-5.199951171875,2.22998046875-7.47998046875,3.409912109375-4.77996826171875,8.25-8.77001953125,12.010009765625-13.07000732421875,4.449951171875-3.45001220703125,11.77978515625-13.72998046875,18.2900390625-10.01995849609375l.02978515625.0999755859375c-8.52001953125,10.3900146484375-21.829833984375,22.20001220703125-31.349853515625,31.84002685546875ZM18.8599853515625,341.08001708984375c1.179931640625-1.83001708984375,3.47998046875-2.59002685546875,4.919921875-3.82000732421875,24.35009765625-24.52996826171875,48.7900390625-49.78997802734375,73.780029296875-73.27996826171875,2.840087890625-3.4200439453125,5.7001953125-7.62005615234375,9.320068359375-10.08001708984375,2.130126953125-1.4000244140625,4.969970703125-2.6500244140625,7.56005859375-1.8599853515625l.050048828125.0699462890625c-21,29.85003662109375-67.31005859375,65.80999755859375-95.7301025390625,98.33001708984375-.6400146484375.8699951171875-1.9500732421875,2.72998046875-2.8699951171875,2.10003662109375-1.340087890625-.96002197265625.199951171875-8.11004638671875,2.969970703125-11.46002197265625ZM18.8099365234375,382.57000732421875c-4.179931640625,2.75-3.260009765625-3.52996826171875-2.39990234375-5.719970703125l.0899658203125-.1800537109375c45.4000244140625-43.16998291015625,89.9700927734375-96.6199951171875,137.1400146484375-133.72998046875-3.860107421875,6.47998046875-8.550048828125,12.25-13.64013671875,17.54998779296875-16.23974609375,16.9000244140625-37.039794921875,29.22003173828125-52.47998046875,46.3699951171875-4,4.52001953125-7.8798828125,9.33001708984375-10.75,14.6700439453125-7.08984375,13.89996337890625-22.469970703125,24.02996826171875-33.699951171875,35.64996337890625-7.599853515625,6.35003662109375-17.7900390625,21.02001953125-24.260009765625,25.3900146484375ZM40.6900634765625,384.3699951171875l-.02001953125-.0899658203125c6.599853515625-13.6300048828125,41.949951171875-29.6500244140625,37-44.47003173828125-15.56005859375,13.47003173828125-29.2900390625,31.35003662109375-45.72998046875,44.0400390625-2.340087890625.67999267578125-7.6700439453125,1.28997802734375-7.900146484375.40997314453125,15.650146484375-15.989990234375,32.93994140625-31.45001220703125,48.39013671875-47.94000244140625.81005859375-.8499755859375,1.739990234375-2.5899658203125,2.869873046875-2.3599853515625,2.89013671875.5999755859375,4.97998046875,12.92999267578125,9.530029296875,16.3599853515625.3701171875.28997802734375.610107421875.44000244140625.669921875.5-.02001953125,0-.02978515625,0-.0498046875-.010009765625-8.89013671875-3-33.420166015625,41.27001953125-44.760009765625,33.55999755859375ZM56.7298583984375,384.530029296875l-.02978515625-.09002685546875c8.2099609375-10.219970703125,20.75-20.5999755859375,30.3798828125-30.8499755859375,1.10009765625-1.23004150390625,2.300048828125.0999755859375,3.3701171875,1,1.7099609375,1.40997314453125,1.81005859375,2.69000244140625-.14013671875,3.9599609375-2.119873046875,1.59002685546875-2.97998046875,4.1600341796875-5.169921875,5.71002197265625-9.179931640625,6.22003173828125-17.080078125,23.91998291015625-28.41015625,20.27001953125ZM81.3199462890625,384.0400390625c-1.199951171875,1.12994384765625-3.050048828125.42999267578125-4.579833984375.8699951171875-1.340087890625.1099853515625-3.7900390625.77996826171875-4.27001953125-.46002197265625l.02001953125-.09002685546875c8.289794921875-6.719970703125,19.559814453125-27.67999267578125,30.43994140625-22.25994873046875.159912109375.26995849609375-.02001953125.63995361328125-.3701171875,1-1.93994140625,1.8299560546875-5,3.0699462890625-6.52001953125,5.5799560546875-4.27001953125,5.6199951171875-10.08984375,10.09002685546875-14.719970703125,15.36004638671875ZM88.5101318359375,384.41998291015625l-.01025390625-.0899658203125c9.77001953125-14.4100341796875,28.1201171875-23,41.630126953125-33.59002685546875.25-.17999267578125.39990234375-.29998779296875.4599609375-.3399658203125-.050048828125.04998779296875-.179931640625.15997314453125-.3798828125.32000732421875-11.25,9.13995361328125-29.27001953125,37.30999755859375-41.699951171875,33.699951171875ZM105.9400634765625,384.59002685546875c-.35009765625-.010009765625-.85009765625-.08001708984375-1.030029296875-.30999755859375,51.449951171875-53.55999755859375,108.419921875-107.0400390625,160.77001953125-161.10003662109375,6.18994140625-6.42999267578125,13.929931640625-11.53997802734375,19.080078125-19,1.5498046875-2.17999267578125,4.329833984375-6.52996826171875,4.349853515625-.55999755859375-.030029296875,1.47003173828125.150146484375,3.33001708984375-.300048828125,4.57000732421875l-.06982421875.1500244140625c-56.9501953125,57.76995849609375-115.3701171875,114.78997802734375-172.530029296875,172.510009765625-3.18017578125,2.40997314453125-6.550048828125,3.949951171875-10.27001953125,3.739990234375ZM120.9200439453125,384.19000244140625c45.300048828125-47.1400146484375,95.7900390625-94.3599853515625,141.719970703125-142.08001708984375,5.320068359375-5.2099609375,10.93994140625-10.0699462890625,16.260009765625-15.489990234375,2.849853515625-2.77996826171875,6.409912109375-7.8599853515625,8.599853515625-9.3599853515625,3.170166015625-2.260009765625,1.93017578125,5.41998291015625,1.35009765625,6.83001708984375l-.080078125.15997314453125c-34.06982421875,35.739990234375-70.849853515625,69.3599853515625-104.7998046875,105.30999755859375-3.900146484375,3.19000244140625-7.66015625,5.8599853515625-11.60009765625,10.030029296875-14.830078125,14.01995849609375-31.10009765625,41.0899658203125-50.56005859375,44.7099609375-.27001953125.0400390625-.780029296875.08001708984375-.889892578125-.1099853515625ZM137.1900634765625,384.41998291015625c46.320068359375-49.8199462890625,102.510009765625-101.05999755859375,150.989990234375-151.64996337890625,2.31982421875-2.3599853515625,1.06005859375,6.44000244140625.64990234375,7.33001708984375l-.06982421875.14996337890625c-34.5,35.35003662109375-69.960205078125,70.239990234375-105.300048828125,104.55999755859375-10.320068359375,10.52001953125-21.31005859375,25.22003173828125-32.440185546875,33.46002197265625-4.619873046875,3.3800048828125-9.1298828125,5.71002197265625-13.829833984375,6.14996337890625ZM200.3699951171875,384.530029296875c-.070068359375-.1700439453125.239990234375-.54998779296875.739990234375-1.0400390625,27.889892578125-28.01995849609375,59.070068359375-58.1099853515625,87.150146484375-87.15997314453125,1.39990234375-.69000244140625,1.389892578125,5.28997802734375.56982421875,7.71002197265625l-.06005859375.12994384765625c-18.5498046875,15.20001220703125-72.669921875,82.69000244140625-88.39990234375,80.36004638671875ZM216.7799072265625,384.3699951171875c20.820068359375-22.5999755859375,46.110107421875-45.26995849609375,68.10009765625-68.45001220703125,1.22998046875-1.01995849609375,1.9599609375-3.28997802734375,3.47998046875-3.75994873046875,1.449951171875-.10003662109375,1.400146484375,5.55999755859375.489990234375,7.89996337890625l-.070068359375.1199951171875c-15,12.23004150390625-59.08984375,68.1300048828125-72,64.19000244140625ZM235.2799072265625,384.79998779296875c-.769775390625.1400146484375-1.559814453125.5400390625-2.329833984375.47003173828125-.85009765625-.1400146484375-.72998046875-.9000244140625-.2001953125-1.5,17.02001953125-16.9100341796875,36.5-35.29998779296875,52.940185546875-53.41998291015625,4.889892578125-4.8800048828125,3.909912109375,2.8299560546875,3.08984375,5.78997802734375l-.079833984375.1500244140625c-14.570068359375,16.3499755859375-32.010009765625,30.719970703125-46.6201171875,46.89996337890625-1.89990234375,2.22003173828125-4.06982421875,1.29998779296875-6.800048828125,1.6099853515625ZM265.4998779296875,385.07000732421875c-.6298828125-.15997314453125-.93994140625-.52996826171875-.919921875-1,.27001953125-1.72998046875,2.7099609375-2.3900146484375,3.81005859375-3.6099853515625,5.7099609375-5.5400390625,11.010009765625-11,16.580078125-16.45001220703125.9599609375-.91998291015625,1.43994140625-2.20001220703125,2.31982421875-3.21002197265625,2.510009765625-2.89996337890625,2.10009765625,5.010009765625,1.35009765625,7.3800048828125l-.080078125.1500244140625c-7.260009765625,7.0999755859375-12.260009765625,17.5-23.06005859375,16.739990234375ZM288.6800537109375,384.32000732421875l-.090087890625.07000732421875c-8.02001953125,1.42999267578125-12.5,1.30999755859375-2.860107421875-5.04998779296875.8701171875-.79998779296875,1.22021484375-2.57000732421875,2.14013671875-3.25,1.85986328125-1.510009765625,2,5.969970703125.81005859375,8.22998046875ZM288.8499755859375,352.1600341796875l-.080078125.1300048828125c-11.25,9.0799560546875-26.409912109375,34.5799560546875-39.599853515625,31.75994873046875,10.369873046875-13.219970703125,26.9599609375-25.199951171875,38.10986328125-39.03997802734375,2.66015625-2.6500244140625,2.719970703125,5.04998779296875,1.570068359375,7.1500244140625ZM288.8499755859375,288.1500244140625l-.08984375.15997314453125c-29.66015625,29.92999267578125-59.6201171875,60.45001220703125-90.240234375,89.3699951171875-1.889892578125,1.94000244140625-3.559814453125,4.6199951171875-5.47998046875,6.1600341796875-1.389892578125,1.3800048828125-5.849853515625,1.4599609375-8.469970703125.70001220703125-.139892578125-.19000244140625-.079833984375-.20001220703125-.070068359375-.32000732421875,33-33.97003173828125,69.880126953125-68.530029296875,102.780029296875-102.9100341796875,2.800048828125-4.69000244140625,2.75,3.72003173828125,1.570068359375,6.84002685546875ZM288.9400634765625,272.02001953125l-.090087890625.17999267578125c-32.10986328125,33.57000732421875-66.6298828125,65.6400146484375-99.06005859375,98.95001220703125-3.829833984375,3.78997802734375-7.219970703125,8.67999267578125-11.699951171875,11.739990234375-2.570068359375,1.70001220703125-6.360107421875,3.1099853515625-9.25,1.47998046875,28.75-30.8399658203125,62.4599609375-61.65997314453125,92.22998046875-92.75,1.929931640625-1.739990234375,3.190185546875-2.29998779296875,5.090087890625-4.27996826171875,6.2900390625-6.1099853515625,15.919921875-18.1099853515625,20.64990234375-20.780029296875,3.340087890625-2.0899658203125,3.300048828125,2.30999755859375,2.130126953125,5.46002197265625ZM288.9200439453125,256.1099853515625l-.10009765625.1600341796875c-32.64990234375,33.510009765625-66.5,66.33001708984375-99.7900390625,99.14996337890625-5.030029296875,5.530029296875-10.39990234375,12.25-16.010009765625,17.84002685546875-2.56982421875,2.57000732421875-5.18994140625,4.8900146484375-7.85986328125,6.760009765625-3.880126953125,2.70001220703125-7.77001953125,4.469970703125-11.85009765625,4.510009765625-.929931640625-.05999755859375-.599853515625-.55999755859375.06005859375-1.239990234375,43.68994140625-44.55999755859375,90.93994140625-89.32000732421875,134.909912109375-134.760009765625,1.580078125-1.0400390625,1.89013671875,5.28997802734375.64013671875,7.5799560546875ZM295.0999755859375,64.280029296875l-.169921875.03997802734375c-83.4599609375.5-170-.05999755859375-252.7099609375.1199951171875,29.759765625-15.8599853515625,65.679931640625-33.30999755859375,97.599853515625-48.1400146484375,82.52001953125.34002685546875,169.0400390625-.199951171875,250.550048828125.27001953125-30.010009765625,15.30999755859375-63.75,32.45001220703125-95.27001953125,47.71002197265625ZM463.7200927734375,396.58001708984375c-.18017578125-9.780029296875-.080078125-21.25.6298828125-33.8599853515625.2099609375-.6700439453125.320068359375-1.3699951171875.31005859375-2.050048828125l-.02001953125-.15997314453125c-6.77001953125-20.3599853515625-20.81005859375-52.58001708984375-29.929931640625-76.75-.969970703125-2.44000244140625-2.480224609375-5.52001953125-3.8701171875-7.3900146484375-11.989990234375-15.239990234375-21.2099609375,19.780029296875-24.14990234375,27.79998779296875-7.66015625,17.9100341796875-14.5400390625,36.25-21.469970703125,54.24005126953125-.420166015625.94000244140625-.610107421875,1.92999267578125-.56005859375,2.88995361328125.030029296875.050048828125.010009765625.24005126953125.02001953125.45001220703125.02001953125.1600341796875.0400390625.33001708984375.06982421875.489990234375-.059814453125-.13995361328125-.06982421875-.3299560546875-.06982421875-.489990234375-.010009765625-.1099853515625-.02001953125-.219970703125-.02001953125-.33001708984375-.68017578125,29.69000244140625.280029296875,59.33001708984375-.2099609375,88.7900390625.02001953125,4.3900146484375.4599609375,9.3900146484375,3.619873046875,12.2899169921875,2.64013671875,2.9400634765625,9.449951171875,2.7200927734375,14.380126953125,1.9600830078125,71.4599609375,1.47998046875,65.60986328125,7.9599609375,61.27001953125-67.8800048828125ZM411.1199951171875,335.27001953125c2.27001953125-5.27001953125,3.830078125-9.16998291015625,5.6298828125-13.9000244140625,9.440185546875-26.47998046875,7.280029296875-22.91998291015625,16.070068359375.239990234375,1.590087890625,4.2900390625,3.150146484375,8.3900146484375,5.27001953125,13.60003662109375,1.110107421875,2.2099609375-2.090087890625,3.3599853515625-3.18994140625,4.6300048828125-1.4599609375,1.25-2.639892578125,2.28997802734375-4.02001953125,3.57000732421875-8.360107421875,7.75-4.570068359375,6.25-13.31005859375-1.36004638671875-1.22998046875-1.0799560546875-2.429931640625-2.02996826171875-3.60986328125-2.91998291015625-.8701171875-.77996826171875-2.400146484375-1.41998291015625-3.070068359375-2.469970703125l-.0400390625-.1300048828125c-.08984375-.36004638671875.06005859375-.7900390625.27001953125-1.260009765625ZM448.7698974609375,385.6300048828125c.14013671875,20.54998779296875-.059814453125,42.760009765625-.509765625,62.44000244140625l-.080078125.09002685546875c-14.47998046875.98004150390625-31.52001953125.37994384765625-46.18994140625.32989501953125-.97998046875-.0499267578125-1.380126953125-.60992431640625-1.420166015625-1.5599365234375-.8798828125-19.469970703125.489990234375-40.40997314453125.31005859375-60.3699951171875-.150146484375-7.03997802734375-2.110107421875-14.52996826171875-.06005859375-21.3399658203125.760009765625-3.1500244140625,3.440185546875-5.52001953125,5.739990234375-7.8900146484375,4.219970703125-5.4000244140625,9.239990234375,9.45001220703125,15.2001953125,10.25,8.519775390625,2.5999755859375,12.06982421875-7.42999267578125,17.9599609375-11.25.659912109375-.34002685546875,1.429931640625-.239990234375,2.079833984375.1300048828125,10.22998046875,6.33001708984375,6.77001953125,18.94000244140625,6.969970703125,29.16998291015625ZM384.6600341796875,361.29998779296875v.1199951171875c0,.11004638671875.010009765625.22003173828125.02001953125.33001708984375-.010009765625-.2099609375.010009765625-.39996337890625-.02001953125-.45001220703125Z"
      />
      <path
        class="cls-2"
        d="M390.3699951171875,16.57000732421875c-30.010009765625,15.30999755859375-63.75,32.45001220703125-95.27001953125,47.71002197265625l-.169921875.03997802734375c-83.4599609375.5-170-.05999755859375-252.7099609375.1199951171875,29.759765625-15.8599853515625,65.679931640625-33.30999755859375,97.599853515625-48.1400146484375,82.52001953125.34002685546875,169.0400390625-.199951171875,250.550048828125.27001953125ZM441.7999267578125,356.46002197265625c-.64990234375-.3699951171875-1.419921875-.47003173828125-2.079833984375-.1300048828125-5.89013671875,3.82000732421875-9.440185546875,13.8499755859375-17.9599609375,11.25-5.960205078125-.79998779296875-10.980224609375-15.6500244140625-15.2001953125-10.25-2.2998046875,2.3699951171875-4.97998046875,4.739990234375-5.739990234375,7.8900146484375-2.050048828125,6.80999755859375-.090087890625,14.29998779296875.06005859375,21.3399658203125.179931640625,19.96002197265625-1.18994140625,40.9000244140625-.31005859375,60.3699951171875.0400390625.95001220703125.440185546875,1.510009765625,1.420166015625,1.5599365234375,14.669921875.050048828125,31.7099609375.650146484375,46.18994140625-.32989501953125l.080078125-.09002685546875c.449951171875-19.67999267578125.64990234375-41.8900146484375.509765625-62.44000244140625-.199951171875-10.22998046875,3.260009765625-22.8399658203125-6.969970703125-29.16998291015625ZM193.5599365234375,254.70001220703125c4.900146484375-11.8699951171875,5.830078125-25.95001220703125,1.02001953125-37.8900146484375l-.08984375-.19000244140625c-16.380126953125-35.01995849609375-58.110107421875-4.8699951171875-84.7900390625,1.489990234375-.43994140625.09002685546875-.77001953125.09002685546875-.860107421875-.0999755859375,17.880126953125-34.03997802734375,48.070068359375-66.03997802734375,74.800048828125-88.77996826171875.9599609375-.6400146484375,2.25-1.800048828125,3.550048828125-3.10003662109375-.440185546875.35003662109375-.920166015625.6400146484375-1.429931640625.8599853515625-2.420166015625.550048828125-1.14013671875-6.55999755859375-6.18017578125-6.7099609375-68.409912109375,23.739990234375-138.64990234375,138.90997314453125-39.08984375,110.26995849609375,10.52001953125-2.989990234375,19.809814453125-6.38995361328125,32.25-11.6099853515625.52978515625-.219970703125.969970703125-.33001708984375,1.5-.27996826171875,19.85986328125,16.51995849609375-28.650146484375,58.03997802734375-42.6201171875,70.699951171875-11.43994140625,10.030029296875-21.830078125,18.3900146484375-27.090087890625,22.99005126953125-8.989990234375,4.8299560546875-17.31982421875,17.19000244140625-9.18994140625,26.3399658203125,24.010009765625,24.25,86.56005859375-56.989990234375,97.719970703125-82.29998779296875.27001953125-.41998291015625.64013671875-.8800048828125,1.070068359375-1.3800048828125-.419921875.22003173828125-.669921875.17999267578125-.570068359375-.30999755859375Z"
      />
    </g>
  </g>
</svg>
