<svg
  id="Layer_2"
  data-name="Layer 2"
  xmlns="http://www.w3.org/2000/svg"
  viewBox="0 0 462.218322592805634 372.261572306881135"
>
  <defs>
    <style>
      .cls-1 {
        fill: #0f0f0f;
      }

      .cls-2 {
        fill: #fec301;
      }
    </style>
  </defs>
  <g id="Final_Web" data-name="Final Web">
    <g id="colour">
      <path
        id="pencil_card"
        data-name="pencil card"
        class="cls-1"
        d="M140.951587019540966,50.431883542534706c.35009765625-3.3800048828125-2.81982421875-6.6700439453125-6.199951171875-6.570068359375-2.989990234375.010009765625-5.35986328125,3.239990234375-7.58984375,3.60009765625-1.320068359375.239990234375-2.530029296875-.7200927734375-3.820068359375-1.22998046875-3.050048828125-1.31005859375-5.830078125,2.0699462890625-7.2900390625,4.39990234375-1.919921875,3.429931640625,1.4599609375,5.10009765625,1.159912109375,9.97998046875.10009765625,3.77001953125-3.010009765625,7.6201171875-2.81982421875,11.1500244140625l.02001953125.1800537109375c.22998046875,2.949951171875,3.169921875,5.619873046875,6.169921875,5.010009765625,2.10009765625-.360107421875,4.159912109375-2.72998046875,5.9599609375-3.1201171875,1.909912109375-.5,3.68994140625.56005859375,5.60986328125.650146484375,2.56005859375.099853515625,5.91015625-1.4500732421875,7.0302734375-3.880126953125,1.579833984375-4.3199462890625-5.16015625-8.25-1.7001953125-13.3599853515625,1.22998046875-2.1400146484375,3.280029296875-4.25,3.469970703125-6.8099365234375ZM140.951587019540966,50.431883542534706c.35009765625-3.3800048828125-2.81982421875-6.6700439453125-6.199951171875-6.570068359375-2.989990234375.010009765625-5.35986328125,3.239990234375-7.58984375,3.60009765625-1.320068359375.239990234375-2.530029296875-.7200927734375-3.820068359375-1.22998046875-3.050048828125-1.31005859375-5.830078125,2.0699462890625-7.2900390625,4.39990234375-1.919921875,3.429931640625,1.4599609375,5.10009765625,1.159912109375,9.97998046875.10009765625,3.77001953125-3.010009765625,7.6201171875-2.81982421875,11.1500244140625l.02001953125.1800537109375c.22998046875,2.949951171875,3.169921875,5.619873046875,6.169921875,5.010009765625,2.10009765625-.360107421875,4.159912109375-2.72998046875,5.9599609375-3.1201171875,1.909912109375-.5,3.68994140625.56005859375,5.60986328125.650146484375,2.56005859375.099853515625,5.91015625-1.4500732421875,7.0302734375-3.880126953125,1.579833984375-4.3199462890625-5.16015625-8.25-1.7001953125-13.3599853515625,1.22998046875-2.1400146484375,3.280029296875-4.25,3.469970703125-6.8099365234375ZM293.431811628915966,50.741820065972206c-.6201171875-3.5098876953125-.6201171875-7.2698974609375-1.230224609375-10.8099365234375-1.31982421875-7.719970703125-7.809814453125-9.090087890625-13.119873046875-2.989990234375-1.18994140625,1.3299560546875-2.360107421875,2.7900390625-3.580078125,4.0999755859375-6.31005859375,6.3800048828125-10.10009765625,7.7999267578125-6.919921875,17.4200439453125l.050048828125.2099609375c1.239990234375,4.2900390625-.030029296875,9.8299560546875,2.039794921875,13.489990234375,1.52001953125,2.8599853515625,5.400146484375,4.0799560546875,8.340087890625,2.659912109375,2.590087890625-1.18994140625,3.9599609375-3.7999267578125,5.830078125-5.83984375,6.889892578125-6.800048828125,11.079833984375-6.77001953125,8.590087890625-18.2401123046875ZM321.761645613290966,312.541746823784706c-.599853515625-2.579833984375-2.329833984375-4.909912109375-4.52001953125-6.409912109375l-.14990234375-.1099853515625c-1.760009765625-1.1700439453125-3.81005859375-1.8199462890625-5.85009765625-2.4400634765625-28.7900390625-8.8798828125-57.349853515625-18.2999267578125-86.079833984375-27.909912109375-7.6201171875-2.050048828125-4.77001953125-5.4000244140625-3-11.1800537109375,17.179931640625-56.8299560546875,35.929931640625-112.8699951171875,53.06982421875-169.4599609375,1.739990234375-4.72998046875,1.320068359375-11.4000244140625-4.280029296875-12.4300537109375-4.789794921875-.72998046875-7.829833984375,5.27001953125-9.139892578125,9.35009765625-2.52001953125,7.3099365234375-5.25,14.43994140625-7.429931640625,21.85986328125-11.949951171875,42.06005859375-27.010009765625,82.4500732421875-38.320068359375,123.820068359375-2.7900390625,9.81005859375-5.93994140625,18.6400146484375-9.3798828125,27.949951171875-2.0302734375,5.530029296875-3.340087890625,9.300048828125-3.5,12.10009765625-.340087890625,5.8499755859375,4.389892578125,7.419921875,18.119873046875,11.949951171875,7.4599609375,2.340087890625,14.31005859375,5.030029296875,21.56005859375,7,20.8798828125,5.699951171875,40.809814453125,13.47998046875,61.409912109375,20.110107421875,5.179931640625,1.179931640625,18.719970703125,3.2900390625,17.489990234375-4.2001953125ZM355.061694441415966,308.171873776909706l-.010009765625-.2099609375c.199951171875-5.4500732421875-4.10009765625-10.39013671875-9.5400390625-8.090087890625-2.43994140625,1.1500244140625-3.949951171875,3.949951171875-5.949951171875,6.080078125-2.68994140625,2.949951171875-7.080078125,5.030029296875-8.929931640625,8.449951171875-2.41015625,4.119873046875.31982421875,8.590087890625.89990234375,12.830078125.469970703125,2.719970703125.22998046875,5.579833984375.56005859375,8.289794921875.179931640625,4.31005859375,5.7099609375,7.130126953125,9.39990234375,5.7802734375,1.760009765625-.670166015625,2.880126953125-2.210205078125,3.969970703125-3.72021484375,1.550048828125-2.31005859375,3.2001953125-4.5498046875,5.43994140625-6.31982421875,2.2900390625-1.860107421875,5.0400390625-3.830078125,5.740234375-6.2001953125,1.43994140625-4.72998046875-1.900146484375-11.219970703125-1.580078125-16.889892578125ZM364.851733503915966,104.241820065972206c-36.169921875-.25-76.6201171875,21.8499755859375-98.900146484375,50.050048828125l-.08984375.1800537109375c-9.960205078125,22.89990234375,12.08984375,43.989990234375,32.329833984375,47.8199462890625,2.41015625.8499755859375,1.110107421875,1.8900146484375-.5498046875,2.7999267578125-20.150146484375,10.969970703125-58.800048828125,10.31005859375-62.490234375,34.1201171875.01025390625,14.8199462890625,9.43017578125,30.75,22.10009765625,34.0299072265625,8.010009765625,2.6300048828125,18.239990234375-.699951171875,25.780029296875-4.4599609375,23.10009765625-10.1900634765625,46.93994140625-19.7100830078125,66.0400390625-36.47998046875,14.719970703125-10.8900146484375,22.010009765625-28.9400634765625,18.760009765625-46.06005859375-2.110107421875-10.3900146484375-7.14013671875-22.489990234375-17.949951171875-26.68994140625-5.070068359375-2.1300048828125-8.920166015625-3.0999755859375-3.830078125-5.8800048828125,2.330078125-1.31005859375,4.949951171875-2.6700439453125,7.380126953125-3.8900146484375,12.079833984375-6.280029296875,31.39990234375-2.8499755859375,33.789794921875-20.489990234375,2-13.3599853515625-8.659912109375-25.7000732421875-22.369873046875-25.050048828125ZM365.781665144540966,129.171873776909706c-27.219970703125,4.77001953125-48.929931640625,23.7900390625-71.14990234375,38.9599609375-4.330078125,4.1700439453125,21.409912109375,1.510009765625,23.5,1.800048828125,10.25-.070068359375,22.269775390625-.090087890625,29.409912109375,8.18994140625,8.780029296875,11.4300537109375,6.43994140625,29.010009765625-4.35009765625,38.31005859375-21.39990234375,19.0599365234375-51.099853515625,33.909912109375-77.8798828125,40.719970703125-2.070068359375.5400390625-4.4599609375.9000244140625-6.320068359375-.06005859375-5.5-3.3099365234375-9.599853515625-15.0499267578125-5.4599609375-18.97998046875,3.489990234375-3.0799560546875,9-2.679931640625,13.169921875-4.530029296875,25.989990234375-9.68994140625,55.480224609375-17.5699462890625,73.360107421875-40.2999267578125,3.699951171875-4.6900634765625,1.39990234375-6.6400146484375-4.39013671875-7.280029296875-10.25-1.3900146484375-21.469970703125.6900634765625-31.60986328125-.0198974609375-9.22998046875-.27001953125-18.590087890625-4.81005859375-22.9599609375-12.920166015625-12.27001953125-22.369873046875,76.81005859375-66.89990234375,89.72998046875-48.919921875l.030029296875.1199951171875c.85986328125,2.8199462890625-2.3701171875,4.489990234375-5.080078125,4.9100341796875ZM416.361743269540966,89.851805417534706l-.170166015625-.0999755859375c-33.39990234375-11.22998046875-67.239990234375-22.449951171875-101.179931640625-31.989990234375-3.89990234375-1.1300048828125-10.639892578125-2.4000244140625-12.739990234375,1.7900390625-1.1201171875,2.3399658203125-.239990234375,5.699951171875,2.360107421875,8.3299560546875,4.510009765625,4.5400390625,12.08984375,4.5400390625,17.679931640625,6.699951171875,19.219970703125,6.630126953125,38.830078125,11.27001953125,57.919921875,18.2900390625,4.419921875,1.610107421875,8.419921875,2.6600341796875,13.110107421875,3.7900390625,3.5,1.1400146484375,11.179931640625,1.7900390625,11.469970703125,5.3800048828125.10986328125,1.4300537109375-.6298828125,3.4599609375-1.780029296875,6.6099853515625-18.099853515625,55.510009765625-35.2099609375,111.2900390625-53.050048828125,166.8599853515625-1.260009765625,4.4500732421875-4.06005859375,11.3499755859375-.669921875,15.2000732421875,2.580078125,2.7899169921875,7.97998046875,2.179931640625,10.7099609375-1.4200439453125,1.60009765625-2.030029296875,2.39990234375-4.800048828125,3.0400390625-7.3299560546875,6.300048828125-24.2000732421875,15.5400390625-47.25,22.1201171875-71.4200439453125,9.519775390625-26.7900390625,16.679931640625-54.280029296875,26.079833984375-81.27001953125,1.760009765625-5.760009765625,3.2099609375-11.6800537109375,5.070068359375-17.4500732421875,1.889892578125-6.849853515625,8.56982421875-17.08984375.030029296875-21.969970703125ZM416.361743269540966,89.851805417534706l-.170166015625-.0999755859375c-33.39990234375-11.22998046875-67.239990234375-22.449951171875-101.179931640625-31.989990234375-3.89990234375-1.1300048828125-10.639892578125-2.4000244140625-12.739990234375,1.7900390625-1.1201171875,2.3399658203125-.239990234375,5.699951171875,2.360107421875,8.3299560546875,4.510009765625,4.5400390625,12.08984375,4.5400390625,17.679931640625,6.699951171875,19.219970703125,6.630126953125,38.830078125,11.27001953125,57.919921875,18.2900390625,4.419921875,1.610107421875,8.419921875,2.6600341796875,13.110107421875,3.7900390625,3.5,1.1400146484375,11.179931640625,1.7900390625,11.469970703125,5.3800048828125.10986328125,1.4300537109375-.6298828125,3.4599609375-1.780029296875,6.6099853515625-18.099853515625,55.510009765625-35.2099609375,111.2900390625-53.050048828125,166.8599853515625-1.260009765625,4.4500732421875-4.06005859375,11.3499755859375-.669921875,15.2000732421875,2.580078125,2.7899169921875,7.97998046875,2.179931640625,10.7099609375-1.4200439453125,1.60009765625-2.030029296875,2.39990234375-4.800048828125,3.0400390625-7.3299560546875,6.300048828125-24.2000732421875,15.5400390625-47.25,22.1201171875-71.4200439453125,9.519775390625-26.7900390625,16.679931640625-54.280029296875,26.079833984375-81.27001953125,1.760009765625-5.760009765625,3.2099609375-11.6800537109375,5.070068359375-17.4500732421875,1.889892578125-6.849853515625,8.56982421875-17.08984375.030029296875-21.969970703125ZM346.051684675790966,153.671873776909706c2.330078125-1.31005859375,4.949951171875-2.6700439453125,7.380126953125-3.8900146484375,12.079833984375-6.280029296875,31.39990234375-2.8499755859375,33.789794921875-20.489990234375,2-13.3599853515625-8.659912109375-25.7000732421875-22.369873046875-25.050048828125-36.169921875-.25-76.6201171875,21.8499755859375-98.900146484375,50.050048828125l-.08984375.1800537109375c-9.960205078125,22.89990234375,12.08984375,43.989990234375,32.329833984375,47.8199462890625,2.41015625.8499755859375,1.110107421875,1.8900146484375-.5498046875,2.7999267578125-20.150146484375,10.969970703125-58.800048828125,10.31005859375-62.490234375,34.1201171875.01025390625,14.8199462890625,9.43017578125,30.75,22.10009765625,34.0299072265625,8.010009765625,2.6300048828125,18.239990234375-.699951171875,25.780029296875-4.4599609375,23.10009765625-10.1900634765625,46.93994140625-19.7100830078125,66.0400390625-36.47998046875,14.719970703125-10.8900146484375,22.010009765625-28.9400634765625,18.760009765625-46.06005859375-2.110107421875-10.3900146484375-7.14013671875-22.489990234375-17.949951171875-26.68994140625-5.070068359375-2.1300048828125-8.920166015625-3.0999755859375-3.830078125-5.8800048828125ZM318.131762800790966,169.931883542534706c10.25-.070068359375,22.269775390625-.090087890625,29.409912109375,8.18994140625,8.780029296875,11.4300537109375,6.43994140625,29.010009765625-4.35009765625,38.31005859375-21.39990234375,19.0599365234375-51.099853515625,33.909912109375-77.8798828125,40.719970703125-2.070068359375.5400390625-4.4599609375.9000244140625-6.320068359375-.06005859375-5.5-3.3099365234375-9.599853515625-15.0499267578125-5.4599609375-18.97998046875,3.489990234375-3.0799560546875,9-2.679931640625,13.169921875-4.530029296875,25.989990234375-9.68994140625,55.480224609375-17.5699462890625,73.360107421875-40.2999267578125,3.699951171875-4.6900634765625,1.39990234375-6.6400146484375-4.39013671875-7.280029296875-10.25-1.3900146484375-21.469970703125.6900634765625-31.60986328125-.0198974609375-9.22998046875-.27001953125-18.590087890625-4.81005859375-22.9599609375-12.920166015625-12.27001953125-22.369873046875,76.81005859375-66.89990234375,89.72998046875-48.919921875l.030029296875.1199951171875c.85986328125,2.8199462890625-2.3701171875,4.489990234375-5.080078125,4.9100341796875-27.219970703125,4.77001953125-48.929931640625,23.7900390625-71.14990234375,38.9599609375-4.330078125,4.1700439453125,21.409912109375,1.510009765625,23.5,1.800048828125ZM355.061694441415966,308.171873776909706l-.010009765625-.2099609375c.199951171875-5.4500732421875-4.10009765625-10.39013671875-9.5400390625-8.090087890625-2.43994140625,1.1500244140625-3.949951171875,3.949951171875-5.949951171875,6.080078125-2.68994140625,2.949951171875-7.080078125,5.030029296875-8.929931640625,8.449951171875-2.41015625,4.119873046875.31982421875,8.590087890625.89990234375,12.830078125.469970703125,2.719970703125.22998046875,5.579833984375.56005859375,8.289794921875.179931640625,4.31005859375,5.7099609375,7.130126953125,9.39990234375,5.7802734375,1.760009765625-.670166015625,2.880126953125-2.210205078125,3.969970703125-3.72021484375,1.550048828125-2.31005859375,3.2001953125-4.5498046875,5.43994140625-6.31982421875,2.2900390625-1.860107421875,5.0400390625-3.830078125,5.740234375-6.2001953125,1.43994140625-4.72998046875-1.900146484375-11.219970703125-1.580078125-16.889892578125ZM317.241626082040966,306.131834714409706l-.14990234375-.1099853515625c-1.760009765625-1.1700439453125-3.81005859375-1.8199462890625-5.85009765625-2.4400634765625-28.7900390625-8.8798828125-57.349853515625-18.2999267578125-86.079833984375-27.909912109375-7.6201171875-2.050048828125-4.77001953125-5.4000244140625-3-11.1800537109375,17.179931640625-56.8299560546875,35.929931640625-112.8699951171875,53.06982421875-169.4599609375,1.739990234375-4.72998046875,1.320068359375-11.4000244140625-4.280029296875-12.4300537109375-4.789794921875-.72998046875-7.829833984375,5.27001953125-9.139892578125,9.35009765625-2.52001953125,7.3099365234375-5.25,14.43994140625-7.429931640625,21.85986328125-11.949951171875,42.06005859375-27.010009765625,82.4500732421875-38.320068359375,123.820068359375-2.7900390625,9.81005859375-5.93994140625,18.6400146484375-9.3798828125,27.949951171875-2.0302734375,5.530029296875-3.340087890625,9.300048828125-3.5,12.10009765625-.340087890625,5.8499755859375,4.389892578125,7.419921875,18.119873046875,11.949951171875,7.4599609375,2.340087890625,14.31005859375,5.030029296875,21.56005859375,7,20.8798828125,5.699951171875,40.809814453125,13.47998046875,61.409912109375,20.110107421875,5.179931640625,1.179931640625,18.719970703125,3.2900390625,17.489990234375-4.2001953125-.599853515625-2.579833984375-2.329833984375-4.909912109375-4.52001953125-6.409912109375ZM268.631762800790966,58.671873776909706c1.239990234375,4.2900390625-.030029296875,9.8299560546875,2.039794921875,13.489990234375,1.52001953125,2.8599853515625,5.400146484375,4.0799560546875,8.340087890625,2.659912109375,2.590087890625-1.18994140625,3.9599609375-3.7999267578125,5.830078125-5.83984375,6.889892578125-6.800048828125,11.079833984375-6.77001953125,8.590087890625-18.2401123046875-.6201171875-3.5098876953125-.6201171875-7.2698974609375-1.230224609375-10.8099365234375-1.31982421875-7.719970703125-7.809814453125-9.090087890625-13.119873046875-2.989990234375-1.18994140625,1.3299560546875-2.360107421875,2.7900390625-3.580078125,4.0999755859375-6.31005859375,6.3800048828125-10.10009765625,7.7999267578125-6.919921875,17.4200439453125l.050048828125.2099609375ZM140.951587019540966,50.431883542534706c.35009765625-3.3800048828125-2.81982421875-6.6700439453125-6.199951171875-6.570068359375-2.989990234375.010009765625-5.35986328125,3.239990234375-7.58984375,3.60009765625-1.320068359375.239990234375-2.530029296875-.7200927734375-3.820068359375-1.22998046875-3.050048828125-1.31005859375-5.830078125,2.0699462890625-7.2900390625,4.39990234375-1.919921875,3.429931640625,1.4599609375,5.10009765625,1.159912109375,9.97998046875.10009765625,3.77001953125-3.010009765625,7.6201171875-2.81982421875,11.1500244140625l.02001953125.1800537109375c.22998046875,2.949951171875,3.169921875,5.619873046875,6.169921875,5.010009765625,2.10009765625-.360107421875,4.159912109375-2.72998046875,5.9599609375-3.1201171875,1.909912109375-.5,3.68994140625.56005859375,5.60986328125.650146484375,2.56005859375.099853515625,5.91015625-1.4500732421875,7.0302734375-3.880126953125,1.579833984375-4.3199462890625-5.16015625-8.25-1.7001953125-13.3599853515625,1.22998046875-2.1400146484375,3.280029296875-4.25,3.469970703125-6.8099365234375ZM461.481616316415966,67.081785886284706l-.06982421875-.159912109375c-3.400146484375-6.25-12.25-6.4000244140625-18.35009765625-8.580078125-8.1298828125-2.8099365234375-16.31005859375-5.3199462890625-24.56005859375-7.719970703125-32.47998046875-10.43994140625-64.64990234375-20.5999755859375-97.14990234375-30.919921875-4.130126953125-1.090087890625-8.43994140625-1.81005859375-12.10009765625-3.64013671875-1.18994140625-.60986328125-2.300048828125-1.2899169921875-3.22998046875-2.2099609375-2.419921875-2.3299560546875-1.64990234375-4.72998046875-4.489990234375-6.64990234375-3.239990234375-2.110107421875-7.429931640625-2.080078125-11.199951171875-1.9200439453125-7.4599609375.5299072265625-14.64013671875-.0499267578125-21.85009765625-1.6300048828125-4.35986328125-1.1600341796875-8.639892578125-.06005859375-12.489990234375,2.080078125-11.590087890625,5.329833984375-26.889892578125,2.3199462890625-40.260009765625,4.3798828125-9.08984375,1.1700439453125-7.739990234375-8.8099365234375-15.219970703125-10-2.93994140625-.409912109375-5.860107421875.3900146484375-8.679931640625,1.06005859375-11.830078125,2.969970703125-23.18994140625,7.260009765625-35.0400390625,10.3599853515625-3.330078125,1-6.5400390625,2.3299560546875-9.840087890625,3.0799560546875-3.489990234375.7900390625-7.08984375.969970703125-10.72998046875,1.340087890625-9.599853515625,1.260009765625-19.47998046875,1.02001953125-29.099853515625,1.619873046875-5.840087890625.75-13.050048828125.35009765625-17.070068359375,5.280029296875-1.60009765625,2.1400146484375-1.739990234375,5.25-2.989990234375,7.280029296875-1.489990234375,2.52001953125-4.47998046875,3.340087890625-7.2099609375,4.080078125-23.719970703125,6.2099609375-46.489990234375,14.099853515625-70.1201171875,20.429931640625-3.06982421875.8800048828125-6.469970703125,2.2900390625-8.25,4.8900146484375-4.22998046875,6.6099853515625,1.77001953125,16.8199462890625,3.4599609375,23.5899658203125,3.64013671875,12.6800537109375,7.260009765625,25.449951171875,10.75,38.1800537109375,21.4599609375,70.25,40.070068359375,140.8900146484375,62.240234375,211.0399169921875,2.079833984375,7.449951171875,3.73974609375,17.570068359375,6.43994140625,25.0400390625,2.199951171875,5.7900390625,4.5400390625,10.760009765625,11.06005859375,10.159912109375,7.83984375-.97998046875,15.509765625-3.889892578125,23.2197265625-6.02978515625,38.25-9.91015625,75.22021484375-25.900146484375,114.990234375-26.91015625,3.75-.010009765625,7.419921875.719970703125,10.969970703125,1.8701171875,26.89990234375,8.6298828125,53.389892578125,17.39990234375,80.469970703125,25.18994140625,9.030029296875,2.64013671875,18.030029296875,6.3798828125,27.280029296875,8.989990234375,16.030029296875,4.820068359375,18.159912109375-1.43994140625,22.219970703125-15.360107421875,25.409912109375-84.619873046875,53.31982421875-168.469970703125,78.64990234375-253.119873046875,2.4501953125-7.7099609375,5.93017578125-15.510009765625,7.820068359375-23.3900146484375.840087890625-3.8399658203125,1.909912109375-8.3900146484375.429931640625-11.7000732421875ZM17.741626082040966,69.581785886284706l.10009765625-.159912109375c1.1298828125-1.760009765625,3.590087890625-1.25,5.3798828125-2.280029296875.97998046875-.330078125,2.590087890625-1.989990234375,3.3701171875-.77001953125.570068359375,1.02001953125-.320068359375,2.080078125-1.31005859375,2.4599609375-2.31005859375.9500732421875-3.7900390625,3.60009765625-5.909912109375,4.4200439453125-2.670166015625,1.0799560546875-2.670166015625-2.0799560546875-1.630126953125-3.6700439453125ZM20.401538191415966,80.061766355034706l.090087890625-.159912109375c2.760009765625-4.2900390625,7.56005859375-6.9100341796875,11.330078125-10.260009765625,2.719970703125-2.1099853515625,5.27001953125-4.6400146484375,8.169921875-6.219970703125,2.219970703125-1.22998046875,4.630126953125-2.02001953125,7.010009765625-2.969970703125,1.830078125-.81005859375,11.35009765625-4.72998046875,6.56005859375.1298828125-2.969970703125,2.650146484375-6.820068359375,4.77001953125-10.080078125,7.150146484375-6.780029296875,5.0098876953125-12.929931640625,11.7999267578125-20.08984375,16.5499267578125-3.920166015625,2.5299072265625-4.650146484375-1.0499267578125-2.990234375-4.2200927734375ZM23.761645613290966,94.851805417534706l-.030029296875-.0899658203125c-1.77001953125-5.6500244140625,12.77001953125-13.9300537109375,16.68017578125-17.27001953125,3.18994140625-2.3499755859375,5.56982421875-4.3900146484375,8.559814453125-6.93994140625,9.489990234375-7.8599853515625,19.190185546875-17.8199462890625,30.929931640625-20.0400390625,2.66015625-.4000244140625,3.550048828125.27001953125,1.27001953125,2.0599365234375-6.56982421875,4.5-12.219970703125,9.989990234375-18.829833984375,14.52001953125-1.699951171875,1.2000732421875-3.400146484375,2.4200439453125-5.02001953125,3.72998046875-3.909912109375,3.150146484375-7.320068359375,6.77001953125-11.35009765625,9.64013671875-2.58984375,1.849853515625-5.10986328125,3.389892578125-7.570068359375,5.5-2.599853515625,2.179931640625-6.059814453125,5.47998046875-8.89990234375,7.7099609375-1.72998046875,1.3699951171875-4.869873046875,3.8299560546875-5.739990234375,1.179931640625ZM28.101733503915966,104.191893308159706l.080078125-.1600341796875c.829833984375-1.6900634765625,2.47998046875-3.1800537109375,3.949951171875-4.4700927734375,17.81982421875-15.58984375,37.099853515625-31.0499267578125,54.510009765625-46.14990234375,1.10986328125-.9200439453125,3.06982421875-2.739990234375,4.0400390625-1.25,1.409912109375,2.27001953125-.830078125,7.030029296875-3.35009765625,8.77001953125-4.989990234375,4.5599365234375-10.7900390625,8.280029296875-15.880126953125,12.77001953125-3.89990234375,3.639892578125-7.72998046875,7.3399658203125-12.1298828125,10.389892578125-8.570068359375,6.110107421875-15.52001953125,13.9500732421875-23.760009765625,20.1201171875-2.080078125,1.47998046875-3.860107421875,4.1298828125-6.47998046875,4.2799072265625-1.760009765625-.3399658203125-1.820068359375-2.449951171875-.97998046875-4.2999267578125ZM31.211596785165966,115.711912839409706l.080078125-.150146484375c.830078125-1.579833984375,2.320068359375-3.099853515625,3.75-4.3099365234375,11.5400390625-9.8499755859375,23.81005859375-19.9000244140625,35.89990234375-29.47998046875,5.85009765625-4.0399169921875,11.89013671875-10.6400146484375,17.340087890625-14.510009765625,4.080078125-2.6700439453125,4.52001953125,2.239990234375,2.630126953125,5.2000732421875-.47998046875.7799072265625-1.110107421875,1.469970703125-1.840087890625,2.10986328125-3.8701171875,2.9600830078125-7.47998046875,6.2900390625-11.320068359375,9.1800537109375-2.219970703125,1.5899658203125-4.489990234375,3.1400146484375-6.58984375,4.8900146484375-3.570068359375,2.93994140625-6.72021484375,6.2900390625-10.380126953125,9.010009765625-3.14990234375,2.320068359375-6.18994140625,4.0999755859375-9.110107421875,6.81005859375-5.52001953125,4.5699462890625-12.52001953125,12.7999267578125-19.14990234375,15.389892578125-2.1298828125.489990234375-2.56005859375-1.719970703125-1.31005859375-4.139892578125ZM34.971606550790966,128.251829831597206l.0400390625-.1500244140625c.400146484375-1.43994140625,1.420166015625-2.8199462890625,2.47998046875-3.949951171875,7.179931640625-7.590087890625,18.2099609375-14.679931640625,26.7900390625-22.419921875,2.97998046875-2.760009765625,5.75-4.650146484375,8.969970703125-7.2401123046875,3.550048828125-2.3699951171875,17.260009765625-17.3599853515625,19.5-13.9599609375,2.300048828125,6.1800537109375-7.83984375,11.9000244140625-11.97998046875,15.2000732421875-3.83984375,2.68994140625-7.22998046875,5.2999267578125-10.719970703125,8.5599365234375-3.619873046875,3.47998046875-7.469970703125,6.6800537109375-11.590087890625,9.5499267578125-4.81005859375,3.47998046875-8.949951171875,7.5-13.469970703125,11.14013671875-2.639892578125,1.949951171875-5.099853515625,5.2698974609375-8.090087890625,6.369873046875-1.759765625.469970703125-2.419921875-1.6298828125-1.929931640625-3.0999755859375ZM38.031665144540966,139.501829831597206l.080078125-.1600341796875c.820068359375-1.639892578125,2.280029296875-3.0899658203125,3.7099609375-4.3399658203125,7.2900390625-6.4400634765625,15.429931640625-12.5999755859375,22.989990234375-19.0499267578125,5.989990234375-5.580078125,12.239990234375-10.570068359375,18.800048828125-15.530029296875,2.35986328125-1.830078125,4.570068359375-4.530029296875,7.079833984375-6.280029296875,3.670166015625-2.0400390625,3.240234375,3.1500244140625,1.72021484375,5.570068359375-2.090087890625,3.369873046875-5.710205078125,5.7999267578125-8.77001953125,8.3199462890625-6.2001953125,5-12.400146484375,9.8699951171875-18.5,15-5.52001953125,5.02001953125-11.22021484375,9.5399169921875-17.110107421875,14.1300048828125-2.889892578125,2.0400390625-5.780029296875,5.8800048828125-9.159912109375,6.800048828125-2.0400390625.099853515625-1.650146484375-3.0400390625-.840087890625-4.4600830078125ZM41.911792097665966,150.631834714409706c.6298828125-1.18994140625,1.599853515625-2.25,2.6298828125-3.14990234375,3.800048828125-3.070068359375,8.070068359375-5.9700927734375,11.6298828125-9.4400634765625l.150146484375-.1400146484375c9.219970703125-8.6099853515625,19.530029296875-16.22998046875,29.079833984375-24.550048828125,2.7001953125-2.3199462890625,7.01025390625-7.1298828125,8.5-6.159912109375,1.420166015625.8199462890625.9501953125,3.8099365234375.16015625,5.3499755859375-.739990234375,1.6199951171875-2.0400390625,3.0499267578125-3.3798828125,4.2999267578125-7.0400390625,6.4400634765625-14.66015625,12.280029296875-22.190185546875,18.1900634765625-7.849853515625,6.0599365234375-15.449951171875,12.3800048828125-22.590087890625,19.25-3.769775390625,3.3699951171875-5.9599609375.0899658203125-3.98974609375-3.6500244140625ZM45.141772566415966,162.821776120659706l.079833984375-.14990234375c.77001953125-1.5,2.14013671875-2.93994140625,3.47998046875-4.090087890625,11.2900390625-9.6298828125,22.989990234375-19.5799560546875,34.85009765625-28.75,3-2.469970703125,6.699951171875-6.7099609375,9.260009765625-8.4599609375,3.820068359375-2.43994140625,3.08984375,3.550048828125,1.949951171875,5.3900146484375-4.27001953125,7.5-20.06005859375,16.7999267578125-28.14990234375,23.8699951171875-5.6201171875,4.550048828125-15.8701171875,15.68994140625-20.5,16.2900390625-1.760009765625.1300048828125-2.070068359375-1.9200439453125-.969970703125-4.10009765625ZM48.441577253915966,175.171873776909706l.080078125-.1600341796875c.739990234375-1.6300048828125,2.14990234375-3.1800537109375,3.550048828125-4.4100341796875,12.77001953125-11.239990234375,26.820068359375-23.159912109375,40-33.760009765625,1.18994140625-.93994140625,2.929931640625-2.030029296875,4.119873046875-1.030029296875,1.190185546875,1.16015625,1.02001953125,3.400146484375,0,4.9801025390625-1.0498046875,1.5599365234375-3.259765625,3.0299072265625-4.89990234375,4.3699951171875-8.550048828125,7.5999755859375-17.199951171875,14.8599853515625-26.260009765625,21.8599853515625-2.56005859375,2.1700439453125-5.679931640625,5.22998046875-8.550048828125,7.77001953125-2,1.7099609375-4.849853515625,4.2899169921875-6.969970703125,4.5899658203125-1.719970703125.1600341796875-2.070068359375-1.9599609375-1.070068359375-4.2099609375ZM53.141772566415966,191.311766355034706l-.1201171875-.0098876953125c-9.5-4.1099853515625,19.469970703125-22.31005859375,21.72998046875-24.9400634765625,5.81005859375-5.5,12.22998046875-10.969970703125,18.41015625-15.909912109375,1.039794921875-.860107421875,3.02978515625-2.489990234375,4.159912109375-1.630126953125,1.510009765625,1.2100830078125.14990234375,5.1201171875-1.360107421875,6.60009765625-10.409912109375,10.3599853515625-22.239990234375,19.18994140625-33.72998046875,28.3399658203125-1.919921875,1.6700439453125-3.64990234375,3.8599853515625-5.330078125,5.5999755859375-.9697265625,1.0400390625-2.6298828125,2.1400146484375-3.759765625,1.949951171875ZM55.511645613290966,202.371824948784706c-1.219970703125-.219970703125-1.389892578125-2.0999755859375-.27001953125-4.0899658203125l.080078125-.1500244140625c.820068359375-1.469970703125,2.22998046875-2.89990234375,3.570068359375-4.06005859375,11.5-9.869873046875,24.0498046875-20.849853515625,35.759765625-30.0599365234375,1.130126953125-.7999267578125,2.920166015625-2.2099609375,3.740234375-.7099609375.619873046875,1.0799560546875.389892578125,3.5198974609375-.56005859375,5.2999267578125-.919921875,1.9200439453125-2.860107421875,3.25-4.56005859375,4.510009765625-5.5400390625,4.110107421875-10.300048828125,8.6800537109375-15.68994140625,12.85009765625-4.18017578125,3.52001953125-11.47998046875,10.5299072265625-17.0400390625,14.3099365234375-2.14990234375,1.3599853515625-3.510009765625,2.25-5.030029296875,2.0999755859375ZM58.861743269540966,209.861815183159706l.070068359375-.159912109375c.659912109375-1.380126953125,1.789794921875-2.6800537109375,2.9599609375-3.739990234375,5.639892578125-4.989990234375,11.969970703125-9.989990234375,17.949951171875-14.7900390625,5.949951171875-4.1600341796875,10.809814453125-10.260009765625,16.72998046875-14.4599609375,3.659912109375-2.090087890625,3.159912109375,3.199951171875,2.199951171875,5.119873046875-3.18994140625,6.3701171875-15.3701171875,13.02001953125-21.469970703125,18.9200439453125-4.929931640625,4.02001953125-13.840087890625,13.530029296875-17.639892578125,13.4500732421875-1.940185546875-.260009765625-1.47021484375-3.02001953125-.800048828125-4.340087890625ZM63.161792097665966,225.841795651909706l-.1201171875-.02001953125c-.760009765625-.18994140625-1.0400390625-.5198974609375-1.3701171875-1.1298828125-1.18994140625-4,4.340087890625-7,6.75-9.510009765625,6.990234375-6.3800048828125,14.52001953125-11.85009765625,21.52001953125-18.1800537109375,2.41015625-2.1400146484375,4.97998046875-4.4599609375,7.490234375-6.4400634765625,1.119873046875-.849853515625,2.009765625-1.3798828125,2.519775390625-1.0299072265625,1.16015625.97998046875.900146484375,4.1900634765625.14013671875,5.77001953125-.64013671875,1.5098876953125-1.8701171875,2.7799072265625-3.14013671875,3.8699951171875-9.809814453125,8.18994140625-20.56982421875,17.6099853515625-29.85986328125,25.0699462890625-1.080078125.8800048828125-2.670166015625,1.8399658203125-3.929931640625,1.5999755859375ZM65.761645613290966,233.351805417534706l.070068359375-.159912109375c.659912109375-1.380126953125,1.7900390625-2.630126953125,2.9599609375-3.6700439453125,7.300048828125-6.5899658203125,15.7099609375-12.8099365234375,23.14990234375-19.260009765625,1.580078125-.97998046875,7.860107421875-9.1400146484375,9.2099609375-6.239990234375,1.18017578125,3.8199462890625-1.019775390625,7-3.8798828125,9.780029296875-4.820068359375,4.72998046875-10.989990234375,8.0599365234375-15.830078125,12.5399169921875-3.969970703125,3.77001953125-11.509765625,11.9600830078125-14.889892578125,11.5400390625-1.580078125-.169921875-1.650146484375-2.9599609375-.7900390625-4.530029296875ZM69.221606550790966,245.141844480034706l.070068359375-.159912109375c.659912109375-1.41015625,1.77001953125-2.610107421875,2.93994140625-3.6800537109375,6.43994140625-5.7900390625,13.760009765625-11.4700927734375,20.530029296875-17.1199951171875,2.630126953125-2.0400390625,5.02001953125-4.9599609375,7.739990234375-6.780029296875,1.89013671875-1.1300048828125,2.35009765625,1.1300048828125,2.25,2.530029296875,0,3.719970703125-3.050048828125,6.219970703125-5.81982421875,8.25-3.14013671875,2.419921875-5.68017578125,5.2900390625-8.570068359375,7.659912109375-3.210205078125,2.570068359375-7.10009765625,5.260009765625-10.35009765625,8.530029296875-2.300048828125,1.9000244140625-5.199951171875,5.6700439453125-8.1298828125,5.719970703125-1.56005859375-.2999267578125-1.469970703125-3.4599609375-.66015625-4.949951171875ZM72.491626082040966,259.961912839409706l-.0400390625-.110107421875c-1.800048828125-5.199951171875,4.64013671875-7.389892578125,7.56005859375-10.5799560546875,5.22998046875-4.8699951171875,10.920166015625-8.9400634765625,16.420166015625-13.4000244140625,1.98974609375-1.409912109375,3.8798828125-4.419921875,6.329833984375-4.5699462890625,1.60009765625.3800048828125,1.6201171875,2.989990234375.72998046875,5.18994140625-1.119873046875,2.81005859375-3.809814453125,4.2100830078125-6.079833984375,5.9500732421875-4.66015625,3.7099609375-13.7900390625,12.3599853515625-19.39013671875,16.5499267578125-1.780029296875,1.2200927734375-4.72998046875,3.9000244140625-5.530029296875.9700927734375ZM76.651538191415966,273.081785886284706c-1.179931640625-.3099365234375-1.519775390625-2.27001953125-.60986328125-4.25l.070068359375-.159912109375c.599853515625-1.31005859375,1.6298828125-2.5400390625,2.7099609375-3.550048828125,7.199951171875-6.7099609375,15.469970703125-13.199951171875,23.179931640625-19.510009765625,1.380126953125-1,2.18017578125-.52001953125,2.5,1.06005859375.77001953125,3.510009765625-1.580078125,6.989990234375-4.60009765625,8.669921875-2.349853515625,1.5400390625-4.31982421875,3.0400390625-7.019775390625,5.5400390625-3.64013671875,2.969970703125-11.900146484375,12.5400390625-16.230224609375,12.199951171875ZM79.571704207040966,285.211912839409706c-1.340087890625-.840087890625-.969970703125-3.47998046875-.199951171875-4.900146484375l.079833984375-.159912109375c.630126953125-1.239990234375,1.590087890625-2.280029296875,2.6201171875-3.239990234375,4.550048828125-4.090087890625,9.739990234375-8.1500244140625,14.489990234375-12.3900146484375,2.10986328125-1.7999267578125,3.949951171875-4.2899169921875,6.419921875-5.52001953125,1.090087890625-.489990234375,2.0400390625-.2099609375,2.43017578125.8299560546875.909912109375,2.7000732421875-1,6.080078125-2.97021484375,8.070068359375-4.8798828125,4.739990234375-10.35986328125,7.72998046875-15.25,12.489990234375-1.9599609375,1.570068359375-5.02978515625,5.699951171875-7.619873046875,4.820068359375ZM82.631762800790966,294.111815183159706v-.159912109375c0-4.39013671875,4.89990234375-6.2900390625,7.519775390625-9.219970703125,3.77001953125-3.570068359375,8.2001953125-7.4700927734375,12.02001953125-10.570068359375.7001953125-.56005859375,1.6201171875-1.2099609375,2.3701171875-1.4100341796875,1.85009765625-.5198974609375,2.43994140625,1.27001953125,2.22998046875,2.9000244140625-.719970703125,5.659912109375-8.5,9.3399658203125-12.6298828125,13.5400390625-2.60009765625,1.919921875-10.510009765625,13.27001953125-11.510009765625,4.919921875ZM86.361743269540966,308.841795651909706c-1.280029296875-1.2099609375-.75-3.3399658203125-.090087890625-4.8299560546875l.090087890625-.1700439453125c1.280029296875-2.5599365234375,4.2099609375-4.669921875,6.52001953125-6.929931640625,3.079833984375-2.820068359375,6.289794921875-5.739990234375,9.4599609375-8.3900146484375.8798828125-.7100830078125,1.75-1.4300537109375,2.739990234375-1.739990234375,2.89990234375-.6300048828125,2.619873046875,3.3399658203125,1.47998046875,5.739990234375-2.679931640625,5.0699462890625-8.22998046875,7.489990234375-12.22998046875,11.4100341796875-3.02001953125,2.679931640625-6.5400390625,6.030029296875-7.969970703125,4.909912109375ZM89.991626082040966,320.041746823784706c-4.489990234375-7.18994140625,9.85009765625-12.919921875,13.60009765625-17.389892578125l.139892578125-.1500244140625c1.10009765625-.949951171875,2.5-2.9200439453125,3.75-2.7999267578125,1.830078125,1.409912109375.56005859375,6.219970703125-.60986328125,7.969970703125-2.39013671875,3.409912109375-6.1201171875,5.630126953125-9.340087890625,8.18994140625-1.880126953125,1.159912109375-5.300048828125,5.909912109375-7.5400390625,4.179931640625ZM93.601733503915966,331.901854245659706c-1.06005859375-1.25-.97998046875-3.199951171875-.31005859375-4.659912109375l.080078125-.170166015625c.97998046875-1.989990234375,3.409912109375-3.559814453125,5.18994140625-5.449951171875,2.97998046875-2.699951171875,5.570068359375-6.2900390625,9.199951171875-8.030029296875,2.130126953125-.570068359375,1.75,3.64013671875,1.179931640625,5.909912109375-1.02978515625,3.25-4.52978515625,4.830078125-6.719970703125,7.26025390625-3.179931640625,3.079833984375-7.010009765625,6.929931640625-8.619873046875,5.139892578125ZM96.361743269540966,338.661864011284706l.079833984375-.169921875c1.580078125-3.39013671875,5.77001953125-4.400146484375,8.280029296875-7.260009765625,1.380126953125-1.340087890625,2.860107421875-3.1201171875,4-3.460205078125,1.460205078125-.39990234375,1.7900390625,1.460205078125,1.800048828125,2.580078125.0400390625,3.47998046875-2.31005859375,5.72998046875-5.030029296875,8.010009765625-2.260009765625,1.840087890625-5.340087890625,5.449951171875-7.559814453125,5.699951171875-2.7001953125.170166015625-2.300048828125-3.699951171875-1.570068359375-5.39990234375ZM109.051684675790966,347.181883542534706c-2.75.14990234375-6.780029296875,3.929931640625-9.0400390625,2.889892578125l-.06005859375-.059814453125c-.58984375-1.41015625,3.699951171875-3.050048828125,4.690185546875-3.9501953125,4.08984375-2.419921875,6.52001953125-9.81005859375,11.39990234375-4.0498046875,3.0400390625,3.869873046875-4.39990234375,4.6298828125-6.989990234375,5.169921875ZM194.641772566415966,321.401854245659706c-.650146484375.429931640625-3.530029296875.860107421875-4.93017578125.880126953125-16.64990234375,1.43994140625-33.14990234375,2.699951171875-49.849853515625,3.47998046875-2.429931640625.119873046875-4.91015625.33984375-7.330078125.579833984375-2.010009765625.219970703125-4.610107421875.330078125-6.010009765625-.929931640625-1.3798828125-1.280029296875-1.60986328125-3.489990234375-1.77001953125-5.330078125-4.75-67.349853515625-10.260009765625-134.8299560546875-14.159912109375-202.27001953125-1.330078125-19.199951171875-3.550048828125-38.2799072265625-4.199951171875-57.5299072265625-.43017578125-6.3699951171875-.840087890625-12.6099853515625-1.5-18.9000244140625-.5400390625-4.68994140625.679931640625-7.409912109375,6.33984375-7.7099609375l.2001953125-.02001953125c43.889892578125-3.6199951171875,87.669921875-6.3499755859375,131.43994140625-9.340087890625,2.31982421875-.239990234375,6.010009765625-.9599609375,7.349853515625.6800537109375,1.2900390625,2.1500244140625-1.059814453125,6.6300048828125-2.099853515625,10.6900634765625-1.090087890625,3.0400390625-1.080078125,6.919921875-4.050048828125,8.7900390625-10.300048828125,4.7999267578125-23.130126953125,1.909912109375-34.10009765625,3.7099609375-11.199951171875,1.179931640625-22.58984375,1.909912109375-33.9599609375,2.699951171875-6.849853515625.7900390625-26.079833984375-1.8800048828125-24.079833984375,9.31005859375,1.449951171875,5.6099853515625,8.019775390625,6.27001953125,12.919921875,5.530029296875,20.699951171875-2.41015625,42.14990234375-2.64013671875,63.280029296875-4.6700439453125,8.099853515625-.6800537109375,13.68994140625-2.8800048828125,9.260009765625,8.0098876953125-6.77001953125,21.4801025390625-13.240234375,43.2100830078125-20.2099609375,64.60009765625-1.210205078125,3.070068359375-1.7001953125,10.679931640625-4.860107421875,11.8900146484375-4.580078125,1.0699462890625-13.639892578125-14.6700439453125-19.68994140625-23.0699462890625-3.330078125-4.360107421875-7.800048828125-11.010009765625-11.56005859375-13.9600830078125-3.409912109375-2.3299560546875-6,.6300048828125-8.800048828125,4.1900634765625-1.949951171875,2.6298828125-3.989990234375,5.510009765625-4.93994140625,8.4599609375-2.969970703125,11.22998046875,8.739990234375,24.2900390625,15.83984375,33.6199951171875,2.940185546875,3.6500244140625,5.72998046875,7,8.440185546875,10.510009765625,3.179931640625,4.199951171875,6.050048828125,7.7799072265625,6.47998046875,11.489990234375-.31005859375,20.75-28.380126953125,40.97998046875-38.239990234375,62.8399658203125-1.64013671875,3.739990234375-4.2900390625,7.3800048828125-5.150146484375,11.239990234375-1.309814453125,7.3900146484375,6.989990234375,14.489990234375,13.18017578125,16.7900390625,2.619873046875.8900146484375,4.699951171875.679931640625,5.219970703125,1.81005859375.64990234375,2.8199462890625-1.110107421875,6.33984375-1.570068359375,9.260009765625-1.419921875,5.829833984375-2.0400390625,8.119873046875-7.119873046875,9.2899169921875-2.14013671875.47998046875-4.43017578125.75-6.650146484375.9200439453125-4.6298828125.469970703125-6.64990234375-1.4500732421875-6.840087890625-6.1201171875-.27001953125-4-.56982421875-8.14990234375-.909912109375-12.3199462890625-.889892578125-9.6400146484375-1.22998046875-19.3599853515625-1.760009765625-29-3.5400390625-45.47998046875-7.179931640625-91.0499267578125-9.72998046875-136.3800048828125-.169921875-2.909912109375-.39990234375-6.0799560546875-1.56005859375-8.719970703125-1.419921875-3.3900146484375-4.5-5.27001953125-7.699951171875-4.1600341796875-4.02001953125,1.2000732421875-5.7900390625,6.510009765625-5.260009765625,10.6400146484375,1.0400390625,7.27001953125,1.18994140625,14.4100341796875,1.41015625,21.7099609375,1.7998046875,23.9300537109375,3.73974609375,47.75,5.009765625,71.7000732421875,2.580078125,21.7099609375,2.51025390625,43.5999755859375,4.900146484375,65.3599853515625.81005859375,7.25.590087890625,14.550048828125,1.449951171875,21.72998046875.3798828125,3.330078125.56005859375,7.080078125,1,10.6300048828125.4599609375,3.010009765625.969970703125,5.510009765625,3.10009765625,7.3299560546875,5.56982421875,4.280029296875,14.77001953125-.659912109375,21,1.760009765625,2.5400390625,1.1800537109375,1.56982421875,4.110107421875,4.0400390625,6.9300537109375.60986328125.7099609375,1.309814453125,1.3499755859375,2.10986328125,1.9100341796875,2.93994140625,2.059814453125,6.56005859375,3.099853515625,10.010009765625,4.070068359375,3.969970703125,1.079833984375,7.919921875,2.5498046875,11.97998046875,3.579833984375,1.320068359375.429931640625,2.929931640625.739990234375,4.090087890625,1.22998046875.5.210205078125.699951171875.39013671875.5400390625.580078125ZM442.511645613290966,85.741820065972206c-26.669921875,83.0999755859375-53.02001953125,167.4700927734375-78.849853515625,251.0401611328125-1.26025390625,4.02978515625-2.8701171875,8.139892578125-4.130126953125,12.169921875-1.02001953125,3.510009765625-2.510009765625,6.449951171875-6.52001953125,5.31982421875-23.760009765625-7.33984375-47.610107421875-14.52001953125-71.22998046875-22.4599609375l-.18994140625-.06005859375c-32.840087890625-9.919921875-65.2900390625-20.2298583984375-97.699951171875-30.599853515625-3.050048828125-1.050048828125-3.070068359375-1.5999755859375-1.940185546875-4.7099609375.690185546875-1.860107421875,1.77001953125-4.820068359375,2.590087890625-7.6800537109375,1.47998046875-5.3800048828125,2.340087890625-10.510009765625,4.14990234375-15.72998046875,26.5400390625-81.030029296875,50.570068359375-161.1900634765625,76.510009765625-241.9000244140625.8701171875-3.47998046875,1.56005859375-7.2099609375,2.260009765625-8.919921875.97998046875-2.340087890625,2.25-2.1800537109375,5.66015625-1.2900390625,48.579833984375,15.239990234375,97.010009765625,30.89990234375,145.669921875,45.8599853515625,4.760009765625,1.5299072265625,9.340087890625,3.260009765625,14.1298828125,4.7799072265625,2.47021484375.800048828125,5.2001953125,1.4400634765625,7.68017578125,2.090087890625,1.4599609375.4000244140625,3.409912109375,1.0899658203125,3.989990234375,2.1500244140625,1.5,3-1.320068359375,6.8199462890625-2.080078125,9.93994140625ZM416.361743269540966,89.851805417534706l-.170166015625-.0999755859375c-33.39990234375-11.22998046875-67.239990234375-22.449951171875-101.179931640625-31.989990234375-3.89990234375-1.1300048828125-10.639892578125-2.4000244140625-12.739990234375,1.7900390625-1.1201171875,2.3399658203125-.239990234375,5.699951171875,2.360107421875,8.3299560546875,4.510009765625,4.5400390625,12.08984375,4.5400390625,17.679931640625,6.699951171875,19.219970703125,6.630126953125,38.830078125,11.27001953125,57.919921875,18.2900390625,4.419921875,1.610107421875,8.419921875,2.6600341796875,13.110107421875,3.7900390625,3.5,1.1400146484375,11.179931640625,1.7900390625,11.469970703125,5.3800048828125.10986328125,1.4300537109375-.6298828125,3.4599609375-1.780029296875,6.6099853515625-18.099853515625,55.510009765625-35.2099609375,111.2900390625-53.050048828125,166.8599853515625-1.260009765625,4.4500732421875-4.06005859375,11.3499755859375-.669921875,15.2000732421875,2.580078125,2.7899169921875,7.97998046875,2.179931640625,10.7099609375-1.4200439453125,1.60009765625-2.030029296875,2.39990234375-4.800048828125,3.0400390625-7.3299560546875,6.300048828125-24.2000732421875,15.5400390625-47.25,22.1201171875-71.4200439453125,9.519775390625-26.7900390625,16.679931640625-54.280029296875,26.079833984375-81.27001953125,1.760009765625-5.760009765625,3.2099609375-11.6800537109375,5.070068359375-17.4500732421875,1.889892578125-6.849853515625,8.56982421875-17.08984375.030029296875-21.969970703125ZM346.051684675790966,153.671873776909706c2.330078125-1.31005859375,4.949951171875-2.6700439453125,7.380126953125-3.8900146484375,12.079833984375-6.280029296875,31.39990234375-2.8499755859375,33.789794921875-20.489990234375,2-13.3599853515625-8.659912109375-25.7000732421875-22.369873046875-25.050048828125-36.169921875-.25-76.6201171875,21.8499755859375-98.900146484375,50.050048828125l-.08984375.1800537109375c-9.960205078125,22.89990234375,12.08984375,43.989990234375,32.329833984375,47.8199462890625,2.41015625.8499755859375,1.110107421875,1.8900146484375-.5498046875,2.7999267578125-20.150146484375,10.969970703125-58.800048828125,10.31005859375-62.490234375,34.1201171875.01025390625,14.8199462890625,9.43017578125,30.75,22.10009765625,34.0299072265625,8.010009765625,2.6300048828125,18.239990234375-.699951171875,25.780029296875-4.4599609375,23.10009765625-10.1900634765625,46.93994140625-19.7100830078125,66.0400390625-36.47998046875,14.719970703125-10.8900146484375,22.010009765625-28.9400634765625,18.760009765625-46.06005859375-2.110107421875-10.3900146484375-7.14013671875-22.489990234375-17.949951171875-26.68994140625-5.070068359375-2.1300048828125-8.920166015625-3.0999755859375-3.830078125-5.8800048828125ZM318.131762800790966,169.931883542534706c10.25-.070068359375,22.269775390625-.090087890625,29.409912109375,8.18994140625,8.780029296875,11.4300537109375,6.43994140625,29.010009765625-4.35009765625,38.31005859375-21.39990234375,19.0599365234375-51.099853515625,33.909912109375-77.8798828125,40.719970703125-2.070068359375.5400390625-4.4599609375.9000244140625-6.320068359375-.06005859375-5.5-3.3099365234375-9.599853515625-15.0499267578125-5.4599609375-18.97998046875,3.489990234375-3.0799560546875,9-2.679931640625,13.169921875-4.530029296875,25.989990234375-9.68994140625,55.480224609375-17.5699462890625,73.360107421875-40.2999267578125,3.699951171875-4.6900634765625,1.39990234375-6.6400146484375-4.39013671875-7.280029296875-10.25-1.3900146484375-21.469970703125.6900634765625-31.60986328125-.0198974609375-9.22998046875-.27001953125-18.590087890625-4.81005859375-22.9599609375-12.920166015625-12.27001953125-22.369873046875,76.81005859375-66.89990234375,89.72998046875-48.919921875l.030029296875.1199951171875c.85986328125,2.8199462890625-2.3701171875,4.489990234375-5.080078125,4.9100341796875-27.219970703125,4.77001953125-48.929931640625,23.7900390625-71.14990234375,38.9599609375-4.330078125,4.1700439453125,21.409912109375,1.510009765625,23.5,1.800048828125ZM355.061694441415966,308.171873776909706l-.010009765625-.2099609375c.199951171875-5.4500732421875-4.10009765625-10.39013671875-9.5400390625-8.090087890625-2.43994140625,1.1500244140625-3.949951171875,3.949951171875-5.949951171875,6.080078125-2.68994140625,2.949951171875-7.080078125,5.030029296875-8.929931640625,8.449951171875-2.41015625,4.119873046875.31982421875,8.590087890625.89990234375,12.830078125.469970703125,2.719970703125.22998046875,5.579833984375.56005859375,8.289794921875.179931640625,4.31005859375,5.7099609375,7.130126953125,9.39990234375,5.7802734375,1.760009765625-.670166015625,2.880126953125-2.210205078125,3.969970703125-3.72021484375,1.550048828125-2.31005859375,3.2001953125-4.5498046875,5.43994140625-6.31982421875,2.2900390625-1.860107421875,5.0400390625-3.830078125,5.740234375-6.2001953125,1.43994140625-4.72998046875-1.900146484375-11.219970703125-1.580078125-16.889892578125ZM317.241626082040966,306.131834714409706l-.14990234375-.1099853515625c-1.760009765625-1.1700439453125-3.81005859375-1.8199462890625-5.85009765625-2.4400634765625-28.7900390625-8.8798828125-57.349853515625-18.2999267578125-86.079833984375-27.909912109375-7.6201171875-2.050048828125-4.77001953125-5.4000244140625-3-11.1800537109375,17.179931640625-56.8299560546875,35.929931640625-112.8699951171875,53.06982421875-169.4599609375,1.739990234375-4.72998046875,1.320068359375-11.4000244140625-4.280029296875-12.4300537109375-4.789794921875-.72998046875-7.829833984375,5.27001953125-9.139892578125,9.35009765625-2.52001953125,7.3099365234375-5.25,14.43994140625-7.429931640625,21.85986328125-11.949951171875,42.06005859375-27.010009765625,82.4500732421875-38.320068359375,123.820068359375-2.7900390625,9.81005859375-5.93994140625,18.6400146484375-9.3798828125,27.949951171875-2.0302734375,5.530029296875-3.340087890625,9.300048828125-3.5,12.10009765625-.340087890625,5.8499755859375,4.389892578125,7.419921875,18.119873046875,11.949951171875,7.4599609375,2.340087890625,14.31005859375,5.030029296875,21.56005859375,7,20.8798828125,5.699951171875,40.809814453125,13.47998046875,61.409912109375,20.110107421875,5.179931640625,1.179931640625,18.719970703125,3.2900390625,17.489990234375-4.2001953125-.599853515625-2.579833984375-2.329833984375-4.909912109375-4.52001953125-6.409912109375ZM268.631762800790966,58.671873776909706c1.239990234375,4.2900390625-.030029296875,9.8299560546875,2.039794921875,13.489990234375,1.52001953125,2.8599853515625,5.400146484375,4.0799560546875,8.340087890625,2.659912109375,2.590087890625-1.18994140625,3.9599609375-3.7999267578125,5.830078125-5.83984375,6.889892578125-6.800048828125,11.079833984375-6.77001953125,8.590087890625-18.2401123046875-.6201171875-3.5098876953125-.6201171875-7.2698974609375-1.230224609375-10.8099365234375-1.31982421875-7.719970703125-7.809814453125-9.090087890625-13.119873046875-2.989990234375-1.18994140625,1.3299560546875-2.360107421875,2.7900390625-3.580078125,4.0999755859375-6.31005859375,6.3800048828125-10.10009765625,7.7999267578125-6.919921875,17.4200439453125l.050048828125.2099609375ZM132.151538191415966,74.481932370659706c2.56005859375.099853515625,5.91015625-1.4500732421875,7.0302734375-3.880126953125,1.579833984375-4.3199462890625-5.16015625-8.25-1.7001953125-13.3599853515625,1.22998046875-2.1400146484375,3.280029296875-4.25,3.469970703125-6.8099365234375.35009765625-3.3800048828125-2.81982421875-6.6700439453125-6.199951171875-6.570068359375-2.989990234375.010009765625-5.35986328125,3.239990234375-7.58984375,3.60009765625-1.320068359375.239990234375-2.530029296875-.7200927734375-3.820068359375-1.22998046875-3.050048828125-1.31005859375-5.830078125,2.0699462890625-7.2900390625,4.39990234375-1.919921875,3.429931640625,1.4599609375,5.10009765625,1.159912109375,9.97998046875.10009765625,3.77001953125-3.010009765625,7.6201171875-2.81982421875,11.1500244140625l.02001953125.1800537109375c.22998046875,2.949951171875,3.169921875,5.619873046875,6.169921875,5.010009765625,2.10009765625-.360107421875,4.159912109375-2.72998046875,5.9599609375-3.1201171875,1.909912109375-.5,3.68994140625.56005859375,5.60986328125.650146484375ZM293.431811628915966,50.741820065972206c-.6201171875-3.5098876953125-.6201171875-7.2698974609375-1.230224609375-10.8099365234375-1.31982421875-7.719970703125-7.809814453125-9.090087890625-13.119873046875-2.989990234375-1.18994140625,1.3299560546875-2.360107421875,2.7900390625-3.580078125,4.0999755859375-6.31005859375,6.3800048828125-10.10009765625,7.7999267578125-6.919921875,17.4200439453125l.050048828125.2099609375c1.239990234375,4.2900390625-.030029296875,9.8299560546875,2.039794921875,13.489990234375,1.52001953125,2.8599853515625,5.400146484375,4.0799560546875,8.340087890625,2.659912109375,2.590087890625-1.18994140625,3.9599609375-3.7999267578125,5.830078125-5.83984375,6.889892578125-6.800048828125,11.079833984375-6.77001953125,8.590087890625-18.2401123046875ZM321.761645613290966,312.541746823784706c-.599853515625-2.579833984375-2.329833984375-4.909912109375-4.52001953125-6.409912109375l-.14990234375-.1099853515625c-1.760009765625-1.1700439453125-3.81005859375-1.8199462890625-5.85009765625-2.4400634765625-28.7900390625-8.8798828125-57.349853515625-18.2999267578125-86.079833984375-27.909912109375-7.6201171875-2.050048828125-4.77001953125-5.4000244140625-3-11.1800537109375,17.179931640625-56.8299560546875,35.929931640625-112.8699951171875,53.06982421875-169.4599609375,1.739990234375-4.72998046875,1.320068359375-11.4000244140625-4.280029296875-12.4300537109375-4.789794921875-.72998046875-7.829833984375,5.27001953125-9.139892578125,9.35009765625-2.52001953125,7.3099365234375-5.25,14.43994140625-7.429931640625,21.85986328125-11.949951171875,42.06005859375-27.010009765625,82.4500732421875-38.320068359375,123.820068359375-2.7900390625,9.81005859375-5.93994140625,18.6400146484375-9.3798828125,27.949951171875-2.0302734375,5.530029296875-3.340087890625,9.300048828125-3.5,12.10009765625-.340087890625,5.8499755859375,4.389892578125,7.419921875,18.119873046875,11.949951171875,7.4599609375,2.340087890625,14.31005859375,5.030029296875,21.56005859375,7,20.8798828125,5.699951171875,40.809814453125,13.47998046875,61.409912109375,20.110107421875,5.179931640625,1.179931640625,18.719970703125,3.2900390625,17.489990234375-4.2001953125ZM355.061694441415966,308.171873776909706l-.010009765625-.2099609375c.199951171875-5.4500732421875-4.10009765625-10.39013671875-9.5400390625-8.090087890625-2.43994140625,1.1500244140625-3.949951171875,3.949951171875-5.949951171875,6.080078125-2.68994140625,2.949951171875-7.080078125,5.030029296875-8.929931640625,8.449951171875-2.41015625,4.119873046875.31982421875,8.590087890625.89990234375,12.830078125.469970703125,2.719970703125.22998046875,5.579833984375.56005859375,8.289794921875.179931640625,4.31005859375,5.7099609375,7.130126953125,9.39990234375,5.7802734375,1.760009765625-.670166015625,2.880126953125-2.210205078125,3.969970703125-3.72021484375,1.550048828125-2.31005859375,3.2001953125-4.5498046875,5.43994140625-6.31982421875,2.2900390625-1.860107421875,5.0400390625-3.830078125,5.740234375-6.2001953125,1.43994140625-4.72998046875-1.900146484375-11.219970703125-1.580078125-16.889892578125ZM364.851733503915966,104.241820065972206c-36.169921875-.25-76.6201171875,21.8499755859375-98.900146484375,50.050048828125l-.08984375.1800537109375c-9.960205078125,22.89990234375,12.08984375,43.989990234375,32.329833984375,47.8199462890625,2.41015625.8499755859375,1.110107421875,1.8900146484375-.5498046875,2.7999267578125-20.150146484375,10.969970703125-58.800048828125,10.31005859375-62.490234375,34.1201171875.01025390625,14.8199462890625,9.43017578125,30.75,22.10009765625,34.0299072265625,8.010009765625,2.6300048828125,18.239990234375-.699951171875,25.780029296875-4.4599609375,23.10009765625-10.1900634765625,46.93994140625-19.7100830078125,66.0400390625-36.47998046875,14.719970703125-10.8900146484375,22.010009765625-28.9400634765625,18.760009765625-46.06005859375-2.110107421875-10.3900146484375-7.14013671875-22.489990234375-17.949951171875-26.68994140625-5.070068359375-2.1300048828125-8.920166015625-3.0999755859375-3.830078125-5.8800048828125,2.330078125-1.31005859375,4.949951171875-2.6700439453125,7.380126953125-3.8900146484375,12.079833984375-6.280029296875,31.39990234375-2.8499755859375,33.789794921875-20.489990234375,2-13.3599853515625-8.659912109375-25.7000732421875-22.369873046875-25.050048828125ZM365.781665144540966,129.171873776909706c-27.219970703125,4.77001953125-48.929931640625,23.7900390625-71.14990234375,38.9599609375-4.330078125,4.1700439453125,21.409912109375,1.510009765625,23.5,1.800048828125,10.25-.070068359375,22.269775390625-.090087890625,29.409912109375,8.18994140625,8.780029296875,11.4300537109375,6.43994140625,29.010009765625-4.35009765625,38.31005859375-21.39990234375,19.0599365234375-51.099853515625,33.909912109375-77.8798828125,40.719970703125-2.070068359375.5400390625-4.4599609375.9000244140625-6.320068359375-.06005859375-5.5-3.3099365234375-9.599853515625-15.0499267578125-5.4599609375-18.97998046875,3.489990234375-3.0799560546875,9-2.679931640625,13.169921875-4.530029296875,25.989990234375-9.68994140625,55.480224609375-17.5699462890625,73.360107421875-40.2999267578125,3.699951171875-4.6900634765625,1.39990234375-6.6400146484375-4.39013671875-7.280029296875-10.25-1.3900146484375-21.469970703125.6900634765625-31.60986328125-.0198974609375-9.22998046875-.27001953125-18.590087890625-4.81005859375-22.9599609375-12.920166015625-12.27001953125-22.369873046875,76.81005859375-66.89990234375,89.72998046875-48.919921875l.030029296875.1199951171875c.85986328125,2.8199462890625-2.3701171875,4.489990234375-5.080078125,4.9100341796875ZM416.361743269540966,89.851805417534706l-.170166015625-.0999755859375c-33.39990234375-11.22998046875-67.239990234375-22.449951171875-101.179931640625-31.989990234375-3.89990234375-1.1300048828125-10.639892578125-2.4000244140625-12.739990234375,1.7900390625-1.1201171875,2.3399658203125-.239990234375,5.699951171875,2.360107421875,8.3299560546875,4.510009765625,4.5400390625,12.08984375,4.5400390625,17.679931640625,6.699951171875,19.219970703125,6.630126953125,38.830078125,11.27001953125,57.919921875,18.2900390625,4.419921875,1.610107421875,8.419921875,2.6600341796875,13.110107421875,3.7900390625,3.5,1.1400146484375,11.179931640625,1.7900390625,11.469970703125,5.3800048828125.10986328125,1.4300537109375-.6298828125,3.4599609375-1.780029296875,6.6099853515625-18.099853515625,55.510009765625-35.2099609375,111.2900390625-53.050048828125,166.8599853515625-1.260009765625,4.4500732421875-4.06005859375,11.3499755859375-.669921875,15.2000732421875,2.580078125,2.7899169921875,7.97998046875,2.179931640625,10.7099609375-1.4200439453125,1.60009765625-2.030029296875,2.39990234375-4.800048828125,3.0400390625-7.3299560546875,6.300048828125-24.2000732421875,15.5400390625-47.25,22.1201171875-71.4200439453125,9.519775390625-26.7900390625,16.679931640625-54.280029296875,26.079833984375-81.27001953125,1.760009765625-5.760009765625,3.2099609375-11.6800537109375,5.070068359375-17.4500732421875,1.889892578125-6.849853515625,8.56982421875-17.08984375.030029296875-21.969970703125ZM140.951587019540966,50.431883542534706c.35009765625-3.3800048828125-2.81982421875-6.6700439453125-6.199951171875-6.570068359375-2.989990234375.010009765625-5.35986328125,3.239990234375-7.58984375,3.60009765625-1.320068359375.239990234375-2.530029296875-.7200927734375-3.820068359375-1.22998046875-3.050048828125-1.31005859375-5.830078125,2.0699462890625-7.2900390625,4.39990234375-1.919921875,3.429931640625,1.4599609375,5.10009765625,1.159912109375,9.97998046875.10009765625,3.77001953125-3.010009765625,7.6201171875-2.81982421875,11.1500244140625l.02001953125.1800537109375c.22998046875,2.949951171875,3.169921875,5.619873046875,6.169921875,5.010009765625,2.10009765625-.360107421875,4.159912109375-2.72998046875,5.9599609375-3.1201171875,1.909912109375-.5,3.68994140625.56005859375,5.60986328125.650146484375,2.56005859375.099853515625,5.91015625-1.4500732421875,7.0302734375-3.880126953125,1.579833984375-4.3199462890625-5.16015625-8.25-1.7001953125-13.3599853515625,1.22998046875-2.1400146484375,3.280029296875-4.25,3.469970703125-6.8099365234375ZM293.431811628915966,50.741820065972206c-.6201171875-3.5098876953125-.6201171875-7.2698974609375-1.230224609375-10.8099365234375-1.31982421875-7.719970703125-7.809814453125-9.090087890625-13.119873046875-2.989990234375-1.18994140625,1.3299560546875-2.360107421875,2.7900390625-3.580078125,4.0999755859375-6.31005859375,6.3800048828125-10.10009765625,7.7999267578125-6.919921875,17.4200439453125l.050048828125.2099609375c1.239990234375,4.2900390625-.030029296875,9.8299560546875,2.039794921875,13.489990234375,1.52001953125,2.8599853515625,5.400146484375,4.0799560546875,8.340087890625,2.659912109375,2.590087890625-1.18994140625,3.9599609375-3.7999267578125,5.830078125-5.83984375,6.889892578125-6.800048828125,11.079833984375-6.77001953125,8.590087890625-18.2401123046875ZM355.061694441415966,308.171873776909706l-.010009765625-.2099609375c.199951171875-5.4500732421875-4.10009765625-10.39013671875-9.5400390625-8.090087890625-2.43994140625,1.1500244140625-3.949951171875,3.949951171875-5.949951171875,6.080078125-2.68994140625,2.949951171875-7.080078125,5.030029296875-8.929931640625,8.449951171875-2.41015625,4.119873046875.31982421875,8.590087890625.89990234375,12.830078125.469970703125,2.719970703125.22998046875,5.579833984375.56005859375,8.289794921875.179931640625,4.31005859375,5.7099609375,7.130126953125,9.39990234375,5.7802734375,1.760009765625-.670166015625,2.880126953125-2.210205078125,3.969970703125-3.72021484375,1.550048828125-2.31005859375,3.2001953125-4.5498046875,5.43994140625-6.31982421875,2.2900390625-1.860107421875,5.0400390625-3.830078125,5.740234375-6.2001953125,1.43994140625-4.72998046875-1.900146484375-11.219970703125-1.580078125-16.889892578125ZM321.761645613290966,312.541746823784706c-.599853515625-2.579833984375-2.329833984375-4.909912109375-4.52001953125-6.409912109375l-.14990234375-.1099853515625c-1.760009765625-1.1700439453125-3.81005859375-1.8199462890625-5.85009765625-2.4400634765625-28.7900390625-8.8798828125-57.349853515625-18.2999267578125-86.079833984375-27.909912109375-7.6201171875-2.050048828125-4.77001953125-5.4000244140625-3-11.1800537109375,17.179931640625-56.8299560546875,35.929931640625-112.8699951171875,53.06982421875-169.4599609375,1.739990234375-4.72998046875,1.320068359375-11.4000244140625-4.280029296875-12.4300537109375-4.789794921875-.72998046875-7.829833984375,5.27001953125-9.139892578125,9.35009765625-2.52001953125,7.3099365234375-5.25,14.43994140625-7.429931640625,21.85986328125-11.949951171875,42.06005859375-27.010009765625,82.4500732421875-38.320068359375,123.820068359375-2.7900390625,9.81005859375-5.93994140625,18.6400146484375-9.3798828125,27.949951171875-2.0302734375,5.530029296875-3.340087890625,9.300048828125-3.5,12.10009765625-.340087890625,5.8499755859375,4.389892578125,7.419921875,18.119873046875,11.949951171875,7.4599609375,2.340087890625,14.31005859375,5.030029296875,21.56005859375,7,20.8798828125,5.699951171875,40.809814453125,13.47998046875,61.409912109375,20.110107421875,5.179931640625,1.179931640625,18.719970703125,3.2900390625,17.489990234375-4.2001953125ZM416.361743269540966,89.851805417534706l-.170166015625-.0999755859375c-33.39990234375-11.22998046875-67.239990234375-22.449951171875-101.179931640625-31.989990234375-3.89990234375-1.1300048828125-10.639892578125-2.4000244140625-12.739990234375,1.7900390625-1.1201171875,2.3399658203125-.239990234375,5.699951171875,2.360107421875,8.3299560546875,4.510009765625,4.5400390625,12.08984375,4.5400390625,17.679931640625,6.699951171875,19.219970703125,6.630126953125,38.830078125,11.27001953125,57.919921875,18.2900390625,4.419921875,1.610107421875,8.419921875,2.6600341796875,13.110107421875,3.7900390625,3.5,1.1400146484375,11.179931640625,1.7900390625,11.469970703125,5.3800048828125.10986328125,1.4300537109375-.6298828125,3.4599609375-1.780029296875,6.6099853515625-18.099853515625,55.510009765625-35.2099609375,111.2900390625-53.050048828125,166.8599853515625-1.260009765625,4.4500732421875-4.06005859375,11.3499755859375-.669921875,15.2000732421875,2.580078125,2.7899169921875,7.97998046875,2.179931640625,10.7099609375-1.4200439453125,1.60009765625-2.030029296875,2.39990234375-4.800048828125,3.0400390625-7.3299560546875,6.300048828125-24.2000732421875,15.5400390625-47.25,22.1201171875-71.4200439453125,9.519775390625-26.7900390625,16.679931640625-54.280029296875,26.079833984375-81.27001953125,1.760009765625-5.760009765625,3.2099609375-11.6800537109375,5.070068359375-17.4500732421875,1.889892578125-6.849853515625,8.56982421875-17.08984375.030029296875-21.969970703125ZM364.851733503915966,104.241820065972206c-36.169921875-.25-76.6201171875,21.8499755859375-98.900146484375,50.050048828125l-.08984375.1800537109375c-9.960205078125,22.89990234375,12.08984375,43.989990234375,32.329833984375,47.8199462890625,2.41015625.8499755859375,1.110107421875,1.8900146484375-.5498046875,2.7999267578125-20.150146484375,10.969970703125-58.800048828125,10.31005859375-62.490234375,34.1201171875.01025390625,14.8199462890625,9.43017578125,30.75,22.10009765625,34.0299072265625,8.010009765625,2.6300048828125,18.239990234375-.699951171875,25.780029296875-4.4599609375,23.10009765625-10.1900634765625,46.93994140625-19.7100830078125,66.0400390625-36.47998046875,14.719970703125-10.8900146484375,22.010009765625-28.9400634765625,18.760009765625-46.06005859375-2.110107421875-10.3900146484375-7.14013671875-22.489990234375-17.949951171875-26.68994140625-5.070068359375-2.1300048828125-8.920166015625-3.0999755859375-3.830078125-5.8800048828125,2.330078125-1.31005859375,4.949951171875-2.6700439453125,7.380126953125-3.8900146484375,12.079833984375-6.280029296875,31.39990234375-2.8499755859375,33.789794921875-20.489990234375,2-13.3599853515625-8.659912109375-25.7000732421875-22.369873046875-25.050048828125ZM365.781665144540966,129.171873776909706c-27.219970703125,4.77001953125-48.929931640625,23.7900390625-71.14990234375,38.9599609375-4.330078125,4.1700439453125,21.409912109375,1.510009765625,23.5,1.800048828125,10.25-.070068359375,22.269775390625-.090087890625,29.409912109375,8.18994140625,8.780029296875,11.4300537109375,6.43994140625,29.010009765625-4.35009765625,38.31005859375-21.39990234375,19.0599365234375-51.099853515625,33.909912109375-77.8798828125,40.719970703125-2.070068359375.5400390625-4.4599609375.9000244140625-6.320068359375-.06005859375-5.5-3.3099365234375-9.599853515625-15.0499267578125-5.4599609375-18.97998046875,3.489990234375-3.0799560546875,9-2.679931640625,13.169921875-4.530029296875,25.989990234375-9.68994140625,55.480224609375-17.5699462890625,73.360107421875-40.2999267578125,3.699951171875-4.6900634765625,1.39990234375-6.6400146484375-4.39013671875-7.280029296875-10.25-1.3900146484375-21.469970703125.6900634765625-31.60986328125-.0198974609375-9.22998046875-.27001953125-18.590087890625-4.81005859375-22.9599609375-12.920166015625-12.27001953125-22.369873046875,76.81005859375-66.89990234375,89.72998046875-48.919921875l.030029296875.1199951171875c.85986328125,2.8199462890625-2.3701171875,4.489990234375-5.080078125,4.9100341796875Z"
      />
      <path
        class="cls-2"
        d="M250.221606550790966,24.991820065972206c-1.33984375-1.6400146484375-5.030029296875-.9200439453125-7.349853515625-.6800537109375-43.77001953125,2.9901123046875-87.550048828125,5.7200927734375-131.43994140625,9.340087890625l-.2001953125.02001953125c-5.659912109375.300048828125-6.8798828125,3.02001953125-6.33984375,7.7099609375.659912109375,6.2900390625,1.06982421875,12.530029296875,1.5,18.9000244140625.64990234375,19.25,2.869873046875,38.3299560546875,4.199951171875,57.5299072265625,3.89990234375,67.4400634765625,9.409912109375,134.920166015625,14.159912109375,202.27001953125.16015625,1.840087890625.39013671875,4.050048828125,1.77001953125,5.330078125,1.39990234375,1.260009765625,4,1.14990234375,6.010009765625.929931640625,2.419921875-.239990234375,4.900146484375-.4599609375,7.330078125-.579833984375,16.699951171875-.780029296875,33.199951171875-2.0400390625,49.849853515625-3.47998046875,1.400146484375-.02001953125,4.280029296875-.4501953125,4.93017578125-.880126953125.159912109375-.18994140625-.0400390625-.369873046875-.5400390625-.580078125-1.16015625-.489990234375-2.77001953125-.800048828125-4.090087890625-1.22998046875-4.06005859375-1.030029296875-8.010009765625-2.5-11.97998046875-3.579833984375-3.449951171875-.97021484375-7.070068359375-2.01025390625-10.010009765625-4.070068359375-.800048828125-.56005859375-1.5-1.2000732421875-2.10986328125-1.9100341796875-2.47021484375-2.8199462890625-1.5-5.75-4.0400390625-6.9300537109375-6.22998046875-2.419921875-15.43017578125,2.52001953125-21-1.760009765625-2.130126953125-1.8199462890625-2.64013671875-4.3199462890625-3.10009765625-7.3299560546875-.43994140625-3.5499267578125-.6201171875-7.2999267578125-1-10.6300048828125-.85986328125-7.179931640625-.639892578125-14.47998046875-1.449951171875-21.72998046875-2.389892578125-21.760009765625-2.320068359375-43.6500244140625-4.900146484375-65.3599853515625-1.27001953125-23.9500732421875-3.2099609375-47.77001953125-5.009765625-71.7000732421875-.22021484375-7.2999267578125-.3701171875-14.43994140625-1.41015625-21.7099609375-.530029296875-4.1300048828125,1.239990234375-9.43994140625,5.260009765625-10.6400146484375,3.199951171875-1.1099853515625,6.280029296875.77001953125,7.699951171875,4.1600341796875,1.16015625,2.6400146484375,1.39013671875,5.81005859375,1.56005859375,8.719970703125,2.550048828125,45.330078125,6.18994140625,90.9000244140625,9.72998046875,136.3800048828125.530029296875,9.6400146484375.8701171875,19.3599853515625,1.760009765625,29,.340087890625,4.1700439453125.639892578125,8.3199462890625.909912109375,12.3199462890625.190185546875,4.6700439453125,2.210205078125,6.590087890625,6.840087890625,6.1201171875,2.219970703125-.1700439453125,4.510009765625-.4400634765625,6.650146484375-.9200439453125,5.079833984375-1.1700439453125,5.699951171875-3.4600830078125,7.119873046875-9.2899169921875.4599609375-2.920166015625,2.219970703125-6.4400634765625,1.570068359375-9.260009765625-.52001953125-1.130126953125-2.60009765625-.9200439453125-5.219970703125-1.81005859375-6.190185546875-2.300048828125-14.489990234375-9.4000244140625-13.18017578125-16.7900390625.860107421875-3.8599853515625,3.510009765625-7.5,5.150146484375-11.239990234375,9.85986328125-21.8599853515625,37.929931640625-42.0899658203125,38.239990234375-62.8399658203125-.429931640625-3.7100830078125-3.300048828125-7.2900390625-6.47998046875-11.489990234375-2.710205078125-3.510009765625-5.5-6.8599853515625-8.440185546875-10.510009765625-7.099853515625-9.3299560546875-18.809814453125-22.3900146484375-15.83984375-33.6199951171875.949951171875-2.949951171875,2.989990234375-5.830078125,4.93994140625-8.4599609375,2.800048828125-3.56005859375,5.39013671875-6.52001953125,8.800048828125-4.1900634765625,3.760009765625,2.9500732421875,8.22998046875,9.5999755859375,11.56005859375,13.9600830078125,6.050048828125,8.39990234375,15.10986328125,24.139892578125,19.68994140625,23.0699462890625,3.159912109375-1.2100830078125,3.64990234375-8.8199462890625,4.860107421875-11.8900146484375,6.9697265625-21.3900146484375,13.43994140625-43.1199951171875,20.2099609375-64.60009765625,4.429931640625-10.889892578125-1.16015625-8.68994140625-9.260009765625-8.0098876953125-21.130126953125,2.0299072265625-42.580078125,2.2598876953125-63.280029296875,4.6700439453125-4.900146484375.739990234375-11.469970703125.0799560546875-12.919921875-5.530029296875-2-11.1900634765625,17.22998046875-8.52001953125,24.079833984375-9.31005859375,11.3701171875-.7900390625,22.760009765625-1.52001953125,33.9599609375-2.699951171875,10.969970703125-1.800048828125,23.800048828125,1.0899658203125,34.10009765625-3.7099609375,2.969970703125-1.8701171875,2.9599609375-5.75,4.050048828125-8.7900390625,1.0400390625-4.06005859375,3.389892578125-8.5400390625,2.099853515625-10.6900634765625ZM140.951587019540966,50.431883542534706c-.18994140625,2.5599365234375-2.239990234375,4.669921875-3.469970703125,6.8099365234375-3.4599609375,5.1099853515625,3.280029296875,9.0400390625,1.7001953125,13.3599853515625-1.1201171875,2.4300537109375-4.47021484375,3.97998046875-7.0302734375,3.880126953125-1.919921875-.090087890625-3.699951171875-1.150146484375-5.60986328125-.650146484375-1.800048828125.39013671875-3.85986328125,2.760009765625-5.9599609375,3.1201171875-3,.60986328125-5.93994140625-2.06005859375-6.169921875-5.010009765625l-.02001953125-.1800537109375c-.190185546875-3.5299072265625,2.919921875-7.3800048828125,2.81982421875-11.1500244140625.300048828125-4.8798828125-3.079833984375-6.550048828125-1.159912109375-9.97998046875,1.4599609375-2.3299560546875,4.239990234375-5.7099609375,7.2900390625-4.39990234375,1.2900390625.5098876953125,2.5,1.469970703125,3.820068359375,1.22998046875,2.22998046875-.360107421875,4.599853515625-3.590087890625,7.58984375-3.60009765625,3.380126953125-.0999755859375,6.550048828125,3.1900634765625,6.199951171875,6.570068359375ZM365.781665144540966,129.171873776909706c-27.219970703125,4.77001953125-48.929931640625,23.7900390625-71.14990234375,38.9599609375-4.330078125,4.1700439453125,21.409912109375,1.510009765625,23.5,1.800048828125,10.25-.070068359375,22.269775390625-.090087890625,29.409912109375,8.18994140625,8.780029296875,11.4300537109375,6.43994140625,29.010009765625-4.35009765625,38.31005859375-21.39990234375,19.0599365234375-51.099853515625,33.909912109375-77.8798828125,40.719970703125-2.070068359375.5400390625-4.4599609375.9000244140625-6.320068359375-.06005859375-5.5-3.3099365234375-9.599853515625-15.0499267578125-5.4599609375-18.97998046875,3.489990234375-3.0799560546875,9-2.679931640625,13.169921875-4.530029296875,25.989990234375-9.68994140625,55.480224609375-17.5699462890625,73.360107421875-40.2999267578125,3.699951171875-4.6900634765625,1.39990234375-6.6400146484375-4.39013671875-7.280029296875-10.25-1.3900146484375-21.469970703125.6900634765625-31.60986328125-.0198974609375-9.22998046875-.27001953125-18.590087890625-4.81005859375-22.9599609375-12.920166015625-12.27001953125-22.369873046875,76.81005859375-66.89990234375,89.72998046875-48.919921875l.030029296875.1199951171875c.85986328125,2.8199462890625-2.3701171875,4.489990234375-5.080078125,4.9100341796875Z"
      />
    </g>
  </g>
</svg>
