<svg viewBox="0 0 465.1981774232936 400.311784825085851">
  <defs>
    <style>
      .cls-1 {
        fill: #0f0f0f;
      }

      .cls-2 {
        fill: #fec301;
      }
    </style>
  </defs>
  <g>
    <g>
      <path
        class="cls-1"
        d="M252.610107421875,152.813053161702555l-.219970703125-.010009765625c-9.52001953125-1.2000732421875-13.949951171875,10.9000244140625-10.1201171875,18.2200927734375,1.5,3.119873046875,4.840087890625,4.93994140625,8.26025390625,5.429931640625,16.08984375,2.239990234375,18.949951171875-24.3900146484375,2.079833984375-23.6400146484375ZM252.51025390625,168.923038513265055h-.2001953125c-4.6298828125-.159912109375-4.7900390625-8.550048828125-.119873046875-8.800048828125,5.820068359375-.22998046875,5.89990234375,8.590087890625.320068359375,8.800048828125ZM252.610107421875,152.813053161702555l-.219970703125-.010009765625c-9.52001953125-1.2000732421875-13.949951171875,10.9000244140625-10.1201171875,18.2200927734375,1.5,3.119873046875,4.840087890625,4.93994140625,8.26025390625,5.429931640625,16.08984375,2.239990234375,18.949951171875-24.3900146484375,2.079833984375-23.6400146484375ZM252.51025390625,168.923038513265055h-.2001953125c-4.6298828125-.159912109375-4.7900390625-8.550048828125-.119873046875-8.800048828125,5.820068359375-.22998046875,5.89990234375,8.590087890625.320068359375,8.800048828125ZM464.420166015625,57.823062927327555c.239990234375-8.280029296875,4.090087890625-24.6300048828125-7.8701171875-25.3099365234375l-.18994140625-.010009765625c-51.18994140625-.4500732421875-102.260009765625-1.080078125-153.199951171875.119873046875-4.47998046875,1.840087890625-6.5,4.9100341796875-6.550048828125,7.830078125-.06005859375,3.989990234375,3.60009765625,7.68994140625,9.77001953125,7.4599609375,46.35009765625.610107421875,92.75.4200439453125,138.989990234375-.199951171875,5.9599609375-.85009765625,2.070068359375,7.25,2.820068359375,10.489990234375.070068359375,6.820068359375.419921875,13.3399658203125.449951171875,20.070068359375-.580078125,92.5699462890625.010009765625,184.5198974609375-.25,277.079833984375.25,1.5.580078125,3.330078125.2900390625,4.4700927734375-.18017578125.2899169921875-.580078125.1300048828125-1.1201171875-.3399658203125-2.239990234375-2.219970703125-4.72998046875-5.06005859375-6.909912109375-7.1600341796875-9.989990234375-9.760009765625-21.280029296875-22.4700927734375-30.639892578125-31.1400146484375-16.900146484375-16.429931640625-18.050048828125-8.580078125-.7900390625-26.489990234375,2.919921875-3.669921875,7.5-7.419921875,5.760009765625-12.4599609375-2.16015625-6.4599609375-12.800048828125-5.300048828125-19.469970703125-6.7900390625-2.81005859375-.489990234375-3.090087890625-2.9100341796875-3.1201171875-5.510009765625-.6298828125-14.300048828125-.179931640625-29.22998046875.419921875-43.699951171875-.419921875-8.60009765625-.68994140625-16.97998046875-.06005859375-25.5400390625-.369873046875-10.81005859375-.309814453125-21.8900146484375-.1298828125-32.77001953125-.889892578125-7.1199951171875-8.85009765625-7.7099609375-15.5-7.489990234375-4.580078125-.510009765625-9.469970703125-.070068359375-13.8798828125.3800048828125-8.22021484375-.260009765625,3.75-26.4000244140625-7.6201171875-31.4300537109375-4.489990234375-2.35986328125-10.050048828125-1.5699462890625-14.9599609375-1.39990234375-28.840087890625.7999267578125-57.77001953125-.60009765625-86.56005859375.64990234375-8.679931640625,1-29.929931640625-3.02001953125-35.300048828125,2.25-1.929931640625,1.64013671875-2.599853515625,6.590087890625-2.659912109375,10.260009765625.10009765625,45.800048828125.590087890625,91.090087890625.080078125,136.97998046875.699951171875,7.630126953125-.630126953125,15.97998046875,1.68994140625,23.10009765625,4.969970703125,6.510009765625,13.489990234375.5,14.60986328125,4.6199951171875.440185546875,2.75-.85986328125,7.0599365234375-.25,10.18994140625.7001953125,10.3800048828125-3.14990234375,20.9500732421875,10.8701171875,20.3499755859375,27.4599609375.77001953125,55.590087890625.39013671875,83.280029296875-.0999755859375,4.449951171875-.5499267578125,3.139892578125,4.77001953125,3.679931640625,7.6300048828125.780029296875,5.699951171875.800048828125,12.5,5.18994140625,15.530029296875.41015625.3699951171875.56005859375.6099853515625.330078125.75-101.43994140625,1.330078125-203.10986328125.2900390625-303.969970703125.2900390625-4.47998046875-.27001953125-11.080078125,2.510009765625-14.889892578125-.1400146484375-1.2001953125-1.8699951171875-.090087890625-4.9300537109375-.27001953125-7.2200927734375-.2099609375-6.2799072265625-.380126953125-12.510009765625-.420166015625-18.739990234375.050048828125-91.25,1.110107421875-183.659912109375-.10986328125-274.929931640625.39990234375-3.2099609375-1.300048828125-9.9200439453125,2.18994140625-11.1700439453125,1.68994140625-.3099365234375,3.489990234375-.0399169921875,5.219970703125-.1500244140625,8.35009765625-.8499755859375,20.75,3.1600341796875,24.050048828125-5.10986328125.389892578125-.89013671875.610107421875-1.75.699951171875-2.570068359375.5-5.050048828125-4.35986328125-8.6400146484375-10.1298828125-8.6099853515625-8.6201171875-.010009765625-16.340087890625.1700439453125-24.8701171875.5899658203125-7.6298828125-1.550048828125-12.93994140625,1.8499755859375-13.1201171875,10.3900146484375,1.080078125,106.239990234375-.369873046875,212.6199951171875.7001953125,318.9400634765625-.840087890625,8.8099365234375.030029296875,14.849853515625,10.830078125,15.239990234375,95.2099609375-.72998046875,191.35986328125-.4100341796875,286.369873046875-.14013671875,32.880126953125-.0599365234375,65.780029296875-.8199462890625,98.27001953125.130126953125,8.5400390625,2.5,17.419921875,19.760009765625,26.389892578125,23.179931640625,9.780029296875,1.97998046875,21.18017578125-17.800048828125,29.2099609375-23.0799560546875,5.02001953125-2.2900390625,11.5.949951171875,12.41015625-7.0400390625.60009765625-46.6199951171875-.14013671875-92.719970703125.429931640625-139.52001953125-.659912109375-57.18994140625.110107421875-115.3199462890625-.18994140625-172.7099609375ZM377.190185546875,266.352970153890055c-.510009765625,1.2900390625-.14013671875,3.150146484375-.170166015625,4.4500732421875-.1298828125,2.27001953125-2.02978515625,1.9500732421875-3.719970703125,1.1500244140625-1.010009765625-.4200439453125-2.949951171875.3800048828125-3.7099609375-.199951171875-.97998046875-.7900390625,2.25-2.830078125,3.360107421875-4.14013671875,1.169921875-1.659912109375,1.2998046875-3.909912109375,3.39990234375-3.510009765625l.169921875.0400390625c1.130126953125.219970703125.900146484375,1.360107421875.670166015625,2.2099609375ZM360.2802734375,252.453067810140055c-.06005859375-1.4100341796875-.740234375-2.68994140625-.2001953125-3.8699951171875l.070068359375-.1600341796875c2.5-4.219970703125,7.550048828125-6.25,10.570068359375-10.1099853515625,1.679931640625-2.030029296875,4.68994140625-6.1500244140625,5.7998046875-5.8299560546875.880126953125.419921875.300048828125,2.8199462890625.25,3.8599853515625.050048828125,7.4000244140625-7.329833984375,10.8900146484375-12.2998046875,15.5699462890625-1.35009765625,1.070068359375-2.239990234375,3.949951171875-3.920166015625,4.27001953125-.849853515625-.25-.1298828125-2.760009765625-.269775390625-3.72998046875ZM360.1201171875,264.563053161702555l.070068359375-.1600341796875c2.3798828125-4.1199951171875,7.419921875-6.14990234375,10.369873046875-9.889892578125,1.7001953125-2.0400390625,4.75-6.280029296875,5.89013671875-5.9600830078125.389892578125.0899658203125.52001953125.7999267578125.4599609375,1.7000732421875-.090087890625,1.0699462890625-.22998046875,2.5899658203125-.360107421875,3.739990234375-.3798828125,5.0999755859375-5.269775390625,7.780029296875-8.780029296875,10.929931640625-1.599853515625,1.449951171875-5.48974609375,6.3699951171875-7.72998046875,4.760009765625-.809814453125-.949951171875-.52978515625-3.830078125.080078125-5.1199951171875ZM376.77001953125,204.343082458577555c.050048828125,7.4000244140625-7.329833984375,10.8900146484375-12.2998046875,15.5699462890625-1.35009765625,1.070068359375-2.239990234375,3.949951171875-3.920166015625,4.27001953125-.849853515625-.25-.1298828125-2.760009765625-.269775390625-3.72998046875-.06005859375-1.4100341796875-.740234375-2.68994140625-.2001953125-3.8699951171875l.070068359375-.1600341796875c2.5-4.219970703125,7.550048828125-6.25,10.570068359375-10.1099853515625,1.679931640625-2.030029296875,4.68994140625-6.1500244140625,5.7998046875-5.8299560546875.880126953125.419921875.300048828125,2.8199462890625.25,3.8599853515625ZM360.0400390625,184.543033630452555l.070068359375-.1600341796875c1.219970703125-2.0899658203125,3.3701171875-3.60986328125,5.260009765625-5.199951171875,1.590087890625-1.2900390625,3.010009765625-2.580078125,5.0400390625-2.81005859375,2.159912109375-.35986328125,5.10986328125-1.10986328125,5.81005859375-.0699462890625.719970703125,2.2000732421875-3.090087890625,3.489990234375-4.510009765625,4.6300048828125-2.110107421875,1.330078125-3.150146484375,3.5999755859375-4.5400390625,5.219970703125-1.170166015625,1.489990234375-2.610107421875,2.72998046875-3.830078125,4.1900634765625-1.619873046875,2.0699462890625-3.869873046875,3.1300048828125-3.119873046875-.7301025390625.489990234375-1.719970703125-.85009765625-3.5198974609375-.18017578125-5.0699462890625ZM360.18017578125,200.573062927327555l.06982421875-.1600341796875c2.52001953125-4.22998046875,7.4501953125-6.25,10.440185546875-10.1300048828125,1.659912109375-2.0299072265625,4.639892578125-6.1800537109375,5.739990234375-5.8499755859375.419921875.1099853515625.530029296875.9100341796875.449951171875,1.9000244140625-.130126953125,1.3699951171875-.239990234375,2.8599853515625-.43994140625,4.239990234375-1.010009765625,5.989990234375-7.75,8.7099609375-11.670166015625,13.0299072265625-1.06982421875,1.06005859375-1.89990234375,2.580078125-2.829833984375,3.760009765625-.440185546875.510009765625-.8701171875.77001953125-1.239990234375.66015625-1.72998046875-1.010009765625-1.18017578125-5.7200927734375-.52001953125-7.4500732421875ZM360.18017578125,232.573062927327555l.06982421875-.1600341796875c2.52001953125-4.22998046875,7.4501953125-6.25,10.440185546875-10.1300048828125,1.659912109375-2.0299072265625,4.639892578125-6.1800537109375,5.739990234375-5.8499755859375.419921875.1099853515625.530029296875.9100341796875.449951171875,1.9000244140625-.130126953125,1.3699951171875-.239990234375,2.8599853515625-.43994140625,4.239990234375-1.010009765625,5.989990234375-7.75,8.7099609375-11.670166015625,13.0299072265625-1.06982421875,1.06005859375-1.89990234375,2.580078125-2.829833984375,3.760009765625-.440185546875.510009765625-.8701171875.77001953125-1.239990234375.66015625-1.72998046875-1.010009765625-1.18017578125-5.7200927734375-.52001953125-7.4500732421875ZM252.26025390625,315.862979919515055c-1.190185546875,1.16015625-1.780029296875,3.070068359375-2.81005859375,4.330078125-.41015625.4599609375-.830078125.6500244140625-1.169921875.449951171875l-.090087890625-.0499267578125c-1.610107421875-2.3199462890625-.650146484375-7.3299560546875,1.579833984375-9.5400390625,2.22998046875-1.6099853515625,3.56005859375-4.0399169921875,5.56005859375-5.8599853515625.800048828125-1.010009765625,9.820068359375-2.679931640625,8.43017578125.429931640625-1.960205078125,3.7200927734375-8.340087890625,6.550048828125-11.5,10.239990234375ZM265.97021484375,318.593082458577555c-1.300048828125,1.3099365234375-2.77001953125,1.5399169921875-4.7099609375,1.7999267578125-1.340087890625.0400390625-4.570068359375,1.510009765625-5.130126953125.090087890625l-.02001953125-.110107421875c-.030029296875-1.10986328125,1.280029296875-2.27001953125,2.280029296875-2.949951171875,1.7900390625-1.14990234375,3.580078125-2.419921875,5.030029296875-3.800048828125,3.449951171875-2.669921875,5.340087890625-6.85986328125,9.119873046875-9,1.630126953125-.699951171875,3.920166015625-.72998046875,5.72021484375-.68994140625,4.68994140625.239990234375-1.47021484375,4.81005859375-2.72021484375,6.1199951171875-3.489990234375,2.5799560546875-6.6298828125,5.4300537109375-9.56982421875,8.5400390625ZM272.330078125,320.493106872640055l-.06005859375-.1201171875c-.48974609375-1.52001953125,1.800048828125-2.77001953125,2.940185546875-3.5599365234375,4.889892578125-2.8900146484375,7.949951171875-7.4400634765625,11.889892578125-11.25,1.830078125-1.6900634765625,5.18017578125-1.5799560546875,7.340087890625-1.5499267578125,1.889892578125.159912109375,2.14990234375.919921875.889892578125,2.43994140625-1.3798828125,1.659912109375-3.18994140625,3.0999755859375-4.909912109375,4.2900390625-5.27001953125,3.409912109375-12.1201171875,14.1298828125-18.090087890625,9.75ZM297.97021484375,318.593082458577555c-1.300048828125,1.3099365234375-2.77001953125,1.5399169921875-4.7099609375,1.7999267578125-1.340087890625.0400390625-4.570068359375,1.510009765625-5.130126953125.090087890625l-.02001953125-.110107421875c-.030029296875-1.10986328125,1.280029296875-2.27001953125,2.280029296875-2.949951171875,1.7900390625-1.14990234375,3.580078125-2.419921875,5.030029296875-3.800048828125,3.449951171875-2.669921875,5.340087890625-6.85986328125,9.119873046875-9,1.630126953125-.699951171875,3.920166015625-.72998046875,5.72021484375-.68994140625,4.68994140625.239990234375-1.47021484375,4.81005859375-2.72021484375,6.1199951171875-3.489990234375,2.5799560546875-6.6298828125,5.4300537109375-9.56982421875,8.5400390625ZM308.050048828125,320.622989685140055c-1.14990234375.14013671875-3.389892578125,1.10009765625-3.889892578125-.099853515625l-.010009765625-.10009765625c.989990234375-3.469970703125,5.820068359375-5.199951171875,8.31005859375-7.659912109375,2.349853515625-2.300048828125,4.260009765625-5.89013671875,7.429931640625-7.550048828125,3.35009765625-2.1500244140625,7.10986328125-2.360107421875,4.669921875,2.72998046875-.56982421875,1.280029296875-1.2900390625,2.25-2.260009765625,3.18994140625-3.010009765625,2.6900634765625-6.050048828125,5.2100830078125-8.969970703125,7.9200439453125-1.469970703125,1.2100830078125-3.169921875,1.0899658203125-5.280029296875,1.5699462890625ZM320.190185546875,320.783023864827555l-.110107421875-.1199951171875c-.760009765625-.81005859375-.010009765625-1.3499755859375.81005859375-1.8699951171875,1.570068359375-.7899169921875,2.510009765625-2.0999755859375,3.679931640625-3.3299560546875,5.14013671875-4.27001953125,2.85009765625,12.8800048828125-4.3798828125,5.3199462890625ZM329.66015625,266.203067810140055l-.1201171875-.02001953125c-17.369873046875-.699951171875-1.72998046875,20.27001953125-9.10986328125,22.6500244140625-16.10009765625-.6800537109375-31.969970703125.0499267578125-48.10009765625-.5999755859375-10.080078125.909912109375-21.159912109375.260009765625-31.06005859375.22998046875-.73974609375.02001953125-2.14990234375.02001953125-2.27001953125-.590087890625-.169921875-.5499267578125.480224609375-1.5499267578125.8701171875-2.14990234375,8.570068359375-13.110107421875,17.360107421875-27.3900146484375,25.27001953125-40.4100341796875.949951171875-1.6400146484375,2.449951171875-1.489990234375,3.820068359375-.4000244140625,8.119873046875,5.7900390625,16.809814453125,13.719970703125,23.510009765625,10.070068359375,4.81982421875-2.570068359375,6.510009765625-10.1900634765625,8.83984375-15.1400146484375,2.4599609375-6.0400390625,7.47021484375-22.0799560546875,10.3701171875-25.4200439453125.9599609375-1.169921875,1.6298828125-.22998046875,1.830078125,1.260009765625.419921875,8.199951171875,24.539794921875,52.77001953125,16.14990234375,50.52001953125ZM319.47021484375,189.632999450765055l-.1201171875-.18994140625c-14-19.2099609375-20.3798828125,20.0999755859375-27.7099609375,30.199951171875-2.919921875,4.25-3.530029296875,14.510009765625-6.39013671875,16.6400146484375-1.449951171875,1.2000732421875-3.419921875-1.1600341796875-4.56982421875-2.18994140625-10.010009765625-8.5699462890625-19.760009765625-13.7401123046875-26.070068359375-1.56005859375-6.699951171875,10.8599853515625-13.800048828125,24.0799560546875-20.699951171875,34.1099853515625-.3798828125.47998046875-.929931640625,1.300048828125-1.3798828125,1.1500244140625-.47021484375-.2099609375-.460205078125-2.010009765625-.52001953125-3.449951171875-.06005859375-7.1400146484375.329833984375-15.3599853515625-.2001953125-22.6199951171875,1.43017578125-28.489990234375-.349853515625-57.6201171875.5-86.4400634765625.260009765625-3.3599853515625-1.510009765625-9.8199462890625.080078125-11.449951171875.9599609375-.8299560546875,3.10986328125-.8399658203125,7.6298828125-.5599365234375,8.47998046875.449951171875,16.740234375,1.369873046875,26.25,1.0699462890625,25.27001953125-1.52001953125,50.170166015625,1.1300048828125,75.280029296875-.9600830078125,5.510009765625-.8399658203125,2.480224609375,5.60009765625,2.77001953125,8.830078125.06005859375,2.550048828125.469970703125,4.8699951171875.449951171875,7.3299560546875-.89990234375,20.0599365234375.840087890625,40.8299560546875-.449951171875,60.75-.169921875,6.8599853515625.85009765625,13.6099853515625,0,20.4200439453125.3701171875,3.530029296875.420166015625,7.1300048828125.900146484375,10.75.06005859375.760009765625,0,1.31005859375-.22021484375,1.429931640625-10.10986328125-18.119873046875-15.10986328125-43.3798828125-25.52978515625-63.260009765625ZM379.39013671875,360.543033630452555c-11.2099609375.3900146484375-25.39990234375-.4000244140625-37.2900390625-.0299072265625l-.02001953125-.050048828125c-.0498046875-.199951171875.380126953125-.590087890625.969970703125-1.0400390625,1.6201171875-1.25,3.070068359375-2.419921875,4.420166015625-3.5799560546875,15.619873046875-12.7000732421875,10.77001953125-20.4801025390625,23.81005859375-6.010009765625,2.929931640625,3.0699462890625,5.599853515625,5.7698974609375,8.669921875,8.760009765625.580078125.5699462890625.97998046875,1.0799560546875.909912109375,1.4100341796875-.070068359375.449951171875-.97998046875.510009765625-1.469970703125.5399169921875ZM429.980224609375,376.872989685140055l-.10009765625.1600341796875c-4.97998046875,9.3499755859375-8.14990234375,1.2401123046875-12.590087890625-3.4000244140625-11.599853515625-10.3499755859375-21.309814453125-22.47998046875-33.199951171875-32.5899658203125-5.2099609375-4.989990234375-9.530029296875-10.9000244140625-15.119873046875-15.199951171875-1.780029296875-1.4300537109375-4.050048828125-3.5999755859375-6.31005859375-3.75-6.469970703125-.280029296875-11.550048828125,9.1600341796875-16.360107421875,13.2099609375-3.139892578125,1.5699462890625-2.579833984375-9.0399169921875-3-10.9100341796875-.31982421875-8.419921875-2.909912109375-16.43994140625-3.539794921875-24.8499755859375-.650146484375-4.6500244140625-1.43017578125-8.9100341796875-2.02001953125-13.5-.27001953125-1.7899169921875.119873046875-3.1900634765625,2.27001953125-2.8599853515625,7.639892578125.949951171875,15.83984375,2.3599853515625,23.6298828125,3.6500244140625,5.949951171875.7698974609375,11.93994140625.9100341796875,17.7900390625,2.1199951171875,2.06982421875.47998046875,4.419921875.5400390625,6.47998046875.739990234375,8.300048828125,1.080078125-14.840087890625,13.330078125-10.47998046875,20.580078125,13.780029296875,15.889892578125,29.2900390625,30.449951171875,44.469970703125,44.8798828125,3.9599609375,4.52001953125,7.719970703125,9.06005859375,12.47998046875,12.72998046875.679931640625.570068359375,1.5400390625,1.4100341796875,1.570068359375,2.1700439453125.10986328125,2.010009765625-4.7900390625,4.239990234375-5.969970703125,6.8199462890625ZM252.610107421875,152.813053161702555l-.219970703125-.010009765625c-9.52001953125-1.2000732421875-13.949951171875,10.9000244140625-10.1201171875,18.2200927734375,1.5,3.119873046875,4.840087890625,4.93994140625,8.26025390625,5.429931640625,16.08984375,2.239990234375,18.949951171875-24.3900146484375,2.079833984375-23.6400146484375ZM252.51025390625,168.923038513265055h-.2001953125c-4.6298828125-.159912109375-4.7900390625-8.550048828125-.119873046875-8.800048828125,5.820068359375-.22998046875,5.89990234375,8.590087890625.320068359375,8.800048828125ZM252.610107421875,152.813053161702555l-.219970703125-.010009765625c-9.52001953125-1.2000732421875-13.949951171875,10.9000244140625-10.1201171875,18.2200927734375,1.5,3.119873046875,4.840087890625,4.93994140625,8.26025390625,5.429931640625,16.08984375,2.239990234375,18.949951171875-24.3900146484375,2.079833984375-23.6400146484375ZM252.51025390625,168.923038513265055h-.2001953125c-4.6298828125-.159912109375-4.7900390625-8.550048828125-.119873046875-8.800048828125,5.820068359375-.22998046875,5.89990234375,8.590087890625.320068359375,8.800048828125ZM157.940185546875,44.553043396077555l-.159912109375-.02001953125c-9.68017578125,1.7100830078125-19.490234375,21.02001953125-27.39013671875,28.1300048828125-.85009765625.830078125-1.949951171875,1.8699951171875-3.02001953125,2.0400390625-4.85986328125.699951171875-9-15.5-12.800048828125-20.4000244140625-3.079833984375-4.75-6.2099609375-3.2899169921875-8.64990234375.6300048828125-1.18994140625,1.800048828125-1.780029296875,3.3499755859375-1.670166015625,5.3499755859375.830078125,8.7000732421875,8.35009765625,17.7401123046875,12.8701171875,26.030029296875.5400390625.97998046875,1.010009765625,2.2100830078125.68994140625,3.22998046875-6.419921875,11.25-40.510009765625,37.050048828125-20.239990234375,41.7100830078125,2.219970703125.489990234375,4.5-.340087890625,5.800048828125-2.2000732421875,6.719970703125-8.2999267578125,13.219970703125-16.4599609375,20.10009765625-24.5299072265625,5.829833984375-8.9300537109375,8.929931640625,34.64990234375,26.669921875,20.349853515625,4.239990234375-2.85986328125,1.85009765625-6.449951171875.179931640625-10.14990234375-3.800048828125-7.610107421875-10.159912109375-14.820068359375-13.89990234375-22.469970703125-4.52001953125-9.9300537109375,45.599853515625-34.780029296875,21.52001953125-47.7000732421875ZM157.940185546875,44.553043396077555l-.159912109375-.02001953125c-9.68017578125,1.7100830078125-19.490234375,21.02001953125-27.39013671875,28.1300048828125-.85009765625.830078125-1.949951171875,1.8699951171875-3.02001953125,2.0400390625-4.85986328125.699951171875-9-15.5-12.800048828125-20.4000244140625-3.079833984375-4.75-6.2099609375-3.2899169921875-8.64990234375.6300048828125-1.18994140625,1.800048828125-1.780029296875,3.3499755859375-1.670166015625,5.3499755859375.830078125,8.7000732421875,8.35009765625,17.7401123046875,12.8701171875,26.030029296875.5400390625.97998046875,1.010009765625,2.2100830078125.68994140625,3.22998046875-6.419921875,11.25-40.510009765625,37.050048828125-20.239990234375,41.7100830078125,2.219970703125.489990234375,4.5-.340087890625,5.800048828125-2.2000732421875,6.719970703125-8.2999267578125,13.219970703125-16.4599609375,20.10009765625-24.5299072265625,5.829833984375-8.9300537109375,8.929931640625,34.64990234375,26.669921875,20.349853515625,4.239990234375-2.85986328125,1.85009765625-6.449951171875.179931640625-10.14990234375-3.800048828125-7.610107421875-10.159912109375-14.820068359375-13.89990234375-22.469970703125-4.52001953125-9.9300537109375,45.599853515625-34.780029296875,21.52001953125-47.7000732421875ZM200.5,146.313053161702555c.070068359375-35.3900146484375-.159912109375-70.5699462890625-.06982421875-105.8599853515625.010009765625-5.2900390625.030029296875-10.590087890625.06005859375-15.8900146484375.18994140625-14.3900146484375,3.079833984375-26.4400634765625-16.47021484375-24.3199462890625-39.22998046875.77001953125-79.39990234375-.6201171875-118.559814453125.489990234375-9.5,1.0699462890625-11.16015625,8.669921875-8.91015625,16.699951171875.449951171875,5.590087890625-.869873046875,11.1300048828125-.530029296875,16.68994140625.050048828125,2.110107421875.090087890625,4.2200927734375.130126953125,6.330078125.659912109375,34.25.139892578125,69.14990234375.130126953125,103.6400146484375,1.81982421875,9.2598876953125-5.3701171875,31.719970703125,7.869873046875,32.6300048828125l.2099609375.010009765625c41.630126953125-.9000244140625,83.5400390625.219970703125,124.97998046875.1099853515625,16.159912109375-1.6700439453125,10.300048828125-17.81005859375,11.159912109375-30.530029296875ZM184.800048828125,21.872989685140055c-1.289794921875,21.6201171875.630126953125,43.56005859375-.769775390625,65.070068359375.56982421875,24.320068359375.659912109375,49.27001953125.3798828125,73.43994140625-.610107421875,1.1500244140625-2.050048828125.739990234375-5.080078125.320068359375-1.93994140625-.260009765625-4.39990234375-.47998046875-6.599853515625-.469970703125-27.25.469970703125-54.570068359375.169921875-81.969970703125.0599365234375-5.590087890625-.3399658203125-13.900146484375,2.4700927734375-17.670166015625-.1600341796875-1.030029296875-.7999267578125-1.329833984375-3.760009765625-1.239990234375-6.35986328125,1.699951171875-37.7401123046875-.429931640625-75.760009765625.860107421875-113.260009765625v-.1900634765625c.27001953125-32.7999267578125-8.2900390625-22.8199462890625,24.449951171875-23.9700927734375,28.58984375.650146484375,58.159912109375-.3099365234375,86.6298828125.25,1.190185546875.6201171875,1.2099609375,2.9801025390625,1.010009765625,5.27001953125ZM157.940185546875,44.553043396077555l-.159912109375-.02001953125c-9.68017578125,1.7100830078125-19.490234375,21.02001953125-27.39013671875,28.1300048828125-.85009765625.830078125-1.949951171875,1.8699951171875-3.02001953125,2.0400390625-4.85986328125.699951171875-9-15.5-12.800048828125-20.4000244140625-3.079833984375-4.75-6.2099609375-3.2899169921875-8.64990234375.6300048828125-1.18994140625,1.800048828125-1.780029296875,3.3499755859375-1.670166015625,5.3499755859375.830078125,8.7000732421875,8.35009765625,17.7401123046875,12.8701171875,26.030029296875.5400390625.97998046875,1.010009765625,2.2100830078125.68994140625,3.22998046875-6.419921875,11.25-40.510009765625,37.050048828125-20.239990234375,41.7100830078125,2.219970703125.489990234375,4.5-.340087890625,5.800048828125-2.2000732421875,6.719970703125-8.2999267578125,13.219970703125-16.4599609375,20.10009765625-24.5299072265625,5.829833984375-8.9300537109375,8.929931640625,34.64990234375,26.669921875,20.349853515625,4.239990234375-2.85986328125,1.85009765625-6.449951171875.179931640625-10.14990234375-3.800048828125-7.610107421875-10.159912109375-14.820068359375-13.89990234375-22.469970703125-4.52001953125-9.9300537109375,45.599853515625-34.780029296875,21.52001953125-47.7000732421875ZM157.940185546875,44.553043396077555l-.159912109375-.02001953125c-9.68017578125,1.7100830078125-19.490234375,21.02001953125-27.39013671875,28.1300048828125-.85009765625.830078125-1.949951171875,1.8699951171875-3.02001953125,2.0400390625-4.85986328125.699951171875-9-15.5-12.800048828125-20.4000244140625-3.079833984375-4.75-6.2099609375-3.2899169921875-8.64990234375.6300048828125-1.18994140625,1.800048828125-1.780029296875,3.3499755859375-1.670166015625,5.3499755859375.830078125,8.7000732421875,8.35009765625,17.7401123046875,12.8701171875,26.030029296875.5400390625.97998046875,1.010009765625,2.2100830078125.68994140625,3.22998046875-6.419921875,11.25-40.510009765625,37.050048828125-20.239990234375,41.7100830078125,2.219970703125.489990234375,4.5-.340087890625,5.800048828125-2.2000732421875,6.719970703125-8.2999267578125,13.219970703125-16.4599609375,20.10009765625-24.5299072265625,5.829833984375-8.9300537109375,8.929931640625,34.64990234375,26.669921875,20.349853515625,4.239990234375-2.85986328125,1.85009765625-6.449951171875.179931640625-10.14990234375-3.800048828125-7.610107421875-10.159912109375-14.820068359375-13.89990234375-22.469970703125-4.52001953125-9.9300537109375,45.599853515625-34.780029296875,21.52001953125-47.7000732421875ZM252.610107421875,152.813053161702555l-.219970703125-.010009765625c-9.52001953125-1.2000732421875-13.949951171875,10.9000244140625-10.1201171875,18.2200927734375,1.5,3.119873046875,4.840087890625,4.93994140625,8.26025390625,5.429931640625,16.08984375,2.239990234375,18.949951171875-24.3900146484375,2.079833984375-23.6400146484375ZM252.51025390625,168.923038513265055h-.2001953125c-4.6298828125-.159912109375-4.7900390625-8.550048828125-.119873046875-8.800048828125,5.820068359375-.22998046875,5.89990234375,8.590087890625.320068359375,8.800048828125ZM175.590087890625,260.632999450765055c-.780029296875-4.5499267578125-4.2099609375-10.699951171875-6.3798828125-16.25-.570068359375-1.489990234375-.91015625-2.969970703125-1.219970703125-4.530029296875-1.18017578125-7.239990234375-6.4501953125-14.93994140625-11.7001953125-15.33984375-3.509765625-.6900634765625-8.409912109375,5.0599365234375-7.7900390625,9.2099609375,1.2802734375,5.0799560546875,7.360107421875,15.139892578125,5.72021484375,17.219970703125-1.320068359375,1.030029296875-4.280029296875-.830078125-5.8701171875-1.280029296875-23.199951171875-9.0699462890625-42.02001953125-31.669921875-43.97998046875-56.5699462890625-.1201171875-1.6600341796875-.320068359375-3.4700927734375-1.25-4.8499755859375-1.639892578125-2.52001953125-5.139892578125-3.8701171875-8.25-3.5-12.18994140625,2.18994140625-3.7099609375,22.0499267578125-1.719970703125,29.68994140625,7.739990234375,24.969970703125,30.169921875,42.72998046875,54.0400390625,52.02001953125,1.840087890625.81005859375.849853515625,2.06005859375-.280029296875,2.8599853515625-5.840087890625,4.239990234375-14.18994140625,8.1900634765625-8.989990234375,15.239990234375l.119873046875.1600341796875c6.52001953125,9.6300048828125,20.47021484375-4.0400390625,28.5-9.60009765625,3.610107421875-2.1298828125,8.27001953125-4.469970703125,9.420166015625-8.869873046875.58984375-2.330078125.219970703125-3.60009765625-.3701171875-5.610107421875ZM295.460205078125,60.243106872640055c-5.360107421875-8.6201171875-14.52001953125-14.97998046875-22.89013671875-19.7900390625-7.199951171875-4.1300048828125-13.820068359375-7.1199951171875-16.9599609375-9.429931640625-2.02001953125-1.5-2.7099609375-2.800048828125-1.389892578125-4.070068359375,1.10986328125-1,4.58984375-2.4100341796875,6.08984375-3.8699951171875,8.1201171875-6.1400146484375,1.2099609375-18.8699951171875-9.14990234375-13.25-3.429931640625,2.0999755859375-5.60009765625,4.8399658203125-9.2099609375,6.8099365234375-8.320068359375,5.239990234375-19.760009765625,9.7099609375-17.130126953125,17.81005859375l.02001953125.0999755859375c.7099609375,1.9600830078125,1.409912109375,3.9300537109375,2.1201171875,5.9000244140625,3.010009765625,8.409912109375,6.039794921875,16.8599853515625,9.289794921875,25.159912109375.570068359375,1.3701171875,1.26025390625,2.760009765625,2.25,3.8701171875,4.090087890625,4.8099365234375,13.41015625,3.14990234375,13.60009765625-3.840087890625.27001953125-4.159912109375-1.22998046875-7.889892578125-2.780029296875-11.5699462890625-.77001953125-2.5400390625-5.169921875-9.2999267578125-.43994140625-8.5,8.070068359375,1.5999755859375,34.669921875,21.260009765625,42.25,36.0699462890625,1.47998046875,2.8900146484375,1.219970703125,5.7900390625,2.56005859375,8.7000732421875,3.079833984375,8.2598876953125-.050048828125,23.5098876953125,12.010009765625,21.739990234375,17.68994140625-7.77001953125-2.25-39.3800048828125-10.239990234375-51.8399658203125ZM157.940185546875,44.553043396077555l-.159912109375-.02001953125c-9.68017578125,1.7100830078125-19.490234375,21.02001953125-27.39013671875,28.1300048828125-.85009765625.830078125-1.949951171875,1.8699951171875-3.02001953125,2.0400390625-4.85986328125.699951171875-9-15.5-12.800048828125-20.4000244140625-3.079833984375-4.75-6.2099609375-3.2899169921875-8.64990234375.6300048828125-1.18994140625,1.800048828125-1.780029296875,3.3499755859375-1.670166015625,5.3499755859375.830078125,8.7000732421875,8.35009765625,17.7401123046875,12.8701171875,26.030029296875.5400390625.97998046875,1.010009765625,2.2100830078125.68994140625,3.22998046875-6.419921875,11.25-40.510009765625,37.050048828125-20.239990234375,41.7100830078125,2.219970703125.489990234375,4.5-.340087890625,5.800048828125-2.2000732421875,6.719970703125-8.2999267578125,13.219970703125-16.4599609375,20.10009765625-24.5299072265625,5.829833984375-8.9300537109375,8.929931640625,34.64990234375,26.669921875,20.349853515625,4.239990234375-2.85986328125,1.85009765625-6.449951171875.179931640625-10.14990234375-3.800048828125-7.610107421875-10.159912109375-14.820068359375-13.89990234375-22.469970703125-4.52001953125-9.9300537109375,45.599853515625-34.780029296875,21.52001953125-47.7000732421875Z"
      />
      <path
        class="cls-2"
        d="M448.39013671875,355.352970153890055c.260009765625-92.5599365234375-.330078125-184.5098876953125.25-277.079833984375-.030029296875-6.7301025390625-.3798828125-13.25-.449951171875-20.070068359375-.75-3.239990234375,3.139892578125-11.340087890625-2.820068359375-10.489990234375-46.239990234375.6199951171875-92.639892578125.81005859375-138.989990234375.199951171875-6.169921875.22998046875-9.830078125-3.469970703125-9.77001953125-7.4599609375h-24.0400390625c8.3701171875,4.81005859375,17.530029296875,11.169921875,22.89013671875,19.7900390625,7.989990234375,12.4599609375,27.929931640625,44.0699462890625,10.239990234375,51.8399658203125-12.06005859375,1.7698974609375-8.93017578125-13.4801025390625-12.010009765625-21.739990234375-1.340087890625-2.9100341796875-1.080078125-5.81005859375-2.56005859375-8.7000732421875-7.580078125-14.8099365234375-34.179931640625-34.469970703125-42.25-36.0699462890625-4.72998046875-.7999267578125-.330078125,5.9599609375.43994140625,8.5,1.550048828125,3.6800537109375,3.050048828125,7.4100341796875,2.780029296875,11.5699462890625-.18994140625,6.989990234375-9.510009765625,8.6500244140625-13.60009765625,3.840087890625-.98974609375-1.110107421875-1.679931640625-2.5-2.25-3.8701171875-3.25-8.2999267578125-6.27978515625-16.75-9.289794921875-25.159912109375h-26.530029296875c-.090087890625,35.2900390625.139892578125,70.469970703125.06982421875,105.8599853515625-.85986328125,12.719970703125,5,28.8599853515625-11.159912109375,30.530029296875-41.43994140625.1099853515625-83.349853515625-1.010009765625-124.97998046875-.1099853515625l-.2099609375-.010009765625c-13.239990234375-.9100341796875-6.050048828125-23.3701171875-7.869873046875-32.6300048828125.009765625-34.4901123046875.52978515625-69.3900146484375-.130126953125-103.6400146484375h-8.030029296875c-.08984375.820068359375-.31005859375,1.679931640625-.699951171875,2.570068359375-3.300048828125,8.2698974609375-15.699951171875,4.2598876953125-24.050048828125,5.10986328125-1.72998046875.110107421875-3.530029296875-.159912109375-5.219970703125.1500244140625-3.489990234375,1.25-1.7900390625,7.9600830078125-2.18994140625,11.1700439453125,1.219970703125,91.27001953125.159912109375,183.679931640625.10986328125,274.929931640625.0400390625,6.22998046875.210205078125,12.4600830078125.420166015625,18.739990234375.179931640625,2.2900390625-.93017578125,5.35009765625.27001953125,7.2200927734375,3.809814453125,2.6500244140625,10.409912109375-.1300048828125,14.889892578125.1400146484375,100.860107421875,0,202.530029296875,1.0400390625,303.969970703125-.2900390625.22998046875-.1400146484375.080078125-.3800048828125-.330078125-.75-4.389892578125-3.030029296875-4.409912109375-9.830078125-5.18994140625-15.530029296875-.5400390625-2.8599853515625.77001953125-8.179931640625-3.679931640625-7.6300048828125-27.68994140625.4901123046875-55.820068359375.8699951171875-83.280029296875.0999755859375-14.02001953125.60009765625-10.169921875-9.969970703125-10.8701171875-20.3499755859375-.60986328125-3.1300048828125.690185546875-7.43994140625.25-10.18994140625-1.119873046875-4.1199951171875-9.639892578125,1.8900146484375-14.60986328125-4.6199951171875-2.320068359375-7.1201171875-.989990234375-15.469970703125-1.68994140625-23.10009765625.510009765625-45.889892578125.02001953125-91.179931640625-.080078125-136.97998046875.06005859375-3.669921875.72998046875-8.619873046875,2.659912109375-10.260009765625,5.3701171875-5.27001953125,26.6201171875-1.25,35.300048828125-2.25,28.7900390625-1.25,57.719970703125.1500244140625,86.56005859375-.64990234375,4.909912109375-.1700439453125,10.469970703125-.9599609375,14.9599609375,1.39990234375,11.3701171875,5.030029296875-.60009765625,31.1700439453125,7.6201171875,31.4300537109375,4.409912109375-.4500732421875,9.2998046875-.8900146484375,13.8798828125-.3800048828125,6.64990234375-.219970703125,14.610107421875.3699951171875,15.5,7.489990234375-.179931640625,10.8800048828125-.239990234375,21.9599609375.1298828125,32.77001953125-.6298828125,8.56005859375-.35986328125,16.93994140625.06005859375,25.5400390625-.599853515625,14.469970703125-1.0498046875,29.39990234375-.419921875,43.699951171875.030029296875,2.5999755859375.31005859375,5.02001953125,3.1201171875,5.510009765625,6.669921875,1.489990234375,17.309814453125.330078125,19.469970703125,6.7900390625,1.739990234375,5.0400390625-2.840087890625,8.7900390625-5.760009765625,12.4599609375-17.260009765625,17.909912109375-16.110107421875,10.06005859375.7900390625,26.489990234375,9.35986328125,8.669921875,20.64990234375,21.3800048828125,30.639892578125,31.1400146484375,2.179931640625,2.0999755859375,4.669921875,4.9400634765625,6.909912109375,7.1600341796875.5400390625.469970703125.93994140625.6298828125,1.1201171875.3399658203125.2900390625-1.1400146484375-.0400390625-2.9700927734375-.2900390625-4.4700927734375ZM175.960205078125,266.243106872640055c-1.150146484375,4.39990234375-5.81005859375,6.739990234375-9.420166015625,8.869873046875-8.02978515625,5.56005859375-21.97998046875,19.2301025390625-28.5,9.60009765625l-.119873046875-.1600341796875c-5.199951171875-7.0499267578125,3.14990234375-11,8.989990234375-15.239990234375,1.1298828125-.7999267578125,2.1201171875-2.0499267578125.280029296875-2.8599853515625-23.8701171875-9.2900390625-46.300048828125-27.050048828125-54.0400390625-52.02001953125-1.989990234375-7.6400146484375-10.469970703125-27.5,1.719970703125-29.68994140625,3.110107421875-.3701171875,6.610107421875.97998046875,8.25,3.5.929931640625,1.3798828125,1.1298828125,3.18994140625,1.25,4.8499755859375,1.9599609375,24.9000244140625,20.780029296875,47.5,43.97998046875,56.5699462890625,1.590087890625.449951171875,4.550048828125,2.31005859375,5.8701171875,1.280029296875,1.639892578125-2.080078125-4.43994140625-12.1400146484375-5.72021484375-17.219970703125-.619873046875-4.1500244140625,4.2802734375-9.9000244140625,7.7900390625-9.2099609375,5.25.39990234375,10.52001953125,8.099853515625,11.7001953125,15.33984375.309814453125,1.56005859375.64990234375,3.0400390625,1.219970703125,4.530029296875,2.169921875,5.550048828125,5.599853515625,11.7000732421875,6.3798828125,16.25.590087890625,2.010009765625.9599609375,3.280029296875.3701171875,5.610107421875Z"
      />
    </g>
  </g>
</svg>
