<svg viewBox="0 0 465.488742408610051 339.829305349559945">
  <defs>
    <style>
      .cls-1 {
        fill: var(--black);
      }

      .cls-2 {
        fill: var(--yellow);
      }
    </style>
  </defs>
  <g>
    <g>
      <path
        class="cls-1"
        d="M73.797468634711549,119.975528224131267c4.280029296875-7.77001953125,6.3099365234375-24.2900390625,18.530029296875-19.830078125,10.4599609375,6.2900390625-1.9200439453125,18.8800048828125-4.6300048828125,26.7900390625-5.3800048828125,7.300048828125-6.169921875,23.449951171875-18.5400390625,19.550048828125-10.260009765625-6.89013671875.8900146484375-18.6800537109375,4.6400146484375-26.510009765625ZM120.067488165961549,141.635440333506267c9.1900634765625,14.7900390625,24.5999755859375-2.1300048828125,10.5999755859375-11.0799560546875-1.3800048828125-3.8199462890625-5.820068359375-4.4500732421875-7.1300048828125-7.1300048828125,4.1300048828125-6.18994140625,18.5999755859375-12.1600341796875,10.9801025390625-21.830078125-10.150146484375-7.179931640625-17.5400390625,7.280029296875-23.9801025390625,13.27001953125-15.0799560546875,9.489990234375,2.6300048828125,18.9200439453125,9.530029296875,26.77001953125ZM32.687483283149049,275.815494044443767c11.47998046875-3.7100830078125,43.56005859375,8.2598876953125,39.219970703125-12.56005859375-7.0799560546875-8.699951171875-20.5699462890625-1.6199951171875-30.0699462890625-3.93994140625-13.8800048828125-3.1800537109375-25.6300048828125,11.1700439453125-9.1500244140625,16.5ZM32.687483283149049,243.545474513193767c12.22998046875-.1800537109375,24.260009765625.1300048828125,36.56005859375-.2900390625,18.3299560546875-.3199462890625,36.719970703125,1.1400146484375,54.85986328125-.2698974609375,12.2100830078125,3.3099365234375,18.570068359375-13.840087890625,4.580078125-15.6201171875-28.919921875.4500732421875-57.97998046875.1600341796875-86.840087890625-.3299560546875-4.56982421875,1.7000732421875-9.0198974609375-1.47998046875-13.079833984375,1.5899658203125-7.4400634765625,2.820068359375-3.5400390625,15.77001953125,3.919921875,14.9200439453125ZM128.687483283149049,259.455508692881267c-4.9000244140625-1.10009765625-8.760009765625.75-13.7099609375.43994140625-7.1400146484375-.449951171875-15.6400146484375-2.0899658203125-22.110107421875.9100341796875-17.0599365234375,16.0599365234375,17.030029296875,15.6900634765625,26.6700439453125,14.47998046875,12.8399658203125,4.760009765625,26.1700439453125-11.3900146484375,9.1500244140625-15.8299560546875ZM128.687483283149049,291.835391505381267c-21.1099853515625-1.2899169921875-42.75-.5699462890625-63.97998046875.02001953125-11.090087890625,1.080078125-52.320068359375-7.389892578125-36.25,14.9000244140625,21.0999755859375,1.7900390625,42.429931640625.2200927734375,63.639892578125.4600830078125,12.2100830078125,1.10986328125,24.170166015625-.530029296875,36.590087890625.3299560546875,10.3800048828125.4000244140625,10.3800048828125-17.0599365234375,0-15.7100830078125ZM26.687483283149049,145.425479396006267c10.93994140625,7.929931640625,19.8800048828125-10.47998046875,27.5999755859375-16.4000244140625,8.5999755859375-11.0399169921875-10.8099365234375-18.9200439453125-16.2899169921875-26.9100341796875-9.75-9.22998046875-18.780029296875,7.7000732421875-7.4100341796875,14.300048828125,1.6900634765625,3.280029296875,6.0799560546875,4.1300048828125,7.0299072265625,7.010009765625-5,5.4599609375-18.2999267578125,12.300048828125-10.929931640625,22ZM343.807478400336549,251.225528224131267c-34.0999755859375,1.0499267578125-68.1500244140625-.760009765625-102.2000732421875.239990234375-16.5499267578125-.22998046875-32.449951171875.219970703125-48.919921875.169921875-10.81005859375-.1199951171875-10.699951171875,15.47998046875,0,15.8900146484375,44.510009765625.1500244140625,88.6300048828125-.3499755859375,133.300048828125-.1700439453125,9.0899658203125.7900390625,17.619873046875-.409912109375,26.699951171875-.0399169921875,13.3800048828125-2.1900634765625,10.5400390625-18.6900634765625-8.8800048828125-16.0899658203125ZM344.687483283149049,27.365420802256267c-8.219970703125.60009765625-22.81005859375-3.719970703125-24.409912109375,8.06005859375,1.329833984375,7.3800048828125-2.820068359375,18.1300048828125,4.419921875,22.909912109375,8.489990234375,1.66015625,26.179931640625,4.9200439453125,28.320068359375-6.909912109375-1.2301025390625-8.1700439453125,4.0499267578125-23.219970703125-8.330078125-24.06005859375ZM296.687483283149049,27.145450099131267c-9.1199951171875,1.10009765625-27.659912109375-3.409912109375-23.719970703125,12.280029296875.199951171875,6.64990234375-2.840087890625,14.2099609375,3.800048828125,18.800048828125,8.0299072265625,1.2899169921875,21.409912109375,4.2899169921875,27.139892578125-2.630126953125.52001953125-8.97998046875,5.72998046875-26.4599609375-7.219970703125-28.449951171875ZM136.647444220649049,189.715518458506267c.2099609375,8.39990234375,3.02001953125,20.139892578125-7.9599609375,22-33.159912109375-2.1700439453125-67.300048828125,2.2999267578125-99.800048828125-1.7000732421875-8.3099365234375-2.4000244140625-2.97998046875-21.9300537109375-3.889892578125-29.449951171875-6.31005859375-27.1199951171875,24.60986328125-13.8699951171875,39.7099609375-17.3800048828125,21.419921875.3800048828125,42.52001953125-.4100341796875,63.97998046875.699951171875,12.280029296875-.06005859375,7.3499755859375,17.77001953125,7.9599609375,25.830078125ZM56.287458869086549,179.525454981943767c-5.3499755859375-3.3800048828125-12.469970703125,3.7200927734375-16.0299072265625,7.72998046875-3.280029296875,19.31005859375,11.199951171875-5.1099853515625,16.0299072265625-7.72998046875ZM72.427473517524049,179.555484278818767c-.89990234375-1.7900390625-1.739990234375.239990234375-3.739990234375.239990234375-5-1.47998046875-7.419921875,2.8699951171875-10.340087890625,6.1099853515625-2.68994140625,3.530029296875-8.93994140625,6.010009765625-10.10986328125,9.6300048828125,8.64990234375,3.3800048828125,18.5-10.5999755859375,24.18994140625-15.97998046875ZM88.397444220649049,179.495547755381267c-.47998046875-1.9400634765625-1.7099609375.2999267578125-3.7099609375.2999267578125-6.22998046875-1.5499267578125-16.280029296875,11.8199462890625-20.449951171875,15.739990234375.489990234375,1.9400634765625,1.929931640625.1400146484375,4.35986328125-.47998046875,8.06005859375,1.5299072265625,14.330078125-11.5799560546875,19.800048828125-15.5599365234375ZM104.427473517524049,179.555484278818767c-.89990234375-1.7900390625-1.739990234375.239990234375-3.739990234375.239990234375-5-1.47998046875-7.419921875,2.8699951171875-10.340087890625,6.1099853515625-2.68994140625,3.530029296875-8.93994140625,6.010009765625-10.10986328125,9.6300048828125,8.64990234375,3.3800048828125,18.5-10.5999755859375,24.18994140625-15.97998046875ZM116.687483283149049,179.705508692881267c-6.52001953125-1.6900634765625-8.31005859375,6.8199462890625-13.77001953125,9.159912109375-6.64990234375,6.9599609375-10.6099853515625,7.860107421875,1.9599609375,6.97998046875,1.02001953125-3.5,24.830078125-21.369873046875,11.81005859375-16.139892578125ZM120.327497931586549,191.515445216318767c1.2698974609375-3.719970703125-.1500244140625-5.6700439453125-2.4801025390625-1.5899658203125-7.93994140625,6.8800048828125-5.60986328125,6.8900146484375,3.170166015625,5.8299560546875,1.409912109375-1.4200439453125-.1201171875-1.989990234375-.6900634765625-4.239990234375ZM403.667463751899049,339.165469630381267c-89.6099853515625,1.130126953125-180.320068359375-.47998046875-270.010009765625.56005859375C49.477522345649049,336.065616114756267-8.172502068413451,361.505557521006267.947493048774049,247.245547755381267c-.830078125-50.280029296875.22998046875-101.10009765625-.3699951171875-151.580078125C-3.272477654350951,4.745547755381267,16.657453986274049-1.944515721181233,102.247541876899049.345401271006267c103.47998046875,1.300048828125,207.169921875-1,310.43994140625.800048828125,52.18994140625.510009765625,54.9000244140625,49.820068359375,51.820068359375,90.090087890625,1.14990234375,31.369873046875-.6800537109375,62.4599609375.599853515625,93.68994140625-.8798828125,25.300048828125.380126953125,50.489990234375-.869873046875,75.77001953125,6.6298828125,40.300048828125-13.02001953125,85.139892578125-60.570068359375,78.469970703125ZM152.427473517524049,314.435489161631267c-.3599853515625-4.780029296875.780029296875-8.699951171875.449951171875-13.4599609375-.699951171875-16.510009765625.4100341796875-32.9100341796875-.409912109375-49.330078125.5400390625-52.22998046875.300048828125-104.489990234375-.030029296875-156.8599853515625,2.68994140625-7.2000732421875-4.5999755859375-3.7000732421875-8.830078125-4.1600341796875-6.2999267578125-.14990234375-11.969970703125.080078125-18.14990234375-.800048828125-19.570068359375,1.56005859375-39.260009765625-.2099609375-58.929931640625.900146484375-16.4600830078125-2.260009765625-34.420166015625.77001953125-50.150146484375-.739990234375-.119873046875,6.869873046875,1.02001953125,15.199951171875.6201171875,22.75-.969970703125,58.469970703125.68994140625,116.2899169921875-.81005859375,174.68994140625,2.97998046875,36.72998046875,34.8800048828125,37.27001953125,63.7900390625,36.260009765625,22.760009765625-.8900146484375,45.2099609375.469970703125,68.169921875-.570068359375,7.52001953125,3.35009765625,4.580078125-4.159912109375,4.280029296875-8.679931640625ZM449.187483283149049,287.425479396006267c-1.0999755859375-65.6500244140625-.6099853515625-132.31005859375-.2900390625-197.340087890625-63.719970703125,1-129.889892578125-.8099365234375-194.43994140625.64013671875-26.7900390625-1.2100830078125-54.2099609375.2899169921875-81.25-.75-4.72998046875-1.4700927734375-6,.5-4.239990234375,4.8199462890625-.56005859375,3.4100341796875-.5,5.5999755859375.1298828125,8.97998046875-.389892578125,7.6199951171875-.25,14.8499755859375-.8798828125,22.4400634765625,1.3399658203125,62.47998046875-.10009765625,125.5599365234375.77001953125,188.239990234375-2.81005859375,10.3199462890625.0599365234375,9.3399658203125,8.760009765625,9.219970703125,7.68994140625-1.22998046875,14.8798828125.5400390625,22.60986328125-.60009765625,24.1201171875,1.1900634765625,48.380126953125-.419921875,72.320068359375.7900390625,33.280029296875-1.9599609375,66.330078125.580078125,99.35009765625-.68994140625,31.5599365234375.199951171875,73.72998046875,7.3900146484375,77.159912109375-35.75ZM381.137434455024049,17.005435450693767c-31.3798828125-.9599609375-63.199951171875.5400390625-94.530029296875-.5999755859375-50.929931640625,1.0999755859375-102.1298828125-.6400146484375-152.949951171875.699951171875-18.18994140625-1.3798828125-35.7099609375.27001953125-53.97998046875-.489990234375-29.510009765625-1.030029296875-59.969970703125-1.27001953125-63.489990234375,36.0400390625,3.1199951171875,26.1099853515625-9.5400390625,21.1199951171875,18.5400390625,21.830078125,22.52001953125.10986328125,45.0799560546875-1.4400634765625,67.5400390625.22998046875,62.949951171875-1.530029296875,125.829833984375.5799560546875,188.97998046875-.719970703125,52.2899169921875,1.179931640625,105.760009765625-.5400390625,157.77001953125.64990234375,3.409912109375-53.39990234375-18.4801025390625-61.679931640625-67.880126953125-57.6400146484375ZM392.687483283149049,27.615420802256267c-8.080078125.530029296875-23.3800048828125-4.119873046875-24.18994140625,7.81005859375.2999267578125,7.719970703125-2.150146484375,17.3800048828125,3.97998046875,23.2900390625,8.699951171875-.030029296875,27.010009765625,5.4599609375,28.419921875-7.2900390625-1.179931640625-8.050048828125,4.050048828125-23.330078125-8.2099609375-23.81005859375ZM224.687483283149049,35.325381739756267c-44.77001953125-.5098876953125-88.81005859375,1.070068359375-133.300048828125-.2899169921875-8.89990234375,1.1700439453125-17.699951171875-.3399658203125-26.699951171875.1300048828125-10.530029296875-.27001953125-10.590087890625,16.199951171875,0,16.469970703125,4.7099609375-.1099853515625,8.6500244140625-1.010009765625,13.330078125-.179931640625,32.8798828125-.530029296875,65.0299072265625.239990234375,97.75-.06005859375,16.4599609375.090087890625,32.369873046875.52001953125,48.919921875.1199951171875,10.3699951171875.300048828125,10.3900146484375-17.0198974609375,0-16.1900634765625ZM192.687483283149049,155.765445216318767c44.199951171875-1.3199462890625,88.840087890625.4100341796875,133.300048828125-.3199462890625,9.10986328125-.760009765625,17.8099365234375,1.3798828125,26.699951171875-.469970703125,7.8699951171875,2.02001953125,10.719970703125-11.5,4.0999755859375-14.650146484375-5.4599609375-3.1298828125-11.5699462890625.2000732421875-17.4300537109375-1.2598876953125-31,.8299560546875-62.139892578125-.260009765625-93.2999267578125.6099853515625-16.4200439453125-.7099609375-32.72998046875-.72998046875-48.9200439453125.14990234375-11.949951171875-4.679931640625-17.8399658203125,15.2000732421875-4.449951171875,15.9400634765625ZM403.247541876899049,171.825381739756267c-43.39013671875-1.469970703125-86.4100341796875.3701171875-129.860107421875-.5198974609375-23.969970703125-.550048828125-47.909912109375.97998046875-71.719970703125-.3499755859375-4.5899658203125.0499267578125-8.7900390625.699951171875-13.2099609375,1.14990234375-5.6400146484375,4.469970703125-4.52001953125,15.989990234375,4.22998046875,15.1600341796875,69.9000244140625.02001953125,140.5400390625.8900146484375,210.530029296875-.2698974609375,28.14990234375,6.75,29.6099853515625-20.7900390625.030029296875-15.170166015625ZM192.687483283149049,123.885440333506267c21.409912109375-1.199951171875,42.580078125.18994140625,63.97998046875-.7099609375,10.85009765625,1.2099609375,21.239990234375-.43994140625,32.02001953125.719970703125,13.1400146484375-2.6400146484375,8.06005859375-19.409912109375-4.570068359375-16.3299560546875-21.35986328125-.550048828125-42.469970703125-.3900146484375-63.97998046875.0098876953125-9.27001953125-.3199462890625-18.199951171875-.099853515625-27.449951171875-.6298828125-10.1099853515625,1.25-10.260009765625,15.75,0,16.93994140625ZM261.267561408149049,283.415469630381267c-12.35009765625.409912109375-24.2900390625-.760009765625-36.56005859375.1400146484375-10.81005859375-.3199462890625-21.31005859375-.3099365234375-32.02001953125-.1500244140625-10.5400390625.3699951171875-10.969970703125,16.25,0,15.699951171875,19.919921875,1.989990234375,39.550048828125-.929931640625,59.409912109375.6201171875,10.18017578125-3.010009765625,58.2900390625,7.5299072265625,40.340087890625-14.800048828125-9.179931640625-3.22998046875-21.169921875-1.1500244140625-31.169921875-1.510009765625ZM420.707502814399049,220.465518458506267c-5.530029296875-1.9100341796875-11.6500244140625-.7100830078125-17.4599609375-.6500244140625-43.330078125-1.1099853515625-86.260009765625-.0999755859375-129.860107421875-.1500244140625-19.5599365234375-.949951171875-38.929931640625-.050048828125-58.27001953125-.3599853515625-7.64990234375-.0999755859375-14.75-.300048828125-22.429931640625-.1199951171875-10.6300048828125.6199951171875-10.419921875,15.550048828125,0,16.7099609375,69.0400390625-1.219970703125,137.739990234375.260009765625,206.050048828125-.7099609375,6.22998046875.8699951171875,11.8199462890625-.4599609375,17.949951171875.409912109375,7.8499755859375-.4599609375,11.3499755859375-11.10986328125,4.02001953125-15.1298828125Z"
      />
      <path
        class="cls-2"
        d="M448.897444220649049,90.085391505381267c-63.719970703125,1-129.889892578125-.8099365234375-194.43994140625.64013671875-26.7900390625-1.2100830078125-54.2099609375.2899169921875-81.25-.75-4.72998046875-1.4700927734375-6,.5-4.239990234375,4.8199462890625-.56005859375,3.4100341796875-.5,5.5999755859375.1298828125,8.97998046875-.389892578125,7.6199951171875-.25,14.8499755859375-.8798828125,22.4400634765625,1.3399658203125,62.47998046875-.10009765625,125.5599365234375.77001953125,188.239990234375-2.81005859375,10.3199462890625.0599365234375,9.3399658203125,8.760009765625,9.219970703125,7.68994140625-1.22998046875,14.8798828125.5400390625,22.60986328125-.60009765625,24.1201171875,1.1900634765625,48.380126953125-.419921875,72.320068359375.7900390625,33.280029296875-1.9599609375,66.330078125.580078125,99.35009765625-.68994140625,31.5599365234375.199951171875,73.72998046875,7.3900146484375,77.159912109375-35.75-1.0999755859375-65.6500244140625-.6099853515625-132.31005859375-.2900390625-197.340087890625ZM192.687483283149049,106.945498927256267c9.25.530029296875,18.179931640625.3099365234375,27.449951171875.6298828125,21.510009765625-.39990234375,42.6201171875-.5599365234375,63.97998046875-.0098876953125,12.630126953125-3.0799560546875,17.7100830078125,13.68994140625,4.570068359375,16.3299560546875-10.780029296875-1.159912109375-21.169921875.489990234375-32.02001953125-.719970703125-21.39990234375.89990234375-42.570068359375-.489990234375-63.97998046875.7099609375-10.260009765625-1.18994140625-10.1099853515625-15.68994140625,0-16.93994140625ZM197.137434455024049,139.825381739756267c16.1900634765625-.8798828125,32.5-.85986328125,48.9200439453125-.14990234375,31.1600341796875-.8699951171875,62.2999267578125.219970703125,93.2999267578125-.6099853515625,5.860107421875,1.4599609375,11.9700927734375-1.8699951171875,17.4300537109375,1.2598876953125,6.6199951171875,3.150146484375,3.77001953125,16.670166015625-4.0999755859375,14.650146484375-8.8900146484375,1.849853515625-17.590087890625-.2900390625-26.699951171875.469970703125-44.4599609375.72998046875-89.10009765625-1-133.300048828125.3199462890625-13.3900146484375-.739990234375-7.5-20.6199951171875,4.449951171875-15.9400634765625ZM252.097395392524049,299.725528224131267c-19.85986328125-1.550048828125-39.489990234375,1.369873046875-59.409912109375-.6201171875-10.969970703125.550048828125-10.5400390625-15.3299560546875,0-15.699951171875,10.7099609375-.159912109375,21.2099609375-.169921875,32.02001953125.1500244140625,12.27001953125-.9000244140625,24.2099609375.2698974609375,36.56005859375-.1400146484375,10,.3599853515625,21.989990234375-1.719970703125,31.169921875,1.510009765625,17.949951171875,22.3299560546875-30.159912109375,11.7900390625-40.340087890625,14.800048828125ZM352.687483283149049,267.315494044443767c-9.080078125-.3699951171875-17.6099853515625.8299560546875-26.699951171875.0399169921875-44.6700439453125-.179931640625-88.7900390625.320068359375-133.300048828125.1700439453125-10.699951171875-.4100341796875-10.81005859375-16.010009765625,0-15.8900146484375,16.469970703125.050048828125,32.3699951171875-.39990234375,48.919921875-.169921875,34.050048828125-1,68.10009765625.8099365234375,102.2000732421875-.239990234375,19.4200439453125-2.60009765625,22.260009765625,13.89990234375,8.8800048828125,16.0899658203125ZM416.687483283149049,235.595401271006267c-6.1300048828125-.869873046875-11.719970703125.4600830078125-17.949951171875-.409912109375-68.31005859375.969970703125-137.010009765625-.510009765625-206.050048828125.7099609375-10.419921875-1.159912109375-10.6300048828125-16.0899658203125,0-16.7099609375,7.679931640625-.1800537109375,14.780029296875.02001953125,22.429931640625.1199951171875,19.340087890625.3099365234375,38.7100830078125-.5899658203125,58.27001953125.3599853515625,43.60009765625.050048828125,86.530029296875-.9599609375,129.860107421875.1500244140625,5.8099365234375-.06005859375,11.929931640625-1.260009765625,17.4599609375.6500244140625,7.3299560546875,4.02001953125,3.8299560546875,14.669921875-4.02001953125,15.1298828125ZM403.217512580024049,186.995547755381267c-69.989990234375,1.159912109375-140.6300048828125.2899169921875-210.530029296875.2698974609375-8.75.8299560546875-9.8699951171875-10.6900634765625-4.22998046875-15.1600341796875,4.419921875-.449951171875,8.6199951171875-1.0999755859375,13.2099609375-1.14990234375,23.81005859375,1.3299560546875,47.75-.2000732421875,71.719970703125.3499755859375,43.4500732421875.8900146484375,86.469970703125-.9500732421875,129.860107421875.5198974609375,29.5799560546875-5.619873046875,28.119873046875,21.920166015625-.030029296875,15.170166015625Z"
      />
    </g>
  </g>
</svg>
