<svg viewBox="0 0 343.925605872585948 464.367467764492176">
  <defs>
    <style>
      .cls-1 {
        fill: var(--black);
      }

      .cls-2 {
        fill: var(--yellow);
      }
    </style>
  </defs>
  <g>
    <g>
      <path
        class="cls-1"
        d="M203.682106244973511,294.857457998867176c-2.21002197265625-1.169921875-4.67999267578125-1.719970703125-7.16998291015625-1.8099365234375,3.969970703125-6.6700439453125,12.25-7.6700439453125,17.16998291015625-13.0299072265625,12.1400146484375-17.130126953125-6.17999267578125-38.550048828125-25.19000244140625-30.400146484375-35.030029296875,13.4300537109375-94.72003173828125,87.1700439453125-26.239990234375,95.9801025390625-10.1199951171875,11.5299072265625-30.95001220703125,17.9200439453125-31.6600341796875,34.9801025390625,1.02001953125,12.97998046875,17.05999755859375,31.2099609375,31.010009765625,26.4599609375,34.6500244140625-17.72021484375,93.05999755859375-80.93017578125,42.08001708984375-112.18017578125ZM207.632118452004761,333.527624014492176c-8.27001953125,23.059814453125-27.61004638671875,41-46.4000244140625,55.919921875-5.92999267578125,7.349853515625-12.66998291015625-4.969970703125-15.1199951171875-9.849853515625,9.65997314453125-4.820068359375,74.97998046875-65.8101806640625,43.6500244140625-59.210205078125-13.70001220703125,4.4500732421875-33.510009765625,17.8701171875-43.010009765625,0-9.1300048828125-11.47998046875,57.51995849609375-77.14990234375,53.26995849609375-50.39990234375-19.739990234375,10.5999755859375-30.1099853515625,32.2099609375-43.12994384765625,49.6099853515625,20.16998291015625-8.6700439453125,55.05999755859375-22.7000732421875,50.739990234375,13.9300537109375ZM72.052101362161011,135.857457998867176c10.70001220703125-1.6298828125,15.219970703125,4.860107421875,23.58001708984375,9.9300537109375,20.97998046875,10.280029296875,34.239990234375,31.81005859375,58.16998291015625,37.9901123046875,63.6500244140625,18.489990234375,123.510009765625-49.4400634765625,97.469970703125-109.75C210.482094037942261-18.872522469882824,70.292091596536011,30.577550772304676,98.032081830911011,128.267614248867176c-10.969970703125-5.9300537109375-11-16.4801025390625-9.8699951171875-27.64013671875,1.2900390625-9.719970703125-6.969970703125-9.9599609375-4.1099853515625-16.47998046875,24.65997314453125-91.0699462890625,158.5999755859375-90.889892578125,181.969970703125.81005859375,3.37005615234375,4.75-1.25,6.530029296875-2.42999267578125,11,2.17999267578125,7.659912109375-.8599853515625,15.010009765625.84002685546875,22.8499755859375.58001708984375,5.75-2.71002197265625,12.6199951171875,3.510009765625,16.27001953125,5.9599609375,1.8599853515625,15.03997802734375,2.5299072265625,19.19000244140625-3.030029296875,2.70001220703125-11.5399169921875-.4100341796875-24.0799560546875.92999267578125-36.0899658203125-7.25-14.1600341796875-10.58001708984375-29.9599609375-19.27001953125-43.6400146484375C228.092079389504761-25.252405282382824,101.052101362161011-13.812463876132824,72.852089155129761,68.427526358242176c-5.32000732421875,13.760009765625-9.66998291015625,26.699951171875-8.6300048828125,41.239990234375,1.17999267578125,8.18994140625-4.41998291015625,25.699951171875,7.83001708984375,26.18994140625ZM118.392128217629761,75.177526358242176c9.51995849609375-22.030029296875,34.19000244140625-34.760009765625,57.51995849609375-35.320068359375,22.47003173828125.550048828125,44.25,11.7000732421875,55.67999267578125,31.420166015625,4.8800048828125,8.0198974609375,13.58001708984375,21.389892578125,1.09002685546875,25.659912109375-6.22998046875,5.070068359375-11.55999755859375-14.5999755859375-21.54998779296875-14.510009765625-23.17999267578125-9.3599853515625-29.05999755859375,16.429931640625-38.07000732421875,13.6199951171875-7.46002197265625-15.949951171875-28.6500244140625-19.0899658203125-42.21002197265625-8.8800048828125-4.70001220703125,2.52001953125-6.79998779296875,14.4100341796875-11.8900146484375,9.4599609375-10.76995849609375-4.239990234375-4.75-14.14990234375-.5699462890625-21.449951171875ZM214.002113569192261,112.987584951992176c-5.1500244140625,11.72998046875-24.84002685546875,7.0499267578125-22.67999267578125-5.9300537109375,3.47998046875-16.7899169921875,27.5-10.4100341796875,22.67999267578125,5.9300537109375ZM160.152076948098511,108.387487295742176c-.2099609375,14.6800537109375-23.89996337890625,15.1600341796875-22.90997314453125,0-1.80999755859375-14.93994140625,23.42999267578125-15.0899658203125,22.90997314453125,0ZM127.222084272317261,126.367467764492176c14.95001220703125,17.35009765625,44.780029296875,9.2100830078125,48.47003173828125-13.5799560546875,2.69000244140625,18.1500244140625,25.01995849609375,28.7301025390625,40.739990234375,19.75,8.65997314453125-5.2598876953125,11.3499755859375-14.989990234375,20.33001708984375-19.5599365234375,10.5899658203125-7.60009765625-2.300048828125,21.3699951171875-4.92999267578125,26.75-18.280029296875,30.02001953125-62.36004638671875,40.8798828125-91.27001953125,20.1199951171875,5.3599853515625-1.2301025390625,6.33001708984375,4.1300048828125,11.489990234375,4.5198974609375,15.8699951171875,1.4500732421875,18.40997314453125-6.139892578125,14.84002685546875-20.219970703125-2.35003662109375-6.0699462890625-9.75-3.27001953125-14.84002685546875-3.969970703125-4.1500244140625-1.1400146484375-5.219970703125,3.989990234375-8,3.780029296875-22.20001220703125,3.5899658203125-32.6199951171875-13.9100341796875-33.20001220703125-33.969970703125,6.6099853515625,4.280029296875,13.32000732421875,8.669921875,16.3699951171875,16.3798828125ZM341.982094037942261,412.407506826992176c-2.8800048828125-6.610107421875-17.05999755859375,3.02001953125-12.03997802734375-7.550048828125-1.30999755859375-4.64990234375-1.1099853515625-8.739990234375-.09002685546875-13.449951171875-1.2099609375-9.14990234375-.25-17.760009765625-.14996337890625-26.919921875-.22003173828125-34.610107421875-.61004638671875-69.10009765625-.10003662109375-103.25,3.30999755859375-35.6600341796875-23.3800048828125-39.5-52.15997314453125-36.7000732421875-15.02001953125-3.7999267578125-26.989990234375-19.93994140625-43.98004150390625-21.8599853515625-53.05999755859375-19.8399658203125-113.5699462890625-7.4599609375-158.52996826171875,21.570068359375-17.3699951171875,2.8299560546875-40.8800048828125-7.070068359375-53.59002685546875,8.510009765625-14.8299560546875,12.27001953125-5.8699951171875,42.0499267578125-8.8699951171875,59.85986328125.86004638671875,29.7900390625.23004150390625,59.7900390625.27001953125,89.77001953125.1300048828125,7.670166015625-.3599853515625,14.840087890625.53997802734375,22.460205078125,2.739990234375,13.02978515625-18.64996337890625-7.18017578125-11.989990234375,22.429931640625,9.59002685546875,44.9599609375-3.03997802734375,35.199951171875,44.6199951171875,37.019775390625,16.489990234375-.52978515625,33.23004150390625.3701171875,49.530029296875-.829833984375,7.55999755859375,1.909912109375,14.8699951171875.010009765625,22.51995849609375.06005859375,6.11004638671875,1.050048828125,11.86004638671875,1.010009765625,18.010009765625.219970703125,46.79998779296875.56982421875,93.11004638671875.280029296875,139.6300048828125.080078125,13.6600341796875.73974609375,27.19000244140625-.5302734375,40.57000732421875.539794921875,15.1400146484375-.719970703125,20.6199951171875,3.3701171875,23.09002685546875-15.6298828125-.9100341796875-11.6201171875,8.6300048828125-26.199951171875,2.719970703125-36.330078125ZM175.912086713723511,209.027624014492176c23.6400146484375.39990234375,47.010009765625,4.699951171875,68.44000244140625,15.2899169921875-45.8699951171875-.1900634765625-90.8499755859375.1500244140625-136.8499755859375-.1900634765625,21.33001708984375-10.68994140625,44.8399658203125-14.0899658203125,68.40997314453125-15.099853515625ZM299.932106244973511,409.627477530117176c-10.70001220703125-.77001953125-20.92999267578125.050048828125-31.6199951171875-.669921875-34.72003173828125.72998046875-69.30999755859375.7099609375-103.8699951171875.010009765625-31.6600341796875,1.14990234375-63.1300048828125.050048828125-94.9000244140625.340087890625-13.64996337890625-.610107421875-28.07000732421875.33984375-40.8399658203125.169921875-1.85003662109375-2.449951171875.40997314453125-5.97998046875-.1400146484375-9.10009765625-.3599853515625-3.43994140625-.02001953125-5.659912109375.69000244140625-8.969970703125-1.77001953125-23.780029296875,1.260009765625-47.760009765625-.6199951171875-71.800048828125-.19000244140625-22.5098876953125,1.0899658203125-44.8099365234375-.1600341796875-67.35986328125.6700439453125-13.260009765625,15.6199951171875-13.4400634765625,25.58001708984375-11.64013671875,13.53997802734375-1.7099609375,26.94000244140625.8701171875,40.469970703125-.43994140625,33.4200439453125.449951171875,66.27001953125-.659912109375,99.4100341796875.3800048828125,22.719970703125-.5499267578125,45.1300048828125.0899658203125,67.8399658203125-.5999755859375,7.70001220703125.31005859375,14.94000244140625.070068359375,22.6300048828125.659912109375,8.530029296875-.33984375,18.2900390625-1.919921875,25.7900390625,2.9300537109375,5.39996337890625,7.4801025390625,3.02996826171875,17.9600830078125,2.92999267578125,26.6500244140625.3499755859375,10.590087890625.40997314453125,20.8599853515625.3699951171875,31.4000244140625.05999755859375,32.949951171875-.33001708984375,66.0198974609375.260009765625,98.7601318359375,1.70001220703125,14.669921875-3.1400146484375,8.019775390625-13.82000732421875,9.27978515625Z"
      />
      <path
        class="cls-2"
        d="M160.152076948098511,108.387487295742176c-.2099609375,14.6800537109375-23.89996337890625,15.1600341796875-22.90997314453125,0-1.80999755859375-14.93994140625,23.42999267578125-15.0899658203125,22.90997314453125,0ZM191.322120893411011,107.057531241054676c-2.1600341796875,12.97998046875,17.52996826171875,17.6600341796875,22.67999267578125,5.9300537109375,4.82000732421875-16.340087890625-19.20001220703125-22.719970703125-22.67999267578125-5.9300537109375ZM299.932106244973511,409.627477530117176c-10.70001220703125-.77001953125-20.92999267578125.050048828125-31.6199951171875-.669921875-34.72003173828125.72998046875-69.30999755859375.7099609375-103.8699951171875.010009765625-31.6600341796875,1.14990234375-63.1300048828125.050048828125-94.9000244140625.340087890625-13.64996337890625-.610107421875-28.07000732421875.33984375-40.8399658203125.169921875-1.85003662109375-2.449951171875.40997314453125-5.97998046875-.1400146484375-9.10009765625-.3599853515625-3.43994140625-.02001953125-5.659912109375.69000244140625-8.969970703125-1.77001953125-23.780029296875,1.260009765625-47.760009765625-.6199951171875-71.800048828125-.19000244140625-22.5098876953125,1.0899658203125-44.8099365234375-.1600341796875-67.35986328125.6700439453125-13.260009765625,15.6199951171875-13.4400634765625,25.58001708984375-11.64013671875,13.53997802734375-1.7099609375,26.94000244140625.8701171875,40.469970703125-.43994140625,33.4200439453125.449951171875,66.27001953125-.659912109375,99.4100341796875.3800048828125,22.719970703125-.5499267578125,45.1300048828125.0899658203125,67.8399658203125-.5999755859375,7.70001220703125.31005859375,14.94000244140625.070068359375,22.6300048828125.659912109375,8.530029296875-.33984375,18.2900390625-1.919921875,25.7900390625,2.9300537109375,5.39996337890625,7.4801025390625,3.02996826171875,17.9600830078125,2.92999267578125,26.6500244140625.3499755859375,10.590087890625.40997314453125,20.8599853515625.3699951171875,31.4000244140625.05999755859375,32.949951171875-.33001708984375,66.0198974609375.260009765625,98.7601318359375,1.70001220703125,14.669921875-3.1400146484375,8.019775390625-13.82000732421875,9.27978515625ZM203.682106244973511,294.857457998867176c-2.21002197265625-1.169921875-4.67999267578125-1.719970703125-7.16998291015625-1.8099365234375,3.969970703125-6.6700439453125,12.25-7.6700439453125,17.16998291015625-13.0299072265625,12.1400146484375-17.130126953125-6.17999267578125-38.550048828125-25.19000244140625-30.400146484375-35.030029296875,13.4300537109375-94.72003173828125,87.1700439453125-26.239990234375,95.9801025390625-10.1199951171875,11.5299072265625-30.95001220703125,17.9200439453125-31.6600341796875,34.9801025390625,1.02001953125,12.97998046875,17.05999755859375,31.2099609375,31.010009765625,26.4599609375,34.6500244140625-17.72021484375,93.05999755859375-80.93017578125,42.08001708984375-112.18017578125Z"
      />
    </g>
  </g>
</svg>
