<svg
  id="Layer_1"
  xmlns="http://www.w3.org/2000/svg"
  version="1.1"
  viewBox="0 0 800 800"
>
  <path
    d="M533.3,350c0,27.6-14.9,50-33.3,50s-33.3-22.4-33.3-50,14.9-50,33.3-50,33.3,22.4,33.3,50Z"
  />
  <ellipse class="st0" cx="300" cy="350" rx="33.3" ry="50" />
  <path
    d="M300,758.4c-11.8,0-23.5-1.8-34.9-5.3s-22.4-8.8-32.7-15.9c-10.6-7.2-22.6-11.3-34.9-12.1s-24.7,1.7-36.1,7.5c-12.7,6.5-26.5,9.5-40.1,9s-27.2-4.5-39.4-11.9c-12.6-7.7-22.7-18.3-29.6-30.7s-10.7-26.7-10.7-41.7v-247.4c0-24.8,2.4-49.3,7-73.2s11.7-47.3,21-70c9-21.9,19.9-42.7,32.7-62.3s27.5-37.9,43.9-54.8c16.4-16.9,34.2-32.1,53.3-45.3s39.3-24.5,60.6-33.8c22.1-9.6,45-16.9,68.3-21.8s47.2-7.3,71.4-7.3,48.1,2.4,71.4,7.3,46.2,12.1,68.3,21.8c21.3,9.3,41.6,20.6,60.6,33.8s36.8,28.3,53.3,45.3c16.4,16.9,31.1,35.2,43.9,54.8s23.7,40.4,32.7,62.3c9.3,22.7,16.3,46.1,21,70s7.1,48.4,7.1,73.2-2.8,13.2-7.3,17.7-10.8,7.3-17.7,7.3-13.2-2.8-17.7-7.3-7.3-10.8-7.3-17.7c0-87.8-34.6-167.4-90.4-225s-132.9-93.3-217.9-93.3-162.1,35.7-217.9,93.3-90.4,137.2-90.4,225v247.4c0,6.2,1.5,12.1,4.3,17.2s6.9,9.4,12,12.5c4.8,2.9,9.9,4.5,15.2,4.7s10.5-1,15.4-3.5c19.5-10.1,41-14.3,62.1-13s41.9,8.3,60.1,20.8c11.9,8.2,25.6,12.3,39.3,12.3s27.4-4.1,39.3-12.3l5.9-4,5.9-4c14.9-10.2,31.9-15.3,48.9-15.3s34.1,5.1,48.9,15.3l5.9,4,5.9,4c11.9,8.2,25.6,12.3,39.3,12.3s27.4-4.1,39.3-12.3c18.1-12.5,38.9-19.4,60-20.8s42.6,2.9,62.1,13c5,2.6,10.2,3.7,15.4,3.5s10.4-1.7,15.2-4.7c5.1-3.1,9.2-7.4,12-12.5s4.3-11,4.3-17.2v-123.7c0-6.9,2.8-13.2,7.3-17.7s10.8-7.3,17.7-7.3,13.2,2.8,17.7,7.3,7.3,10.8,7.3,17.7v123.7c0,15-3.8,29.2-10.7,41.7s-17,23-29.6,30.7c-12.2,7.4-25.7,11.4-39.4,11.9s-27.4-2.5-40.1-9c-11.3-5.8-23.8-8.3-36.1-7.5s-24.3,4.9-34.9,12.1c-20.5,14.1-44.1,21.2-67.6,21.2s-47.1-7-67.6-21.1l-5.9-4-5.9-4c-6.3-4.3-13.4-6.5-20.6-6.5s-14.4,2.2-20.6,6.5l-5.9,4-5.9,4c-10.3,7.1-21.3,12.3-32.7,15.9s-23.2,5.3-34.9,5.3Z"
  />
</svg>
