<svg
  id="Layer_1"
  xmlns="http://www.w3.org/2000/svg"
  version="1.1"
  viewBox="0 0 800 800"
>
  <!-- Generator: Adobe Illustrator 29.6.0, SVG Export Plug-In . SVG Version: 2.1.1 Build 207)  -->

  <path
    d="M400,458.3c-6.9,0-13.2-2.8-17.7-7.3s-7.3-10.8-7.3-17.7v-41.7c0-8.5,1.9-19,8.4-30.1s17.5-22.7,35.7-33.4c5.8-3.4,10.4-8.1,13.6-13.7s4.9-11.9,4.9-18.6c0-10.3-4.2-19.7-11-26.5s-16.2-11-26.5-11-19.7,4.2-26.5,11-11,16.2-11,26.5-2.8,13.2-7.3,17.7-10.8,7.3-17.7,7.3-13.2-2.8-17.7-7.3-7.3-10.8-7.3-17.7c0-24.1,9.8-46,25.7-61.8s37.7-25.7,61.8-25.7c44.4.4,74.5,29.7,84,64.5,9.5,34.9-1.6,75.4-39.5,98.3-5.9,3.5-10.8,7.3-14.2,10.8s-5.3,6.9-5.3,9.7v41.7c0,6.9-2.8,13.2-7.3,17.7s-10.8,7.3-17.7,7.3Z"
  />
  <circle cx="400" cy="533.3" r="33.3" />
  <path
    d="M400,758.3c-97.5,1-187.6-39.8-253.1-105.2-65.5-65.5-106.3-155.6-105.2-253.1,0-31.5,4.1-62.7,12.2-92.9s20.1-59.2,35.7-86.3c3.5-6,9-10,15.2-11.6s13-.9,19,2.5c6,3.5,10,9,11.6,15.2s.9,13-2.5,19c-59.5,101-51.4,217.1.9,307.7,52.3,90.6,148.8,155.8,266.2,154.8,85,0,162.1-34.6,217.9-90.4,55.8-55.8,90.4-132.9,90.4-217.9,1-117.4-64.1-213.9-154.8-266.2-90.6-52.3-206.8-60.4-307.7-.9-6,3.5-12.8,4.2-19,2.5s-11.7-5.7-15.2-11.6c-3.5-6-4.2-12.8-2.5-19s5.7-11.7,11.6-15.2c27.1-15.7,56.2-27.7,86.3-35.7s61.4-12.2,92.9-12.2c97.5-1,187.6,39.8,253.1,105.2,65.5,65.5,106.3,155.6,105.2,253.1,1,97.5-39.8,187.6-105.2,253.1-65.5,65.5-155.6,106.3-253.1,105.2Z"
  />
</svg>
