<svg
  id="Layer_1"
  xmlns="http://www.w3.org/2000/svg"
  version="1.1"
  viewBox="0 0 650 716.7"
>
  <path
    d="M325,383.3c-13.8,0-25-11.2-25-25v-133.3c0-13.8,11.2-25,25-25s25,11.2,25,25v133.3c0,13.8-11.2,25-25,25Z"
  />
  <circle cx="325" cy="458.3" r="33.3" />
  <path
    d="M325,716.7c-39.2,0-54.6-6.7-80-17.8-53.5-23.4-99.7-53.4-137.3-89.2-53.1-50.6-87-111.1-100.7-179.7-2.7-13.5,6.1-26.7,19.6-29.4,13.5-2.7,26.7,6.1,29.4,19.6,25.6,128.2,127.8,197.4,209,232.9,22.8,9.9,31.3,13.7,60,13.7s37.3-3.7,60-13.7c21.1-9.2,41.4-19.8,60.1-31.5,11.7-7.3,27.1-3.7,34.4,8,7.3,11.7,3.7,27.1-8,34.4-20.8,12.9-43.1,24.6-66.5,34.8-25.5,11.1-40.9,17.8-80.1,17.8ZM558.3,580.1c-5.4,0-10.9-1.8-15.5-5.4-10.8-8.5-12.7-24.3-4.2-35.1,40.7-51.6,61.3-112.7,61.3-181.6v-52.5c0-53.3,0-91.8-1.5-119.9-1.8-33.9-5.5-41.9-6.6-43.5-1.2-1.5-7.4-7.6-38.6-20.2-25.9-10.5-63.9-23.5-112-39.9l-19.1-6.5c-49.6-17-74.4-25.5-97.3-25.5s-47.8,8.5-97.3,25.5l-19.1,6.5c-48.1,16.5-86,29.4-112,39.9-31.1,12.6-37.4,18.6-38.6,20.2-1.1,1.6-4.7,9.6-6.5,43.5-1.5,28.2-1.5,66.7-1.5,119.9s-11.2,25-25,25S0,319.4,0,305.6c0-122.1,0-167.8,17.1-192.2,17.3-24.6,60.3-39.3,175.3-78.7l19.1-6.5C266.3,9.4,293.8,0,325,0s58.7,9.4,113.5,28.2l19.1,6.5c115,39.4,158,54.1,175.3,78.7,17.1,24.4,17.1,70.1,17.1,192.2v52.5c0,80.4-24.2,151.9-72,212.6-4.9,6.3-12.3,9.5-19.7,9.5Z"
  />
</svg>
