<svg viewBox="0 0 464.734976361427471 376.112735323353263">
  <defs>
    <style>
      .cls-1 {
        fill: var(--black);
      }

      .cls-2 {
        fill: var(--yellow);
      }
    </style>
  </defs>
  <g>
    <g>
      <path
        class="cls-1"
        d="M464.141100147435282,118.9100341796875l-.0399169921875-.17999267578125c-2.1300048828125-7.1400146484375-10.9100341796875-8.9200439453125-16.6700439453125-12.4100341796875-8.679931640625-4.41998291015625-17.5-8.53997802734375-25.89990234375-13.45001220703125-15.47998046875-6.72998046875-30.0400390625-15.3399658203125-45.300048828125-22.52996826171875-11.840087890625-5.5-23.47998046875-11.3699951171875-34.949951171875-17.5999755859375-7.1201171875-3.07000732421875-13.9600830078125-6.6400146484375-20.6900634765625-10.48004150390625-23.1900634765625-10.8299560546875-45.6900634765625-23.04998779296875-68.75-34.1099853515625-6.4000244140625-2.72998046875-12.3900146484375-8.05999755859375-19.5699462890625-8.1500244140625-4.4200439453125.1700439453125-8.4300537109375,2.9300537109375-12.3701171875,4.7900390625-5.739990234375,2.8800048828125-11.5399169921875,5.6300048828125-17.25,8.5899658203125-6.510009765625,2.6600341796875-12.699951171875,5.92999267578125-18.72998046875,9.510009765625-16.60986328125,7.35003662109375-32.43994140625,16.32000732421875-48.6298828125,24.54998779296875-26.1700439453125,12.96002197265625-52.4600830078125,25.6600341796875-78.39013671875,39.11004638671875-10.9599609375,5.80999755859375-22.22998046875,11-33.2799072265625,16.6300048828125-4.8900146484375,2.26995849609375-9.7401123046875,4.63995361328125-14.5400390625,7.0799560546875-5.010009765625,2.2900390625-8.7799072265625,6.04998779296875-8.6400146484375,11.83001708984375-.97998046875,13.83001708984375.02001953125,27.72998046875-.260009765625,41.58001708984375.10009765625,26.13995361328125.050048828125,52.3299560546875.5,78.44000244140625-.0599365234375,5.8699951171875-1.7099609375,12.38995361328125,1.110107421875,17.79998779296875,1.72998046875,3.3399658203125,5.3798828125,4.91998291015625,8.639892578125,6.53997802734375,4.56005859375,2.29998779296875,9.4300537109375,4.4000244140625,14.10009765625,6.6500244140625,24.8798828125,13.51995849609375,50.75,25.15997314453125,75.599853515625,38.719970703125,17.10009765625,7.36004638671875,33.300048828125,16.5400390625,50.030029296875,24.6500244140625,13.5400390625,6.21002197265625,26.47998046875,13.65997314453125,40.090087890625,19.719970703125,10.3299560546875,5.780029296875,21.0400390625,10.8900146484375,31.64990234375,16.10003662109375,9.06005859375,5.41998291015625,11.739990234375,4.80999755859375,20.880126953125-.1500244140625,9.02001953125-3.969970703125,17.8798828125-8.45001220703125,26.5899658203125-13.05999755859375,22.2698974609375-11.469970703125,44.8699951171875-22.25,67.1700439453125-33.6199951171875,21.7999267578125-10.3499755859375,42.929931640625-21.8699951171875,64.5799560546875-32.5,13.1700439453125-5.77996826171875,25.5299072265625-13.15997314453125,38.719970703125-18.8900146484375,4.510009765625-2.260009765625,8.7100830078125-5.3399658203125,13.3599853515625-7.27996826171875,3.300048828125-1.46002197265625,7.070068359375-2.6099853515625,9.35009765625-5.489990234375,3.329833984375-4.36004638671875,1.389892578125-10.5,1.7698974609375-15.71002197265625.4500732421875-12.9000244140625-.0699462890625-25.6300048828125.3499755859375-38.530029296875.1600341796875-16.5-.0699462890625-32.949951171875-.18994140625-49.449951171875.1099853515625-12.8900146484375.669921875-25.8699951171875-.340087890625-38.70001220703125ZM346.341173389622782,78.5c1.4700927734375-1.50994873046875,3.27001953125-3.5,5.47998046875-3.52996826171875,1.3800048828125.02001953125,2.7000732421875,1.02996826171875,2.8099365234375,2.22998046875l.02001953125.1400146484375c-.02001953125,2.52996826171875-2.489990234375,3.92999267578125-4.3199462890625,5.719970703125-5.2000732421875,5.050048828125-12.510009765625,7.9000244140625-19.1500244140625,10.57000732421875-1.4599609375.550048828125-1.030029296875.1199951171875-.219970703125-.67999267578125,1.739990234375-1.6099853515625,3.580078125-3.53997802734375,5.169921875-5.3599853515625,3.010009765625-3.40997314453125,7.1201171875-5.72998046875,10.2100830078125-9.09002685546875ZM337.761217334935282,74.3699951171875c.619873046875-1.3499755859375,1.3199462890625-3.05999755859375,2.530029296875-3.739990234375,1.260009765625-.72998046875,3.010009765625.050048828125,3.2099609375,1.4100341796875l.010009765625.1300048828125c.14990234375,1.22998046875-1.110107421875,2.80999755859375-2.1201171875,3.78997802734375-4.0198974609375,3.8800048828125-8.0198974609375,7.72998046875-11.929931640625,11.67999267578125-4.8599853515625,4.45001220703125-9.6300048828125,9.3900146484375-14.489990234375,13.75-1.830078125,1.69000244140625-4.1400146484375,3.4000244140625-6.6099853515625,3.80999755859375-2.6900634765625.530029296875-3.7900390625-.80999755859375-2.3800048828125-3,4.31005859375-5.22998046875,9.43994140625-10.20001220703125,14.72998046875-14.42999267578125,3-2.46002197265625,6.85009765625-3.33001708984375,10.1300048828125-5.28997802734375,3.0599365234375-1.85003662109375,5.5599365234375-4.83001708984375,6.9200439453125-8.11004638671875ZM297.171129444310282,94.61004638671875c3.760009765625-3.44000244140625,6.8701171875-8.5400390625,12.030029296875-9.10003662109375,1.610107421875-.15997314453125,7.860107421875-.70001220703125,4.4100341796875,2.17999267578125l-.1300048828125.1300048828125c-2.719970703125,2.47003173828125-5.3599853515625,5.35003662109375-8.169921875,7.8800048828125-1.81005859375,1.760009765625-3.43017578125,3.85003662109375-5.4400634765625,3.77001953125-2.8399658203125-.25-5.7900390625-2.32000732421875-2.7000732421875-4.8599853515625ZM289.031236866185282,92.9200439453125c-1.150146484375-.5-3.219970703125-.6600341796875-3.719970703125-1.83001708984375-.0400390625-.66998291015625.659912109375-1.280029296875,1.179931640625-1.82000732421875,1.050048828125-1.02996826171875,2.1199951171875-2.1099853515625,3.510009765625-2.6300048828125,1.06005859375-.58001708984375,11.56005859375-1.8800048828125,7.139892578125,1.16998291015625l-.159912109375.1300048828125c-2.4599609375,1.9200439453125-4.10009765625,6.550048828125-7.949951171875,4.98004150390625ZM288.811266163060282,59.24005126953125c.449951171875.00994873046875.89990234375.02996826171875,1.349853515625.05999755859375h.2100830078125c8.8399658203125.1099853515625,18.3399658203125.05999755859375,26.6300048828125,3.39996337890625,3.5799560546875,1.22003173828125,7.989990234375,6.6600341796875,1.43994140625,7.280029296875-4.14990234375,0-8.3599853515625-.85003662109375-12.510009765625-.4000244140625-7.18994140625.58001708984375-14.39990234375.75-21.550048828125,1.58001708984375-13.85986328125,1.19000244140625-27.489990234375,4.010009765625-40.869873046875,7.7099609375-11.6700439453125,2.6600341796875-23.340087890625,5.31005859375-34.7099609375,9.07000732421875-4.66015625,1.22003173828125-9.4700927734375,1.95001220703125-14.06005859375,3.4000244140625-6.760009765625,1.83001708984375-4.47998046875,2.59002685546875.8599853515625,3.08001708984375,4.47998046875.38995361328125,8.9000244140625.969970703125,13.3499755859375,1.42999267578125,7.68994140625.469970703125,15.360107421875,1.28997802734375,23.02001953125,2.19000244140625,7.550048828125.219970703125,14.8499755859375,1.47998046875,22.3800048828125,2.3599853515625,4.0399169921875.33001708984375,8.02001953125,1.02001953125,11.9200439453125,2.1400146484375,5.419921875,1.4599609375,11.0400390625,2.29998779296875,16.239990234375,4.3800048828125,9.22998046875,3.510009765625,22.6298828125,15.260009765625,18.93994140625,26.05999755859375-1.31005859375,3.19000244140625-4.3399658203125,5.65997314453125-7.22998046875,7.88995361328125-6.93994140625,5.57000732421875-15.739990234375,7.09002685546875-24.080078125,9.6500244140625-11.199951171875,3.72003173828125-22.669921875,5.91998291015625-34.179931640625,8.4000244140625-12.199951171875,2.14996337890625-24.409912109375,3.6099853515625-36.5899658203125,5.55999755859375-9.5.6300048828125-18.9200439453125,1.94000244140625-28.3800048828125,2.79998779296875-7.070068359375.21002197265625-14.1199951171875.95001220703125-21.1700439453125.95001220703125-3.4400634765625.05999755859375-6.1900634765625-.760009765625-8.8199462890625-2.739990234375-3.6800537109375-2.86004638671875-12.760009765625-10.32000732421875-12.860107421875-15.05999755859375.10009765625-1.84002685546875,3.070068359375-2.510009765625,4.9700927734375-2.62005615234375,3.6199951171875-.25994873046875,7.2698974609375-.37994384765625,10.9300537109375-.52996826171875,9.7999267578125-.59002685546875,19.599853515625-1.71002197265625,29.419921875-1.9000244140625,15.3800048828125-1.40997314453125,30.77001953125-2.79998779296875,46.06005859375-4.92999267578125,8.35986328125-1.51995849609375,16.7900390625-2.91998291015625,25.0799560546875-4.75,7.8599853515625-1.94000244140625,15.3599853515625-4.15997314453125,22.9600830078125-6.79998779296875,3.699951171875-1.52001953125,7.0599365234375-3.780029296875,10.58984375-5.6400146484375,1.4500732421875-.79998779296875,4.4200439453125-2.3299560546875,4.6800537109375-3.6199951171875.8900146484375-2.6300048828125-18.489990234375-4.28997802734375-21.0499267578125-4.75-8.7900390625-.6400146484375-17.56005859375-1.3599853515625-26.300048828125-2.52996826171875-9.7099609375-.61004638671875-19.3699951171875-1.77001953125-28.97998046875-3.24005126953125-6.2099609375-.989990234375-12.4000244140625-2.3199462890625-18.469970703125-3.92999267578125-3.8701171875-1.0899658203125-7.64013671875-2.6099853515625-10.800048828125-5.0999755859375-4.010009765625-3.489990234375-11.56005859375-9.21002197265625-11.56005859375-14.82000732421875.8701171875-5.969970703125,12.10009765625-7.8499755859375,16.9200439453125-9.95001220703125,9.239990234375-2.75,18.8499755859375-4.0899658203125,28.1300048828125-6.6300048828125,11.550048828125-3.07000732421875,23.530029296875-3.77996826171875,35.219970703125-6.0999755859375,7.1300048828125-1.40997314453125,14.4100341796875-1.95001220703125,21.6600341796875-2.25,7.0599365234375-.19000244140625,14.1600341796875-1.3900146484375,21.2100830078125-1.0999755859375ZM280.541246631810282,87.7900390625l-.10009765625.0899658203125c-.389892578125.36004638671875-.39990234375,1.21002197265625-.889892578125,1.42999267578125-.760009765625.30999755859375-1.77001953125-.3499755859375-2.550048828125-.53997802734375-.3800048828125-.1199951171875-.699951171875-.219970703125-.6800537109375-.29998779296875,1.0599365234375-.3900146484375,2.9400634765625-.47003173828125,4.0799560546875-.72003173828125.080078125.010009765625.380126953125-.1300048828125.14013671875.0400390625ZM143.441148975560282,232.1600341796875c2.6300048828125-.97998046875,2.080078125,1.39996337890625.85009765625,2.64996337890625l-.150146484375.12005615234375c-2.14990234375,1.42999267578125-2.510009765625-2.33001708984375-.699951171875-2.77001953125ZM140.621202686497782,228.8699951171875c-.9400634765625,1.08001708984375-1.9700927734375,2.09002685546875-3.2000732421875,2.56005859375-4.72998046875,1.699951171875-8.43994140625-2.59002685546875-3.5899658203125-5.69000244140625,2.6800537109375-2.3900146484375,5.4300537109375-4.6600341796875,7.8800048828125-7.35003662109375,5.1099853515625-6.8900146484375,3.5400390625,1.82000732421875,2.699951171875,5.34002685546875l-.0699462890625.17999267578125c-.6900634765625,1.739990234375-2.3699951171875,3.3499755859375-3.719970703125,4.9599609375ZM144.731188038060282,207.21002197265625c-1.75,4.34002685546875-7.489990234375,6.95001220703125-10.2900390625,10.95001220703125-1.219970703125,1.41998291015625-2.43994140625,2.80999755859375-3.7099609375,4.20001220703125-1.60009765625,1.69000244140625-3.419921875,4-5.68994140625,4.3699951171875-1.610107421875.239990234375-3.16015625-.8699951171875-3.239990234375-2.36004638671875l-.010009765625-.13995361328125c.0699462890625-2.5,2.60986328125-4.32000732421875,4.199951171875-6.09002685546875,2.72998046875-2.760009765625,5.419921875-5.489990234375,8.070068359375-8.32000732421875,3.0198974609375-3.2099609375,6.2598876953125-6.5999755859375,9.7999267578125-9.260009765625,2.75-1.8399658203125,1.3499755859375,5.510009765625.8699951171875,6.6500244140625ZM144.791246631810282,192.45001220703125c-4.050048828125,4.3599853515625-8.570068359375,8.41998291015625-13.0400390625,12.3699951171875-3.60009765625,3.11004638671875-7.030029296875,6.3800048828125-10.4200439453125,9.70001220703125-2.3299560546875,2.030029296875-4.7099609375,5.16998291015625-7.72998046875,5.94000244140625-1.6400146484375.3599853515625-3.1500244140625-.58001708984375-3.2999267578125-1.91998291015625l-.010009765625-.1300048828125c-.1201171875-1.27001953125,1.1298828125-2.780029296875,2.169921875-3.760009765625,4.199951171875-3.8699951171875,8.239990234375-7.79998779296875,12.3699951171875-11.70001220703125,4.1900634765625-3.72998046875,8.1700439453125-7.65997314453125,12.3299560546875-11.42999267578125,2.6800537109375-2.58001708984375,5.150146484375-5.8800048828125,8.760009765625-7.1400146484375,2.050048828125-.63995361328125,5.9400634765625-1.30999755859375,3.530029296875,1.10003662109375-2.02001953125,2.010009765625-2.909912109375,4.69000244140625-4.659912109375,6.969970703125ZM97.481188038060282,183.75c4.2900390625-5.3299560546875,8.8800048828125-10.53997802734375,13.800048828125-15.26995849609375,2.169921875-1.70001220703125,3.849853515625-5.030029296875,6.77001953125-5.27001953125l.139892578125.010009765625c1.4200439453125.0999755859375,2.580078125,1.489990234375,2.4599609375,3.02001953125-.0599365234375,1.5899658203125-1.3798828125,3.05999755859375-2.489990234375,4.22998046875-3.3199462890625,3.3800048828125-6.419921875,6.969970703125-9.7999267578125,10.28997802734375-3.2900390625,3.19000244140625-6.0400390625,6.60003662109375-9.4100341796875,9.57000732421875-.800048828125.6600341796875-2.050048828125,1.82000732421875-2.89990234375,1.53997802734375-1.7900390625-1.62994384765625.119873046875-6.3199462890625,1.429931640625-8.1199951171875ZM95.341173389622782,172.5400390625c-.1300048828125-6.32000732421875,4.6600341796875-9.20001220703125,9.6800537109375-11.94000244140625,1.8099365234375-1.030029296875,3.60986328125-2.1099853515625,5.449951171875-3.08001708984375,1.0400390625-.52996826171875,2.52001953125-1.1500244140625,3.469970703125-.77001953125l.080078125.0400390625c1.419921875,1.4599609375-2.719970703125,4.70001220703125-3.7000732421875,5.8399658203125-4.4000244140625,4.3800048828125-8.6900634765625,9.1300048828125-13.1500244140625,13.4100341796875-2.0899658203125,1.72998046875-1.8299560546875-2.1400146484375-1.8299560546875-3.5ZM96.501207569310282,201.6500244140625l.0699462890625-.17999267578125c2.25-5.280029296875,7.4100341796875-8.72003173828125,11.0400390625-13.030029296875,5.239990234375-5.40997314453125,10.4000244140625-11,15.9000244140625-16.13995361328125,4.0699462890625-3.47003173828125,7.969970703125.9599609375,3.639892578125,4.41998291015625-3.669921875,3.3699951171875-6.72998046875,7.46002197265625-10.159912109375,11.08001708984375-3.4000244140625,4.05999755859375-7.47998046875,7.42999267578125-11.0400390625,11.3199462890625-2.0899658203125,2.3900146484375-4.39990234375,4.59002685546875-6.699951171875,6.82000732421875-.77001953125.69000244140625-2.050048828125,2.030029296875-2.820068359375,1.9200439453125-1.0999755859375-.550048828125-.659912109375-3.800048828125.070068359375-6.21002197265625ZM102.081163623997782,210.1800537109375c9.1400146484375-9.97003173828125,18.9100341796875-18.8800048828125,28.6800537109375-28.20001220703125,1.5-1.48004150390625,3.3798828125-3.489990234375,5.5899658203125-3.05999755859375,1.9600830078125.3299560546875,2.6199951171875,2.40997314453125,1.5299072265625,3.90997314453125l-.08984375.1400146484375c-5.030029296875,5.8399658203125-10.900146484375,11.0899658203125-16.300048828125,16.6300048828125-4.070068359375,3.79998779296875-7.9200439453125,7.83001708984375-11.969970703125,11.64996337890625-1.7099609375,1.6500244140625-3.380126953125,3.94000244140625-5.719970703125,4.57000732421875-1.550048828125.4200439453125-3.130126953125-.16998291015625-3.52001953125-1.28997802734375-.570068359375-1.44000244140625.72998046875-3.19000244140625,1.7999267578125-4.3499755859375ZM169.381090381810282,128.0400390625c2.43017578125-1.30999755859375,5.420166015625-1.85003662109375,7.7100830078125-3.4200439453125,1.2100830078125-.52996826171875,4.5699462890625-4.6199951171875,5.5399169921875-2.78997802734375l.030029296875.1099853515625c.1700439453125,1.2900390625-1.2999267578125,2.2900390625-2.219970703125,3.050048828125-1.75,1.30999755859375-2.919921875,2.949951171875-4.7900390625,3.6199951171875-.929931640625.5799560546875-10.699951171875,1.72998046875-6.27001953125-.57000732421875ZM186.381090381810282,125.3800048828125c1.1201171875-1.1300048828125,2.070068359375-2.53997802734375,3.400146484375-2.90997314453125,1.8299560546875-.45001220703125,4.719970703125.33001708984375,6.5699462890625,1.04998779296875,1.6800537109375,1.27001953125-.9300537109375,2.8599853515625-2.1099853515625,3.32000732421875-2.469970703125,1.010009765625-5.2099609375,1.1500244140625-7.81005859375,1.30999755859375-.489990234375.010009765625-1.119873046875-.02001953125-1.389892578125-.3499755859375l-.050048828125-.09002685546875c-.219970703125-.8800048828125.8800048828125-1.65997314453125,1.389892578125-2.33001708984375ZM203.421129444310282,125.30999755859375l.2099609375-.03997802734375c.830078125-.05999755859375,1.7301025390625.1400146484375,2.590087890625.17999267578125.6500244140625.05999755859375,1.4599609375.1300048828125,1.260009765625.21002197265625-1.43994140625.22998046875-3.6400146484375.489990234375-5.1500244140625.52996826171875-.9400634765625-.15997314453125.7000732421875-.8499755859375,1.0899658203125-.8800048828125ZM32.451158741185282,116.4300537109375c6.06005859375-3.52001953125,12.43994140625-6.300048828125,18.780029296875-9.260009765625,7.1099853515625-3.300048828125,13.800048828125-7.46002197265625,21.070068359375-10.44000244140625,10.429931640625-5.04998779296875,20.5399169921875-10.6300048828125,30.919921875-15.780029296875,5.669921875-2.760009765625,11.5400390625-5.20001220703125,16.97998046875-8.3900146484375,5.739990234375-2.6199951171875,11.3800048828125-5.28997802734375,17.1300048828125-8.14996337890625,5.6700439453125-2.80999755859375,11.2900390625-5.69000244140625,16.8800048828125-8.6300048828125,4.239990234375-1.97003173828125,8.550048828125-3.69000244140625,12.68994140625-5.8699951171875,12.35009765625-6.5400390625,24.9400634765625-12.6199951171875,37.4400634765625-18.85003662109375,7.780029296875-4.0899658203125,15.6199951171875-8.0799560546875,23.52001953125-11.89996337890625,1.8299560546875-.94000244140625,3.8599853515625-1.91998291015625,5.8299560546875-1.91998291015625l.1800537109375-.010009765625c4.0799560546875.13995361328125,7.6800537109375,2.90997314453125,11.3299560546875,4.53997802734375,4.2099609375,2.04998779296875,8.4200439453125,4.0999755859375,12.52001953125,6.239990234375,5.429931640625,2.72003173828125,10.780029296875,5.4100341796875,16.2900390625,8.010009765625,3.3399658203125,1.80999755859375,6.7099609375,4.09002685546875,10.14990234375,5.5999755859375.9600830078125.49005126953125,1.39013671875.82000732421875,1.150146484375,1.07000732421875-.2301025390625.25-1.25.4200439453125-2.64013671875.550048828125-3.5999755859375.26995849609375-7.25.27996826171875-10.8299560546875.5-5.760009765625.5799560546875-11.5299072265625.94000244140625-17.2799072265625,1.5-11.60009765625,1.27996826171875-22.89013671875,3.87994384765625-34.41015625,5.66998291015625-6.0399169921875,1.05999755859375-11.889892578125,2.20001220703125-17.8798828125,3.25-5.340087890625,1.2099609375-10.610107421875,3.15997314453125-15.9300537109375,4.1300048828125-10.9300537109375,2.41998291015625-23.1700439453125,5.89996337890625-31.3599853515625,13.8399658203125-9.169921875,9.8800048828125-5.75,23.4200439453125,3.179931640625,32.1600341796875,1.2100830078125,1.3699951171875,2.469970703125,2.719970703125,3.800048828125,3.969970703125,1.6600341796875,1.58001708984375,2.9599609375,3.010009765625,2.590087890625,4.27001953125-.81005859375,2.15997314453125-3.610107421875,2.969970703125-5.60009765625,3.97998046875-2.719970703125,1.23004150390625-5.5,2.2900390625-8.139892578125,3.70001220703125-10.080078125,5.3800048828125-20.260009765625,10.6300048828125-30.75,15.16998291015625-2.43017578125,1.21002197265625-4.7200927734375,2.67999267578125-7.10009765625,3.989990234375-4.070068359375,2.27001953125-8.64990234375,3.6500244140625-12.7900390625,5.82000732421875-14.8199462890625,8.84002685546875-11.10986328125,7.280029296875-26.119873046875-.2099609375-10.77001953125-4.739990234375-21.150146484375-10.260009765625-31.840087890625-15.1300048828125-3.550048828125-1.73004150390625-7.010009765625-3.54998779296875-10.469970703125-5.41998291015625-1.969970703125-1.07000732421875-5.239990234375-1.98004150390625-6.1300048828125-3.9300537109375.260009765625-2.17999267578125,4.9599609375-2.90997314453125,6.8399658203125-4.0699462890625ZM22.741197803685282,250.1199951171875c-2.330078125,2.6500244140625-4.1500244140625,4.83001708984375-6.4200439453125,1.36004638671875l-.0899658203125-.1700439453125c-2.080078125-4.1199951171875,3.3599853515625-6.62994384765625,5.72998046875-9.41998291015625,1.739990234375-2.27996826171875,5.429931640625-.72998046875,6.8800048828125.84002685546875,1.4300537109375,2-4.9000244140625,5.80999755859375-6.0999755859375,7.38995361328125ZM16.651109913060282,237.27001953125l.150146484375-.1199951171875c2.14990234375-1.42999267578125,2.510009765625,2.33001708984375.699951171875,2.77001953125-2.6300048828125.97998046875-2.080078125-1.4000244140625-.85009765625-2.6500244140625ZM33.631090381810282,255.4000244140625c-1.219970703125,1.42999267578125-2.43994140625,3.19000244140625-4.0599365234375,3.33001708984375-1.8099365234375.19000244140625-3.8099365234375-1.3699951171875-4.2598876953125-3.07000732421875l-.02001953125-.1400146484375c.08984375-2.3399658203125,3.159912109375-3.95001220703125,4.599853515625-5.6300048828125,1.6201171875-1.3399658203125,3.56005859375-3.8900146484375,5.300048828125-3.8800048828125,1.97998046875.08001708984375,6.260009765625,1.95001220703125,4.050048828125,4.34002685546875-1.6300048828125,1.8699951171875-3.97998046875,3.14996337890625-5.610107421875,5.04998779296875ZM40.341173389622782,263.94000244140625c-1.97998046875.69000244140625-4.0699462890625-.969970703125-4.4100341796875-2.90997314453125l-.02001953125-.1600341796875c-.139892578125-2.29998779296875,2.5400390625-3.3699951171875,3.9400634765625-4.79998779296875,2.3199462890625-2.07000732421875,4-5.41998291015625,7.52001953125-4.969970703125,1.469970703125.1099853515625,3.0599365234375,1.1199951171875,3.3299560546875,2.5899658203125.31005859375,1.8900146484375-1.75,3.07000732421875-3.1099853515625,4.050048828125-2.7899169921875,1.5-4.4500732421875,5.14996337890625-7.25,6.199951171875ZM50.661119678685282,269.3800048828125c-1.909912109375.530029296875-3.869873046875-1.0899658203125-4.2099609375-2.90997314453125l-.030029296875-.16998291015625c-.2099609375-1.74005126953125,1.52001953125-2.84002685546875,2.72998046875-3.82000732421875,1.4500732421875-1.1400146484375,2.75-2.46002197265625,3.9700927734375-3.6500244140625,1.219970703125-1.25,2.4400634765625-2.469970703125,4.3399658203125-1.89996337890625,1.6199951171875.43994140625,4.8599853515625,1.76995849609375,3.070068359375,3.78997802734375-1.400146484375,1.719970703125-3.4300537109375,3.17999267578125-5.090087890625,4.70001220703125-1.639892578125,1.449951171875-2.77001953125,3.44000244140625-4.780029296875,3.9599609375ZM61.671129444310282,274.61004638671875c-1.97998046875.67999267578125-4.0699462890625-.97003173828125-4.39990234375-2.9100341796875l-.030029296875-.15997314453125c-.1400146484375-2.30999755859375,2.5400390625-3.3699951171875,3.949951171875-4.79998779296875,2.1400146484375-1.84002685546875,3.47998046875-4.74005126953125,6.510009765625-4.98004150390625,1.77001953125-.2099609375,3.97998046875.75,4.330078125,2.60003662109375.2899169921875,2.4599609375-2.760009765625,3.55999755859375-4.330078125,4.94000244140625-2.169921875,1.469970703125-3.5999755859375,4.52996826171875-6.030029296875,5.30999755859375ZM72.821153858372782,279.07000732421875l-.199951171875.030029296875c-2.7301025390625.67999267578125-7-1.2900390625-4.3399658203125-4.10003662109375,1.0699462890625-1.05999755859375,2.47998046875-1.8199462890625,3.5899658203125-2.8699951171875,1.7099609375-1.4599609375,2.8499755859375-3.5899658203125,4.97998046875-4.5,4.260009765625-1.67999267578125,9.0699462890625,2.1600341796875,3.5699462890625,5.1400146484375-2.919921875,1.70001220703125-4.0400390625,5.77001953125-7.5999755859375,6.29998779296875ZM82.901109913060282,285.09002685546875c-1.699951171875.21002197265625-3.669921875-1.25-4.219970703125-2.780029296875l-.030029296875-.12994384765625c-.1298828125-1.0400390625.81005859375-1.9300537109375,1.580078125-2.70001220703125.929931640625-.92999267578125,1.89990234375-1.85003662109375,2.8599853515625-2.75,1.27001953125-1.1700439453125,2.6500244140625-2.6199951171875,3.739990234375-3.530029296875.5899658203125-.469970703125,1.239990234375-.72998046875,2-.6099853515625,1.6400146484375.44000244140625,5.9400634765625,1.8800048828125,3.8399658203125,4.1099853515625-1.669921875,2-3.8499755859375,3.44000244140625-5.739990234375,5.22003173828125-1.3499755859375,1.29998779296875-2.5799560546875,2.97998046875-4.030029296875,3.16998291015625ZM97.631090381810282,287.4000244140625c-1.219970703125,1.42999267578125-2.43994140625,3.19000244140625-4.0599365234375,3.33001708984375-1.8099365234375.19000244140625-3.8099365234375-1.3699951171875-4.2598876953125-3.07000732421875l-.02001953125-.1400146484375c.08984375-2.3399658203125,3.159912109375-3.95001220703125,4.599853515625-5.6300048828125,1.6201171875-1.3399658203125,3.56005859375-3.8900146484375,5.300048828125-3.8800048828125,1.97998046875.08001708984375,6.260009765625,1.95001220703125,4.050048828125,4.34002685546875-1.6300048828125,1.8699951171875-3.97998046875,3.14996337890625-5.610107421875,5.04998779296875ZM104.341173389622782,295.94000244140625c-1.97998046875.69000244140625-4.0699462890625-.969970703125-4.4100341796875-2.90997314453125l-.02001953125-.1600341796875c-.139892578125-2.29998779296875,2.5400390625-3.3699951171875,3.9400634765625-4.79998779296875,2.3199462890625-2.07000732421875,4-5.41998291015625,7.52001953125-4.969970703125,1.469970703125.1099853515625,3.0599365234375,1.1199951171875,3.3299560546875,2.5899658203125.31005859375,1.8900146484375-1.75,3.07000732421875-3.1099853515625,4.050048828125-2.7899169921875,1.5-4.4500732421875,5.14996337890625-7.25,6.199951171875ZM114.661119678685282,301.3800048828125c-1.909912109375.530029296875-3.869873046875-1.0899658203125-4.2099609375-2.90997314453125l-.030029296875-.16998291015625c-.2099609375-1.74005126953125,1.52001953125-2.84002685546875,2.72998046875-3.82000732421875,1.4500732421875-1.1400146484375,2.75-2.46002197265625,3.9700927734375-3.6500244140625,1.219970703125-1.25,2.4400634765625-2.469970703125,4.3399658203125-1.89996337890625,1.6199951171875.43994140625,4.8599853515625,1.76995849609375,3.070068359375,3.78997802734375-1.400146484375,1.719970703125-3.4300537109375,3.17999267578125-5.090087890625,4.70001220703125-1.639892578125,1.449951171875-2.77001953125,3.44000244140625-4.780029296875,3.9599609375ZM125.671129444310282,306.61004638671875c-1.97998046875.67999267578125-4.0699462890625-.97003173828125-4.39990234375-2.9100341796875l-.030029296875-.15997314453125c-.1400146484375-2.30999755859375,2.5400390625-3.3699951171875,3.949951171875-4.79998779296875,2.1400146484375-1.84002685546875,3.47998046875-4.74005126953125,6.510009765625-4.98004150390625,1.77001953125-.2099609375,3.97998046875.75,4.330078125,2.60003662109375.2899169921875,2.4599609375-2.760009765625,3.55999755859375-4.330078125,4.94000244140625-2.169921875,1.469970703125-3.5999755859375,4.52996826171875-6.030029296875,5.30999755859375ZM136.821153858372782,311.07000732421875l-.199951171875.030029296875c-2.7301025390625.67999267578125-7-1.2900390625-4.3399658203125-4.10003662109375,1.0699462890625-1.05999755859375,2.47998046875-1.8199462890625,3.5899658203125-2.8699951171875,1.7099609375-1.4599609375,2.8499755859375-3.5899658203125,4.97998046875-4.5,4.260009765625-1.67999267578125,9.0699462890625,2.1600341796875,3.5699462890625,5.1400146484375-2.919921875,1.70001220703125-4.0400390625,5.77001953125-7.5999755859375,6.29998779296875ZM146.901109913060282,317.09002685546875c-1.699951171875.21002197265625-3.669921875-1.25-4.219970703125-2.780029296875l-.030029296875-.12994384765625c-.1298828125-1.0400390625.81005859375-1.9300537109375,1.580078125-2.70001220703125.929931640625-.92999267578125,1.89990234375-1.85003662109375,2.8599853515625-2.75,1.27001953125-1.1700439453125,2.6500244140625-2.6199951171875,3.739990234375-3.530029296875.5899658203125-.469970703125,1.239990234375-.72998046875,2-.6099853515625,1.6400146484375.44000244140625,5.9400634765625,1.8800048828125,3.8399658203125,4.1099853515625-1.669921875,2-3.8499755859375,3.44000244140625-5.739990234375,5.22003173828125-1.3499755859375,1.29998779296875-2.5799560546875,2.97998046875-4.030029296875,3.16998291015625ZM161.631090381810282,319.4000244140625c-1.219970703125,1.42999267578125-2.43994140625,3.19000244140625-4.0599365234375,3.33001708984375-1.8099365234375.19000244140625-3.8099365234375-1.3699951171875-4.2598876953125-3.07000732421875l-.02001953125-.1400146484375c.08984375-2.3399658203125,3.159912109375-3.95001220703125,4.599853515625-5.6300048828125,1.6201171875-1.3399658203125,3.56005859375-3.8900146484375,5.300048828125-3.8800048828125,1.97998046875.08001708984375,6.260009765625,1.95001220703125,4.050048828125,4.34002685546875-1.6300048828125,1.8699951171875-3.97998046875,3.14996337890625-5.610107421875,5.04998779296875ZM168.341173389622782,327.94000244140625c-1.97998046875.69000244140625-4.0699462890625-.969970703125-4.4100341796875-2.90997314453125l-.02001953125-.1600341796875c-.139892578125-2.29998779296875,2.5400390625-3.3699951171875,3.9400634765625-4.79998779296875,2.3199462890625-2.07000732421875,4-5.41998291015625,7.52001953125-4.969970703125,1.469970703125.1099853515625,3.0599365234375,1.1199951171875,3.3299560546875,2.5899658203125.31005859375,1.8900146484375-1.75,3.07000732421875-3.1099853515625,4.050048828125-2.7899169921875,1.5-4.4500732421875,5.14996337890625-7.25,6.199951171875ZM178.661119678685282,333.3800048828125c-1.909912109375.530029296875-3.869873046875-1.0899658203125-4.2099609375-2.90997314453125l-.030029296875-.16998291015625c-.2099609375-1.74005126953125,1.52001953125-2.84002685546875,2.72998046875-3.82000732421875,1.4500732421875-1.1400146484375,2.75-2.46002197265625,3.9700927734375-3.6500244140625,1.219970703125-1.25,2.4400634765625-2.469970703125,4.3399658203125-1.89996337890625,1.6199951171875.43994140625,4.8599853515625,1.76995849609375,3.070068359375,3.78997802734375-1.400146484375,1.719970703125-3.4300537109375,3.17999267578125-5.090087890625,4.70001220703125-1.639892578125,1.449951171875-2.77001953125,3.44000244140625-4.780029296875,3.9599609375ZM189.671129444310282,338.61004638671875c-1.97998046875.67999267578125-4.0699462890625-.97003173828125-4.39990234375-2.9100341796875l-.030029296875-.15997314453125c-.1400146484375-2.30999755859375,2.5400390625-3.3699951171875,3.949951171875-4.79998779296875,2.1400146484375-1.84002685546875,3.47998046875-4.74005126953125,6.510009765625-4.98004150390625,1.77001953125-.2099609375,3.97998046875.75,4.330078125,2.60003662109375.2899169921875,2.4599609375-2.760009765625,3.55999755859375-4.330078125,4.94000244140625-2.169921875,1.469970703125-3.5999755859375,4.52996826171875-6.030029296875,5.30999755859375ZM200.821153858372782,343.07000732421875l-.199951171875.030029296875c-2.7301025390625.67999267578125-7-1.2900390625-4.3399658203125-4.10003662109375,1.0699462890625-1.05999755859375,2.47998046875-1.8199462890625,3.5899658203125-2.8699951171875,1.7099609375-1.4599609375,2.8499755859375-3.5899658203125,4.97998046875-4.5,4.260009765625-1.67999267578125,9.0699462890625,2.1600341796875,3.5699462890625,5.1400146484375-2.919921875,1.70001220703125-4.0400390625,5.77001953125-7.5999755859375,6.29998779296875ZM210.901109913060282,349.09002685546875c-1.699951171875.21002197265625-3.669921875-1.25-4.219970703125-2.780029296875l-.030029296875-.12994384765625c-.1298828125-1.0400390625.81005859375-1.9300537109375,1.580078125-2.70001220703125.929931640625-.92999267578125,1.89990234375-1.85003662109375,2.8599853515625-2.75,1.27001953125-1.1700439453125,2.6500244140625-2.6199951171875,3.739990234375-3.530029296875.5899658203125-.469970703125,1.239990234375-.72998046875,2-.6099853515625,1.6400146484375.44000244140625,5.9400634765625,1.8800048828125,3.8399658203125,4.1099853515625-1.669921875,2-3.8499755859375,3.44000244140625-5.739990234375,5.22003173828125-1.3499755859375,1.29998779296875-2.5799560546875,2.97998046875-4.030029296875,3.16998291015625ZM225.141100147435282,346.760009765625c-.419921875,2.23004150390625.14013671875,4.17999267578125-.7099609375,5.9100341796875-1.68994140625,3.239990234375-6.5899658203125,2.66998291015625-7.139892578125-1.1300048828125l-.030029296875-.17999267578125c-.340087890625-2.3900146484375,2.6099853515625-2.96002197265625,3.780029296875-4.6700439453125.4599609375-.53997802734375.849853515625-1.13995361328125,1.2899169921875-1.66998291015625.780029296875-1.03997802734375,2.260009765625-1.3900146484375,2.780029296875-.58001708984375.3800048828125.6400146484375.1199951171875,1.58001708984375.0299072265625,2.32000732421875ZM220.211168506810282,322.4000244140625c-6.580078125-4.15997314453125-13.409912109375-7.54998779296875-20.580078125-10.47998046875-10.409912109375-6.030029296875-21.239990234375-11.21002197265625-32.119873046875-16.30999755859375-35.030029296875-17.32000732421875-69.510009765625-35.6300048828125-104.610107421875-52.780029296875-14.159912109375-7.02996826171875-28.0299072265625-14.67999267578125-42.25-21.5899658203125-8.699951171875-4.48004150390625-3.260009765625-16.030029296875-4.39990234375-23.77001953125-.360107421875-15.08001708984375-.1600341796875-30.1600341796875-.1700439453125-45.239990234375-.1700439453125-4.75-.25-9.46002197265625-.3699951171875-14.239990234375-.169921875-2.84002685546875.300048828125-6.5400390625,4-4.83001708984375,19.510009765625,10.1099853515625,39.4599609375,19.5999755859375,58.6099853515625,30.239990234375,4.800048828125,6.65997314453125.7900390625,25.40997314453125,1.8900146484375,34.29998779296875,1.030029296875,8.22003173828125-3.070068359375,19.34002685546875,4.530029296875,25.19000244140625l.14990234375.1099853515625c21.7900390625,10.58001708984375,42.91015625,22.94000244140625,65.1800537109375,32.45001220703125,8.760009765625,2.20001220703125,11.8599853515625-6.76995849609375,10.8900146484375-13.8900146484375-.219970703125-10.79998779296875-.489990234375-21.77996826171875-.469970703125-32.5899658203125-.4000244140625-5.08001708984375,3.14990234375-2.989990234375,5.919921875-1.3800048828125,4.760009765625,2.5999755859375,9.9400634765625,4.29998779296875,14.610107421875,7.1099853515625,13.0400390625,7.67999267578125,27.219970703125,13.3900146484375,40.5799560546875,20.3800048828125,6.4100341796875,3.95001220703125,2.1900634765625,12.6099853515625,3.4500732421875,18.78997802734375.010009765625,15.34002685546875-.130126953125,30.6800537109375.0499267578125,46.0400390625.1300048828125,6.260009765625.010009765625,12.58001708984375.239990234375,18.82000732421875.1500244140625,3.65997314453125-1.27001953125,5.94000244140625-5.1300048828125,3.66998291015625ZM231.611192920872782,222.800048828125h-.1800537109375c-2.300048828125-.010009765625-4.5400390625-1.11004638671875-6.5799560546875-2.1400146484375-3.6800537109375-1.91998291015625-7.3099365234375-3.71002197265625-11.0399169921875-5.489990234375-7.10009765625-3.57000732421875-14.090087890625-7.300048828125-21.330078125-10.61004638671875-4.8800048828125-2.47998046875-9.3699951171875-5.699951171875-14.510009765625-7.63995361328125-2.06005859375-1.1600341796875-8.300048828125-2.57000732421875-7.929931640625-4.739990234375.8798828125-1.45001220703125,3.85986328125-2.4200439453125,5.58984375-3.280029296875,6.3701171875-2.92999267578125,12.43017578125-6.6400146484375,19.35009765625-7.96002197265625,15.159912109375-2.25994873046875,30.39990234375-4.75,45.570068359375-6.97998046875,7.25-1.72998046875,14.619873046875-3.42999267578125,22.0299072265625-4.6199951171875,6.3800048828125-1.52001953125,12.6099853515625-3.3599853515625,18.6199951171875-5.66998291015625,8.860107421875-3.09002685546875,17.68994140625-6.530029296875,25.179931640625-12.32000732421875,2.780029296875-2.1199951171875,5.27001953125-4.57000732421875,6.920166015625-7.6500244140625,2.669921875-4.9599609375,4.68994140625-10.58001708984375,4.22998046875-16.29998779296875-.06005859375-2.8499755859375-1.739990234375-6.21002197265625.179931640625-8.71002197265625,1.35009765625-1.6300048828125,3.77001953125-2.3399658203125,5.7099609375-3.3699951171875,5.1800537109375-2.80999755859375,10.5-5.45001220703125,15.72998046875-8.15997314453125,10.77001953125-5.3900146484375,21.47998046875-10.9100341796875,32.489990234375-15.75,7.010009765625-4.34002685546875,10.9600830078125-1.07000732421875,17.2200927734375,2.5899658203125,7.47998046875,4.4000244140625,15.5198974609375,7.6400146484375,23.260009765625,11.57000732421875,8.3299560546875,3.95001220703125,16.6099853515625,8.030029296875,24.969970703125,11.95001220703125,1,.5999755859375,1.6900634765625,1.16998291015625,1.8399658203125,1.70001220703125.22998046875.77001953125-.7900390625,1.54998779296875-2.3599853515625,2.41998291015625-1.5098876953125.7900390625-3.2099609375,1.5400390625-4.72998046875,2.4000244140625-3.3499755859375,1.8599853515625-6.989990234375,3.07000732421875-10.2799072265625,5.01995849609375-2.0400390625,1.1700439453125-4.06005859375,2.3800048828125-6.2200927734375,3.33001708984375-8.8800048828125,3.70001220703125-17.2899169921875,8.4100341796875-25.8699951171875,12.71002197265625-12.080078125,5.30999755859375-23.510009765625,11.95001220703125-35.3499755859375,17.76995849609375-5.3499755859375,2.800048828125-11.0400390625,4.85003662109375-16.2200927734375,8.010009765625-11.719970703125,5.59002685546875-23.5,11.1700439453125-34.93994140625,17.32000732421875-10.669921875,4.60003662109375-20.8800048828125,10.1199951171875-31.2099609375,15.45001220703125-7.75,3.78997802734375-15.530029296875,7.5-23.1800537109375,11.47998046875-3.489990234375,1.96002197265625-7.0198974609375,3.760009765625-10.5799560546875,5.55999755859375-2,1.02001953125-4.219970703125,2.1300048828125-6.3800048828125,2.11004638671875ZM243.241197803685282,349.48004150390625c-.510009765625.57000732421875-1.080078125,1.20001220703125-1.590087890625,1.64996337890625-.639892578125.52001953125-1.02001953125.85003662109375-1.4599609375.48004150390625-.8499755859375-1.19000244140625-.3798828125-4.45001220703125.2900390625-6.530029296875l.070068359375-.19000244140625c2.35986328125-5.72998046875,8.2099609375-8.67999267578125,13.389892578125-11.44000244140625,2.080078125-1.1400146484375,4.4300537109375-2.5899658203125,6.56005859375-3.6099853515625,5.280029296875-2.1199951171875-5.989990234375,7.77001953125-6.31005859375,8.78997802734375-3.0999755859375,4.17999267578125-7.510009765625,6.95001220703125-10.949951171875,10.85003662109375ZM265.751207569310282,342.300048828125l-.1600341796875.1199951171875c-4.2000732421875,3.0799560546875-9.5,5.57000732421875-14.469970703125,7.7099609375-3.3099365234375,1.010009765625,5.3299560546875-6.2099609375,5.6500244140625-6.89996337890625,3.619873046875-3.54998779296875,7.2099609375-7.10003662109375,10.669921875-10.79998779296875,2.27001953125-2.1600341796875,4.85009765625-3.97003173828125,7.1300048828125-6.19000244140625,4.6300048828125-5.6700439453125,10.8099365234375-8.52001953125,17.2900390625-11.44000244140625,4.5499267578125-2.10003662109375,2.3299560546875.04998779296875.3299560546875,1.89996337890625-9.260009765625,7.989990234375-17.050048828125,17.84002685546875-26.43994140625,25.60003662109375ZM297.611192920872782,326.30999755859375c-2.4200439453125,1.80999755859375-5.280029296875,3.08001708984375-8.0499267578125,4.58001708984375-2.080078125.97003173828125-5.090087890625,2.8900146484375-7.2000732421875,2.97998046875l-.02001953125-.02996826171875c-.1500244140625-.42999267578125,1.5-1.91998291015625,2.1199951171875-2.530029296875,4.22998046875-3.9599609375,8.1300048828125-8.02996826171875,12.18994140625-12.04998779296875,3.5400390625-3.25,6.7900390625-6.72998046875,10.360107421875-10.0899658203125,2.300048828125-2.1400146484375,4.3099365234375-4.42999267578125,7.199951171875-5.71002197265625,2.919921875-1.32000732421875,5.9100341796875-2.20001220703125,8.840087890625-3.66998291015625,1.0399169921875-.4100341796875,5.3798828125-3.239990234375,2.83984375-.6099853515625-7.079833984375,7.3699951171875-14.64990234375,14.3499755859375-22.079833984375,21.38995361328125-2.050048828125,1.92999267578125-3.93017578125,4.05999755859375-6.2000732421875,5.739990234375ZM329.751207569310282,310.300048828125l-.1600341796875.1199951171875c-4.2000732421875,3.0799560546875-9.5,5.57000732421875-14.469970703125,7.7099609375-3.3099365234375,1.010009765625,5.3299560546875-6.2099609375,5.6500244140625-6.89996337890625,3.619873046875-3.54998779296875,7.2099609375-7.10003662109375,10.669921875-10.79998779296875,2.27001953125-2.1600341796875,4.85009765625-3.97003173828125,7.1300048828125-6.19000244140625,4.6300048828125-5.6700439453125,10.8099365234375-8.52001953125,17.2900390625-11.44000244140625,4.5499267578125-2.10003662109375,2.3299560546875.04998779296875.3299560546875,1.89996337890625-9.260009765625,7.989990234375-17.050048828125,17.84002685546875-26.43994140625,25.60003662109375ZM361.611192920872782,294.30999755859375c-2.4200439453125,1.80999755859375-5.280029296875,3.08001708984375-8.0499267578125,4.58001708984375-2.080078125.97003173828125-5.090087890625,2.8900146484375-7.2000732421875,2.97998046875l-.02001953125-.02996826171875c-.1500244140625-.42999267578125,1.5-1.91998291015625,2.1199951171875-2.530029296875,4.22998046875-3.9599609375,8.1300048828125-8.02996826171875,12.18994140625-12.04998779296875,3.5400390625-3.25,6.7900390625-6.72998046875,10.360107421875-10.0899658203125,2.300048828125-2.1400146484375,4.3099365234375-4.42999267578125,7.199951171875-5.71002197265625,2.919921875-1.32000732421875,5.9100341796875-2.20001220703125,8.840087890625-3.66998291015625,1.0399169921875-.4100341796875,5.3798828125-3.239990234375,2.83984375-.6099853515625-7.079833984375,7.3699951171875-14.64990234375,14.3499755859375-22.079833984375,21.38995361328125-2.050048828125,1.92999267578125-3.93017578125,4.05999755859375-6.2000732421875,5.739990234375ZM393.751207569310282,278.300048828125l-.1600341796875.1199951171875c-4.2000732421875,3.0799560546875-9.5,5.57000732421875-14.469970703125,7.7099609375-3.3099365234375,1.010009765625,5.3299560546875-6.2099609375,5.6500244140625-6.89996337890625,3.619873046875-3.54998779296875,7.2099609375-7.10003662109375,10.669921875-10.79998779296875,2.27001953125-2.1600341796875,4.85009765625-3.97003173828125,7.1300048828125-6.19000244140625,4.6300048828125-5.6700439453125,10.8099365234375-8.52001953125,17.2900390625-11.44000244140625,4.5499267578125-2.10003662109375,2.3299560546875.04998779296875.3299560546875,1.89996337890625-9.260009765625,7.989990234375-17.050048828125,17.84002685546875-26.43994140625,25.60003662109375ZM439.221178272435282,249.86004638671875c-4.280029296875,3.67999267578125-7.8699951171875,8.19000244140625-12.300048828125,11.69000244140625-3.219970703125,2.44000244140625-7.0599365234375,3.8699951171875-10.669921875,5.8499755859375-1.60009765625.67999267578125-4.010009765625,2.52001953125-5.550048828125,2.45001220703125l-.02001953125-.030029296875c-.0999755859375-.54998779296875,1.330078125-1.80999755859375,1.9400634765625-2.44000244140625,3.8299560546875-3.65997314453125,7.47998046875-7.3499755859375,11.0899658203125-11.0899658203125,5.75-5.260009765625,10.780029296875-11.3800048828125,17.0400390625-16.17999267578125,1.719970703125-1.19000244140625,9.699951171875-5.6400146484375,7.550048828125-.57000732421875-2.2900390625,3.8900146484375-5.989990234375,7.02996826171875-9.080078125,10.32000732421875ZM448.331163623997782,250.70001220703125l-.1199951171875.19000244140625c-.8499755859375,1.3699951171875-2.31005859375,1.70001220703125-3.580078125,2.6500244140625-.579833984375.30999755859375-1.93994140625,1.77996826171875-2.31982421875.94000244140625-.14013671875-.3699951171875.0098876953125-1.04998779296875.369873046875-1.510009765625.6400146484375-.780029296875,1.6700439453125-1.1500244140625,2.4000244140625-1.8800048828125,1.2100830078125-1.03997802734375,1.5599365234375-2.29998779296875,2.9000244140625-3.02001953125,2.010009765625-.97998046875.949951171875,1.760009765625.3499755859375,2.6300048828125ZM448.081163623997782,218.27001953125l-.0899658203125.1400146484375c-4.18994140625,4.65997314453125-11.31005859375,6.260009765625-16.590087890625,9.6099853515625-9.8199462890625,4.67999267578125-19.3199462890625,10.1300048828125-29.369873046875,14.280029296875-11.1700439453125,6.38995361328125-22.760009765625,12-34.39013671875,17.469970703125-12.159912109375,6.19000244140625-24.0699462890625,12.8900146484375-36.349853515625,18.80999755859375-10.02001953125,4.3599853515625-19.2100830078125,10.30999755859375-29.35009765625,14.41998291015625-16.02001953125,8.1199951171875-31.64990234375,17.02001953125-48.050048828125,24.3900146484375-3.389892578125,1.22003173828125-10.260009765625,7.22003173828125-13.139892578125,5.510009765625-.81005859375-.760009765625-.8900146484375-3.09002685546875-.8800048828125-4.469970703125-.1199951171875-4.87005615234375.0599365234375-9.760009765625.2899169921875-14.61004638671875-.159912109375-6.38995361328125-.22998046875-12.8299560546875-.2899169921875-19.2099609375,0-12.36004638671875-.2100830078125-24.73004150390625.489990234375-37.050048828125-.1800537109375-6.15997314453125-2.02001953125-11.38995361328125,5.510009765625-13.489990234375,12.5899658203125-5.28997802734375,24.1900634765625-12.5899658203125,36.469970703125-18.510009765625,12.260009765625-6.719970703125,25.1300048828125-12.199951171875,37.280029296875-19.0899658203125,24.2099609375-10.97998046875,47.2598876953125-24.33001708984375,71.3099365234375-35.60003662109375,10.6500244140625-5.8299560546875,21.81005859375-10.739990234375,32.570068359375-16.3499755859375,6.179931640625-3.65997314453125,12.7900390625-6.21002197265625,19.139892578125-9.53997802734375,1.4300537109375-.83001708984375,3.880126953125-2.4100341796875,5.130126953125-2.030029296875,1.989990234375,1.2900390625.89990234375,5.44000244140625,1.0499267578125,7.70001220703125.1400146484375,9.40997314453125-.1300048828125,18.82000732421875-.0599365234375,28.22998046875.419921875,9.95001220703125.0400390625,19.8800048828125.3199462890625,29.82000732421875,0,4.22003173828125-.2000732421875,8.41998291015625.0899658203125,12.6099853515625.130126953125,2.30999755859375.130126953125,5.02001953125-1.0899658203125,6.96002197265625Z"
      />
      <path
        class="cls-2"
        d="M285.311266163060282,42.69000244140625c-.2301025390625.25-1.25.4200439453125-2.64013671875.550048828125-3.5999755859375.26995849609375-7.25.27996826171875-10.8299560546875.5-5.760009765625.5799560546875-11.5299072265625.94000244140625-17.2799072265625,1.5-11.60009765625,1.27996826171875-22.89013671875,3.87994384765625-34.41015625,5.66998291015625-6.0399169921875,1.05999755859375-11.889892578125,2.20001220703125-17.8798828125,3.25-5.340087890625,1.2099609375-10.610107421875,3.15997314453125-15.9300537109375,4.1300048828125-10.9300537109375,2.41998291015625-23.1700439453125,5.89996337890625-31.3599853515625,13.8399658203125-9.169921875,9.8800048828125-5.75,23.4200439453125,3.179931640625,32.1600341796875,1.2100830078125,1.3699951171875,2.469970703125,2.719970703125,3.800048828125,3.969970703125,1.6600341796875,1.58001708984375,2.9599609375,3.010009765625,2.590087890625,4.27001953125-.81005859375,2.15997314453125-3.610107421875,2.969970703125-5.60009765625,3.97998046875-2.719970703125,1.23004150390625-5.5,2.2900390625-8.139892578125,3.70001220703125-10.080078125,5.3800048828125-20.260009765625,10.6300048828125-30.75,15.16998291015625-2.43017578125,1.21002197265625-4.7200927734375,2.67999267578125-7.10009765625,3.989990234375-4.070068359375,2.27001953125-8.64990234375,3.6500244140625-12.7900390625,5.82000732421875-14.8199462890625,8.84002685546875-11.10986328125,7.280029296875-26.119873046875-.2099609375-10.77001953125-4.739990234375-21.150146484375-10.260009765625-31.840087890625-15.1300048828125-3.550048828125-1.73004150390625-7.010009765625-3.54998779296875-10.469970703125-5.41998291015625-1.969970703125-1.07000732421875-5.239990234375-1.98004150390625-6.1300048828125-3.9300537109375.260009765625-2.17999267578125,4.9599609375-2.90997314453125,6.8399658203125-4.0699462890625,6.06005859375-3.52001953125,12.43994140625-6.300048828125,18.780029296875-9.260009765625,7.1099853515625-3.300048828125,13.800048828125-7.46002197265625,21.070068359375-10.44000244140625,10.429931640625-5.04998779296875,20.5399169921875-10.6300048828125,30.919921875-15.780029296875,5.669921875-2.760009765625,11.5400390625-5.20001220703125,16.97998046875-8.3900146484375,5.739990234375-2.6199951171875,11.3800048828125-5.28997802734375,17.1300048828125-8.14996337890625,5.6700439453125-2.80999755859375,11.2900390625-5.69000244140625,16.8800048828125-8.6300048828125,4.239990234375-1.97003173828125,8.550048828125-3.69000244140625,12.68994140625-5.8699951171875,12.35009765625-6.5400390625,24.9400634765625-12.6199951171875,37.4400634765625-18.85003662109375,7.780029296875-4.0899658203125,15.6199951171875-8.0799560546875,23.52001953125-11.89996337890625,1.8299560546875-.94000244140625,3.8599853515625-1.91998291015625,5.8299560546875-1.91998291015625l.1800537109375-.010009765625c4.0799560546875.13995361328125,7.6800537109375,2.90997314453125,11.3299560546875,4.53997802734375,4.2099609375,2.04998779296875,8.4200439453125,4.0999755859375,12.52001953125,6.239990234375,5.429931640625,2.72003173828125,10.780029296875,5.4100341796875,16.2900390625,8.010009765625,3.3399658203125,1.80999755859375,6.7099609375,4.09002685546875,10.14990234375,5.5999755859375.9600830078125.49005126953125,1.39013671875.82000732421875,1.150146484375,1.07000732421875ZM438.931139209935282,119.22003173828125c-.14990234375-.530029296875-.8399658203125-1.10003662109375-1.8399658203125-1.70001220703125-8.3599853515625-3.91998291015625-16.6400146484375-8-24.969970703125-11.95001220703125-7.7401123046875-3.92999267578125-15.780029296875-7.16998291015625-23.260009765625-11.57000732421875-6.260009765625-3.65997314453125-10.2100830078125-6.92999267578125-17.2200927734375-2.5899658203125-11.010009765625,4.8399658203125-21.719970703125,10.3599853515625-32.489990234375,15.75-5.22998046875,2.7099609375-10.5499267578125,5.3499755859375-15.72998046875,8.15997314453125-1.93994140625,1.030029296875-4.35986328125,1.739990234375-5.7099609375,3.3699951171875-1.919921875,2.5-.239990234375,5.86004638671875-.179931640625,8.71002197265625.4599609375,5.719970703125-1.56005859375,11.34002685546875-4.22998046875,16.29998779296875-1.650146484375,3.08001708984375-4.14013671875,5.530029296875-6.920166015625,7.6500244140625-7.489990234375,5.78997802734375-16.31982421875,9.22998046875-25.179931640625,12.32000732421875-6.010009765625,2.30999755859375-12.239990234375,4.14996337890625-18.6199951171875,5.66998291015625-7.4100341796875,1.19000244140625-14.7799072265625,2.8900146484375-22.0299072265625,4.6199951171875-15.170166015625,2.22998046875-30.41015625,4.72003173828125-45.570068359375,6.97998046875-6.919921875,1.32000732421875-12.97998046875,5.030029296875-19.35009765625,7.96002197265625-1.72998046875.8599853515625-4.7099609375,1.83001708984375-5.58984375,3.280029296875-.3701171875,2.16998291015625,5.869873046875,3.5799560546875,7.929931640625,4.739990234375,5.1400146484375,1.94000244140625,9.6300048828125,5.15997314453125,14.510009765625,7.63995361328125,7.239990234375,3.30999755859375,14.22998046875,7.0400390625,21.330078125,10.61004638671875,3.72998046875,1.77996826171875,7.35986328125,3.57000732421875,11.0399169921875,5.489990234375,2.0399169921875,1.02996826171875,4.2799072265625,2.1300048828125,6.5799560546875,2.1400146484375h.1800537109375c2.1600341796875.01995849609375,4.3800048828125-1.09002685546875,6.3800048828125-2.11004638671875,3.56005859375-1.79998779296875,7.0899658203125-3.5999755859375,10.5799560546875-5.55999755859375,7.6500244140625-3.97998046875,15.4300537109375-7.69000244140625,23.1800537109375-11.47998046875,10.3299560546875-5.33001708984375,20.5400390625-10.8499755859375,31.2099609375-15.45001220703125,11.43994140625-6.14996337890625,23.219970703125-11.72998046875,34.93994140625-17.32000732421875,5.1800537109375-3.15997314453125,10.8701171875-5.2099609375,16.2200927734375-8.010009765625,11.8399658203125-5.8199462890625,23.2698974609375-12.4599609375,35.3499755859375-17.76995849609375,8.580078125-4.29998779296875,16.989990234375-9.010009765625,25.8699951171875-12.71002197265625,2.1600341796875-.95001220703125,4.1800537109375-2.15997314453125,6.2200927734375-3.33001708984375,3.2899169921875-1.949951171875,6.929931640625-3.15997314453125,10.2799072265625-5.01995849609375,1.52001953125-.8599853515625,3.2200927734375-1.6099853515625,4.72998046875-2.4000244140625,1.5699462890625-.8699951171875,2.5899658203125-1.64996337890625,2.3599853515625-2.41998291015625ZM225.341173389622782,318.73004150390625c-.22998046875-6.239990234375-.1099853515625-12.55999755859375-.239990234375-18.82000732421875-.1800537109375-15.3599853515625-.0399169921875-30.70001220703125-.0499267578125-46.0400390625-1.260009765625-6.17999267578125,2.9599609375-14.8399658203125-3.4500732421875-18.78997802734375-13.3599853515625-6.989990234375-27.5399169921875-12.70001220703125-40.5799560546875-20.3800048828125-4.6700439453125-2.80999755859375-9.85009765625-4.510009765625-14.610107421875-7.1099853515625-2.77001953125-1.6099853515625-6.3199462890625-3.70001220703125-5.919921875,1.3800048828125-.02001953125,10.80999755859375.25,21.78997802734375.469970703125,32.5899658203125.969970703125,7.12005615234375-2.1300048828125,16.09002685546875-10.8900146484375,13.8900146484375-22.2698974609375-9.510009765625-43.3900146484375-21.8699951171875-65.1800537109375-32.45001220703125l-.14990234375-.1099853515625c-7.60009765625-5.8499755859375-3.5-16.969970703125-4.530029296875-25.19000244140625-1.0999755859375-8.8900146484375,2.9100341796875-27.6400146484375-1.8900146484375-34.29998779296875-19.1500244140625-10.6400146484375-39.0999755859375-20.1300048828125-58.6099853515625-30.239990234375-3.699951171875-1.71002197265625-4.169921875,1.989990234375-4,4.83001708984375.1199951171875,4.77996826171875.199951171875,9.489990234375.3699951171875,14.239990234375.010009765625,15.0799560546875-.1900634765625,30.15997314453125.1700439453125,45.239990234375,1.139892578125,7.739990234375-4.300048828125,19.28997802734375,4.39990234375,23.77001953125,14.2200927734375,6.90997314453125,28.090087890625,14.55999755859375,42.25,21.5899658203125,35.10009765625,17.1500244140625,69.580078125,35.46002197265625,104.610107421875,52.780029296875,10.8798828125,5.0999755859375,21.7099609375,10.27996826171875,32.119873046875,16.30999755859375,7.170166015625,2.92999267578125,14,6.32000732421875,20.580078125,10.47998046875,3.8599853515625,2.27001953125,5.280029296875-.010009765625,5.1300048828125-3.66998291015625ZM449.171129444310282,211.30999755859375c-.2900390625-4.19000244140625-.0899658203125-8.38995361328125-.0899658203125-12.6099853515625-.2799072265625-9.94000244140625.0999755859375-19.8699951171875-.3199462890625-29.82000732421875-.070068359375-9.40997314453125.199951171875-18.82000732421875.0599365234375-28.22998046875-.1500244140625-2.260009765625.9400634765625-6.40997314453125-1.0499267578125-7.70001220703125-1.25-.3800048828125-3.7000732421875,1.20001220703125-5.130126953125,2.030029296875-6.349853515625,3.3299560546875-12.9599609375,5.8800048828125-19.139892578125,9.53997802734375-10.760009765625,5.6099853515625-21.9200439453125,10.52001953125-32.570068359375,16.3499755859375-24.050048828125,11.27001953125-47.0999755859375,24.62005615234375-71.3099365234375,35.60003662109375-12.1500244140625,6.8900146484375-25.02001953125,12.3699951171875-37.280029296875,19.0899658203125-12.2799072265625,5.9200439453125-23.8800048828125,13.22003173828125-36.469970703125,18.510009765625-7.530029296875,2.10003662109375-5.6900634765625,7.33001708984375-5.510009765625,13.489990234375-.7000732421875,12.32000732421875-.489990234375,24.69000244140625-.489990234375,37.050048828125.0599365234375,6.3800048828125.1300048828125,12.82000732421875.2899169921875,19.2099609375-.22998046875,4.85003662109375-.409912109375,9.739990234375-.2899169921875,14.61004638671875-.010009765625,1.37994384765625.0699462890625,3.7099609375.8800048828125,4.469970703125,2.8798828125,1.71002197265625,9.75-4.28997802734375,13.139892578125-5.510009765625,16.400146484375-7.3699951171875,32.030029296875-16.27001953125,48.050048828125-24.3900146484375,10.1400146484375-4.1099853515625,19.330078125-10.05999755859375,29.35009765625-14.41998291015625,12.2799072265625-5.91998291015625,24.18994140625-12.6199951171875,36.349853515625-18.80999755859375,11.630126953125-5.469970703125,23.2200927734375-11.08001708984375,34.39013671875-17.469970703125,10.0499267578125-4.1500244140625,19.5499267578125-9.60003662109375,29.369873046875-14.280029296875,5.280029296875-3.3499755859375,12.400146484375-4.95001220703125,16.590087890625-9.6099853515625l.0899658203125-.1400146484375c1.2200927734375-1.94000244140625,1.2200927734375-4.6500244140625,1.0899658203125-6.96002197265625Z"
      />
    </g>
  </g>
</svg>
