<svg viewBox="0 0 373.770998936946853 447.629456706102246">
  <defs>
    <style>
      .cls-1 {
        fill: var(--black);
      }

      .cls-2 {
        fill: #4b4b4b;
      }

      .cls-3 {
        fill: var(--yellow);
      }
    </style>
  </defs>
  <g>
    <g>
      <path
        class="cls-1"
        d="M328.782747037636,431.673027492342953l-.2099609375-.010009765625c-15.469970703125-.8800048828125-31.809814453125.1700439453125-46.64990234375-.42999267578125-.909912109375-.02001953125-1.340087890625-.47998046875-1.320068359375-1.3900146484375-.77001953125-23.8699951171875,1.080078125-49-.369873046875-73.02996826171875,2.22998046875-10.85003662109375.58984375-23.97998046875-13.650146484375-21.97998046875-13.800048828125.5699462890625-27.260009765625.64996337890625-41.119873046875.3599853515625-5.219970703125-.21002197265625-11.320068359375-.70001220703125-16.590087890625.260009765625-3.469970703125.8499755859375-7.52001953125,1.719970703125-7.800048828125,5.699951171875-1.27978515625,8.69000244140625-.85986328125,18.2900390625-.139892578125,27.260009765625-.2099609375,7.8800048828125-1.530029296875,15.52001953125-.18994140625,23.3599853515625-1.330078125,10.08001708984375.409912109375,20.21002197265625-.199951171875,30.4100341796875-.22998046875,2.42999267578125.58984375,5.469970703125.33984375,7.5999755859375-.5400390625,3.96002197265625-5.7900390625.9200439453125-8.389892578125,1.48004150390625-7.10009765625.22998046875-7.590087890625,1.8299560546875-8.050048828125-3.82000732421875-.330078125-30.70001220703125.56005859375-61.530029296875-.169921875-92.1700439453125,1.759765625-25.6099853515625-1.340087890625-51.18994140625.719970703125-76.68994140625.320068359375-8.9200439453125-5.800048828125-12.11004638671875-13.7900390625-11.6500244140625-6.77001953125.41998291015625-13.719970703125.71002197265625-20.050048828125.08001708984375-7.949951171875,1.949951171875-43.919921875-3.8699951171875-45.199951171875,4.2099609375-3.630126953125,10.6700439453125-.93994140625,36.489990234375-1.22998046875,50.6600341796875-.5,40.94000244140625.0400390625,81.94000244140625-.239990234375,122.8699951171875.010009765625,1.8900146484375.099853515625,3.739990234375.080078125,5.57000732421875,0,.57000732421875-.47021484375.8599853515625-.980224609375.8699951171875-13.769775390625-1.30999755859375-16.349853515625,6.04998779296875-15.429931640625-10.32000732421875,1.110107421875-120.58001708984375-.389892578125-241.85003662109375.64990234375-362.16998291015625,1.080078125-12.99005126953125-12.58984375-11.72003173828125-22.039794921875-11.73004150390625-12.210205078125,1.04998779296875-24.06005859375-.0899658203125-36.130126953125.1600341796875-10.760009765625.01995849609375-25.60986328125-2.5400390625-21.780029296875,13.70001220703125-.6298828125,22.3399658203125-.719970703125,44.64996337890625-.639892578125,66.989990234375.81005859375,99.30999755859375-.169921875,198.6099853515625.489990234375,297.88995361328125,1.760009765625,7.1700439453125-11.139892578125,7.4300537109375-8.2900390625,14.800048828125,4.369873046875,11.78997802734375,17.090087890625,5.04998779296875,26.22998046875,6.28997802734375,9.219970703125.53997802734375,18.0400390625.57000732421875,27.2099609375.260009765625,27.56005859375-.27001953125,54.6201171875.94000244140625,82.110107421875.02001953125,62.199951171875.0699462890625,124.449951171875.25,186.739990234375-.02001953125,3.110107421875.41998291015625,7.110107421875,1.3900146484375,9.820068359375-.9000244140625,6.2099609375-4.3399658203125,5.679931640625-14.82000732421875-3.740234375-14.489990234375ZM70.212922818886,431.533012843905453c-2.06005859375-.14996337890625-4.320068359375-.19000244140625-6.39990234375-.29998779296875-12.960205078125-.1099853515625-27.26025390625.530029296875-39.380126953125.1300048828125l-.080078125-.08001708984375c.050048828125-116.8800048828125.56005859375-236-.030029296875-353.449951171875,1.43017578125-3.33001708984375-2.699951171875-14.74005126953125.93017578125-14.95001220703125,14.83984375,1.02996826171875,31.83984375-.4000244140625,47,.2099609375.9599609375,99.4100341796875-.18017578125,200.10003662109375.349853515625,299.95001220703125.10009765625,21.6600341796875-.320068359375,43.2900390625.080078125,64.9100341796875.330078125,3.00994873046875.550048828125,3.63995361328125-2.469970703125,3.5799560546875ZM168.982942350136,267.123039699374203c-8.469970703125,18.3699951171875-33.18994140625,32.32000732421875-45.3701171875,49.97998046875-2.869873046875,2.92999267578125-4.239990234375,2.08001708984375-2.85986328125-1.6099853515625-.010009765625-1.6199951171875-1.5400390625-2.84002685546875-.60009765625-4.34002685546875,6.2900390625-3.5,53.1298828125-58.5,48.830078125-44.02996826171875ZM168.982942350136,331.123039699374203c-8.469970703125,18.3699951171875-33.18994140625,32.32000732421875-45.3701171875,49.97998046875-2.869873046875,2.92999267578125-4.239990234375,2.08001708984375-2.85986328125-1.6099853515625-.010009765625-1.6199951171875-1.5400390625-2.84002685546875-.60009765625-4.34002685546875,6.2900390625-3.5,53.1298828125-58.5,48.830078125-44.02996826171875ZM138.122834928261,382.023003078280453c-7.550048828125,2.83001708984375-19.300048828125,29.050048828125-17.9599609375,9.27001953125,15.800048828125-13.760009765625,34.800048828125-38.239990234375,48.7900390625-47.02996826171875,1.89990234375,11.969970703125-23.860107421875,26.449951171875-30.830078125,37.75994873046875ZM120.162873990761,359.293022609530453c15.800048828125-13.760009765625,34.800048828125-38.239990234375,48.7900390625-47.02996826171875,1.89990234375,11.969970703125-23.860107421875,26.449951171875-30.830078125,37.75994873046875-7.550048828125,2.83001708984375-19.300048828125,29.050048828125-17.9599609375,9.27001953125ZM168.982942350136,299.123039699374203c-8.469970703125,18.3699951171875-33.18994140625,32.32000732421875-45.3701171875,49.97998046875-2.869873046875,2.92999267578125-4.239990234375,2.08001708984375-2.85986328125-1.6099853515625-.010009765625-1.6199951171875-1.5400390625-2.84002685546875-.60009765625-4.34002685546875,6.2900390625-3.5,53.1298828125-58.5,48.830078125-44.02996826171875ZM120.162873990761,327.293022609530453c15.800048828125-13.760009765625,34.800048828125-38.239990234375,48.7900390625-47.02996826171875,1.89990234375,11.969970703125-23.860107421875,26.449951171875-30.830078125,37.75994873046875-7.550048828125,2.83001708984375-19.300048828125,29.050048828125-17.9599609375,9.27001953125ZM120.232942350136,262.893059230624203c12.169921875-1.87005615234375,8.969970703125.40997314453125,2.3798828125,6.00994873046875-1.81005859375,4.5-3.43994140625,2.21002197265625-2.3798828125-1.72998046875-.219970703125-1.5-1.570068359375-3.260009765625,0-4.27996826171875ZM120.122834928261,278.963005519686703c5.489990234375-5.51995849609375,11.920166015625-11.739990234375,17.670166015625-16.469970703125,1.679931640625.97998046875,7.0498046875-1.54998779296875,6.329833984375,1.260009765625-5.47998046875,7.80999755859375-16.7900390625,14.1400146484375-22.3798828125,22.7099609375-2.77001953125,3.21002197265625-2.190185546875-6.3199462890625-1.6201171875-7.5ZM120.132844693886,295.043022609530453c13.489990234375-9.760009765625,22.449951171875-29.8900146484375,39.340087890625-32.40997314453125-6.22998046875,12.27996826171875-27.909912109375,26.13995361328125-37.840087890625,40.010009765625-2.35986328125,2.25994873046875-1.14990234375-2.4100341796875-1.06005859375-3.55999755859375-.1298828125-1.530029296875-1.349853515625-2.72003173828125-.43994140625-4.0400390625ZM120.152864225136,407.153007961092953c6.2900390625-3.5,53.1298828125-58.5,48.830078125-44.02996826171875-8.469970703125,18.3699951171875-33.18994140625,32.32000732421875-45.3701171875,49.97998046875-2.869873046875,2.92999267578125-4.239990234375,2.08001708984375-2.85986328125-1.6099853515625-.010009765625-1.6199951171875-1.5400390625-2.84002685546875-.60009765625-4.34002685546875ZM120.162873990761,423.293022609530453c15.800048828125-13.760009765625,34.800048828125-38.239990234375,48.7900390625-47.02996826171875,1.89990234375,11.969970703125-23.860107421875,26.449951171875-30.830078125,37.75994873046875-7.550048828125,2.83001708984375-19.300048828125,29.050048828125-17.9599609375,9.27001953125ZM128.102815397011,431.243034816561703c10.16015625-10.29998779296875,21.030029296875-21.20001220703125,31.760009765625-31.0999755859375,3.5-2.780029296875,10.739990234375-14.74005126953125,8.469970703125-4.09002685546875.760009765625,7.780029296875-11.059814453125,12.969970703125-16.579833984375,19.04998779296875-5.920166015625,6.67999267578125-14.280029296875,19.21002197265625-23.650146484375,16.1400146484375ZM164.482942350136,431.473015285311703c-1.489990234375.1700439453125-3.590087890625,1.9100341796875-4.39013671875-.1099853515625.0400390625-1.6500244140625,11.8701171875-13.489990234375,8.170166015625-4.47998046875,1.22998046875,3.77996826171875,1.179931640625,5.80999755859375-3.780029296875,4.5899658203125ZM144.122834928261,431.333061672030453c6.429931640625-8.60003662109375,17.6201171875-14.75,23.25-24.24005126953125,10.39013671875,1.96002197265625-17.68994140625,31.22003173828125-23.25,24.24005126953125ZM252.612825162636,431.003044582186703c-9.2900390625.3599853515625-18.1298828125.3599853515625-27.56005859375-.010009765625-2.27978515625-.16998291015625-4.679931640625,1.33001708984375-6.73974609375,1.3800048828125-.75,0-1.60009765625-.25-1.93017578125-.82000732421875l-.06005859375-.1300048828125c-.68994140625-22.72998046875,1.0400390625-46.91998291015625.010009765625-69.95001220703125-.269775390625-1.8499755859375,0-4-.309814453125-5.989990234375-.1201171875-1.3499755859375-.420166015625-3.30999755859375.22998046875-4.3599853515625.56982421875-.97003173828125,2.22998046875-.6500244140625,3.22998046875-.280029296875.909912109375.34002685546875,1.6298828125.550048828125,2.58984375.530029296875,10.68017578125-.02001953125,21.1201171875-.29998779296875,31.780029296875-.010009765625,3.02001953125.21002197265625,10.580078125-2.83001708984375,10.840087890625,1.5999755859375-.5,22.6400146484375.10986328125,45.4200439453125-.22998046875,68.1700439453125,1.2900390625,14.79998779296875.64990234375,10.44000244140625-11.85009765625,9.8699951171875ZM373.252961881386,394.623039699374203l-.06005859375-.16998291015625c-25.60009765625-57.300048828125-50.89013671875-115.6300048828125-77.090087890625-172.97003173828125-3.58984375-8.20001220703125,8.7900390625-12.719970703125,15.91015625-19.5,2.47998046875-1.969970703125,3.639892578125-4.719970703125,5.419921875-7.14996337890625,25.099853515625-28.800048828125,32.4599609375-70.59002685546875,23.130126953125-107.1300048828125-27.840087890625-104.33001708984375-170.050048828125-117.9100341796875-220.710205078125-28.1800537109375-51.60986328125,87.760009765625,31.260009765625,199.6400146484375,128.85009765625,177.25,1.169921875-.30999755859375,1.919921875-.01995849609375,2.340087890625,1.07000732421875,22.679931640625,50.48004150390625,44.56982421875,100.98004150390625,67.469970703125,151.1700439453125,1.760009765625,3.94000244140625,3.369873046875,7.969970703125,5.1298828125,11.91998291015625,2.2900390625,5.27996826171875,4.47998046875,12.4000244140625,8.97998046875,16.1099853515625,3.06005859375,2.4100341796875,6.690185546875,1.96002197265625,10.110107421875-.30999755859375,8.619873046875-6.1300048828125,35.0498046875-8.5,30.52001953125-22.1099853515625ZM308.762971647011,90.223015285311703c4.33984375-1.63995361328125,8.329833984375-4.64996337890625,12.849853515625-5.82000732421875.31005859375-.04998779296875.580078125-.02996826171875.800048828125.09002685546875,9.340087890625,22.6300048828125,7.340087890625,49.07000732421875-.570068359375,71.96002197265625l-.06982421875.16998291015625c-9.06005859375,22.72998046875-25.72021484375,43.20001220703125-48.02001953125,54.0899658203125-.22998046875-.05999755859375-.43017578125-.239990234375-.590087890625-.5-2.159912109375-4.3199462890625-3.7900390625-9.1199951171875-5.550048828125-13.5899658203125,36.47998046875-23.010009765625,53.43994140625-62.8800048828125,40.570068359375-104.9000244140625-.2099609375-.70001220703125-.080078125-1.2099609375.580078125-1.5ZM140.882844693886,146.683037257967953c.18017578125.5999755859375.0400390625,1.22998046875-.60986328125,1.47998046875-4.330078125,1.6400146484375-8.320068359375,4.6600341796875-12.860107421875,5.82000732421875-.300048828125.04998779296875-.570068359375.030029296875-.7900390625-.0899658203125-9.340087890625-22.6300048828125-7.340087890625-49.07000732421875.570068359375-71.96002197265625l.070068359375-.16998291015625c9.050048828125-22.73004150390625,25.719970703125-43.19000244140625,48.019775390625-54.10003662109375.230224609375.07000732421875.420166015625.25.580078125.510009765625,2.16015625,4.09002685546875,3.43994140625,8.72998046875,5.39013671875,12.91998291015625.35986328125.780029296875.1298828125,1.34002685546875-.7001953125,1.800048828125-36.259765625,21-52.289794921875,64.1099853515625-39.669921875,103.78997802734375ZM219.462922818886,141.403007961092953c-4.68017578125,10.300048828125-10.35009765625,20.3699951171875-14.989990234375,30.9300537109375-1.97998046875,3.97998046875-.409912109375,9.89996337890625-.300048828125,13.16998291015625.10986328125,2.5999755859375-1.14990234375,3.14996337890625-3.489990234375,2.29998779296875-58.06005859375-19.1500244140625-65.10009765625-106.010009765625-9.080078125-132.83001708984375l.050048828125.02001953125c-19.33984375,32.44000244140625-33.93994140625,107,27.2099609375,85.55999755859375.91015625-.3599853515625.969970703125.030029296875.60009765625.8499755859375ZM232.712922818886,188.083061672030453c-26.64990234375.15997314453125-4.72998046875-23.23004150390625.10009765625-38.21002197265625l.059814453125-.1500244140625c5.989990234375-13.3499755859375,11.510009765625-29.75,9.239990234375-44.6300048828125-.08984375-.8299560546875-.6298828125-1.469970703125-1.489990234375-1.4599609375-3.820068359375-.1500244140625-7.059814453125,2.4599609375-10.14990234375,5.78997802734375-4.06005859375,4.3800048828125-7.880126953125,10.02001953125-12.47998046875,12.4000244140625-2.150146484375,1.2099609375-3.820068359375,2.6199951171875-5.97998046875,3.79998779296875-29.420166015625,16.41998291015625-23.090087890625-29.8900146484375-12.880126953125-47.70001220703125,3.510009765625-9.6400146484375,14.39013671875-36.72998046875,22.66015625-25.3800048828125.39990234375.69000244140625.2998046875,1.44000244140625-.110107421875,2.09002685546875-10.9599609375,17.55999755859375-15.669921875,38.38995361328125-19,58.97998046875-.25,1.08001708984375-.179931640625,2.94000244140625.43994140625,3.3800048828125,1.940185546875,1.77996826171875,8.170166015625-5.95001220703125,15.77001953125-13.1500244140625,6.06005859375-5.5999755859375,14.900146484375-13.469970703125,23.080078125-10.40997314453125,31.820068359375,22.739990234375,5.349853515625,68.1500244140625-9.260009765625,94.6500244140625ZM253.892854459511,185.243034816561703c16.070068359375-32.22998046875,37.239990234375-96.19000244140625-13.610107421875-108.1500244140625-2.10986328125-.6199951171875-4.8798828125.010009765625-7.269775390625.5400390625-2.460205078125.53997802734375-4.5.969970703125-4.93017578125-.20001220703125-.539794921875-2.69000244140625,2.8701171875-5.72998046875,4.070068359375-7.8900146484375,1.3798828125-2.15997314453125,2.300048828125-3.89996337890625,3.2099609375-6.19000244140625,3.22998046875-8.1099853515625,1.39013671875-13.20001220703125,3.820068359375-14.28997802734375,66.89990234375,9.3800048828125,77.2099609375,110.6400146484375,14.840087890625,136.1400146484375l-.130126953125.03997802734375ZM265.902864225136,232.113029933749203c2.469970703125-.78997802734375,4.699951171875-3.02001953125,7.320068359375-3.30999755859375-2.760009765625,6.5999755859375-3.2900390625,16.83001708984375-7.320068359375,3.30999755859375ZM272.452913053261,246.633049464999203c1.52001953125-2.11004638671875,7.739990234375-24.97003173828125,9.280029296875-20.61004638671875,4.58984375,6.99005126953125-.989990234375,12.2900390625-2.650146484375,19.5-2.119873046875,10.09002685546875-4.6298828125,10.70001220703125-6.6298828125,1.11004638671875ZM278.972932584511,261.263054347811703c1.989990234375-5.61004638671875,4.10986328125-11.4000244140625,6.829833984375-16.71002197265625.580078125-7.1300048828125,1.93017578125-5.27001953125,3.420166015625-.08001708984375,4.5,5.8699951171875-5.77001953125,16.07000732421875-6.10009765625,23.04998779296875-1.0400390625,3.20001220703125-3.97998046875-3.969970703125-4.14990234375-6.25994873046875ZM285.472932584511,275.873039699374203c1.52001953125-2.1199951171875,7.72998046875-24.97998046875,9.27001953125-20.6099853515625,4.599853515625,6.97998046875-.97998046875,12.27996826171875-2.64013671875,19.489990234375-2.119873046875,10.0899658203125-4.639892578125,10.70001220703125-6.6298828125,1.1199951171875ZM293.112825162636,295.143059230624203c-3.56005859375-6.71002197265625,1.7099609375-10.24005126953125,3.7900390625-16.19000244140625,2.219970703125-2.73004150390625-.010009765625-8.20001220703125,3.3798828125-9.6700439453125,1.990234375.35003662109375.400146484375,4.530029296875,2.6201171875,5.44000244140625,1.679931640625,7.0400390625-6.530029296875,14.72003173828125-6.64990234375,22.4100341796875-.89013671875,2.70001220703125-2.610107421875-.67999267578125-3.14013671875-1.989990234375ZM298.502961881386,305.113029933749203c2.199951171875-2.72998046875,7.889892578125-29.52001953125,10.25-17.59002685546875,4.0498046875,6.37005615234375-3.9501953125,12.030029296875-4.570068359375,18.75-1.7900390625,10.71002197265625-4.10009765625,4.8900146484375-5.679931640625-1.15997314453125ZM306.122834928261,324.373039699374203c-3.559814453125-6.71002197265625,1.7099609375-10.239990234375,3.800048828125-16.17999267578125,2.219970703125-2.73004150390625-.02001953125-8.20001220703125,3.3798828125-9.67999267578125,1.990234375.3499755859375.39013671875,4.52996826171875,2.610107421875,5.449951171875,1.679931640625,7.030029296875-6.530029296875,14.71002197265625-6.64990234375,22.4000244140625-.89013671875,2.70001220703125-2.60009765625-.66998291015625-3.14013671875-1.989990234375ZM311.522981412636,334.343010402499203c2.18994140625-2.72998046875,7.889892578125-29.51995849609375,10.239990234375-17.5899658203125,4.050048828125,6.3699951171875-3.949951171875,12.02996826171875-4.56005859375,18.75-1.7900390625,10.7099609375-4.110107421875,4.8900146484375-5.679931640625-1.1600341796875ZM322.672883756386,351.943047023592953c-.580078125,7.1300048828125-1.929931640625,5.26995849609375-3.419921875.0799560546875-4.510009765625-5.8699951171875,5.77001953125-16.0699462890625,6.099853515625-23.04998779296875,1.0400390625-3.20001220703125,3.97998046875,3.97003173828125,4.150146484375,6.260009765625-1.989990234375,5.6099853515625-4.110107421875,11.4000244140625-6.830078125,16.71002197265625ZM324.532747037636,363.583061672030453c2.2001953125-2.74005126953125,7.89013671875-29.52001953125,10.25-17.60003662109375,4.050048828125,6.3699951171875-3.949951171875,12.030029296875-4.559814453125,18.760009765625-1.800048828125,10.71002197265625-4.110107421875,4.8800048828125-5.690185546875-1.15997314453125ZM334.222932584511,385.683037257967953c-1.989990234375-.3499755859375-.400146484375-4.530029296875-2.6201171875-5.45001220703125-1.679931640625-7.02996826171875,6.530029296875-14.71002197265625,6.650146484375-22.39996337890625.889892578125-2.70001220703125,2.60986328125.66998291015625,3.139892578125,1.989990234375,3.56005859375,6.7099609375-1.7099609375,10.239990234375-3.7900390625,16.17999267578125-2.219970703125,2.739990234375.010009765625,8.2099609375-3.3798828125,9.67999267578125ZM337.552766568886,392.813042140780453c2.190185546875-2.72998046875,7.89013671875-29.52001953125,10.25-17.59002685546875,4.0400390625,6.3699951171875-3.949951171875,12.030029296875-4.56982421875,18.75-1.7900390625,10.71002197265625-4.10009765625,4.8900146484375-5.68017578125-1.15997314453125ZM351.842805631386,395.413017726717953c-5.679931640625,3.9200439453125-3.2998046875-1.51995849609375-.7900390625-5.5899658203125.39013671875-1.21002197265625-.85986328125-3.800048828125,1.25-3.59002685546875,1.91015625.17999267578125.490234375,2.6400146484375,1.2900390625,3.82000732421875,3.18017578125,2.489990234375,2.340087890625,5.3800048828125-1.75,5.3599853515625Z"
      />
      <path
        class="cls-2"
        d="M252.612825162636,431.003044582186703c-9.2900390625.3599853515625-18.1298828125.3599853515625-27.56005859375-.010009765625-2.27978515625-.16998291015625-4.679931640625,1.33001708984375-6.73974609375,1.3800048828125-.75,0-1.60009765625-.25-1.93017578125-.82000732421875l-.06005859375-.1300048828125c-.68994140625-22.72998046875,1.0400390625-46.91998291015625.010009765625-69.95001220703125-.269775390625-1.8499755859375,0-4-.309814453125-5.989990234375-.1201171875-1.3499755859375-.420166015625-3.30999755859375.22998046875-4.3599853515625.56982421875-.97003173828125,2.22998046875-.6500244140625,3.22998046875-.280029296875.909912109375.34002685546875,1.6298828125.550048828125,2.58984375.530029296875,10.68017578125-.02001953125,21.1201171875-.29998779296875,31.780029296875-.010009765625,3.02001953125.21002197265625,10.580078125-2.83001708984375,10.840087890625,1.5999755859375-.5,22.6400146484375.10986328125,45.4200439453125-.22998046875,68.1700439453125,1.2900390625,14.79998779296875.64990234375,10.44000244140625-11.85009765625,9.8699951171875Z"
      />
      <path
        class="cls-3"
        d="M254.022981412636,185.203056789217953l-.130126953125.03997802734375c16.070068359375-32.22998046875,37.239990234375-96.19000244140625-13.610107421875-108.1500244140625-2.10986328125-.6199951171875-4.8798828125.010009765625-7.269775390625.5400390625-2.460205078125.53997802734375-4.5.969970703125-4.93017578125-.20001220703125-.539794921875-2.69000244140625,2.8701171875-5.72998046875,4.070068359375-7.8900146484375,1.3798828125-2.15997314453125,2.300048828125-3.89996337890625,3.2099609375-6.19000244140625,3.22998046875-8.1099853515625,1.39013671875-13.20001220703125,3.820068359375-14.28997802734375,66.89990234375,9.3800048828125,77.2099609375,110.6400146484375,14.840087890625,136.1400146484375ZM218.862825162636,140.553032375155453c-61.14990234375,21.44000244140625-46.5498046875-53.1199951171875-27.2099609375-85.55999755859375l-.050048828125-.02001953125c-56.02001953125,26.82000732421875-48.97998046875,113.67999267578125,9.080078125,132.83001708984375,2.340087890625.8499755859375,3.599853515625.29998779296875,3.489990234375-2.29998779296875-.10986328125-3.27001953125-1.679931640625-9.19000244140625.300048828125-13.16998291015625,4.639892578125-10.56005859375,10.309814453125-20.6300048828125,14.989990234375-30.9300537109375.369873046875-.8199462890625.31005859375-1.2099609375-.60009765625-.8499755859375ZM72.682893522011,427.953056789217953c-.400146484375-21.6199951171875.02001953125-43.25-.080078125-64.9100341796875-.530029296875-99.8499755859375.610107421875-200.53997802734375-.349853515625-299.95001220703125-15.16015625-.6099853515625-32.16015625.82000732421875-47-.2099609375-3.630126953125.2099609375.5,11.6199951171875-.93017578125,14.95001220703125.590087890625,117.449951171875.080078125,236.5699462890625.030029296875,353.449951171875l.080078125.08001708984375c12.119873046875.4000244140625,26.419921875-.239990234375,39.380126953125-.1300048828125,2.079833984375.1099853515625,4.33984375.1500244140625,6.39990234375.29998779296875,3.02001953125.05999755859375,2.800048828125-.57000732421875,2.469970703125-3.5799560546875Z"
      />
    </g>
  </g>
</svg>
