<svg viewBox="0 0 464.153341167151666 328.876345465976556">
  <defs>
    <style>
      .cls-1 {
        fill: var(--black);
      }

      .cls-2 {
        fill: var(--yellow);
      }

      .cls-3 {
        fill: #878787;
      }
    </style>
  </defs>
  <g>
    <g>
      <path
        class="cls-1"
        d="M421.338769808360667,258.166384528476556c-2.780029296875-1.6700439453125-6.150146484375-1.6700439453125-9.320068359375-1.780029296875-39.669921875.91998291015625-79.449951171875-.27001953125-119.10986328125.52001953125-15.190185546875-.6199951171875-30.02001953125-.33001708984375-45.2900390625-.4100341796875-8.2001953125-.27996826171875-16.490234375-.04998779296875-24.630126953125.58001708984375-1.64990234375.05999755859375-3.3798828125.57000732421875-4.52001953125,1.9000244140625-4.469970703125,4.90997314453125-.4599609375,12.79998779296875,5.85009765625,13.94000244140625l.18994140625.02996826171875c64.72998046875-1.08001708984375,129.97998046875.3800048828125,194.739990234375-.760009765625,5.719970703125-1.91998291015625,7.2900390625-10.5799560546875,2.090087890625-14.01995849609375ZM312.038720980235667,230.036379645664056c-1.110107421875-4.96002197265625-5.860107421875-5.030029296875-10.89990234375-5.6600341796875-9.22021484375-.719970703125-22.41015625.58001708984375-30.7001953125.6500244140625-2.64990234375.1199951171875-4.599853515625-.32000732421875-7.0400390625-.17999267578125-6.949951171875,1.8299560546875-46.2099609375-6.9100341796875-46.619873046875,7.67999267578125v.14996337890625c.2099609375,14.86004638671875,39.260009765625,4.96002197265625,49.159912109375,7.87005615234375,6.130126953125.40997314453125,12.18017578125-.1600341796875,18.260009765625-.050048828125,5.89013671875.3900146484375,11.090087890625.4100341796875,17.239990234375.030029296875,2.47021484375-.1500244140625,5.340087890625-.52001953125,7.39013671875-1.46002197265625,3.669921875-1.3699951171875,4.429931640625-5.47998046875,3.2099609375-9.02996826171875ZM279.558740511485667,197.406374762851556c-2.719970703125-8.1199951171875-11.7099609375-4.280029296875-18.219970703125-4.2900390625-13.260009765625-1.6099853515625-26.739990234375.48004150390625-40.10009765625-.91998291015625-14.25.30999755859375-28.1298828125.9100341796875-42.360107421875.46002197265625-3.5498046875-.3900146484375-7.9697265625.80999755859375-9.4599609375,4.15997314453125-2.679931640625,5.08001708984375.52001953125,11.46002197265625,6.820068359375,11.489990234375l.2099609375.02001953125c20.420166015625,1.1400146484375,41.2900390625-.6500244140625,61.690185546875.54998779296875,3.52978515625.21002197265625,6.02978515625-.989990234375,10-.75,9.349853515625-.510009765625,36.289794921875,6.58001708984375,31.419921875-10.719970703125ZM256.738672152110667,160.176333258945306l-.199951171875-.00994873046875c-22.030029296875.8299560546875-43.97998046875.3499755859375-66.169921875.469970703125-1.89013671875-.04998779296875-4.240234375-.79998779296875-6.150146484375-.5-5.5.58001708984375-9.0400390625,7.17999267578125-7.02001953125,11.95001220703125,1.190185546875,3.40997314453125,5.7900390625,4.83001708984375,9.27001953125,4.52996826171875,11.170166015625.10003662109375,22.190185546875.58001708984375,33.35009765625-.1199951171875,11.7099609375-.05999755859375,23.25.57000732421875,34.949951171875-.00994873046875,3.570068359375.1099853515625,7.77001953125-1.34002685546875,8.89013671875-4.97003173828125,1.929931640625-4.79998779296875-1.10009765625-11.27001953125-6.920166015625-11.34002685546875ZM264.198633089610667,133.246340583164056c-6.039794921875-8.72998046875-40.3798828125-3.17999267578125-47.300048828125-5.07000732421875-12.7998046875.98004150390625-25.699951171875.24005126953125-38.639892578125.510009765625-3.179931640625-.13995361328125-7.179931640625.1700439453125-8.639892578125,3.42999267578125-2.72998046875,4.9200439453125.2099609375,13.0400390625,6.679931640625,12.800048828125l.199951171875.00994873046875c16.510009765625-1.02996826171875,32.949951171875.3800048828125,49.5-.6099853515625,7.280029296875-.260009765625,14.580078125.75,21.830078125.79998779296875,2.7900390625.02001953125,5.56982421875-.0999755859375,8.330078125-.5,1.619873046875-.27996826171875,3.329833984375-.3399658203125,4.809814453125-1.5999755859375,2.969970703125-2.6099853515625,4.85009765625-7.84002685546875,3.22998046875-9.77001953125ZM241.758691683360667,96.866335700351556c-1.699951171875.1400146484375-3.2099609375.1400146484375-4.89990234375.010009765625-9.150146484375-.44000244140625-18.030029296875.1700439453125-27.150146484375-.66998291015625-14.449951171875.469970703125-28.5400390625.53997802734375-42.889892578125.57000732421875-5.89013671875-.09002685546875-12.170166015625-1.45001220703125-17.739990234375.91998291015625-1.669921875.72003173828125-3.6201171875,1.8800048828125-4.14013671875,4.02001953125-1.08984375,4.03997802734375.72998046875,8.27001953125,4.10009765625,9.57000732421875,4.919921875,2.219970703125,11.550048828125,1.5899658203125,16.909912109375,1.39996337890625,12.340087890625-.26995849609375,24.35009765625.0400390625,36.699951171875-.25,13.330078125.4000244140625,26.380126953125.17999267578125,39.66015625-.19000244140625,7.39990234375.24005126953125,21.780029296875,3.8800048828125,22.1298828125-7.51995849609375v-.21002197265625c-.68994140625-11.33001708984375-15.199951171875-8.03997802734375-22.679931640625-7.6500244140625ZM280.588769808360667,32.696352790195306l-.179931640625-.010009765625c-50.27001953125-.16998291015625-100.550048828125-.0899658203125-150.89013671875.1500244140625-2.719970703125-.1300048828125-4.72998046875.010009765625-7.550048828125-.1400146484375-4.889892578125-.2099609375-11-.78997802734375-15.929931640625-.219970703125-3.06005859375.3499755859375-5.66015625,1.13995361328125-7.25,2.72998046875-5.550048828125,8.66998291015625-.5400390625,24.95001220703125-2.1201171875,35.469970703125-.5400390625,5.9300537109375,3.550048828125,9.33001708984375,9.580078125,9.97003173828125,48.919921875.0999755859375,97.85009765625.0999755859375,146.68994140625-.29998779296875,9.340087890625-.1600341796875,26.25,3.66998291015625,33.530029296875-2.85003662109375,1.699951171875-1.66998291015625,2.080078125-4.38995361328125,1.659912109375-6.719970703125-1.35986328125-11.30999755859375,6.4501953125-37.34002685546875-7.539794921875-38.08001708984375ZM113.158838167735667,63.996340583164056c-1.480224609375.260009765625-1.330078125-5.30999755859375-.7001953125-7.64996337890625l.080078125-.1500244140625c1.320068359375-1.77996826171875,3.10009765625-3.22998046875,4.489990234375-4.8800048828125,1.080078125-1.01995849609375,1.929931640625-2.6300048828125,3.4599609375-3,2.080078125-.27996826171875,5.43994140625-.89996337890625,6.780029296875-.2099609375.60009765625.3599853515625.070068359375.989990234375-.2900390625,1.3800048828125-3.179931640625,3.43994140625-7.969970703125,7.78997802734375-11.22998046875,11.949951171875-.639892578125.83001708984375-1.6201171875,2.3699951171875-2.58984375,2.55999755859375ZM125.488672152110667,65.126345465976556c-1.419921875-.15997314453125-3.25.1300048828125-4.52001953125.4200439453125-.669921875.0699462890625-1.119873046875-.23004150390625-1.10986328125-.71002197265625l.010009765625-.1199951171875c.02978515625-.2900390625.2099609375-.6099853515625.449951171875-.9100341796875,2.929931640625-3.42999267578125,7.389892578125-7.6199951171875,10.919921875-11.489990234375,1.159912109375-1.26995849609375,2.389892578125-2.64996337890625,3.949951171875-3.3699951171875,1.590087890625-.79998779296875,3.66015625-.719970703125,5.4599609375-.92999267578125,6.830078125-.59002685546875-3.039794921875,6.20001220703125-4.58984375,7.3900146484375-4.320068359375,2.5-5.5400390625,9.8399658203125-10.570068359375,9.719970703125ZM137.838769808360667,64.836367438632806c-.840087890625-.08001708984375-1.7900390625.08001708984375-2.5-.3499755859375l-.050048828125-.06005859375c-.110107421875-.26995849609375.330078125-.66998291015625.550048828125-.91998291015625,4.280029296875-4.3399658203125,9.219970703125-10.8800048828125,14.919921875-14.45001220703125,1.7099609375-.75,3.969970703125-1.0699462890625,5.830078125-1.1099853515625,5.300048828125.35003662109375-2.89013671875,5.47998046875-4.31005859375,6.47003173828125-5.869873046875,5.3399658203125-6.169921875,11.199951171875-14.43994140625,10.41998291015625ZM156.098779573985667,65.126345465976556c-1.420166015625-.15997314453125-3.260009765625.1300048828125-4.52001953125.4200439453125-.669921875.0699462890625-1.1201171875-.23004150390625-1.110107421875-.71002197265625l.010009765625-.1199951171875c.030029296875-.2900390625.2099609375-.6099853515625.449951171875-.9100341796875,2.93017578125-3.42999267578125,7.39013671875-7.6199951171875,10.920166015625-11.489990234375,1.159912109375-1.26995849609375,2.389892578125-2.64996337890625,3.949951171875-3.3699951171875,1.590087890625-.79998779296875,3.659912109375-.719970703125,5.4599609375-.92999267578125,6.820068359375-.59002685546875-3.050048828125,6.20001220703125-4.590087890625,7.3900146484375-4.31982421875,2.5-5.5400390625,9.8399658203125-10.56982421875,9.719970703125ZM168.448633089610667,64.836367438632806c-.83984375-.08001708984375-1.789794921875.08001708984375-2.5-.3499755859375l-.050048828125-.06005859375c-.10986328125-.26995849609375.330078125-.66998291015625.550048828125-.91998291015625,4.280029296875-4.3399658203125,9.219970703125-10.8800048828125,14.920166015625-14.45001220703125,1.7099609375-.75,3.969970703125-1.0699462890625,5.829833984375-1.1099853515625,5.300048828125.35003662109375-2.889892578125,5.47998046875-4.309814453125,6.47003173828125-5.8701171875,5.3399658203125-6.170166015625,11.199951171875-14.440185546875,10.41998291015625ZM186.698633089610667,65.126345465976556c-1.409912109375-.15997314453125-3.25.1300048828125-4.510009765625.4200439453125-.669921875.0699462890625-1.1298828125-.23004150390625-1.10986328125-.71002197265625l.010009765625-.1199951171875c.030029296875-.2900390625.199951171875-.6099853515625.449951171875-.9100341796875,2.919921875-3.42999267578125,7.389892578125-7.6199951171875,10.919921875-11.489990234375,1.16015625-1.26995849609375,2.380126953125-2.64996337890625,3.9501953125-3.3699951171875,1.58984375-.79998779296875,3.659912109375-.719970703125,5.4599609375-.92999267578125,6.81982421875-.59002685546875-3.050048828125,6.20001220703125-4.60009765625,7.3900146484375-4.31005859375,2.5-5.530029296875,9.8399658203125-10.570068359375,9.719970703125ZM199.048730745860667,64.836367438632806c-.830078125-.08001708984375-1.780029296875.08001708984375-2.5-.3499755859375l-.0400390625-.06005859375c-.110107421875-.26995849609375.330078125-.66998291015625.550048828125-.91998291015625,4.280029296875-4.3399658203125,9.219970703125-10.8800048828125,14.919921875-14.45001220703125,1.7099609375-.75,3.969970703125-1.0699462890625,5.830078125-1.1099853515625,5.300048828125.35003662109375-2.89013671875,5.47998046875-4.31005859375,6.47003173828125-5.8701171875,5.3399658203125-6.169921875,11.199951171875-14.449951171875,10.41998291015625ZM217.308740511485667,65.126345465976556c-1.41015625-.15997314453125-3.25.1300048828125-4.510009765625.4200439453125-.670166015625.0699462890625-1.130126953125-.23004150390625-1.110107421875-.71002197265625v-.1199951171875c.0400390625-.2900390625.2099609375-.6099853515625.4501953125-.9100341796875,2.929931640625-3.42999267578125,7.39990234375-7.6199951171875,10.929931640625-11.489990234375,1.159912109375-1.26995849609375,2.3798828125-2.64996337890625,3.949951171875-3.3699951171875,1.590087890625-.79998779296875,3.659912109375-.719970703125,5.4599609375-.92999267578125,6.820068359375-.59002685546875-3.050048828125,6.20001220703125-4.60009765625,7.3900146484375-4.309814453125,2.5-5.52978515625,9.8399658203125-10.56982421875,9.719970703125ZM229.658838167735667,64.836367438632806c-.840087890625-.08001708984375-1.7900390625.08001708984375-2.5-.3499755859375l-.0400390625-.06005859375c-.1201171875-.26995849609375.329833984375-.66998291015625.5498046875-.91998291015625,4.280029296875-4.3399658203125,9.22021484375-10.8800048828125,14.920166015625-14.45001220703125,1.7099609375-.75,3.969970703125-1.0699462890625,5.829833984375-1.1099853515625,5.300048828125.35003662109375-2.889892578125,5.47998046875-4.309814453125,6.47003173828125-5.8701171875,5.3399658203125-6.170166015625,11.199951171875-14.449951171875,10.41998291015625ZM247.918603792735667,65.126345465976556c-1.409912109375-.15997314453125-3.25.1300048828125-4.509765625.4200439453125-.68017578125.0699462890625-1.130126953125-.23004150390625-1.110107421875-.71002197265625v-.1199951171875c.0400390625-.2900390625.2099609375-.6099853515625.449951171875-.9100341796875,2.929931640625-3.42999267578125,7.39990234375-7.6199951171875,10.929931640625-11.489990234375,1.16015625-1.26995849609375,2.380126953125-2.64996337890625,3.949951171875-3.3699951171875,1.590087890625-.79998779296875,3.66015625-.719970703125,5.460205078125-.92999267578125,6.820068359375-.59002685546875-3.050048828125,6.20001220703125-4.60009765625,7.3900146484375-4.31005859375,2.5-5.530029296875,9.8399658203125-10.570068359375,9.719970703125ZM272.578760042735667,56.846377204257806l-.080078125.14996337890625c-1.320068359375,1.780029296875-3.10009765625,3.23004150390625-4.489990234375,4.8800048828125-1.080078125,1.02001953125-1.929931640625,2.6300048828125-3.4599609375,3-2.080078125.280029296875-5.43994140625.9000244140625-6.780029296875.21002197265625-.60009765625-.3599853515625-.070068359375-.989990234375.2900390625-1.3800048828125,3.179931640625-3.44000244140625,7.969970703125-7.78997802734375,11.22998046875-11.95001220703125.639892578125-.83001708984375,1.6201171875-2.3699951171875,2.58984375-2.55999755859375,1.480224609375-.260009765625,1.330078125,5.30999755859375.7001953125,7.6500244140625ZM358.848779573985667,141.776369880039056c0,.02996826171875-.010009765625.04998779296875-.030029296875.07000732421875.079833984375-.09002685546875.18994140625,0,.260009765625-.08001708984375-.080078125.010009765625-.16015625.010009765625-.22998046875.010009765625ZM358.848779573985667,141.776369880039056c.0498046875-.1300048828125.010009765625-.32000732421875.08984375-.41998291015625-.659912109375.26995849609375-.469970703125.41998291015625-.08984375.41998291015625ZM347.018701448985667,142.056338141757806c-.02001953125.34002685546875-.010009765625.35003662109375.340087890625.07000732421875-.06005859375.010009765625-.239990234375-.01995849609375-.340087890625-.07000732421875ZM347.018701448985667,142.056338141757806c0-.03997802734375.010009765625-.0799560546875.010009765625-.1300048828125-.139892578125.050048828125-.10009765625.10003662109375-.010009765625.1300048828125ZM431.628564730235667,133.696352790195306c-1.559814453125-42.5-32.5-76.8499755859375-79.009765625-76.75l-.240234375.010009765625c-114.419921875,1.94000244140625-98.949951171875,176.760009765625,15.330078125,158.19000244140625,39.760009765625-7.05999755859375,65.719970703125-42.32000732421875,63.919921875-81.45001220703125ZM352.278711214610667,72.236391852695306h.18994140625c11.179931640625.88995361328125,25.380126953125,3.1199951171875,33.320068359375,10.25.820068359375.80999755859375.68994140625,1.65997314453125-.030029296875,2.53997802734375-4.77001953125,5.71002197265625-9.530029296875,10.97998046875-14.419921875,16.52001953125-3.190185546875,4.5-7.02001953125,8.02996826171875-10.1201171875,12.62994384765625-1.5,1.98004150390625-3.22998046875,4.31005859375-4.780029296875,6.1600341796875-1.64990234375,1.92999267578125-2.83984375,1.65997314453125-3.3798828125-.82000732421875-3.2900390625-11.760009765625-10.64990234375-21.84002685546875-14.530029296875-33.4000244140625-.530029296875-1.489990234375-1.199951171875-2.489990234375-2.139892578125-3.8499755859375-7.22998046875-10.3900146484375,6.6298828125-8.90997314453125,15.889892578125-10.02996826171875ZM358.088769808360667,130.366335700351556c-.2900390625-.41998291015625-.449951171875-.65997314453125-.280029296875-.53997802734375.33984375.260009765625.929931640625.8499755859375,1.2900390625,1.20001220703125l.06982421875.1199951171875c.110107421875.52001953125.300048828125,1.19000244140625.490234375,1.75-.360107421875-.84002685546875-1.14013671875-1.90997314453125-1.570068359375-2.530029296875ZM352.188623323985667,150.086367438632806l.080078125-.1600341796875c.27001953125-.65997314453125.7900390625-1.50994873046875,1.5-1.969970703125,1-.760009765625,2.300048828125-.6300048828125,2.27001953125.72998046875-1.02001953125,2.9100341796875-4.5400390625,3.5-6.360107421875,6.23004150390625-.849853515625,1.02996826171875-1.699951171875,2.3699951171875-2.31982421875,3.5899658203125-.280029296875.44000244140625-.489990234375.97003173828125-.64013671875.57000732421875-.030029296875-3.67999267578125,3.929931640625-5.91998291015625,5.469970703125-8.989990234375ZM347.838769808360667,143.086367438632806c.1298828125.0899658203125.449951171875-.1099853515625.579833984375-.030029296875-.27001953125.05999755859375-.559814453125.6600341796875-.579833984375.030029296875ZM307.668603792735667,182.006350348789056c-12.199951171875-7.760009765625-18.449951171875-29.51995849609375-19.60986328125-45.28997802734375v-.17999267578125c.409912109375-18.989990234375,12.31005859375-45.96002197265625,29.33984375-53.29998779296875,1.22998046875-.61004638671875,2.3701171875-.300048828125,3.01025390625,1.01995849609375,5.68994140625,10.7900390625,9.769775390625,22.1400146484375,14.5498046875,33.35003662109375,2.510009765625,5.8800048828125,7.56005859375,11.40997314453125,7.880126953125,18.00994873046875-3.800048828125,9.050048828125-11.31005859375,16.49005126953125-17.219970703125,24.4300537109375-4.860107421875,7.219970703125-9.52001953125,14.53997802734375-15.06005859375,21.13995361328125-.85009765625,1.0400390625-1.75,1.489990234375-2.89013671875.82000732421875ZM322.878564730235667,194.206362555820306c-.449951171875-.219970703125-.949951171875-.54998779296875-1.119873046875-1.02001953125l-.0400390625-.13995361328125c-.10986328125-.47003173828125.130126953125-.98004150390625.5400390625-1.49005126953125,5.590087890625-7.00994873046875,12.18994140625-13.30999755859375,18.909912109375-19.16998291015625,5.02001953125-5.66998291015625,10.440185546875-10.760009765625,15.610107421875-16.1099853515625,1.119873046875-1.17999267578125,2.080078125-2.77001953125,3.64990234375-3.3800048828125,2.25-1.1099853515625,6.610107421875.8699951171875,4.830078125,3.55999755859375-4.050048828125,4.3800048828125-8.97998046875,8.6099853515625-13.099853515625,12.97998046875-6.300048828125,5.8900146484375-12.360107421875,11.550048828125-18.7001953125,17.35003662109375-3.169921875,3-5.27001953125,9.66998291015625-10.580078125,7.41998291015625ZM333.108789339610667,197.956362555820306c-.449951171875-.1500244140625-1.0400390625-.3599853515625-1.25-.780029296875l-.0400390625-.1099853515625c-.080078125-.3399658203125.179931640625-.72998046875.599853515625-1.1300048828125,11.300048828125-10.47998046875,22.66015625-21.07000732421875,33.02001953125-32.5899658203125,1.2099609375-1.32000732421875,2.260009765625-3.030029296875,4.02001953125-3.6700439453125,1.81005859375-.67999267578125,3.969970703125-.3499755859375,5.1201171875,1.08001708984375.679931640625.84002685546875.93994140625,2.030029296875.35986328125,2.67999267578125-.81982421875.800048828125-2.869873046875,1.42999267578125-3.77001953125,2.6600341796875-2.02978515625,2.65997314453125-4.56982421875,4.3399658203125-6.7900390625,6.75-5.389892578125,6.20001220703125-11.58984375,11.28997802734375-17.27978515625,17.17999267578125-4.35009765625,3.05999755859375-7.830078125,9.75-13.989990234375,7.92999267578125ZM345.988672152110667,200.516360114414056c-.43994140625-.07000732421875-1.050048828125-.1400146484375-1.300048828125-.5l-.02978515625-.08001708984375c-.080078125-.239990234375.119873046875-.54998779296875.47998046875-.89996337890625,8.48974609375-7.61004638671875,16.47998046875-15.6199951171875,24.81982421875-23.2900390625,2.35009765625-2.19000244140625,4.10009765625-5,6.330078125-7.39996337890625,1.6201171875-1.760009765625,3.919921875-4.52001953125,5.8701171875-1.6300048828125.4599609375.90997314453125,2.099853515625,1.8699951171875,2.009765625,2.77996826171875-.059814453125.25-.2998046875.52001953125-.6298828125.82000732421875-7.89990234375,6.73004150390625-14.6201171875,14.8900146484375-22.550048828125,21.8900146484375-4.2099609375,4.1199951171875-8.47998046875,9.280029296875-15,8.30999755859375ZM382.368799105235667,186.946352790195306c-.670166015625.8599853515625-1.39013671875,1.66998291015625-2.2001953125,2.4000244140625-5.5498046875,4.8800048828125-11.10986328125,11.29998779296875-19.18994140625,10.3299560546875l-.0400390625-.0699462890625c-.079833984375-.19000244140625.110107421875-.49005126953125.4501953125-.84002685546875,4.909912109375-4.77001953125,10.559814453125-8.8900146484375,15.33984375-13.969970703125,3.239990234375-3.21002197265625,6.06005859375-7.05999755859375,9.580078125-10.02001953125,2.030029296875-1.6300048828125,4.56982421875-3.1199951171875,6.60986328125-.8900146484375.75.82000732421875,1,1.97998046875.490234375,2.84002685546875-.980224609375,1.57000732421875-2.66015625,2.8699951171875-4.16015625,4.07000732421875-2.43994140625,1.89996337890625-5.10009765625,3.79998779296875-6.8798828125,6.14996337890625ZM385.798730745860667,190.966372321445306v-.030029296875c3.7900390625-4.010009765625,8.22998046875-7.16998291015625,11.969970703125-11.239990234375.35009765625-.29998779296875.60986328125-.3800048828125.72998046875-.02001953125.7099609375,2.52001953125-8.7099609375,9.20001220703125-12.699951171875,11.2900390625ZM417.078760042735667,136.806338141757806c-.800048828125,9.72003173828125-2.41015625,20.4000244140625-7.2900390625,28.82000732421875-.330078125.58001708984375-.860107421875,1.33001708984375-1.489990234375,1.34002685546875-.35009765625.02001953125-.739990234375-.1500244140625-1.139892578125-.4100341796875-3.440185546875-2.6199951171875-7.91015625-4.72998046875-11.340087890625-7.719970703125-9.070068359375-8.47003173828125-21.400146484375-14.6400146484375-30.719970703125-22.3800048828125-1.0400390625-.8599853515625-1.070068359375-1.760009765625-.22998046875-2.739990234375,10.5-12.510009765625,22.199951171875-25.97998046875,32.43994140625-39.41998291015625.449951171875-.5400390625.929931640625-.8900146484375,1.429931640625-.9000244140625,12.360107421875,6.72998046875,16.820068359375,28.55999755859375,18.340087890625,43.22998046875v.17999267578125ZM208.458642855235667,295.546389411289056c4.0400390625-24.010009765625-5.429931640625-55.550048828125-33.849853515625-54.49005126953125h-.199951171875c-38.710205078125-1.239990234375-77.39013671875.280029296875-116.26025390625-.8199462890625-46.0498046875-1.73004150390625-60.869873046875,9.12994384765625-57.75,56.8599853515625.110107421875,5.6400146484375.340087890625,11.20001220703125-.009765625,16.89996337890625-2.300048828125,13.61004638671875,6.559814453125,15.1199951171875,18,14.85003662109375,53.389892578125-.4100341796875,107.539794921875-.739990234375,161.2998046875.02996826171875,7.7001953125-.010009765625,15.3701171875-.30999755859375,22.97021484375-1.3299560546875,9.919921875-.59002685546875,5.2998046875-18.48004150390625,5.3798828125-25.25-.169921875-2.59002685546875,0-4.3800048828125.419921875-6.75ZM192.848779573985667,311.116335700351556c.010009765625.61004638671875-.06005859375,1.1400146484375-.41015625,1.44000244140625l-.08984375.08001708984375c-56.989990234375,1.04998779296875-116.300048828125-1.489990234375-173.840087890625.739990234375-2.9599609375.25-2.610107421875-2.760009765625-2.449951171875-5.03997802734375.429931640625-4.0999755859375,1.6298828125-9.58001708984375.60009765625-13.989990234375-2.85009765625-18.739990234375,1-40.92999267578125,23.619873046875-37.96002197265625,37.820068359375.10003662109375,75.919921875.52001953125,113.719970703125-.30999755859375,43.7099609375-1.08001708984375,38.77001953125,7.989990234375,38.77001953125,51.57000732421875.030029296875,1.510009765625.050048828125,2.42999267578125.080078125,3.469970703125ZM167.468652620860667,157.106386969882806c-4.7900390625-32.45001220703125-33.77001953125-52.9200439453125-65.329833984375-51.34002685546875-33.81005859375,1.260009765625-61.9501953125,25.77001953125-61.940185546875,62.72998046875v.23004150390625c2.27001953125,90.22998046875,141.800048828125,78.8399658203125,127.27001953125-11.6199951171875ZM81.268701448985667,211.236391852695306c-26.780029296875-13.62005615234375-31.06005859375-52.33001708984375-12.929931640625-74.48004150390625,7.669921875-9.760009765625,20.97998046875-16.28997802734375,36.08984375-15.8399658203125h.230224609375c78.409912109375,3.16998291015625,50.429931640625,123.7099609375-23.39013671875,90.32000732421875ZM456.758691683360667.356386969882806l-.199951171875-.02001953125c-139.18994140625.32000732421875-278.610107421875.46002197265625-417.840087890625-.0999755859375-7.43994140625-1.550048828125-18.699951171875,4.719970703125-12.989990234375,13.02996826171875,3.60009765625,6.96002197265625,15.219970703125-1.57000732421875,15.16015625,6.69000244140625-1.43017578125,16.83001708984375.5,34.17999267578125-.740234375,50.989990234375,2.25,11.010009765625-7.719970703125,51.8599853515625,14.7001953125,38.6500244140625,3.18994140625-7.55999755859375,1.52001953125-16.84002685546875,1.329833984375-25,.60009765625-17.58001708984375-.10986328125-35.22003173828125.35009765625-52.83001708984375.4599609375-6.219970703125-3.81005859375-18.04998779296875,6.77001953125-15.20001220703125,124.72998046875-.1400146484375,249.860107421875.239990234375,374.510009765625-.0799560546875,3.530029296875-.47003173828125,3.0400390625,2.75994873046875,3.0400390625,5.4599609375-.7001953125,88.42999267578125-.22998046875,177.97998046875-.10009765625,265.9000244140625-71.949951171875,3.04998779296875-146.60986328125-.98004150390625-219.2099609375,1.6099853515625-9.39013671875,2.84002685546875-4.030029296875,16.8599853515625,4.929931640625,15.20001220703125,73.440185546875.010009765625,147.699951171875.53997802734375,221.330078125-.17999267578125,14.530029296875-.75,7.610107421875-17.44000244140625,8.699951171875-26.7900390625-.070068359375-13.63995361328125.2900390625-27.41998291015625-.080078125-41.0899658203125.510009765625-71.6600341796875.590087890625-143.85003662109375-.22998046875-215.52001953125-1.77978515625-5.57000732421875,5.820068359375-4.17999267578125,7.06005859375-8.40997314453125,2.52001953125-5.030029296875-.409912109375-12.1199951171875-6.489990234375-12.30999755859375Z"
      />
      <path
        class="cls-3"
        d="M417.078760042735667,136.626345465976556v.17999267578125c-.800048828125,9.72003173828125-2.41015625,20.4000244140625-7.2900390625,28.82000732421875-.330078125.58001708984375-.860107421875,1.33001708984375-1.489990234375,1.34002685546875-.35009765625.02001953125-.739990234375-.1500244140625-1.139892578125-.4100341796875-3.440185546875-2.6199951171875-7.91015625-4.72998046875-11.340087890625-7.719970703125-9.070068359375-8.47003173828125-21.400146484375-14.6400146484375-30.719970703125-22.3800048828125-1.0400390625-.8599853515625-1.070068359375-1.760009765625-.22998046875-2.739990234375,10.5-12.510009765625,22.199951171875-25.97998046875,32.43994140625-39.41998291015625.449951171875-.5400390625.929931640625-.8900146484375,1.429931640625-.9000244140625,12.360107421875,6.72998046875,16.820068359375,28.55999755859375,18.340087890625,43.22998046875Z"
      />
      <path
        class="cls-2"
        d="M192.768701448985667,307.646364997226556c.030029296875,1.510009765625.050048828125,2.42999267578125.080078125,3.469970703125.010009765625.61004638671875-.06005859375,1.1400146484375-.41015625,1.44000244140625l-.08984375.08001708984375c-56.989990234375,1.04998779296875-116.300048828125-1.489990234375-173.840087890625.739990234375-2.9599609375.25-2.610107421875-2.760009765625-2.449951171875-5.03997802734375.429931640625-4.0999755859375,1.6298828125-9.58001708984375.60009765625-13.989990234375-2.85009765625-18.739990234375,1-40.92999267578125,23.619873046875-37.96002197265625,37.820068359375.10003662109375,75.919921875.52001953125,113.719970703125-.30999755859375,43.7099609375-1.08001708984375,38.77001953125,7.989990234375,38.77001953125,51.57000732421875ZM104.658838167735667,120.916384528476556h-.230224609375c-15.10986328125-.45001220703125-28.419921875,6.0799560546875-36.08984375,15.8399658203125-18.130126953125,22.1500244140625-13.85009765625,60.8599853515625,12.929931640625,74.48004150390625,73.820068359375,33.38995361328125,101.800048828125-87.1500244140625,23.39013671875-90.32000732421875ZM334.958642855235667,117.606386969882806c-4.780029296875-11.21002197265625-8.85986328125-22.55999755859375-14.5498046875-33.35003662109375-.64013671875-1.32000732421875-1.7802734375-1.6300048828125-3.01025390625-1.01995849609375-17.02978515625,7.3399658203125-28.929931640625,34.30999755859375-29.33984375,53.29998779296875v.17999267578125c1.159912109375,15.77001953125,7.409912109375,37.52996826171875,19.60986328125,45.28997802734375,1.14013671875.66998291015625,2.0400390625.22003173828125,2.89013671875-.82000732421875,5.5400390625-6.5999755859375,10.199951171875-13.91998291015625,15.06005859375-21.13995361328125,5.909912109375-7.94000244140625,13.419921875-15.3800048828125,17.219970703125-24.4300537109375-.320068359375-6.5999755859375-5.3701171875-12.12994384765625-7.880126953125-18.00994873046875Z"
      />
    </g>
  </g>
</svg>
