<svg viewBox="0 0 445.094905410200226 441.108656105601767">
  <defs>
    <style>
      .cls-1 {
        fill: var(--black);
      }

      .cls-2 {
        fill: var(--yellow);
      }
    </style>
  </defs>
  <g>
    <g>
      <path
        class="cls-1"
        d="M158.57857726104703,204.34002685546875c-4.9000244140625-17.489990234375-21.8900146484375-32.80999755859375-40.8299560546875-30.33001708984375-2.4100341796875.33001708984375-1.989990234375-.739990234375-.780029296875-2.21002197265625,5.22998046875-6.449951171875,10.949951171875-12.55999755859375,17.580078125-17.57000732421875,5.169921875-2.5899658203125,10.409912109375-5.0999755859375,13.679931640625-10.19000244140625,9.6400146484375-14.199951171875-3.949951171875-31.719970703125-19.1600341796875-32.04998779296875h-.1600341796875c-29.869873046875,2.6199951171875-82.2099609375,58.58001708984375-86.02001953125,88.05999755859375-1.119873046875,12.45001220703125,8.14013671875,22.8800048828125,18.4600830078125,29.61004638671875,9.989990234375,7.78997802734375,22.9000244140625,5.55999755859375,34.3499755859375,2.22998046875.52001953125-.10003662109375,1.570068359375-.510009765625,1.800048828125-.1199951171875.139892578125.3699951171875-.8800048828125,1.39996337890625-1.2900390625,1.8399658203125-11.030029296875,12.19000244140625-23.510009765625,23.02001953125-36.8499755859375,32.77001953125-10.3099365234375,8.79998779296875-18.3399658203125,13.94000244140625-16.2200927734375,24.30999755859375.880126953125,4.42999267578125,4.280029296875,10.82000732421875,7.4801025390625,14.760009765625,8.0198974609375,9.6099853515625,20.8699951171875,18.69000244140625,33.5,12.46002197265625,5.2999267578125-2.95001220703125,9.7698974609375-7.09002685546875,14.4000244140625-10.82000732421875,11.22998046875-9.61004638671875,21.2099609375-20.58001708984375,31.5-31.08001708984375,4.0699462890625-4.46002197265625,7.3099365234375-9.510009765625,11.10986328125-14.34002685546875,12.900146484375-16.40997314453125,23.41015625-36.239990234375,17.4500732421875-57.3299560546875ZM125.10860655792203,256.70001220703125c-14.239990234375,16.75-29.9700927734375,32.5-46.8900146484375,46.3699951171875-6.409912109375,4.08001708984375-12.719970703125-5.45001220703125-16.530029296875-9.57000732421875-1.0999755859375-1.30999755859375-2.1099853515625-2.91998291015625-2.02001953125-4.67999267578125.25-3.6199951171875,4.2000732421875-5.08001708984375,6.72998046875-7.07000732421875,24.39013671875-20.97998046875,55.340087890625-41.92999267578125,63.72998046875-74.69000244140625.6201171875-2.15997314453125-.0499267578125-3.30999755859375-2.25-2.95001220703125-13.7698974609375,1.86004638671875-26.25,9.5400390625-39.5299072265625,13.1300048828125-4.239990234375.98004150390625-8.8499755859375,2.3800048828125-13.1500244140625,1.4100341796875-10.14990234375-3.10003662109375-18.489990234375-11.20001220703125-15.1300048828125-22.34002685546875,3.5699462890625-12.1300048828125,13.5599365234375-22.29998779296875,21.6900634765625-31.739990234375,13.010009765625-13.489990234375,25.97998046875-30.90997314453125,44.5-36.16998291015625,1.949951171875-.55999755859375,4.1099853515625-.760009765625,5.889892578125.25,3.280029296875,1.77996826171875,4.1201171875,5.91998291015625,1,8.010009765625l-.14990234375.1199951171875c-26.550048828125,14.47998046875-42.1400146484375,42.969970703125-58.3701171875,67.44000244140625.2401123046875.5,1.2100830078125.199951171875,1.77001953125.0899658203125,13.9300537109375-3.58001708984375,28.280029296875-13.5899658203125,42.7900390625-14.0999755859375,5.0400390625-.10003662109375,10.9100341796875.6199951171875,14.860107421875,4.26995849609375,20.0499267578125,18.1600341796875,6.75,42.99005126953125-8.9400634765625,62.22003173828125ZM320.54867003448453,376.53997802734375l-.010009765625-.2099609375c-.360107421875-8.19000244140625-9.510009765625-8.07000732421875-15.6700439453125-7.72003173828125-5.4400634765625.280029296875-10.3399658203125-.5-15.6800537109375-.4599609375-6.52001953125-.07000732421875-13.030029296875.260009765625-19.5999755859375.32000732421875-22.8499755859375-.83001708984375-45.5999755859375.65997314453125-68.4300537109375-.34002685546875-7.4599609375.030029296875-14.869873046875,1-22.349853515625.33001708984375-2.25-.19000244140625-4.590087890625.16998291015625-6.77001953125.14996337890625-2.4400634765625-.02996826171875-4.81005859375-.5799560546875-7.380126953125-.5899658203125-2.669921875.010009765625-5.2099609375.7099609375-7.75.5899658203125-3.0899658203125-.07000732421875-6.43994140625-.66998291015625-9.72998046875-.5799560546875-3.75.03997802734375-7.169921875.64996337890625-10.969970703125.69000244140625-4.6199951171875-.05999755859375-9.22998046875-.800048828125-13.760009765625-.80999755859375-4.169921875-.21002197265625-8.3699951171875.8199462890625-12.550048828125.65997314453125-9.18994140625-.29998779296875-18.2799072265625.21002197265625-27.43994140625-.55999755859375-3.5999755859375-.08001708984375-7.179931640625.3900146484375-10.780029296875.5-5.300048828125-.239990234375-10.2099609375-.02001953125-15.429931640625-.16998291015625-2.510009765625-.27001953125-4.949951171875.16998291015625-7.550048828125.15997314453125-6.260009765625-.469970703125-16.3399658203125-.77001953125-15.93994140625,8.02001953125-.199951171875,4.17999267578125,2.159912109375,7.3800048828125,6.14990234375,7.8800048828125,5.60009765625.79998779296875,11.9500732421875-.52001953125,17.6900634765625-.1400146484375,11.0899658203125-.030029296875,22.1199951171875-.19000244140625,33.22998046875.3699951171875,8.3699951171875.02001953125,16.6800537109375-.90997314453125,25.0999755859375-.16998291015625,19.6600341796875.3800048828125,38.860107421875-.3800048828125,58.570068359375.39996337890625,6.93994140625-.07000732421875,13.5799560546875-.54998779296875,20.5699462890625-.7099609375,5.800048828125-.09002685546875,11.25,1.16998291015625,17.010009765625.5,21.9200439453125-.530029296875,43.7999267578125.4599609375,65.6900634765625-.36004638671875,7.9599609375-.02996826171875,16.27001953125.050048828125,24.2099609375.46002197265625,2.8800048828125-.02996826171875,5.8499755859375-.54998779296875,8.8699951171875-.489990234375,4.989990234375.27001953125,11.1900634765625-1.80999755859375,10.7000732421875-7.72003173828125ZM320.56856749542203,184.34002685546875c-.4000244140625-8.77001953125-10.489990234375-8.47003173828125-16.9400634765625-7.86004638671875-4.699951171875-.17999267578125-9.2999267578125-.16998291015625-14.0299072265625-.00994873046875-6.4600830078125.02996826171875-12.4700927734375-.09002685546875-18.8599853515625-.44000244140625-6.8699951171875.2099609375-13.449951171875.6099853515625-20.360107421875.72998046875-6.5499267578125-.33001708984375-12.909912109375-.22003173828125-19.4599609375,0-10.52001953125-.6099853515625-20.8199462890625-.44000244140625-31.3199462890625-.010009765625-9.3099365234375-.55999755859375-18.5499267578125-.67999267578125-27.8499755859375-.219970703125-6.1600341796875-.35003662109375-12.6300048828125.32000732421875-12.780029296875,7.97998046875.179931640625,11.80999755859375,17.949951171875,8.1099853515625,25.590087890625,7.90997314453125,3.829833984375-.219970703125,7.5098876953125-.30999755859375,11.35986328125-.25,3.4100341796875.050048828125,6.969970703125.9300537109375,10.5.70001220703125,25.6800537109375-.9599609375,51.4500732421875.3699951171875,77.130126953125-.65997314453125,7.64990234375.0799560546875,15.119873046875.94000244140625,22.7099609375.19000244140625,5.7099609375-.04998779296875,14.639892578125.0999755859375,14.3199462890625-7.85003662109375l-.010009765625-.2099609375ZM320.20858214385953,248.3800048828125l-.02001953125-.20001220703125c.010009765625-9.64996337890625-11.27001953125-8.30999755859375-17.97998046875-7.8599853515625-7.919921875.33001708984375-15.7900390625-.17999267578125-23.68994140625.22998046875-8.820068359375.260009765625-17.25.3900146484375-25.880126953125-.3599853515625-2.409912109375-.27001953125-5.010009765625.08001708984375-7.329833984375.21002197265625-3.7100830078125-.30999755859375-7.530029296875-.11004638671875-11.1900634765625.0899658203125-4.0400390625-.1199951171875-8.2200927734375-.2099609375-12.3399658203125-.010009765625-9.6600341796875-.41998291015625-19.1600341796875.60003662109375-28.780029296875-.28997802734375-3.72998046875-.19000244140625-7.35009765625.09002685546875-11.010009765625,0-2.6199951171875.1199951171875-4.9200439453125.6500244140625-7.4200439453125.46002197265625-5.3399658203125-.530029296875-11.6199951171875-.72003173828125-13.5198974609375,5.3299560546875-1.590087890625,4.94000244140625-1.080078125,10.6300048828125-1.1900634765625,15.760009765625.3099365234375,4.82000732421875.2000732421875,9.6199951171875.2000732421875,14.4200439453125-.400146484375,15.3399658203125,9.409912109375,11.7099609375,20.369873046875,12.28997802734375,3.6900634765625.47998046875,7.6500244140625.1199951171875,11.4400634765625-.1400146484375,5.3099365234375.55999755859375,10.5098876953125-.07000732421875,15.7099609375.4100341796875,3.02001953125.22998046875,6.030029296875-.530029296875,8.8800048828125-.46002197265625,2.5400390625-.030029296875,5.199951171875.71002197265625,7.9000244140625.72998046875,5.3699951171875-.14996337890625,10.760009765625-.13995361328125,16.1800537109375-.64996337890625,2.33984375,0,5.08984375.6300048828125,7.5399169921875.5799560546875,4.6500244140625-.40997314453125,9.6800537109375-.3199462890625,14.4300537109375-.55999755859375,3.300048828125.05999755859375,6.179931640625.69000244140625,9.39990234375.34002685546875,13.6700439453125-1.08001708984375,27.27001953125.5899658203125,40.9300537109375-.5,9.75-1.16998291015625,7.8199462890625-7.07000732421875,7.4600830078125-14.489990234375.489990234375-8.46002197265625.7999267578125-16.8699951171875-.090087890625-25.33001708984375ZM176.95858214385953,272.05999755859375c-.14990234375.1300048828125-.3499755859375.33001708984375-.4599609375.1199951171875l-.02001953125-.0799560546875c-.10009765625-.35003662109375-.02001953125-1.46002197265625-.10009765625-2.47003173828125-.179931640625-2.30999755859375-1.139892578125-4.739990234375.800048828125-6.489990234375.489990234375-.5,1.110107421875-.97003173828125,1.6600341796875-1.4100341796875,2.260009765625-1.66998291015625,3.8099365234375-4.6099853515625,6.0799560546875-5.53997802734375,1.5400390625-.5999755859375,3.610107421875-.22998046875,5.260009765625-.4000244140625,4.300048828125-.469970703125-.0400390625,4.030029296875-4.989990234375,8.6400146484375-2.6199951171875,2.44000244140625-6.0799560546875,5.4100341796875-8.22998046875,7.6300048828125ZM194.97860167510953,270.6099853515625c-1.97998046875,1.9000244140625-8.4599609375,3.6600341796875-10.580078125,2.050048828125l-.0299072265625-.07000732421875c-.0899658203125-.34002685546875.2799072265625-.780029296875.5299072265625-1.08001708984375,2.91015625-3.3499755859375,10.3701171875-9.66998291015625,14.25-13.91998291015625.550048828125-.59002685546875,1.2200927734375-1.22003173828125,1.9700927734375-1.44000244140625.9599609375-.34002685546875,2.1800537109375.13995361328125,3.5399169921875.1099853515625,2.280029296875-.16998291015625,4.56005859375-1.1400146484375,2.85009765625,1.6500244140625-2.1900634765625,2.94000244140625-6.06005859375,5.65997314453125-9.030029296875,8.75-1.280029296875,1.25-2.18994140625,2.75-3.5,3.949951171875ZM209.80867980010953,271.1099853515625c-.820068359375,1.09002685546875-1.9500732421875,1.800048828125-3.300048828125,1.98004150390625-1.9400634765625.1300048828125-5.9300537109375,1.469970703125-6.47998046875-.27001953125l.010009765625-.1099853515625c.0499267578125-.47003173828125.5699462890625-1.04998779296875.969970703125-1.44000244140625,4.0599365234375-3.96002197265625,9.530029296875-8.8699951171875,13.9599609375-13.29998779296875.56005859375-.550048828125,1.219970703125-1.1300048828125,1.9000244140625-1.45001220703125,1.3499755859375-.73004150390625,3.0399169921875-.010009765625,4.8800048828125-.4000244140625,1.75-.44000244140625,4.3798828125-1.0899658203125,2.489990234375,1.6099853515625-3.570068359375,4.48004150390625-10.56005859375,8.48004150390625-14.429931640625,13.3800048828125ZM226.42855284698453,270.77001953125c-2.050048828125,2.39996337890625-6.43994140625,3.33001708984375-9.0599365234375,2.6400146484375-.6099853515625-.1600341796875-1-.4100341796875-1.050048828125-.75l-.0098876953125-.09002685546875c-.010009765625-.45001220703125.5098876953125-.989990234375.8798828125-1.3599853515625,3.989990234375-3.9200439453125,9.3701171875-8.9000244140625,13.72998046875-13.3699951171875.6500244140625-.6400146484375,1.360107421875-1.280029296875,2.2000732421875-1.58001708984375,1.3099365234375-.489990234375,2.8900146484375.27001953125,4.699951171875-.1099853515625,1.4901123046875-.32000732421875,4.3399658203125-1.10003662109375,2.3199462890625,1.44000244140625-2.919921875,3.15997314453125-7.43994140625,6.64996337890625-11.010009765625,10.0899658203125-1,.96002197265625-1.7698974609375,2.08001708984375-2.699951171875,3.09002685546875ZM246.72860167510953,265.72998046875c-.830078125.9100341796875-1.469970703125,1.9300537109375-2.199951171875,2.9200439453125-2.280029296875,3.17999267578125-7.130126953125,5.65997314453125-10.4400634765625,4.82000732421875-.6900634765625-.1600341796875-1.1800537109375-.48004150390625-1.2999267578125-.9100341796875l-.02001953125-.1099853515625c-.090087890625-.510009765625.3199462890625-1.1400146484375.669921875-1.58001708984375,3.4000244140625-4.28997802734375,9.1700439453125-8.57000732421875,13.6500244140625-12.5999755859375.6400146484375-.55999755859375,1.3699951171875-1.1500244140625,2.1300048828125-1.47003173828125,1.280029296875-.5899658203125,2.8900146484375-.1300048828125,4.550048828125-.51995849609375,1.449951171875-.3900146484375,4.169921875-1.0400390625,2.10986328125,1.3499755859375-2.409912109375,2.44000244140625-6.469970703125,5.21002197265625-9.14990234375,8.0999755859375ZM248.69857237823453,272.3699951171875l-.030029296875-.0899658203125c-.119873046875-.42999267578125.35009765625-1.030029296875.6800537109375-1.4200439453125,3.7000732421875-4.25994873046875,9.5699462890625-8.51995849609375,13.6300048828125-12.97998046875,1.510009765625-1.969970703125,3.77001953125-1.28997802734375,6.070068359375-1.489990234375,1.89990234375-.19000244140625,3.409912109375-.8599853515625,3.659912109375-.34002685546875.179931640625.45001220703125-.449951171875,1.1700439453125-.830078125,1.59002685546875-5.10986328125,5.14996337890625-15.639892578125,17.97998046875-23.179931640625,14.72998046875ZM264.49862120635953,272.45001220703125l-.050048828125-.0999755859375c-.139892578125-.3900146484375.1300048828125-.9000244140625.610107421875-1.4300537109375,2.119873046875-2.28997802734375,4.969970703125-4.219970703125,7.2899169921875-6.3599853515625,3.8800048828125-3.91998291015625,8.1400146484375-10.47998046875,14.5999755859375-8.79998779296875.9000244140625.27996826171875,1.5.77001953125.860107421875,1.58001708984375-5.77001953125,5.010009765625-15.1900634765625,19.89996337890625-23.31005859375,15.1099853515625ZM288.08858702667203,272.3699951171875c-1.6800537109375.75-4.1900634765625.80999755859375-6.1500244140625.83001708984375-5.3798828125-.04998779296875,4.6700439453125-5.8800048828125,5.81005859375-8.03997802734375,3.5799560546875-4.74005126953125,9.27001953125-9.94000244140625,14.75-9.23004150390625.510009765625.05999755859375,1.239990234375.260009765625,1.389892578125.70001220703125.320068359375.84002685546875-1.8199462890625,2.47998046875-2.639892578125,3.4000244140625-4.300048828125,3.949951171875-8.47998046875,8.64996337890625-12.989990234375,12.25994873046875l-.1700439453125.08001708984375ZM304.82857726104703,272.70001220703125l-.1300048828125.1199951171875c-1.31005859375,1.16998291015625-2.7099609375-.46002197265625-4.219970703125-.25-1.320068359375.0999755859375-2.8900146484375.8699951171875-3.820068359375-.0999755859375-.7999267578125-1.300048828125,2.25-2.6500244140625,2.989990234375-3.71002197265625,2.2000732421875-2.57000732421875,5.030029296875-5.989990234375,5.27001953125-3.3900146484375.1201171875,1.07000732421875-.22998046875,2.030029296875-.119873046875,3.1300048828125.14990234375,1.46002197265625,1.3099365234375,3.09002685546875.0299072265625,4.20001220703125ZM288.55867980010953,150.4100341796875c-2.1900634765625-7.510009765625-12.18017578125-6.71002197265625-18.56005859375-5.760009765625-4.580078125.39996337890625-8.9000244140625-.4000244140625-13.4300537109375-.6500244140625-7.9599609375.17999267578125-15.7999267578125.44000244140625-23.7698974609375.47003173828125-23.9600830078125-.8699951171875-47.780029296875.54998779296875-71.6900634765625-.19000244140625-8.8599853515625,1.3800048828125-8.3299560546875,16.66998291015625.9000244140625,16.3699951171875l.199951171875.010009765625c9.719970703125.3599853515625,19.1500244140625-.95001220703125,28.919921875-.23004150390625,6.6201171875.280029296875,13.050048828125-.65997314453125,19.7401123046875.02001953125,13.1300048828125.44000244140625,26.1199951171875-.4000244140625,39.2698974609375.27001953125,4.130126953125-.1400146484375,7.9801025390625-.1300048828125,12.050048828125-.3699951171875,3.449951171875.25994873046875,6.52001953125.3599853515625,10.110107421875.25,7.35986328125.47998046875,18.139892578125-.19000244140625,16.260009765625-10.19000244140625ZM320.62850401885953,312.3699951171875l-.0198974609375-.17999267578125c-1.0799560546875-9-10.9801025390625-8.45001220703125-17.7999267578125-7.5899658203125-3.64013671875-.11004638671875-7.2401123046875-.6700439453125-10.85009765625-.530029296875-3.1400146484375,0-6.419921875.6199951171875-9.6300048828125.6500244140625-4.2000732421875.02996826171875-8.2000732421875-.73004150390625-12.4200439453125-.760009765625-8.139892578125,0-15.889892578125,1.07000732421875-23.949951171875.39996337890625-8.409912109375.5400390625-16.5999755859375-.75994873046875-25.02001953125-.03997802734375-14.669921875.530029296875-29.18994140625-.52001953125-43.8699951171875.32000732421875-6.5799560546875-.07000732421875-13.0699462890625-.97003173828125-19.6600341796875-.30999755859375-10.619873046875.760009765625-21.3199462890625-.0400390625-32.0399169921875.469970703125-2.9100341796875.1600341796875-5.8499755859375-.3299560546875-8.7100830078125-.3499755859375-4.699951171875-.530029296875-8.35986328125,4.17999267578125-8.5,8.41998291015625.010009765625,3.489990234375,3.150146484375,5.77001953125,7.31005859375,6.989990234375,6.68994140625,1.94000244140625,14.300048828125.58001708984375,21.1099853515625.47003173828125,13.77001953125.28997802734375,27.3699951171875.16998291015625,41.239990234375.52001953125,9.5799560546875-.36004638671875,19.3199462890625-1.20001220703125,28.8699951171875-.010009765625,24.9100341796875-.92999267578125,50.02001953125.449951171875,74.7900390625-.70001220703125,8.7099609375-.79998779296875,40.52001953125,5.30999755859375,39.14990234375-7.77001953125ZM320.55867980010953,216.3599853515625l-.030029296875-.17999267578125c-1.5400390625-10.41998291015625-13.6201171875-7.5899658203125-21.14013671875-7.52996826171875-6.219970703125-.4200439453125-12.449951171875-.84002685546875-18.719970703125-.23004150390625-11.22998046875.57000732421875-22.5999755859375.1300048828125-33.89990234375.2900390625-9.739990234375-.6400146484375-19.22998046875-.1600341796875-29.070068359375.07000732421875-5.989990234375-.09002685546875-11.8599853515625-.94000244140625-17.889892578125-.4000244140625-3.780029296875-.05999755859375-7.530029296875.34002685546875-11.2200927734375.22998046875-5.1900634765625-.25994873046875-10.8399658203125-.90997314453125-15.75.9200439453125-2.97998046875,1.16998291015625-4.5499267578125,4.66998291015625-4.4400634765625,7.719970703125.10009765625,6.07000732421875,6.10009765625,7.25,11.110107421875,7.45001220703125,5.449951171875.260009765625,10.6298828125-.67999267578125,15.8499755859375-.52001953125,14.1199951171875.98004150390625,28.1199951171875.04998779296875,42.3599853515625.29998779296875,5.260009765625.37005615234375,10.5.300048828125,15.75-.05999755859375,3.8800048828125-.2099609375,7.800048828125.280029296875,11.6099853515625.24005126953125,6.0699462890625,0,12.1500244140625-.5400390625,18.239990234375-.47003173828125,8.25-.92999267578125,38.8900146484375,5.09002685546875,37.2401123046875-7.83001708984375ZM421.19857237823453,77.29998779296875l-.1300048828125-.15997314453125c-.75-.8599853515625-1.6400146484375-1.6099853515625-2.449951171875-2.4100341796875-2.260009765625-2.15997314453125-3.7401123046875-4.88995361328125-6.260009765625-7.04998779296875-1.5499267578125-1.3499755859375-3.2999267578125-2.489990234375-4.7200927734375-3.969970703125-1.5699462890625-1.59002685546875-2.919921875-3.3900146484375-4.409912109375-5.08001708984375-2.81005859375-3.27001953125-5.989990234375-5.5999755859375-9.050048828125-8.27001953125-4.75-3.8499755859375-7.989990234375-10.15997314453125-12.8199462890625-13.8800048828125-4.1800537109375-3.3399658203125-7.5599365234375-.65997314453125-9.0999755859375,3.6600341796875-8.570068359375,21.54998779296875-26.6500244140625,42.92999267578125-50.1700439453125,47.04998779296875-4.5299072265625.95001220703125-5.489990234375,6.03997802734375-6.9600830078125,10.010009765625-2.22998046875,7.16998291015625-2.639892578125,12.510009765625-4.3099365234375,18.5999755859375-1.3399658203125,5.11004638671875-2.8199462890625,10.09002685546875-4.5,15.10003662109375-1.6199951171875,6.489990234375-.2999267578125,12.0899658203125,6.9500732421875,6.719970703125,5.119873046875-3.57000732421875,8.929931640625-8.75,13.1298828125-13.219970703125,4.090087890625-4.34002685546875,8.550048828125-8.20001220703125,13.06005859375-12.22003173828125,1.949951171875-1.8399658203125,3.02001953125-4.5899658203125,5.570068359375-5.489990234375,2.669921875-.91998291015625,6.280029296875,2.83001708984375,5.47998046875,5.3800048828125-.590087890625,2.030029296875-2.6900634765625,2.71002197265625-4.219970703125,4.15997314453125-2.2100830078125,2.1700439453125-4.16015625,4.300048828125-6.5400390625,6.4100341796875-6.1800537109375,7.04998779296875-13.510009765625,12.8900146484375-20.0400390625,19.71002197265625-6.429931640625,7.3699951171875-2.080078125,10.87994384765625,6.1300048828125,7.949951171875,11.4700927734375-2.30999755859375,22.4600830078125-5.91998291015625,33.7899169921875-9,1.7401123046875-.469970703125,3.9700927734375-.7099609375,5.35009765625-1.219970703125,6.780029296875-2.17999267578125,5.659912109375-17.70001220703125,17.070068359375-31.1199951171875,8.099853515625-9.989990234375,20-17.73004150390625,31.7899169921875-23.34002685546875,3.4700927734375-1.41998291015625,11.52001953125-3.3399658203125,7.3599853515625-8.32000732421875ZM438.70858214385953,60.9100341796875c-2.3900146484375-2.21002197265625-4.3399658203125-4.70001220703125-6.6199951171875-6.72003173828125-6.6199951171875-5.90997314453125-12.1400146484375-12.90997314453125-18.6900634765625-18.95001220703125-4.33984375-4.22998046875-9.0699462890625-8.1099853515625-13.3798828125-12.4599609375-5.77001953125-6.4200439453125-10.85009765625-16.09002685546875-20.1900634765625-7.85003662109375-6.3299560546875,7.760009765625,8.4600830078125,18.280029296875,13.4300537109375,23.1400146484375,3.639892578125,3.6400146484375,6.780029296875,7.59002685546875,10.760009765625,10.8800048828125,5.8199462890625,5.46002197265625,11.389892578125,11.04998779296875,16.929931640625,16.79998779296875,5.360107421875,5.19000244140625,13.60009765625,17.79998779296875,21.840087890625,10.66998291015625l.14990234375-.13995361328125c5.1400146484375-5.3800048828125.02001953125-11.47003173828125-4.22998046875-15.3699951171875ZM320.54867003448453,344.53997802734375l-.010009765625-.2099609375c-.360107421875-8.19000244140625-9.510009765625-8.07000732421875-15.6700439453125-7.72003173828125-5.4400634765625.280029296875-10.3399658203125-.5-15.6800537109375-.4599609375-6.52001953125-.07000732421875-13.030029296875.260009765625-19.5999755859375.32000732421875-22.8499755859375-.83001708984375-45.5999755859375.65997314453125-68.4300537109375-.34002685546875-7.4599609375.030029296875-14.869873046875,1-22.349853515625.33001708984375-2.25-.19000244140625-4.590087890625.16998291015625-6.77001953125.14996337890625-2.4400634765625-.02996826171875-4.81005859375-.5799560546875-7.380126953125-.5899658203125-2.669921875.010009765625-5.2099609375.7099609375-7.75.5899658203125-3.0899658203125-.07000732421875-6.43994140625-.66998291015625-9.72998046875-.5799560546875-3.75.03997802734375-7.169921875.64996337890625-10.969970703125.69000244140625-4.6199951171875-.05999755859375-9.22998046875-.800048828125-13.760009765625-.80999755859375-4.169921875-.21002197265625-8.3699951171875.8199462890625-12.550048828125.65997314453125-9.18994140625-.29998779296875-18.2799072265625.21002197265625-27.43994140625-.55999755859375-3.5999755859375-.08001708984375-7.179931640625.3900146484375-10.780029296875.5-5.300048828125-.239990234375-10.2099609375-.02001953125-15.429931640625-.16998291015625-2.510009765625-.27001953125-4.949951171875.16998291015625-7.550048828125.15997314453125-6.260009765625-.469970703125-16.3399658203125-.77001953125-15.93994140625,8.02001953125-.199951171875,4.17999267578125,2.159912109375,7.3800048828125,6.14990234375,7.8800048828125,5.60009765625.79998779296875,11.9500732421875-.52001953125,17.6900634765625-.1400146484375,11.0899658203125-.030029296875,22.1199951171875-.19000244140625,33.22998046875.3699951171875,8.3699951171875.02001953125,16.6800537109375-.90997314453125,25.0999755859375-.16998291015625,19.6600341796875.3800048828125,38.860107421875-.3800048828125,58.570068359375.39996337890625,6.93994140625-.07000732421875,13.5799560546875-.54998779296875,20.5699462890625-.7099609375,5.800048828125-.09002685546875,11.25,1.16998291015625,17.010009765625.5,21.9200439453125-.530029296875,43.7999267578125.4599609375,65.6900634765625-.36004638671875,7.9599609375-.02996826171875,16.27001953125.050048828125,24.2099609375.46002197265625,2.8800048828125-.02996826171875,5.8499755859375-.54998779296875,8.8699951171875-.489990234375,4.989990234375.27001953125,11.1900634765625-1.80999755859375,10.7000732421875-7.72003173828125ZM296.62850401885953,120.34002685546875l-.0198974609375-.19000244140625c-.3800048828125-8-8.7301025390625-7.83001708984375-14.760009765625-7.4200439453125-4.5899658203125.300048828125-8.97998046875-.6099853515625-13.4400634765625-.219970703125-7.3299560546875.8499755859375-14.679931640625-.32000732421875-21.93994140625-.280029296875-3.010009765625-.03997802734375-6.010009765625.30999755859375-9.02001953125.47003173828125-6.97998046875.219970703125-13.56005859375-.3599853515625-20.550048828125-.510009765625-4.7999267578125.22003173828125-9.619873046875.1300048828125-14.489990234375.47998046875-3.0799560546875-.14996337890625-6.2999267578125-.4599609375-9.3399658203125-.26995849609375-4.3599853515625-.27001953125-8.8299560546875.3499755859375-13.2099609375-.08001708984375-2.1800537109375-.1199951171875-4.5699462890625.1199951171875-6.9400634765625-.04998779296875-2.510009765625-.23004150390625-5.159912109375-.10003662109375-7.3099365234375,1.39996337890625-4.4200439453125,2.6600341796875-4.5599365234375,10.25-.0899658203125,12.8699951171875,2.989990234375,1.59002685546875,6.510009765625,1.6700439453125,9.8199462890625,2.0400390625,6.4600830078125.54998779296875,12.9600830078125-.04998779296875,19.4300537109375-.21002197265625,10.8499755859375-.01995849609375,21.5799560546875.739990234375,32.419921875.1300048828125,13.070068359375.29998779296875,25.8900146484375-.32000732421875,38.969970703125-.22998046875,7.9600830078125-.04998779296875,31.5400390625,3.760009765625,30.469970703125-7.92999267578125ZM360.70858214385953,382.3900146484375c-.56005859375-25.20001220703125-.820068359375-50.60003662109375.25-75.79998779296875-.25-5.300048828125-.8699951171875-10.72003173828125-.3599853515625-16.0400390625-.02001953125-5.14996337890625-.3099365234375-10.489990234375.010009765625-15.739990234375-.7900390625-12.04998779296875.2698974609375-24.239990234375-.3399658203125-36.29998779296875.3499755859375-17.72998046875.389892578125-35.5.0699462890625-53.25-.5899658203125-7.9000244140625,4.1600341796875-23.6199951171875-7.760009765625-24.59002685546875l-.2099609375.010009765625c-9.800048828125,1.05999755859375-7.7200927734375,12.7900390625-7.5899658203125,19.70001220703125-.580078125,5.780029296875-.22998046875,11.33001708984375-.52001953125,17.20001220703125,1.1298828125,55.969970703125-.5400390625,112.02996826171875.64990234375,168.010009765625.080078125,5.77996826171875-.349853515625,11.53997802734375-.659912109375,17.32000732421875.239990234375,7.0799560546875.449951171875,14.219970703125.22998046875,21.3699951171875.14990234375,4.8299560546875.219970703125,9.41998291015625.1199951171875,14.22003173828125.0699462890625,1.989990234375.6199951171875,4.4599609375-.7899169921875,5.8099365234375-1.510009765625.97998046875-3.900146484375.6099853515625-5.760009765625.5899658203125-5.81005859375.070068359375-11.81005859375-.869873046875-17.7100830078125-.5899658203125-4.3800048828125.2200927734375-8.8800048828125.9600830078125-13.2999267578125.280029296875-3.4200439453125-.4000244140625-6.860107421875.4400634765625-10.2000732421875.3699951171875-16.5799560546875-1.3599853515625-33.2799072265625-.260009765625-49.9100341796875-.2099609375-15.8499755859375.18994140625-31.47998046875-.780029296875-47.27001953125.0899658203125-4.5799560546875.199951171875-9.0499267578125-1.010009765625-13.5899658203125-.5999755859375-6.5098876953125.0400390625-12.989990234375.8599853515625-19.5599365234375.010009765625-7.6800537109375.449951171875-15.4100341796875.60986328125-23.10009765625.179931640625-7.39990234375.449951171875-15.02001953125.6099853515625-22.52001953125.0400390625-8.179931640625.2099609375-16.679931640625.68994140625-24.949951171875-.18994140625-5.14990234375-.60009765625-10.31005859375.829833984375-15.429931640625.5198974609375-13.0400390625-.9300537109375-26.10009765625.1300048828125-39.1600341796875.010009765625-2.739990234375-.0399169921875-5.489990234375-.3199462890625-8.239990234375-.260009765625-4.4700927734375-.2698974609375-13.75,1.9200439453125-16.4400634765625-1.0999755859375-.0599365234375-31.280029296875-.699951171875-62.9000244140625.10009765625-94.44000244140625-.1201171875-10.3599853515625-.9300537109375-20.70001220703125-.4400634765625-31.07000732421875.3900146484375-13.90997314453125-.2099609375-27.71002197265625.4000244140625-41.58001708984375-.8599853515625-43.969970703125.3699951171875-87.8499755859375-.739990234375-131.8299560546875-.110107421875-3.71002197265625.5-7.4100341796875.6199951171875-11.1199951171875-.280029296875-4.72003173828125-2.1800537109375-9.85003662109375,5-9.3900146484375,8.9300537109375.33001708984375,17.4200439453125.32000732421875,26.2799072265625.01995849609375,7.85009765625.030029296875,15.60009765625.760009765625,23.5.1600341796875,5.9700927734375.1500244140625,11.900146484375.27001953125,17.820068359375.27001953125,4.1400146484375-.10003662109375,9.260009765625.489990234375,12.550048828125-2.45001220703125,2.7900390625-2.9100341796875,2.949951171875-7.1300048828125,2.639892578125-10.91998291015625-.369873046875-5.82000732421875-.219970703125-11.35003662109375.239990234375-17.1700439453125.150146484375-6.969970703125-.010009765625-13.8599853515625-.619873046875-20.79998779296875.889892578125-10.010009765625.39990234375-19.8900146484375.219970703125-29.94000244140625-.10009765625-5.8800048828125-1.610107421875-7.95001220703125,6.570068359375-6.8900146484375,14.7598876953125-.63995361328125,29.5399169921875.6500244140625,44.2598876953125-.219970703125,26,.239990234375,52.260009765625-.22003173828125,78.3199462890625.489990234375,9.6201171875.1300048828125,19.530029296875-1.1300048828125,29.14013671875-.239990234375,13.429931640625-.1199951171875,26.909912109375-.1600341796875,40.349853515625-.05999755859375,10.5400390625-.44000244140625,20.780029296875.04998779296875,31.340087890625.40997314453125,3.22998046875.42999267578125,9.3699951171875-2.3499755859375,10.409912109375,1.70001220703125-.1298828125,6.1400146484375-.349853515625,12.19000244140625.25,18.34002685546875-.31982421875,7.1099853515625,1,11.8800048828125,9.4801025390625,10.8599853515625,7.0299072265625-1.30999755859375,6.5799560546875-6.84002685546875,5.9400634765625-12.6400146484375.409912109375-6.30999755859375.849853515625-12.6300048828125.159912109375-18.8399658203125.179931640625-8.550048828125.419921875-16.530029296875-11.159912109375-15.62005615234375-3.7000732421875.20001220703125-7.280029296875-.42999267578125-11.050048828125-.26995849609375-3.330078125.32000732421875-6.6500244140625.6099853515625-9.97998046875.07000732421875-5.550048828125-.5-11.1201171875.13995361328125-16.780029296875.3399658203125-3.5400390625-.03997802734375-6.800048828125-.6400146484375-10.260009765625-.39996337890625-13.9100341796875-.1400146484375-27.6099853515625.53997802734375-41.52001953125.1199951171875-7.0999755859375.28997802734375-14.1199951171875.52996826171875-21.260009765625.1099853515625-7.699951171875.15997314453125-15.320068359375.28997802734375-22.93994140625-.260009765625-15.6900634765625.77001953125-31.199951171875-.239990234375-46.9400634765625.33001708984375-4.219970703125.26995849609375-8.2099609375-.42999267578125-12.4400634765625-.52001953125-5.3798828125.3900146484375-10.6298828125.52001953125-16,.530029296875-2.699951171875.16998291015625-5.39990234375-.32000732421875-8.06982421875-.34002685546875-2.2401123046875.04998779296875-4.7401123046875.57000732421875-7.150146484375.5-4.739990234375-.3699951171875-9.5799560546875-.57000732421875-14.419921875-.1400146484375-5.280029296875-.66998291015625-11.719970703125-.72998046875-16.739990234375.5-1.699951171875.5-3.300048828125,2.010009765625-4.6201171875,3.4000244140625-2.2698974609375,2.45001220703125-4.699951171875,4.6400146484375-7.10986328125,7.1099853515625-4.320068359375,4.260009765625-9.010009765625,7.97998046875-12.77001953125,12.72003173828125-4.5400390625,4.63995361328125-9.530029296875,8.54998779296875-13.469970703125,13.65997314453125-5.6700439453125,4.71002197265625-10.31005859375,10.27001953125-15.75,15.239990234375-10.1800537109375,10.98004150390625-20.760009765625,21.4000244140625-31.47998046875,31.8699951171875-2.570068359375,2.27001953125-5.4801025390625,5.07000732421875-7.1800537109375,7.75-.8399658203125,1.22003173828125-.9600830078125,3.4100341796875-.8699951171875,5.21002197265625-.10009765625,4.40997314453125-.280029296875,9.1199951171875.0699462890625,13.6300048828125-.6099853515625,10.3499755859375.27001953125,20.65997314453125-.3399658203125,31.010009765625-.239990234375,4.27996826171875.8800048828125,8.44000244140625.4599609375,12.64996337890625-1.31005859375,9.7900390625.02001953125,19.61004638671875-.3199462890625,29.3900146484375-.7000732421875,5.95001220703125-.1900634765625,11.8499755859375.0799560546875,17.83001708984375-.5999755859375,6.0999755859375-.3399658203125,12.01995849609375.2099609375,18.1300048828125-.97998046875,8.70001220703125.1600341796875,17.41998291015625-.469970703125,26.14996337890625-.5,4.9200439453125.6500244140625,9.760009765625.510009765625,14.69000244140625-.2900390625,6.2900390625-.159912109375,12.489990234375,0,18.80999755859375-.0400390625,3.5400390625-.5400390625,6.98004150390625-.52001953125,10.48004150390625-.0599365234375,3.25.7099609375,6.53997802734375.489990234375,9.8399658203125-.5899658203125,9.72003173828125-.2900390625,19.530029296875.070068359375,29.32000732421875-.02001953125,5.41998291015625-.929931640625,10.760009765625-.429931640625,16.19000244140625.47998046875,6.33001708984375-.25,12.5999755859375-.2000732421875,18.82000732421875-.0699462890625,4.239990234375.8199462890625,8.45001220703125.2899169921875,12.70001220703125-.5499267578125,4.969970703125.300048828125,9.90997314453125.360107421875,14.92999267578125-.1900634765625,4.92999267578125-.9100341796875,9.79998779296875-.72998046875,14.67999267578125.030029296875,3.22998046875.659912109375,6.469970703125.530029296875,9.66998291015625-.60009765625,9.239990234375-2.5,25.27001953125,11.2598876953125,24.1199951171875,20.4600830078125-1.1400146484375,40.7100830078125.0699462890625,61.1900634765625-.449951171875,12.550048828125-.1099853515625,24.89990234375.25,37.39990234375-.0699462890625,5.77001953125.43994140625,11.1700439453125.429931640625,16.880126953125-.150146484375,13.72998046875,1.1800537109375,27.47998046875.260009765625,41.2799072265625-.0799560546875,55.7000732421875.6400146484375,111.6099853515625.4500732421875,167.510009765625.260009765625,5.0799560546875-.6300048828125,10.2900390625.5,15.27001953125.3399658203125,10.2799072265625-1.969970703125,8.8599853515625-8.639892578125,8.8399658203125-17.119873046875.22998046875-5.330078125.1400146484375-10.9400634765625.6201171875-16.1900634765625-.760009765625-8.34002685546875.22998046875-16.82000732421875-.10009765625-25.20001220703125ZM48.06856749542203,88.16998291015625c-.0198974609375-.3499755859375.27001953125-.75.780029296875-1.16998291015625,14.1800537109375-9.97998046875,26.260009765625-27.0999755859375,38.7999267578125-37.8900146484375,2.550048828125-1.739990234375,1.1700439453125,1.09002685546875,1.31005859375,3.4200439453125.030029296875,1.1300048828125.510009765625,2.3499755859375.010009765625,3.40997314453125l-.06005859375.1400146484375c-11.02001953125,8.77001953125-26.119873046875,32.52001953125-39.0399169921875,33.010009765625-.6700439453125.03997802734375-1.7900390625-.260009765625-1.800048828125-.9200439453125ZM88.52865050323453,88.3699951171875l-.130126953125.1199951171875c-1.18994140625,1.1199951171875-2.469970703125-.260009765625-3.8798828125-.1099853515625-1.330078125.07000732421875-6.239990234375,1.97998046875-3.9200439453125-.969970703125,1.6500244140625-1.9300537109375,4.5799560546875-4.23004150390625,6.3199462890625-6.45001220703125,1.4000244140625-1.3699951171875,2.10009765625-.6300048828125,1.75,1.45001220703125-.10986328125.62994384765625-.43994140625,1.94000244140625-.3099365234375,2.44000244140625.1900634765625,1.28997802734375,1.2999267578125,2.43994140625.1700439453125,3.51995849609375ZM89.03866026885953,66.97998046875c-.340087890625,1.9300537109375.5599365234375,3.58001708984375-.1900634765625,5.050048828125l-.0799560546875.15997314453125c-4.39013671875,5.29998779296875-10.25,9.84002685546875-14.6700439453125,15.08001708984375-2.4300537109375,3.1400146484375-4.25,1.25-7.4100341796875,1.8699951171875-1.530029296875.3699951171875-3.3199462890625.52996826171875-1.719970703125-1.489990234375,6.3900146484375-6.760009765625,15.6300048828125-15.6700439453125,22.320068359375-22.30999755859375.429931640625-.44000244140625,1.3099365234375-1.1700439453125,1.7899169921875-.989990234375.6400146484375.5899658203125-.0299072265625,1.8299560546875-.0399169921875,2.62994384765625ZM33.02865050323453,87.20001220703125c6.530029296875-7.6099853515625,16.010009765625-14.78997802734375,22.989990234375-22.41998291015625l.0999755859375-.09002685546875c6.1900634765625-5.3399658203125,15.0999755859375-15.28997802734375,21.5799560546875-21.69000244140625,5.6300048828125-5.66998291015625,10.449951171875-10.1300048828125,11.510009765625-9.6400146484375.1099853515625,11.59002685546875-12.27001953125,19.35003662109375-22.81005859375,28.80999755859375-3.699951171875,3.0400390625-6.260009765625,6.530029296875-9.5399169921875,9.82000732421875-6.9801025390625,6.0400390625-12.8800048828125,16.98004150390625-22.9500732421875,16.83001708984375-.97998046875-.08001708984375-1.5899658203125-.66998291015625-.8798828125-1.6199951171875Z"
      />
      <path
        class="cls-2"
        d="M125.10860655792203,256.70001220703125c-14.239990234375,16.75-29.9700927734375,32.5-46.8900146484375,46.3699951171875-6.409912109375,4.08001708984375-12.719970703125-5.45001220703125-16.530029296875-9.57000732421875-1.0999755859375-1.30999755859375-2.1099853515625-2.91998291015625-2.02001953125-4.67999267578125.25-3.6199951171875,4.2000732421875-5.08001708984375,6.72998046875-7.07000732421875,24.39013671875-20.97998046875,55.340087890625-41.92999267578125,63.72998046875-74.69000244140625.6201171875-2.15997314453125-.0499267578125-3.30999755859375-2.25-2.95001220703125-13.7698974609375,1.86004638671875-26.25,9.5400390625-39.5299072265625,13.1300048828125-4.239990234375.98004150390625-8.8499755859375,2.3800048828125-13.1500244140625,1.4100341796875-10.14990234375-3.10003662109375-18.489990234375-11.20001220703125-15.1300048828125-22.34002685546875,3.5699462890625-12.1300048828125,13.5599365234375-22.29998779296875,21.6900634765625-31.739990234375,13.010009765625-13.489990234375,25.97998046875-30.90997314453125,44.5-36.16998291015625,1.949951171875-.55999755859375,4.1099853515625-.760009765625,5.889892578125.25,3.280029296875,1.77996826171875,4.1201171875,5.91998291015625,1,8.010009765625l-.14990234375.1199951171875c-26.550048828125,14.47998046875-42.1400146484375,42.969970703125-58.3701171875,67.44000244140625.2401123046875.5,1.2100830078125.199951171875,1.77001953125.0899658203125,13.9300537109375-3.58001708984375,28.280029296875-13.5899658203125,42.7900390625-14.0999755859375,5.0400390625-.10003662109375,10.9100341796875.6199951171875,14.860107421875,4.26995849609375,20.0499267578125,18.1600341796875,6.75,42.99005126953125-8.9400634765625,62.22003173828125Z"
      />
    </g>
  </g>
</svg>
