<svg viewBox="0 0 463.683594947793608 463.599872878134192">
  <defs>
    <style>
      .cls-1 {
        fill: var(--black);
      }

      .cls-2 {
        fill: var(--yellow);
      }
    </style>
  </defs>
  <g>
    <g>
      <path
        class="cls-1"
        d="M456.114428884076915,408.076218189697101l-.21002197265625-.010009765625c-38.78997802734375-.05999755859375-78.05999755859375-1.15997314453125-116.6300048828125.3699951171875-4.280029296875.08001708984375-4.44000244140625-.8599853515625-3.96002197265625-5.57000732421875,1.34002685546875-8.17999267578125.58001708984375-20,.17999267578125-28.9599609375.98004150390625-87.6400146484375-.13995361328125-175.69000244140625.49005126953125-263.42999267578125-.86004638671875-6.52001953125.6099853515625-12.6300048828125.219970703125-19.20001220703125-.239990234375-3.489990234375-.239990234375-6.8699951171875-.52996826171875-10.07000732421875-.010009765625-2.53997802734375-1-7.47998046875-.47003173828125-9.07000732421875.4000244140625-1.21002197265625,1.71002197265625-.91998291015625,4.96002197265625-.57000732421875,3.19000244140625.3699951171875,7.16998291015625.5,10.52996826171875.32000732421875,26.19000244140625-1.22998046875,52.280029296875.510009765625,78.32000732421875-.34002685546875,8.489990234375-.2099609375,16.6600341796875.6300048828125,25.32000732421875.300048828125,1.72998046875-.09002685546875,3.75-.4000244140625,5.28997802734375-1.22003173828125,2.99005126953125-1.55999755859375,4.09002685546875-4.55999755859375,3.71002197265625-7.5-1.41998291015625-7.469970703125-7.05999755859375-8.45001220703125-13.82000732421875-7.3699951171875-35.89996337890625-.010009765625-72,.1199951171875-107.80999755859375-.1400146484375-7.45001220703125.82000732421875-6.30999755859375-.010009765625-5.97998046875-6.47998046875-.030029296875-13.010009765625.1099853515625-25.80999755859375-.010009765625-38.8599853515625.27001953125-5.02001953125-2.1600341796875-10.9000244140625-7.92999267578125-10-6.9000244140625.989990234375-9.2900390625,7.20001220703125-8.02001953125,13.54998779296875.57000732421875,10.05999755859375.25,19.91998291015625-.3599853515625,29.96002197265625-.260009765625,3.26995849609375,1.1300048828125,6.78997802734375,1.05999755859375,9.8299560546875.05999755859375,4.760009765625-9.5,1.98004150390625-12.54998779296875,1.94000244140625-7.44000244140625.33001708984375-14.85003662109375-.40997314453125-22.1600341796875.25-46.47998046875-.03997802734375-92.64996337890625-.51995849609375-139.1199951171875.11004638671875-1.8399658203125.219970703125-2.719970703125.37994384765625-3.1099853515625-.21002197265625-.28997802734375-.41998291015625-.29998779296875-1.4000244140625-.239990234375-2.8900146484375.0999755859375-1.96002197265625.14996337890625-3.92999267578125.260009765625-5.8599853515625,1.0899658203125-12.77001953125-1.02001953125-25.35003662109375.3800048828125-38.1199951171875.97998046875-5.239990234375-3.58001708984375-9.5400390625-8.85003662109375-8.739990234375-5.28997802734375.489990234375-7.91998291015625,4.82000732421875-7.41998291015625,9.9599609375-.010009765625,12.8900146484375,1.1300048828125,25.77001953125.19000244140625,38.6700439453125-.239990234375,1.75.3399658203125,3.75.45001220703125,5.449951171875-.1199951171875,4.4000244140625-8.61004638671875,1.050048828125-11.52001953125,1.36004638671875-7.72003173828125.42999267578125-15.25.40997314453125-22.94000244140625-.1199951171875-10.6400146484375.239990234375-21.07000732421875.76995849609375-31.719970703125.0699462890625-4.6600341796875.57000732421875-8.800048828125.1300048828125-13.510009765625-.1099853515625-4.23004150390625.739990234375-7.55999755859375.22003173828125-11.760009765625-.07000732421875-7.55999755859375.54998779296875-14.71002197265625-.0799560546875-22.21002197265625.260009765625-4.8399658203125.6099853515625-11.1099853515625-.41998291015625-13.79998779296875,4.530029296875-2.8599853515625,6.66998291015625,1.989990234375,12.739990234375,9.0999755859375,11.78997802734375,14.24005126953125-.08001708984375,28.32000732421875-.280029296875,42.44000244140625-.1199951171875,24.19000244140625-.32000732421875,49.11004638671875.47998046875,73.3900146484375-.29998779296875,5.1500244140625-.5,1.44000244140625,9.4599609375,1.78997802734375,12.47998046875,1.2900390625,10.30999755859375-1.13995361328125,20.66998291015625.33001708984375,30.97003173828125-.1099853515625,94.5899658203125-.33001708984375,189.02996826171875.05999755859375,283.55999755859375-.22998046875,3.13995361328125,1.5400390625,10.02996826171875-2.3800048828125,9.8299560546875-2.89996337890625-.3800048828125-6.25-.69000244140625-9.26995849609375-.3599853515625-18.6700439453125.489990234375-37.1700439453125-.44000244140625-55.7900390625.03997802734375-17.5799560546875-.75994873046875-34.80999755859375.5400390625-52.19000244140625-.22998046875-1.27996826171875.05999755859375-2.44000244140625.4000244140625-3.449951171875.94000244140625-5.69000244140625,3.030029296875-6.60003662109375,11.97991943359375.28997802734375,14.22991943359375,1.3499755859375.4600830078125,2.8399658203125.610107421875,4.15997314453125.6201171875,9.71002197265625-.10009765625,19.1400146484375,1.139892578125,28.739990234375-.02001953125,4.3900146484375-.4100341796875,8.72003173828125.699951171875,13.010009765625.679931640625,20.36004638671875-1.5999755859375,40.8800048828125.6800537109375,61.1700439453125-.6298828125,3.78997802734375-.070068359375,7.90997314453125.469970703125,11.7099609375.0799560546875,2.5-.2000732421875,3.6500244140625-.489990234375,4.09002685546875.0999755859375.739990234375,1.669921875-.91998291015625,10.1600341796875-.6400146484375,12.9599609375.1400146484375,5.9599609375.47998046875,11.590087890625.65997314453125,17.580078125.08001708984375,1.3599853515625.280029296875,2.8798828125.75,4.199951171875,3.2900390625,9.10009765625,15.27001953125,4.429931640625,15.49005126953125-4.5899658203125.07000732421875-1.8499755859375-.280029296875-3.780029296875-.46002197265625-5.5799560546875-.760009765625-7.4600830078125-.05999755859375-15.030029296875-.1300048828125-22.530029296875.42999267578125-2.02001953125,2.22998046875-2.31005859375,4.280029296875-2.4200439453125,23.51995849609375,1.739990234375,47.02996826171875-.239990234375,70.51995849609375.77001953125,32.6500244140625-.9500732421875,66.3900146484375-.3099365234375,98.6600341796875-.1199951171875,1.3499755859375.02001953125,2.38995361328125.3399658203125,2.67999267578125,1.68994140625.469970703125,6.6600341796875.29998779296875,14.130126953125.010009765625,21-.510009765625,6.9500732421875-.85003662109375,15.050048828125,6.4599609375,16.570068359375,5.25,1.3399658203125,8.83001708984375-1.7099609375,9.44000244140625-7.31005859375.58001708984375-3.219970703125-.02996826171875-6.530029296875-.14996337890625-9.7099609375.39996337890625-5.4000244140625.8499755859375-10.5400390625.65997314453125-16.010009765625-1.14996337890625-7.6199951171875-.3599853515625-6.659912109375,6.28997802734375-6.31005859375,5.260009765625-.159912109375,10.31005859375-.7899169921875,15.530029296875-.239990234375,12.1400146484375,1.030029296875,24.17999267578125-.530029296875,36.3900146484375-.139892578125,13.0799560546875,1.0599365234375,25.82000732421875.10986328125,38.97998046875-.06005859375,5.66998291015625.070068359375,11.22003173828125.800048828125,16.8599853515625.6500244140625,4.5400390625-.25,11.4000244140625.25,12.9100341796875-5.300048828125,1.69000244140625-5.02996826171875-1.4200439453125-11.03997802734375-7.1099853515625-10.77996826171875ZM315.004382497358165,71.356186451415851c1.69000244140625.260009765625,4.489990234375-2.0999755859375,5.010009765625.1800537109375l.030029296875.16998291015625c.30999755859375,1.989990234375-2.010009765625,2.15997314453125-3.1700439453125,3.20001220703125-2.80999755859375,2.260009765625-4.16998291015625,4.40997314453125-6.5999755859375,6.51995849609375-.20001220703125.1500244140625-.53997802734375.3900146484375-.739990234375.1700439453125-.1199951171875-.11004638671875-.20001220703125-.33001708984375-.260009765625-.61004638671875-.94000244140625-5.19000244140625.1099853515625-9.92999267578125,5.72998046875-9.6300048828125ZM306.484424001264415,94.376205982665851c2.27996826171875-5.02996826171875,6.8699951171875-7.97998046875,10.69000244140625-11.82000732421875.79998779296875-.90997314453125,1.5899658203125-2.5,2.5699462890625-3,1.49005126953125-.51995849609375.4300537109375,2.97003173828125.57000732421875,4.030029296875.010009765625,1.3499755859375.5400390625,2.6400146484375-.02996826171875,3.7099609375l-.08001708984375.1600341796875c-21.75,21.83001708984375-43.52996826171875,43.95001220703125-65.9000244140625,65.15997314453125-9.5,9.6199951171875-17.18994140625,22.050048828125-30.469970703125,26.6400146484375-3.8900146484375,1.46002197265625,3.3800048828125-6.46002197265625,3.79998779296875-7.19000244140625,5.33001708984375-6.30999755859375,11.489990234375-11.71002197265625,17.3599853515625-17.54998779296875,15.9100341796875-16.69000244140625,32.800048828125-32.3499755859375,48.94000244140625-49.030029296875,3.96002197265625-3.92999267578125,9.72003173828125-6.1300048828125,12.550048828125-11.1099853515625ZM236.964404470014415,71.186203541259601c1.8800048828125-.1300048828125,3.8900146484375.4100341796875,1.6400146484375,2.48004150390625-27.1600341796875,22.88995361328125-50.010009765625,50.0699462890625-75.57000732421875,74.5899658203125-2.91998291015625,3.53997802734375-6.3699951171875,6.3699951171875-9.52001953125,9.6199951171875-2.3599853515625,2.6199951171875-4.57000732421875,5.16998291015625-7.07000732421875,7.77001953125-.719970703125.80999755859375-1.65997314453125,2.27996826171875-2.80999755859375,1.760009765625-.8399658203125-.45001220703125-.1199951171875-2.5-.3499755859375-4.1500244140625-.1099853515625-1.05999755859375-.30999755859375-2.1400146484375.25-3.1099853515625l.08001708984375-.1500244140625c28.5999755859375-29.1400146484375,58.4599609375-57.3399658203125,86.50994873046875-87.0999755859375,1.69000244140625-2.07000732421875,4.2900390625-1.66998291015625,6.84002685546875-1.71002197265625ZM143.524402028608165,272.026230396728351l.09002685546875-.1600341796875c7.469970703125-7.719970703125,15.719970703125-15.02996826171875,23.15997314453125-22.97998046875.59002685546875-.5999755859375,1.260009765625-1.28997802734375,2.07000732421875-1.3699951171875,1.489990234375-.1400146484375,4.39996337890625,1.260009765625,4.6099853515625,2.77001953125.07000732421875,1-.79998779296875,1.6099853515625-1.739990234375,2.219970703125-7.42999267578125,6.3800048828125-13.82000732421875,13.3900146484375-21,20.08001708984375-2.1300048828125,1.6099853515625-3.83001708984375,4.27996826171875-5.3699951171875,6.219970703125-.66998291015625.71002197265625-1.8699951171875,1.08001708984375-2.1199951171875.04998779296875-.07000732421875-.63995361328125.219970703125-1.3499755859375.28997802734375-2.00994873046875.34002685546875-1.72003173828125-.8399658203125-3.30999755859375.010009765625-4.82000732421875ZM159.614428884076915,248.196213306884601c-4.09002685546875,4.1400146484375-7.74005126953125,8.3599853515625-12.20001220703125,12.1300048828125-.8699951171875.75-1.46002197265625,1.65997314453125-2.0400390625,2.6199951171875-2.75,4.28997802734375-2.8699951171875-4.469970703125-1.67999267578125-6.97998046875l.09002685546875-.1500244140625c4.4599609375-4.719970703125,9.25-9.42999267578125,13.95001220703125-13.95001220703125,1.0799560546875-1.02996826171875,2.3199462890625-.3699951171875,3.42999267578125.6500244140625,3.0899658203125,2.3699951171875.260009765625,3.9000244140625-1.54998779296875,5.67999267578125ZM151.964404470014415,239.956223072509601c-1.030029296875.72998046875-2.1300048828125,1.30999755859375-2.97003173828125,2.30999755859375-1.89996337890625,2.02001953125-2.80999755859375,4.97998046875-5.0699462890625,5.3900146484375-1.760009765625-.10003662109375-.35003662109375-1.6700439453125-.3900146484375-3.20001220703125.02996826171875-1.6500244140625-.84002685546875-3.1400146484375.04998779296875-4.6300048828125l.0999755859375-.16998291015625c1.82000732421875-2.4000244140625,4.05999755859375-4.46002197265625,6.4300537109375-6.30999755859375.3299560546875-.20001220703125.67999267578125-.22003173828125,1.01995849609375-.0400390625,2.57000732421875,2.07000732421875,3.98004150390625,4.510009765625.83001708984375,6.6500244140625ZM143.564380055951915,226.166245045165851c-.239990234375-.61004638671875-.3599853515625-1.3800048828125.0400390625-2.11004638671875l.0899658203125-.03997802734375c1.9200439453125,1.6199951171875,5.44000244140625,7.58001708984375.45001220703125,7.69000244140625-.55999755859375-.02001953125-1.1099853515625-.17999267578125-1-.77001953125.19000244140625-.75.760009765625-1.5.8499755859375-2.33001708984375.12005615234375-.90997314453125-.239990234375-1.89996337890625-.42999267578125-2.43994140625ZM143.614428884076915,175.896225513915851l.0699462890625-.1600341796875c3.24005126953125-3.94000244140625,7.72003173828125-6.989990234375,11.22003173828125-10.76995849609375.260009765625-.35003662109375.510009765625-.67999267578125.77001953125-.989990234375.66998291015625-.71002197265625.3399658203125-.24005126953125-.010009765625.13995361328125-.25.2900390625-.5.57000732421875-.760009765625.85003662109375-6.46002197265625,8.739990234375-13.1500244140625,29.42999267578125-11.28997802734375,10.92999267578125ZM216.894397145795665,71.436203541259601c1.20001220703125-.30999755859375,2.9000244140625.09002685546875,4.5-.219970703125,1.3900146484375-.30999755859375,3.91998291015625-.8800048828125,1.91998291015625,1.5-24.9599609375,25.41998291015625-52.97998046875,51.55999755859375-77.5999755859375,77.92999267578125-.72003173828125.69000244140625-1.6300048828125,1.22998046875-2.3900146484375.65997314453125-.5899658203125-.51995849609375.08001708984375-2.15997314453125-.05999755859375-3.6099853515625-.07000732421875-1.17999267578125-.53997802734375-2.40997314453125.10003662109375-3.5l.0799560546875-.15997314453125c17.489990234375-17.23004150390625,34.67999267578125-35.35003662109375,52.58001708984375-51.98004150390625,4.9000244140625-5.30999755859375,10.0999755859375-10.04998779296875,15.1300048828125-15.2099609375,1.94000244140625-1.67999267578125,3.1199951171875-4.67999267578125,5.739990234375-5.4100341796875ZM186.824389821576915,70.976242603759601c1.5.01995849609375,3.8599853515625-.5400390625,4.42999267578125.3599853515625,1.19000244140625,2.52996826171875-3.25,3.72998046875-4.69000244140625,5.29998779296875-5.40997314453125,5.59002685546875-10.6099853515625,10.96002197265625-16.28997802734375,16.3499755859375-5.58001708984375,5.5-10.22003173828125,11.800048828125-16.29998779296875,16.70001220703125-3.20001220703125,2.280029296875-5.4100341796875,6.35003662109375-8.1500244140625,8.97003173828125-.8399658203125.75-1.67999267578125,1.41998291015625-2.41998291015625.989990234375-.70001220703125-.82000732421875.52001953125-2.71002197265625.25-3.8699951171875-.05999755859375-1.239990234375-.780029296875-2.489990234375-.1300048828125-3.67999267578125l.08001708984375-.1500244140625c7.54998779296875-7.92999267578125,16.01995849609375-15.3499755859375,23.54998779296875-23.52996826171875,3.77996826171875-4.72003173828125,8.17999267578125-8.52001953125,12.760009765625-12.5400390625,2.0799560546875-2.1199951171875,3.5799560546875-5.0899658203125,6.90997314453125-4.89996337890625ZM164.644397145795665,74.696213306884601c2.030029296875-2.91998291015625,6.27001953125-4.28997802734375,9.57000732421875-3.83001708984375,5.08001708984375.96002197265625-1.45001220703125,3.77001953125-2.80999755859375,5.1500244140625-1.17999267578125,1.0999755859375-2,2.489990234375-3.09002685546875,3.6199951171875-3.28997802734375,3.45001220703125-7.03997802734375,6.21002197265625-10.239990234375,9.8699951171875-4.02001953125,3.32000732421875-7.27001953125,7.08001708984375-10.989990234375,10.739990234375-.78997802734375.780029296875-1.3599853515625,1.72003173828125-2.010009765625,2.6099853515625-1.6400146484375,2.11004638671875-1.8399658203125-.01995849609375-1.47998046875-1.87994384765625.41998291015625-1.72003173828125-.79998779296875-3.530029296875-.030029296875-4.99005126953125l.09002685546875-.15997314453125c6.52001953125-7.27001953125,14.8800048828125-13.27001953125,20.989990234375-21.1300048828125ZM143.544421559858165,79.926193775634601l.0899658203125-.15997314453125c1.33001708984375-1.8599853515625,3.280029296875-3.30999755859375,4.989990234375-4.95001220703125,1.48004150390625-1.17999267578125,2.77001953125-2.97998046875,4.760009765625-3.260009765625,1.45001220703125-.03997802734375,3.04998779296875.1600341796875,4.44000244140625-.3399658203125.6600341796875-.21002197265625,1.22003173828125-.27001953125,1.47003173828125.02996826171875.3599853515625.44000244140625.01995849609375,1.1300048828125-.30999755859375,1.57000732421875-2.98004150390625,3.79998779296875-8.69000244140625,7.67999267578125-11.6700439453125,12.19000244140625-.75,1.02001953125-2.449951171875,3.989990234375-3.8399658203125,3.010009765625-.73004150390625-.70001220703125-.010009765625-3.09002685546875-.02001953125-4.280029296875-.02001953125-1.3599853515625-.58001708984375-2.64996337890625.09002685546875-3.80999755859375ZM143.634387380170665,128.126205982665851l.08001708984375-.15997314453125c13.02001953125-13.54998779296875,27.219970703125-26.52001953125,39.91998291015625-40.59002685546875.760009765625-.760009765625,1.6300048828125-1.40997314453125,2.510009765625-2.02001953125,3-2.13995361328125,5-5.13995361328125,7.90997314453125-7.37994384765625,2.56005859375-2.030029296875,3.760009765625-5.45001220703125,6.95001220703125-6.33001708984375,1.1500244140625-.27001953125,2.75.04998779296875,4.1500244140625-.22998046875.5899658203125-.09002685546875,1.20001220703125-.280029296875,1.77996826171875-.1800537109375.9300537109375.22003173828125,1.010009765625,1.1600341796875.1400146484375,1.74005126953125-.8399658203125.55999755859375-2.05999755859375,1.25-2.8499755859375,2.1099853515625-11.6400146484375,13.0899658203125-24.77001953125,24.29998779296875-36.4000244140625,37.25-5.0899658203125,5.02996826171875-10.5999755859375,9.3699951171875-15.27001953125,14.82000732421875-1.64996337890625,1.82000732421875-3.77996826171875,4.05999755859375-5.489990234375,6.03997802734375-.82000732421875.91998291015625-2.3599853515625,2.57000732421875-3.0999755859375,2.53997802734375-1.72998046875-.04998779296875-.8699951171875-6.449951171875-.33001708984375-7.6099853515625ZM143.474414235639415,287.976242603759601l.0799560546875-.1600341796875c6.510009765625-7.219970703125,14.70001220703125-13.20001220703125,20.95001220703125-20.8599853515625,6.280029296875-5.1300048828125,11-15.28997802734375,20.30999755859375-14.70001220703125,1.1500244140625.1300048828125,1.5400390625.739990234375.57000732421875,1.72998046875-11.17999267578125,12.050048828125-23.9599609375,23.030029296875-34.79998779296875,35.47003173828125-1.780029296875,1.8699951171875-4.3499755859375,3.27001953125-5.6400146484375,5.54998779296875-2.72998046875,4.1300048828125-2.3399658203125-4.8399658203125-1.469970703125-7.02996826171875ZM143.304370290326915,320.166245045165851l.09002685546875-.1600341796875c17.75-17.3900146484375,35.03997802734375-35.719970703125,53.260009765625-52.41998291015625,6.5899658203125-6.489990234375,12.07000732421875-14.23004150390625,20.05999755859375-18.92999267578125,1.02001953125-1,12.510009765625-5.36004638671875,8.97998046875-2-20.3499755859375,18.8800048828125-39.0999755859375,39.54998779296875-59.40997314453125,58.469970703125-6.19000244140625,6.5400390625-12.1099853515625,13.21002197265625-19.0400390625,18.91998291015625-.75.6400146484375-1.37994384765625,1.4100341796875-1.9599609375,2.20001220703125-1.71002197265625,2.5-2.47003173828125,1.6300048828125-2.239990234375-1.3900146484375.1300048828125-1.63995361328125-.52001953125-3.39996337890625.25994873046875-4.68994140625ZM203.224414235639415,252.396225513915851c-14.34002685546875,14.57000732421875-29.010009765625,28.83001708984375-43.1400146484375,43.42999267578125-4.28997802734375,5.1300048828125-10,8.80999755859375-13.97998046875,14.20001220703125-1.70001220703125,2.239990234375-3.3699951171875,2.42999267578125-3.08001708984375-1.1400146484375.1199951171875-1.6500244140625-.510009765625-3.42999267578125.33001708984375-4.719970703125l.0899658203125-.1500244140625c12.60003662109375-12.30999755859375,24.95001220703125-25.22003173828125,37.67999267578125-37.53997802734375,2.550048828125-3.19000244140625,5.61004638671875-5.4200439453125,8.3900146484375-8.1600341796875,4.780029296875-5.6400146484375,6.10003662109375-5.719970703125,13.34002685546875-6.89996337890625,1.01995849609375-.20001220703125,1.41998291015625-.07000732421875.3699951171875.97998046875ZM143.454394704389415,336.216232838134601l.08001708984375-.1700439453125c21.5899658203125-21.91998291015625,43.51995849609375-43.72998046875,65.739990234375-65.04998779296875,9.760009765625-9.94000244140625,18.29998779296875-21.65997314453125,29.8499755859375-29.64996337890625,3.780029296875-2.61004638671875,7.8800048828125-4.77001953125,12.3699951171875-6.23004150390625.24005126953125-.0799560546875.47003173828125-.13995361328125.6500244140625-.17999267578125.3900146484375-.08001708984375.6099853515625-.05999755859375.6300048828125.07000732421875-25.08001708984375,25.3599853515625-50.739990234375,51.030029296875-76.54998779296875,75.9100341796875-8.92999267578125,11.1199951171875-21.2900390625,19.5999755859375-29.780029296875,31.12994384765625-1.52996826171875,1.760009765625-3.3699951171875,4.0400390625-3.6300048828125.24005126953125-.02996826171875-2.030029296875-.0999755859375-4.19000244140625.6400146484375-6.07000732421875ZM258.504382497358165,237.096237720947101c.1500244140625-.05999755859375.07000732421875.17999267578125-.17999267578125.63995361328125-.0999755859375.1800537109375-.22998046875.3900146484375-.3599853515625.6199951171875-5.1199951171875,8.37005615234375-10.47003173828125,16.69000244140625-16.72998046875,24.280029296875l-.1300048828125.1400146484375c-27.760009765625,27.010009765625-54.20001220703125,55.90997314453125-86.239990234375,77.469970703125,34.87994384765625-33.89996337890625,68.93994140625-69.03997802734375,103.63995361328125-103.14996337890625ZM143.894397145795665,386.786240162353351c-.4000244140625-1.1400146484375-.70001220703125-1.9000244140625-.28997802734375-3l.05999755859375-.20001220703125c1.97998046875-5.1600341796875,8.15997314453125,3.1099853515625,3.67999267578125,4.8800048828125-.989990234375.3800048828125-1.20001220703125,1.30999755859375-1.77001953125,2.1099853515625-1.39996337890625,2.07000732421875-2.4599609375,1.6400146484375-2.010009765625-.80999755859375.1600341796875-1.03997802734375.69000244140625-1.91998291015625.33001708984375-2.97998046875ZM143.024402028608165,405.526230396728351c.08001708984375-1.9100341796875.1099853515625-3.80999755859375.69000244140625-5.6199951171875l.07000732421875-.1700439453125c2.25-2.989990234375,5.3900146484375-5.44000244140625,8.07000732421875-8.0899658203125.57000732421875-.52001953125,1.25-1.33001708984375,2.01995849609375-1.1099853515625,1.36004638671875.5799560546875,3.25,2.4599609375,3.02001953125,3.91998291015625-.40997314453125,1.64996337890625-2.6500244140625,2.3399658203125-3.760009765625,3.52001953125-4.53997802734375,4.38995361328125-10.1300048828125,14.949951171875-10.1099853515625,7.54998779296875ZM165.964404470014415,401.856186451415851c-1.83001708984375,1.97003173828125-3.8800048828125,3.85003662109375-6.05999755859375,5.47003173828125-1.29998779296875.47998046875-2.66998291015625.5-4.27001953125,1-1.55999755859375.27996826171875-3.5,1.02996826171875-4.1400146484375-.45001220703125l-.01995849609375-.1300048828125c.52996826171875-2.95001220703125,4.79998779296875-3.6300048828125,6.6199951171875-5.9599609375,2.1300048828125-3.07000732421875,3.40997314453125-4.71002197265625,6.95001220703125-1.77001953125.67999267578125.53997802734375,1.41998291015625,1.07000732421875.91998291015625,1.8399658203125ZM175.524402028608165,407.466232838134601c-2.65997314453125-.70001220703125-6.65997314453125,2.57000732421875-7.90997314453125.44000244140625l-.0400390625-.1300048828125c-.47998046875-4.92999267578125,5.9100341796875-1.35003662109375,8.04998779296875-.33001708984375.050048828125.030029296875.09002685546875.03997802734375.11004638671875.05999755859375-.010009765625,0-.08001708984375-.02001953125-.21002197265625-.03997802734375ZM182.764392262983165,392.546188892822101c-13.64996337890625-7.8199462890625-36.1400146484375-23.92999267578125-23.17999267578125-36.0899658203125,2.54998779296875-2.70001220703125,7.58001708984375-5.1300048828125,11.05999755859375-6.97998046875,18.75-14.9000244140625,36.92999267578125-31.36004638671875,55.260009765625-46.97003173828125,24.15997314453125-24.77001953125,54.42999267578125-57.1400146484375,59.3699951171875-92.19000244140625-19.07000732421875-1.96002197265625-38.54998779296875,10.69000244140625-57.58001708984375,17.78997802734375-4.6400146484375,1.9100341796875-9.239990234375,3.050048828125-13.8599853515625,4.6800537109375-23.8900146484375,9.3599853515625-50.96002197265625,1.92999267578125-60.1400146484375-25-.29998779296875-.98004150390625-.41998291015625-1.95001220703125-.30999755859375-2.86004638671875,4.19000244140625-16.199951171875,13.83001708984375-31.57000732421875,24.530029296875-44.4599609375,18.76995849609375-23.75,84.8399658203125-107.73004150390625,114.75-82.32000732421875,2.30999755859375,5.08001708984375-.75,8.66998291015625-4.77001953125,10.9599609375-44.34002685546875,21.49005126953125-76.989990234375,80.94000244140625-105.27996826171875,120.5-.6500244140625.95001220703125-1.260009765625,1.9300537109375.25,1.58001708984375,11.80999755859375-3.54998779296875,24.199951171875-8.72998046875,36.7099609375-13.469970703125,43.80999755859375-18.09002685546875,84.72998046875-23.6500244140625,90.280029296875,37.54998779296875-9.989990234375,59.95001220703125-78.09002685546875,123.46002197265625-126.95001220703125,157.28997802734375l-.1400146484375-.010009765625ZM319.774402028608165,196.766220631103351c.3699951171875,1.1300048828125.70001220703125,1.8599853515625.29998779296875,3.02001953125l-.07000732421875.199951171875c-1.969970703125,5.1199951171875-7-4.00994873046875-3.22998046875-5.3299560546875.34002685546875-.17999267578125.69000244140625-.3800048828125.94000244140625-.6700439453125.71002197265625-.8800048828125.760009765625-2.1199951171875,1.3399658203125-2.3299560546875.71002197265625-.17999267578125,1.6400146484375.6199951171875,1.34002685546875,1.3599853515625-.489990234375.989990234375-1.1300048828125,2.510009765625-.6199951171875,3.75ZM320.024402028608165,263.856186451415851c-.22998046875.56005859375-.45001220703125.6600341796875-1.03997802734375.82000732421875.17999267578125-1.0899658203125,1.719970703125-3.17999267578125,1.03997802734375-.82000732421875ZM315.984424001264415,275.416245045165851c1.199951171875-1,2.219970703125-3.62005615234375,3.8399658203125-3.6700439453125.9000244140625.20001220703125.29998779296875,2.77001953125.35003662109375,3.85003662109375.02996826171875,1.40997314453125.67999267578125,2.63995361328125.03997802734375,3.78997802734375l-.09002685546875.15997314453125c-7.3299560546875,7.47003173828125-15.2099609375,14.7900390625-22.51995849609375,22.510009765625-.20001220703125.19000244140625-.3800048828125.3800048828125-.530029296875.530029296875-.3900146484375.3699951171875-.55999755859375.489990234375-.44000244140625.239990234375,6.2900390625-9.4000244140625,11.80999755859375-19.42999267578125,19.35003662109375-27.40997314453125ZM320.094409352826915,183.726242603759601l-.07000732421875.15997314453125c-2.20001220703125,2.95001220703125-5.72998046875,4.8900146484375-8.260009765625,7.6099853515625-1.07000732421875.85003662109375-1.77001953125-1.17999267578125-2.8900146484375-2.42999267578125-.4599609375-.54998779296875-.8800048828125-1.25-.30999755859375-1.8900146484375,2.35003662109375-2.77996826171875,4.95001220703125-5.28997802734375,7.70001220703125-7.91998291015625,1.1400146484375-1.07000732421875,1.94000244140625-3.44000244140625,3.27001953125-4.07000732421875,1.6099853515625-.65997314453125,1.3499755859375,5.7900390625.55999755859375,8.5400390625ZM320.094409352826915,167.516220631103351l-.10003662109375.1500244140625c-3.44000244140625,3.78997802734375-7.44000244140625,7.38995361328125-11.02996826171875,11.1199951171875-1.59002685546875,1.44000244140625-2.989990234375,3.19000244140625-4.739990234375,4.3299560546875-1.27001953125.57000732421875-2.75-1.1199951171875-3.3800048828125-2-1.71002197265625-2.38995361328125,1.64996337890625-4.14996337890625,3.0899658203125-5.64996337890625,4.11004638671875-4,7.3699951171875-8.239990234375,11.80999755859375-11.989990234375,1.08001708984375-.83001708984375,1.8800048828125-2.52001953125,2.62005615234375-3.34002685546875.5799560546875-.55999755859375,1.8499755859375-.6099853515625,2.14996337890625.219970703125.1500244140625.62005615234375-.17999267578125,1.31005859375-.239990234375,1.97003173828125-.3800048828125,1.82000732421875.77001953125,3.58001708984375-.17999267578125,5.19000244140625ZM320.134387380170665,151.496201099853351l-.0899658203125.1500244140625c-7.57000732421875,7.70001220703125-15.74005126953125,15.219970703125-23.27001953125,23.17999267578125-.69000244140625.67999267578125-1.28997802734375,1.5999755859375-2.27001953125,1.58001708984375-1.3399658203125-.010009765625-3.76995849609375-1.58001708984375-4-3.1400146484375-.13995361328125-1.92999267578125,2.3699951171875-2.52001953125,3.42999267578125-3.77001953125,6.24005126953125-6.260009765625,12.33001708984375-11.90997314453125,18.6199951171875-18.1300048828125,2.280029296875-1.7099609375,4.050048828125-4.6099853515625,5.74005126953125-6.6199951171875.699951171875-.66998291015625,1.8800048828125-1.1099853515625,2.19000244140625-.14996337890625.0899658203125.8299560546875-.3699951171875,1.7099609375-.3699951171875,2.57000732421875-.11004638671875,1.76995849609375.75,3.01995849609375.01995849609375,4.3299560546875ZM290.044421559858165,165.996201099853351c-1.55999755859375,1.83001708984375-3.17999267578125,3.739990234375-5.7900390625,3.989990234375-4.44000244140625.58001708984375-7-1.38995361328125-3.20001220703125-4.15997314453125,10.4200439453125-8.20001220703125,19.48004150390625-18.59002685546875,28.95001220703125-28.27001953125,2.92999267578125-2.39996337890625,5.8699951171875-6.03997802734375,7.95001220703125-9,.97998046875-1.219970703125,1.69000244140625-1.90997314453125,2.0999755859375-.8299560546875.4100341796875,1.969970703125.49005126953125,5.65997314453125-.15997314453125,7.79998779296875l-.07000732421875.16998291015625c-9.83001708984375,9.97998046875-20.1099853515625,19.91998291015625-29.77996826171875,30.29998779296875ZM319.884387380170665,119.576218189697101l-.08001708984375.1500244140625c-12.3499755859375,11.90997314453125-23.969970703125,25-36.78997802734375,36.65997314453125-2.78997802734375,2.78997802734375-4.77001953125,6.04998779296875-8.010009765625,8.20001220703125-.55999755859375.3900146484375-1.1199951171875.78997802734375-1.6199951171875,1.260009765625-1.469970703125,1.5-2,3.01995849609375-4.20001220703125,2.78997802734375-1.47998046875-.1199951171875-4.55999755859375.469970703125-5.52996826171875-.1199951171875-.03997802734375-.04998779296875-.05999755859375-.0999755859375-.05999755859375-.1500244140625-.1300048828125-.32000732421875,1.28997802734375-1.51995849609375,2.010009765625-2.14996337890625,1.40997314453125-1.20001220703125,3.17999267578125-3.09002685546875,4.42999267578125-4.4100341796875,9.27996826171875-9.3699951171875,18.04998779296875-18.90997314453125,27.6199951171875-27.89996337890625,4.94000244140625-4.95001220703125,9.46002197265625-10.1700439453125,14.82000732421875-14.80999755859375,2.1099853515625-1.260009765625,8.0799560546875-11.9000244140625,7.95001220703125-4.25-.050048828125,1.54998779296875.04998779296875,3.47998046875-.5400390625,4.72998046875ZM188.054370290326915,408.076218189697101l-.01995849609375-.05999755859375c2.39996337890625-1.010009765625,4.95001220703125-2.47003173828125,7.219970703125-3.79998779296875-1.65997314453125,2.1099853515625-4.02996826171875,5.01995849609375-7.20001220703125,3.8599853515625ZM208.004382497358165,407.616196217040851c-1.0999755859375.800048828125-2.51995849609375.77001953125-3.8299560546875.92999267578125-1.780029296875.09002685546875-4.1300048828125,1.05999755859375-4.34002685546875-.37994384765625l.010009765625-.11004638671875c38.79998779296875-39.5999755859375,81.02996826171875-81.42999267578125,120.510009765625-120.6300048828125.719970703125.59002685546875-.02001953125,3.030029296875-.02001953125,4.19000244140625-.04998779296875,1.300048828125.530029296875,2.61004638671875.03997802734375,3.739990234375-26.26995849609375,27.3800048828125-54.469970703125,52.96002197265625-80.4599609375,80.82000732421875-10.34002685546875,10.780029296875-21.80999755859375,20.58001708984375-31.9100341796875,31.44000244140625ZM221.724414235639415,408.286240162353351c-1.8699951171875.19000244140625-5.47003173828125,1.469970703125-5.9200439453125-.280029296875l.010009765625-.1099853515625c31.9100341796875-33.22998046875,67.550048828125-66.17999267578125,99.73004150390625-100.2900390625,1.27996826171875-1.17999267578125,3-4.68994140625,4.739990234375-3.77996826171875.69000244140625.58001708984375.1199951171875,2.719970703125.07000732421875,3.8499755859375-.11004638671875,1.34002685546875.41998291015625,2.57000732421875-.1500244140625,3.6700439453125-.33001708984375.66998291015625-.8800048828125,1.22998046875-1.44000244140625,1.72998046875-2.90997314453125,2.54998779296875-5.39996337890625,5.6400146484375-8.16998291015625,8.47998046875-2.1099853515625,2.27001953125-4.739990234375,3.97003173828125-6.83001708984375,6.260009765625-19.07000732421875,20.83001708984375-40.77996826171875,39.22003173828125-59.719970703125,60.04998779296875-4.82000732421875,4.8699951171875-10.4000244140625,9.1500244140625-14.99005126953125,14.4100341796875-2.22998046875,2.22998046875-3.92999267578125,5.5799560546875-7.3299560546875,6.010009765625ZM241.214404470014415,406.326218189697101c-1.21002197265625,1.19000244140625-2.8800048828125,1.27001953125-4.489990234375,1.3699951171875-2.22003173828125.08001708984375-4.8599853515625,1.59002685546875-4.9200439453125.22998046875l.02001953125-.0999755859375c.67999267578125-1.42999267578125,2.08001708984375-2.45001220703125,3.260009765625-3.72003173828125,6.44000244140625-5.91998291015625,13.65997314453125-12.3699951171875,19.28997802734375-19.27996826171875,5.6700439453125-5.79998779296875,11.8699951171875-10.8499755859375,17.07000732421875-17.1199951171875.780029296875-.9000244140625,1.6400146484375-1.72998046875,2.55999755859375-2.489990234375,13.92999267578125-11.22003173828125,25.1600341796875-26.239990234375,38.6400146484375-38.1300048828125,2.03997802734375-1.71002197265625,3.59002685546875-4.32000732421875,5.3699951171875-6.21002197265625,4.17999267578125-4.77001953125,2.17999267578125,4.79998779296875,1.530029296875,6.58001708984375-1.86004638671875,4.08001708984375-5.73004150390625,6.65997314453125-8.80999755859375,9.77996826171875-18.99005126953125,17.96002197265625-36.4300537109375,37.4200439453125-55.82000732421875,55.1400146484375-4.6600341796875,4.60003662109375-8.82000732421875,9.72003173828125-13.70001220703125,13.95001220703125ZM257.014392262983165,407.056198658447101c-.92999267578125,1-2.32000732421875,1.25-3.64996337890625,1.32000732421875-2.24005126953125-.04998779296875-5.74005126953125,1.2900390625-5.70001220703125-.239990234375l.02996826171875-.0999755859375c9.6099853515625-10.21002197265625,21.30999755859375-21.05999755859375,31.2900390625-31.800048828125,13.5999755859375-12.54998779296875,27.3699951171875-26.8599853515625,39.8800048828125-39.52996826171875.63995361328125-.60003662109375,1.3299560546875-.94000244140625,1.62994384765625-.66998291015625.49005126953125.72998046875-.1099853515625,1.8599853515625-.14996337890625,2.7099609375-.30999755859375,1.75.53997802734375,3.22003173828125-.030029296875,4.54998779296875-1.88995361328125,3.34002685546875-5.44000244140625,5.4000244140625-8.05999755859375,8.20001220703125-12.42999267578125,12.9100341796875-25.6300048828125,24.84002685546875-37.67999267578125,38.09002685546875-3.27996826171875,2.719970703125-6.05999755859375,5.64996337890625-8.82000732421875,8.82000732421875-.89996337890625.92999267578125-1.95001220703125,1.75-2.9599609375,2.55999755859375-2.32000732421875,1.760009765625-3.9200439453125,4.04998779296875-5.780029296875,6.0899658203125ZM267.844409352826915,407.996201099853351c-2.010009765625.1199951171875-4.1500244140625,1.4100341796875-4.17999267578125.0400390625l.02996826171875-.10003662109375c8.34002685546875-9.1300048828125,19.1600341796875-18.5,27.8900146484375-28.28997802734375,1.58001708984375-1.75,3.59002685546875-3.05999755859375,5.239990234375-4.739990234375,3.72003173828125-3.8800048828125,7.0400390625-7.95001220703125,11.3900146484375-11.11004638671875,2.40997314453125-2.75994873046875,5.010009765625-5.02996826171875,7.66998291015625-7.55999755859375.94000244140625-.89996337890625,1.79998779296875-2.13995361328125,2.3900146484375-3.219970703125.33001708984375-.760009765625,1.3599853515625-1.55999755859375,2.02996826171875-.9000244140625.6300048828125.67999267578125.06005859375,1.72003173828125-.02996826171875,2.530029296875-.34002685546875,1.92999267578125.1099853515625,3.6300048828125-.82000732421875,5.22998046875-1.45001220703125,2.6600341796875-4.239990234375,4.27001953125-6.3800048828125,6.47003173828125-1.58001708984375,1.65997314453125-2.8499755859375,3.44000244140625-4.469970703125,5.00994873046875-8.23004150390625,8.52001953125-17.1400146484375,16.1500244140625-24.989990234375,25.010009765625-3.4100341796875,3.69000244140625-7.31005859375,7-10.74005126953125,10.550048828125-1.26995849609375,1.5-3.25.8499755859375-5.02996826171875,1.0799560546875ZM288.994372731733165,406.926193775634601c-.75.84002685546875-1.69000244140625,1.23004150390625-2.77996826171875,1.34002685546875-1.97003173828125.08001708984375-5.8900146484375,1.55999755859375-6.4100341796875-.280029296875l.010009765625-.1199951171875c.05999755859375-.3699951171875.4100341796875-.80999755859375.84002685546875-1.239990234375,8.32000732421875-8.3800048828125,18.90997314453125-17.54998779296875,26.8900146484375-27.14996337890625,3.739990234375-3.800048828125,8.22998046875-6.57000732421875,11.1300048828125-11.12005615234375.5799560546875-.63995361328125,1.0999755859375-.8499755859375,1.44000244140625-.5799560546875,1.489990234375,1.3399658203125.3599853515625,7.469970703125-1.800048828125,9.22998046875-7.0999755859375,7.9100341796875-15.489990234375,14.9100341796875-22.80999755859375,22.8800048828125-2.219970703125,2.32000732421875-4.3800048828125,4.70001220703125-6.510009765625,7.03997802734375ZM320.084399587201915,404.866196217040851c.65997314453125,3.02001953125-1.239990234375,3.25-3.82000732421875,2.85003662109375-1.5899658203125-.36004638671875-3.55999755859375,2.0899658203125-4.54998779296875.28997802734375l-.04998779296875-.1400146484375c-.260009765625-2.28997802734375,4.45001220703125-3.14996337890625,5.55999755859375-5.3599853515625.41998291015625-.760009765625.97998046875-1.91998291015625,1.69000244140625-2.41998291015625,1.489990234375-.8699951171875,1.5999755859375.90997314453125,1.25,2.5-.239990234375.76995849609375-.27001953125,1.5-.08001708984375,2.27996826171875ZM320.694384938764415,386.656235279540851c-.14996337890625,1.5999755859375.1700439453125,3.260009765625-.30999755859375,4.44000244140625-1.3399658203125,3.25-5.1099853515625,4.6199951171875-7.32000732421875,7.22998046875-3.6099853515625,3.65997314453125-5.82000732421875,8.84002685546875-11.3399658203125,9.489990234375-1.83001708984375.21002197265625-4.95001220703125,1.95001220703125-6.1199951171875.1300048828125l-.0400390625-.1199951171875c-.22998046875-1.65997314453125,2.1300048828125-2.08001708984375,3.1300048828125-3.07000732421875,4.989990234375-4.3399658203125,9.17999267578125-9.17999267578125,14.17999267578125-13.5,2.09002685546875-1.92999267578125,4.74005126953125-8.260009765625,7.49005126953125-7.219970703125.75994873046875.5999755859375.3499755859375,1.76995849609375.3299560546875,2.6199951171875ZM320.784411794233165,99.976242603759601c.07000732421875,1.13995361328125.27996826171875,2.30999755859375-.3599853515625,3.3299560546875l-.10003662109375.1500244140625c-16.0899658203125,15.469970703125-31.3800048828125,32.510009765625-47.989990234375,47.3599853515625-3.09002685546875,3.6400146484375-6.57000732421875,6.55999755859375-9.90997314453125,9.9000244140625-2.6800537109375,2.67999267578125-5,6.15997314453125-8.35003662109375,8.07000732421875-2.75,1.69000244140625-5.8800048828125,2.719970703125-9.29998779296875,3.5799560546875-.97003173828125.20001220703125-1.8699951171875.27001953125-.53997802734375-1.07000732421875,23.8499755859375-25.0799560546875,49.39996337890625-48.39996337890625,73.1099853515625-73.449951171875.79998779296875-.97003173828125,2.010009765625-3.0400390625,3.3599853515625-2.20001220703125.67999267578125.6099853515625-.0999755859375,2.70001220703125.08001708984375,4.33001708984375Z"
      />
      <path
        class="cls-2"
        d="M309.854419118451915,235.266220631103351c-9.989990234375,59.95001220703125-78.09002685546875,123.46002197265625-126.95001220703125,157.28997802734375l-.1400146484375-.010009765625c-13.64996337890625-7.8199462890625-36.1400146484375-23.92999267578125-23.17999267578125-36.0899658203125,2.54998779296875-2.70001220703125,7.58001708984375-5.1300048828125,11.05999755859375-6.97998046875,18.75-14.9000244140625,36.92999267578125-31.36004638671875,55.260009765625-46.97003173828125,24.15997314453125-24.77001953125,54.42999267578125-57.1400146484375,59.3699951171875-92.19000244140625-19.07000732421875-1.96002197265625-38.54998779296875,10.69000244140625-57.58001708984375,17.78997802734375-4.6400146484375,1.9100341796875-9.239990234375,3.050048828125-13.8599853515625,4.6800537109375-23.8900146484375,9.3599853515625-50.96002197265625,1.92999267578125-60.1400146484375-25-.29998779296875-.98004150390625-.41998291015625-1.95001220703125-.30999755859375-2.86004638671875,4.19000244140625-16.199951171875,13.83001708984375-31.57000732421875,24.530029296875-44.4599609375,18.76995849609375-23.75,84.8399658203125-107.73004150390625,114.75-82.32000732421875,2.30999755859375,5.08001708984375-.75,8.66998291015625-4.77001953125,10.9599609375-44.34002685546875,21.49005126953125-76.989990234375,80.94000244140625-105.27996826171875,120.5-.6500244140625.95001220703125-1.260009765625,1.9300537109375.25,1.58001708984375,11.80999755859375-3.54998779296875,24.199951171875-8.72998046875,36.7099609375-13.469970703125,43.80999755859375-18.09002685546875,84.72998046875-23.6500244140625,90.280029296875,37.54998779296875Z"
      />
    </g>
  </g>
</svg>
