<svg viewBox="0 0 464.674579999615162 384.389874686072289">
  <defs>
    <style>
      .cls-1 {
        fill: #0f0f0f;
      }

      .cls-2 {
        fill: #fec301;
      }
    </style>
  </defs>
  <g>
    <g>
      <path
        class="cls-1"
        d="M394.090087890625,256.763401200749286c12.58984375-.0098876953125,25.77001953125-2.0899658203125,37.9599609375.1099853515625l.10986328125.1201171875c1.5,6.760009765625,7.4501953125,7.699951171875,13.91015625,7.43994140625,7.489990234375.52001953125,17.31982421875.1199951171875,18.47998046875-8.6199951171875-.800048828125-42.9200439453125,1.06005859375-86.489990234375-.570068359375-129.530029296875-1.409912109375-10.1300048828125-16.090087890625-4.7799072265625-22.469970703125-6.0699462890625-.8798828125-.06005859375-1.830078125.22998046875-2.669921875.6099853515625-12.1201171875,5.4100341796875-24.7099609375-5.3399658203125-38.070068359375-7.1199951171875-9.219970703125-1.080078125-20.0400390625.22998046875-16.280029296875-12.699951171875.3798828125-6.77001953125-.679931640625-13.2401123046875.1298828125-20.010009765625-.02978515625-11.760009765625-.429931640625-23.320068359375-.14990234375-35.1900634765625,1.260009765625-6.1199951171875-.449951171875-12.8499755859375-7.820068359375-13.4700927734375-36.789794921875-.679931640625-73.550048828125-.099853515625-110.539794921875-.179931640625-2.97021484375.1400146484375-4.85009765625.570068359375-7.840087890625-1.530029296875-10.639892578125-6.179931640625-19.75-25.239990234375-32.630126953125-30.3299560546875-45.599853515625-.9000244140625-91.219970703125.6199951171875-137.059814453125-.0399169921875-16.260009765625,1.97998046875-5.030029296875,39.25-7.960205078125,51.2598876953125-.83984375,5.2900390625.090087890625,10.800048828125.22021484375,16.1800537109375-6.81005859375,11.43994140625-34.27001953125,9.929931640625-46.93017578125,12.31005859375-1.02001953125.329833984375-1.81005859375-.4500732421875-1.7099609375-1.4901123046875-1.1298828125-9.3599853515625-26.85986328125-8.8599853515625-30.330078125-2.8299560546875-1.18994140625,2.3399658203125-1.719970703125,5.050048828125-1.869873046875,7.68994140625,1.219970703125,36.77001953125-.10009765625,74.31005859375.43994140625,111.27001953125-.059814453125,9.25-2.099853515625,20.43994140625,9.650146484375,21.610107421875,4.7099609375.469970703125,11.77001953125.75,16.719970703125-.7900390625,8.260009765625-3.5400390625,17.309814453125,4.619873046875,25.179931640625,11.9599609375,3.830078125,3.3800048828125,6.739990234375,6.4599609375,10.35986328125,9.7099609375,5.420166015625,4.5,14.230224609375,6.35009765625,17.830078125,12.1800537109375.93994140625,23.3599853515625-.0400390625,47.199951171875.14013671875,70.8199462890625,1.72998046875,10.75-4.380126953125,24.4200439453125,5.06982421875,30.820068359375,4.300048828125,2.43994140625,14.920166015625,1.800048828125,21.190185546875,1.0699462890625,86.550048828125-.0799560546875,173.33984375,1.050048828125,259.68994140625-.260009765625,9.099853515625,8.300048828125-11.630126953125,52.4100341796875,27.050048828125,22.1600341796875,16.849853515625-9.550048828125,31.199951171875-23.169921875,47.739990234375-33.2900390625,5.329833984375-3.1298828125,9.909912109375-7.3199462890625,15.25-10.469970703125,9.18994140625-4.469970703125,11.070068359375-12.199951171875,2.079833984375-18.679931640625-24.559814453125-16.22998046875-48.619873046875-34.510009765625-72.989990234375-50.7900390625-5.449951171875-6.47998046875,5.31005859375-3.989990234375,8.690185546875-3.9300537109375ZM264.389892578125,232.743503739811786l.170166015625-.02001953125c1.169921875-.1900634765625,2.559814453125-.81005859375,3.8798828125-.9300537109375,2.880126953125-.3499755859375,2.969970703125,1.3599853515625,2.330078125,3.8900146484375-.630126953125,2.530029296875-1.9599609375,5.8900146484375-1.920166015625,8.820068359375.01025390625.5198974609375-.009765625,1.0699462890625-.119873046875,1.5699462890625-2.330078125,4.8900146484375-.260009765625,13.5699462890625-2.800048828125,17.0799560546875-1.31982421875,1.840087890625-3.889892578125,1.1400146484375-5.81982421875.9000244140625-3.97021484375-.3499755859375-8.10009765625.4400634765625-11.710205078125.260009765625-.800048828125.010009765625-1.469970703125-.3499755859375-1.550048828125-1.2301025390625-.639892578125-6.3099365234375-2.81982421875-13.469970703125-3.139892578125-20.419921875-.159912109375-2.3399658203125-1.619873046875-5.06005859375-1.699951171875-7.0899658203125-.530029296875-4.550048828125,3.469970703125-3.6800537109375,6.530029296875-3.06005859375,5.349853515625-.1800537109375,10.550048828125-.25,15.849853515625.2301025390625ZM248.2900390625,79.813450028874286c.6298828125,3.219970703125.1298828125,6.0599365234375-.030029296875,9.3299560546875.050048828125,2.260009765625,2.429931640625,6.43994140625-.8701171875,7.2099609375-8.64990234375,1.2000732421875-18.659912109375-2.099853515625-27.35986328125,1.030029296875-5.239990234375,2.469970703125-4.199951171875,10.1800537109375-.260009765625,13.4200439453125,8.110107421875,3.3099365234375,18.300048828125.52001953125,27.079833984375,1.219970703125,4.75,2.1099853515625.41015625,9.4500732421875,1.570068359375,13.3699951171875.41015625,3.840087890625-.39990234375,7.5-.22998046875,11.340087890625.10009765625,2.2099609375,1.909912109375,4.969970703125.60009765625,7-8.22998046875,2.0299072265625-18.27001953125-.9300537109375-27.070068359375.719970703125-9.389892578125,2.969970703125-4.889892578125,16.64990234375,4.16015625,15.89990234375,7.47998046875,1.06005859375,15.869873046875-2.260009765625,22.579833984375.2100830078125.550048828125,2.8499755859375-.5400390625,6.3499755859375-.02001953125,9.4200439453125-1.329833984375,7.3399658203125,2.2099609375,16.969970703125-.699951171875,22.64990234375-5.75.60009765625-17.090087890625-1.93994140625-24.300048828125-.030029296875-3.989990234375.900146484375-6.889892578125,3.9600830078125-6.510009765625,8.2000732421875,1.25,11.7999267578125,21.469970703125,6.22998046875,30.2099609375,7.2099609375,3.06005859375.4500732421875,2.16015625,6.25.990234375,7.9500732421875-6.7001953125,3.530029296875-19.830078125-4.030029296875-23.090087890625,5.639892578125-.2099609375,17.0400390625,5.10986328125,33.4500732421875,7.099853515625,50.39013671875,2.070068359375,12.139892578125,17.7001953125,7.369873046875,26.590087890625,7.8199462890625,5.010009765625.3800048828125,12.619873046875.8299560546875,15.60009765625-.4400634765625,7.72998046875-2.7099609375,7.1298828125-13.0999755859375,8.72998046875-20.0400390625,1.169921875-12.349853515625,6.260009765625-26.369873046875,4.289794921875-38.349853515625-8.18994140625-10.97998046875-26.759765625,2.919921875-22.849853515625-9.400146484375,1.030029296875-7.0399169921875-1.119873046875-13.68994140625.389892578125-20.60986328125.050048828125-2.219970703125-1.85986328125-5-.239990234375-6.6600341796875,8.960205078125-.75,32.43017578125,2.1600341796875,32.210205078125-7.4700927734375-.590087890625-10.010009765625-12.47021484375-9.0699462890625-19.85009765625-9.0699462890625-10.919921875.239990234375-12.610107421875,3-12.64990234375-1.719970703125.39990234375-8.4700927734375.2998046875-20.75.47998046875-29.2900390625,10.18994140625-2.6500244140625,39.0400390625,4.4700927734375,29.8798828125-13.7598876953125-7.75-6.9901123046875-21.669921875-.14013671875-30.33984375-3.150146484375,2.559814453125-38.929931640625-9.7900390625-31.3199462890625,19.429931640625-31.97998046875,10.820068359375,3.9500732421875,18.08984375-12.3299560546875,5.97998046875-15.159912109375-7.330078125-.760009765625-14.659912109375-.110107421875-21.920166015625-.4300537109375-2.639892578125,1.0499267578125-3.919921875-.6300048828125-3.5498046875-3.0799560546875.31005859375-5.570068359375.68994140625-11.570068359375-.18994140625-17.080078125.009765625-1.25-.22021484375-2.8499755859375.85986328125-3.5999755859375,31.4599609375-1.4300537109375,65.81005859375.510009765625,98.179931640625-.7698974609375,9.66015625-.610107421875,4.219970703125,10.5399169921875,5.210205078125,16.5399169921875.099853515625,15.8099365234375,1.02978515625,31.6800537109375-.340087890625,47.3900146484375l-.070068359375.1099853515625c-13.820068359375,4.72998046875-65.2900390625,5.719970703125-53.31005859375,28.3699951171875,15.66015625,19.320068359375,29.2099609375,27.43994140625,53.110107421875,30.489990234375,2.349853515625,34.080078125-.56005859375,70.489990234375,1.06005859375,105.10009765625,1.269775390625,17.409912109375-.880126953125,13.0198974609375-16.080078125,12.22998046875-84.619873046875-1.3701171875-174.070068359375,3.619873046875-256.630126953125-1.72998046875,1.360107421875-4.60009765625-2.409912109375-41,2.440185546875-38.5,16.219970703125.7799072265625,32.719970703125.349853515625,49.059814453125.2899169921875,16.64013671875,1.6199951171875,23.240234375-17.2100830078125,20.340087890625-30.9300537109375-.219970703125-1.179931640625.340087890625-1.64990234375,1.60009765625-1.780029296875,18.289794921875-2.079833984375,25.699951171875-24.869873046875,13.099853515625-37.599853515625,6.2001953125-5.6201171875,12.66015625-14.2100830078125,8.800048828125-22.9600830078125-2.110107421875-7.1700439453125-7.739990234375-11.8099365234375-13.929931640625-15.2698974609375,8.239990234375-27.2401123046875-10.10009765625-39.6800537109375-35.8701171875-35.16015625-14.409912109375.030029296875-29.81982421875-.929931640625-43.77978515625-.010009765625-1.130126953125.10009765625-2.150146484375-.409912109375-2.25-1.68994140625-.300048828125-2.8299560546875,1.369873046875-5.5999755859375,1.2197265625-8.4599609375.43017578125-4.179931640625-3.559814453125-12.1700439453125,1.170166015625-13.9000244140625,36.099853515625-.22998046875,71.989990234375-.010009765625,108.050048828125-.25,20.239990234375,3.6099853515625,26.2900390625-2.969970703125,40.64990234375-19.0399169921875,5.090087890625-4.6800537109375.530029296875,15.909912109375,1.570068359375,18.8199462890625ZM241.929931640625,35.323459794499286c.280029296875.699951171875.68017578125,1.739990234375.530029296875,2.4000244140625l-.0400390625.139892578125c-4.599853515625,6.219970703125-12.2099609375,11.52001953125-17.619873046875,17.840087890625-3.2900390625,2.77001953125-5.150146484375,7.8299560546875-9.590087890625,8.9599609375-1.179931640625.27001953125-2.780029296875-.22998046875-4.2099609375.1199951171875-.60009765625.1099853515625-1.219970703125.3800048828125-1.800048828125.27001953125-1.199951171875-.3800048828125-.83984375-2.0699462890625-.06005859375-2.8499755859375,1.25-1.4100341796875,3.800048828125-2.2900390625,5.340087890625-3.590087890625,3.619873046875-4.369873046875,7.070068359375-8.719970703125,11.719970703125-12.0999755859375,1.5-1.0899658203125,2.380126953125-2.7999267578125,3.75-4.0098876953125,1.080078125-1.050048828125,2.68994140625-1.85009765625,3.72998046875-3.2000732421875,1.860107421875-2.010009765625,5.989990234375-9.030029296875,8.25-3.97998046875ZM234.679931640625,29.763401200749286l-.010009765625.1600341796875c-.329833984375,3.0400390625-4.059814453125,3.949951171875-6.1298828125,5.820068359375-4.330078125,4.510009765625-8.340087890625,8.72998046875-12.800048828125,13.0599365234375-6.169921875,4.9500732421875-12.47998046875,18.239990234375-21.820068359375,15.7999267578125-1.8798828125-.5399169921875-.1298828125-2.1298828125.630126953125-3.159912109375,5.68994140625-6.81005859375,13.81005859375-11.800048828125,19.39990234375-18.6700439453125,3.580078125-4.1900634765625,7.52001953125-7.6800537109375,11.699951171875-11.1800537109375,2.670166015625-2.849853515625,8.239990234375-10.2698974609375,9.030029296875-1.8299560546875ZM221.849853515625,18.433445146061786c1.710205078125-1.760009765625,3.89013671875.9599609375,4.580078125,2.3699951171875.719970703125,1.5999755859375-.679931640625,2.4300537109375-1.909912109375,3.0699462890625l-.159912109375.10009765625c-9.43017578125,9.5499267578125-18.840087890625,19.2099609375-28.380126953125,28.8299560546875-4.75,5.3399658203125-9.47998046875,12.3399658203125-17.469970703125,12.0999755859375-6.760009765625.52001953125,4.659912109375-6.760009765625,5.75-8.419921875,1.08984375-1.1201171875,1.5400390625-2.02001953125,2.68994140625-2.860107421875,6.14013671875-4.8299560546875,10.27001953125-11.5699462890625,16.64990234375-16.18994140625,6.480224609375-6,11.920166015625-13.1500244140625,18.25-19ZM216.06005859375,16.293430497624286l-.010009765625.0899658203125c-14.25,15.25-31.610107421875,31.6400146484375-46.630126953125,47.1800537109375-.760009765625.8299560546875-1.919921875,1.3800048828125-2.989990234375.9599609375-.489990234375-.1500244140625-1.06005859375-.3499755859375-1.639892578125-.3699951171875-1.2099609375-.070068359375-3.570068359375,1-4.409912109375.340087890625-.860107421875-.89013671875,1.269775390625-2.10009765625,2.08984375-2.530029296875.679931640625-.3701171875,1.2099609375-.72998046875,1.719970703125-1.2900390625,3.239990234375-3.8800048828125,6.760009765625-7.030029296875,10.179931640625-10.7099609375,11.420166015625-7.4200439453125,31.97998046875-39.469970703125,41.690185546875-33.6700439453125ZM200.099853515625,16.293430497624286l-.009765625.0899658203125c-14.690185546875,15.280029296875-32.1201171875,32.6700439453125-47.7900390625,48.050048828125-1.530029296875.77001953125-2.610107421875-.489990234375-4.260009765625-.27001953125-1.199951171875-.0999755859375-2.81005859375,1.4100341796875-3.760009765625.5-.35009765625-.4599609375-.320068359375-1.260009765625.159912109375-1.6500244140625.900146484375-.6300048828125,2.909912109375-1.1199951171875,3.780029296875-2.3299560546875,3.580078125-4.280029296875,7.39990234375-7.68994140625,11.16015625-11.72998046875,11.289794921875-7.340087890625,30.9697265625-38.4599609375,40.7197265625-32.6600341796875ZM184.06005859375,16.293430497624286l-.010009765625.0899658203125c-14.25,15.25-31.610107421875,31.6400146484375-46.630126953125,47.1800537109375-.760009765625.8299560546875-1.919921875,1.3800048828125-2.989990234375.9599609375-.489990234375-.1500244140625-1.06005859375-.3499755859375-1.639892578125-.3699951171875-1.2099609375-.070068359375-3.570068359375,1-4.409912109375.340087890625-.860107421875-.89013671875,1.269775390625-2.10009765625,2.08984375-2.530029296875.679931640625-.3701171875,1.2099609375-.72998046875,1.719970703125-1.2900390625,3.239990234375-3.8800048828125,6.760009765625-7.030029296875,10.179931640625-10.7099609375,11.420166015625-7.4200439453125,31.97998046875-39.469970703125,41.690185546875-33.6700439453125ZM168.099853515625,16.293430497624286l-.009765625.0899658203125c-14.690185546875,15.280029296875-32.1201171875,32.6700439453125-47.7900390625,48.050048828125-1.530029296875.77001953125-2.610107421875-.489990234375-4.260009765625-.27001953125-1.199951171875-.0999755859375-2.81005859375,1.4100341796875-3.760009765625.5-.35009765625-.4599609375-.320068359375-1.260009765625.159912109375-1.6500244140625.900146484375-.6300048828125,2.909912109375-1.1199951171875,3.780029296875-2.3299560546875,3.580078125-4.280029296875,7.39990234375-7.68994140625,11.16015625-11.72998046875,11.289794921875-7.340087890625,30.9697265625-38.4599609375,40.7197265625-32.6600341796875ZM152.06005859375,16.293430497624286l-.010009765625.0899658203125c-14.25,15.25-31.610107421875,31.6400146484375-46.630126953125,47.1800537109375-.760009765625.8299560546875-1.919921875,1.3800048828125-2.989990234375.9599609375-.489990234375-.1500244140625-1.06005859375-.3499755859375-1.639892578125-.3699951171875-1.2099609375-.070068359375-3.570068359375,1-4.409912109375.340087890625-.860107421875-.89013671875,1.269775390625-2.10009765625,2.08984375-2.530029296875.679931640625-.3701171875,1.2099609375-.72998046875,1.719970703125-1.2900390625,3.239990234375-3.8800048828125,6.760009765625-7.030029296875,10.179931640625-10.7099609375,11.420166015625-7.4200439453125,31.97998046875-39.469970703125,41.690185546875-33.6700439453125ZM96.739990234375,16.493503739811786l.070068359375-.10009765625c2.02001953125-1.409912109375,8.199951171875-.949951171875,7.280029296875.6400146484375-.4599609375.8599853515625-2.0400390625,1.1400146484375-2.7001953125,1.9300537109375-5.0498046875,7.8798828125-6.25,5.969970703125-4.64990234375-2.469970703125ZM96.68994140625,32.433445146061786l.06005859375-.1700439453125c1.330078125-2.949951171875,4.39990234375-4.699951171875,6.830078125-6.68994140625,1.989990234375-1.56005859375,3.43994140625-3.7200927734375,5.010009765625-5.6400146484375,1.919921875-2.3900146484375,4.009765625-4.330078125,7.369873046875-3.8599853515625,1.18994140625.18994140625,2.670166015625-.4400634765625,3.590087890625-.6800537109375.969970703125-.18994140625,1.239990234375.6800537109375.7099609375,1.31005859375-4.5,5.3099365234375-11.419921875,11.8399658203125-17.360107421875,16.6298828125-1.119873046875.91015625-1.619873046875,2.2000732421875-2.519775390625,3.4300537109375-5.77001953125,8.1700439453125-5.25.0999755859375-3.690185546875-4.3299560546875ZM99.050048828125,44.843357255436786c1.179931640625-1.179931640625,2.489990234375-1.5299072265625,3.429931640625-2.349853515625,6.360107421875-5.89013671875,27.68994140625-32.530029296875,33.590087890625-26.1800537109375l-.02001953125.0899658203125c-10.900146484375,12.02001953125-25.41015625,24.68994140625-36.780029296875,37.739990234375-.670166015625.81005859375-2.170166015625,2.320068359375-3.06005859375,1.52001953125-1.489990234375-1.260009765625-.590087890625-7.5400390625,2.840087890625-10.820068359375ZM83.389892578125,231.113376786686786c-12.429931640625-4.3099365234375-21.5-18.260009765625-32.75-25.280029296875-1.64990234375-.93994140625-2.669921875-2.579833984375-4.4599609375-3.5699462890625-4.14990234375-2.989990234375-13.369873046875-1.6800537109375-13.58984375-7.9000244140625.009765625-33.030029296875-1.090087890625-65.510009765625.489990234375-98.1298828125l.08984375-.10009765625c15.580078125-1.139892578125,31.820068359375-3.550048828125,46.929931640625-8.139892578125.480224609375.179931640625.670166015625.8199462890625.730224609375,1.33984375.4599609375,3.91015625-1.10009765625,7.4600830078125-.340087890625,11.41015625,1.52001953125,8.5-3.469970703125,17.239990234375,8.1298828125,19.4599609375,3.590087890625.469970703125,7.240234375-.72998046875,10.860107421875-.340087890625,7.2900390625.090087890625,14.389892578125.9500732421875,21.669921875.06005859375,11.580078125-.6300048828125,23.340087890625,1.0999755859375,34.91015625-.18994140625,3.559814453125-.60009765625,6.18994140625,2.3299560546875,6.97998046875,5.679931640625.639892578125,3.3599853515625,1,7.9000244140625-2.06005859375,9.449951171875-7.610107421875,2.550048828125-16.119873046875.25-24.06005859375,1.4100341796875-15.789794921875-.6099853515625-31.39990234375-.3800048828125-47.050048828125-.1300048828125-4.83984375-.39990234375-9.25,3.52001953125-8.869873046875,8.3900146484375-.02001953125,4.6300048828125,4.39990234375,8.4300537109375,9.080078125,7.7100830078125,13.469970703125-1.030029296875,26.829833984375.949951171875,40.260009765625-.4500732421875,11.5.4000244140625,22.85986328125.75,34.329833984375.47998046875,6.56005859375.1700439453125,15.570068359375,8.0899658203125,7.72998046875,12.9200439453125-3.949951171875,1.7900390625-8.6298828125,2.780029296875-12.949951171875,3.22998046875-23.330078125-1.06005859375-46.6298828125.18994140625-70.030029296875-.3800048828125-10.25.1700439453125-11.039794921875,15.2899169921875-.909912109375,16.6099853515625,5.0400390625.2900390625,9.7099609375-.77001953125,14.679931640625-.2900390625,16.25.760009765625,32.31005859375-.93994140625,48.469970703125-.18994140625,7.610107421875-.929931640625,19.89013671875.909912109375,21.050048828125,9.669921875-.329833984375,6.280029296875-10,6.91015625-15.06005859375,6.75-22.389892578125-.6298828125-44.81982421875.400146484375-67.169921875-.5699462890625-3.849853515625-.5299072265625-8.260009765625,1.8900146484375-9.25,5.550048828125-1.909912109375,5.2899169921875,2.340087890625,10.8900146484375,8.0400390625,10.8199462890625,10.81005859375.5,21.18994140625-1.179931640625,31.919921875.2099609375,10.489990234375.7900390625,37.35009765625-6.64990234375,30.85009765625,12.4300537109375-.510009765625,1.25-.800048828125,3.27001953125-2.2900390625,3.4000244140625-21.989990234375-1.9200439453125-44.580078125,2.3499755859375-66.360107421875-1.320068359375ZM388.050048828125,281.003513505436786c1.7900390625,1.349853515625,3.139892578125,2.929931640625,4.97998046875,4.1298828125,14.169921875,9.340087890625,26.919921875,20.1900634765625,41.239990234375,29.010009765625,2.099853515625,1.280029296875,4.47998046875,3.010009765625,6.530029296875,4.219970703125,1.2900390625.840087890625,1.949951171875,1.360107421875,1.869873046875,1.9200439453125-.059814453125.4700927734375-.64990234375.9700927734375-1.820068359375,1.7000732421875-1.169921875.72998046875-2.759765625,1.60986328125-3.93994140625,2.2899169921875-11.679931640625,8.0599365234375-23.02978515625,16.1700439453125-34.579833984375,24.4700927734375-5.860107421875,3.0799560546875-10.940185546875,8.5299072265625-16.830078125,11.47998046875-.760009765625.280029296875-1.070068359375-.2900390625-1.18994140625-.9300537109375-1.320068359375-7.510009765625,4.449951171875-23.030029296875-7.580078125-23.3099365234375l-.2099609375-.010009765625c-92.31005859375,1.10986328125-184.380126953125-.4600830078125-276.580078125.5399169921875-1.39990234375-.0599365234375-3.5400390625.5400390625-3.72998046875-1.219970703125-.4599609375-7.8399658203125.7900390625-16.8699951171875.219970703125-25.2000732421875-.06982421875-1.8798828125-1.699951171875-3.849853515625.110107421875-5.18994140625,3.760009765625-2.919921875,18.7900390625-.4599609375,26.9599609375-.3299560546875,82.110107421875-.800048828125,164.89990234375-.75,246.89990234375-.1400146484375,3.510009765625.1199951171875,7.300048828125.320068359375,10.31005859375-1.81005859375,9.5-6.75-2.52001953125-29.280029296875,7.340087890625-21.619873046875ZM384.27001953125,185.043430497624286c.199951171875-7.75,1.610107421875-17.4200439453125-.030029296875-24.4600830078125-.780029296875-3.079833984375-1.919921875-5.83984375-4.6298828125-7.3798828125-5.420166015625-3.0400390625-11.860107421875,1.8499755859375-17.650146484375.530029296875-5.31005859375-1.72998046875-10.14990234375-2.840087890625-15.7900390625-6.10009765625-10.72998046875-5.8699951171875-16.909912109375-13.5999755859375-4.010009765625-14.4599609375,1.91015625-.169921875,3.330078125-.030029296875,5.130126953125-.530029296875,19.469970703125-5.0400390625,39.60986328125-8.5999755859375,58.840087890625-.639892578125,6.33984375,2.489990234375,14.169921875,3.2099609375,20.25,6.2598876953125,3.509765625,1.77001953125,6.14990234375,4.2301025390625,6.4697265625,8.2401123046875-1.60986328125,30.659912109375,1.18017578125,63.0399169921875-.83984375,93.0599365234375l-.10009765625.0899658203125c-.31005859375.27001953125-.869873046875.320068359375-1.31982421875.320068359375-5.070068359375.0399169921875-10.440185546875.139892578125-15.89013671875.239990234375-9.739990234375.14990234375-19.81982421875.3499755859375-28.889892578125.02001953125-.469970703125-.050048828125-.840087890625-.2100830078125-1.070068359375-.5-1.580078125-17.400146484375.60009765625-36.6700439453125-.469970703125-54.6900634765625Z"
      />
      <path
        class="cls-2"
        d="M352.75,287.983493974186786c-84.619873046875-1.3701171875-174.070068359375,3.619873046875-256.630126953125-1.72998046875,1.360107421875-4.60009765625-2.409912109375-41,2.440185546875-38.5,16.219970703125.7799072265625,32.719970703125.349853515625,49.059814453125.2899169921875,16.64013671875,1.6199951171875,23.240234375-17.2100830078125,20.340087890625-30.9300537109375-.219970703125-1.179931640625.340087890625-1.64990234375,1.60009765625-1.780029296875,18.289794921875-2.079833984375,25.699951171875-24.869873046875,13.099853515625-37.599853515625,6.2001953125-5.6201171875,12.66015625-14.2100830078125,8.800048828125-22.9600830078125-2.110107421875-7.1700439453125-7.739990234375-11.8099365234375-13.929931640625-15.2698974609375,8.239990234375-27.2401123046875-10.10009765625-39.6800537109375-35.8701171875-35.16015625-14.409912109375.030029296875-29.81982421875-.929931640625-43.77978515625-.010009765625-1.130126953125.10009765625-2.150146484375-.409912109375-2.25-1.68994140625-.300048828125-2.8299560546875,1.369873046875-5.5999755859375,1.2197265625-8.4599609375.43017578125-4.179931640625-3.559814453125-12.1700439453125,1.170166015625-13.9000244140625,36.099853515625-.22998046875,71.989990234375-.010009765625,108.050048828125-.25,20.239990234375,3.6099853515625,26.2900390625-2.969970703125,40.64990234375-19.0399169921875,5.090087890625-4.6800537109375.530029296875,15.909912109375,1.570068359375,18.8199462890625.6298828125,3.219970703125.1298828125,6.0599365234375-.030029296875,9.3299560546875.050048828125,2.260009765625,2.429931640625,6.43994140625-.8701171875,7.2099609375-8.64990234375,1.2000732421875-18.659912109375-2.099853515625-27.35986328125,1.030029296875-5.239990234375,2.469970703125-4.199951171875,10.1800537109375-.260009765625,13.4200439453125,8.110107421875,3.3099365234375,18.300048828125.52001953125,27.079833984375,1.219970703125,4.75,2.1099853515625.41015625,9.4500732421875,1.570068359375,13.3699951171875.41015625,3.840087890625-.39990234375,7.5-.22998046875,11.340087890625.10009765625,2.2099609375,1.909912109375,4.969970703125.60009765625,7-8.22998046875,2.0299072265625-18.27001953125-.9300537109375-27.070068359375.719970703125-9.389892578125,2.969970703125-4.889892578125,16.64990234375,4.16015625,15.89990234375,7.47998046875,1.06005859375,15.869873046875-2.260009765625,22.579833984375.2100830078125.550048828125,2.8499755859375-.5400390625,6.3499755859375-.02001953125,9.4200439453125-1.329833984375,7.3399658203125,2.2099609375,16.969970703125-.699951171875,22.64990234375-5.75.60009765625-17.090087890625-1.93994140625-24.300048828125-.030029296875-3.989990234375.900146484375-6.889892578125,3.9600830078125-6.510009765625,8.2000732421875,1.25,11.7999267578125,21.469970703125,6.22998046875,30.2099609375,7.2099609375,3.06005859375.4500732421875,2.16015625,6.25.990234375,7.9500732421875-6.7001953125,3.530029296875-19.830078125-4.030029296875-23.090087890625,5.639892578125-.2099609375,17.0400390625,5.10986328125,33.4500732421875,7.099853515625,50.39013671875,2.070068359375,12.139892578125,17.7001953125,7.369873046875,26.590087890625,7.8199462890625,5.010009765625.3800048828125,12.619873046875.8299560546875,15.60009765625-.4400634765625,7.72998046875-2.7099609375,7.1298828125-13.0999755859375,8.72998046875-20.0400390625,1.169921875-12.349853515625,6.260009765625-26.369873046875,4.289794921875-38.349853515625-8.18994140625-10.97998046875-26.759765625,2.919921875-22.849853515625-9.400146484375,1.030029296875-7.0399169921875-1.119873046875-13.68994140625.389892578125-20.60986328125.050048828125-2.219970703125-1.85986328125-5-.239990234375-6.6600341796875,8.960205078125-.75,32.43017578125,2.1600341796875,32.210205078125-7.4700927734375-.590087890625-10.010009765625-12.47021484375-9.0699462890625-19.85009765625-9.0699462890625-10.919921875.239990234375-12.610107421875,3-12.64990234375-1.719970703125.39990234375-8.4700927734375.2998046875-20.75.47998046875-29.2900390625,10.18994140625-2.6500244140625,39.0400390625,4.4700927734375,29.8798828125-13.7598876953125-7.75-6.9901123046875-21.669921875-.14013671875-30.33984375-3.150146484375,2.559814453125-38.929931640625-9.7900390625-31.3199462890625,19.429931640625-31.97998046875,10.820068359375,3.9500732421875,18.08984375-12.3299560546875,5.97998046875-15.159912109375-7.330078125-.760009765625-14.659912109375-.110107421875-21.920166015625-.4300537109375-2.639892578125,1.0499267578125-3.919921875-.6300048828125-3.5498046875-3.0799560546875.31005859375-5.570068359375.68994140625-11.570068359375-.18994140625-17.080078125.009765625-1.25-.22021484375-2.8499755859375.85986328125-3.5999755859375,31.4599609375-1.4300537109375,65.81005859375.510009765625,98.179931640625-.7698974609375,9.66015625-.610107421875,4.219970703125,10.5399169921875,5.210205078125,16.5399169921875.099853515625,15.8099365234375,1.02978515625,31.6800537109375-.340087890625,47.3900146484375l-.070068359375.1099853515625c-13.820068359375,4.72998046875-65.2900390625,5.719970703125-53.31005859375,28.3699951171875,15.66015625,19.320068359375,29.2099609375,27.43994140625,53.110107421875,30.489990234375,2.349853515625,34.080078125-.56005859375,70.489990234375,1.06005859375,105.10009765625,1.269775390625,17.409912109375-.880126953125,13.0198974609375-16.080078125,12.22998046875Z"
      />
    </g>
  </g>
</svg>
