<svg viewBox="0 0 1080 260" fill="none" xmlns="http://www.w3.org/2000/svg">
    <g clip-path="url(#clip0_1077_3547)">
        <path
            d="M784.036 137.555C781.582 135.482 778.909 131.827 775.527 131.827C770.236 134.009 764.891 136.082 759.545 138.209C757.364 138.918 755.127 139.573 752.891 140.227C755.182 115.245 756.6 90.1 761.018 65.4455C763.636 56.2273 765.382 46.7364 767.727 37.4636C770.182 31.1364 772.473 24.7545 774.491 18.3182C773.455 14.0091 763.364 0.0999868 758.891 0.372714C731.455 50.1182 711.273 106.3 686.727 157.464C681.546 158.882 676.364 160.3 671.236 161.882C667.418 163.245 662.345 164.882 658.745 166.736C658.582 170.555 667.964 177.645 671.127 179.827C671.782 180.264 672.382 180.427 673.036 180.427C673.8 180.427 674.564 180.209 675.327 179.882C664.909 197.609 656.564 225.373 642.164 238.791C639.109 241.627 634.691 242.555 630.873 240.864C630.545 240.7 630.218 240.536 629.891 240.373C629.891 240.373 640.418 254.227 647.782 258.427C649.364 259.191 650.945 259.518 652.473 259.518C667.418 259.518 678.273 225.755 685.2 215.336C693.6 200.391 701.4 185.118 708.764 169.682C717.655 167.773 726.6 165.864 735.382 163.3C734.018 176.936 733.036 190.573 732.273 204.318C732.164 219.645 725.182 231.536 739.964 242.173C742.855 244.464 744.6 245.827 745.636 245.827C746.946 245.827 747.055 243.645 746.946 238.573C747.764 213.155 747.764 187.627 750.546 162.318C750.655 161.555 750.709 160.736 750.818 159.973C764.291 156.918 777.491 153.155 789.655 146.118C791.291 145.3 784.527 138.045 784.036 137.555ZM718.255 149.555C723.055 138.918 727.636 128.173 732.055 117.373C736.145 108.155 740.4 98.9909 744.709 89.8273C742.691 104.991 741.218 120.318 738.927 135.427C738.491 138.482 738.055 141.536 737.673 144.591C731.182 146.282 724.746 147.918 718.255 149.555Z"
            fill="#FEC301" />
        <path
            d="M20.8909 258.427C14.2364 253.464 1.2 243.1 0.70909 234.645C4.58182 230.336 9.70909 227.118 14.2909 223.682C48.8727 195.373 98.4545 157.3 106.855 110.882C78.6 113.282 54.2182 134.009 25.7455 133.464C15.6545 131.555 7.47273 123.209 1.85454 114.536C0.436363 112.3 -0.272728 109.682 -5.54564e-07 107.064C2.56364 81.8636 89.2909 -17.6273 111 3.31817C111.764 4.02726 116.4 10.7909 109.636 13.0273C75.8182 28.0273 43.6909 82.1909 21.9818 113.227C48.4364 107.118 73.6909 87.4818 101.673 91.8455C119.073 101.009 130.418 120.536 125.073 141.318C113.127 187.573 30.1636 259.518 23.3455 259.518C22.3636 259.518 21.5455 259.191 20.8909 258.427Z"
            fill="#FEC301" />
        <path
            d="M547.691 137.391C556.8 126.809 565.909 116.227 575.4 106.082C574.745 102.209 570.491 99.2636 567.655 96.8091C565.636 95.0091 561.709 101.009 559.909 102.809C552.927 109.955 546.709 117.755 540.6 125.609C535.2 116.718 530.509 109.027 526.855 101.882C524.564 102.864 521.945 106.518 519.982 108.973C518.4 110.882 520.255 112.955 520.909 114.482C524.127 121.409 528.055 128.173 532.473 135.973C528.655 140.773 524.727 145.464 520.582 149.991C515.618 155.064 511.2 160.627 507.218 166.573C507.764 169.955 511.582 172.573 514.036 174.755C515.782 176.336 519.927 169.518 521.509 167.555C527.182 160.791 532.909 154.464 538.745 147.755C539.4 149.118 540.055 150.482 540.709 151.9C543.327 158.282 546.873 164.609 551.236 171.1C555.055 171.645 559.636 168.209 563.018 165.591C565.036 164.009 559.582 157.355 557.673 154.573C553.909 148.464 550.855 142.791 547.691 137.391Z"
            fill="#FEC301" />
        <path
            d="M248.182 68.6091V82.2454V93.1545C251.509 86.4454 258.382 82.2454 265.855 82.2454H275.455V191.827C275.455 196.791 273.491 201.482 270 204.973H275.455H289.091H294.545C291.055 201.482 289.091 196.736 289.091 191.827V82.2454H316.364V91.8454C316.364 99.3182 312.164 106.136 305.455 109.518H316.364H330V82.2454V68.6091H248.182Z"
            fill="#0F0F0F" />
        <path
            d="M902.727 68.6091V82.2454V93.1545C906.055 86.4454 912.927 82.2454 920.4 82.2454H930V191.827C930 196.791 928.036 201.482 924.545 204.973H930H943.636H949.091C945.6 201.482 943.636 196.736 943.636 191.827V82.2454H970.909V91.8454C970.909 99.3182 966.709 106.136 960 109.518H970.909H984.545V82.2454V68.6091H902.727Z"
            fill="#0F0F0F" />
        <path
            d="M1005 82.2454C1000.69 87.9727 998.182 95.0091 998.182 102.7C998.182 110.391 1000.69 117.427 1005 123.155C1007.51 126.482 1010.62 129.373 1014.22 131.609C1019.45 134.882 1025.67 136.791 1032.27 136.791H1038.65C1053.6 136.791 1066.15 148.627 1066.36 163.573C1066.64 178.845 1054.31 191.336 1039.09 191.336H1011.82V181.736C1011.82 174.264 1016.02 167.445 1022.73 164.064H1011.82H998.182V204.973H1039.09C1051.2 204.973 1062.11 199.682 1069.58 191.336C1076.07 184.082 1080 174.536 1080 164.064C1080 153.591 1076.07 144.045 1069.58 136.791C1065.87 132.645 1061.35 129.264 1056.27 126.918C1051.04 124.518 1045.25 123.155 1039.09 123.155H1032.65C1021.2 123.155 1011.6 113.773 1011.82 102.318C1012.04 91.1909 1021.09 82.2454 1032.27 82.2454H1062.33C1069.8 82.2454 1076.62 86.4454 1080 93.1545V82.2454V68.6091H1032.27C1021.15 68.6091 1011.22 73.9545 1005 82.2454Z"
            fill="#0F0F0F" />
        <path
            d="M878.673 136.791C885.164 129.536 889.091 119.991 889.091 109.518C889.091 99.0454 885.164 89.5 878.673 82.2454C871.2 73.9 860.291 68.6091 848.182 68.6091H807.273V204.973H820.909H831.818C825.109 201.645 820.909 194.773 820.909 187.3V150.427L875.455 204.973H889.091V164.064H875.455H864.545C871.255 167.391 875.455 174.264 875.455 181.736V185.882L840 150.427H848.182C860.291 150.427 871.2 145.136 878.673 136.791ZM820.909 136.791V120.427C823.255 115.682 827.073 111.864 831.818 109.518C827.073 107.173 823.255 103.355 820.909 98.6091V82.2454H847.745C862.691 82.2454 875.236 94.0818 875.455 109.027C875.727 124.3 863.4 136.791 848.182 136.791H820.909Z"
            fill="#0F0F0F" />
        <path
            d="M411.818 79.0273C404.564 72.5363 395.018 68.6091 384.545 68.6091C374.073 68.6091 364.527 72.5363 357.273 79.0273C348.927 86.5 343.636 97.4091 343.636 109.518V164.064C343.636 176.173 348.927 187.082 357.273 194.555C364.527 201.045 374.073 204.973 384.545 204.973C395.018 204.973 404.564 201.045 411.818 194.555C420.164 187.082 425.455 176.173 425.455 164.064V109.518C425.455 97.4091 420.164 86.5 411.818 79.0273ZM411.818 164.064C411.818 179.118 399.6 191.336 384.545 191.336C369.491 191.336 357.273 179.118 357.273 164.064V109.518C357.273 94.4636 369.491 82.2454 384.545 82.2454C399.6 82.2454 411.818 94.4636 411.818 109.518V164.064ZM384.545 125.882C386.891 130.627 390.709 134.445 395.455 136.791C390.709 139.136 386.891 142.955 384.545 147.7C382.2 142.955 378.382 139.136 373.636 136.791C378.382 134.445 382.2 130.627 384.545 125.882Z"
            fill="#0F0F0F" />
        <path
            d="M152.727 204.973H234.545V191.336V180.427C231.218 187.136 224.345 191.336 216.873 191.336H166.364V164.064H207.764C212.727 164.064 217.418 166.027 220.909 169.518V164.064V150.427V144.973C217.418 148.464 212.673 150.427 207.764 150.427H166.364V82.2454H216.873C224.345 82.2454 231.164 86.4454 234.545 93.1545V82.2454V68.6091H152.727V204.973Z"
            fill="#0F0F0F" />
    </g>
    <!-- <defs>
        <clipPath id="clip0_1077_3547">
            <rect width="1080" height="259.145" fill="white" transform="translate(0 0.427261)" />
        </clipPath>
    </defs> -->
</svg>