<svg
  viewBox="0 0 267 64"
  fill="none"
  xmlns="http://www.w3.org/2000/svg"
>
  <path
    d="M193.63 33.8657C193.024 33.3538 192.364 32.4513 191.529 32.4513C190.222 32.9901 188.902 33.502 187.582 34.0274C187.043 34.2025 186.49 34.3641 185.938 34.5258C186.504 28.3561 186.854 22.1461 187.945 16.0573C188.592 13.7807 189.023 11.4368 189.602 9.14672C190.208 7.5841 190.774 6.00801 191.273 4.41845C191.017 3.35425 188.525 -0.0808123 187.42 -0.0134581C180.644 12.272 175.66 26.1469 169.598 38.7826C168.318 39.1328 167.038 39.4831 165.772 39.8737C164.829 40.2105 163.576 40.6146 162.687 41.0726C162.647 42.0156 164.964 43.7668 165.745 44.3056C165.907 44.4134 166.055 44.4538 166.217 44.4538C166.405 44.4538 166.594 44.3999 166.783 44.3191C164.21 48.6971 162.149 55.5538 158.592 58.8676C157.838 59.5681 156.747 59.7971 155.804 59.3795C155.723 59.3391 155.642 59.2987 155.561 59.2583C155.561 59.2583 158.161 62.6799 159.98 63.7171C160.37 63.9057 160.761 63.9865 161.138 63.9865C164.829 63.9865 167.51 55.6481 169.221 53.0752C171.295 49.3841 173.222 45.6123 175.04 41.8C177.236 41.3286 179.445 40.8571 181.614 40.224C181.277 43.5917 181.035 46.9594 180.846 50.354C180.819 54.1393 179.095 57.076 182.746 59.7028C183.459 60.2686 183.891 60.6054 184.146 60.6054C184.47 60.6054 184.497 60.0665 184.47 58.8137C184.672 52.5363 184.672 46.232 185.359 39.9815C185.386 39.7929 185.399 39.5908 185.426 39.4022C188.754 38.6479 192.013 37.7184 195.017 35.9806C195.422 35.7786 193.751 33.987 193.63 33.8657ZM177.384 36.8293C178.57 34.2025 179.701 31.5487 180.792 28.8815C181.803 26.6049 182.853 24.3418 183.917 22.0787C183.419 25.8236 183.055 29.6089 182.49 33.3404C182.382 34.0947 182.274 34.8491 182.18 35.6035C180.577 36.0211 178.987 36.4252 177.384 36.8293Z"
    fill="#FEC301"
  />
  <path
    d="M135.261 33.8253C137.51 31.212 139.76 28.5986 142.104 26.093C141.942 25.1366 140.892 24.4092 140.191 23.803C139.693 23.3585 138.723 24.8403 138.278 25.2848C136.554 27.0495 135.018 28.9758 133.51 30.9156C132.176 28.7199 131.017 26.8205 130.115 25.0558C129.549 25.2983 128.903 26.2008 128.418 26.807C128.027 27.2785 128.485 27.7904 128.647 28.1676C129.441 29.8784 130.411 31.5487 131.502 33.4751C130.559 34.6605 129.59 35.819 128.566 36.9371C127.34 38.1899 126.249 39.5639 125.265 41.0322C125.4 41.8674 126.343 42.514 126.949 43.0528C127.38 43.4435 128.404 41.7596 128.795 41.2747C130.196 39.6043 131.61 38.0417 133.052 36.3848C133.213 36.7215 133.375 37.0583 133.536 37.4086C134.183 38.9846 135.059 40.5473 136.136 42.1503C137.079 42.285 138.211 41.4363 139.046 40.7897C139.544 40.3991 138.197 38.7556 137.726 38.0686C136.796 36.5599 136.042 35.1589 135.261 33.8253Z"
    fill="#FEC301"
  />
  <path
    d="M5.15933 63.7171C3.51589 62.4913 0.296355 59.9318 0.175118 57.8438C1.13155 56.7796 2.39781 55.9848 3.52936 55.1362C12.0699 48.1448 24.3149 38.7422 26.3894 27.2785C19.4115 27.8712 13.39 32.9901 6.35824 32.8554C3.86613 32.3839 1.8455 30.3229 0.458006 28.181C0.107764 27.6287 -0.0673574 26.9821 -3.17395e-06 26.3355C0.633127 20.112 22.0518 -4.45885 27.4132 0.713955C27.6018 0.889076 28.7468 2.55946 27.0764 3.11177C18.7245 6.81625 10.7901 20.1928 5.42875 27.8577C11.9621 26.349 18.1991 21.4995 25.1097 22.5771C29.4069 24.8402 32.2088 29.6628 30.8886 34.7952C27.9385 46.2185 7.44937 63.9865 5.76552 63.9865C5.52304 63.9865 5.32098 63.9057 5.15933 63.7171Z"
    fill="#FEC301"
  />
  <path
    d="M248.2 20.2063C247.136 21.6207 246.516 23.3585 246.516 25.2578C246.516 27.1572 247.136 28.895 248.2 30.3094C248.82 31.1311 249.588 31.8451 250.477 32.3974C251.77 33.2056 253.306 33.6771 254.936 33.6771H256.512C260.203 33.6771 263.301 36.6003 263.355 40.2913C263.422 44.0631 260.378 47.148 256.62 47.148H249.884V44.7771C249.884 42.9316 250.921 41.2477 252.578 40.4125H249.884H246.516V50.5157H256.62C259.61 50.5157 262.304 49.209 264.15 47.148C265.753 45.3563 266.723 42.9989 266.723 40.4125C266.723 37.8261 265.753 35.4687 264.15 33.6771C263.234 32.6533 262.116 31.8181 260.863 31.2389C259.57 30.6462 258.142 30.3094 256.62 30.3094H255.03C252.201 30.3094 249.83 27.9924 249.884 25.1635C249.938 22.4155 252.174 20.2063 254.936 20.2063H262.358C264.204 20.2063 265.888 21.2435 266.723 22.9004V20.2063V16.8386H254.936C252.188 16.8386 249.736 18.1587 248.2 20.2063Z"
    fill="#0F0F0F"
  />
  <path
    d="M222.943 16.8386V20.2063V22.9004C223.764 21.2435 225.462 20.2063 227.307 20.2063H229.678V47.2692C229.678 48.4951 229.193 49.6535 228.331 50.5157H229.678H233.046H234.393C233.531 49.6535 233.046 48.4816 233.046 47.2692V20.2063H239.781V22.5771C239.781 24.4227 238.744 26.1065 237.087 26.9417H239.781H243.149V20.2063V16.8386H222.943Z"
    fill="#0F0F0F"
  />
  <path
    d="M217.002 33.6771C218.605 31.8855 219.575 29.5281 219.575 26.9417C219.575 24.3553 218.605 21.9979 217.002 20.2063C215.156 18.1452 212.462 16.8386 209.472 16.8386H199.369V50.5157H202.736H205.43C203.773 49.694 202.736 47.9966 202.736 46.1511V37.0448L216.207 50.5157H219.575V40.4125H216.207H213.513C215.17 41.2343 216.207 42.9316 216.207 44.7771V45.8009L207.451 37.0448H209.472C212.462 37.0448 215.156 35.7382 217.002 33.6771ZM202.736 33.6771V29.6359C203.315 28.4639 204.258 27.5209 205.43 26.9417C204.258 26.3625 203.315 25.4195 202.736 24.2475V20.2063H209.364C213.055 20.2063 216.153 23.1294 216.207 26.8205C216.274 30.5923 213.23 33.6771 209.472 33.6771H202.736Z"
    fill="#0F0F0F"
  />
  <path
    d="M101.705 19.4115C99.9133 17.8085 97.5559 16.8386 94.9695 16.8386C92.3831 16.8386 90.0257 17.8085 88.234 19.4115C86.173 21.257 84.8663 23.9512 84.8663 26.9417V40.4125C84.8663 43.4031 86.173 46.0972 88.234 47.9427C90.0257 49.5458 92.3831 50.5157 94.9695 50.5157C97.5559 50.5157 99.9133 49.5458 101.705 47.9427C103.766 46.0972 105.073 43.4031 105.073 40.4125V26.9417C105.073 23.9512 103.766 21.257 101.705 19.4115ZM101.705 40.4125C101.705 44.1305 98.6874 47.148 94.9695 47.148C91.2515 47.148 88.234 44.1305 88.234 40.4125V26.9417C88.234 23.2237 91.2515 20.2063 94.9695 20.2063C98.6874 20.2063 101.705 23.2237 101.705 26.9417V40.4125ZM94.9695 30.983C95.5487 32.1549 96.4917 33.0979 97.6636 33.6771C96.4917 34.2564 95.5487 35.1993 94.9695 36.3713C94.3902 35.1993 93.4473 34.2564 92.2753 33.6771C93.4473 33.0979 94.3902 32.1549 94.9695 30.983Z"
    fill="#0F0F0F"
  />
  <path
    d="M61.2924 16.8386V20.2063V22.9004C62.1141 21.2435 63.8114 20.2063 65.6569 20.2063H68.0278V47.2692C68.0278 48.4951 67.5428 49.6535 66.6807 50.5157H68.0278H71.3955H72.7426C71.8804 49.6535 71.3955 48.4816 71.3955 47.2692V20.2063H78.1309V22.5771C78.1309 24.4227 77.0937 26.1065 75.4367 26.9417H78.1309H81.4986V20.2063V16.8386H61.2924Z"
    fill="#0F0F0F"
  />
  <path
    d="M37.7184 50.5157H57.9247V47.148V44.4538C57.1029 46.1107 55.4056 47.148 53.5601 47.148H41.0861V40.4125H51.3105C52.5363 40.4125 53.6948 40.8975 54.5569 41.7596V40.4125V37.0448V35.6977C53.6948 36.5599 52.5228 37.0448 51.3105 37.0448H41.0861V20.2063H53.5601C55.4056 20.2063 57.0895 21.2435 57.9247 22.9004V20.2063V16.8386H37.7184V50.5157Z"
    fill="#0F0F0F"
  />
</svg>
