<svg viewBox="0 0 40 40" fill="none" xmlns="http://www.w3.org/2000/svg">
  <path
    d="M13.4184 11.4129L17.9995 6.81173V25.9965C17.9995 26.5271 18.2103 27.0359 18.5854 27.4111C18.9606 27.7862 19.4694 27.997 20 27.997C20.5306 27.997 21.0394 27.7862 21.4146 27.4111C21.7897 27.0359 22.0005 26.5271 22.0005 25.9965V6.81173L26.5816 11.4129C26.7676 11.6004 26.9889 11.7492 27.2326 11.8508C27.4764 11.9523 27.7379 12.0046 28.002 12.0046C28.2661 12.0046 28.5276 11.9523 28.7713 11.8508C29.0151 11.7492 29.2364 11.6004 29.4223 11.4129C29.6098 11.2269 29.7587 11.0056 29.8602 10.7619C29.9618 10.5181 30.0141 10.2566 30.0141 9.99252C30.0141 9.72843 29.9618 9.46695 29.8602 9.22317C29.7587 8.97939 29.6098 8.75814 29.4223 8.57216L21.4204 0.570169C21.2301 0.388043 21.0058 0.245277 20.7602 0.150064C20.2731 -0.0500215 19.7269 -0.0500215 19.2398 0.150064C18.9942 0.245277 18.7699 0.388043 18.5796 0.570169L10.5776 8.57216C10.3911 8.75869 10.2432 8.98012 10.1422 9.22383C10.0413 9.46753 9.98932 9.72873 9.98932 9.99252C9.98932 10.2563 10.0413 10.5175 10.1422 10.7612C10.2432 11.0049 10.3911 11.2263 10.5776 11.4129C10.7642 11.5994 10.9856 11.7474 11.2293 11.8483C11.473 11.9492 11.7342 12.0012 11.998 12.0012C12.2618 12.0012 12.523 11.9492 12.7667 11.8483C13.0104 11.7474 13.2318 11.5994 13.4184 11.4129ZM38.0045 23.996C37.4739 23.996 36.9651 24.2068 36.5899 24.5819C36.2148 24.9571 36.004 25.4659 36.004 25.9965V33.9985C36.004 34.5291 35.7932 35.0379 35.4181 35.4131C35.0429 35.7882 34.5341 35.999 34.0035 35.999H5.99651C5.46594 35.999 4.95711 35.7882 4.58194 35.4131C4.20677 35.0379 3.99601 34.5291 3.99601 33.9985V25.9965C3.99601 25.4659 3.78524 24.9571 3.41008 24.5819C3.03491 24.2068 2.52607 23.996 1.99551 23.996C1.46494 23.996 0.956109 24.2068 0.580943 24.5819C0.205777 24.9571 -0.00498962 25.4659 -0.00498962 25.9965V33.9985C-0.00498962 35.5902 0.627309 37.1167 1.75281 38.2422C2.87831 39.3677 4.40481 40 5.99651 40H34.0035C35.5952 40 37.1217 39.3677 38.2472 38.2422C39.3727 37.1167 40.005 35.5902 40.005 33.9985V25.9965C40.005 25.4659 39.7942 24.9571 39.4191 24.5819C39.0439 24.2068 38.5351 23.996 38.0045 23.996Z"
  />
</svg>
