<svg viewBox="0 0 441.814462028464732 463.525087701362281">
  <defs>
    <style>
      .cls-1 {
        fill: var(--black);
      }

      .cls-2 {
        fill: var(--yellow);
      }
    </style>
  </defs>
  <g>
    <g>
      <path
        class="cls-1"
        d="M227.505427435798993,322.850169933390134c-.29998779296875.75-.58001708984375,1.429931640625-.67999267578125,2.1400146484375-.1300048828125,1.6400146484375-3.739990234375,7.6700439453125-6.1199951171875,11.2899169921875-1.69000244140625,4.840087890625-4.4100341796875,11.150146484375-8.3699951171875,13.64013671875-1.08001708984375.679931640625-2.07000732421875,1.159912109375-3.3800048828125,1.059814453125-3.6600341796875-.419921875-7.6500244140625-3.289794921875-7.69000244140625-6.949951171875-.41998291015625-8.75,8.5899658203125-19.0699462890625,11.30999755859375-25.510009765625,3.16998291015625-5.929931640625,13.27001953125-37.619873046875,23.9000244140625-30.949951171875l.12994384765625.090087890625c10.8900146484375,7.72998046875-4.47998046875,24.2999267578125-9.0999755859375,35.18994140625ZM363.865412787361493,404.750072277140134c-34.510009765625,1.27001953125-69.77996826171875-.9599609375-104.0999755859375.530029296875-2.6300048828125.830078125-1,6.64013671875-1.47003173828125,8.610107421875.1300048828125,36.52001953125,24.800048828125,23.300048828125,38.280029296875,40.10986328125.989990234375,13.51025390625-17.6300048828125,8.530029296875-25.95001220703125,8.940185546875-29.6199951171875-.31005859375-59.42999267578125.869873046875-89-.39013671875-9.9599609375-1.4599609375-39.04998779296875,7.56005859375-35.3499755859375-10.619873046875,11.41998291015625-7.72021484375,26.3399658203125-7.47998046875,32.67999267578125-18.2099609375,2.57000732421875-3.900146484375,6.25-11.68017578125,5.45001220703125-18.6201171875-1.6600341796875-3.5,2.8499755859375-10.72998046875-2.77001953125-10.070068359375-29.02001953125.010009765625-58.69000244140625.080078125-87.8900146484375-.18994140625C-5.644596978263507,411.810130870890134-1.644596978263507,336.540111339640134.915461615486493,261.920238292765134-.664555474357257,196.510204113077634-7.604557915763507,123.340160167765134,76.055415228767743,117.780101574015134c-8.90997314453125-30.22998046875,16.4200439453125-59.7999267578125,44.95001220703125-63.6298828125,3.3699951171875-66.1800537109375,117.78997802734375-71.60009765625,139.91998291015625-16.800048828125,14.4000244140625,13.8900146484375,39.58001708984375,9.3599853515625,47.72003173828125,34.56005859375,31.33001708984375-9.1700439453125,68.8599853515625,10.6298828125,67.2099609375,46.8099365234375l.09002685546875.1099853515625c63.91998291015625,9.719970703125,68.29998779296875,65.60009765625,65,117.969970703125-1.260009765625,65.4000244140625,18.3499755859375,169.699951171875-77.08001708984375,167.949951171875ZM424.095454291267743,190.990184581827634c-2.45001220703125,1.1099853515625-4.1500244140625,4.8599853515625-6.050048828125,6.8299560546875-10.29998779296875,10.110107421875-20.04998779296875,20.6900634765625-30.8199462890625,30.35009765625-8.1700439453125,8.2799072265625-16.010009765625,16.760009765625-24.61004638671875,24.5299072265625-1.92999267578125,1.8599853515625-3.38995361328125,4.2900390625-5.47998046875,6.2200927734375-4.58001708984375,2.97998046875-6.58001708984375,5.119873046875-4.719970703125,10.7099609375.16998291015625.5799560546875.54998779296875.7900390625,1.02996826171875.280029296875,23.77001953125-23.31005859375,48.030029296875-47.2900390625,71.04998779296875-71.300048828125l.07000732421875-.1500244140625c.52001953125-1.5499267578125,1.6500244140625-8.239990234375-.469970703125-7.469970703125ZM353.035456732673993,362.870189464640134c-.05999755859375,1.08984375-.73004150390625,2.89013671875-.33001708984375,3.1201171875.3599853515625.5,1.510009765625-.22998046875,3.08001708984375-1.650146484375,21.77996826171875-23.8399658203125,46.78997802734375-45.9599609375,68.7099609375-69.5999755859375l.07000732421875-.1600341796875c.21002197265625-.969970703125,1.510009765625-8.3299560546875.07000732421875-7.5799560546875-.45001220703125.1600341796875-1.1199951171875.8399658203125-2.04998779296875,1.7899169921875-1.41998291015625,1.580078125-3.239990234375,3.0400390625-4.760009765625,4.6600341796875-13.20001220703125,15.3599853515625-28.8599853515625,28.760009765625-43.0999755859375,43.1400146484375-2.12005615234375,2.18994140625-4.010009765625,4.56005859375-5.98004150390625,6.8800048828125-4.45001220703125,3.5699462890625-8.55999755859375,7.030029296875-11.9599609375,11.6400146484375-.6600341796875,1.02001953125-2.1400146484375,1.550048828125-2.9300537109375,2.219970703125-1.93994140625,1.360107421875-1.3599853515625,3.1201171875-.8199462890625,5.5400390625ZM424.635432318611493,271.000194347452634c-.45001220703125.1600341796875-1.1199951171875.8399658203125-2.04998779296875,1.7899169921875-1.41998291015625,1.580078125-3.239990234375,3.0400390625-4.760009765625,4.6600341796875-13.20001220703125,15.3599853515625-28.8599853515625,28.760009765625-43.0999755859375,43.1400146484375-2.12005615234375,2.18994140625-4.010009765625,4.56005859375-5.98004150390625,6.8800048828125-4.45001220703125,3.5699462890625-8.55999755859375,7.030029296875-11.9599609375,11.6400146484375-.6600341796875,1.02001953125-2.1400146484375,1.550048828125-2.9300537109375,2.219970703125-1.93994140625,1.360107421875-1.3599853515625,3.1199951171875-.8199462890625,5.5400390625-.05999755859375,1.0899658203125-.73004150390625,2.8900146484375-.33001708984375,3.1199951171875.3599853515625.5,1.510009765625-.22998046875,3.08001708984375-1.6500244140625,21.77996826171875-23.8399658203125,46.78997802734375-45.9599609375,68.7099609375-69.5999755859375l.07000732421875-.1600341796875c.21002197265625-.969970703125,1.510009765625-8.3299560546875.07000732421875-7.5799560546875ZM424.635432318611493,255.000194347452634c-.45001220703125.1600341796875-1.1199951171875.8399658203125-2.04998779296875,1.7899169921875-1.41998291015625,1.580078125-3.239990234375,3.0400390625-4.760009765625,4.6600341796875-13.20001220703125,15.3599853515625-28.8599853515625,28.760009765625-43.0999755859375,43.1400146484375-2.12005615234375,2.18994140625-4.010009765625,4.56005859375-5.98004150390625,6.8800048828125-4.45001220703125,3.5699462890625-8.55999755859375,7.030029296875-11.9599609375,11.6400146484375-.6600341796875,1.02001953125-2.1400146484375,1.550048828125-2.9300537109375,2.219970703125-1.93994140625,1.360107421875-1.3599853515625,3.1199951171875-.8199462890625,5.5400390625-.05999755859375,1.0899658203125-.73004150390625,2.8900146484375-.33001708984375,3.1199951171875.3599853515625.5,1.510009765625-.22998046875,3.08001708984375-1.6500244140625,21.77996826171875-23.8399658203125,46.78997802734375-45.9599609375,68.7099609375-69.5999755859375l.07000732421875-.1600341796875c.21002197265625-.969970703125,1.510009765625-8.3299560546875.07000732421875-7.5799560546875ZM424.635432318611493,239.000194347452634c-.45001220703125.1600341796875-1.1199951171875.8399658203125-2.04998779296875,1.7899169921875-1.41998291015625,1.580078125-3.239990234375,3.0400390625-4.760009765625,4.6600341796875-13.20001220703125,15.3599853515625-28.8599853515625,28.760009765625-43.0999755859375,43.1400146484375-2.12005615234375,2.18994140625-4.010009765625,4.56005859375-5.98004150390625,6.8800048828125-4.45001220703125,3.5699462890625-8.55999755859375,7.030029296875-11.9599609375,11.6400146484375-.6600341796875,1.02001953125-2.1400146484375,1.550048828125-2.9300537109375,2.219970703125-1.93994140625,1.360107421875-1.3599853515625,3.1199951171875-.8199462890625,5.5400390625-.05999755859375,1.0899658203125-.73004150390625,2.8900146484375-.33001708984375,3.1199951171875.3599853515625.5,1.510009765625-.22998046875,3.08001708984375-1.6500244140625,21.77996826171875-23.8399658203125,46.78997802734375-45.9599609375,68.7099609375-69.5999755859375l.07000732421875-.1600341796875c.21002197265625-.969970703125,1.510009765625-8.3299560546875.07000732421875-7.5799560546875ZM424.635432318611493,223.000194347452634c-.45001220703125.1600341796875-1.1199951171875.8399658203125-2.04998779296875,1.7899169921875-1.41998291015625,1.580078125-3.239990234375,3.0400390625-4.760009765625,4.6600341796875-13.20001220703125,15.3599853515625-28.8599853515625,28.760009765625-43.0999755859375,43.1400146484375-2.12005615234375,2.18994140625-4.010009765625,4.56005859375-5.98004150390625,6.8800048828125-4.45001220703125,3.5699462890625-8.55999755859375,7.030029296875-11.9599609375,11.6400146484375-.6600341796875,1.02001953125-2.1400146484375,1.550048828125-2.9300537109375,2.219970703125-1.93994140625,1.360107421875-1.3599853515625,3.1199951171875-.8199462890625,5.5400390625-.05999755859375,1.0899658203125-.73004150390625,2.8900146484375-.33001708984375,3.1199951171875.3599853515625.5,1.510009765625-.22998046875,3.08001708984375-1.6500244140625,21.77996826171875-23.8399658203125,46.78997802734375-45.9599609375,68.7099609375-69.5999755859375l.07000732421875-.1600341796875c.21002197265625-.969970703125,1.510009765625-8.3299560546875.07000732421875-7.5799560546875ZM424.635432318611493,207.000194347452634c-.45001220703125.1600341796875-1.1199951171875.8399658203125-2.04998779296875,1.7899169921875-1.41998291015625,1.580078125-3.239990234375,3.0400390625-4.760009765625,4.6600341796875-13.20001220703125,15.3599853515625-28.8599853515625,28.760009765625-43.0999755859375,43.1400146484375-2.12005615234375,2.18994140625-4.010009765625,4.56005859375-5.98004150390625,6.8800048828125-4.45001220703125,3.5699462890625-8.55999755859375,7.030029296875-11.9599609375,11.6400146484375-.6600341796875,1.02001953125-2.1400146484375,1.550048828125-2.9300537109375,2.219970703125-1.93994140625,1.360107421875-1.3599853515625,3.1199951171875-.8199462890625,5.5400390625-.05999755859375,1.0899658203125-.73004150390625,2.8900146484375-.33001708984375,3.1199951171875.3599853515625.5,1.510009765625-.22998046875,3.08001708984375-1.6500244140625,21.77996826171875-23.8399658203125,46.78997802734375-45.9599609375,68.7099609375-69.5999755859375l.07000732421875-.1600341796875c.21002197265625-.969970703125,1.510009765625-8.3299560546875.07000732421875-7.5799560546875ZM414.065424994392743,185.880199230265134c-7.8800048828125,7.550048828125-15.1300048828125,15.050048828125-22.82000732421875,22.56005859375-17.010009765625,18.5-37.44000244140625,36.169921875-54.0899658203125,53.849853515625-.36004638671875.360107421875-.550048828125.830078125-.36004638671875,1.130126953125.6800537109375.7799072265625,1.96002197265625-.330078125,2.83001708984375-.5.97003173828125-.380126953125,2.1199951171875.1298828125,3.010009765625.3299560546875,3.15997314453125.8399658203125,4.010009765625-2.1900634765625,5.53997802734375-4.1800537109375,6.69000244140625-6.449951171875,13.1600341796875-12.699951171875,19.6300048828125-19.3099365234375,18.260009765625-19.4500732421875,38.44000244140625-36.9200439453125,56.280029296875-56.56005859375l.05999755859375-.1500244140625c.70001220703125-12.3099365234375-6.79998779296875-.39990234375-10.08001708984375,2.830078125ZM337.485407904548993,282.870189464640134c.74005126953125-6.6099853515625-5.26995849609375-3.8699951171875-9.8199462890625-4.0400390625-73.780029296875.3900146484375-148.72003173828125-.409912109375-222.35003662109375.360107421875l-.0899658203125.08984375c-1.02001953125,22.340087890625-.32000732421875,47.0400390625-.27001953125,70.0400390625-.04998779296875,1.739990234375-.3699951171875,3.840087890625-.5,5.070068359375-.3900146484375,2.800048828125-.72003173828125,3.97998046875-.010009765625,4.43994140625,3.25.68017578125,9.77001953125-.179931640625,13.8499755859375.340087890625,71.510009765625-.14013671875,143.9300537109375-.989990234375,215.20001220703125.139892578125,5.80999755859375,2.070068359375,3.52001953125-4.739990234375,3.45001220703125-8.08984375-.3699951171875-22.7200927734375-.27001953125-45.580078125.53997802734375-68.35009765625ZM132.155451849861493,163.780101574015134c-37.86004638671875,37.320068359375-77.07000732421875,76.880126953125-114.96002197265625,115.300048828125l-.09002685546875.1600341796875c-.66998291015625,1.1300048828125-.04998779296875,2.25.030029296875,3.4300537109375.0999755859375.9599609375-.32000732421875,1.93994140625-.66998291015625,2.6298828125-.6400146484375,1.030029296875.14996337890625,1.580078125,1.1099853515625,1.469970703125,1.03997802734375-.14990234375.8699951171875-1.72998046875,1.82000732421875-2.89990234375,1.45001220703125-1.489990234375,3.5-2.330078125,4.77996826171875-3.7900390625.8900146484375-.8299560546875,1.70001220703125-2.030029296875,2.6600341796875-3.050048828125,33.7099609375-33.739990234375,67.22998046875-67.4599609375,100.91998291015625-101.0299072265625,2.97003173828125-4.0599365234375,5.239990234375-11.0899658203125,4.4000244140625-12.2200927734375ZM132.015437201423993,183.190257824015134c-.1600341796875-.7000732421875-.280029296875-3.880126953125-1.6500244140625-2.420166015625-36.90997314453125,38.110107421875-75.8800048828125,76.030029296875-113.07000732421875,114.41015625l-.0799560546875.14990234375c-.71002197265625,2.02001953125-1.82000732421875,8.7099609375,1.19000244140625,6.840087890625,3.8800048828125-2.31005859375,10.22998046875-11.85009765625,15.199951171875-15.780029296875,11.83001708984375-12.4300537109375,23.96002197265625-24.360107421875,36.37005615234375-36.340087890625,18.5999755859375-18.22998046875,36.239990234375-37.14990234375,54.65997314453125-55.419921875,3.3800048828125-3.1800537109375,7.8699951171875-6.31005859375,7.3800048828125-11.43994140625ZM136.815424994392743,151.240184581827634c4.489990234375-4.5999755859375,8.85003662109375-9.6900634765625,11.4100341796875-15.5.40997314453125-1.7999267578125-3.44000244140625-.8900146484375-5.0400390625.6900634765625-2.66998291015625,2.199951171875-5.14996337890625,6.10986328125-7.89996337890625,8.7099609375-1.24005126953125,1.3399658203125-2.75,1.8099365234375-4.07000732421875,3-37.4200439453125,38.800048828125-76.60003662109375,76.22998046875-114.0400390625,114.8798828125l-.0799560546875.16015625c-.4200439453125,1.489990234375-.48004150390625,3.1298828125-.6700439453125,4.72998046875-.239990234375,2.25-.1099853515625,3.780029296875.96002197265625,2.75,1.30999755859375-1.280029296875,3.21002197265625-3.969970703125,4.67999267578125-5.6201171875,3.3599853515625-3.3099365234375,7.1600341796875-6.349853515625,10.510009765625-9.7799072265625,34.55999755859375-34.8900146484375,69.3900146484375-69.4000244140625,104.239990234375-104.02001953125ZM155.185420111580243,236.620189464640134c-.5999755859375-.010009765625-.969970703125.68994140625-1.39996337890625,1.070068359375-4.300048828125,4.579833984375-9.47003173828125,11.14990234375-15.11004638671875,15.219970703125-3.8499755859375,4.7999267578125-18.449951171875,14.1298828125-2.04998779296875,9.739990234375l.1600341796875-.070068359375c6.19000244140625-4.5699462890625,10.38995361328125-11.550048828125,16.52996826171875-16.3399658203125,1.41998291015625-1.3299560546875,1.75-3.030029296875,1.42999267578125-4.97998046875-.16998291015625-1.0799560546875.34002685546875-2.1600341796875.75-3.1099853515625.260009765625-.550048828125.44000244140625-1.4000244140625-.30999755859375-1.530029296875ZM154.845454291267743,253.190257824015134l-.1300048828125-.0400390625c-1.04998779296875-.25-1.6500244140625.239990234375-1.9000244140625,1.3099365234375-.16998291015625.6500244140625-.5899658203125,1.6300048828125-1.02996826171875,2.3599853515625-1.550048828125,2.760009765625-6.760009765625,3.320068359375-7.05999755859375,5.9200439453125.3499755859375,2,6.53997802734375-.1700439453125,8.29998779296875.0299072265625,2.9599609375-1.2598876953125,3.41998291015625-8.679931640625,1.82000732421875-9.579833984375ZM154.815424994392743,221.170238292765134c-8.989990234375,8.3399658203125-18.8399658203125,19.47998046875-28.42999267578125,28.5899658203125-3.67999267578125,4.199951171875-23.65997314453125,18.25-5.75,12.969970703125l.15997314453125-.0799560546875c8-5.840087890625,13.12005615234375-14.489990234375,21.050048828125-20.6900634765625.41998291015625-.3299560546875.80999755859375-.6800537109375,1.13995361328125-1.0899658203125,2.550048828125-3.43994140625,6.97003173828125-6.72998046875,9.85003662109375-10.31005859375,2.1099853515625-2.5699462890625,3.90997314453125-6.39990234375,1.97998046875-9.389892578125ZM153.145442084236493,209.810130870890134c-4.57000732421875-1.639892578125-11.84002685546875,9.1400146484375-15,12.380126953125-5.59002685546875,6.64990234375-12.989990234375,11.349853515625-18.239990234375,18.099853515625-1.59002685546875,4.1900634765625-37.3699951171875,29.330078125-15.30999755859375,22.280029296875l.13995361328125-.0699462890625c17.9100341796875-15.2301025390625,32.9000244140625-33.5899658203125,50.1300048828125-49.489990234375.33001708984375-1.2401123046875-.94000244140625-2.9100341796875-1.719970703125-3.2000732421875ZM232.575434760017743,179.210155284952634c.15997314453125-3,.8800048828125-6.72998046875,2.77996826171875-8.989990234375,6.8900146484375-7.489990234375,19.31005859375,3.489990234375,13.22003173828125-7.6400146484375-8.02001953125-11.909912109375-14.77001953125-24.27001953125-22.66998291015625-36.25-2.6600341796875-3.68994140625-4.59002685546875-9.5699462890625-6.8900146484375-13.2900390625-1.28997802734375-2.010009765625-2.54998779296875-3.5499267578125-3.71002197265625-1.139892578125-.51995849609375,1.119873046875-.5999755859375,2.530029296875-1.29998779296875,3.699951171875-6.71002197265625,11.9599609375-13.83001708984375,23.1300048828125-20.760009765625,34.9000244140625-1.90997314453125,3.8299560546875-4.8499755859375,7.469970703125-7.3599853515625,10.8499755859375-6.79998779296875,8.8699951171875.70001220703125,7.070068359375,6.92999267578125,5.7099609375l.19000244140625-.010009765625c10.6600341796875.5400390625,7.95001220703125,14.8701171875,7.42999267578125,22.7000732421875.42999267578125,7.6500244140625,1.57000732421875,15.22998046875.030029296875,22.8399658203125.63995361328125,16.2900390625.469970703125,33.590087890625.40997314453125,49.179931640625-.02996826171875.670166015625.19000244140625,1.110107421875.9100341796875,1.14013671875,9.30999755859375.25,20.239990234375-.090087890625,29.8599853515625.52001953125,3.67999267578125-.2900390625,1.27001953125-4.14013671875,1.3399658203125-6.35009765625.02001953125-25.97998046875-.38995361328125-51.89990234375-.40997314453125-77.8699951171875ZM408.755427435798993,175.400218761515134c-.94000244140625.919921875-1.8399658203125,1.3299560546875-2.71002197265625,2.179931640625-21.19000244140625,20.760009765625-41.63995361328125,42.010009765625-62.54998779296875,63.1500244140625-5.3399658203125,5.4000244140625-14.79998779296875,13.02001953125-19.9599609375,18.6300048828125-1.77001953125,1.9000244140625-2.82000732421875,3.3399658203125-2.57000732421875,3.9000244140625.19000244140625.4599609375,1.16998291015625.3099365234375,3.19000244140625-.4500732421875.41998291015625-.119873046875.8699951171875-.159912109375,1.29998779296875-.0999755859375,6.58001708984375,1.4000244140625,9.1099853515625-5.9000244140625,12.97998046875-9.6900634765625,1.0400390625-1.2099609375,2.3599853515625-1.8798828125,3.530029296875-2.7999267578125,1.3499755859375-1.719970703125,2.63995361328125-3.510009765625,4.15997314453125-5.0599365234375,3.33001708984375-3.56005859375,7.1099853515625-6.6700439453125,10.60003662109375-10.14013671875,20.67999267578125-22.18994140625,43.6099853515625-42.2899169921875,63.989990234375-64.4599609375l.03997802734375-.1298828125c-1.80999755859375-10.090087890625-8.260009765625,1.7698974609375-12,4.969970703125ZM406.435420111580243,161.890208995890134c-26.8399658203125,25.669921875-52.89996337890625,52.22998046875-79.02996826171875,78.5699462890625-6.6300048828125,8.3099365234375-16.08001708984375,14.5-22.739990234375,22.3699951171875.15997314453125,1.739990234375,5.89996337890625.3699951171875,7.719970703125.4300537109375.510009765625-.06005859375.8699951171875-.3199462890625,1.21002197265625-.7100830078125,24.50994873046875-25.7899169921875,50.8699951171875-50.72998046875,75.5799560546875-76.52001953125,6.8900146484375-7.179931640625,14.69000244140625-13.139892578125,21.10003662109375-20.760009765625,1.42999267578125-1.75,7.15997314453125-3.72998046875,4.54998779296875-6.2099609375l-.09002685546875-.119873046875c-2.88995361328125-6.7401123046875-5.40997314453125.079833984375-8.29998779296875,2.949951171875ZM396.745417670173993,155.040111339640134c-7.16998291015625,6.81005859375-13.17999267578125,14.280029296875-20.8800048828125,20.5400390625-19.3800048828125,21.18994140625-41.65997314453125,40.340087890625-61.1199951171875,61.530029296875-7.5899658203125,7.6500244140625-15.65997314453125,15.43994140625-23.1400146484375,22.9599609375-.75994873046875.7900390625-1.6199951171875,1.56005859375-2.30999755859375,2.360107421875-.219970703125.3299560546875-.01995849609375.58984375.30999755859375.75,4.56005859375,2.099853515625,9.12005615234375-1.4200439453125,12.23004150390625-4.739990234375,34-36.4700927734375,71.94000244140625-70.9300537109375,106.3699951171875-107.280029296875l-.010009765625-.1600341796875c-4.02996826171875-6.300048828125-8.40997314453125.9200439453125-11.45001220703125,4.0399169921875ZM386.995417670173993,149.620189464640134c-2.51995849609375,2.0799560546875-5.22998046875,3.8800048828125-7.51995849609375,6.219970703125-5.24005126953125,5.050048828125-9.760009765625,11-15.1300048828125,16.010009765625-28.85003662109375,27.6500244140625-57.21002197265625,56.72998046875-85.3900146484375,85.1300048828125-.30999755859375.5399169921875-.34002685546875,1.3499755859375-.4100341796875,2.0499267578125-.37994384765625,3.7301025390625,1.260009765625,4.330078125,4.33001708984375,1.9600830078125,3.010009765625-2.27001953125,6.66998291015625-6.3900146484375,9.42999267578125-9.1500244140625,34.4200439453125-36.3800048828125,72.3699951171875-71.3599853515625,106.9000244140625-107.8599853515625l-.030029296875-.1500244140625c-5.03997802734375-6.0899658203125-8.52996826171875,2.320068359375-12.17999267578125,5.7900390625ZM374.225459174080243,145.990184581827634c-7.34002685546875,6.3299560546875-13.48004150390625,13.2899169921875-20.27001953125,20.0799560546875-24.25,22.6900634765625-46.47003173828125,47.050048828125-70.280029296875,70.1300048828125-2.53997802734375,2.56005859375-5.1199951171875,5.3599853515625-5.75,8.8599853515625-.199951171875,1.260009765625-.0799560546875,2.77001953125.57000732421875,3.85009765625.1199951171875.139892578125.27001953125.169921875.42999267578125.0999755859375,1.3800048828125-1.1099853515625,2.58001708984375-2.510009765625,3.92999267578125-3.77001953125,7.510009765625-7.3900146484375,15.6700439453125-15.4600830078125,23.07000732421875-23.280029296875,26.73004150390625-28.5899658203125,56.3900146484375-55.0699462890625,82.74005126953125-83.5l-.030029296875-.1300048828125c-6.6300048828125-5.139892578125-10.30999755859375,3.4100341796875-14.40997314453125,7.6600341796875ZM279.465449408455243,224.160228527140134c-1.530029296875,2.3798828125-1.9100341796875,5.14990234375-.96002197265625,8.449951171875.1400146484375.550048828125.489990234375.669921875.91998291015625.18994140625,25.6199951171875-26.2999267578125,54.4200439453125-54.760009765625,80.6199951171875-81.8499755859375,4.09002685546875-4.2799072265625,12.7900390625-10.4100341796875,14.6300048828125-14.3099365234375,1.4000244140625-2.6600341796875-3.27996826171875-2.31005859375-5.50994873046875-1.6500244140625l-.1300048828125.0699462890625c-30.75,28.780029296875-59.1600341796875,60.27001953125-89.57000732421875,89.10009765625ZM353.315424994392743,134.430248058390134c-.52001953125.010009765625-.8800048828125.2698974609375-1.20001220703125.659912109375-14.5999755859375,16.75-32.76995849609375,32.1099853515625-47.44000244140625,48.840087890625-3.57000732421875,4.22998046875-6.63995361328125,8.760009765625-8.8800048828125,13.919921875-.5,1.1600341796875-1.15997314453125,2.0999755859375-2.0899658203125,3.030029296875-4.07000732421875,4.780029296875-19.33001708984375,8.639892578125-14.66998291015625,15.639892578125l.1099853515625.02001953125c25.9599609375-24.449951171875,53.70001220703125-55.8299560546875,81.6300048828125-80.449951171875,2.67999267578125-2.800048828125-4.780029296875-1.27001953125-7.46002197265625-1.659912109375ZM326.445429877205243,134.230174816202634c-1.55999755859375.239990234375-3.30999755859375.1199951171875-4.69000244140625.739990234375-4.489990234375,2.030029296875-6.58001708984375,7.260009765625-10.5899658203125,9.97998046875-4.5400390625,5.0899658203125-16.2900390625,10.760009765625-10.56005859375,17.6099853515625l.12005615234375.02001953125c9.5999755859375-8,17.5999755859375-18.760009765625,27.25994873046875-26.81005859375,1.59002685546875-1.639892578125-.3299560546875-1.669921875-1.53997802734375-1.5399169921875ZM327.905451849861493,144.230174816202634c-8.010009765625,8.9200439453125-18.1700439453125,15.760009765625-25.2900390625,25.27001953125l-.05999755859375.1500244140625c-.45001220703125,2.8499755859375-.6300048828125,8.5899658203125,3.1600341796875,4.619873046875,2.8499755859375-2.83984375,6.42999267578125-8.10986328125,10.25-10.619873046875,9.0799560546875-9.2099609375,19.72998046875-19.3701171875,28.0999755859375-28.050048828125.80999755859375-.739990234375-.28997802734375-.77001953125-.78997802734375-.8399658203125-8.280029296875-1.3800048828125-10.21002197265625,4.8800048828125-15.3699951171875,9.469970703125ZM312.075434760017743,134.190257824015134c-.45001220703125-.31005859375-1.27001953125.47998046875-2.4000244140625.72998046875-.39996337890625.0899658203125-.82000732421875.0599365234375-1.219970703125-.02001953125-5.22998046875-1.75-5.84002685546875,2.8798828125-9.239990234375,5.68994140625-3.6400146484375,3.239990234375-11.96002197265625,8.6300048828125-3.780029296875,11.43994140625l.17999267578125.050048828125c2.30999755859375.610107421875,2.050048828125-2.2099609375,3.25-3.449951171875,2.300048828125-2.219970703125,4.9000244140625-3.8699951171875,6.510009765625-6.72998046875,1.3800048828125-2.6201171875,4.91998291015625-3.380126953125,6.6099853515625-5.72998046875.4000244140625-.52001953125.57000732421875-1.610107421875.09002685546875-1.97998046875ZM296.885432318611493,134.660228527140134c-.69000244140625-.89013671875-3.69000244140625-.1201171875-6,.179931640625-.8699951171875.1600341796875-1.6300048828125.030029296875-2.47998046875.1500244140625-4.1300048828125.9400634765625-2.46002197265625,6.8099365234375,1.02996826171875,7.010009765625l.16998291015625.0299072265625c2.87005615234375.739990234375,2.74005126953125-2.929931640625,4.52001953125-4.239990234375.92999267578125-.7899169921875,2.08001708984375-.72998046875,2.69000244140625-1.72998046875.20001220703125-.3299560546875.27001953125-1.159912109375.07000732421875-1.39990234375ZM96.345454291267743,117.850169933390134c1.8800048828125.830078125,4.64996337890625,1.3900146484375,6.90997314453125,1.330078125,15.1400146484375-.4500732421875,30.34002685546875-.989990234375,45.58001708984375-.090087890625,7.3499755859375-.02001953125,16.79998779296875-2.3900146484375,20.3699951171875,3.02001953125,5.3499755859375,8.830078125-11.60003662109375,25.5400390625-14.8699951171875,34.6400146484375-2.2900390625,4.0299072265625-4.1199951171875,7.3900146484375-5.6400146484375,11.5899658203125-8.8800048828125,23.81005859375,14.780029296875,21.070068359375,21.71002197265625,36.1199951171875,1.969970703125,17.3099365234375-.08001708984375,35.4300537109375.69000244140625,52.9500732421875-.83001708984375,4.8499755859375-2.05999755859375,7.219970703125,4.04998779296875,5.18994140625,2.90997314453125-1.1300048828125,8.6199951171875,3.4000244140625,9.97998046875-.18994140625-1.3800048828125-25.14013671875,1.2900390625-53.1700439453125-.969970703125-78.6201171875-2.77001953125-2.43994140625-12.95001220703125,1.260009765625-17.8800048828125-.5799560546875-13.1400146484375-6.8499755859375,1.40997314453125-20.3599853515625,5.75-28.2099609375,6.77996826171875-14.2900390625,17.01995849609375-26.5999755859375,24.03997802734375-41.1199951171875,6.32000732421875-8.590087890625,10.47998046875-23.2099609375,19.989990234375-26.81005859375,8.6700439453125,0,13.1700439453125,12.550048828125,17.239990234375,19.800048828125,11.98004150390625,20.929931640625,25.280029296875,40.9599609375,36.9200439453125,61.9599609375,10.010009765625,12.949951171875-10.530029296875,16.469970703125-19.79998779296875,14.030029296875-1.530029296875,0-1.77001953125,1.1199951171875-1.75,2.5999755859375.25994873046875,2.3599853515625.25994873046875,5.1199951171875-.1500244140625,7.5,1.03997802734375,21.9000244140625.41998291015625,43.4400634765625-.030029296875,65.260009765625-.88995361328125,8.260009765625,3.77001953125,4.760009765625,9.36004638671875,4.8800048828125,1.82000732421875.1199951171875,4.76995849609375,1.219970703125,4.94000244140625-1.530029296875.9599609375-13.010009765625-.260009765625-27.5699462890625.0999755859375-40.919921875.09002685546875-5.590087890625-.5999755859375-11.4100341796875.780029296875-16.8900146484375,6.67999267578125-13.0400390625,30.239990234375-12.9700927734375,22.5-34.0400390625-3.010009765625-12.510009765625-26.6400146484375-35.5699462890625-22.030029296875-47.510009765625,2.16998291015625-3.8499755859375,8.1400146484375-3.3800048828125,12.42999267578125-3.260009765625,15.8900146484375-.219970703125,31.739990234375.2900390625,47.260009765625-.3699951171875,9.77001953125.7900390625,19.1500244140625-.050048828125,28.84002685546875.360107421875,11.0799560546875,1.5,6.80999755859375-7.27001953125,4.6099853515625-14.4400634765625-17.6400146484375-35.0400390625-44.8599853515625-5.7301025390625-60.70001220703125-17.6800537109375-2.4000244140625-14.550048828125-15.30999755859375-27.929931640625-30.70001220703125-26.97998046875-26.92999267578125,3.449951171875-13.14996337890625-31.6199951171875-42.239990234375-37.199951171875-29.19000244140625-15.530029296875-88.6500244140625-4.530029296875-85.96002197265625,36.22998046875.09002685546875,5.719970703125-1.5,11.0799560546875-8.57000732421875,11.3599853515625h-.219970703125c-22.8699951171875-5.1500244140625-53.5,36.4400634765625-32.53997802734375,47.6199951171875ZM120.105403021736493,134.620189464640134c-2.62994384765625-1.030029296875-5.3399658203125-.320068359375-7.89996337890625,1.25-2.34002685546875,1.43994140625-4.58001708984375,3.5899658203125-6.6099853515625,5.8299560546875-28.2900390625,30.9000244140625-59.96002197265625,58.9700927734375-88.47003173828125,89.31005859375l-.07000732421875.1600341796875c-.41998291015625,1.699951171875-.54998779296875,3.5399169921875-.67999267578125,5.3199462890625-.260009765625,4.7899169921875,1.34002685546875,2.8099365234375,3.010009765625.5599365234375,1.510009765625-2.0499267578125,3.42999267578125-4.9599609375,5.3599853515625-6.869873046875,4.95001220703125-4.4801025390625,9.80999755859375-8.989990234375,14.57000732421875-13.570068359375,26.3699951171875-27,55-54.530029296875,80.84002685546875-81,.44000244140625-.429931640625.449951171875-.77001953125-.050048828125-.989990234375ZM49.845454291267743,141.580150402140134c.489990234375-.469970703125,1.0999755859375-1.3299560546875,1.0999755859375-1.5699462890625.19000244140625-.9200439453125-2.07000732421875.0198974609375-5.27001953125,1.9300537109375-6.16998291015625,3.989990234375-15.97998046875,10.469970703125-18.489990234375,17.0599365234375l-.05999755859375.1300048828125c-17.94000244140625,27.1099853515625,13.8900146484375-9.9599609375,22.72003173828125-17.550048828125ZM29.825434760017743,177.660228527140134c13.739990234375-12.4200439453125,25.67999267578125-26.1700439453125,39.1300048828125-39.1201171875.8900146484375-1.0599365234375,2.989990234375-1.7999267578125,3.3900146484375-3.10986328125-.08001708984375-1-4.530029296875-.1900634765625-7.23004150390625.349853515625-1.239990234375.340087890625-2.04998779296875,1.5-2.969970703125,2.31005859375-14.32000732421875,14.9599609375-30.52001953125,28.6600341796875-44.27001953125,44.27001953125l-.07000732421875.1500244140625c-4.8699951171875,17.3499755859375,7.780029296875-1.1300048828125,12.02001953125-4.8499755859375ZM19.295405463142743,204.990184581827634c1.5400390625-1.4500732421875,2.73004150390625-3.489990234375,4.260009765625-5.0899658203125,7.3800048828125-7.090087890625,13.86004638671875-14.8701171875,21.8900146484375-21.1500244140625,10.08001708984375-10.760009765625,20.67999267578125-20.0899658203125,30.3800048828125-31.0999755859375,1.239990234375-1.130126953125,2.82000732421875-2.010009765625,3.83001708984375-3.239990234375,1.97998046875-2.050048828125,3.41998291015625-4.72998046875,5.77996826171875-6.6900634765625.84002685546875-.469970703125,2-.9400634765625,2.6500244140625-1.5499267578125,1.9599609375-1.89013671875-.59002685546875-2.2200927734375-2.08001708984375-1.800048828125-4.53997802734375.419921875-8.04998779296875,2.919921875-11.42999267578125,6.3299560546875-3.82000732421875,3.7200927734375-7.6300048828125,8.4901123046875-11.07000732421875,12.25-15.22998046875,15.6500244140625-31.8699951171875,29.7401123046875-46.260009765625,46.030029296875l-.0799560546875.1500244140625c-.96002197265625,2.8299560546875-2.45001220703125,10.510009765625,2.12994384765625,5.8599853515625ZM25.245417670173993,214.690257824015134c7.280029296875-8.2200927734375,15.67999267578125-15.02001953125,22.79998779296875-23.25,18.260009765625-19.4500732421875,40.58001708984375-37.920166015625,56.9300537109375-57.1201171875-.70001220703125-.77001953125-1.94000244140625.320068359375-2.83001708984375.510009765625-.96002197265625.3699951171875-2.09002685546875-.1300048828125-2.97003173828125-.3399658203125-3.199951171875-.8499755859375-4.03997802734375,2.2000732421875-5.5899658203125,4.2000732421875-6.7900390625,6.5499267578125-13.3599853515625,12.889892578125-19.9100341796875,19.599853515625-18.30999755859375,19.5-38.65997314453125,37.080078125-56.50994873046875,56.72998046875l-.07000732421875.16015625c-3.48004150390625,15.5299072265625,3.26995849609375,4.0799560546875,8.14996337890625-.489990234375ZM17.325434760017743,254.560130870890134c2.25-1.9599609375,4.29998779296875-5.43994140625,6.8800048828125-7.4599609375.91998291015625-.820068359375,1.94000244140625-1.0999755859375,2.70001220703125-1.8599853515625,8.77996826171875-10.1500244140625,19.3299560546875-18.6300048828125,27.8399658203125-28.8599853515625,27.71002197265625-25.860107421875,54.95001220703125-54.719970703125,81.25-80.6500244140625.52001953125-.469970703125.54998779296875-.8900146484375,0-1.1700439453125-2.739990234375-1.25-5.3800048828125-.6298828125-7.64996337890625.9100341796875-4.19000244140625,2.7900390625-7.74005126953125,8.5400390625-11.80999755859375,11.47998046875-5.9200439453125,6.3599853515625-12.11004638671875,12.4200439453125-18.33001708984375,18.4901123046875-26.19000244140625,27.919921875-55.04998779296875,53.7899169921875-81.1099853515625,81.599853515625l-.07000732421875.1600341796875c-.2900390625.9000244140625-1.8900146484375,9.050048828125.29998779296875,7.3599853515625ZM29.625422552986493,305.630199230265134c13.030029296875-10.81005859375,24-23.8699951171875,35.97003173828125-35.830078125,16.27996826171875-15.2899169921875,31.66998291015625-31.139892578125,47.26995849609375-47.14990234375,6.5-5.6900634765625,11.92999267578125-12.1400146484375,17.95001220703125-18.4000244140625,3.07000732421875-3.530029296875,8.46002197265625-4.989990234375,5.21002197265625-10.4000244140625-.1099853515625-.2099609375-.239990234375-.4000244140625-.3699951171875-.5400390625.02996826171875-.0699462890625-.5400390625-.3499755859375-.52001953125-.25-39.92999267578125,38.1800537109375-78.72998046875,78.739990234375-117.8499755859375,118.110107421875l-.08001708984375.159912109375c-4.29998779296875,19.27001953125,6.70001220703125-1.6300048828125,12.41998291015625-5.699951171875ZM18.225459174080243,333.920238292765134c1.01995849609375-1.14013671875,2.6099853515625-3.7100830078125,3.92999267578125-4.9400634765625,2.6099853515625-2.1400146484375,5.22998046875-4.4100341796875,7.67999267578125-6.8399658203125,4.26995849609375-4.330078125,8.77996826171875-8.6201171875,13.1300048828125-13.030029296875,5.92999267578125-7.429931640625,13.3800048828125-13.22998046875,20.0799560546875-19.919921875,26.260009765625-27.590087890625,54.25-54.2900390625,80.97003173828125-81.4700927734375,1.1300048828125-1.3399658203125,1.41998291015625-2.6400146484375-.1400146484375-4.1700439453125-.54998779296875-.530029296875-1.1199951171875-1.0499267578125-1.8699951171875-1.14990234375-33.16998291015625,30.389892578125-63.20001220703125,64.02001953125-95.92999267578125,95.4599609375-3.78997802734375,3.7900390625-7.25,7.820068359375-11.1199951171875,11.550048828125-1.91998291015625,1.93994140625-4.1500244140625,3.60986328125-6.20001220703125,5.469970703125-2.80999755859375,2.8499755859375-5.1500244140625,5.510009765625-7.989990234375,8.31005859375-.8599853515625.8798828125-2.47003173828125,1.5098876953125-3.21002197265625,2.3099365234375-2.010009765625,1.8099365234375-1.010009765625,4.6600341796875-.47998046875,7.5799560546875l.02996826171875.18994140625c.02001953125.2100830078125.0400390625.4700927734375.06005859375.6800537109375.0699462890625.77001953125.4599609375.6400146484375,1.05999755859375-.0299072265625ZM20.225459174080243,347.840160167765134c3.13995361328125-2.06005859375,5.37994384765625-6.5799560546875,8.53997802734375-9.050048828125,7.69000244140625-7.389892578125,14.42999267578125-15.469970703125,22.760009765625-22.0599365234375,9.6099853515625-9.9400634765625,18.77996826171875-19.22998046875,28.5899658203125-28.9100341796875,2.6199951171875-3.469970703125,6.21002197265625-5.280029296875,8.010009765625-8.64990234375.97003173828125-1.9300537109375,1.0400390625-4.81005859375.8699951171875-7.110107421875-.010009765625-.0400390625-.02996826171875-.8099365234375-.1199951171875-.89990234375-.14996337890625-.1700439453125-.16998291015625-.080078125-.28997802734375-.0400390625-22.46002197265625,23.27001953125-47.96002197265625,47.22998046875-70.530029296875,71.25l-.05999755859375.14990234375c-.22998046875,1.5400390625.35003662109375,6.4500732421875,2.23004150390625,5.320068359375ZM27.825434760017743,356.360179699015134c2.739990234375-2.889892578125,5.3499755859375-7.18994140625,8.739990234375-9.3900146484375,7.28997802734375-7.9599609375,16.1099853515625-13.969970703125,22.69000244140625-22.6400146484375,6.44000244140625-7.18994140625,15.4100341796875-13.9599609375,22.42999267578125-21.6099853515625,3.96002197265625-4.52001953125,8.82000732421875-10.0799560546875,7.35003662109375-15.8199462890625-21.25,21.75-46.0400390625,45.0400390625-67.45001220703125,67.889892578125l-.030029296875.150146484375c.77001953125,4.72998046875,3.17999267578125,4.919921875,6.27001953125,1.419921875ZM32.855403021736493,366.770091808390134c1.85003662109375-2.5498046875,4.9100341796875-4.9599609375,7.3800048828125-6.919921875,2.46002197265625-2.159912109375,4.70001220703125-4.60009765625,7-6.949951171875,9.6300048828125-10.010009765625,19.300048828125-19.6900634765625,29.32000732421875-29.300048828125,3.030029296875-5.1199951171875,8.030029296875-8.0899658203125,12.02001953125-12.1300048828125.30999755859375-.3299560546875.47998046875-.7099609375.52001953125-1.1700439453125.01995849609375-2.530029296875.469970703125-6.530029296875-.260009765625-7.280029296875-.45001220703125-.5098876953125-1.42999267578125.66015625-1.80999755859375,1.1800537109375-18.42999267578125,21.6500244140625-41.08001708984375,39.6099853515625-59.75,60.7799072265625l-.030029296875.130126953125c.1099853515625.650146484375.489990234375,1.219970703125.8599853515625,1.77001953125,1.75,2.659912109375,3.21002197265625,1.619873046875,4.75-.110107421875ZM48.095454291267743,367.500072277140134c1.01995849609375-1.219970703125,2.3599853515625-1.89990234375,3.54998779296875-2.83984375,7.70001220703125-9.02001953125,17.03997802734375-16.4200439453125,24.53997802734375-25.72998046875,5.10003662109375-4.77001953125,15.04998779296875-10.880126953125,13.02001953125-19.340087890625-.16998291015625-.52001953125-.489990234375-.489990234375-.9000244140625-.0400390625-16.6099853515625,17.719970703125-37.13995361328125,35.610107421875-53.63995361328125,54.210205078125l.00994873046875.159912109375c4.92999267578125,7.919921875,9.7900390625-2.929931640625,13.4200439453125-6.420166015625ZM47.655451849861493,382.660228527140134c8.6300048828125-3.830078125,14.07000732421875-13.14990234375,20.57000732421875-19.800048828125.72998046875-.77001953125,1.44000244140625-1.52001953125,2.28997802734375-2.150146484375,5.6199951171875-4.269775390625,9.489990234375-9.81982421875,14.77001953125-14.4798583984375,1.30999755859375-.9400634765625,2.42999267578125-1.8599853515625,3.0899658203125-3.4200439453125,1.20001220703125-2.5,1.47998046875-5.8199462890625.75-7.489990234375-.22998046875-.429931640625-.52996826171875-.219970703125-.8900146484375.1500244140625-8.63995361328125,8.8299560546875-18.80999755859375,19.4400634765625-28.25994873046875,28.6600341796875-3.82000732421875,3.139892578125-7.030029296875,6.469970703125-10.35003662109375,10.18994140625-2.75,3.449951171875-10.45001220703125,6.190185546875-2.1199951171875,8.35009765625l.1500244140625-.010009765625ZM70.305415228767743,376.940257824015134c2.8699951171875-2.41015625,5.04998779296875-4.89013671875,7.94000244140625-7.5400390625,5.79998779296875-5.440185546875,12.58001708984375-11.27001953125,10.67999267578125-18.110107421875-10.6099853515625,10.14013671875-24.28997802734375,22.85009765625-34.5,34.580078125l.0400390625.10986328125c7.3299560546875,4.550048828125,11.45001220703125-4.7197265625,15.8399658203125-9.039794921875ZM90.735407904548993,372.370189464640134c.0400390625-.590087890625-.3499755859375-1.199951171875-.5899658203125-1.81005859375-.79998779296875-1.7998046875-1.5-2.5498046875-2.16998291015625-2.469970703125-1.74005126953125.139892578125-3.5400390625,5.080078125-7.86004638671875,7.619873046875-.3499755859375.210205078125-.6099853515625.420166015625-.8699951171875.690185546875-.89996337890625,1.260009765625-2.3599853515625,2.719970703125-4.04998779296875,4.179931640625-6.45001220703125,5.419921875-11.28997802734375,9.18994140625-2.40997314453125,8.14013671875l.14996337890625-.01025390625c4.04998779296875-.18994140625,5.57000732421875-4.98974609375,8.5400390625-7.079833984375,3-3.340087890625,7.8199462890625-4.920166015625,9.25994873046875-9.260009765625ZM104.485407904548993,375.110179699015134c.3699951171875-.659912109375-.17999267578125-1.349853515625-.92999267578125-1.080078125-.77996826171875.219970703125-2.0799560546875.75-3.0899658203125.52001953125-3.3699951171875-.68994140625-4.97003173828125.81005859375-6.82000732421875,3.47998046875-2.59002685546875,4.39013671875-9.46002197265625,6.25-10.6099853515625,10.85009765625l-.02001953125.119873046875c.03997802734375,1.420166015625,3.44000244140625,0,4.70001220703125.070068359375,1.04998779296875-.2099609375,2.22998046875.25,3.20001220703125-.02001953125,3.72998046875-4.919921875,9.39996337890625-9.320068359375,13.5699462890625-13.93994140625ZM120.485407904548993,375.110179699015134c.3699951171875-.659912109375-.17999267578125-1.349853515625-.92999267578125-1.080078125-.77996826171875.219970703125-2.0799560546875.75-3.0899658203125.52001953125-3.3699951171875-.68994140625-4.97003173828125.81005859375-6.82000732421875,3.47998046875-2.59002685546875,4.39013671875-9.46002197265625,6.25-10.6099853515625,10.85009765625l-.02001953125.119873046875c.03997802734375,1.420166015625,3.44000244140625,0,4.70001220703125.070068359375,1.04998779296875-.2099609375,2.22998046875.25,3.20001220703125-.02001953125,3.72998046875-4.919921875,9.39996337890625-9.320068359375,13.5699462890625-13.93994140625ZM136.485407904548993,375.110179699015134c.3699951171875-.659912109375-.17999267578125-1.349853515625-.92999267578125-1.080078125-.77996826171875.219970703125-2.0799560546875.75-3.0899658203125.52001953125-3.3699951171875-.68994140625-4.97003173828125.81005859375-6.82000732421875,3.47998046875-2.59002685546875,4.39013671875-9.46002197265625,6.25-10.6099853515625,10.85009765625l-.02001953125.119873046875c.03997802734375,1.420166015625,3.44000244140625,0,4.70001220703125.070068359375,1.04998779296875-.2099609375,2.22998046875.25,3.20001220703125-.02001953125,3.72998046875-4.919921875,9.39996337890625-9.320068359375,13.5699462890625-13.93994140625ZM152.485407904548993,375.110179699015134c.3699951171875-.659912109375-.17999267578125-1.349853515625-.92999267578125-1.080078125-.77996826171875.219970703125-2.0799560546875.75-3.0899658203125.52001953125-3.3699951171875-.68994140625-4.97003173828125.81005859375-6.82000732421875,3.47998046875-2.59002685546875,4.39013671875-9.46002197265625,6.25-10.6099853515625,10.85009765625l-.02001953125.119873046875c.03997802734375,1.420166015625,3.44000244140625,0,4.70001220703125.070068359375,1.04998779296875-.2099609375,2.22998046875.25,3.20001220703125-.02001953125,3.72998046875-4.919921875,9.39996337890625-9.320068359375,13.5699462890625-13.93994140625ZM168.485407904548993,375.110179699015134c.3699951171875-.659912109375-.17999267578125-1.349853515625-.92999267578125-1.080078125-.77996826171875.219970703125-2.0799560546875.75-3.0899658203125.52001953125-3.3699951171875-.68994140625-4.97003173828125.81005859375-6.82000732421875,3.47998046875-2.59002685546875,4.39013671875-9.46002197265625,6.25-10.6099853515625,10.85009765625l-.02001953125.119873046875c.03997802734375,1.420166015625,3.44000244140625,0,4.70001220703125.070068359375,1.04998779296875-.2099609375,2.22998046875.25,3.20001220703125-.02001953125,3.72998046875-4.919921875,9.39996337890625-9.320068359375,13.5699462890625-13.93994140625ZM184.485407904548993,375.110179699015134c.3699951171875-.659912109375-.17999267578125-1.349853515625-.92999267578125-1.080078125-.77996826171875.219970703125-2.0799560546875.75-3.0899658203125.52001953125-3.3699951171875-.68994140625-4.97003173828125.81005859375-6.82000732421875,3.47998046875-2.59002685546875,4.39013671875-9.46002197265625,6.25-10.6099853515625,10.85009765625l-.02001953125.119873046875c.03997802734375,1.420166015625,3.44000244140625,0,4.70001220703125.070068359375,1.04998779296875-.2099609375,2.22998046875.25,3.20001220703125-.02001953125,3.72998046875-4.919921875,9.39996337890625-9.320068359375,13.5699462890625-13.93994140625ZM200.485407904548993,375.110179699015134c.3699951171875-.659912109375-.17999267578125-1.349853515625-.92999267578125-1.080078125-.77996826171875.219970703125-2.0799560546875.75-3.0899658203125.52001953125-3.3699951171875-.68994140625-4.97003173828125.81005859375-6.82000732421875,3.47998046875-2.59002685546875,4.39013671875-9.46002197265625,6.25-10.6099853515625,10.85009765625l-.02001953125.119873046875c.03997802734375,1.420166015625,3.44000244140625,0,4.70001220703125.070068359375,1.04998779296875-.2099609375,2.22998046875.25,3.20001220703125-.02001953125,3.72998046875-4.919921875,9.39996337890625-9.320068359375,13.5699462890625-13.93994140625ZM216.485407904548993,375.110179699015134c.3699951171875-.659912109375-.17999267578125-1.349853515625-.92999267578125-1.080078125-.77996826171875.219970703125-2.0799560546875.75-3.0899658203125.52001953125-3.3699951171875-.68994140625-4.97003173828125.81005859375-6.82000732421875,3.47998046875-2.59002685546875,4.39013671875-9.46002197265625,6.25-10.6099853515625,10.85009765625l-.02001953125.119873046875c.03997802734375,1.420166015625,3.44000244140625,0,4.70001220703125.070068359375,1.04998779296875-.2099609375,2.22998046875.25,3.20001220703125-.02001953125,3.72998046875-4.919921875,9.39996337890625-9.320068359375,13.5699462890625-13.93994140625ZM232.485407904548993,375.110179699015134c.3699951171875-.659912109375-.17999267578125-1.349853515625-.92999267578125-1.080078125-.77996826171875.219970703125-2.0799560546875.75-3.0899658203125.52001953125-3.3699951171875-.68994140625-4.97003173828125.81005859375-6.82000732421875,3.47998046875-2.59002685546875,4.39013671875-9.46002197265625,6.25-10.6099853515625,10.85009765625l-.02001953125.119873046875c.03997802734375,1.420166015625,3.44000244140625,0,4.70001220703125.070068359375,1.04998779296875-.2099609375,2.22998046875.25,3.20001220703125-.02001953125,3.72998046875-4.919921875,9.39996337890625-9.320068359375,13.5699462890625-13.93994140625ZM248.485407904548993,375.110179699015134c.3699951171875-.659912109375-.17999267578125-1.349853515625-.92999267578125-1.080078125-.77996826171875.219970703125-2.0799560546875.75-3.0899658203125.52001953125-3.3699951171875-.68994140625-4.97003173828125.81005859375-6.82000732421875,3.47998046875-2.59002685546875,4.39013671875-9.46002197265625,6.25-10.6099853515625,10.85009765625l-.02001953125.119873046875c.03997802734375,1.420166015625,3.44000244140625,0,4.70001220703125.070068359375,1.04998779296875-.2099609375,2.22998046875.25,3.20001220703125-.02001953125,3.72998046875-4.919921875,9.39996337890625-9.320068359375,13.5699462890625-13.93994140625ZM261.715449408455243,375.010326183390134c-.32000732421875.1298828125-.73004150390625.179931640625-1.08001708984375.19970703125-2.42999267578125-.7099609375-4.42999267578125-.079833984375-6.1500244140625,1.610107421875-1.719970703125,1.639892578125-3.13995361328125,3.679931640625-4.9599609375,5.239990234375-7.4200439453125,6.64013671875-10.21002197265625,9.469970703125.94000244140625,6.68017578125l.1099853515625-.0400390625c1.09002685546875-1.1201171875,20.969970703125-17.740234375,11.1400146484375-13.68994140625ZM280.485407904548993,375.110179699015134c.3699951171875-.659912109375-.17999267578125-1.349853515625-.92999267578125-1.080078125-.77996826171875.219970703125-2.0799560546875.75-3.0899658203125.52001953125-3.3699951171875-.68994140625-4.97003173828125.81005859375-6.82000732421875,3.47998046875-2.59002685546875,4.39013671875-9.46002197265625,6.25-10.6099853515625,10.85009765625l-.02001953125.119873046875c.03997802734375,1.420166015625,3.44000244140625,0,4.70001220703125.070068359375,1.04998779296875-.2099609375,2.22998046875.25,3.20001220703125-.02001953125,3.72998046875-4.919921875,9.39996337890625-9.320068359375,13.5699462890625-13.93994140625ZM296.485407904548993,375.110179699015134c.3699951171875-.659912109375-.17999267578125-1.349853515625-.92999267578125-1.080078125-.77996826171875.219970703125-2.0799560546875.75-3.0899658203125.52001953125-3.3699951171875-.68994140625-4.97003173828125.81005859375-6.82000732421875,3.47998046875-2.59002685546875,4.39013671875-9.46002197265625,6.25-10.6099853515625,10.85009765625l-.02001953125.119873046875c.03997802734375,1.420166015625,3.44000244140625,0,4.70001220703125.070068359375,1.04998779296875-.2099609375,2.22998046875.25,3.20001220703125-.02001953125,3.72998046875-4.919921875,9.39996337890625-9.320068359375,13.5699462890625-13.93994140625ZM312.485407904548993,375.110179699015134c.3699951171875-.659912109375-.17999267578125-1.349853515625-.92999267578125-1.080078125-.77996826171875.219970703125-2.0799560546875.75-3.0899658203125.52001953125-3.3699951171875-.68994140625-4.97003173828125.81005859375-6.82000732421875,3.47998046875-2.59002685546875,4.39013671875-9.46002197265625,6.25-10.6099853515625,10.85009765625l-.02001953125.119873046875c.03997802734375,1.420166015625,3.44000244140625,0,4.70001220703125.070068359375,1.04998779296875-.2099609375,2.22998046875.25,3.20001220703125-.02001953125,3.72998046875-4.919921875,9.39996337890625-9.320068359375,13.5699462890625-13.93994140625ZM328.485407904548993,375.110179699015134c.3699951171875-.659912109375-.17999267578125-1.349853515625-.92999267578125-1.080078125-.77996826171875.219970703125-2.0799560546875.75-3.0899658203125.52001953125-3.3699951171875-.68994140625-4.97003173828125.81005859375-6.82000732421875,3.47998046875-2.59002685546875,4.39013671875-9.46002197265625,6.25-10.6099853515625,10.85009765625l-.02001953125.119873046875c.03997802734375,1.420166015625,3.44000244140625,0,4.70001220703125.070068359375,1.04998779296875-.2099609375,2.22998046875.25,3.20001220703125-.02001953125,3.72998046875-4.919921875,9.39996337890625-9.320068359375,13.5699462890625-13.93994140625ZM344.485407904548993,375.110179699015134c.3699951171875-.659912109375-.17999267578125-1.349853515625-.92999267578125-1.080078125-.77996826171875.219970703125-2.0799560546875.75-3.0899658203125.52001953125-3.3699951171875-.68994140625-4.97003173828125.81005859375-6.82000732421875,3.47998046875-2.59002685546875,4.39013671875-9.46002197265625,6.25-10.6099853515625,10.85009765625l-.02001953125.119873046875c.03997802734375,1.420166015625,3.44000244140625,0,4.70001220703125.070068359375,1.04998779296875-.2099609375,2.22998046875.25,3.20001220703125-.02001953125,3.72998046875-4.919921875,9.39996337890625-9.320068359375,13.5699462890625-13.93994140625ZM418.575434760017743,357.820140636515134c-4.53997802734375,3.880126953125-12.80999755859375,12.219970703125-20.05999755859375,19.320068359375-9.030029296875,9.14990234375-4.70001220703125,6.60009765625,2.1199951171875,1.60986328125l.1199951171875-.06982421875c5.82000732421875-2.72998046875,11.8499755859375-11.2900390625,15.75-16.760009765625,1.6500244140625-2.469970703125,2.54998779296875-4.170166015625,2.07000732421875-4.10009765625ZM411.135432318611493,348.550121105265134c-.92999267578125.880126953125-1.8900146484375,1.4300537109375-2.780029296875,2.27001953125-10.66998291015625,12-22.22998046875,22.77001953125-33.5699462890625,34.3701171875-.84002685546875,1.079833984375-3.1700439453125,1.93994140625-3.4100341796875,3.219970703125.22998046875.919921875,4.8800048828125-.050048828125,7.59002685546875-.7099609375,1.219970703125-.39013671875,2.02996826171875-1.52001953125,2.94000244140625-2.330078125,13.42999267578125-14.06005859375,28.719970703125-26.840087890625,41.5799560546875-41.580078125l.08001708984375-.139892578125c5.53997802734375-17.22998046875-7.97998046875,1.530029296875-12.42999267578125,4.89990234375ZM423.025446967048993,320.180248058390134c-.57000732421875.85986328125-.95001220703125,1.8299560546875-1.73004150390625,2.5599365234375-7.51995849609375,7.22998046875-14.1199951171875,15.1500244140625-22.28997802734375,21.5699462890625-10.27001953125,10.9501953125-21.05999755859375,20.469970703125-30.94000244140625,31.68017578125-1.239990234375,1.1298828125-2.79998779296875,1.98974609375-3.82000732421875,3.2099609375-2.05999755859375,2.10986328125-3.53997802734375,4.869873046875-5.969970703125,6.89990234375-.8900146484375.489990234375-2.17999267578125,1.02001953125-2.79998779296875,1.68994140625-1.6800537109375,1.72021484375.489990234375,2.110107421875,1.8699951171875,1.77001953125,4.5899658203125-.489990234375,8.14996337890625-2.72998046875,11.52996826171875-6.179931640625,3.70001220703125-3.60009765625,7.34002685546875-8.2099609375,10.70001220703125-11.900146484375,14.77001953125-15.199951171875,31.02001953125-28.869873046875,44.92999267578125-44.7398681640625l.08001708984375-.1500244140625c.75-3.3599853515625,1.39996337890625-11.050048828125-1.55999755859375-6.409912109375ZM416.265437201423993,311.650218761515134c-12.3699951171875,11.919921875-23.97003173828125,23.8599853515625-35.83001708984375,36.159912109375-7.57000732421875,7.56005859375-15.64996337890625,14.530029296875-23.1199951171875,22.16015625-2.8800048828125,2.929931640625-5.64996337890625,5.9599609375-8.239990234375,9.1298828125-.54998779296875.68994140625-1.04998779296875,1.080078125-1.80999755859375,1.669921875-.84002685546875.820068359375-11.32000732421875,8.080078125-7.8900146484375,8.56005859375.91998291015625.1298828125,2.3900146484375-.47998046875,3.45001220703125-.389892578125.27001953125.050048828125.5999755859375.1298828125.8699951171875.219970703125,1.3699951171875.489990234375,2.40997314453125.389892578125,3.260009765625-.10009765625,1.75-.989990234375,2.739990234375-3.5498046875,4.47998046875-5.5,2.3900146484375-2.280029296875,5.10003662109375-4.239990234375,7.3699951171875-6.60986328125,5.57000732421875-5.60009765625,10.9100341796875-11.43017578125,16.82000732421875-16.800048828125,15.35003662109375-17.489990234375,33.780029296875-31.969970703125,48.8900146484375-49.4100341796875l.08001708984375-.1600341796875c3.65997314453125-16.0400390625-3.72003173828125-3.719970703125-8.33001708984375,1.070068359375ZM248.515437201423993,318.870189464640134c.08001708984375.0400390625.27001953125-.1099853515625.3499755859375-.1600341796875-.07000732421875.010009765625-.3499755859375.0899658203125-.3499755859375.1600341796875ZM280.145442084236493,330.640208995890134c-17.530029296875-16.6500244140625-13.67999267578125-8.6900634765625,6.260009765625-30.199951171875l.1300048828125-.14013671875c6.05999755859375-5.75-.97003173828125-14.5499267578125-7.9000244140625-13.2899169921875-6.08001708984375,2.9000244140625-10,8.7598876953125-14.58001708984375,13.5499267578125-4.79998779296875,4.8900146484375-11.07000732421875,9.3701171875-14.17999267578125,15.6201171875-2.3499755859375,4.510009765625-.1199951171875,8.679931640625,4.280029296875,10.93994140625.510009765625.320068359375.989990234375.72998046875,1.3399658203125,1.219970703125,5.75,7.719970703125,13.46002197265625,12.929931640625,19.5,20.199951171875,1.0400390625,1.239990234375,2.6199951171875,2.25,4.17999267578125,2.4599609375,4.82000732421875.77001953125,9.98004150390625-4.10986328125,9.780029296875-8.93994140625-.010009765625-1.679931640625-.95001220703125-3.489990234375-2.3699951171875-4.8099365234375-2.46002197265625-2.5999755859375-4.52001953125-4.7301025390625-6.44000244140625-6.6099853515625ZM190.505427435798993,313.460155284952634l-.1400146484375-.1300048828125c-8.9599609375-8.4599609375-17.27996826171875-20.449951171875-27.510009765625-26.0899658203125-25.22998046875,2.2000732421875,3.6400146484375,21.6900634765625,10.25,32.0399169921875.02001953125.2000732421875-.0699462890625.41015625-.25994873046875.64013671875-2.98004150390625,2.919921875-6,5.849853515625-8.9100341796875,8.7999267578125-2.55999755859375,2.5899658203125-5.0899658203125,5.2000732421875-7.6400146484375,7.8800048828125-1.739990234375,1.590087890625-3.5799560546875,3.81005859375-3.5699462890625,5.969970703125-.32000732421875,4.47998046875,3.87994384765625,8.85009765625,8.3299560546875,8.77001953125,2.97003173828125.10009765625,5.280029296875-2.570068359375,7.3699951171875-4.3900146484375,2.800048828125-2.6800537109375,4.57000732421875-5.7999267578125,7.80999755859375-8.219970703125.4100341796875-.3099365234375.77001953125-.6600341796875,1.08001708984375-1.0499267578125,3.3900146484375-5.2301025390625,15.9000244140625-11.4400634765625,15.78997802734375-18.739990234375.02001953125-.02001953125.0400390625-.050048828125.0400390625-.070068359375-.02001953125,0-.0400390625-.010009765625-.04998779296875,0-.0400390625-1.739990234375-.80999755859375-3.5400390625-2.59002685546875-5.4100341796875Z"
      />
      <path
        class="cls-2"
        d="M235.355403021736493,170.220165050577634c-1.89996337890625,2.260009765625-2.6199951171875,5.989990234375-2.77996826171875,8.989990234375.02001953125,25.9700927734375.42999267578125,51.8900146484375.40997314453125,77.8699951171875-.0699462890625,2.2099609375,2.34002685546875,6.06005859375-1.3399658203125,6.35009765625-9.6199951171875-.610107421875-20.54998779296875-.27001953125-29.8599853515625-.52001953125-.72003173828125-.030029296875-.94000244140625-.469970703125-.9100341796875-1.14013671875.05999755859375-15.58984375.22998046875-32.889892578125-.40997314453125-49.179931640625,1.53997802734375-7.6099853515625.39996337890625-15.18994140625-.030029296875-22.8399658203125.52001953125-7.8299560546875,3.23004150390625-22.1600341796875-7.42999267578125-22.7000732421875l-.19000244140625.010009765625c-6.22998046875,1.360107421875-13.72998046875,3.1600341796875-6.92999267578125-5.7099609375,2.510009765625-3.3800048828125,5.45001220703125-7.02001953125,7.3599853515625-10.8499755859375,6.92999267578125-11.77001953125,14.04998779296875-22.9400634765625,20.760009765625-34.9000244140625.70001220703125-1.169921875.780029296875-2.580078125,1.29998779296875-3.699951171875,1.1600341796875-2.4100341796875,2.4200439453125-.8701171875,3.71002197265625,1.139892578125,2.29998779296875,3.7200927734375,4.22998046875,9.60009765625,6.8900146484375,13.2900390625,7.89996337890625,11.97998046875,14.64996337890625,24.340087890625,22.66998291015625,36.25,6.09002685546875,11.1300048828125-6.33001708984375.1500244140625-13.22003173828125,7.6400146484375ZM337.485407904548993,282.870189464640134c-.80999755859375,22.77001953125-.90997314453125,45.6300048828125-.53997802734375,68.35009765625.07000732421875,3.349853515625,2.3599853515625,10.159912109375-3.45001220703125,8.08984375-71.26995849609375-1.1298828125-143.69000244140625-.280029296875-215.20001220703125-.139892578125-4.0799560546875-.52001953125-10.5999755859375.340087890625-13.8499755859375-.340087890625-.71002197265625-.4599609375-.3800048828125-1.639892578125.010009765625-4.43994140625.1300048828125-1.22998046875.45001220703125-3.330078125.5-5.070068359375-.04998779296875-23-.75-47.699951171875.27001953125-70.0400390625l.0899658203125-.08984375c73.6300048828125-.77001953125,148.57000732421875.0299072265625,222.35003662109375-.360107421875,4.54998779296875.1700439453125,10.55999755859375-2.5699462890625,9.8199462890625,4.0400390625ZM193.145442084236493,318.870189464640134c-.02001953125,0-.0400390625-.010009765625-.04998779296875,0-.0400390625-1.739990234375-.80999755859375-3.5400390625-2.59002685546875-5.4100341796875l-.1400146484375-.1300048828125c-8.9599609375-8.4599609375-17.27996826171875-20.449951171875-27.510009765625-26.0899658203125-25.22998046875,2.2000732421875,3.6400146484375,21.6900634765625,10.25,32.0399169921875.02001953125.2000732421875-.0699462890625.41015625-.25994873046875.64013671875-2.98004150390625,2.919921875-6,5.849853515625-8.9100341796875,8.7999267578125-2.55999755859375,2.5899658203125-5.0899658203125,5.2000732421875-7.6400146484375,7.8800048828125-1.739990234375,1.590087890625-3.5799560546875,3.81005859375-3.5699462890625,5.969970703125-.32000732421875,4.47998046875,3.87994384765625,8.85009765625,8.3299560546875,8.77001953125,2.97003173828125.10009765625,5.280029296875-2.570068359375,7.3699951171875-4.3900146484375,2.800048828125-2.6800537109375,4.57000732421875-5.7999267578125,7.80999755859375-8.219970703125.4100341796875-.3099365234375.77001953125-.6600341796875,1.08001708984375-1.0499267578125,3.3900146484375-5.2301025390625,15.9000244140625-11.4400634765625,15.78997802734375-18.739990234375.02001953125-.02001953125.0400390625-.050048828125.0400390625-.070068359375ZM236.605403021736493,287.660228527140134l-.12994384765625-.090087890625c-10.6300048828125-6.669921875-20.73004150390625,25.02001953125-23.9000244140625,30.949951171875-2.72003173828125,6.4400634765625-11.72998046875,16.760009765625-11.30999755859375,25.510009765625.03997802734375,3.66015625,4.02996826171875,6.530029296875,7.69000244140625,6.949951171875,1.30999755859375.10009765625,2.29998779296875-.3798828125,3.3800048828125-1.059814453125,3.9599609375-2.489990234375,6.67999267578125-8.800048828125,8.3699951171875-13.64013671875,2.3800048828125-3.619873046875,5.989990234375-9.64990234375,6.1199951171875-11.2899169921875.0999755859375-.7100830078125.3800048828125-1.3900146484375.67999267578125-2.1400146484375,4.6199951171875-10.8900146484375,19.989990234375-27.4599609375,9.0999755859375-35.18994140625ZM248.865412787361493,318.710155284952634c-.07000732421875.010009765625-.3499755859375.0899658203125-.3499755859375.1600341796875.08001708984375.0400390625.27001953125-.1099853515625.3499755859375-.1600341796875ZM288.955439642830243,342.060130870890134c-.010009765625-1.679931640625-.95001220703125-3.489990234375-2.3699951171875-4.8099365234375-2.46002197265625-2.5999755859375-4.52001953125-4.7301025390625-6.44000244140625-6.6099853515625-17.530029296875-16.6500244140625-13.67999267578125-8.6900634765625,6.260009765625-30.199951171875l.1300048828125-.14013671875c6.05999755859375-5.75-.97003173828125-14.5499267578125-7.9000244140625-13.2899169921875-6.08001708984375,2.9000244140625-10,8.7598876953125-14.58001708984375,13.5499267578125-4.79998779296875,4.8900146484375-11.07000732421875,9.3701171875-14.17999267578125,15.6201171875-2.3499755859375,4.510009765625-.1199951171875,8.679931640625,4.280029296875,10.93994140625.510009765625.320068359375.989990234375.72998046875,1.3399658203125,1.219970703125,5.75,7.719970703125,13.46002197265625,12.929931640625,19.5,20.199951171875,1.0400390625,1.239990234375,2.6199951171875,2.25,4.17999267578125,2.4599609375,4.82000732421875.77001953125,9.98004150390625-4.10986328125,9.780029296875-8.93994140625Z"
      />
    </g>
  </g>
</svg>
