<svg viewBox="0 0 447.684450739479871 456.247080070626907">
  <defs>
    <style>
      .cls-1 {
        fill: var(--black);
      }

      .cls-2 {
        fill: var(--yellow);
      }
    </style>
  </defs>
  <g>
    <g>
      <path
        class="cls-1"
        d="M444.478123762950418.947153312814407c-8.3800048828125-3.85009765625-16.469970703125,5.099853515625-24.1099853515625,7.8798828125-12.6500244140625,4.860107421875-24.2200927734375,11.130126953125-36.3199462890625,17.25-11.2000732421875,4.330078125-21.7200927734375,9.6800537109375-32.420166015625,15.06005859375-8.31982421875,4.1099853515625-29.429931640625,9.800048828125-17.419921875,21.89990234375,7.090087890625,5.3701171875,15.080078125,8.400146484375,21.489990234375,14.550048828125,7.60009765625,1.699951171875.6600341796875,5.4000244140625-.9599609375,9.530029296875-6.4100341796875,9.760009765625-11.610107421875,19.9599609375-19.0400390625,28.929931640625-1.56005859375,4-4.3299560546875,8.580078125-6.5400390625,11.6201171875,0-1.6201171875,4.489990234375-9.6800537109375-1.77001953125-13.3701171875.610107421875-7.6298828125-.219970703125-15.0699462890625.6900634765625-22.599853515625-1.9599609375-19.7000732421875,2.1500244140625-39.6700439453125-2.5198974609375-58.860107421875-8.5-12.8699951171875-24.7301025390625-8.800048828125-37.81005859375-8.530029296875-19.510009765625-3.739990234375-24.8800048828125,15.830078125-22.2099609375,31.4700927734375-.7900390625,14.8199462890625-.090087890625,31.7999267578125-.340087890625,45.5999755859375-12.1099853515625,12.510009765625-18.0999755859375,3.6099853515625-32.3699951171875,1.030029296875-2.6500244140625-10.8701171875-4.72998046875-22.199951171875-8.4300537109375-32.9300537109375-3.599853515625-13.1700439453125-36.6298828125-2.6500244140625-47.969970703125-6.449951171875-18.010009765625-1.4801025390625-15.22998046875,27.1500244140625-20.75,39.1300048828125-32.659912109375,6.93994140625-15.5599365234375,12.929931640625-48.5599365234375-14.699951171875-11.6700439453125-6.400146484375-21.5699462890625,11.58984375-32.2000732421875,15.349853515625-8,6.9200439453125-23.1298828125,12.510009765625-15.2900390625,25.010009765625,2.7100830078125,11.6500244140625,16.06005859375,24.260009765625,4.9700927734375,34.4400634765625-5.2999267578125,2.7799072265625-5.6099853515625,13.5-12.4100341796875,10.6500244140625-8.64990234375.2099609375-17.030029296875-1.6900634765625-25.47998046875-.610107421875-15.570068359375-5.260009765625-14.3599853515625,16.75-19.8399658203125,26.110107421875-9.7100830078125,32.3099365234375-11.1199951171875,25.159912109375,16.8399658203125,44.2099609375,13.699951171875,3.22998046875,6.070068359375,17.77001953125,8.590087890625,28.31005859375-3.530029296875,2.679931640625-7.6201171875,3.489990234375-10.9801025390625,6.6298828125-6.5699462890625,3.27001953125-11.3900146484375,8.070068359375-17.7698974609375,11.6201171875-7.1800537109375,4.3399658203125-1.27001953125,11.949951171875-1.10009765625,18.1298828125,5.9200439453125,11.97998046875,6.2900390625,27.35009765625,14.530029296875,37.77001953125,7.25,4.380126953125,16.2900390625-.5400390625,24.449951171875,1.010009765625,10.9000244140625-3.3599853515625,17.760009765625.010009765625,22.380126953125,10.239990234375,10.679931640625,10.47998046875-2.090087890625,23.1800537109375-5.4901123046875,34.880126953125-7.22998046875,14.099853515625,11.6500244140625,19.2899169921875,19.9801025390625,26.68994140625,32.0399169921875,27.5899658203125,23.43994140625,10.52001953125,54.2698974609375-7.6700439453125,23.25,6.3699951171875,21.6099853515625,4.0799560546875,27.3699951171875,27.1300048828125,4.280029296875,19.68994140625,4.080078125,18.6600341796875,24.60009765625,18.8900146484375,7.5399169921875-.6199951171875,14.719970703125.6700439453125,22.22998046875-.7100830078125,9.369873046875,1.090087890625,16.889892578125.340087890625,18.489990234375-10.39990234375,6.0999755859375-26.8800048828125,1.619873046875-27.3699951171875,29.169921875-35.219970703125,7.449951171875,6.469970703125,14.9300537109375,13.1099853515625,23.260009765625,18.530029296875,6.5400390625,8.2799072265625,13.949951171875,4.10986328125,20.3701171875-2.0400390625,7.0399169921875-6.2900390625,36.719970703125-20.6500244140625,31.419921875-30.489990234375-1.97998046875-7.8900146484375-5.449951171875-14.8701171875-8.1400146484375-22.580078125-4.010009765625-6.969970703125-3.2899169921875-10.429931640625,2.1400146484375-16.1298828125,4.489990234375-12.1800537109375,13.169921875-13.090087890625,24.68994140625-10.170166015625,6.02001953125.16015625,11.64013671875-.449951171875,17.4400634765625.6201171875,13.5699462890625-3.4200439453125,12.5699462890625-28.840087890625,19.0198974609375-39.699951171875,5.4801025390625-11.260009765625,2.360107421875-17.9600830078125-8.83984375-23.25-6.7900390625-4.4300537109375-13.2200927734375-8.780029296875-19.830078125-13.3701171875,2.43994140625-9.669921875-5.909912109375-24.199951171875,6.800048828125-27.449951171875,7.2099609375-8.469970703125,26.949951171875-10.199951171875,25.239990234375-23.6099853515625-5.840087890625-13.6300048828125-9.820068359375-28.02001953125-13.8900146484375-42.260009765625-4.6700439453125-10.4000244140625-18.0699462890625-3.8399658203125-25.7301025390625-4.780029296875,1.2100830078125-4.5799560546875,7.7301025390625-9.1900634765625,9.10009765625-14.9000244140625,4.3900146484375-7.929931640625,10.47998046875-14.010009765625,14.3800048828125-22.050048828125,8.0899658203125-10.619873046875,13.9200439453125-23.239990234375,21.3399658203125-33.5098876953125,9.739990234375,3.3900146484375,40.75,38.989990234375,46.1400146484375,17.1300048828125,1.5899658203125-25.260009765625,3.9300537109375-50.260009765625,5.1900634765625-75.77001953125-.130126953125-11.06005859375,7.199951171875-36.1600341796875-.050048828125-43.18994140625ZM326.178074934825418,208.587045890939407c3.6600341796875-6.6298828125,7.4100341796875-12.8798828125,11.5-19.18994140625,2.7900390625,1.0699462890625,6.969970703125-1.6300048828125,8.449951171875.050048828125-.2799072265625,3.489990234375-7.1298828125,5.22998046875-9.219970703125,8.72998046875-1.9599609375,2.889892578125-12.669921875,14.68994140625-10.72998046875,10.409912109375ZM280.678074934825418,114.437143547189407c2.219970703125-23.9600830078125-1.159912109375-48.31005859375.9000244140625-72.320068359375,1.9500732421875-4.8800048828125,22.1900634765625-1.760009765625,27.9100341796875-2.27001953125,4.27001953125,1.4300537109375,2.030029296875,8.0400390625,1.949951171875,11.56005859375.10009765625,9.39990234375,1.219970703125,18.510009765625.1201171875,27.89990234375.0399169921875,20.56005859375.0599365234375,40.64013671875-.2401123046875,60.580078125-.1800537109375,11.219970703125-.199951171875,14.6300048828125.9801025390625,13.64990234375-10.4500732421875,16.090087890625-21.489990234375,33.7100830078125-31.260009765625,48.4700927734375-2.7900390625,6.0499267578125-3.4200439453125,3.510009765625-.320068359375-.0799560546875,1.080078125-28.9400634765625.56005859375-58.22998046875-.0400390625-87.489990234375ZM316.638035872325418,283.457163078439407c-4.2899169921875,2.739990234375-7.0299072265625,6.239990234375-10.0499267578125,10.0399169921875,1.010009765625-4.8299560546875.5699462890625-10.5699462890625,4.8699951171875-13.8699951171875,10.4000244140625-8.280029296875,18.47998046875-18.840087890625,28.5400390625-27.449951171875,1.3499755859375,14.27001953125-16.18994140625,20.47998046875-23.360107421875,31.280029296875ZM325.778172591075418,289.127084953439407c-9.31005859375,11.030029296875-20.7100830078125,20.27001953125-30.400146484375,30.9599609375,1.840087890625-2.52001953125,3.4500732421875-5.139892578125,4.670166015625-8.030029296875,2.760009765625-10.449951171875,12.260009765625-16.8798828125,19.639892578125-24.199951171875,7.1400146484375-6.52001953125,13.02001953125-13.6099853515625,20.1300048828125-20.169921875,2.7100830078125,10.4599609375-7.9200439453125,14.8099365234375-14.0399169921875,21.43994140625ZM277.718113997325418,283.617075187814407c3.3900146484375-6.679931640625,7.580078125-12.179931640625,11.969970703125-18.2099609375,2.3900146484375-4.8701171875,4.9100341796875-11.360107421875,4.18994140625-1.989990234375,4.610107421875,83.199951171875-105.60986328125,131.8099365234375-165.409912109375,75.659912109375,14.570068359375-16.43994140625,26.820068359375-35.780029296875,41.8800048828125-52.47998046875,6.0999755859375-13.0400390625,6.5899658203125-5.3499755859375,18.489990234375-4.199951171875,11.2999267578125,4.31005859375,23.2100830078125,7,35.0699462890625,10.0400390625,20.7100830078125,5.199951171875,41.9400634765625,17.0799560546875,53.81005859375-8.820068359375ZM84.768162825450418,369.567026359689407c.25-13.409912109375,14.97998046875-19.739990234375,22.389892578125-29.5799560546875,5.010009765625,4.3199462890625,2.530029296875,6.989990234375-1.97998046875,10.8099365234375-3.5699462890625,2.989990234375-5.719970703125,6.35009765625-9.5699462890625,8.9801025390625-2.0899658203125,2.3599853515625-16.5400390625,16.7999267578125-10.8399658203125,9.7899169921875ZM83.898045637950418,347.647104484689407c5.60009765625-5.590087890625,11.1800537109375-10.6500244140625,16.130126953125-16.5400390625,7.010009765625,5.989990234375.159912109375,8.06005859375-4.60009765625,12.489990234375-4.02001953125,4.330078125-7.5899658203125,8.6500244140625-11.719970703125,12.77001953125-3.050048828125-3.97998046875-5.320068359375-5.77001953125.18994140625-8.719970703125ZM104.088109114512918,304.786997062814407c-1.3599853515625-23.89990234375.2899169921875-49.369873046875-.1900634765625-72.699951171875,6.9400634765625-.5699462890625,16.66015625.070068359375,23.5400390625.080078125.800048828125,13.0599365234375.4000244140625,27.929931640625-.1099853515625,41.6298828125-6.5499267578125,10.5400390625-17.0499267578125,22.02001953125-23.239990234375,30.989990234375ZM110.388035872325418,215.867075187814407c-9.2099609375,2.8900146484375,1.050048828125-8.010009765625,3.280029296875-11.239990234375,13.72998046875-21.5999755859375,38.22998046875-35.02001953125,63.110107421875-39.699951171875.929931640625,23.7999267578125.780029296875,49.02001953125.2899169921875,72.169921875-25.1099853515625-11.199951171875-35.5899658203125,27.949951171875-32.9200439453125,12.02001953125.800048828125-33.6199951171875.010009765625-34.3399658203125-33.760009765625-33.25ZM173.288182356700418,146.077036125314407c3.27001953125-6.010009765625,6.989990234375-4.909912109375,3.47998046875,2.4400634765625-4.830078125.7099609375-9.4400634765625,2.8299560546875-3.47998046875-2.4400634765625ZM224.208104231700418,151.147104484689407c-1.3599853515625,11.3199462890625-.14990234375,23.169921875-.1199951171875,34.8699951171875-1.010009765625,13.739990234375-.6099853515625,27.2698974609375-.2899169921875,41.0599365234375-.52001953125,6.260009765625-.610107421875,11.989990234375-.080078125,18.260009765625-.8599853515625,2.1201171875-.919921875,3.56005859375-.340087890625,4.5-9.93994140625-2.25-19.889892578125-5.719970703125-29.919921875-8.3699951171875-1.1099853515625-23.4000244140625.3900146484375-48.9599609375-.6099853515625-73.5,3.760009765625-24.7099609375-10.3800048828125-26.3199462890625,14.8699951171875-23.6700439453125,5.3499755859375.090087890625,11.3699951171875-1.2999267578125,16.22998046875-.659912109375,1.1600341796875,1.9599609375-.7099609375,4.919921875.260009765625,7.510009765625ZM239.928074934825418,187.617075187814407c.380126953125-4.68994140625.080078125-8.659912109375-.2099609375-13.3499755859375,7.27001953125,5.2099609375,20.489990234375,11.4599609375,25.2099609375,18.6300048828125,1.080078125,10.56005859375-.619873046875,22.25.449951171875,33.1199951171875-5.849853515625,10.2099609375-11.919921875,20.9100341796875-18.829833984375,30.0799560546875-3.820068359375.469970703125-8.6900634765625-1.5-6.4600830078125-6.260009765625-1.4200439453125-20.679931640625.260009765625-41.429931640625-.1600341796875-62.219970703125ZM257.568089583262918,166.277109367501907c-3.8099365234375-1.5999755859375-6.8599853515625-3.7301025390625-2.199951171875-6.7401123046875,2.2999267578125-.669921875,10.75-11.89990234375,9.3900146484375-7.64990234375,2.659912109375,7.1199951171875-2.9599609375,9.739990234375-7.1900634765625,14.3900146484375ZM264.768162825450418,171.527109367501907c-2.739990234375-1.3199462890625-2.880126953125-4.5400390625.409912109375-5.02001953125,2.550048828125-.3199462890625.1400146484375,2.489990234375-.409912109375,5.02001953125ZM264.788182356700418,142.267099601876907c-5.330078125,6.3699951171875-11.6800537109375,12.3800048828125-17.239990234375,18.4300537109375-3.050048828125-1.91015625-8.280029296875-3.16015625-2.66015625-5.900146484375,5.85009765625-5.7698974609375,11.0400390625-11.5499267578125,17.080078125-17.260009765625,4.760009765625-8.5499267578125,3.72998046875.41015625,2.820068359375,4.7301025390625ZM264.768162825450418,122.027109367501907c3.5599365234375,6.3800048828125-17.4500732421875,21.0399169921875-21.880126953125,26.6199951171875-4.849853515625,8.739990234375-3.409912109375-.260009765625-2.829833984375-4.610107421875,6.7799072265625-8.869873046875,15.219970703125-16.8099365234375,24.7099609375-22.0098876953125ZM251.028172591075418,124.797006828439407c-3.39013671875,4.64013671875-8.340087890625,7.0400390625-11.590087890625,11.85009765625.070068359375-1.1800537109375-2.050048828125-5.0400390625-2.75-5.1500244140625-.0699462890625.0699462890625-.1298828125.1300048828125-.199951171875.2000732421875.030029296875-.150146484375.0999755859375-.2100830078125.199951171875-.2000732421875,4.4100341796875-4.469970703125,7.6800537109375-12.27001953125,14.340087890625-6.7000732421875ZM237.138035872325418,120.286997062814407c4.2000732421875-.0699462890625-4.349853515625,6.030029296875-5.83984375,8.260009765625-3.4400634765625-.58984375-12.25,1.2100830078125-5.27001953125-3.669921875,4.43994140625-2.530029296875,5.93994140625-8.739990234375,11.10986328125-4.590087890625ZM223.428074934825418,119.597055656564407c-3.8798828125,5.0400390625-9.4599609375,11.6500244140625-15.8499755859375,8.360107421875,1.2999267578125-4.1201171875,8.7000732421875-6.760009765625,11.0499267578125-11.4600830078125,2.7200927734375-4.6900634765625,12.300048828125,1.030029296875,4.800048828125,3.0999755859375ZM217.368138411387918,106.397104484689407c2.22998046875,6.639892578125-11.1900634765625,12.89990234375-14.6300048828125,19.169921875-1.949951171875,2.570068359375-3.97998046875,2.9600830078125-7.02001953125,2.27001953125-2,0-3.409912109375,1.989990234375-4.31005859375.199951171875,5.22998046875-5.159912109375,12.610107421875-12.3798828125,18.31005859375-18.669921875,3.409912109375-1.4599609375,8.6500244140625-11.8499755859375,7.6500244140625-2.969970703125ZM191.428074934825418,119.597055656564407c-10.179931640625,11.22998046875-20.5699462890625,22.1800537109375-31.909912109375,32.090087890625-15.9300537109375,9.18994140625-15.31005859375,5.760009765625-2.340087890625-5,18.75-18.0400390625,38.47998046875-39.31005859375,56.1500244140625-56.35009765625,9.0799560546875,6.6300048828125-17.6700439453125,22.9300537109375-21.9000244140625,29.260009765625ZM175.958104231700418,87.997080070626907c.429931640625-5.0699462890625,1.8900146484375-13.4400634765625,8.489990234375-8.8699951171875,1.52001953125,1.739990234375-4.679931640625,3.93994140625-5.75,5.989990234375-.969970703125,1.02001953125-2.93994140625,3.800048828125-2.739990234375,2.8800048828125ZM184.008153059825418,88.177133781564407c2.72998046875-3.300048828125,5.5999755859375-6.030029296875,8.2900390625-9.25,2.669921875.8399658203125,7.0599365234375-1.510009765625,8.5.14990234375-10.35009765625,9.7099609375-21.66015625,22.320068359375-32.9400634765625,32.4500732421875,4.0999755859375-9.1400146484375,7.3499755859375-17.4700927734375,16.1500244140625-23.3499755859375ZM182.468113997325418,104.657114250314407c5.550048828125-3.97998046875,9.820068359375-9.030029296875,14.830078125-13.85009765625,3.0399169921875-3.5,8.639892578125-12.5,12.93994140625-11.2999267578125,7.280029296875,3.52001953125-15.239990234375,20.3399658203125-18.489990234375,24.4100341796875-12.030029296875,11.5699462890625-22.9599609375,23.7900390625-35.360107421875,35.0400390625-33.58984375,32.64990234375-66.599853515625,65.7799072265625-98.6298828125,99.5599365234375-4.280029296875,2.3699951171875-5.5,6.75-10.030029296875,8.739990234375-.4000244140625-4.3900146484375-2.739990234375-7.27001953125,2.22998046875-9.7000732421875,23-22.909912109375,45.7099609375-45.7099609375,68.81005859375-68.60986328125,20.909912109375-21.85009765625,42.7999267578125-42.1700439453125,63.699951171875-64.2900390625ZM88.758153059825418,214.687143547189407c-2.10009765625,4.27001953125-4.4100341796875,8.52001953125-4.969970703125,13.2999267578125-12.47998046875,11.4600830078125-23.97998046875,24.030029296875-36.320068359375,35.5799560546875-1.090087890625-15.530029296875,20.5400390625-23.5799560546875,27.989990234375-35.919921875,4.56005859375-4.4300537109375,8.969970703125-8.5,13.300048828125-12.9599609375ZM159.198094466075418,117.857065422189407c1.800048828125-1.169921875,4.080078125-1.75,5.719970703125-3.27001953125-26.679931640625,28.10009765625-55.159912109375,54-81.989990234375,82.090087890625-10.869873046875,8.919921875-18.7900390625,20.419921875-29.5599365234375,29.22998046875-4.6700439453125,3.89990234375-9.7200927734375,14.429931640625-14.75,6.919921875,24.199951171875-23.52001953125,47.1600341796875-48.3099365234375,72.3900146484375-71.6298828125,8.8299560546875-10.610107421875,18.75-19.66015625,29.0400390625-28.9600830078125,6.0299072265625-5.8199462890625,10.0299072265625-14.5299072265625,19.14990234375-14.3800048828125ZM124.658055403575418,122.577036125314407c-13.2999267578125,14.010009765625-27.64990234375,27.1500244140625-41.0699462890625,41.1900634765625,2.9000244140625-5.02001953125.8399658203125-11.4500732421875,6.6900634765625-14.6500244140625,8.869873046875-8.8599853515625,17.5799560546875-17.320068359375,26.3798828125-26.280029296875,3.610107421875-5.199951171875,3.840087890625-3.050048828125,8-.260009765625ZM115.518162825450418,115.677133781564407c-8.7900390625,9.89990234375-21.590087890625,22.8798828125-31.110107421875,31.419921875-8.409912109375-6.239990234375,10.090087890625-16.760009765625,14.080078125-21.760009765625,3.659912109375-2.5,15.419921875-20.27001953125,17.030029296875-9.659912109375ZM83.588109114512918,163.777109367501907c-.2999267578125.5198974609375-.6500244140625,1.0198974609375-1.0699462890625,1.5-.489990234375.5799560546875-1.219970703125.9599609375-1.780029296875,1.489990234375.93994140625-1,1.889892578125-2,2.8499755859375-2.989990234375ZM80.698094466075418,126.377084953439407c6.860107421875-6.6300048828125,17.8699951171875-15.1099853515625,21.530029296875-21.830078125.2099609375.050048828125.6400146484375-.10986328125,1.169921875-.39990234375-.27001953125.72998046875,1.080078125,1.0799560546875,4.0400390625,4.27001953125-4.7900390625,5.699951171875-12.22998046875,12.139892578125-18.27001953125,17.6298828125-3.989990234375,2.080078125-5.72998046875,9.610107421875-9.4599609375,9.9801025390625-4.14990234375-1.8800048828125-2.77001953125-7.7900390625.989990234375-9.6500244140625ZM21.958104231700418,203.867075187814407c1.030029296875-5.429931640625,5.919921875-8.570068359375,10.050048828125-11.68994140625,1.93994140625-2.97998046875,3.25-4.9200439453125,7.0400390625-3.550048828125,1.89990234375.0999755859375,3.929931640625-1.780029296875,3.969970703125.1199951171875-5.02001953125,7.2100830078125-14.39013671875,12.8399658203125-20.050048828125,20.3699951171875-1.5,1.5-1.239990234375,3.530029296875-3.0999755859375,2.510009765625-1.3099365234375-.97998046875,2.8499755859375-4.780029296875,2.0899658203125-7.760009765625ZM19.738133528575418,220.257089836251907c5.5400390625-7.0599365234375,14.239990234375-14.9200439453125,21.300048828125-21.760009765625,5.5699462890625-5.4600830078125,7.3099365234375-10.010009765625,15.369873046875-9.3900146484375,4.610107421875,1.280029296875-15.2899169921875,15.77001953125-18.22998046875,19.949951171875-5.1099853515625,2.550048828125-14.760009765625,22.0400390625-18.43994140625,11.2000732421875ZM32.008153059825418,224.177133781564407c20.429931640625-22.4000244140625,42.510009765625-42.7900390625,63.919921875-64.080078125,7.239990234375-8.18994140625,15.60009765625-14.97998046875,22.85009765625-23.1300048828125,6.760009765625-6.0098876953125,11.099853515625-13.3499755859375,20.929931640625-13.4100341796875-26.0400390625,27.580078125-53,52.360107421875-79.010009765625,79.7100830078125-9.199951171875,8.7899169921875-18.2900390625,17.7899169921875-26.679931640625,26.8199462890625-2.840087890625-.530029296875-7.570068359375-4.5400390625-2.010009765625-5.909912109375ZM17.548192122325418,301.657114250314407c1.83984375-2.9200439453125,5.949951171875-4.840087890625,8.58984375-7.610107421875,14.320068359375-9.47998046875,16.880126953125-11.260009765625,25.0400390625-25.5499267578125,8.090087890625-7.719970703125,15.10009765625-16.239990234375,23.6600341796875-23.510009765625,2.2100830078125-2.239990234375,3.260009765625-4.3800048828125,6.010009765625-5.97998046875-.510009765625,3.02001953125-2.780029296875,6.739990234375-1.6800537109375,9.5899658203125-5.669921875,4.719970703125-9.929931640625,10.360107421875-15.760009765625,14.97998046875-13.60986328125,13.9100341796875-26.68994140625,27.7000732421875-40.699951171875,41.050048828125-2.06005859375,6.219970703125-6.179931640625,1.5999755859375-5.159912109375-2.969970703125ZM22.248143294200418,313.757089836251907c17.780029296875-19.02001953125,37.14990234375-38.030029296875,56.18994140625-55.9700927734375,1.4300537109375,9-6.31005859375,13.5-12.139892578125,18.900146484375-5.06005859375,5.619873046875-10.080078125,10.619873046875-15.650146484375,15.719970703125-4.35986328125,2.3399658203125-33.08984375,40.8499755859375-28.39990234375,21.3499755859375ZM27.598118880137918,330.227060539376907c-5.8199462890625-5.8499755859375,6.219970703125-11.0299072265625,9.3399658203125-15.7799072265625,7.739990234375-8.2301025390625,16.239990234375-15.1700439453125,23.590087890625-23.739990234375,6.219970703125-5.820068359375,11.8199462890625-11.7401123046875,18.14990234375-17.420166015625.570068359375,6.780029296875-.139892578125,8.52001953125-5.52001953125,13.27001953125-9.989990234375,9.1700439453125-19.3798828125,18.630126953125-28.679931640625,28.47998046875-5.6600341796875,4.300048828125-10.5400390625,13.900146484375-16.8800048828125,15.1900634765625ZM38.058201887950418,329.757089836251907c11.239990234375-12.9000244140625,26.829833984375-26.0400390625,38.93994140625-39.52001953125,3.699951171875-6.1099853515625,4.219970703125-.6099853515625,5.429931640625,3.4300537109375-4.280029296875,3.8399658203125-8.449951171875,7.77001953125-12.760009765625,11.89990234375-8.0599365234375,6.130126953125-21.8299560546875,28.110107421875-31.60986328125,24.1900634765625ZM63.368138411387918,327.536997062814407c-1.2301025390625,4.630126953125-4.3099365234375.820068359375-7.5699462890625,1.02001953125,2.43994140625-5.5499267578125,17.949951171875-18.199951171875,25.33984375-25.5699462890625,2.7100830078125-6.6600341796875,3.510009765625-1.0599365234375,5.150146484375,2.6800537109375-1.9200439453125,2.5899658203125-4.400146484375,3.64990234375-6.31005859375,6.47998046875-5.9599609375,4.8199462890625-10.719970703125,10.39990234375-16.6099853515625,15.389892578125ZM69.728123762950418,336.297006828439407c-5.47998046875-4.0599365234375-.219970703125-5.429931640625,2.7099609375-9.3798828125,4.1700439453125-4.1700439453125,7.6300048828125-8.35009765625,12.219970703125-12.030029296875,4.6800537109375-4.9200439453125,2.72998046875-2.580078125,5.469970703125,2.0899658203125-2.699951171875,3.75-18.929931640625,21.4100341796875-20.39990234375,19.3199462890625ZM86.878026106700418,328.507089836251907c2.840087890625-2.5999755859375,6.510009765625-10.1300048828125,8.7900390625-3.7000732421875,1.110107421875,1.5,2.380126953125,2.260009765625-.14990234375,2.880126953125-4.739990234375,2.75-17.8701171875,24.969970703125-20.85009765625,15.9599609375-2.52001953125-3.510009765625,9.4300537109375-11.260009765625,12.2099609375-15.1400146484375ZM74.698094466075418,395.677133781564407c3.550048828125-16.60009765625,20.110107421875-25.5400390625,31.02001953125-37.27001953125,9.030029296875-15.949951171875,18.2900390625-6.2900390625,10.239990234375-2.97998046875-13.469970703125,12.60986328125-28.5400390625,30.3199462890625-41.260009765625,40.25ZM80.178074934825418,399.637094719064407c3.630126953125-5.1300048828125,11.1700439453125-10.010009765625,15.830078125-15.4599609375,6.8099365234375-7.570068359375,13.429931640625-15.090087890625,21.119873046875-21.760009765625,4.280029296875-3.25,5.650146484375-9.9599609375,10.43017578125-3.6700439453125,2.0499267578125,1.22998046875-1.8701171875,3.0799560546875-2.85009765625,4.52001953125-12.8599853515625,12.0699462890625-24.909912109375,24.5499267578125-37.510009765625,36.8499755859375-1.3299560546875,3.72998046875-6.469970703125,3.2900390625-7.02001953125-.47998046875ZM91.438084700450418,407.557016594064407c-7.989990234375-.239990234375,20.260009765625-21.599853515625,22.030029296875-25.89990234375,8.719970703125-3.739990234375,15.3499755859375-24.4599609375,25.06005859375-16.4300537109375-11.300048828125,10.510009765625-22.110107421875,21.9500732421875-33.39013671875,32.8599853515625-3.219970703125,2.080078125-11.3199462890625,15.4300537109375-13.699951171875,9.469970703125ZM122.138035872325418,397.587045890939407c-3.969970703125,2.81005859375-35.619873046875,29.260009765625-18.1298828125,10.590087890625,11.469970703125-13.590087890625,25.0799560546875-24.760009765625,36.8399658203125-37.7900390625,1.8399658203125-4.9599609375,12.9600830078125.4599609375,5.5,2.64990234375-8.0799560546875,8.3701171875-16.4500732421875,15.900146484375-24.2100830078125,24.550048828125ZM138.528172591075418,394.577036125314407c-10.02001953125-.0599365234375,4.169921875-8.5799560546875,7.0799560546875-12.7999267578125,2.9200439453125-3.510009765625,5.9599609375-6.1300048828125,9.3699951171875-9.0699462890625,1.489990234375.7899169921875,7.830078125.829833984375,4.47998046875,2.919921875-3.580078125,3.8599853515625-17.320068359375,21.070068359375-20.929931640625,18.949951171875ZM146.258153059825418,397.867075187814407c6.3199462890625-7.6199951171875,14.030029296875-14.449951171875,20.719970703125-21.929931640625,9.3599853515625,1.419921875,5.5899658203125,4.2899169921875-.3699951171875,8.659912109375-6.77001953125,4.7099609375-10.760009765625,18.739990234375-20.3499755859375,13.27001953125ZM163.528172591075418,403.527109367501907c-10.300048828125-2.8800048828125,1.75-7.56005859375,4.89990234375-13.050048828125,6.9300537109375-5.0799560546875,10.2900390625-13.72998046875,20.130126953125-10.949951171875-8.2900390625,8.0399169921875-16.510009765625,16.18994140625-25.030029296875,24ZM176.608128645762918,398.786997062814407c6.3299560546875-6.7899169921875,12.9500732421875-12.719970703125,19.75-19.0198974609375,17.0999755859375-4.280029296875-3.1300048828125,9.5499267578125-7.9700927734375,15.1900634765625-5.83984375,4.5299072265625-14.469970703125,16.3199462890625-18.139892578125,17.699951171875-4.739990234375-6.1300048828125,2.06005859375-9.31005859375,6.3599853515625-13.8701171875ZM172.148045637950418,419.917124015939407c8.830078125-10.010009765625,19.010009765625-20.25,29.2100830078125-29.27001953125,6.47998046875-7.31005859375,11.8499755859375-14.739990234375,22.3299560546875-15.070068359375-10.929931640625,11.300048828125-23.699951171875,23.4300537109375-35.0799560546875,35.280029296875-5.260009765625,2.530029296875-20.0499267578125,26.5-16.4600830078125,9.06005859375ZM175.468113997325418,432.557016594064407c3.43994140625-6.89990234375,11.530029296875-10.4599609375,16.5400390625-16.3798828125,9.119873046875-10.27001953125,18.6099853515625-20.1600341796875,28.89990234375-29.090087890625,8.030029296875-10.8499755859375,17.9100341796875-17.010009765625,29.840087890625-22.5999755859375-23.590087890625,23.7900390625-47.4000244140625,47.4600830078125-70.8701171875,71.4300537109375-2.47998046875,6.0599365234375-6.199951171875,1.159912109375-4.409912109375-3.360107421875ZM210.188084700450418,436.857065422189407c-1.0899658203125,5.090087890625-17.7900390625,4.8800048828125-7.280029296875-.6400146484375,7.840087890625-7.5499267578125,15.02001953125-18.3199462890625,7.280029296875.6400146484375ZM209.988133528575418,421.187143547189407c-4.6300048828125,5.93994140625-10.050048828125,10.239990234375-15.489990234375,15.3099365234375-1.81005859375,3.0599365234375-3.530029296875,3.4100341796875-6.860107421875,3.0499267578125-1.989990234375.4700927734375-2.64990234375,1.9400634765625-3.5499267578125.150146484375,31.280029296875-32.3701171875,65.8900146484375-65.60009765625,98.5799560546875-98.1900634765625,17.22998046875-18.3699951171875,35.39013671875-36.8299560546875,53.760009765625-53.6900634765625,3.56005859375-5.3099365234375,5.4300537109375-9.3299560546875,10.3701171875-2.919921875-1.610107421875,3.030029296875-4.650146484375,3.97998046875-7.050048828125,6.489990234375-34.4300537109375,36.3800048828125-71.489990234375,70.5899658203125-105.9100341796875,106.8900146484375-22.9100341796875,11.5799560546875-8.4200439453125,9.719970703125-23.8499755859375,22.9100341796875ZM274.138035872325418,405.807016594064407c-4.72998046875.070068359375-6.6298828125-5.3399658203125-1.4599609375-6.97998046875,10.050048828125-9.8399658203125,19.77001953125-19.669921875,30.010009765625-29.3199462890625,3.570068359375,6.0499267578125-.679931640625,8.8199462890625-5.260009765625,12.8800048828125-5.449951171875,5.64990234375-10.699951171875,11.06005859375-16.68994140625,16.0799560546875-3.25,1.7100830078125-3.8900146484375,6.3800048828125-6.60009765625,7.3399658203125ZM278.908055403575418,408.807016594064407c8.4600830078125-8.27001953125,19-20.72998046875,27.800048828125-27.7799072265625,8.330078125,5.7899169921875-9.1400146484375,15.989990234375-12.989990234375,20.6400146484375-4.3699951171875,3.030029296875-11.1500244140625,17.1099853515625-14.81005859375,7.139892578125ZM312.338109114512918,395.917124015939407c-5.5699462890625,4.72998046875-12.3900146484375,10.02001953125-18.5699462890625,14.0799560546875-.52001953125-2.280029296875,6.52001953125-5.6099853515625,8.2099609375-8.2899169921875,1.989990234375-2.150146484375,12.429931640625-14.52001953125,10.3599853515625-5.7900390625ZM287.428074934825418,375.597055656564407c-7.280029296875,7.719970703125-13.969970703125,15.9200439453125-22.0899658203125,22.72998046875-2.9000244140625-2.669921875-7.760009765625-3.3199462890625-1.52001953125-6.1298828125,16.9300537109375-18.2900390625,35.2100830078125-34.9600830078125,52.75-52.77001953125-10.8399658203125,11.8499755859375-15.7899169921875,26.989990234375-29.1400146484375,36.169921875ZM359.848118880137918,330.927133781564407c-3.3399658203125,3.0699462890625-4.5999755859375-1.4400634765625-.5399169921875-2.530029296875,1.33984375-1.340087890625.7999267578125-3.260009765625,2.669921875-2.9000244140625,2.8399658203125.5499267578125-.070068359375,3.3599853515625-2.1300048828125,5.4300537109375ZM366.028172591075418,311.757089836251907c-3.080078125,7.469970703125-11.820068359375,12.8900146484375-16.860107421875,19.3199462890625-4.3199462890625-.3399658203125-12.2900390625.4200439453125-4.5799560546875-4.5499267578125,7.0999755859375-3.3699951171875,35.4500732421875-41.9700927734375,21.4400634765625-14.77001953125ZM365.758153059825418,297.587045890939407c-8.380126953125,9.239990234375-19.1600341796875,20.239990234375-29.1700439453125,29.030029296875-2.77001953125,4.9599609375-8.1099853515625,2.52001953125-12.52001953125,4.4000244140625,4.8099365234375-3.9500732421875,8.7100830078125-8.239990234375,13.3699951171875-12.4801025390625,4.8701171875-2.489990234375,26.4000244140625-33.35986328125,28.320068359375-20.949951171875ZM351.428074934825418,295.597055656564407c-20.659912109375,22.199951171875-42.050048828125,43.110107421875-64.0599365234375,63.93994140625-6.5999755859375,8.300048828125-14.9400634765625,14.780029296875-22.2401123046875,22.550048828125-6.219970703125,8.10009765625-13.58984375,12.4100341796875-23.08984375,15.550048828125,30.260009765625-31.090087890625,61.260009765625-60.570068359375,91.419921875-91.93994140625,6.6500244140625-5.510009765625,12.1199951171875-11.6800537109375,17.8599853515625-17.9700927734375,5.8800048828125,1.5699462890625,6.760009765625,5.5599365234375.1099853515625,7.8699951171875ZM368.438084700450418,214.797006828439407c-6.739990234375,7-12.9599609375,15.5400390625-21.550048828125,20.2000732421875-11.5599365234375,13.6199951171875-23.7698974609375,26.489990234375-37.3199462890625,38.3599853515625-.6900634765625-9.3499755859375,6.8299560546875-14.18994140625,13.1199951171875-19.8299560546875,5.4599609375-6.27001953125,11.3900146484375-11.510009765625,17.300048828125-17.3499755859375,6.31005859375-7.27001953125,12.739990234375-13.60009765625,19.8699951171875-20.1500244140625,3.8800048828125-4.4000244140625,9.9500732421875-13.6099853515625,8.5799560546875-1.2301025390625ZM362.768162825450418,196.997080070626907c.18994140625.0399169921875.3798828125.0499267578125.5499267578125.02001953125,6.3800048828125,7.0999755859375-7.5,13.0499267578125-11.8599853515625,18.6099853515625-11.469970703125,14.030029296875-26.159912109375,25.02001953125-38.14990234375,38.6199951171875-3.93017578125,7.510009765625-4.8701171875-3.8099365234375-1.400146484375-6.1700439453125,10.080078125-9.419921875,18.6600341796875-20.0799560546875,28.969970703125-29.02001953125,6.4500732421875-8.010009765625,15.590087890625-14.3399658203125,21.4901123046875-22.239990234375.1199951171875.070068359375.2598876953125.130126953125.4000244140625.1800537109375ZM360.478123762950418,188.267099601876907c.6300048828125.7899169921875.679931640625,1.8099365234375.580078125,2.8900146484375-2.9400634765625.18994140625-9.320068359375,10.2099609375-12.650146484375,11.8099365234375-12.679931640625,13.780029296875-27,26.6500244140625-39.849853515625,40.31005859375-4.18017578125-7.9600830078125,3.5299072265625-10.25,7.599853515625-15.8699951171875,6.4500732421875-7.4599609375,13.780029296875-13.300048828125,20.489990234375-20.570068359375,8.280029296875-4.64990234375,14.050048828125-20.260009765625,23.830078125-18.5699462890625Z"
      />
      <path
        class="cls-2"
        d="M312.298192122325418,153.536997062814407c-10.4500732421875,16.090087890625-21.489990234375,33.7100830078125-31.260009765625,48.4700927734375-2.7900390625,6.0499267578125-3.4200439453125,3.510009765625-.320068359375-.0799560546875,1.080078125-28.9400634765625.56005859375-58.22998046875-.0400390625-87.489990234375,2.219970703125-23.9600830078125-1.159912109375-48.31005859375.9000244140625-72.320068359375,1.9500732421875-4.8800048828125,22.1900634765625-1.760009765625,27.9100341796875-2.27001953125,4.27001953125,1.4300537109375,2.030029296875,8.0400390625,1.949951171875,11.56005859375.10009765625,9.39990234375,1.219970703125,18.510009765625.1201171875,27.89990234375.0399169921875,20.56005859375.0599365234375,40.64013671875-.2401123046875,60.580078125-.1800537109375,11.219970703125-.199951171875,14.6300048828125.9801025390625,13.64990234375ZM223.948094466075418,143.637094719064407c-4.8599853515625-.6400146484375-10.8800048828125.75-16.22998046875.659912109375-25.25-2.64990234375-11.1099853515625-1.0399169921875-14.8699951171875,23.6700439453125,1,24.5400390625-.5,50.0999755859375.6099853515625,73.5,10.030029296875,2.6500244140625,19.97998046875,6.1199951171875,29.919921875,8.3699951171875-.579833984375-.93994140625-.5198974609375-2.3798828125.340087890625-4.5-.530029296875-6.27001953125-.43994140625-12,.080078125-18.260009765625-.320068359375-13.7900390625-.7200927734375-27.3199462890625.2899169921875-41.0599365234375-.0299072265625-11.7000732421875-1.239990234375-23.550048828125.1199951171875-34.8699951171875-.969970703125-2.590087890625.9000244140625-5.550048828125-.260009765625-7.510009765625ZM127.438084700450418,232.167124015939407c-6.8798828125-.010009765625-16.5999755859375-.6500244140625-23.5400390625-.080078125.47998046875,23.330078125-1.169921875,48.800048828125.1900634765625,72.699951171875,6.1900634765625-8.969970703125,16.6900634765625-20.449951171875,23.239990234375-30.989990234375.510009765625-13.699951171875.9100341796875-28.5699462890625.1099853515625-41.6298828125Z"
      />
    </g>
  </g>
</svg>
