<svg viewBox="0 0 464.936047136372508 400.973172345864441">
  <defs>
    <style>
      .cls-1 {
        fill: var(--black);
      }

      .cls-2 {
        fill: var(--yellow);
      }
    </style>
  </defs>
  <g>
    <g>
      <path
        class="cls-1"
        d="M361.548060017033094,37.161487121729806c5.6400146484375-6.719970703125,18.9200439453125-4.7999267578125,26.75-3.0699462890625,8.1600341796875,4.72998046875,2.45001220703125,14.8699951171875,4.6400146484375,22.2799072265625-1.92999267578125,12.830078125-14.77996826171875,7.14013671875-23.760009765625,8.7401123046875-12.91998291015625-.6900634765625-9.05999755859375-19.3800048828125-7.6300048828125-27.9500732421875ZM107.798060017033094,56.751575012354806c10.72003173828125-.9200439453125,21.06005859375,1.5699462890625,31.77001953125.2099609375,37.72003173828125-.8900146484375,75.79998779296875,1.179931640625,113.239990234375-.669921875,16.46002197265625-20.630126953125-20.54998779296875-14.920166015625-31.449951171875-15.2000732421875-18.1400146484375-.97998046875-36.33001708984375.469970703125-54.47003173828125-.489990234375-19.8599853515625.72998046875-39.28997802734375-.3499755859375-59.03997802734375.8099365234375-6.20001220703125-.719970703125-11.9000244140625.050048828125-18.1700439453125.030029296875-6.50994873046875-.030029296875-17.92999267578125-2.77001953125-16.64996337890625,7.530029296875-.54998779296875,14.570068359375,25.5899658203125,5.699951171875,34.76995849609375,7.780029296875ZM329.178064899845594,65.161487121729806c7.3699951171875-1.239990234375,17.9000244140625,3.22998046875,22.52001953125-4.3299560546875,1.27001953125-8.0699462890625,3.79998779296875-20.6700439453125-3.6500244140625-26.3099365234375-7.55999755859375-2.489990234375-20.66998291015625-4.360107421875-25.90997314453125,2.97998046875-2.75,7.929931640625-5.239990234375,27.119873046875,7.03997802734375,27.659912109375ZM289.178064899845594,64.591540832667306c8.55999755859375-.5799560546875,22.35003662109375,4.4100341796875,23.59002685546875-8.2200927734375-.57000732421875-7.18994140625,2.9000244140625-17.8199462890625-4.6099853515625-22.0499267578125-8.030029296875-1.4000244140625-20.7900390625-3.969970703125-26.86004638671875,2.7000732421875-1.3399658203125,8.099853515625-4.55999755859375,27.469970703125,7.8800048828125,27.5699462890625ZM112.578089313908094,229.191516418604806c-10.78997802734375-.56005859375-9.8800048828125,15.429931640625,0,16.2099609375,10.1300048828125-.64990234375,10.75-16.169921875,0-16.2099609375ZM304.578089313908094,200.731555481104806c-30.1300048828125.0400390625-60.33001708984375,1.18994140625-89.969970703125-.1500244140625-12.030029296875.9500732421875-23.83001708984375-.0999755859375-36.010009765625.219970703125-8.1600341796875,1.0999755859375-19.300048828125-2.6700439453125-25.32000732421875,3.9600830078125-5.95001220703125,18.43994140625,23.92999267578125,11.10986328125,34.27996826171875,12.409912109375,15.1500244140625.6300048828125,29.80999755859375-1.1199951171875,44.989990234375.239990234375,21-1.929931640625,41.9000244140625.6700439453125,63.010009765625-.8399658203125,12.92999267578125,5.9000244140625,25.45001220703125-11,9.02001953125-15.8399658203125ZM108.568079548283094,207.911487121729806c11.92999267578125,5.510009765625,16.71002197265625-13.77001953125,4.010009765625-15.0799560546875-7.8900146484375.2100830078125-11.27001953125,11.489990234375-4.010009765625,15.0799560546875ZM183.058069782658094,177.371448059229806c13.530029296875-.219970703125,27.1300048828125-.7099609375,40.489990234375.070068359375,16.56005859375-1.179931640625,32.85003662109375-.3900146484375,49.5-.919921875,9.6700439453125.099853515625,32.510009765625,3.760009765625,38.6300048828125-3.4500732421875,5.86004638671875-15.1700439453125-16.25-11.9400634765625-25.0899658203125-11.6700439453125-16.46002197265625-1.5999755859375-32.9000244140625.830078125-49.47998046875-.449951171875-16.6400146484375.199951171875-32.94000244140625-.3399658203125-49.5.1099853515625-10.1400146484375,1.010009765625-33.300048828125-5.2799072265625-35.4100341796875,7.9100341796875,2.27001953125,13.5799560546875,21.29998779296875,6.010009765625,30.8599853515625,8.39990234375ZM341.238062458439344,301.631457824854806c-12.8399658203125,8.35009765625-30.3599853515625.739990234375-45.01995849609375,3.2301025390625-44.1700439453125.7099609375-87.52001953125-.2401123046875-131.6400146484375,0-17.04998779296875-.1900634765625-11.1300048828125-24.56005859375-11.6199951171875-35.8900146484375-.29998779296875-15.7099609375,19.3399658203125-11.81005859375,29.80999755859375-11.77001953125,15.22998046875-.9599609375,30.15997314453125-.06005859375,45.40997314453125-.06005859375,34.80999755859375-1.2099609375,69.6199951171875,1.030029296875,104.4000244140625-.429931640625,16.44000244140625-1.919921875,14.59002685546875,36.469970703125,8.65997314453125,44.919921875ZM328.838099079533094,280.961535949854806c-1.1099853515625-2.77001953125.8699951171875-5.77001953125-.4100341796875-7.820068359375-8.28997802734375-.419921875-17.699951171875-.5399169921875-26.54998779296875.320068359375-24.07000732421875-1.4000244140625-47.260009765625.6500244140625-71.1099853515625-.97998046875-14.92999267578125.81005859375-29.47998046875.0400390625-44.42999267578125.3199462890625-5.08001708984375,2.0699462890625-20.21002197265625-4.6099853515625-18.07000732421875,4.1700439453125,1.75,11.1300048828125-4.3900146484375,12.989990234375,9.219970703125,12.219970703125,50.1600341796875-1.239990234375,101.25.800048828125,150.9200439453125-.409912109375,1.94000244140625-2.070068359375-.70001220703125-4.9700927734375.42999267578125-7.820068359375ZM50.018091755314344,219.451526184229806c3.71002197265625,4.1500244140625,4.77996826171875,16.1500244140625,12.04998779296875,10.06005859375,8.41998291015625-1.8701171875,3.29998779296875-7.1700439453125.45001220703125-12.130126953125-25.30999755859375-22.1298828125,28.46002197265625-32,7.96002197265625-47.889892578125-7.83001708984375,2.429931640625-13.4300537109375,14.419921875-19.77001953125,20.5599365234375-8.07000732421875,10.02001953125-9.97998046875-28.68994140625-20.09002685546875-10.8699951171875.52001953125,7.97998046875,6.70001220703125,15.5400390625,10.69000244140625,22.77001953125-5.260009765625,6.949951171875-32.28997802734375,30.780029296875-13.29998779296875,31.02001953125,8.22003173828125-4.77001953125,17.79998779296875-31.760009765625,22.010009765625-13.52001953125ZM456.778101520939344,193.411487121729806c.05999755859375,17.880126953125-.989990234375,35.9200439453125.14996337890625,53.6800537109375-.9599609375,96.0399169921875-68.05999755859375,85.9400634765625-140.05999755859375,85.4100341796875-12.1199951171875-.10009765625-23.94000244140625.1298828125-36.0899658203125.280029296875-7.25-2.800048828125-3.94000244140625,5.260009765625-4.6300048828125,9.419921875-4.28997802734375,49.679931640625,52.1400146484375,32.919921875,43.719970703125,53.68994140625-4.80999755859375,8.1900634765625-20.76995849609375,4.0400390625-29.0899658203125,3.9600830078125-9.0400390625.9000244140625-17.92999267578125.6700439453125-27.04998779296875-.030029296875-24.0400390625,1.4200439453125-48.02001953125-.2999267578125-72.11004638671875.5699462890625-12.13995361328125.510009765625-23.94000244140625-1.219970703125-36.03997802734375-.2999267578125-13.09002685546875-.9000244140625-7.260009765625-18.47998046875,4.45001220703125-16.3599853515625,24.9599609375-2.090087890625,36.55999755859375-29.1300048828125,32.29998779296875-50.9200439453125-8.09002685546875-.8800048828125-17.989990234375.050048828125-26.780029296875-.0799560546875-66.75-2.27001953125-149.43994140625,17.760009765625-153.05999755859375-77.1600341796875,1.050048828125-6.8299560546875-8.02996826171875-7.7000732421875-9.9599609375-14.239990234375-4.46002197265625-14.4100341796875-1.510009765625-30.8099365234375-1.6600341796875-45.8399658203125-5.22998046875-51.080078125,15.030029296875-24.949951171875,11.45001220703125-59.340087890625C11.628077106876844,80.581531067042306,3.198084431095594,13.181506652979806,75.378077106876844,2.021594543604806c57.8699951171875-2.9200439453125,116.58001708984375-.4400634765625,174.82000732421875-.830078125,32.8900146484375.2900390625,65.739990234375-.89990234375,98.53997802734375.18994140625,68.45001220703125-8.5699462890625,116.09002685546875,22.66015625,107.3900146484375,95.7301025390625,13.1199951171875,8.8599853515625,6.79998779296875,25.6400146484375,8.780029296875,38.949951171875-1.8800048828125,12.280029296875,1.38995361328125,24.5799560546875-.70001220703125,36.9100341796875,3.219970703125,9.409912109375-9.4100341796875,13.0799560546875-7.42999267578125,20.43994140625ZM448.588099079533094,128.901477356104806c-4.45001220703125,2.340087890625-8.35003662109375,9.1900634765625-12.70001220703125,13.02001953125-11.77001953125,11.52001953125-24.5,24.1700439453125-35.6099853515625,35.1300048828125,7.83001708984375,3.5999755859375,15.80999755859375-6.3299560546875,20.47998046875-12.5399169921875,9.58001708984375-8.820068359375,18.27001953125-18.9500732421875,28.07000732421875-27.4300537109375.78997802734375-1.8399658203125-.29998779296875-1.9600830078125-.6400146484375-4.0399169921875-.3299560546875-1.9801025390625,2.35003662109375-3.66015625.4000244140625-4.14013671875ZM441.938074665470594,151.151477356104806c-7.989990234375,8.85009765625-17.969970703125,18.0400390625-25.42999267578125,25.840087890625.47998046875,1.93994140625,2.07000732421875-.3800048828125,4.07000732421875-.3800048828125s2.1199951171875,1.0499267578125,3.96002197265625.2598876953125c2.469970703125-1.679931640625,3.32000732421875-4.2099609375,5.82000732421875-6.139892578125,6.16998291015625-5.9300537109375,12.8699951171875-11.22998046875,18.3399658203125-17.7099609375,1.29998779296875-13.570068359375.010009765625-6.7900390625-6.760009765625-1.8701171875ZM442.458094196720594,119.681506652979806c-7.96002197265625,7.050048828125-15.1199951171875,14.6700439453125-22.58001708984375,22.239990234375-8.8399658203125,8.550048828125-17.5,16.4000244140625-25.3900146484375,25.77001953125-2.72998046875,2.06005859375-16.989990234375,12.7099609375-5.90997314453125,9.02001953125,6.3900146484375,1.449951171875,9.52001953125-5.31005859375,13.03997802734375-9.4000244140625,3.6300048828125-2.949951171875,6.9100341796875-5.219970703125,9.510009765625-9.1600341796875,12.35003662109375-12.419921875,25.8800048828125-23.89990234375,37.16998291015625-37.2999267578125,1.6300048828125-11.7301025390625-.43994140625-9.239990234375-5.8399658203125-1.1700439453125ZM436.438074665470594,108.651477356104806c-12.07000732421875,12.5400390625-24.47998046875,25.360107421875-37.3399658203125,37.5400390625-5.4100341796875,5.18994140625-9.84002685546875,10.68994140625-15.4000244140625,15.679931640625-3.27001953125,1.920166015625-4.1400146484375,3.4700927734375-2.78997802734375,7.10009765625,0,2-2.17999267578125,3.14990234375-.239990234375,3.6300048828125,13.51995849609375-12.5,28.02996826171875-27.6600341796875,41.25-41.5400390625,6.97998046875-5.989990234375,13.239990234375-12.0699462890625,19.54998779296875-18.7999267578125,7.3499755859375-4.280029296875-1.25-4.110107421875-5.030029296875-3.610107421875ZM380.478113727970594,125.371448059229806c3.2099609375.630126953125,3.469970703125-5.329833984375,6.52996826171875-6.7799072265625,2.08001708984375-4.1199951171875,7.72998046875-6.739990234375,9.45001220703125-9.5899658203125-.8599853515625-1.8900146484375-5.72003173828125-.219970703125-7.8900146484375-.06005859375-2.66998291015625,2.6500244140625-5.64996337890625,5.25-8.28997802734375,7.9100341796875,1.22998046875,4.010009765625-1.280029296875,8.5799560546875.20001220703125,8.5198974609375ZM380.548060017033094,141.101550598292306c8.1300048828125-7.260009765625,17.1400146484375-17.5,25.3900146484375-25.9801025390625,8.530029296875-5.919921875,9.20001220703125-6.89990234375-1.53997802734375-6.5699462890625-6.05999755859375,7.6300048828125-14.46002197265625,13.7200927734375-20.5,21.7401123046875-3.3900146484375,1.64990234375-4.35003662109375,2.97998046875-3.04998779296875,6.679931640625,0,2-2.239990234375,3.64990234375-.300048828125,4.1300048828125ZM380.108118610783094,152.971545715479806c0,2-1.4000244140625,3.239990234375.53997802734375,3.719970703125,11.32000732421875-10.3900146484375,23.260009765625-24.239990234375,35.39996337890625-34.669921875,3.510009765625-6.380126953125,22.6400146484375-15.739990234375,4.35003662109375-13.4600830078125-7.8800048828125,8.280029296875-15.72998046875,17.1400146484375-24.54998779296875,24.9300537109375-4.71002197265625,3.8299560546875-7.46002197265625,8.64990234375-11.9100341796875,12.68994140625-3.25,1.590087890625-4.67999267578125,2.97998046875-3.8299560546875,6.7900390625ZM46.298060017033094,72.531604309229806c73.45001220703125,1.389892578125,146.10003662109375.0399169921875,219.59002685546875.5198974609375,52.260009765625.3599853515625,104.59002685546875-.8699951171875,156.77001953125.4200439453125,6.14996337890625-.7900390625,11.72998046875-.6600341796875,17.90997314453125-.6099853515625.44000244140625-21.9801025390625-13.25-42.1700439453125-33.25-51.27001953125-18.52001953125-7.780029296875-38.75-3.9100341796875-58.30999755859375-4.1500244140625-27.969970703125-1.5-56.72998046875-.030029296875-85.27001953125-.320068359375-60-.159912109375-119.50994873046875-.4599609375-179.39996337890625.10009765625-24.3599853515625-.72998046875-45.3900146484375,16.22998046875-53.72998046875,38.2900390625-4.9000244140625,19.679931640625-2.27001953125,18.449951171875,15.68994140625,17.02001953125ZM43.668116169376844,236.031604309229806c12.239990234375.889892578125,24.4599609375.199951171875,36.90997314453125.5198974609375,8.40997314453125.3499755859375,1.8900146484375-24.43994140625,4.40997314453125-31.8299560546875-2.989990234375-7.699951171875,4.1300048828125-35.0400390625-4.40997314453125-35.9100341796875-19.92999267578125-1-39.8800048828125-.22998046875-60-.6400146484375-8.530029296875,2.9400634765625-1.71002197265625,15.81005859375-4.3499755859375,22.739990234375.5899658203125,13.9400634765625-.4200439453125,27.590087890625.3699951171875,41.52001953125,4.15997314453125,8.449951171875,19.03997802734375,3.1800537109375,27.07000732421875,3.60009765625ZM426.558069782658094,192.841540832667306c-16.92999267578125-.8199462890625-34.0799560546875,1.6800537109375-50.739990234375-1.6900634765625-19.69000244140625-8.68994140625-7.57000732421875-46.60986328125-11.70001220703125-64.3399658203125-1.97998046875-20.5599365234375,6.4200439453125-37.6500244140625,29.80999755859375-33.7999267578125,14.1400146484375-.080078125,27.83001708984375-.510009765625,41.99005126953125.0699462890625,3.6199951171875,1.6500244140625,7.97998046875-.530029296875,4.7099609375-4.1700439453125-2.5999755859375-.919921875-5.82000732421875,1.1600341796875-9.02996826171875-.3399658203125-16.6600341796875,1-32.760009765625-.4599609375-49.33001708984375.6600341796875-31.239990234375-.280029296875-62.57000732421875-.85009765625-94.1300048828125-.219970703125-62.6400146484375.169921875-125.02996826171875-.330078125-188.1400146484375.280029296875-19.28997802734375-.820068359375-38.66998291015625-.4400634765625-58.219970703125-.52001953125-4.52001953125,1.2099609375-16.4000244140625-3.330078125-13.10003662109375,4.739990234375-1.3599853515625,13.6298828125.030029296875,27.0599365234375-.239990234375,40.7999267578125-.1300048828125,5.8199462890625-1.2099609375,12.6300048828125.1300048828125,17.9000244140625,2.32000732421875,1.0899658203125,5.510009765625-.699951171875,8.489990234375.679931640625,17.21002197265625.9300537109375,35.72003173828125-3.7799072265625,52.02001953125,1.89013671875,20.1300048828125,8.5198974609375,8.20001220703125,45.760009765625,11.70001220703125,63.8099365234375,6.010009765625,41.9000244140625-30.8900146484375,34.1199951171875-59.3900146484375,33.4100341796875-4.32000732421875,1.8499755859375-9.1500244140625-.6201171875-12.96002197265625.52001953125-.65997314453125,13.3798828125,1,30.14990234375,11.010009765625,40.599853515625,15.07000732421875,24.6900634765625,46.3800048828125,24.4700927734375,71.83001708984375,23.280029296875,61.4000244140625.090087890625,122.29998779296875.2900390625,183.71002197265625.090087890625,22.27996826171875-.4000244140625,44.6300048828125.43994140625,67.199951171875-.260009765625,37.11004638671875,6.800048828125,79.09002685546875-14.1600341796875,78.1300048828125-55.719970703125.6600341796875-20.9300537109375.20001220703125-41.969970703125.6500244140625-63.0400390625,2.78997802734375-9.3599853515625-9.1400146484375-2.429931640625-14.4000244140625-4.6300048828125ZM445.638086872501844,164.441516418604806c-3.52996826171875,4.75-11.27996826171875,7.77001953125-13.3800048828125,12.6099853515625,5.260009765625,3.3199462890625,12.77001953125-3.8900146484375,16.3599853515625-8.0599365234375,1.530029296875-4.27001953125.61004638671875-12.9300537109375-2.97998046875-4.550048828125ZM366.668116169376844,233.401477356104806c-68.70001220703125-1.3399658203125-137.1600341796875.110107421875-206.09002685546875-.64990234375-10.41998291015625.3299560546875-10.33001708984375,15.8798828125,0,16.489990234375,6.0999755859375-.6300048828125,11.78997802734375-.31005859375,17.90997314453125.159912109375,17.87005615234375-1.760009765625,35.77001953125.570068359375,53.72003173828125-.8399658203125,46.32000732421875,1.5799560546875,92.6199951171875-.760009765625,138.9000244140625.8199462890625,10.239990234375.0400390625,30.25994873046875-1.2698974609375,17.64996337890625-15.659912109375-7.17999267578125-1.530029296875-14.72998046875-.469970703125-22.0899658203125-.320068359375ZM344.578089313908094,153.071521301417306c10.04998779296875-.3199462890625,9.97998046875-15.969970703125,0-16.27001953125-9.72998046875.81005859375-10.1099853515625,16.050048828125,0,16.27001953125ZM344.578089313908094,189.131457824854806c10.719970703125.91015625,10.71002197265625-16.6298828125,0-15.989990234375-10.71002197265625-.349853515625-9.82000732421875,15.1700439453125,0,15.989990234375ZM89.058069782658094,132.971545715479806c.19000244140625-11.320068359375-5.92999267578125-35.6500244140625,11.52001953125-35.679931640625,19.28997802734375-1.130126953125,38.97998046875.5399169921875,58.3800048828125-.7100830078125,30.1199951171875.9500732421875,59.72998046875-.6300048828125,89.739990234375.739990234375,15.3499755859375,2.1700439453125,36.780029296875-7.260009765625,47.41998291015625,6.8699951171875,2.05999755859375,9.510009765625-.8699951171875,19.2900390625.96002197265625,28.780029296875-1.6400146484375,15.72998046875-19.29998779296875,11.5899658203125-30.47998046875,11.77001953125-13.44000244140625.489990234375-26.8900146484375-.2099609375-40.4000244140625.550048828125-36.1300048828125-.2100830078125-71.82000732421875-.66015625-107.67999267578125-.110107421875-10.79998779296875-.3399658203125-29.4000244140625,3.75-29.46002197265625-12.2099609375ZM280.358118610783094,124.971545715479806c1.719970703125-3.9200439453125-.57000732421875-5.550048828125-2.52001953125-1.4000244140625-1.1400146484375,2.030029296875-5.52001953125,3.1199951171875-4.82000732421875,5.1800537109375.9000244140625,1.7900390625,1.5.199951171875,3.45001220703125-.260009765625,3.80999755859375,1.1199951171875,5.45001220703125.889892578125,3.8900146484375-3.52001953125ZM264.778101520939344,121.171496887354806c-2.07000732421875,2.510009765625-7.6199951171875,4.840087890625-7.760009765625,7.580078125.9000244140625,1.7900390625,1.6300048828125.780029296875,3.58001708984375.3199462890625,3.3499755859375.4300537109375,4.97998046875.5599365234375,6.51995849609375-2.8900146484375,3.300048828125-4.139892578125,7.85003662109375-6.300048828125,10.52001953125-10.8199462890625,7.92999267578125-3.6300048828125-1.29998779296875-3.2401123046875-4.8800048828125-1.9400634765625-3.3399658203125,1.8800048828125-5.04998779296875,5.22998046875-7.97998046875,7.75ZM248.778101520939344,121.171496887354806c-2.07000732421875,2.510009765625-7.6199951171875,4.840087890625-7.760009765625,7.580078125.9000244140625,1.7900390625,1.6300048828125.780029296875,3.58001708984375.3199462890625,3.3499755859375.4300537109375,4.97998046875.5599365234375,6.51995849609375-2.8900146484375,3.300048828125-4.139892578125,7.85003662109375-6.300048828125,10.52001953125-10.8199462890625,7.92999267578125-3.6300048828125-1.29998779296875-3.2401123046875-4.8800048828125-1.9400634765625-3.3399658203125,1.8800048828125-5.04998779296875,5.22998046875-7.97998046875,7.75ZM232.778101520939344,121.171496887354806c-2.07000732421875,2.510009765625-7.6199951171875,4.840087890625-7.760009765625,7.580078125.9000244140625,1.7900390625,1.6300048828125.780029296875,3.58001708984375.3199462890625,3.3499755859375.4300537109375,4.97998046875.5599365234375,6.51995849609375-2.8900146484375,3.300048828125-4.139892578125,7.85003662109375-6.300048828125,10.52001953125-10.8199462890625,7.92999267578125-3.6300048828125-1.29998779296875-3.2401123046875-4.8800048828125-1.9400634765625-3.3399658203125,1.8800048828125-5.04998779296875,5.22998046875-7.97998046875,7.75ZM216.778101520939344,121.171496887354806c-2.07000732421875,2.510009765625-7.6199951171875,4.840087890625-7.760009765625,7.580078125.9000244140625,1.7900390625,1.6300048828125.780029296875,3.58001708984375.3199462890625,3.3499755859375.4300537109375,4.97998046875.5599365234375,6.51995849609375-2.8900146484375,3.300048828125-4.139892578125,7.85003662109375-6.300048828125,10.52001953125-10.8199462890625,7.92999267578125-3.6300048828125-1.29998779296875-3.2401123046875-4.8800048828125-1.9400634765625-3.3399658203125,1.8800048828125-5.04998779296875,5.22998046875-7.97998046875,7.75ZM200.778101520939344,121.171496887354806c-2.07000732421875,2.510009765625-7.6199951171875,4.840087890625-7.760009765625,7.580078125.9000244140625,1.7900390625,1.6300048828125.780029296875,3.58001708984375.3199462890625,3.3499755859375.4300537109375,4.97998046875.5599365234375,6.51995849609375-2.8900146484375,3.300048828125-4.139892578125,7.85003662109375-6.300048828125,10.52001953125-10.8199462890625,7.92999267578125-3.6300048828125-1.29998779296875-3.2401123046875-4.8800048828125-1.9400634765625-3.3399658203125,1.8800048828125-5.04998779296875,5.22998046875-7.97998046875,7.75ZM184.778101520939344,121.171496887354806c-2.07000732421875,2.510009765625-7.6199951171875,4.840087890625-7.760009765625,7.580078125.9000244140625,1.7900390625,1.6300048828125.780029296875,3.58001708984375.3199462890625,3.3499755859375.4300537109375,4.97998046875.5599365234375,6.51995849609375-2.8900146484375,3.300048828125-4.139892578125,7.85003662109375-6.300048828125,10.52001953125-10.8199462890625,7.92999267578125-3.6300048828125-1.29998779296875-3.2401123046875-4.8800048828125-1.9400634765625-3.3399658203125,1.8800048828125-5.04998779296875,5.22998046875-7.97998046875,7.75ZM168.778101520939344,121.171496887354806c-2.07000732421875,2.510009765625-7.6199951171875,4.840087890625-7.760009765625,7.580078125.9000244140625,1.7900390625,1.6300048828125.780029296875,3.58001708984375.3199462890625,3.3499755859375.4300537109375,4.97998046875.5599365234375,6.51995849609375-2.8900146484375,3.300048828125-4.139892578125,7.85003662109375-6.300048828125,10.52001953125-10.8199462890625,7.92999267578125-3.6300048828125-1.29998779296875-3.2401123046875-4.8800048828125-1.9400634765625-3.3399658203125,1.8800048828125-5.04998779296875,5.22998046875-7.97998046875,7.75ZM152.778101520939344,121.171496887354806c-2.07000732421875,2.510009765625-7.6199951171875,4.840087890625-7.760009765625,7.580078125.9000244140625,1.7900390625,1.6300048828125.780029296875,3.58001708984375.3199462890625,3.3499755859375.4300537109375,4.97998046875.5599365234375,6.51995849609375-2.8900146484375,3.300048828125-4.139892578125,7.85003662109375-6.300048828125,10.52001953125-10.8199462890625,7.92999267578125-3.6300048828125-1.29998779296875-3.2401123046875-4.8800048828125-1.9400634765625-3.3399658203125,1.8800048828125-5.04998779296875,5.22998046875-7.97998046875,7.75ZM136.778101520939344,121.171496887354806c-2.07000732421875,2.510009765625-7.6199951171875,4.840087890625-7.760009765625,7.580078125.9000244140625,1.7900390625,1.6300048828125.780029296875,3.58001708984375.3199462890625,3.3499755859375.4300537109375,4.97998046875.5599365234375,6.51995849609375-2.8900146484375,3.300048828125-4.139892578125,7.85003662109375-6.300048828125,10.52001953125-10.8199462890625,7.92999267578125-3.6300048828125-1.29998779296875-3.2401123046875-4.8800048828125-1.9400634765625-3.3399658203125,1.8800048828125-5.04998779296875,5.22998046875-7.97998046875,7.75ZM120.778101520939344,121.171496887354806c-2.07000732421875,2.510009765625-7.6199951171875,4.840087890625-7.760009765625,7.580078125.9000244140625,1.7900390625,1.6300048828125.780029296875,3.58001708984375.3199462890625,3.3499755859375.4300537109375,4.97998046875.5599365234375,6.51995849609375-2.8900146484375,3.300048828125-4.139892578125,7.85003662109375-6.300048828125,10.52001953125-10.8199462890625,7.92999267578125-3.6300048828125-1.29998779296875-3.2401123046875-4.8800048828125-1.9400634765625-3.3399658203125,1.8800048828125-5.04998779296875,5.22998046875-7.97998046875,7.75ZM109.648096638126844,123.361560363917306c3.82000732421875-2.77001953125,8.3399658203125-7.8399658203125,10.8399658203125-10.3499755859375-1.3599853515625-1.2000732421875-5.42999267578125.43994140625-7.80999755859375.219970703125-2.969970703125,2.1099853515625-5.989990234375,4.5799560546875-7.63995361328125,7.919921875-1.71002197265625,8.39013671875-.27001953125,10.6900634765625,4.6099853515625,2.2100830078125ZM344.578089313908094,120.661487121729806c10.32000732421875-.0499267578125,10.20001220703125-16.0899658203125,0-16.159912109375-9.6300048828125,1.68994140625-11.1199951171875,15.889892578125,0,16.159912109375ZM112.578089313908094,161.171496887354806c-10.510009765625.739990234375-10.16998291015625,15.2099609375,0,16.2900390625,10.25-.97998046875,10.260009765625-15.489990234375,0-16.2900390625Z"
      />
      <path
        class="cls-2"
        d="M426.558069782658094,192.841540832667306c-16.92999267578125-.8199462890625-34.0799560546875,1.6800537109375-50.739990234375-1.6900634765625-19.69000244140625-8.68994140625-7.57000732421875-46.60986328125-11.70001220703125-64.3399658203125-1.97998046875-20.5599365234375,6.4200439453125-37.6500244140625,29.80999755859375-33.7999267578125,14.1400146484375-.080078125,27.83001708984375-.510009765625,41.99005126953125.0699462890625,3.6199951171875,1.6500244140625,7.97998046875-.530029296875,4.7099609375-4.1700439453125-2.5999755859375-.919921875-5.82000732421875,1.1600341796875-9.02996826171875-.3399658203125-16.6600341796875,1-32.760009765625-.4599609375-49.33001708984375.6600341796875-31.239990234375-.280029296875-62.57000732421875-.85009765625-94.1300048828125-.219970703125-62.6400146484375.169921875-125.02996826171875-.330078125-188.1400146484375.280029296875-19.28997802734375-.820068359375-38.66998291015625-.4400634765625-58.219970703125-.52001953125-4.52001953125,1.2099609375-16.4000244140625-3.330078125-13.10003662109375,4.739990234375-1.3599853515625,13.6298828125.030029296875,27.0599365234375-.239990234375,40.7999267578125-.1300048828125,5.8199462890625-1.2099609375,12.6300048828125.1300048828125,17.9000244140625,2.32000732421875,1.0899658203125,5.510009765625-.699951171875,8.489990234375.679931640625,17.21002197265625.9300537109375,35.72003173828125-3.7799072265625,52.02001953125,1.89013671875,20.1300048828125,8.5198974609375,8.20001220703125,45.760009765625,11.70001220703125,63.8099365234375,6.010009765625,41.9000244140625-30.8900146484375,34.1199951171875-59.3900146484375,33.4100341796875-4.32000732421875,1.8499755859375-9.1500244140625-.6201171875-12.96002197265625.52001953125-.65997314453125,13.3798828125,1,30.14990234375,11.010009765625,40.599853515625,15.07000732421875,24.6900634765625,46.3800048828125,24.4700927734375,71.83001708984375,23.280029296875,61.4000244140625.090087890625,122.29998779296875.2900390625,183.71002197265625.090087890625,22.27996826171875-.4000244140625,44.6300048828125.43994140625,67.199951171875-.260009765625,37.11004638671875,6.800048828125,79.09002685546875-14.1600341796875,78.1300048828125-55.719970703125.6600341796875-20.9300537109375.20001220703125-41.969970703125.6500244140625-63.0400390625,2.78997802734375-9.3599853515625-9.1400146484375-2.429931640625-14.4000244140625-4.6300048828125ZM344.578089313908094,173.141467590479806c10.71002197265625-.639892578125,10.719970703125,16.900146484375,0,15.989990234375-9.82000732421875-.8199462890625-10.71002197265625-16.33984375,0-15.989990234375ZM344.578089313908094,136.801501770167306c9.97998046875.300048828125,10.04998779296875,15.9500732421875,0,16.27001953125-10.1099853515625-.219970703125-9.72998046875-15.4599609375,0-16.27001953125ZM344.578089313908094,104.501575012354806c10.20001220703125.0699462890625,10.32000732421875,16.1099853515625,0,16.159912109375-11.1199951171875-.27001953125-9.6300048828125-14.469970703125,0-16.159912109375ZM89.058069782658094,132.971545715479806c.19000244140625-11.320068359375-5.92999267578125-35.6500244140625,11.52001953125-35.679931640625,19.28997802734375-1.130126953125,38.97998046875.5399169921875,58.3800048828125-.7100830078125,30.1199951171875.9500732421875,59.72998046875-.6300048828125,89.739990234375.739990234375,15.3499755859375,2.1700439453125,36.780029296875-7.260009765625,47.41998291015625,6.8699951171875,2.05999755859375,9.510009765625-.8699951171875,19.2900390625.96002197265625,28.780029296875-1.6400146484375,15.72998046875-19.29998779296875,11.5899658203125-30.47998046875,11.77001953125-13.44000244140625.489990234375-26.8900146484375-.2099609375-40.4000244140625.550048828125-36.1300048828125-.2100830078125-71.82000732421875-.66015625-107.67999267578125-.110107421875-10.79998779296875-.3399658203125-29.4000244140625,3.75-29.46002197265625-12.2099609375ZM112.578089313908094,177.461535949854806c-10.16998291015625-1.080078125-10.510009765625-15.550048828125,0-16.2900390625,10.260009765625.800048828125,10.25,15.31005859375,0,16.2900390625ZM112.578089313908094,192.831531067042306c12.70001220703125,1.3099365234375,7.91998291015625,20.5899658203125-4.010009765625,15.0799560546875-7.260009765625-3.5899658203125-3.8800048828125-14.869873046875,4.010009765625-15.0799560546875ZM112.578089313908094,245.401477356104806c-9.8800048828125-.780029296875-10.78997802734375-16.77001953125,0-16.2099609375,10.75.0400390625,10.1300048828125,15.56005859375,0,16.2099609375ZM187.608118610783094,161.061511535792306c16.55999755859375-.449951171875,32.8599853515625.0899658203125,49.5-.1099853515625,16.5799560546875,1.280029296875,33.01995849609375-1.1500244140625,49.47998046875.449951171875,8.8399658203125-.27001953125,30.95001220703125-3.5,25.0899658203125,11.6700439453125-6.1199951171875,7.2100830078125-28.9599609375,3.5499267578125-38.6300048828125,3.4500732421875-16.64996337890625.5299072265625-32.93994140625-.260009765625-49.5.919921875-13.3599853515625-.780029296875-26.9599609375-.2900390625-40.489990234375-.070068359375-9.55999755859375-2.389892578125-28.5899658203125,5.1800537109375-30.8599853515625-8.39990234375,2.1099853515625-13.18994140625,25.27001953125-6.9000244140625,35.4100341796875-7.9100341796875ZM295.558069782658094,216.571521301417306c-21.1099853515625,1.510009765625-42.010009765625-1.0899658203125-63.010009765625.8399658203125-15.17999267578125-1.3599853515625-29.8399658203125.3900146484375-44.989990234375-.239990234375-10.3499755859375-1.300048828125-40.22998046875,6.030029296875-34.27996826171875-12.409912109375,6.01995849609375-6.630126953125,17.15997314453125-2.860107421875,25.32000732421875-3.9600830078125,12.17999267578125-.3199462890625,23.97998046875.7301025390625,36.010009765625-.219970703125,29.63995361328125,1.3399658203125,59.8399658203125.1900634765625,89.969970703125.1500244140625,16.42999267578125,4.8399658203125,3.90997314453125,21.739990234375-9.02001953125,15.8399658203125ZM341.238062458439344,301.631457824854806c-12.8399658203125,8.35009765625-30.3599853515625.739990234375-45.01995849609375,3.2301025390625-44.1700439453125.7099609375-87.52001953125-.2401123046875-131.6400146484375,0-17.04998779296875-.1900634765625-11.1300048828125-24.56005859375-11.6199951171875-35.8900146484375-.29998779296875-15.7099609375,19.3399658203125-11.81005859375,29.80999755859375-11.77001953125,15.22998046875-.9599609375,30.15997314453125-.06005859375,45.40997314453125-.06005859375,34.80999755859375-1.2099609375,69.6199951171875,1.030029296875,104.4000244140625-.429931640625,16.44000244140625-1.919921875,14.59002685546875,36.469970703125,8.65997314453125,44.919921875ZM371.108118610783094,249.381457824854806c-46.280029296875-1.5799560546875-92.58001708984375.760009765625-138.9000244140625-.8199462890625-17.95001220703125,1.4100341796875-35.8499755859375-.9200439453125-53.72003173828125.8399658203125-6.1199951171875-.469970703125-11.80999755859375-.7899169921875-17.90997314453125-.159912109375-10.33001708984375-.610107421875-10.41998291015625-16.1600341796875,0-16.489990234375,68.92999267578125.760009765625,137.3900146484375-.6900634765625,206.09002685546875.64990234375,7.3599853515625-.14990234375,14.90997314453125-1.2099609375,22.0899658203125.320068359375,12.6099853515625,14.3900146484375-7.40997314453125,15.699951171875-17.64996337890625,15.659912109375ZM84.988062458439344,204.721545715479806c-2.989990234375-7.699951171875,4.1300048828125-35.0400390625-4.40997314453125-35.9100341796875-19.92999267578125-1-39.8800048828125-.22998046875-60-.6400146484375-8.530029296875,2.9400634765625-1.71002197265625,15.81005859375-4.3499755859375,22.739990234375.5899658203125,13.9400634765625-.4200439453125,27.590087890625.3699951171875,41.52001953125,4.15997314453125,8.449951171875,19.03997802734375,3.1800537109375,27.07000732421875,3.60009765625,12.239990234375.889892578125,24.4599609375.199951171875,36.90997314453125.5198974609375,8.40997314453125.3499755859375,1.8900146484375-24.43994140625,4.40997314453125-31.8299560546875ZM62.518091755314344,217.381457824854806c2.8499755859375,4.9600830078125,7.969970703125,10.260009765625-.45001220703125,12.130126953125-7.27001953125,6.0899658203125-8.3399658203125-5.9100341796875-12.04998779296875-10.06005859375-4.21002197265625-18.239990234375-13.78997802734375,8.75-22.010009765625,13.52001953125-18.989990234375-.239990234375,8.03997802734375-24.070068359375,13.29998779296875-31.02001953125-3.989990234375-7.22998046875-10.16998291015625-14.7900390625-10.69000244140625-22.77001953125,10.11004638671875-17.8199462890625,12.02001953125,20.8900146484375,20.09002685546875,10.8699951171875,6.3399658203125-6.1400146484375,11.94000244140625-18.1300048828125,19.77001953125-20.5599365234375,20.5,15.889892578125-33.27001953125,25.760009765625-7.96002197265625,47.889892578125Z"
      />
    </g>
  </g>
</svg>
