<svg viewBox="0 0 462.507157668094806 361.339138618259312">
  <defs>
    <style>
      .cls-1 {
        fill: var(--black);
      }

      .cls-2 {
        fill: var(--yellow);
      }
    </style>
  </defs>
  <g>
    <g>
      <path
        class="cls-1"
        d="M192.708466738346033,48.695020323511926c-17.8299560546875-.0399169921875-35.489990234375.070068359375-53.3199462890625-.179931640625-19.2099609375.47998046875-38.31005859375-.3599853515625-57.780029296875.4599609375-7.679931640625.3701171875-14.590087890625-1.139892578125-22.25-.300048828125-10.469970703125.2401123046875-10.1099853515625,15.7100830078125,0,16.4801025390625,35.909912109375-.800048828125,71.1199951171875-.7000732421875,106.6300048828125-.300048828125,16.0899658203125-2.5198974609375,49.3599853515625,5,60.5-3.9599609375,5.3499755859375-19.0599365234375-23.3399658203125-9.8199462890625-33.780029296875-12.2000732421875ZM307.138520449283533,46.215039854761926c-18.9300537109375-11.5400390625-29.31005859375,18.840087890625-11.780029296875,22.330078125,6.3900146484375.14990234375,16.3499755859375,1.5899658203125,16.050048828125-7.77001953125,0-5.1099853515625,1.919921875-12.4000244140625-4.27001953125-14.56005859375ZM347.258515566471033,46.015088682886926c-23.1199951171875-9.679931640625-26.5599365234375,19.179931640625-11.9000244140625,23.1199951171875,16.669921875,3.1099853515625,21.56005859375-12.8299560546875,11.9000244140625-23.1199951171875ZM391.248505800846033,56.775098448511926c.010009765625-4.18994140625,1.0699462890625-9.22998046875-4.1400146484375-10.5-16.969970703125-10.739990234375-30.219970703125,17.239990234375-11.75,22.9599609375,8.4599609375.969970703125,18.219970703125-2,15.8900146484375-12.4599609375ZM391.248505800846033,56.775098448511926c.010009765625-4.18994140625,1.0699462890625-9.22998046875-4.1400146484375-10.5-16.969970703125-10.739990234375-30.219970703125,17.239990234375-11.75,22.9599609375,8.4599609375.969970703125,18.219970703125-2,15.8900146484375-12.4599609375ZM347.258515566471033,46.015088682886926c-23.1199951171875-9.679931640625-26.5599365234375,19.179931640625-11.9000244140625,23.1199951171875,16.669921875,3.1099853515625,21.56005859375-12.8299560546875,11.9000244140625-23.1199951171875ZM307.138520449283533,46.215039854761926c-18.9300537109375-11.5400390625-29.31005859375,18.840087890625-11.780029296875,22.330078125,6.3900146484375.14990234375,16.3499755859375,1.5899658203125,16.050048828125-7.77001953125,0-5.1099853515625,1.919921875-12.4000244140625-4.27001953125-14.56005859375ZM192.708466738346033,48.695020323511926c-17.8299560546875-.0399169921875-35.489990234375.070068359375-53.3199462890625-.179931640625-19.2099609375.47998046875-38.31005859375-.3599853515625-57.780029296875.4599609375-7.679931640625.3701171875-14.590087890625-1.139892578125-22.25-.300048828125-10.469970703125.2401123046875-10.1099853515625,15.7100830078125,0,16.4801025390625,35.909912109375-.800048828125,71.1199951171875-.7000732421875,106.6300048828125-.300048828125,16.0899658203125-2.5198974609375,49.3599853515625,5,60.5-3.9599609375,5.3499755859375-19.0599365234375-23.3399658203125-9.8199462890625-33.780029296875-12.2000732421875ZM192.708466738346033,48.695020323511926c-17.8299560546875-.0399169921875-35.489990234375.070068359375-53.3199462890625-.179931640625-19.2099609375.47998046875-38.31005859375-.3599853515625-57.780029296875.4599609375-7.679931640625.3701171875-14.590087890625-1.139892578125-22.25-.300048828125-10.469970703125.2401123046875-10.1099853515625,15.7100830078125,0,16.4801025390625,35.909912109375-.800048828125,71.1199951171875-.7000732421875,106.6300048828125-.300048828125,16.0899658203125-2.5198974609375,49.3599853515625,5,60.5-3.9599609375,5.3499755859375-19.0599365234375-23.3399658203125-9.8199462890625-33.780029296875-12.2000732421875ZM307.138520449283533,46.215039854761926c-18.9300537109375-11.5400390625-29.31005859375,18.840087890625-11.780029296875,22.330078125,6.3900146484375.14990234375,16.3499755859375,1.5899658203125,16.050048828125-7.77001953125,0-5.1099853515625,1.919921875-12.4000244140625-4.27001953125-14.56005859375ZM347.258515566471033,46.015088682886926c-23.1199951171875-9.679931640625-26.5599365234375,19.179931640625-11.9000244140625,23.1199951171875,16.669921875,3.1099853515625,21.56005859375-12.8299560546875,11.9000244140625-23.1199951171875ZM391.248505800846033,56.775098448511926c.010009765625-4.18994140625,1.0699462890625-9.22998046875-4.1400146484375-10.5-16.969970703125-10.739990234375-30.219970703125,17.239990234375-11.75,22.9599609375,8.4599609375.969970703125,18.219970703125-2,15.8900146484375-12.4599609375ZM391.248505800846033,56.775098448511926c.010009765625-4.18994140625,1.0699462890625-9.22998046875-4.1400146484375-10.5-16.969970703125-10.739990234375-30.219970703125,17.239990234375-11.75,22.9599609375,8.4599609375.969970703125,18.219970703125-2,15.8900146484375-12.4599609375ZM335.358491152408533,69.135083800074426c16.669921875,3.1099853515625,21.56005859375-12.8299560546875,11.9000244140625-23.1199951171875-23.1199951171875-9.679931640625-26.5599365234375,19.179931640625-11.9000244140625,23.1199951171875ZM307.138520449283533,46.215039854761926c-18.9300537109375-11.5400390625-29.31005859375,18.840087890625-11.780029296875,22.330078125,6.3900146484375.14990234375,16.3499755859375,1.5899658203125,16.050048828125-7.77001953125,0-5.1099853515625,1.919921875-12.4000244140625-4.27001953125-14.56005859375ZM192.708466738346033,48.695020323511926c-17.8299560546875-.0399169921875-35.489990234375.070068359375-53.3199462890625-.179931640625-19.2099609375.47998046875-38.31005859375-.3599853515625-57.780029296875.4599609375-7.679931640625.3701171875-14.590087890625-1.139892578125-22.25-.300048828125-10.469970703125.2401123046875-10.1099853515625,15.7100830078125,0,16.4801025390625,35.909912109375-.800048828125,71.1199951171875-.7000732421875,106.6300048828125-.300048828125,16.0899658203125-2.5198974609375,49.3599853515625,5,60.5-3.9599609375,5.3499755859375-19.0599365234375-23.3399658203125-9.8199462890625-33.780029296875-12.2000732421875ZM461.638520449283533,121.615064268824426c3.550048828125-56.469970703125-.760009765625-117.260009765625-71.93994140625-120.719970703125-72.2000732421875-.8099365234375-145.16015625.5899658203125-217.080078125-.47998046875C84.658539980533533,3.085157042261926-9.311430722591467-22.034960145238074,1.288422793033533,103.815137511011926c-.93994140625,28.1298828125.0400390625,56.14990234375-.3798828125,84.280029296875-3.6600341796875,42.2899169921875,1.989990234375,94.5599365234375,49.8099365234375,108.2099609375,18.510009765625,7.27001953125,38.75,2.77001953125,57.9801025390625,4.0699462890625,26.9599609375.0599365234375,53.659912109375-1.0499267578125,80.329833984375-.1500244140625,10.420166015625-5.739990234375,3.02001953125,25.340087890625-.889892578125,29.5-5.6800537109375,16.969970703125-30.6700439453125,8.780029296875-34.7900390625,23.050048828125-.469970703125,14.409912109375,38.330078125,5.7900390625,48.780029296875,7.8800048828125,29.169921875.3099365234375,57.780029296875.0899658203125,86.820068359375.010009765625,10.699951171875,2.2598876953125,29.7999267578125-1.6099853515625,17.9599609375-15.2200927734375-10.880126953125-1.5599365234375-21.570068359375-2.1298828125-28.97998046875-11.699951171875-7.9200439453125-9.1300048828125-8.72998046875-22.929931640625-7.81005859375-33.7900390625,6.06005859375-.93994140625,13.5.820068359375,20,.52001953125,36.3900146484375,44.5,29.1099853515625,32.1400146484375,63.919921875-.3299560546875,51.590087890625,6.0399169921875,106.52001953125-12.3299560546875,107.969970703125-72.0799560546875-.7900390625-35.5400390625.030029296875-71.1900634765625-.369873046875-106.4500732421875ZM73.018403261783533,17.155103331324426c69.35009765625-.760009765625,138.830078125-.300048828125,208.030029296875-.0699462890625,25.760009765625.489990234375,51.510009765625-1.7100830078125,76.9400634765625.0599365234375,44.969970703125-6.97998046875,93.0899658203125,11.969970703125,87.8199462890625,64.4200439453125-103.39990234375-2.469970703125-207.419921875.010009765625-310.780029296875-.85009765625-36.0299072265625-.75-71.889892578125,1.02001953125-107.7799072265625-.3299560546875-31.489990234375,5.5399169921875,7.6800537109375-72.0499267578125,45.7698974609375-63.22998046875ZM19.298432558658533,139.015088682886926c-.5899658203125-9.4000244140625-2.3399658203125-10.800048828125,8.860107421875-9.830078125-2.81005859375,1.340087890625-6,9.860107421875-8.860107421875,9.830078125ZM40.298432558658533,129.235059386011926c9.4600830078125-2.8800048828125-2.8399658203125,6.1300048828125-4.199951171875,9.360107421875-6.3399658203125,4.699951171875-11.909912109375,14.119873046875-16.72998046875,18.429931640625-1.830078125-6.27001953125,2.239990234375-13.7900390625,7.89990234375-18.199951171875,4.4700927734375-3.380126953125,6.1900634765625-11.530029296875,13.030029296875-9.590087890625ZM27.268403261783533,156.965039854761926c7.650146484375-8.25,15.2000732421875-16.030029296875,21.9400634765625-25.219970703125,1.02001953125-3.18994140625,13-4.550048828125,10.25-1.81005859375-13.9300537109375,13.8701171875-26.9300537109375,32.1800537109375-40.0299072265625,45.1201171875-3.2100830078125-7.530029296875,3.369873046875-12.260009765625,7.83984375-18.090087890625ZM71.958466738346033,151.415113096949426c-16.719970703125,18.9599609375-32.989990234375,38.5098876953125-50.239990234375,56.739990234375-3.7999267578125,9.0799560546875-3.010009765625-1.760009765625-2.0198974609375-5.6600341796875,2.489990234375-3.14990234375,5.2999267578125-5.719970703125,7.56982421875-9.27001953125,18.60009765625-19.8499755859375,35.880126953125-40.919921875,54.2301025390625-61.219970703125,24.010009765625-15.3599853515625-4.25,14.1099853515625-9.5400390625,19.4100341796875ZM91.178559511783533,147.915113096949426c-5.010009765625,7.1700439453125-12.2900390625,12.5999755859375-16.97998046875,20.0799560546875-19.2000732421875,19.1099853515625-37.0400390625,42.570068359375-54.6201171875,61.18994140625-2.409912109375-6.0599365234375,2.6201171875-13.4599609375,7.68994140625-17.8199462890625,20.25-21.5198974609375,38.60009765625-44.5399169921875,58.9400634765625-66.25,5.260009765625-10.510009765625,7.050048828125-6.5699462890625,4.9700927734375,2.800048828125ZM70.888520449283533,135.375074034449426c-5.77001953125,4.739990234375-8.7099609375,11.1199951171875-14.320068359375,16-12.68994140625,13.1199951171875-25.619873046875,29.4700927734375-37.050048828125,41.6600341796875-2.0499267578125-6.1600341796875,2.6201171875-13.330078125,7.75-17.93994140625,14.070068359375-15.0400390625,27.4801025390625-31.0400390625,41.0400390625-46.300048828125,9.570068359375-.489990234375,9.830078125-.4599609375,2.580078125,6.5799560546875ZM20.308442324283533,246.825147276636926c-1.60986328125-4.900146484375-3.139892578125-9.1900634765625,2.610107421875-11.489990234375,4.699951171875-4.77001953125,7.72998046875-10.090087890625,12.469970703125-14.800048828125,11.8599853515625-13.06005859375,23.139892578125-26.52001953125,34.989990234375-39.6700439453125,6.659912109375-7.7099609375,14.659912109375-17.3900146484375,21-23.8599853515625,1.75,2.830078125.39990234375,10.3800048828125-3.4200439453125,12.550048828125-22.2099609375,26.239990234375-45.47998046875,50.8499755859375-67.6500244140625,77.27001953125ZM27.268403261783533,247.625074034449426c21.7900390625-23.2899169921875,43.6201171875-49.989990234375,64.31005859375-72.8499755859375,3.050048828125,8.5400390625-6.139892578125,16.5-11.989990234375,22.530029296875-9.8399658203125,11.52001953125-19.719970703125,22.2900390625-29.81005859375,33.5799560546875-5.5499267578125,5.8499755859375-16.22998046875,24.239990234375-22.510009765625,16.739990234375ZM77.598481386783533,245.895093565699426c4.18994140625-4.1900634765625,6.739990234375-8.9600830078125,10.9599609375-13.0899658203125,4.580078125-9.1400146484375,2.6600341796875,1.72998046875,2.570068359375,5.75-2.56005859375,3.669921875-5.449951171875,7.369873046875-8.6600341796875,10.3299560546875-4.0999755859375.219970703125-13.469970703125,1.3900146484375-4.8699951171875-2.989990234375ZM66.468476503971033,248.885083800074426c-1.5999755859375-.1900634765625-11.1900634765625,1.3599853515625-6.75-.8599853515625,5.1199951171875-5.7900390625,9.5400390625-11.510009765625,14.3699951171875-17.5400390625,6.530029296875-4.919921875,12.260009765625-14.489990234375,17.260009765625-19.02001953125.669921875,3.080078125.4599609375,9.9300537109375-2.800048828125,12.840087890625-8.159912109375,7.669921875-14.199951171875,17.010009765625-22.0799560546875,24.5799560546875ZM91.358491152408533,247.585157042261926c1.030029296875.179931640625-.77001953125,2.239990234375-1.31005859375,1.409912109375-.409912109375-.699951171875.60009765625-1.409912109375,1.31005859375-1.409912109375ZM75.448579043033533,220.585157042261926c-8.6900634765625,9.25-17.170166015625,18.599853515625-24.880126953125,28.510009765625-9.719970703125-.6800537109375-10.280029296875,1.199951171875-2.6099853515625-6.800048828125,14.8599853515625-15.3900146484375,29.3699951171875-34.3800048828125,43.4700927734375-49.1700439453125,3.58984375,11.1099853515625-10.41015625,18.47998046875-15.97998046875,27.4600830078125ZM379.958466738346033,283.745069151636926c-1.8199462890625,1.81005859375-2.4000244140625-.659912109375-4.9100341796875-.0999755859375-2.719970703125.6099853515625-3.3099365234375,2.3199462890625-5.1298828125.510009765625-1.280029296875-1.280029296875,1.43994140625-1.300048828125,2.72998046875-2.5799560546875,1.280029296875-1.2900390625.679931640625-3.070068359375,2.489990234375-3.070068359375,1.8199462890625,0,.93994140625,2.050048828125,2.22998046875,3.340087890625,1.280029296875,1.2799072265625,3.8699951171875.60986328125,2.5899658203125,1.89990234375ZM388.648530214908533,264.715039854761926c.14990234375,12.3701171875-6.1800537109375-5.3199462890625-11.4300537109375-4.8399658203125-10.0599365234375-2.2000732421875-26.9300537109375,24.72998046875-37,31.1500244140625-4.1099853515625,4.8299560546875-8.469970703125,8.5400390625-13.0599365234375,12.8800048828125-2.800048828125,3.7899169921875-6.4300537109375,10.3499755859375-9.6800537109375,3.0399169921875-14.0499267578125-12.5-3.8699951171875-7.619873046875,4.6900634765625-20.1298828125,8.35986328125-8.800048828125,16.780029296875-16.89013671875,25.419921875-25.550048828125,8.719970703125-6.949951171875,19.050048828125-16.1500244140625,7.27001953125-25.6400146484375-9.8800048828125-4.9200439453125,4.5999755859375-4.2999267578125,9-6.1500244140625,11.159912109375-3.389892578125,27.97998046875-8.2900390625,36.3900146484375-8.93994140625-4.4700927734375,14.679931640625-7.3399658203125,29.449951171875-11.5999755859375,44.179931640625ZM315.268403261783533,193.225049620386926c4.89013671875-5.8798828125,7.570068359375-9.909912109375,15.2200927734375-8.2900390625-2.4700927734375,5.300048828125-9.75,10.150146484375-13.6400146484375,15.39013671875-3-2.60009765625-6.739990234375-4.2200927734375-1.580078125-7.10009765625ZM306.858491152408533,194.055127745386926c-4.780029296875-1.9100341796875-10.2900390625-.60009765625-3.1400146484375-4.9599609375,1.6800537109375-4.550048828125,8.2301025390625-5.030029296875,11.3399658203125-4.39013671875-1.27001953125,2.630126953125-5.679931640625,6.510009765625-8.199951171875,9.35009765625ZM349.768403261783533,145.425000792261926c-5.83984375-5.0399169921875-3.7099609375-4.5098876953125.91015625-9.58984375,5.239990234375-6.6700439453125,5.14990234375-8.760009765625,13.949951171875-7.1700439453125-4.489990234375,4.2999267578125-10.0400390625,11.4599609375-14.860107421875,16.7598876953125ZM372.248505800846033,128.665113096949426c1.6300048828125.239990234375,11.1900634765625-1.3900146484375,6.75.8599853515625-7.1600341796875,8.3800048828125-13.6099853515625,16.75-21.3199462890625,24.52001953125-3.010009765625,6.260009765625-3.06005859375.3199462890625-4.1900634765625-3.280029296875,6.0499267578125-7.5,12.260009765625-15.22998046875,18.760009765625-22.0999755859375ZM347.448579043033533,129.925000792261926c-4.360107421875,5.4300537109375-6.6201171875,8.7900390625-13.900146484375,7.14013671875,2.75-3.9000244140625,5.10009765625-9.77001953125,10.75-8.64013671875,1.320068359375.2000732421875,5.52001953125.4600830078125,3.150146484375,1.5ZM360.158539980533533,160.735059386011926c9.0699462890625-10.889892578125,19.760009765625-20.919921875,27.9599609375-32.3299560546875,21.6300048828125-5.050048828125-11.340087890625,18.699951171875-14.429931640625,26.2899169921875-16.81005859375,17.260009765625-31.4801025390625,36.3701171875-47.9700927734375,53.6201171875-3.5198974609375,7.0699462890625-2.239990234375.25-5.4400634765625-2.9300537109375,7.150146484375-7.0699462890625,14.130126953125-14.3599853515625,20.130126953125-22.52001953125,10.989990234375-3.260009765625,12.5899658203125-14.9599609375,19.75-22.1300048828125ZM315.278413027408533,234.555127745386926c23.610107421875-35.4400634765625,55.050048828125-66.77001953125,83.56005859375-99.2000732421875,3.840087890625-6.25,6.97998046875-6.6500244140625,13.6199951171875-7.0299072265625-8.719970703125,9.639892578125-17.969970703125,20.489990234375-26.5299072265625,30.659912109375-19,19.6500244140625-36.0400390625,41.530029296875-54.7000732421875,61.4100341796875-7.0799560546875,6.1500244140625-20.9300537109375,29.6500244140625-28.8099365234375,28.3599853515625-12.590087890625,2.3900146484375,10.4599609375-12.219970703125,12.85986328125-14.199951171875ZM403.348481386783533,202.175000792261926c9.85009765625-10.579833984375,22.6600341796875-26.35986328125,34.10009765625-38.22998046875,7.08984375-10,6.47998046875-9.139892578125,6.019775390625,2.2000732421875-10.849853515625,8.97998046875-27.06982421875,38.3099365234375-40.119873046875,36.0299072265625ZM413.258515566471033,233.305127745386926c2.4200439453125-12.320068359375,13.4400634765625-20.4300537109375,21.1099853515625-29.77001953125,6.31005859375-5.780029296875,11.320068359375-20.610107421875,9.099853515625-1.1199951171875-3.039794921875,1.8499755859375-38.85986328125,47.0999755859375-30.2098388671875,30.8900146484375ZM443.478608339908533,148.015088682886926c-13.2401123046875,13.699951171875-24.9501953125,29.260009765625-38.630126953125,42.909912109375-6.179931640625,7.0400390625-12.2099609375,18.630126953125-22.2900390625,16.89013671875,14.6800537109375-17.39013671875,33.9599609375-38.239990234375,50.030029296875-56.22998046875,7.31005859375-5.35009765625,12.530029296875-23.360107421875,10.89013671875-3.570068359375ZM443.458588808658533,129.915113096949426c-22.610107421875,25.2799072265625-45.66015625,50.489990234375-67.300048828125,76.8299560546875-2.5400390625,4.7900390625-9.81005859375,6.590087890625-14.1201171875,6.18994140625,6.60009765625-8.2698974609375,17.4700927734375-19.35986328125,25.530029296875-28.5,11.760009765625-13.0499267578125,22.56005859375-27.0399169921875,34.9100341796875-39.3798828125,3.6600341796875-6.1800537109375,9.77001953125-10.380126953125,13.9200439453125-16.080078125,1.679931640625.090087890625,7.60009765625-1.169921875,7.06005859375.9400634765625ZM422.318452089908533,134.865064268824426c-8.3099365234375,10.1199951171875-16.449951171875,20.1300048828125-25.8499755859375,29.280029296875-10.6500244140625,12.7899169921875-20.8800048828125,25.6300048828125-32.6600341796875,37.4300537109375-6.0699462890625,7.429931640625-12.919921875,17.199951171875-22.7099609375,17.0499267578125,24.929931640625-28.1600341796875,53.489990234375-60.2999267578125,79.1500244140625-89.9599609375,11.7999267578125-.530029296875,9.5-1.300048828125,2.0699462890625,6.199951171875ZM330.898530214908533,248.765088682886926c1.260009765625-3.030029296875,10.02001953125-12.830078125,10.419921875-3.77001953125.4599609375,3.6500244140625-9.179931640625,5.760009765625-10.419921875,3.77001953125ZM315.268403261783533,247.625074034449426c4.56005859375-5.3599853515625,9.260009765625-9.5699462890625,13.880126953125-14.9000244140625,3.030029296875,2.2900390625,5.93994140625,4.530029296875,1.469970703125,7.2900390625-5.280029296875,2.179931640625-5.7099609375,10.8699951171875-12.199951171875,8.9000244140625-1.330078125-.1500244140625-5.52001953125-.2200927734375-3.150146484375-1.2900390625ZM400.658539980533533,282.975049620386926c4.8798828125-14.760009765625-.300048828125-19.89990234375,18-18.159912109375,27.739990234375-3.31005859375-6.130126953125,16.719970703125-18,18.159912109375ZM443.478608339908533,238.685010557886926c-4.830078125,6.360107421875-9.400146484375,11.4600830078125-17.2401123046875,10.14013671875,2.1400146484375-4.340087890625,8.5299072265625-8.02001953125,11.6500244140625-12.6800537109375,7.2900390625-11,5.2900390625-7.0799560546875,5.590087890625,2.5399169921875ZM443.468354433658533,220.545117979761926c-7.2498779296875,8.199951171875-14.9698486328125,15.919921875-21.9598388671875,24.659912109375-1.780029296875,3.6600341796875-3.1500244140625,4.9400634765625-7.0899658203125,3.130126953125-1.4600830078125.22998046875-5.6201171875,1.0399169921875-3.150146484375-.7100830078125,9.7401123046875-9.4599609375,17.110107421875-20.5399169921875,26.9400634765625-29.97998046875,5.4700927734375-10.8099365234375,6.6600341796875-6.1300048828125,5.2598876953125,2.9000244140625ZM443.468354433658533,184.285108214136926c-8.199951171875,9.179931640625-17.019775390625,18.030029296875-24.4798583984375,28.1099853515625.1400146484375-.510009765625,1.1700439453125-3.72998046875.4600830078125-5.1600341796875-3.900146484375-6.8499755859375,9.89990234375-12.93994140625,13.18994140625-19.5,4.6199951171875-6.219970703125,14.39990234375-21.0400390625,10.829833984375-3.449951171875ZM445.788422793033533,112.855054503199426c-33.5699462890625-.5198974609375-69.33984375.0799560546875-103.7799072265625.0699462890625-13.5799560546875,1.5-59.9600830078125-4.909912109375-65.8599853515625,3.6900634765625-2.699951171875,6.2200927734375,1.030029296875,14.2301025390625-.97998046875,19.9300537109375-9.030029296875,3.0799560546875-24.22998046875-5.02001953125-30.9300537109375,4.1199951171875-5.8900146484375,16.6199951171875,19.7899169921875,11.9100341796875,29.3299560546875,12,13.489990234375.5499267578125,26.56005859375-.5400390625,39.989990234375.2899169921875,7.080078125.06005859375,13.989990234375-.72998046875,20.9500732421875.5400390625,10.5499267578125,4.760009765625,2.0198974609375,17.8900146484375-7.6500244140625,14.93994140625-30.050048828125.8701171875-60.050048828125-.139892578125-89.969970703125.66015625-10.280029296875,1.75-66.330078125-8.60009765625-56.1400146484375,11.489990234375,2.260009765625,9.489990234375,52.2000732421875,1.93994140625,63.7899169921875,4.4599609375,5.739990234375,2.0899658203125,36.110107421875-5.4599609375,30.47998046875,3.72998046875,3.400146484375,7.429931640625-4.33984375,2.909912109375-8.5499267578125,4.1400146484375-10.47998046875-.1800537109375-20.6199951171875-.2200927734375-31.0899658203125.1700439453125-17.81005859375-.590087890625-35.469970703125-.6700439453125-53.330078125-.590087890625-10.68994140625,1.949951171875-25.8299560546875-4.68994140625-33.64990234375,4.260009765625-5.320068359375,20.800048828125,27.239990234375,8.75,38.43994140625,11.989990234375,19.360107421875-.489990234375,38.8900146484375.68994140625,58.489990234375-.0899658203125,10.699951171875,1.1500244140625,88.85009765625-6.5400390625,54.030029296875,16.47998046875-20.6400146484375-.8599853515625-41.5-.25-62.199951171875-.3900146484375-26.830078125-5.31005859375-38.6500244140625,17.1400146484375-8.469970703125,16.1300048828125,15.5599365234375.1500244140625,31.85986328125-.5999755859375,46.85986328125-.3299560546875,1.469970703125,7.43994140625-4.639892578125,22.929931640625,7.81005859375,24.25,12.300048828125.18994140625,26.68994140625-.1800537109375,37.679931640625.159912109375-4.02001953125,4.110107421875-10.3199462890625,11.1700439453125-15.5799560546875,16.010009765625-3.3399658203125,6.9599609375-10.8399658203125.6900634765625-16.8099365234375,3.2900390625-12.10009765625-.989990234375-23.6400146484375.3699951171875-35.9100341796875-.320068359375-28.47998046875-.18994140625-56.9000244140625.650146484375-85.3199462890625-.0799560546875-21.25.510009765625-41.56005859375-.1300048828125-62.9100341796875.280029296875-20.1500244140625-.5699462890625-42.4500732421875,2.72998046875-60.6199951171875-7.9400634765625-6.1600341796875-6.869873046875-20.7099609375-12.260009765625-3.969970703125-11.8299560546875,16.619873046875.780029296875,33.5599365234375.489990234375,50.280029296875.25,19.72998046875,4.25,18.06982421875-11.6900634765625,16.8798828125-25.9599609375.9599609375-36.260009765625-.0999755859375-72.6300048828125.330078125-108.800048828125,4.77001953125-18.7999267578125-13.1900634765625-17.5799560546875-26.340087890625-17.2999267578125-15.3599853515625.47998046875-30.5999755859375.010009765625-45.72998046875.2099609375-5.9599609375-.090087890625-12.9599609375,1.68994140625-18.199951171875-.0999755859375-.9100341796875-6.5999755859375-.530029296875-19.0799560546875,10.0899658203125-15.7200927734375,43.22998046875-1.0499267578125,86.7999267578125.260009765625,130.0899658203125-.2799072265625,61.300048828125.719970703125,122.6600341796875-.6099853515625,183.9599609375.4300537109375,22.6800537109375-1.2000732421875,45.050048828125.10986328125,67.35009765625-.360107421875,14.409912109375,2.10009765625,43.22998046875-8.010009765625,37.159912109375,16.1199951171875ZM332.418549746158533,128.765088682886926c-1.02001953125,2.830078125-5.070068359375,5.3699951171875-6.97998046875,8.3900146484375-1.77001953125.9300537109375-2.2000732421875-.8599853515625-4.2000732421875-.8599853515625s-3.3099365234375,2.409912109375-3.5499267578125.429931640625c1-2.68994140625,4.699951171875-5.18994140625,6.5198974609375-8.1199951171875,2.2100830078125.7200927734375,7.77001953125-1.7598876953125,8.2100830078125.1600341796875ZM316.338471621158533,128.655103331324426c-3.8699951171875,6.1300048828125-7.8599853515625,9.2899169921875-14.669921875,8.0699462890625,1.599853515625-5.489990234375,8.5599365234375-10.260009765625,14.669921875-8.0699462890625ZM300.418549746158533,128.765088682886926c-3.260009765625,4.56005859375-10.6700439453125,15.1500244140625-8.64013671875,1.169921875-.0299072265625-2.9599609375,2.81005859375-.429931640625,4.530029296875-1.119873046875,2.300048828125-.580078125,3.880126953125-2.0400390625,4.110107421875-.050048828125ZM295.078461855533533,184.595166807886926c2.1800537109375-.550048828125,3.820068359375-1.7100830078125,3.9300537109375.169921875.1600341796875,2.669921875-1.9600830078125,1.93994140625-3.7301025390625,3.93994140625-2.349853515625,3.72998046875-4.0299072265625,5.9600830078125-3.4599609375.070068359375-1.27001953125-3.47998046875-.3399658203125-4.6300048828125,3.260009765625-4.179931640625ZM294.338471621158533,244.175000792261926c-1.530029296875,1.7301025390625-.669921875,3.9600830078125-2.97998046875,3.9600830078125-1.2099609375-1.969970703125,1.1099853515625-13.6600341796875,6.2099609375-7.4400634765625,1.530029296875,1.72998046875-1.699951171875,1.739990234375-3.22998046875,3.47998046875ZM375.358491152408533,69.235059386011926c8.4599609375.969970703125,18.219970703125-2,15.8900146484375-12.4599609375.010009765625-4.18994140625,1.0699462890625-9.22998046875-4.1400146484375-10.5-16.969970703125-10.739990234375-30.219970703125,17.239990234375-11.75,22.9599609375ZM335.358491152408533,69.135083800074426c16.669921875,3.1099853515625,21.56005859375-12.8299560546875,11.9000244140625-23.1199951171875-23.1199951171875-9.679931640625-26.5599365234375,19.179931640625-11.9000244140625,23.1199951171875ZM295.358491152408533,68.545117979761926c6.3900146484375.14990234375,16.3499755859375,1.5899658203125,16.050048828125-7.77001953125,0-5.1099853515625,1.919921875-12.4000244140625-4.27001953125-14.56005859375-18.9300537109375-11.5400390625-29.31005859375,18.840087890625-11.780029296875,22.330078125ZM59.358491152408533,65.155103331324426c35.909912109375-.800048828125,71.1199951171875-.7000732421875,106.6300048828125-.300048828125,16.0899658203125-2.5198974609375,49.3599853515625,5,60.5-3.9599609375,5.3499755859375-19.0599365234375-23.3399658203125-9.8199462890625-33.780029296875-12.2000732421875-17.8299560546875-.0399169921875-35.489990234375.070068359375-53.3199462890625-.179931640625-19.2099609375.47998046875-38.31005859375-.3599853515625-57.780029296875.4599609375-7.679931640625.3701171875-14.590087890625-1.139892578125-22.25-.300048828125-10.469970703125.2401123046875-10.1099853515625,15.7100830078125,0,16.4801025390625ZM192.708466738346033,48.695020323511926c-17.8299560546875-.0399169921875-35.489990234375.070068359375-53.3199462890625-.179931640625-19.2099609375.47998046875-38.31005859375-.3599853515625-57.780029296875.4599609375-7.679931640625.3701171875-14.590087890625-1.139892578125-22.25-.300048828125-10.469970703125.2401123046875-10.1099853515625,15.7100830078125,0,16.4801025390625,35.909912109375-.800048828125,71.1199951171875-.7000732421875,106.6300048828125-.300048828125,16.0899658203125-2.5198974609375,49.3599853515625,5,60.5-3.9599609375,5.3499755859375-19.0599365234375-23.3399658203125-9.8199462890625-33.780029296875-12.2000732421875ZM307.138520449283533,46.215039854761926c-18.9300537109375-11.5400390625-29.31005859375,18.840087890625-11.780029296875,22.330078125,6.3900146484375.14990234375,16.3499755859375,1.5899658203125,16.050048828125-7.77001953125,0-5.1099853515625,1.919921875-12.4000244140625-4.27001953125-14.56005859375ZM347.258515566471033,46.015088682886926c-23.1199951171875-9.679931640625-26.5599365234375,19.179931640625-11.9000244140625,23.1199951171875,16.669921875,3.1099853515625,21.56005859375-12.8299560546875,11.9000244140625-23.1199951171875ZM391.248505800846033,56.775098448511926c.010009765625-4.18994140625,1.0699462890625-9.22998046875-4.1400146484375-10.5-16.969970703125-10.739990234375-30.219970703125,17.239990234375-11.75,22.9599609375,8.4599609375.969970703125,18.219970703125-2,15.8900146484375-12.4599609375ZM391.248505800846033,56.775098448511926c.010009765625-4.18994140625,1.0699462890625-9.22998046875-4.1400146484375-10.5-16.969970703125-10.739990234375-30.219970703125,17.239990234375-11.75,22.9599609375,8.4599609375.969970703125,18.219970703125-2,15.8900146484375-12.4599609375ZM347.258515566471033,46.015088682886926c-23.1199951171875-9.679931640625-26.5599365234375,19.179931640625-11.9000244140625,23.1199951171875,16.669921875,3.1099853515625,21.56005859375-12.8299560546875,11.9000244140625-23.1199951171875ZM307.138520449283533,46.215039854761926c-18.9300537109375-11.5400390625-29.31005859375,18.840087890625-11.780029296875,22.330078125,6.3900146484375.14990234375,16.3499755859375,1.5899658203125,16.050048828125-7.77001953125,0-5.1099853515625,1.919921875-12.4000244140625-4.27001953125-14.56005859375ZM192.708466738346033,48.695020323511926c-17.8299560546875-.0399169921875-35.489990234375.070068359375-53.3199462890625-.179931640625-19.2099609375.47998046875-38.31005859375-.3599853515625-57.780029296875.4599609375-7.679931640625.3701171875-14.590087890625-1.139892578125-22.25-.300048828125-10.469970703125.2401123046875-10.1099853515625,15.7100830078125,0,16.4801025390625,35.909912109375-.800048828125,71.1199951171875-.7000732421875,106.6300048828125-.300048828125,16.0899658203125-2.5198974609375,49.3599853515625,5,60.5-3.9599609375,5.3499755859375-19.0599365234375-23.3399658203125-9.8199462890625-33.780029296875-12.2000732421875Z"
      />
      <path
        class="cls-2"
        d="M379.958466738346033,283.745069151636926c-1.8199462890625,1.81005859375-2.4000244140625-.659912109375-4.9100341796875-.0999755859375-2.719970703125.6099853515625-3.3099365234375,2.3199462890625-5.1298828125.510009765625-1.280029296875-1.280029296875,1.43994140625-1.300048828125,2.72998046875-2.5799560546875,1.280029296875-1.2900390625.679931640625-3.070068359375,2.489990234375-3.070068359375,1.8199462890625,0,.93994140625,2.050048828125,2.22998046875,3.340087890625,1.280029296875,1.2799072265625,3.8699951171875.60986328125,2.5899658203125,1.89990234375ZM418.658539980533533,264.815137511011926c-18.300048828125-1.739990234375-13.1201171875,3.39990234375-18,18.159912109375,11.869873046875-1.43994140625,45.739990234375-21.469970703125,18-18.159912109375ZM408.628510683658533,96.735059386011926c-22.300048828125.469970703125-44.6700439453125-.8399658203125-67.35009765625.360107421875-61.2999267578125-1.0400390625-122.659912109375.2899169921875-183.9599609375-.4300537109375-43.2900390625.5399169921875-86.8599853515625-.77001953125-130.0899658203125.2799072265625-10.6199951171875-3.35986328125-11,9.1201171875-10.0899658203125,15.7200927734375,5.239990234375,1.7899169921875,12.239990234375.0098876953125,18.199951171875.0999755859375,15.1300048828125-.199951171875,30.3699951171875.27001953125,45.72998046875-.2099609375,13.1500244140625-.280029296875,31.110107421875-1.5,26.340087890625,17.2999267578125-.4300537109375,36.1700439453125.6298828125,72.5400390625-.330078125,108.800048828125,1.18994140625,14.2698974609375,2.85009765625,30.2099609375-16.8798828125,25.9599609375-16.7200927734375.239990234375-33.66015625.530029296875-50.280029296875-.25-16.739990234375-.4300537109375-2.1900634765625,4.9600830078125,3.969970703125,11.8299560546875,18.169921875,10.6700439453125,40.469970703125,7.3701171875,60.6199951171875,7.9400634765625,21.3499755859375-.4100341796875,41.6600341796875.22998046875,62.9100341796875-.280029296875,28.419921875.7301025390625,56.8399658203125-.1099853515625,85.3199462890625.0799560546875,12.27001953125.6900634765625,23.8099365234375-.669921875,35.9100341796875.320068359375,5.969970703125-2.5999755859375,13.469970703125,3.669921875,16.8099365234375-3.2900390625,5.260009765625-4.8399658203125,11.5599365234375-11.89990234375,15.5799560546875-16.010009765625-10.989990234375-.3399658203125-25.3798828125.030029296875-37.679931640625-.159912109375-12.449951171875-1.320068359375-6.340087890625-16.81005859375-7.81005859375-24.25-15-.27001953125-31.2999267578125.47998046875-46.85986328125.3299560546875-30.1800537109375,1.010009765625-18.360107421875-21.4400634765625,8.469970703125-16.1300048828125,20.699951171875.1400146484375,41.5599365234375-.469970703125,62.199951171875.3900146484375,34.820068359375-23.02001953125-43.330078125-15.3299560546875-54.030029296875-16.47998046875-19.5999755859375.7799072265625-39.1298828125-.4000244140625-58.489990234375.0899658203125-11.199951171875-3.239990234375-43.760009765625,8.81005859375-38.43994140625-11.989990234375,7.8199462890625-8.949951171875,22.9599609375-2.31005859375,33.64990234375-4.260009765625,17.860107421875-.0799560546875,35.52001953125,0,53.330078125.590087890625,10.469970703125-.39013671875,20.6099853515625-.35009765625,31.0899658203125-.1700439453125,4.2100830078125-1.2301025390625,11.9500732421875,3.2899169921875,8.5499267578125-4.1400146484375,5.630126953125-9.18994140625-24.739990234375-1.6400146484375-30.47998046875-3.72998046875-11.58984375-2.52001953125-61.5299072265625,5.030029296875-63.7899169921875-4.4599609375-10.1900634765625-20.090087890625,45.8599853515625-9.739990234375,56.1400146484375-11.489990234375,29.919921875-.800048828125,59.919921875.2099609375,89.969970703125-.66015625,9.669921875,2.9500732421875,18.199951171875-10.179931640625,7.6500244140625-14.93994140625-6.9600830078125-1.27001953125-13.8699951171875-.47998046875-20.9500732421875-.5400390625-13.429931640625-.8299560546875-26.5.260009765625-39.989990234375-.2899169921875-9.5400390625-.0899658203125-35.219970703125,4.6199951171875-29.3299560546875-12,6.7000732421875-9.1400146484375,21.9000244140625-1.0400390625,30.9300537109375-4.1199951171875,2.010009765625-5.699951171875-1.719970703125-13.7099609375.97998046875-19.9300537109375,5.89990234375-8.5999755859375,52.280029296875-2.1900634765625,65.8599853515625-3.6900634765625,34.4400634765625.010009765625,70.2099609375-.58984375,103.7799072265625-.0699462890625,6.070068359375-24.1300048828125-22.75-14.0198974609375-37.159912109375-16.1199951171875Z"
      />
    </g>
  </g>
</svg>
