<svg viewBox="0 0 464.162998175220309 465.69365508928604">
  <defs>
    <style>
      .cls-1 {
        fill: var(--black);
      }

      .cls-2 {
        fill: var(--yellow);
      }
    </style>
  </defs>
  <g>
    <g>
      <path
        class="cls-1"
        d="M106.770506474923423,353.030581311290007c-13.19000244140625-5.409912109375-16.760009765625,37.1600341796875-21.03997802734375,44.580078125-5.09002685546875-3.1201171875-7.6099853515625-18.800048828125-17.28997802734375-11.52001953125-10.010009765625,5.8399658203125,3.0999755859375,15.8499755859375,5.4599609375,22.8199462890625,5.489990234375,11.010009765625,19.21002197265625,26,23.70001220703125,5.4000244140625,3.72998046875-9.93994140625,5.05999755859375-20.330078125,8.6199951171875-30.1400146484375,1.6199951171875-9.4400634765625,13.21002197265625-25.8299560546875.54998779296875-31.1400146484375ZM157.800535771798423,368.190615490977507c-11.54998779296875,1.47998046875-7.52001953125,13.8900146484375-7.9000244140625,21.9300537109375.95001220703125,7.530029296875-3.69000244140625,21.0599365234375,3.77001953125,25.43994140625,13.8399658203125,5.6099853515625,12.32000732421875-12.199951171875,11.83001708984375-20.8599853515625-.4000244140625-8.1199951171875,4.3299560546875-25.9000244140625-7.70001220703125-26.510009765625ZM157.800535771798423,368.190615490977507c-11.54998779296875,1.47998046875-7.52001953125,13.8900146484375-7.9000244140625,21.9300537109375.95001220703125,7.530029296875-3.69000244140625,21.0599365234375,3.77001953125,25.43994140625,13.8399658203125,5.6099853515625,12.32000732421875-12.199951171875,11.83001708984375-20.8599853515625-.4000244140625-8.1199951171875,4.3299560546875-25.9000244140625-7.70001220703125-26.510009765625ZM106.770506474923423,353.030581311290007c-13.19000244140625-5.409912109375-16.760009765625,37.1600341796875-21.03997802734375,44.580078125-5.09002685546875-3.1201171875-7.6099853515625-18.800048828125-17.28997802734375-11.52001953125-10.010009765625,5.8399658203125,3.0999755859375,15.8499755859375,5.4599609375,22.8199462890625,5.489990234375,11.010009765625,19.21002197265625,26,23.70001220703125,5.4000244140625,3.72998046875-9.93994140625,5.05999755859375-20.330078125,8.6199951171875-30.1400146484375,1.6199951171875-9.4400634765625,13.21002197265625-25.8299560546875.54998779296875-31.1400146484375ZM106.770506474923423,353.030581311290007c-13.19000244140625-5.409912109375-16.760009765625,37.1600341796875-21.03997802734375,44.580078125-5.09002685546875-3.1201171875-7.6099853515625-18.800048828125-17.28997802734375-11.52001953125-10.010009765625,5.8399658203125,3.0999755859375,15.8499755859375,5.4599609375,22.8199462890625,5.489990234375,11.010009765625,19.21002197265625,26,23.70001220703125,5.4000244140625,3.72998046875-9.93994140625,5.05999755859375-20.330078125,8.6199951171875-30.1400146484375,1.6199951171875-9.4400634765625,13.21002197265625-25.8299560546875.54998779296875-31.1400146484375ZM157.800535771798423,368.190615490977507c-11.54998779296875,1.47998046875-7.52001953125,13.8900146484375-7.9000244140625,21.9300537109375.95001220703125,7.530029296875-3.69000244140625,21.0599365234375,3.77001953125,25.43994140625,13.8399658203125,5.6099853515625,12.32000732421875-12.199951171875,11.83001708984375-20.8599853515625-.4000244140625-8.1199951171875,4.3299560546875-25.9000244140625-7.70001220703125-26.510009765625ZM157.800535771798423,368.190615490977507c-11.54998779296875,1.47998046875-7.52001953125,13.8900146484375-7.9000244140625,21.9300537109375.95001220703125,7.530029296875-3.69000244140625,21.0599365234375,3.77001953125,25.43994140625,13.8399658203125,5.6099853515625,12.32000732421875-12.199951171875,11.83001708984375-20.8599853515625-.4000244140625-8.1199951171875,4.3299560546875-25.9000244140625-7.70001220703125-26.510009765625ZM106.770506474923423,353.030581311290007c-13.19000244140625-5.409912109375-16.760009765625,37.1600341796875-21.03997802734375,44.580078125-5.09002685546875-3.1201171875-7.6099853515625-18.800048828125-17.28997802734375-11.52001953125-10.010009765625,5.8399658203125,3.0999755859375,15.8499755859375,5.4599609375,22.8199462890625,5.489990234375,11.010009765625,19.21002197265625,26,23.70001220703125,5.4000244140625,3.72998046875-9.93994140625,5.05999755859375-20.330078125,8.6199951171875-30.1400146484375,1.6199951171875-9.4400634765625,13.21002197265625-25.8299560546875.54998779296875-31.1400146484375ZM106.770506474923423,353.030581311290007c-13.19000244140625-5.409912109375-16.760009765625,37.1600341796875-21.03997802734375,44.580078125-5.09002685546875-3.1201171875-7.6099853515625-18.800048828125-17.28997802734375-11.52001953125-10.010009765625,5.8399658203125,3.0999755859375,15.8499755859375,5.4599609375,22.8199462890625,5.489990234375,11.010009765625,19.21002197265625,26,23.70001220703125,5.4000244140625,3.72998046875-9.93994140625,5.05999755859375-20.330078125,8.6199951171875-30.1400146484375,1.6199951171875-9.4400634765625,13.21002197265625-25.8299560546875.54998779296875-31.1400146484375ZM157.800535771798423,368.190615490977507c-11.54998779296875,1.47998046875-7.52001953125,13.8900146484375-7.9000244140625,21.9300537109375.95001220703125,7.530029296875-3.69000244140625,21.0599365234375,3.77001953125,25.43994140625,13.8399658203125,5.6099853515625,12.32000732421875-12.199951171875,11.83001708984375-20.8599853515625-.4000244140625-8.1199951171875,4.3299560546875-25.9000244140625-7.70001220703125-26.510009765625ZM157.800535771798423,368.190615490977507c-11.54998779296875,1.47998046875-7.52001953125,13.8900146484375-7.9000244140625,21.9300537109375.95001220703125,7.530029296875-3.69000244140625,21.0599365234375,3.77001953125,25.43994140625,13.8399658203125,5.6099853515625,12.32000732421875-12.199951171875,11.83001708984375-20.8599853515625-.4000244140625-8.1199951171875,4.3299560546875-25.9000244140625-7.70001220703125-26.510009765625ZM106.770506474923423,353.030581311290007c-13.19000244140625-5.409912109375-16.760009765625,37.1600341796875-21.03997802734375,44.580078125-5.09002685546875-3.1201171875-7.6099853515625-18.800048828125-17.28997802734375-11.52001953125-10.010009765625,5.8399658203125,3.0999755859375,15.8499755859375,5.4599609375,22.8199462890625,5.489990234375,11.010009765625,19.21002197265625,26,23.70001220703125,5.4000244140625,3.72998046875-9.93994140625,5.05999755859375-20.330078125,8.6199951171875-30.1400146484375,1.6199951171875-9.4400634765625,13.21002197265625-25.8299560546875.54998779296875-31.1400146484375ZM106.770506474923423,353.030581311290007c-13.19000244140625-5.409912109375-16.760009765625,37.1600341796875-21.03997802734375,44.580078125-5.09002685546875-3.1201171875-7.6099853515625-18.800048828125-17.28997802734375-11.52001953125-10.010009765625,5.8399658203125,3.0999755859375,15.8499755859375,5.4599609375,22.8199462890625,5.489990234375,11.010009765625,19.21002197265625,26,23.70001220703125,5.4000244140625,3.72998046875-9.93994140625,5.05999755859375-20.330078125,8.6199951171875-30.1400146484375,1.6199951171875-9.4400634765625,13.21002197265625-25.8299560546875.54998779296875-31.1400146484375ZM157.800535771798423,368.190615490977507c-11.54998779296875,1.47998046875-7.52001953125,13.8900146484375-7.9000244140625,21.9300537109375.95001220703125,7.530029296875-3.69000244140625,21.0599365234375,3.77001953125,25.43994140625,13.8399658203125,5.6099853515625,12.32000732421875-12.199951171875,11.83001708984375-20.8599853515625-.4000244140625-8.1199951171875,4.3299560546875-25.9000244140625-7.70001220703125-26.510009765625ZM157.800535771798423,368.190615490977507c-11.54998779296875,1.47998046875-7.52001953125,13.8900146484375-7.9000244140625,21.9300537109375.95001220703125,7.530029296875-3.69000244140625,21.0599365234375,3.77001953125,25.43994140625,13.8399658203125,5.6099853515625,12.32000732421875-12.199951171875,11.83001708984375-20.8599853515625-.4000244140625-8.1199951171875,4.3299560546875-25.9000244140625-7.70001220703125-26.510009765625ZM106.770506474923423,353.030581311290007c-13.19000244140625-5.409912109375-16.760009765625,37.1600341796875-21.03997802734375,44.580078125-5.09002685546875-3.1201171875-7.6099853515625-18.800048828125-17.28997802734375-11.52001953125-10.010009765625,5.8399658203125,3.0999755859375,15.8499755859375,5.4599609375,22.8199462890625,5.489990234375,11.010009765625,19.21002197265625,26,23.70001220703125,5.4000244140625,3.72998046875-9.93994140625,5.05999755859375-20.330078125,8.6199951171875-30.1400146484375,1.6199951171875-9.4400634765625,13.21002197265625-25.8299560546875.54998779296875-31.1400146484375ZM192.390501592110923,386.140688733165007c1.7900390625-26.6700439453125,2.6700439453125-65.280029296875-33.72998046875-64.9700927734375-29.58001708984375-.6800537109375-59.03997802734375-.2698974609375-88.53997802734375-.3800048828125-42.80999755859375-2.199951171875-74.55999755859375-1.389892578125-69.3699951171875,51.9200439453125-.10003662109375,12.1199951171875-.62005615234375,23.6600341796875.3499755859375,35.75-1.280029296875,17.4300537109375-3.280029296875,40.97998046875,15.15997314453125,50.3900146484375,10.97003173828125,8.419921875,27.30999755859375,6.14990234375,40.530029296875,5.6298828125,14.66998291015625.77001953125,29.4000244140625.2200927734375,44.27996826171875.25,24.72003173828125-3.0299072265625,69.9100341796875,10.2200927734375,84.73004150390625-13.8798828125,13.26995849609375-18.3800048828125,4.260009765625-43.510009765625,6.5899658203125-64.7099609375ZM118.820494267892173,448.940615490977507c-26.3499755859375-.489990234375-53.3299560546875.25-79.719970703125-.5599365234375-30.21002197265625,4.989990234375-21.83001708984375-35.030029296875-21.97998046875-53.300048828125-1.42999267578125-9.1400146484375.05999755859375-17.77001953125-.35003662109375-26.820068359375-1.25-11.8299560546875-.52996826171875-26.889892578125,13.280029296875-30.639892578125,38.03997802734375-1.9500732421875,76.69000244140625-.85009765625,115.29998779296875-.39013671875,27.510009765625-4.619873046875,34.1099853515625,11.0400390625,30.8499755859375,35.4801025390625,1.24005126953125,19.4400634765625-.25994873046875,38.6800537109375.800048828125,58.1199951171875-3.02001953125,28.510009765625-39.08001708984375,14.6300048828125-58.1800537109375,18.1099853515625ZM157.800535771798423,368.190615490977507c-11.54998779296875,1.47998046875-7.52001953125,13.8900146484375-7.9000244140625,21.9300537109375.95001220703125,7.530029296875-3.69000244140625,21.0599365234375,3.77001953125,25.43994140625,13.8399658203125,5.6099853515625,12.32000732421875-12.199951171875,11.83001708984375-20.8599853515625-.4000244140625-8.1199951171875,4.3299560546875-25.9000244140625-7.70001220703125-26.510009765625ZM106.770506474923423,353.030581311290007c-13.19000244140625-5.409912109375-16.760009765625,37.1600341796875-21.03997802734375,44.580078125-5.09002685546875-3.1201171875-7.6099853515625-18.800048828125-17.28997802734375-11.52001953125-10.010009765625,5.8399658203125,3.0999755859375,15.8499755859375,5.4599609375,22.8199462890625,5.489990234375,11.010009765625,19.21002197265625,26,23.70001220703125,5.4000244140625,3.72998046875-9.93994140625,5.05999755859375-20.330078125,8.6199951171875-30.1400146484375,1.6199951171875-9.4400634765625,13.21002197265625-25.8299560546875.54998779296875-31.1400146484375ZM106.770506474923423,353.030581311290007c-13.19000244140625-5.409912109375-16.760009765625,37.1600341796875-21.03997802734375,44.580078125-5.09002685546875-3.1201171875-7.6099853515625-18.800048828125-17.28997802734375-11.52001953125-10.010009765625,5.8399658203125,3.0999755859375,15.8499755859375,5.4599609375,22.8199462890625,5.489990234375,11.010009765625,19.21002197265625,26,23.70001220703125,5.4000244140625,3.72998046875-9.93994140625,5.05999755859375-20.330078125,8.6199951171875-30.1400146484375,1.6199951171875-9.4400634765625,13.21002197265625-25.8299560546875.54998779296875-31.1400146484375ZM157.800535771798423,368.190615490977507c-11.54998779296875,1.47998046875-7.52001953125,13.8900146484375-7.9000244140625,21.9300537109375.95001220703125,7.530029296875-3.69000244140625,21.0599365234375,3.77001953125,25.43994140625,13.8399658203125,5.6099853515625,12.32000732421875-12.199951171875,11.83001708984375-20.8599853515625-.4000244140625-8.1199951171875,4.3299560546875-25.9000244140625-7.70001220703125-26.510009765625ZM157.800535771798423,368.190615490977507c-11.54998779296875,1.47998046875-7.52001953125,13.8900146484375-7.9000244140625,21.9300537109375.95001220703125,7.530029296875-3.69000244140625,21.0599365234375,3.77001953125,25.43994140625,13.8399658203125,5.6099853515625,12.32000732421875-12.199951171875,11.83001708984375-20.8599853515625-.4000244140625-8.1199951171875,4.3299560546875-25.9000244140625-7.70001220703125-26.510009765625ZM106.770506474923423,353.030581311290007c-13.19000244140625-5.409912109375-16.760009765625,37.1600341796875-21.03997802734375,44.580078125-5.09002685546875-3.1201171875-7.6099853515625-18.800048828125-17.28997802734375-11.52001953125-10.010009765625,5.8399658203125,3.0999755859375,15.8499755859375,5.4599609375,22.8199462890625,5.489990234375,11.010009765625,19.21002197265625,26,23.70001220703125,5.4000244140625,3.72998046875-9.93994140625,5.05999755859375-20.330078125,8.6199951171875-30.1400146484375,1.6199951171875-9.4400634765625,13.21002197265625-25.8299560546875.54998779296875-31.1400146484375ZM106.770506474923423,353.030581311290007c-13.19000244140625-5.409912109375-16.760009765625,37.1600341796875-21.03997802734375,44.580078125-5.09002685546875-3.1201171875-7.6099853515625-18.800048828125-17.28997802734375-11.52001953125-10.010009765625,5.8399658203125,3.0999755859375,15.8499755859375,5.4599609375,22.8199462890625,5.489990234375,11.010009765625,19.21002197265625,26,23.70001220703125,5.4000244140625,3.72998046875-9.93994140625,5.05999755859375-20.330078125,8.6199951171875-30.1400146484375,1.6199951171875-9.4400634765625,13.21002197265625-25.8299560546875.54998779296875-31.1400146484375ZM157.800535771798423,368.190615490977507c-11.54998779296875,1.47998046875-7.52001953125,13.8900146484375-7.9000244140625,21.9300537109375.95001220703125,7.530029296875-3.69000244140625,21.0599365234375,3.77001953125,25.43994140625,13.8399658203125,5.6099853515625,12.32000732421875-12.199951171875,11.83001708984375-20.8599853515625-.4000244140625-8.1199951171875,4.3299560546875-25.9000244140625-7.70001220703125-26.510009765625ZM157.800535771798423,368.190615490977507c-11.54998779296875,1.47998046875-7.52001953125,13.8900146484375-7.9000244140625,21.9300537109375.95001220703125,7.530029296875-3.69000244140625,21.0599365234375,3.77001953125,25.43994140625,13.8399658203125,5.6099853515625,12.32000732421875-12.199951171875,11.83001708984375-20.8599853515625-.4000244140625-8.1199951171875,4.3299560546875-25.9000244140625-7.70001220703125-26.510009765625ZM106.770506474923423,353.030581311290007c-13.19000244140625-5.409912109375-16.760009765625,37.1600341796875-21.03997802734375,44.580078125-5.09002685546875-3.1201171875-7.6099853515625-18.800048828125-17.28997802734375-11.52001953125-10.010009765625,5.8399658203125,3.0999755859375,15.8499755859375,5.4599609375,22.8199462890625,5.489990234375,11.010009765625,19.21002197265625,26,23.70001220703125,5.4000244140625,3.72998046875-9.93994140625,5.05999755859375-20.330078125,8.6199951171875-30.1400146484375,1.6199951171875-9.4400634765625,13.21002197265625-25.8299560546875.54998779296875-31.1400146484375ZM106.770506474923423,353.030581311290007c-13.19000244140625-5.409912109375-16.760009765625,37.1600341796875-21.03997802734375,44.580078125-5.09002685546875-3.1201171875-7.6099853515625-18.800048828125-17.28997802734375-11.52001953125-10.010009765625,5.8399658203125,3.0999755859375,15.8499755859375,5.4599609375,22.8199462890625,5.489990234375,11.010009765625,19.21002197265625,26,23.70001220703125,5.4000244140625,3.72998046875-9.93994140625,5.05999755859375-20.330078125,8.6199951171875-30.1400146484375,1.6199951171875-9.4400634765625,13.21002197265625-25.8299560546875.54998779296875-31.1400146484375ZM157.800535771798423,368.190615490977507c-11.54998779296875,1.47998046875-7.52001953125,13.8900146484375-7.9000244140625,21.9300537109375.95001220703125,7.530029296875-3.69000244140625,21.0599365234375,3.77001953125,25.43994140625,13.8399658203125,5.6099853515625,12.32000732421875-12.199951171875,11.83001708984375-20.8599853515625-.4000244140625-8.1199951171875,4.3299560546875-25.9000244140625-7.70001220703125-26.510009765625ZM157.800535771798423,368.190615490977507c-11.54998779296875,1.47998046875-7.52001953125,13.8900146484375-7.9000244140625,21.9300537109375.95001220703125,7.530029296875-3.69000244140625,21.0599365234375,3.77001953125,25.43994140625,13.8399658203125,5.6099853515625,12.32000732421875-12.199951171875,11.83001708984375-20.8599853515625-.4000244140625-8.1199951171875,4.3299560546875-25.9000244140625-7.70001220703125-26.510009765625ZM106.770506474923423,353.030581311290007c-13.19000244140625-5.409912109375-16.760009765625,37.1600341796875-21.03997802734375,44.580078125-5.09002685546875-3.1201171875-7.6099853515625-18.800048828125-17.28997802734375-11.52001953125-10.010009765625,5.8399658203125,3.0999755859375,15.8499755859375,5.4599609375,22.8199462890625,5.489990234375,11.010009765625,19.21002197265625,26,23.70001220703125,5.4000244140625,3.72998046875-9.93994140625,5.05999755859375-20.330078125,8.6199951171875-30.1400146484375,1.6199951171875-9.4400634765625,13.21002197265625-25.8299560546875.54998779296875-31.1400146484375ZM106.770506474923423,353.030581311290007c-13.19000244140625-5.409912109375-16.760009765625,37.1600341796875-21.03997802734375,44.580078125-5.09002685546875-3.1201171875-7.6099853515625-18.800048828125-17.28997802734375-11.52001953125-10.010009765625,5.8399658203125,3.0999755859375,15.8499755859375,5.4599609375,22.8199462890625,5.489990234375,11.010009765625,19.21002197265625,26,23.70001220703125,5.4000244140625,3.72998046875-9.93994140625,5.05999755859375-20.330078125,8.6199951171875-30.1400146484375,1.6199951171875-9.4400634765625,13.21002197265625-25.8299560546875.54998779296875-31.1400146484375ZM157.800535771798423,368.190615490977507c-11.54998779296875,1.47998046875-7.52001953125,13.8900146484375-7.9000244140625,21.9300537109375.95001220703125,7.530029296875-3.69000244140625,21.0599365234375,3.77001953125,25.43994140625,13.8399658203125,5.6099853515625,12.32000732421875-12.199951171875,11.83001708984375-20.8599853515625-.4000244140625-8.1199951171875,4.3299560546875-25.9000244140625-7.70001220703125-26.510009765625ZM157.800535771798423,368.190615490977507c-11.54998779296875,1.47998046875-7.52001953125,13.8900146484375-7.9000244140625,21.9300537109375.95001220703125,7.530029296875-3.69000244140625,21.0599365234375,3.77001953125,25.43994140625,13.8399658203125,5.6099853515625,12.32000732421875-12.199951171875,11.83001708984375-20.8599853515625-.4000244140625-8.1199951171875,4.3299560546875-25.9000244140625-7.70001220703125-26.510009765625ZM106.770506474923423,353.030581311290007c-13.19000244140625-5.409912109375-16.760009765625,37.1600341796875-21.03997802734375,44.580078125-5.09002685546875-3.1201171875-7.6099853515625-18.800048828125-17.28997802734375-11.52001953125-10.010009765625,5.8399658203125,3.0999755859375,15.8499755859375,5.4599609375,22.8199462890625,5.489990234375,11.010009765625,19.21002197265625,26,23.70001220703125,5.4000244140625,3.72998046875-9.93994140625,5.05999755859375-20.330078125,8.6199951171875-30.1400146484375,1.6199951171875-9.4400634765625,13.21002197265625-25.8299560546875.54998779296875-31.1400146484375ZM224.660521123360923,56.830630139415007C230.210508916329673,10.380678967540007,208.260496709298423-3.639340563709993,164.660521123360923,1.170595959727507c-26.83001708984375-.9000244140625-53.510009765625.1199951171875-80-.25C60.940550420235923,3.960635022227507,26.190550420235923-8.529355212147493,9.400511357735923,12.800600842540007-6.069459345389077,28.220644787852507,2.600523564767173,53.400698498790007,1.010496709298423,72.830630139415007c-2.1199951171875,26.9599609375-4.469970703125,73.010009765625,33.6500244140625,71.6099853515625,15.3900146484375,1.6300048828125,30.8599853515625-.030029296875,46.219970703125.280029296875,15.4300537109375-1.0699462890625,8.3800048828125,2.0499267578125,8.6300048828125,14.25-3.0899658203125,9.4100341796875-18.88995361328125,4.239990234375-18.80999755859375,14.9100341796875,1.32000732421875,12.599853515625,17.6400146484375,6.6298828125,26.1300048828125,7.7099609375,10.6500244140625.5,20.9200439453125.3299560546875,31.6300048828125.7099609375,8.44000244140625-1.6099853515625,18.8800048828125,2.77001953125,24.96002197265625-4.449951171875,7.3800048828125-16.1600341796875-22.57000732421875-7.570068359375-18.67999267578125-28.1800537109375-2.3699951171875-7.8199462890625,4.94000244140625-4.8699951171875,9.67999267578125-4.5899658203125,4.8800048828125-.1300048828125,8.989990234375-.550048828125,13.8699951171875-.25,22.96002197265625-.6199951171875,53.0999755859375,5.429931640625,63.9000244140625-20.949951171875,5.03997802734375-22.02001953125,1.29998779296875-44.7200927734375,2.469970703125-67.050048828125ZM208.930540654610923,32.790591076915007c-24.32000732421875,22.6800537109375-49.010009765625,49.949951171875-72.21002197265625,71.97998046875,1.9000244140625-7.419921875,1.3900146484375-11.919921875,9.1199951171875-17.0400390625,8.20001220703125-8.93994140625,18.04998779296875-16.3199462890625,25.58001708984375-26.139892578125,9.52996826171875-7.800048828125,17.1099853515625-17.840087890625,26.7099609375-25.949951171875,4.82000732421875-4.1900634765625,9.33001708984375-14.400146484375,10.800048828125-2.85009765625ZM203.740538213204673,22.270571545665007c-19.9200439453125,18.1201171875-38.42999267578125,38.280029296875-57.6300048828125,57.330078125-6.1500244140625,8.419921875-1.77001953125-.6500244140625-.85003662109375-4.6201171875.77001953125-6.159912109375,6.1800537109375-8.7698974609375,10.34002685546875-12.5399169921875,2.83001708984375-4.7100830078125,6.989990234375-7.9100341796875,11.0999755859375-11.5699462890625,6.5400390625-7.22998046875,14.17999267578125-13.1600341796875,20.800048828125-20.530029296875,5.489990234375-4.219970703125,10.00994873046875-16.6700439453125,16.239990234375-8.070068359375ZM190.660521123360923,16.440615490977507c2.96002197265625,2.25-11.21002197265625,12.030029296875-14.19000244140625,16.2000732421875-8.5,9.159912109375-19.21002197265625,19.7099609375-27.15997314453125,27.599853515625,1.8599853515625-14.85986328125,8.6099853515625-14.3299560546875,16.3499755859375-25.0699462890625,9.27001953125-4.760009765625,13.29998779296875-20.2698974609375,25-18.72998046875ZM177.040526006173423,16.730532483165007c-4.58001708984375,4.5-11.33001708984375,10.650146484375-16.58001708984375,15.900146484375-5.0999755859375,4.260009765625-7.75,12.68994140625-10.53997802734375,2.39990234375,8.22998046875-5.22998046875,16.91998291015625-22.530029296875,27.1199951171875-18.300048828125ZM149.500547978829673,20.010561780040007c1.69000244140625-3.02001953125,9.8499755859375-5.8099365234375,11.54998779296875-3.25-3.6099853515625,3.820068359375-9.92999267578125,8.830078125-13.82000732421875,13.530029296875-6.05999755859375-4.5699462890625-1.44000244140625-5.8800048828125,2.27001953125-10.280029296875ZM136.750547978829673,17.080630139415007c2.41998291015625.550048828125,7.64996337890625-2.530029296875,8.29998779296875-.330078125-2.23004150390625,4.10009765625-8.1400146484375,7.14013671875-13.260009765625,4.9100341796875,1.71002197265625-1.6099853515625,3.15997314453125-3.1099853515625,4.96002197265625-4.5799560546875ZM132.720518681954673,60.980532483165007c-3.3599853515625,12.070068359375-7.52996826171875,23.760009765625-10.03997802734375,35.9600830078125-5.030029296875,20.1700439453125-17.75,12.2000732421875-23.780029296875-2.27001953125-6.27996826171875-6.4000244140625-17.54998779296875-25.3299560546875-2.239990234375-24.8900146484375,8.17999267578125-1.050048828125,8.8800048828125,10.56005859375,13.1199951171875,13.22998046875,2.47003173828125-.409912109375.22998046875-2.889892578125.91998291015625-5.2899169921875,1.4200439453125-5.56005859375,3.83001708984375-10.3599853515625,4.55999755859375-16.02001953125,4.25-6.8399658203125,3.20001220703125-16.3699951171875,8.73004150390625-22.4300537109375,16.760009765625-7.3599853515625,12.28997802734375,12.0400390625,8.72998046875,21.7099609375ZM102.080504033517173,51.890688733165007c1.260009765625-.3701171875.1300048828125,1.08984375-.44000244140625,2.199951171875-2.3599853515625.0699462890625-1.3399658203125-1.68994140625.44000244140625-2.199951171875ZM76.660521123360923,16.900698498790007c16.40997314453125-6.670166015625-33.20001220703125,34.43994140625-34.44000244140625,38.2598876953125-8.20001220703125,7.050048828125-14.3499755859375,15.4901123046875-22.29998779296875,22.52001953125-4.7900390625,7.739990234375-3.08001708984375-1.2799072265625-3.6300048828125-5,14.3699951171875-12.02001953125,26.33001708984375-27.2099609375,40.57000732421875-39.6500244140625,5.75-4.969970703125,11.6300048828125-16.8599853515625,19.79998779296875-16.1298828125ZM32.870543096017173,17.150698498790007c-3.32000732421875,3.0599365234375-7.050048828125,5.2899169921875-9.86004638671875,9.159912109375-12.88995361328125,15.1600341796875-.6199951171875-12.1500244140625,9.86004638671875-9.159912109375ZM38.170530888985923,19.680605725352507c1.44000244140625-3.4000244140625,2.9599609375-4.010009765625,6.489990234375-2.9599609375,2,0,3.21002197265625-1.75,3.69000244140625.18994140625-6.8599853515625,8.4200439453125-17.53997802734375,16.6199951171875-24.97998046875,25.8199462890625-7.97003173828125,5.39013671875-6.6199951171875,11.6800537109375-7.08001708984375-2.0499267578125,7.82000732421875-6.0999755859375,14.3800048828125-14.2000732421875,21.8800048828125-21ZM16.990538213204673,60.770571545665007c-.3900146484375-2.119873046875-1.5-2.27001953125-.69000244140625-4.0999755859375,12.26995849609375-9.8599853515625,22.05999755859375-22.989990234375,34.17999267578125-33.2099609375,5.71002197265625-7.4200439453125,5.719970703125-7.3399658203125,14.44000244140625-6.6900634765625-10.46002197265625,11.4300537109375-24.77001953125,23.010009765625-35.16998291015625,35.550048828125-4.74005126953125,3.679931640625-9.19000244140625,9.9599609375-13.19000244140625,12.929931640625-1.94000244140625-.489990234375.79998779296875-2.510009765625.42999267578125-4.47998046875ZM16.300535771798423,88.670595959727507c16.969970703125-14.7899169921875,31.8499755859375-32.4400634765625,48.47998046875-47.719970703125,4.22003173828125-5.6700439453125,9.6500244140625-9.3399658203125,14.32000732421875-14.4700927734375,4.83001708984375-3.159912109375,6.6300048828125-11.7799072265625,13.55999755859375-9.2598876953125,13.75-5.6300048828125-10.17999267578125,13.199951171875-12.239990234375,15.3699951171875-8.77001953125,8.389892578125-16.47998046875,17.739990234375-25.60003662109375,25.5799560546875-8.66998291015625,10.3299560546875-19.219970703125,19.0899658203125-28.51995849609375,29.0899658203125-6.04998779296875,4.2100830078125-11.6600341796875,18.9300537109375-10,1.4100341796875ZM16.270506474923423,110.830630139415007c-1.1400146484375-8.830078125,8.989990234375-12.9100341796875,13.9100341796875-19.1400146484375,10.1099853515625-11.3199462890625,21.469970703125-21.1300048828125,31.699951171875-32.2999267578125,8.25-7.77001953125,15.45001220703125-15.9400634765625,24.050048828125-23.280029296875,3.94000244140625-4.610107421875,17.510009765625-21.6400146484375,22.72998046875-18.840087890625,10.53997802734375-3.619873046875-4.010009765625,5.8900146484375-5.66998291015625,9.070068359375-9.23004150390625,9.969970703125-19.17999267578125,18.889892578125-28.60003662109375,29-13.3399658203125,12.31005859375-25.219970703125,25.969970703125-38.5799560546875,38.22998046875-4.8699951171875,3.02001953125-16.77001953125,21.22998046875-19.5400390625,17.260009765625ZM21.930540654610923,123.530581311290007c-9.08001708984375-6.260009765625,7.0799560546875-12.429931640625,10.449951171875-18.97998046875,21.52001953125-19.169921875,40.3800048828125-41.030029296875,61.32000732421875-60.669921875,7-6.9500732421875,13.36004638671875-13.760009765625,20.35003662109375-20.85009765625,7.90997314453125-6.8499755859375,3.260009765625-7.2099609375,14.51995849609375-6.14990234375-6.1099853515625,6.7799072265625-23.199951171875,10.77001953125-23.01995849609375,23.739990234375-4.07000732421875,3.52001953125-8.4200439453125,6.280029296875-11.27001953125,11.030029296875-3.92999267578125,4.5599365234375-11.32000732421875,3.719970703125-14.83001708984375,9.169921875-8.2099609375,15.429931640625-21.38995361328125,26.760009765625-33.97998046875,39.2099609375-7.72998046875,8.1500244140625-15.8699951171875,15.6800537109375-23.53997802734375,23.5ZM32.620543096017173,129.100649670665007c-13.07000732421875-1.4100341796875,5.79998779296875-11.72998046875,9.219970703125-17.070068359375,9.95001220703125-10.8798828125,21.10003662109375-21.169921875,31-31.5599365234375,5.02001953125,9.6600341796875-6.3499755859375,12.6099853515625-11.52001953125,19.3900146484375-8.8499755859375,10.119873046875-19.78997802734375,19.869873046875-28.699951171875,29.239990234375ZM40.290526006173423,128.950625256602507c11.02996826171875-10.280029296875,23.6300048828125-23.2000732421875,34.739990234375-34.5899658203125,3.17999267578125-7.1201171875,7.97003173828125,3.760009765625,2.32000732421875,5.5499267578125-5.9000244140625,7.1700439453125-12.72998046875,12.6199951171875-19.239990234375,19.1600341796875-3.5,5.0400390625-12.010009765625,13.449951171875-17.82000732421875,9.8800048828125ZM60.700499150704673,128.980532483165007c-2.32000732421875.6201171875-3.5,1.81005859375-4.38995361328125.030029296875,5-4.9599609375,12.469970703125-11.7999267578125,18.14996337890625-17.5999755859375,4.05999755859375-3.4300537109375,11.72003173828125-17.1500244140625,12.75-5.0198974609375-5.9599609375,5.8199462890625-12.8900146484375,13.0299072265625-19.45001220703125,19.119873046875-1.8399658203125,3.39013671875-3.3800048828125,3.989990234375-7.05999755859375,3.469970703125ZM83.660521123360923,125.390688733165007c-1.79998779296875,3.389892578125-3.280029296875,4.0399169921875-6.969970703125,3.5499267578125-2.36004638671875.6199951171875-3.72003173828125,1.9000244140625-4.4000244140625.02001953125,5.05999755859375-4.5400390625,12.79998779296875-12.6800537109375,17.97998046875-17.5,7.22003173828125,4.3900146484375-2.6400146484375,10.469970703125-6.6099853515625,13.9300537109375ZM96.670530888985923,128.850649670665007c-1.85003662109375.77001953125-2.010009765625-.300048828125-4.010009765625-.300048828125s-2.8599853515625,1.949951171875-3.760009765625.1600341796875c.57000732421875-2.6099853515625,6.260009765625-4.550048828125,7.47998046875-8.1600341796875,7,.580078125,5.20001220703125,4.9200439453125.2900390625,8.300048828125ZM104.270506474923423,128.860659436290007c.6400146484375-5.360107421875,8.30999755859375-2.030029296875,11.95001220703125-3.75-1.78997802734375,3.72998046875-3.91998291015625,4.25-7.6300048828125,3.449951171875-2.44000244140625.5999755859375-4.19000244140625,2.2900390625-4.32000732421875.300048828125ZM105.810545537423423,144.540591076915007c25.3599853515625-1.14990234375,6.92999267578125,3.1600341796875,15.9599609375,21.719970703125-28.26995849609375-1.0499267578125-12.260009765625,2.31005859375-15.9599609375-21.719970703125ZM120.500547978829673,129.060610608165007c20.00994873046875-20.0400390625,42.89996337890625-43.159912109375,64.28997802734375-64.0999755859375,4.95001220703125-6.77001953125,12.1099853515625-11.1400146484375,17.3599853515625-17.8199462890625,7.46002197265625-7.4500732421875,7-11.02001953125,6.8699951171875,1.849853515625-20,18.1800537109375-38.53997802734375,38.4200439453125-57.8399658203125,57.550048828125-8.70001220703125,5.9300537109375-19.8800048828125,26.56005859375-30.67999267578125,22.52001953125ZM136.870543096017173,128.760561780040007c15.1199951171875-16.239990234375,33.5799560546875-33.369873046875,50.02996826171875-49.669921875,4.60003662109375-6.449951171875,11.27001953125-10.760009765625,16.29998779296875-17.050048828125,6.86004638671875-8.179931640625,5.85003662109375-5.719970703125,5.82000732421875,2.949951171875-15.97998046875,13.64013671875-29.53997802734375,30.39013671875-45.3599853515625,44.4300537109375-3.80999755859375,4.9100341796875-8.30999755859375,8.4500732421875-12.47998046875,13.1199951171875-2.8900146484375,4.719970703125-9.8900146484375,8.27001953125-14.30999755859375,6.219970703125ZM156.660521123360923,128.670595959727507c-11.04998779296875,2.780029296875,5.07000732421875-7.510009765625,7.04998779296875-10.7899169921875,7.10003662109375-7.14013671875,13.70001220703125-13.989990234375,20.75-21.25,7.3800048828125-6.580078125,13.96002197265625-13.510009765625,21.2900390625-20.300048828125,4.12994384765625-8.570068359375,3.15997314453125,1.0400390625,3.26995849609375,4.659912109375-12.80999755859375,10.3701171875-23.1400146484375,24.06005859375-35.76995849609375,34.81005859375-4.6700439453125,3.8599853515625-10.57000732421875,15.320068359375-16.59002685546875,12.8699951171875ZM168.600523564767173,128.850649670665007c9.1300048828125-10.4300537109375,22.5-20.860107421875,31.72998046875-32.35009765625,7.4200439453125-4.0399169921875,9.97003173828125-15.659912109375,8.69000244140625.489990234375-9.25,7.5400390625-17.2099609375,17.02001953125-26.1300048828125,25.25-4.3299560546875,7.2100830078125-7.30999755859375,7.3701171875-14.28997802734375,6.610107421875ZM209.050535771798423,110.830630139415007c-4.9000244140625,6.969970703125-15.82000732421875,20.929931640625-24.6600341796875,18.3399658203125-1.3499755859375-1.6600341796875,4.72003173828125-3.6600341796875,5.82000732421875-5.449951171875,2.77001953125-3.5799560546875,5.510009765625-6.27001953125,9.04998779296875-9.0799560546875,3.4300537109375-3.89013671875,13.36004638671875-17.1201171875,9.7900390625-3.81005859375ZM463.840513799142173,430.190615490977507c-.219970703125-9.3699951171875-16.1300048828125-1.2100830078125-10.3800048828125-9.6600341796875,7.55999755859375-15.429931640625.85003662109375-33.6099853515625,3.52001953125-49.949951171875,1.3900146484375-48.030029296875-2.260009765625-70.4000244140625-57.07000732421875-65.6199951171875-29.1300048828125.2799072265625-57.469970703125-.9100341796875-86.469970703125.260009765625-76.44000244140625-10.8299560546875-52.6500244140625,52.7598876953125-57.1400146484375,101.6099853515625-.20001220703125,6.719970703125,2.69000244140625,12.3699951171875,5.57000732421875,18.14990234375-4.71002197265625.81005859375-13.05999755859375-.7598876953125-12.6700439453125,6.360107421875-1.30999755859375,8.030029296875,3.82000732421875,15.5999755859375,4.800048828125,23.6199951171875,1.41998291015625,17.1400146484375,32.76995849609375,7.6500244140625,45.25,9.7099609375,36.14996337890625.5899658203125,72.51995849609375-.4300537109375,108.62994384765625.52001953125,12.81005859375-3.4400634765625,48.85003662109375,7.239990234375,49.550048828125-9.8299560546875,1.69000244140625-8.4200439453125,8.25-16.47998046875,6.40997314453125-25.1700439453125ZM441.000547978829673,406.830630139415007c-3.55999755859375,7.169921875-11.4100341796875,11.300048828125-16.010009765625,18.0799560546875-3.280029296875-.0198974609375-12.8699951171875,1.260009765625-5.6300048828125-2.7099609375,5.0899658203125-1.8800048828125,27.16998291015625-34.4600830078125,21.6400146484375-15.3699951171875ZM416.920530888985923,409.090639905040007c4.90997314453125-7.1199951171875,11.719970703125-12.1199951171875,17.8800048828125-18.10009765625,5.04998779296875-8.22998046875,7.39996337890625-7.47998046875,6.16998291015625,1.9700927734375-8.5,7.260009765625-16.25,15.8199462890625-24.34002685546875,23.8399658203125-6.50994873046875,5.320068359375-6.5799560546875,9.8599853515625-16.05999755859375,8.070068359375,3.4300537109375-5.35009765625,11.71002197265625-10.06005859375,16.35003662109375-15.780029296875ZM388.660521123360923,424.670595959727507c-14.239990234375,6.050048828125,26.280029296875-28.7698974609375,28.05999755859375-31.7799072265625,6.55999755859375-5.39013671875,11.72998046875-11.590087890625,17.280029296875-17.900146484375,5.8699951171875-6.8798828125,8.0899658203125-8.699951171875,6.969970703125,1.9700927734375-11.67999267578125,10.3699951171875-22.69000244140625,22.22998046875-33.989990234375,33.3800048828125-6.3599853515625,4.280029296875-9.69000244140625,15.3599853515625-18.32000732421875,14.3299560546875ZM440.970518681954673,360.960635022227507c-15.8599853515625,14.7099609375-31.55999755859375,30.4100341796875-46.4000244140625,46.5599365234375-4.88995361328125,3.3900146484375-8.53997802734375,7.550048828125-12.8399658203125,11.7099609375-2.08001708984375,5.1900634765625-8.3699951171875,8.2100830078125-12.9000244140625,5.510009765625,15.75-16.119873046875,34.33001708984375-33.85986328125,50.67999267578125-51.0599365234375,6.2900390625-5.8699951171875,11.86004638671875-12.22998046875,18.49005126953125-17.5,3.72998046875-8.8399658203125,3.55999755859375,1,2.969970703125,4.780029296875ZM441.000547978829673,338.830630139415007c1.6099853515625,8.3599853515625-12.71002197265625,17.22998046875-18.1500244140625,23.3800048828125-11.77001953125,11.8199462890625-22.79998779296875,24.0799560546875-35.29998779296875,35.0999755859375-4.6500244140625,4.719970703125-7.96002197265625,9.8499755859375-13.010009765625,14.2099609375,2.3399658203125-7.0699462890625,2.739990234375-14.8599853515625,10.3699951171875-18.43994140625,11.29998779296875-11.830078125,22.94000244140625-23.3599853515625,34.3499755859375-34.97998046875,3.45001220703125-2.469970703125,22.09002685546875-24.7900390625,21.74005126953125-19.27001953125ZM416.900511357735923,353.070620373790007c-11.40997314453125,9.919921875-21.53997802734375,21.06005859375-32.30999755859375,31.68994140625-6.719970703125,9.64013671875-1.010009765625-3.5799560546875-.27996826171875-7.7099609375,17.199951171875-16.31005859375,33.52996826171875-34.449951171875,51.239990234375-50.5,8.92999267578125,6.179931640625-15.17999267578125,19.570068359375-18.6500244140625,26.52001953125ZM427.280516240548423,326.350649670665007c-11.5999755859375,10.6099853515625-21.55999755859375,22.510009765625-33.27001953125,32.8599853515625-11.01995849609375,13.8199462890625-4.8399658203125,3.1900634765625-3.5-4.6800537109375,10.52001953125-9.0999755859375,20.1600341796875-19.659912109375,30.1700439453125-29.5799560546875,2.199951171875-6.1700439453125,14.489990234375-3.5400390625,6.5999755859375,1.4000244140625ZM408.480528447579673,320.440615490977507c3.510009765625,1.4600830078125,7.8399658203125-1.4600830078125,8.5.280029296875-7.280029296875,6.989990234375-16.67999267578125,16.1600341796875-24.35003662109375,24.0799560546875-2.1099853515625-8.5799560546875,3.8900146484375-11.0999755859375,9.1400146484375-17.219970703125,2.8900146484375-2.219970703125,3.9200439453125-5.1099853515625,6.71002197265625-7.1400146484375ZM392.790526006173423,321.110659436290007c2.44000244140625.419921875,7.17999267578125-2.360107421875,8.19000244140625-.4000244140625-2.530029296875,3.25-8.79998779296875,7.5699462890625-11.8800048828125,11.510009765625-6.010009765625-5.0999755859375-.989990234375-7.2900390625,3.69000244140625-11.1099853515625ZM376.730528447579673,321.190615490977507c1.96002197265625-.4000244140625,2.02001953125.260009765625,3.96002197265625-.22998046875,2.39996337890625-.5999755859375,4.02996826171875-2.1600341796875,4.29998779296875-.1800537109375,1.20001220703125,5.4400634765625-11.1500244140625,1.5400390625-8.260009765625.4100341796875ZM368.650511357735923,320.490542248790007c-1.02996826171875.300048828125-2.19000244140625.330078125-3.3499755859375.320068359375,1.0999755859375-.199951171875,2.2099609375-.31005859375,3.3499755859375-.320068359375ZM365.280516240548423,320.810610608165007c-2.41998291015625.43994140625-4.739990234375,1.300048828125-6.9000244140625,2.510009765625,1.300048828125-2.760009765625,4.12005615234375-2.5400390625,6.9000244140625-2.510009765625ZM358.320494267892173,352.900698498790007c1.6700439453125-7.530029296875,3.12005615234375-17.3701171875,12.6300048828125-16.090087890625,13.10003662109375,7.4000244140625-2.8499755859375,29.489990234375-3.54998779296875,41.1400146484375-4.03997802734375,10.0999755859375-3.17999267578125,25.2899169921875-13.45001220703125,31.1400146484375-1.63995361328125.75-3.13995361328125,2.18994140625-4.6199951171875,3.429931640625.9100341796875-1.0400390625,1.97003173828125-2.3199462890625,3.4100341796875-3.659912109375-8.2900390625-1.22998046875-9.71002197265625-11.7000732421875-15.6500244140625-16.530029296875-5.77996826171875-6.6500244140625-14.79998779296875-22.3800048828125-.42999267578125-23.6400146484375,7.1400146484375-1.9300537109375,12.739990234375,19.719970703125,13.75,10.0799560546875,3.96002197265625-2.5699462890625,1.82000732421875-7.179931640625,3.07000732421875-11.179931640625,2.8800048828125-4.6300048828125,1.8599853515625-10.010009765625,4.8399658203125-14.68994140625ZM360.780516240548423,425.150698498790007c-1.67999267578125.139892578125-3.17999267578125-.2401123046875-4.760009765625-.4600830078125-1.3800048828125.22998046875-2.6199951171875.2999267578125-3.3599853515625-.010009765625,1.21002197265625-.2000732421875,2.30999755859375-.1300048828125,3.3599853515625.010009765625,4.530029296875-.72998046875,10.510009765625-3.1800537109375,4.760009765625.4600830078125ZM344.730528447579673,425.160586194102507c-1.96002197265625.4000244140625-2.07000732421875-.5299072265625-4.07000732421875-.5299072265625-5.239990234375,2.4599609375-5.07000732421875-2.06005859375-.34002685546875-2.9700927734375,1,1.2401123046875,7.77001953125,2.02001953125,4.4100341796875,3.5ZM280.420530888985923,416.590639905040007c11.760009765625-8.85009765625,22.969970703125-25.10009765625,33.70001220703125-31.7900390625,5.64996337890625,8.6400146484375-9.48004150390625,12.550048828125-13.48004150390625,19.530029296875-5.0899658203125,7.0400390625-11.80999755859375,12.5899658203125-18.1300048828125,18.3800048828125-3.39996337890625-1.5599365234375-7.53997802734375-3.6900634765625-2.0899658203125-6.1199951171875ZM272.470518681954673,408.570620373790007c13.57000732421875-12.3599853515625,26.6199951171875-25.719970703125,39.42999267578125-39.1199951171875,5.3800048828125-7.22998046875.83001708984375,3.5899658203125.489990234375,7.219970703125-7.29998779296875,6.6900634765625-12.64996337890625,14.9200439453125-20.65997314453125,20.8199462890625-4.6500244140625,4.840087890625-8.46002197265625,9.739990234375-13.8699951171875,13.630126953125-2.80999755859375,6.5799560546875-4.67999267578125,2.25-5.3900146484375-2.550048828125ZM312.890501592110923,400.660586194102507c3.07000732421875-1.72998046875,3.9100341796875-4.7598876953125,6.489990234375-6.4300537109375,1.09002685546875,1.16015625,4.9000244140625,5.25,1.35003662109375,6.670166015625-5.260009765625,5.7099609375-10.70001220703125,10.329833984375-16.3800048828125,15.619873046875-4.47003173828125,4.110107421875-6.22003173828125,11.4100341796875-13.69000244140625,8.6500244140625-3.8599853515625-1.5699462890625,19.20001220703125-19.7099609375,22.22998046875-24.510009765625ZM315.480528447579673,414.320620373790007c3.260009765625-3.3900146484375,12.67999267578125-17.3699951171875,13.80999755859375-5.800048828125-3.97998046875,4.1500244140625-10.19000244140625,8.360107421875-13.75,13.85009765625-1.9100341796875,2.659912109375-3.84002685546875,2.949951171875-6.8800048828125,2.14990234375-2,0-3.05999755859375,2.080078125-3.96002197265625.2900390625,2.27001953125-2.7099609375,7.60003662109375-6.9599609375,10.780029296875-10.489990234375ZM326.910521123360923,354.830630139415007c5.54998779296875-4.02001953125,21.79998779296875-25.7900390625,19-16.5-1.65997314453125,6.300048828125-4.510009765625,10.070068359375-9.3499755859375,14.39990234375-1.530029296875-.22998046875-6.75.380126953125-9.6500244140625,2.10009765625ZM332.230528447579673,413.450625256602507c8.1300048828125,5.6700439453125-6.69000244140625,14.2099609375-11.8699951171875,11.5299072265625,2.5-3.2698974609375,8.7099609375-7.3798828125,11.8699951171875-11.5299072265625ZM348.660521123360923,321.020571545665007c13.739990234375-5.5400390625-13.5,16.010009765625-15.45001220703125,18.72998046875-18.5999755859375,19.9100341796875-38.469970703125,38.5-57.22998046875,58-4.28997802734375,7.9200439453125-4.70001220703125-.389892578125-3-4.7899169921875,1.5-3.9200439453125,5.78997802734375-4.4400634765625,7.44000244140625-8.3699951171875,20.97998046875-19.60009765625,41.219970703125-40.239990234375,60.97998046875-61.010009765625,1.96002197265625-3.18994140625,3.75-3.8900146484375,7.260009765625-2.56005859375ZM320.350523564767173,320.910586194102507c-11.45001220703125,12.3900146484375-25.97998046875,25.5999755859375-37.90997314453125,38.4901123046875-3.87005615234375,2.25-6.780029296875,7.5098876953125-9.70001220703125,9.1298828125-1.95001220703125-.47998046875.719970703125-1.8099365234375.3800048828125-3.780029296875-.35003662109375-2.0899658203125-1.52001953125-2.18994140625-.77001953125-4.0499267578125,9.739990234375-8.6099853515625,19.07000732421875-18.3900146484375,28.3699951171875-27.7900390625,5.83001708984375-4.5699462890625,11.739990234375-16.5599365234375,19.6300048828125-12ZM288.820494267892173,321.120669201915007c-4.41998291015625,3.9599609375-9.00994873046875,7.6298828125-12.969970703125,12.3299560546875-8.03997802734375,7.9100341796875,4.489990234375-14.6199951171875,12.969970703125-12.3299560546875ZM272.350523564767173,344.690615490977507c7.8699951171875-6.1700439453125,14.05999755859375-14.4400634765625,21.8599853515625-20.969970703125,1.60003662109375-3.1400146484375,3.19000244140625-3.4700927734375,6.45001220703125-2.4500732421875,2,0,3.41998291015625-2.3599853515625,3.90997314453125-.419921875-7.40997314453125,7.97998046875-17.0999755859375,17.3299560546875-25.8199462890625,25.260009765625-6.2900390625,7.3499755859375-7.5400390625,11.39990234375-6.4000244140625-1.4200439453125ZM272.350523564767173,376.690615490977507c12.59002685546875-11.1300048828125,24.1400146484375-23.9200439453125,36.46002197265625-35.7000732421875,5.75-5.469970703125,16.6199951171875-19.929931640625,23.8499755859375-20.5198974609375,11.3900146484375-1.8199462890625-3.66998291015625,6.47998046875-5.469970703125,10.0799560546875-8.7900390625,8.3699951171875-16.98004150390625,16.780029296875-26.06005859375,25.1400146484375-6.97998046875,8.260009765625-14.43994140625,15.1900634765625-22,22.7999267578125-6.28997802734375,7.260009765625-8.1199951171875,10.3701171875-6.77996826171875-1.7999267578125ZM444.150511357735923,444.810610608165007c-.29998779296875,5.1199951171875-3.5999755859375,4.070068359375-7.489990234375,3.580078125-41.6099853515625,1.22998046875-82.5999755859375-.1700439453125-124,.5699462890625-13.59002685546875.1600341796875-26.53997802734375-.550048828125-40,.1199951171875-4.21002197265625,1.4599609375-6.32000732421875-5.469970703125-5.30999755859375-7.989990234375,3.78997802734375-1.719970703125,9.40997314453125-.1800537109375,13.8699951171875,0,47.16998291015625-.52001953125,94.02001953125.25,141.44000244140625-.60009765625,7.53997802734375,1.52001953125,16.3599853515625-.159912109375,23.1300048828125.150146484375,1.33001708984375,1.639892578125-.97003173828125,2.169921875-1.6400146484375,4.169921875ZM376.660521123360923,136.360659436290007c-15.239990234375.199951171875-15.6099853515625,25.3099365234375,0,24.4599609375,15.489990234375.1400146484375,15.3599853515625-24.47998046875,0-24.4599609375ZM376.660521123360923,152.360659436290007c-5.30999755859375.2900390625-5.16998291015625-7.4400634765625,0-7.22998046875,5.0999755859375-.2200927734375,5.239990234375,7.5299072265625,0,7.22998046875ZM385.970518681954673,30.110659436290007c-7.1400146484375,10.239990234375-8.21002197265625,26.8798828125-12.25,37.5699462890625-3.5-.9200439453125-4.22998046875-8.5-7.8800048828125-10.5899658203125-7.19000244140625-3.25-14.80999755859375,5.199951171875-10.27001953125,11.93994140625,4.49005126953125,7.820068359375,9.84002685546875,14.4300537109375,14.19000244140625,22.110107421875,16.19000244140625,13.8299560546875,18.6500244140625-17.5400390625,21.45001220703125-28,3.20001220703125-9.780029296875,17.3599853515625-44.840087890625-5.239990234375-33.030029296875ZM385.970518681954673,30.110659436290007c-7.1400146484375,10.239990234375-8.21002197265625,26.8798828125-12.25,37.5699462890625-3.5-.9200439453125-4.22998046875-8.5-7.8800048828125-10.5899658203125-7.19000244140625-3.25-14.80999755859375,5.199951171875-10.27001953125,11.93994140625,4.49005126953125,7.820068359375,9.84002685546875,14.4300537109375,14.19000244140625,22.110107421875,16.19000244140625,13.8299560546875,18.6500244140625-17.5400390625,21.45001220703125-28,3.20001220703125-9.780029296875,17.3599853515625-44.840087890625-5.239990234375-33.030029296875ZM376.660521123360923,136.360659436290007c-15.239990234375.199951171875-15.6099853515625,25.3099365234375,0,24.4599609375,15.489990234375.1400146484375,15.3599853515625-24.47998046875,0-24.4599609375ZM376.660521123360923,152.360659436290007c-5.30999755859375.2900390625-5.16998291015625-7.4400634765625,0-7.22998046875,5.0999755859375-.2200927734375,5.239990234375,7.5299072265625,0,7.22998046875ZM376.660521123360923,136.360659436290007c-15.239990234375.199951171875-15.6099853515625,25.3099365234375,0,24.4599609375,15.489990234375.1400146484375,15.3599853515625-24.47998046875,0-24.4599609375ZM376.660521123360923,152.360659436290007c-5.30999755859375.2900390625-5.16998291015625-7.4400634765625,0-7.22998046875,5.0999755859375-.2200927734375,5.239990234375,7.5299072265625,0,7.22998046875ZM385.970518681954673,30.110659436290007c-7.1400146484375,10.239990234375-8.21002197265625,26.8798828125-12.25,37.5699462890625-3.5-.9200439453125-4.22998046875-8.5-7.8800048828125-10.5899658203125-7.19000244140625-3.25-14.80999755859375,5.199951171875-10.27001953125,11.93994140625,4.49005126953125,7.820068359375,9.84002685546875,14.4300537109375,14.19000244140625,22.110107421875,16.19000244140625,13.8299560546875,18.6500244140625-17.5400390625,21.45001220703125-28,3.20001220703125-9.780029296875,17.3599853515625-44.840087890625-5.239990234375-33.030029296875ZM385.970518681954673,30.110659436290007c-7.1400146484375,10.239990234375-8.21002197265625,26.8798828125-12.25,37.5699462890625-3.5-.9200439453125-4.22998046875-8.5-7.8800048828125-10.5899658203125-7.19000244140625-3.25-14.80999755859375,5.199951171875-10.27001953125,11.93994140625,4.49005126953125,7.820068359375,9.84002685546875,14.4300537109375,14.19000244140625,22.110107421875,16.19000244140625,13.8299560546875,18.6500244140625-17.5400390625,21.45001220703125-28,3.20001220703125-9.780029296875,17.3599853515625-44.840087890625-5.239990234375-33.030029296875ZM376.660521123360923,136.360659436290007c-15.239990234375.199951171875-15.6099853515625,25.3099365234375,0,24.4599609375,15.489990234375.1400146484375,15.3599853515625-24.47998046875,0-24.4599609375ZM376.660521123360923,152.360659436290007c-5.30999755859375.2900390625-5.16998291015625-7.4400634765625,0-7.22998046875,5.0999755859375-.2200927734375,5.239990234375,7.5299072265625,0,7.22998046875ZM376.660521123360923,136.360659436290007c-15.239990234375.199951171875-15.6099853515625,25.3099365234375,0,24.4599609375,15.489990234375.1400146484375,15.3599853515625-24.47998046875,0-24.4599609375ZM376.660521123360923,152.360659436290007c-5.30999755859375.2900390625-5.16998291015625-7.4400634765625,0-7.22998046875,5.0999755859375-.2200927734375,5.239990234375,7.5299072265625,0,7.22998046875ZM385.970518681954673,30.110659436290007c-7.1400146484375,10.239990234375-8.21002197265625,26.8798828125-12.25,37.5699462890625-3.5-.9200439453125-4.22998046875-8.5-7.8800048828125-10.5899658203125-7.19000244140625-3.25-14.80999755859375,5.199951171875-10.27001953125,11.93994140625,4.49005126953125,7.820068359375,9.84002685546875,14.4300537109375,14.19000244140625,22.110107421875,16.19000244140625,13.8299560546875,18.6500244140625-17.5400390625,21.45001220703125-28,3.20001220703125-9.780029296875,17.3599853515625-44.840087890625-5.239990234375-33.030029296875ZM385.970518681954673,30.110659436290007c-7.1400146484375,10.239990234375-8.21002197265625,26.8798828125-12.25,37.5699462890625-3.5-.9200439453125-4.22998046875-8.5-7.8800048828125-10.5899658203125-7.19000244140625-3.25-14.80999755859375,5.199951171875-10.27001953125,11.93994140625,4.49005126953125,7.820068359375,9.84002685546875,14.4300537109375,14.19000244140625,22.110107421875,16.19000244140625,13.8299560546875,18.6500244140625-17.5400390625,21.45001220703125-28,3.20001220703125-9.780029296875,17.3599853515625-44.840087890625-5.239990234375-33.030029296875ZM376.660521123360923,136.360659436290007c-15.239990234375.199951171875-15.6099853515625,25.3099365234375,0,24.4599609375,15.489990234375.1400146484375,15.3599853515625-24.47998046875,0-24.4599609375ZM376.660521123360923,152.360659436290007c-5.30999755859375.2900390625-5.16998291015625-7.4400634765625,0-7.22998046875,5.0999755859375-.2200927734375,5.239990234375,7.5299072265625,0,7.22998046875ZM376.660521123360923,136.360659436290007c-15.239990234375.199951171875-15.6099853515625,25.3099365234375,0,24.4599609375,15.489990234375.1400146484375,15.3599853515625-24.47998046875,0-24.4599609375ZM376.660521123360923,152.360659436290007c-5.30999755859375.2900390625-5.16998291015625-7.4400634765625,0-7.22998046875,5.0999755859375-.2200927734375,5.239990234375,7.5299072265625,0,7.22998046875ZM385.970518681954673,30.110659436290007c-7.1400146484375,10.239990234375-8.21002197265625,26.8798828125-12.25,37.5699462890625-3.5-.9200439453125-4.22998046875-8.5-7.8800048828125-10.5899658203125-7.19000244140625-3.25-14.80999755859375,5.199951171875-10.27001953125,11.93994140625,4.49005126953125,7.820068359375,9.84002685546875,14.4300537109375,14.19000244140625,22.110107421875,16.19000244140625,13.8299560546875,18.6500244140625-17.5400390625,21.45001220703125-28,3.20001220703125-9.780029296875,17.3599853515625-44.840087890625-5.239990234375-33.030029296875ZM385.970518681954673,30.110659436290007c-7.1400146484375,10.239990234375-8.21002197265625,26.8798828125-12.25,37.5699462890625-3.5-.9200439453125-4.22998046875-8.5-7.8800048828125-10.5899658203125-7.19000244140625-3.25-14.80999755859375,5.199951171875-10.27001953125,11.93994140625,4.49005126953125,7.820068359375,9.84002685546875,14.4300537109375,14.19000244140625,22.110107421875,16.19000244140625,13.8299560546875,18.6500244140625-17.5400390625,21.45001220703125-28,3.20001220703125-9.780029296875,17.3599853515625-44.840087890625-5.239990234375-33.030029296875ZM376.660521123360923,136.360659436290007c-15.239990234375.199951171875-15.6099853515625,25.3099365234375,0,24.4599609375,15.489990234375.1400146484375,15.3599853515625-24.47998046875,0-24.4599609375ZM376.660521123360923,152.360659436290007c-5.30999755859375.2900390625-5.16998291015625-7.4400634765625,0-7.22998046875,5.0999755859375-.2200927734375,5.239990234375,7.5299072265625,0,7.22998046875ZM432.770506474923423,146.840639905040007c-.27996826171875-41.969970703125-.7099609375-84.1700439453125.3699951171875-126.010009765625-4.07000732421875-29.800048828125-40.22998046875-17.530029296875-60.9599609375-19.6400146484375-23.82000732421875-1.219970703125-55.69000244140625-5.8800048828125-51.96002197265625,28.6300048828125,1.15997314453125,28.6300048828125-.1400146484375,57.2099609375.69000244140625,85.47998046875-1.04998779296875,10.6199951171875-.75,20.93994140625.1099853515625,31.510009765625-1.77996826171875,14.8800048828125-.67999267578125,38.3900146484375,19.6400146484375,38,18.16998291015625.1600341796875,35.80999755859375-.31005859375,53.97998046875.010009765625,31.45001220703125,2.1199951171875,40.9100341796875-6.0400390625,38.1300048828125-37.97998046875ZM416.830504033517173,160.320620373790007c1.46002197265625,13.530029296875-13.8499755859375,7.27001953125-22.15997314453125,8.030029296875-17.989990234375,1.760009765625-35.92999267578125-.27001953125-54.010009765625.889892578125-8.739990234375-4.239990234375-2.70001220703125-18.849853515625-3.65997314453125-26.889892578125-.4200439453125-9.1900634765625-.73004150390625-17.780029296875-.1400146484375-26.989990234375-.08001708984375-31.580078125-.16998291015625-63.06005859375-.22003173828125-94.530029296875-1.32000732421875-7.60009765625,38.02001953125-3.1700439453125,44.5-3.8900146484375,7.67999267578125-.0999755859375,14.82000732421875-.6199951171875,22.510009765625-.219970703125,7.07000732421875-.7900390625,15.02001953125-.9700927734375,13.1400146484375,8.6099853515625-.28997802734375,45.1199951171875.02001953125,90.050048828125.03997802734375,134.989990234375ZM385.970518681954673,30.110659436290007c-7.1400146484375,10.239990234375-8.21002197265625,26.8798828125-12.25,37.5699462890625-3.5-.9200439453125-4.22998046875-8.5-7.8800048828125-10.5899658203125-7.19000244140625-3.25-14.80999755859375,5.199951171875-10.27001953125,11.93994140625,4.49005126953125,7.820068359375,9.84002685546875,14.4300537109375,14.19000244140625,22.110107421875,16.19000244140625,13.8299560546875,18.6500244140625-17.5400390625,21.45001220703125-28,3.20001220703125-9.780029296875,17.3599853515625-44.840087890625-5.239990234375-33.030029296875ZM376.660521123360923,136.360659436290007c-15.239990234375.199951171875-15.6099853515625,25.3099365234375,0,24.4599609375,15.489990234375.1400146484375,15.3599853515625-24.47998046875,0-24.4599609375ZM376.660521123360923,152.360659436290007c-5.30999755859375.2900390625-5.16998291015625-7.4400634765625,0-7.22998046875,5.0999755859375-.2200927734375,5.239990234375,7.5299072265625,0,7.22998046875ZM376.660521123360923,136.360659436290007c-15.239990234375.199951171875-15.6099853515625,25.3099365234375,0,24.4599609375,15.489990234375.1400146484375,15.3599853515625-24.47998046875,0-24.4599609375ZM376.660521123360923,152.360659436290007c-5.30999755859375.2900390625-5.16998291015625-7.4400634765625,0-7.22998046875,5.0999755859375-.2200927734375,5.239990234375,7.5299072265625,0,7.22998046875ZM385.970518681954673,30.110659436290007c-7.1400146484375,10.239990234375-8.21002197265625,26.8798828125-12.25,37.5699462890625-3.5-.9200439453125-4.22998046875-8.5-7.8800048828125-10.5899658203125-7.19000244140625-3.25-14.80999755859375,5.199951171875-10.27001953125,11.93994140625,4.49005126953125,7.820068359375,9.84002685546875,14.4300537109375,14.19000244140625,22.110107421875,16.19000244140625,13.8299560546875,18.6500244140625-17.5400390625,21.45001220703125-28,3.20001220703125-9.780029296875,17.3599853515625-44.840087890625-5.239990234375-33.030029296875ZM385.970518681954673,30.110659436290007c-7.1400146484375,10.239990234375-8.21002197265625,26.8798828125-12.25,37.5699462890625-3.5-.9200439453125-4.22998046875-8.5-7.8800048828125-10.5899658203125-7.19000244140625-3.25-14.80999755859375,5.199951171875-10.27001953125,11.93994140625,4.49005126953125,7.820068359375,9.84002685546875,14.4300537109375,14.19000244140625,22.110107421875,16.19000244140625,13.8299560546875,18.6500244140625-17.5400390625,21.45001220703125-28,3.20001220703125-9.780029296875,17.3599853515625-44.840087890625-5.239990234375-33.030029296875ZM376.660521123360923,136.360659436290007c-15.239990234375.199951171875-15.6099853515625,25.3099365234375,0,24.4599609375,15.489990234375.1400146484375,15.3599853515625-24.47998046875,0-24.4599609375ZM376.660521123360923,152.360659436290007c-5.30999755859375.2900390625-5.16998291015625-7.4400634765625,0-7.22998046875,5.0999755859375-.2200927734375,5.239990234375,7.5299072265625,0,7.22998046875ZM376.660521123360923,136.360659436290007c-15.239990234375.199951171875-15.6099853515625,25.3099365234375,0,24.4599609375,15.489990234375.1400146484375,15.3599853515625-24.47998046875,0-24.4599609375ZM376.660521123360923,152.360659436290007c-5.30999755859375.2900390625-5.16998291015625-7.4400634765625,0-7.22998046875,5.0999755859375-.2200927734375,5.239990234375,7.5299072265625,0,7.22998046875ZM385.970518681954673,30.110659436290007c-7.1400146484375,10.239990234375-8.21002197265625,26.8798828125-12.25,37.5699462890625-3.5-.9200439453125-4.22998046875-8.5-7.8800048828125-10.5899658203125-7.19000244140625-3.25-14.80999755859375,5.199951171875-10.27001953125,11.93994140625,4.49005126953125,7.820068359375,9.84002685546875,14.4300537109375,14.19000244140625,22.110107421875,16.19000244140625,13.8299560546875,18.6500244140625-17.5400390625,21.45001220703125-28,3.20001220703125-9.780029296875,17.3599853515625-44.840087890625-5.239990234375-33.030029296875ZM385.970518681954673,30.110659436290007c-7.1400146484375,10.239990234375-8.21002197265625,26.8798828125-12.25,37.5699462890625-3.5-.9200439453125-4.22998046875-8.5-7.8800048828125-10.5899658203125-7.19000244140625-3.25-14.80999755859375,5.199951171875-10.27001953125,11.93994140625,4.49005126953125,7.820068359375,9.84002685546875,14.4300537109375,14.19000244140625,22.110107421875,16.19000244140625,13.8299560546875,18.6500244140625-17.5400390625,21.45001220703125-28,3.20001220703125-9.780029296875,17.3599853515625-44.840087890625-5.239990234375-33.030029296875ZM376.660521123360923,136.360659436290007c-15.239990234375.199951171875-15.6099853515625,25.3099365234375,0,24.4599609375,15.489990234375.1400146484375,15.3599853515625-24.47998046875,0-24.4599609375ZM376.660521123360923,152.360659436290007c-5.30999755859375.2900390625-5.16998291015625-7.4400634765625,0-7.22998046875,5.0999755859375-.2200927734375,5.239990234375,7.5299072265625,0,7.22998046875ZM376.660521123360923,136.360659436290007c-15.239990234375.199951171875-15.6099853515625,25.3099365234375,0,24.4599609375,15.489990234375.1400146484375,15.3599853515625-24.47998046875,0-24.4599609375ZM376.660521123360923,152.360659436290007c-5.30999755859375.2900390625-5.16998291015625-7.4400634765625,0-7.22998046875,5.0999755859375-.2200927734375,5.239990234375,7.5299072265625,0,7.22998046875ZM385.970518681954673,30.110659436290007c-7.1400146484375,10.239990234375-8.21002197265625,26.8798828125-12.25,37.5699462890625-3.5-.9200439453125-4.22998046875-8.5-7.8800048828125-10.5899658203125-7.19000244140625-3.25-14.80999755859375,5.199951171875-10.27001953125,11.93994140625,4.49005126953125,7.820068359375,9.84002685546875,14.4300537109375,14.19000244140625,22.110107421875,16.19000244140625,13.8299560546875,18.6500244140625-17.5400390625,21.45001220703125-28,3.20001220703125-9.780029296875,17.3599853515625-44.840087890625-5.239990234375-33.030029296875ZM385.970518681954673,30.110659436290007c-7.1400146484375,10.239990234375-8.21002197265625,26.8798828125-12.25,37.5699462890625-3.5-.9200439453125-4.22998046875-8.5-7.8800048828125-10.5899658203125-7.19000244140625-3.25-14.80999755859375,5.199951171875-10.27001953125,11.93994140625,4.49005126953125,7.820068359375,9.84002685546875,14.4300537109375,14.19000244140625,22.110107421875,16.19000244140625,13.8299560546875,18.6500244140625-17.5400390625,21.45001220703125-28,3.20001220703125-9.780029296875,17.3599853515625-44.840087890625-5.239990234375-33.030029296875ZM376.660521123360923,136.360659436290007c-15.239990234375.199951171875-15.6099853515625,25.3099365234375,0,24.4599609375,15.489990234375.1400146484375,15.3599853515625-24.47998046875,0-24.4599609375ZM376.660521123360923,152.360659436290007c-5.30999755859375.2900390625-5.16998291015625-7.4400634765625,0-7.22998046875,5.0999755859375-.2200927734375,5.239990234375,7.5299072265625,0,7.22998046875ZM376.660521123360923,136.360659436290007c-15.239990234375.199951171875-15.6099853515625,25.3099365234375,0,24.4599609375,15.489990234375.1400146484375,15.3599853515625-24.47998046875,0-24.4599609375ZM376.660521123360923,152.360659436290007c-5.30999755859375.2900390625-5.16998291015625-7.4400634765625,0-7.22998046875,5.0999755859375-.2200927734375,5.239990234375,7.5299072265625,0,7.22998046875ZM385.970518681954673,30.110659436290007c-7.1400146484375,10.239990234375-8.21002197265625,26.8798828125-12.25,37.5699462890625-3.5-.9200439453125-4.22998046875-8.5-7.8800048828125-10.5899658203125-7.19000244140625-3.25-14.80999755859375,5.199951171875-10.27001953125,11.93994140625,4.49005126953125,7.820068359375,9.84002685546875,14.4300537109375,14.19000244140625,22.110107421875,16.19000244140625,13.8299560546875,18.6500244140625-17.5400390625,21.45001220703125-28,3.20001220703125-9.780029296875,17.3599853515625-44.840087890625-5.239990234375-33.030029296875ZM376.660521123360923,136.360659436290007c-15.239990234375.199951171875-15.6099853515625,25.3099365234375,0,24.4599609375,15.489990234375.1400146484375,15.3599853515625-24.47998046875,0-24.4599609375ZM376.660521123360923,152.360659436290007c-5.30999755859375.2900390625-5.16998291015625-7.4400634765625,0-7.22998046875,5.0999755859375-.2200927734375,5.239990234375,7.5299072265625,0,7.22998046875ZM385.970518681954673,30.110659436290007c-7.1400146484375,10.239990234375-8.21002197265625,26.8798828125-12.25,37.5699462890625-3.5-.9200439453125-4.22998046875-8.5-7.8800048828125-10.5899658203125-7.19000244140625-3.25-14.80999755859375,5.199951171875-10.27001953125,11.93994140625,4.49005126953125,7.820068359375,9.84002685546875,14.4300537109375,14.19000244140625,22.110107421875,16.19000244140625,13.8299560546875,18.6500244140625-17.5400390625,21.45001220703125-28,3.20001220703125-9.780029296875,17.3599853515625-44.840087890625-5.239990234375-33.030029296875ZM190.560545537423423,170.930605725352507c-5.80999755859375-5.0799560546875-10.71002197265625-10.3800048828125-16.260009765625-15.739990234375-7.54998779296875-6.280029296875-19.29998779296875,3.8299560546875-11.34002685546875,11.3499755859375,2.75,4.199951171875,7.010009765625,5.300048828125,9.44000244140625,9.739990234375,6.280029296875,11.840087890625,27.20001220703125,10.06005859375,18.1600341796875-5.3499755859375ZM191.090513799142173,252.010561780040007c-6.22998046875-12.0499267578125-35.32000732421875,17.9600830078125-42.91998291015625,22.7900390625-8.4000244140625,6.1600341796875-17.85003662109375,11.010009765625-24.91998291015625,18.6300048828125-6.37005615234375,2.6700439453125-13.84002685546875,8.6300048828125-8.72003173828125,16,6.47003173828125,13.1800537109375,34.70001220703125-18.0999755859375,42.67999267578125-22.47998046875,7.6099853515625-4.9000244140625,14.27001953125-10.4600830078125,21.530029296875-15.75,6.0999755859375-5.0699462890625,17.53997802734375-9.3900146484375,12.3499755859375-19.1900634765625ZM357.900511357735923,195.750552014415007c-10.07000732421875,4.630126953125-76.3699951171875,12.7000732421875-45.239990234375,29.1800537109375,16.760009765625-4.2899169921875,32.969970703125-9.0999755859375,49.52001953125-14.1199951171875,22.41998291015625-1.719970703125,15.89996337890625-25.8699951171875-4.280029296875-15.06005859375ZM320.090513799142173,275.980532483165007c-8.5899658203125-3.7999267578125-23.469970703125-17.639892578125-30.8800048828125-6.869873046875-3.42999267578125,11.14990234375,12.35003662109375,14.969970703125,20.010009765625,18.5799560546875,7.72003173828125,4.4000244140625,26.47003173828125,16.6900634765625,27.8900146484375.6300048828125-1.25-8.260009765625-10.92999267578125-8.9100341796875-17.02001953125-12.340087890625ZM254.610533330392173,185.070620373790007c7.30999755859375-9.800048828125,17.3800048828125-16.6099853515625,27.76995849609375-22.6199951171875,17.48004150390625-46.52001953125-39.41998291015625-36.6099853515625-58.4599609375-10.2999267578125-16.07000732421875,17.1298828125-38.71002197265625,37.159912109375-38.760009765625,62.0198974609375,3.25,21.280029296875,27.75,34.050048828125,47.58001708984375,26.6500244140625-12.71002197265625,17.5999755859375-38.8699951171875,25.489990234375-46.7900390625,45.489990234375-3.65997314453125,15.280029296875,14.74005126953125,32.6600341796875,29.1300048828125,34.1500244140625,16.75-1.4600830078125,29.75-19.4801025390625,41.55999755859375-30.4400634765625,16.25-16.8499755859375,32.48004150390625-35.260009765625,38.07000732421875-58.489990234375,3.10003662109375-22.52001953125-15.489990234375-50.4599609375-40.0999755859375-46.4599609375ZM259.820494267892173,262.080630139415007c-13.15997314453125,14.0999755859375-45.97998046875,64.43994140625-58.90997314453125,27.300048828125,19.47998046875-17.630126953125,73.719970703125-53.5400390625,61.16998291015625-75.570068359375-17.04998779296875,1.5999755859375-33.1199951171875,17.6500244140625-50.14996337890625,11.800048828125-5.2900390625-4.880126953125-15.61004638671875-10.830078125-9.58001708984375-19.070068359375.58001708984375-14.260009765625,68.25-85.719970703125,65.97998046875-54.0799560546875-23.260009765625,12.4000244140625-36.67999267578125,37.510009765625-51.260009765625,58.3499755859375-4.0999755859375,9.6600341796875,30.21002197265625-13.1400146484375,41.36004638671875-9.5999755859375,32.04998779296875,3.75,18.8699951171875,45.9300537109375,1.38995361328125,60.8699951171875ZM376.660521123360923,152.360659436290007c-5.30999755859375.2900390625-5.16998291015625-7.4400634765625,0-7.22998046875,5.0999755859375-.2200927734375,5.239990234375,7.5299072265625,0,7.22998046875Z"
      />
      <path
        class="cls-2"
        d="M121.770506474923423,166.260561780040007c-28.26995849609375-1.0499267578125-12.260009765625,2.31005859375-15.9599609375-21.719970703125,25.3599853515625-1.14990234375,6.92999267578125,3.1600341796875,15.9599609375,21.719970703125ZM416.830504033517173,160.320620373790007c1.46002197265625,13.530029296875-13.8499755859375,7.27001953125-22.15997314453125,8.030029296875-17.989990234375,1.760009765625-35.92999267578125-.27001953125-54.010009765625.889892578125-8.739990234375-4.239990234375-2.70001220703125-18.849853515625-3.65997314453125-26.889892578125-.4200439453125-9.1900634765625-.73004150390625-17.780029296875-.1400146484375-26.989990234375-.08001708984375-31.580078125-.16998291015625-63.06005859375-.22003173828125-94.530029296875-1.32000732421875-7.60009765625,38.02001953125-3.1700439453125,44.5-3.8900146484375,7.67999267578125-.0999755859375,14.82000732421875-.6199951171875,22.510009765625-.219970703125,7.07000732421875-.7900390625,15.02001953125-.9700927734375,13.1400146484375,8.6099853515625-.28997802734375,45.1199951171875.02001953125,90.050048828125.03997802734375,134.989990234375ZM376.660521123360923,136.360659436290007c-15.239990234375.199951171875-15.6099853515625,25.3099365234375,0,24.4599609375,15.489990234375.1400146484375,15.3599853515625-24.47998046875,0-24.4599609375ZM385.970518681954673,30.110659436290007c-7.1400146484375,10.239990234375-8.21002197265625,26.8798828125-12.25,37.5699462890625-3.5-.9200439453125-4.22998046875-8.5-7.8800048828125-10.5899658203125-7.19000244140625-3.25-14.80999755859375,5.199951171875-10.27001953125,11.93994140625,4.49005126953125,7.820068359375,9.84002685546875,14.4300537109375,14.19000244140625,22.110107421875,16.19000244140625,13.8299560546875,18.6500244140625-17.5400390625,21.45001220703125-28,3.20001220703125-9.780029296875,17.3599853515625-44.840087890625-5.239990234375-33.030029296875ZM258.430540654610923,201.210635022227507c-11.1500244140625-3.5400390625-45.46002197265625,19.260009765625-41.36004638671875,9.5999755859375,14.58001708984375-20.8399658203125,28-45.949951171875,51.260009765625-58.3499755859375,2.27001953125-31.6400146484375-65.39996337890625,39.8199462890625-65.97998046875,54.0799560546875-6.030029296875,8.239990234375,4.28997802734375,14.18994140625,9.58001708984375,19.070068359375,17.02996826171875,5.8499755859375,33.0999755859375-10.2000732421875,50.14996337890625-11.800048828125,12.54998779296875,22.030029296875-41.69000244140625,57.93994140625-61.16998291015625,75.570068359375,12.92999267578125,37.139892578125,45.75-13.2000732421875,58.90997314453125-27.300048828125,17.48004150390625-14.93994140625,30.6600341796875-57.1199951171875-1.38995361328125-60.8699951171875ZM445.790526006173423,440.640688733165007c-6.77001953125-.31005859375-15.59002685546875,1.369873046875-23.1300048828125-.150146484375-47.41998291015625.85009765625-94.27001953125.080078125-141.44000244140625.60009765625-4.46002197265625-.1800537109375-10.08001708984375-1.719970703125-13.8699951171875,0-1.010009765625,2.52001953125,1.0999755859375,9.449951171875,5.30999755859375,7.989990234375,13.46002197265625-.6700439453125,26.40997314453125.0400390625,40-.1199951171875,41.4000244140625-.739990234375,82.3900146484375.6600341796875,124-.5699462890625,3.8900146484375.489990234375,7.19000244140625,1.5399169921875,7.489990234375-3.580078125.66998291015625-2,2.97003173828125-2.530029296875,1.6400146484375-4.169921875ZM370.950499150704673,336.810610608165007c-9.50994873046875-1.280029296875-10.9599609375,8.56005859375-12.6300048828125,16.090087890625-2.97998046875,4.679931640625-1.9599609375,10.0599365234375-4.8399658203125,14.68994140625-1.25,4,.8900146484375,8.6099853515625-3.07000732421875,11.179931640625-1.010009765625,9.6400146484375-6.6099853515625-12.010009765625-13.75-10.0799560546875-14.3699951171875,1.260009765625-5.3499755859375,16.989990234375.42999267578125,23.6400146484375,5.94000244140625,4.8299560546875,7.3599853515625,15.300048828125,15.6500244140625,16.530029296875-1.44000244140625,1.3399658203125-2.5,2.619873046875-3.4100341796875,3.659912109375,1.48004150390625-1.239990234375,2.98004150390625-2.679931640625,4.6199951171875-3.429931640625,10.27001953125-5.85009765625,9.4100341796875-21.0400390625,13.45001220703125-31.1400146484375.70001220703125-11.6500244140625,16.6500244140625-33.739990234375,3.54998779296875-41.1400146484375ZM177.000547978829673,430.830630139415007c-3.02001953125,28.510009765625-39.08001708984375,14.6300048828125-58.1800537109375,18.1099853515625-26.3499755859375-.489990234375-53.3299560546875.25-79.719970703125-.5599365234375-30.21002197265625,4.989990234375-21.83001708984375-35.030029296875-21.97998046875-53.300048828125-1.42999267578125-9.1400146484375.05999755859375-17.77001953125-.35003662109375-26.820068359375-1.25-11.8299560546875-.52996826171875-26.889892578125,13.280029296875-30.639892578125,38.03997802734375-1.9500732421875,76.69000244140625-.85009765625,115.29998779296875-.39013671875,27.510009765625-4.619873046875,34.1099853515625,11.0400390625,30.8499755859375,35.4801025390625,1.24005126953125,19.4400634765625-.25994873046875,38.6800537109375.800048828125,58.1199951171875ZM106.770506474923423,353.030581311290007c-13.19000244140625-5.409912109375-16.760009765625,37.1600341796875-21.03997802734375,44.580078125-5.09002685546875-3.1201171875-7.6099853515625-18.800048828125-17.28997802734375-11.52001953125-10.010009765625,5.8399658203125,3.0999755859375,15.8499755859375,5.4599609375,22.8199462890625,5.489990234375,11.010009765625,19.21002197265625,26,23.70001220703125,5.4000244140625,3.72998046875-9.93994140625,5.05999755859375-20.330078125,8.6199951171875-30.1400146484375,1.6199951171875-9.4400634765625,13.21002197265625-25.8299560546875.54998779296875-31.1400146484375ZM157.800535771798423,368.190615490977507c-11.54998779296875,1.47998046875-7.52001953125,13.8900146484375-7.9000244140625,21.9300537109375.95001220703125,7.530029296875-3.69000244140625,21.0599365234375,3.77001953125,25.43994140625,13.8399658203125,5.6099853515625,12.32000732421875-12.199951171875,11.83001708984375-20.8599853515625-.4000244140625-8.1199951171875,4.3299560546875-25.9000244140625-7.70001220703125-26.510009765625ZM123.990538213204673,39.270571545665007c-5.530029296875,6.06005859375-4.48004150390625,15.590087890625-8.73004150390625,22.4300537109375-.72998046875,5.6600341796875-3.13995361328125,10.4599609375-4.55999755859375,16.02001953125-.69000244140625,2.4000244140625,1.550048828125,4.8800048828125-.91998291015625,5.2899169921875-4.239990234375-2.669921875-4.94000244140625-14.280029296875-13.1199951171875-13.22998046875-15.30999755859375-.43994140625-4.03997802734375,18.489990234375,2.239990234375,24.8900146484375,6.030029296875,14.4700927734375,18.75,22.4400634765625,23.780029296875,2.27001953125,2.510009765625-12.2000732421875,6.67999267578125-23.8900146484375,10.03997802734375-35.9600830078125,3.55999755859375-9.669921875,8.030029296875-29.0699462890625-8.72998046875-21.7099609375Z"
      />
    </g>
  </g>
</svg>
