<svg viewBox="0 0 465.315166377902642 376.811929653400512">
  <defs>
    <style>
      .cls-1 {
        fill: #c3c3c3;
      }

      .cls-2 {
        fill: #0f0f0f;
      }

      .cls-3 {
        fill: #4b4b4b;
      }

      .cls-4 {
        fill: #fec301;
      }
    </style>
  </defs>
  <g>
    <g>
      <path
        class="cls-2"
        d="M464.872054466362897,338.791910122150512c-.510009765625-82.5699462890625.099853515625-164.739990234375-.300048828125-247.25.52001953125-15.68994140625-.31005859375-31.349853515625,0-47.0699462890625-1.7900390625-10.3199462890625,5.449951171875-43.5-7.760009765625-44.3099365234375l-.199951171875-.030029296875c-121.60009765625.2900390625-243.1298828125.449951171875-364.8701171875-.06005859375C68.761947044487897.262002895588012,46.021956810112897.751993129963012,23.172103294487897.071939419025512.352034935112897-.508016635661988-1.137955299262103,1.951944301838012.741927513237897,24.912027309650512c-.60986328125,84.8499755859375-.059814453125,169.8199462890625-.08984375,254.5599365234375-.610107421875,27.489990234375.81982421875,56.1900634765625-.580078125,83.5599365234375-1.35009765625,18.070068359375,16.590087890625,12.6700439453125,28.219970703125,13.780029296875,15.760009765625-1.179931640625,31.699951171875.3900146484375,47.550048828125-.6099853515625,94.739990234375.3599853515625,190.489990234375.1300048828125,285.56005859375.280029296875,30.280029296875-.22998046875,60.510009765625-.0899658203125,90.7099609375.030029296875,20.60986328125.4599609375,10.260009765625-24.9801025390625,12.760009765625-37.7200927734375ZM16.672103294487897,162.101968715900512c-.18994140625-48.27001953125-1.340087890625-97.27001953125.31982421875-145.18994140625l.090087890625-.10009765625c2.030029296875-1.3499755859375,5.5-.5,7.929931640625-.699951171875,5.840087890625.27001953125,11.52001953125,0,17.4501953125.3699951171875,30.409912109375-.739990234375,61.0498046875-.8099365234375,91.429931640625.1300048828125,70.570068359375-.93994140625,141.159912109375-.469970703125,211.829833984375-.25,31.02001953125-.81005859375,62.280029296875.5899658203125,93.31005859375-.43994140625,2.820068359375.3299560546875,6.7001953125-.3701171875,9.43017578125.260009765625,1.10986328125.7899169921875.349853515625,3.199951171875.23974609375,4.60986328125.320068359375,62.2000732421875-.0498046875,124.280029296875.240234375,186.5.079833984375,8.239990234375.079833984375,17.1600341796875-.360107421875,25.1800537109375-10.949951171875.780029296875-22.7900390625-.1700439453125-34.050048828125-.239990234375-53.869873046875,1.0599365234375-108.2099609375.3800048828125-162.08984375.0699462890625-70.320068359375.4300537109375-140.89013671875.81005859375-211.4501953125-.119873046875-7.75-.31005859375-16.02001953125,2.14990234375-23.4599609375.169921875-3.27001953125-22.5400390625-.510009765625-46.949951171875-.85986328125-70.25ZM449.051986106987897,355.811929653400512c.260009765625,1.360107421875.169921875,3.1800537109375-.800048828125,4.110107421875l-.10986328125.099853515625c-.820068359375.780029296875-2.530029296875.760009765625-3.830078125.7100830078125-2.119873046875-.0999755859375-4.070068359375.0799560546875-6.06005859375-.1500244140625-6.469970703125.10009765625-12.919921875-.3199462890625-19.43994140625-.0999755859375-28.260009765625.52001953125-56.77001953125.4600830078125-84.989990234375-.0799560546875-19.320068359375-.1500244140625-38.27001953125.5799560546875-57.510009765625.010009765625-9.429931640625.5-18.4599609375.489990234375-27.840087890625.219970703125-8.099853515625.5-16.14990234375-.6800537109375-24.329833984375.2099609375-12.489990234375.10009765625-24.81005859375-.5400390625-37.330078125-.320068359375-3.18994140625-.2799072265625-6.079833984375.2900390625-9.3798828125.4600830078125-3.820068359375.0399169921875-7.6201171875-.22998046875-11.43017578125-.219970703125-9.869873046875-.280029296875-19.68994140625-.6500244140625-29.599853515625.0799560546875-8.0400390625-.5999755859375-16-.5-24.050048828125.0400390625-30.260009765625-.699951171875-60.570068359375-.199951171875-90.75-.1400146484375-1.610107421875-.0699462890625-3.7900390625.5999755859375-4.989990234375-.1900634765625-.75-.719970703125-.429931640625-2.389892578125-.18994140625-3.75.52978515625-2.739990234375-.0400390625-5.47998046875-.2099609375-8.2099609375.099853515625-8.929931640625-.02001953125-18.050048828125.509765625-27.030029296875-.679931640625-7.39990234375-.929931640625-14.68994140625-.06982421875-22.119873046875-.080078125-14.070068359375-.7099609375-28.2301025390625-.06005859375-42.260009765625.02001953125-2.380126953125-1-6.2000732421875-.31005859375-8.239990234375.570068359375-1,1.77001953125-.780029296875,3.760009765625-.85009765625,85.64013671875,0,170.610107421875-.260009765625,256.550048828125.090087890625,17.68994140625-.010009765625,35.159912109375-.260009765625,52.739990234375.2999267578125,2.989990234375-.02001953125,5.919921875-.7999267578125,8.7099609375-.77001953125,4.219970703125.0599365234375,8.530029296875.8699951171875,12.719970703125.6400146484375,24.860107421875-.469970703125,50.35009765625-.3699951171875,75.070068359375-.159912109375,4.840087890625-.4300537109375,9.380126953125.3099365234375,14.10009765625-.2900390625,3.289794921875.239990234375,9.659912109375-2.530029296875,9.329833984375,2.679931640625-.77978515625,29.530029296875,0,59.110107421875-.869873046875,88.550048828125.2099609375,5.5799560546875-.340087890625,11.169921875.659912109375,16.679931640625ZM134.362044700737897,32.912027309650512c-8.489990234375,1.419921875-5.610107421875,13.679931640625-5.6201171875,19.5399169921875.16015625,4.0899658203125-.10986328125,8.260009765625-.199951171875,12.3599853515625.010009765625,11.06005859375.130126953125,22.2099609375.159912109375,33.260009765625-.639892578125,4.3701171875-.079833984375,7.800048828125.090087890625,12.050048828125-.239990234375,5.800048828125,1.440185546875,9.949951171875,7.5,9.909912109375l.2099609375.010009765625c3.550048828125.2900390625,6.989990234375.760009765625,10.52001953125.340087890625,1.400146484375-.1300048828125,2.840087890625-.18994140625,4.239990234375-.10009765625,2.840087890625.360107421875,5.43017578125.06005859375,8.400146484375-.0198974609375,3.169921875.1600341796875,6.079833984375.3499755859375,9.39990234375.0699462890625,11.550048828125-.52001953125,22.93994140625.949951171875,34.330078125-.0999755859375,4.829833984375-.0699462890625,12.659912109375.2899169921875,13.050048828125-6.25,2.52001953125-43.6400146484375-38.2001953125-85.0499267578125-82.080078125-81.0699462890625ZM197.291976341362897,104.892007778400512c-4.449951171875-.9100341796875-9.2099609375.239990234375-13.7900390625-.27001953125-6.829833984375-.580078125-13.39990234375.0999755859375-20.349853515625-.06005859375-5.080078125-.419921875-9.900146484375.52001953125-15.06005859375.4599609375-4.81005859375-.119873046875-3.429931640625-4.079833984375-3.3798828125-7.369873046875-.06005859375-12.9200439453125-.880126953125-25.7900390625.009765625-38.6900634765625-.02978515625-2.5399169921875-.25-5.0699462890625-.4599609375-7.5599365234375-.06982421875-.739990234375-.0498046875-1.77001953125.420166015625-2.1800537109375l.08984375-.0799560546875c21.830078125.39990234375,45.25,20.89990234375,52.179931640625,41.409912109375.75,3.010009765625,5.730224609375,14.4200439453125.340087890625,14.340087890625ZM190.291976341362897,130.991983364338012c-2.97998046875-3.5699462890625-8.35986328125-2.22998046875-12.6298828125-2.3299560546875-16.0400390625-.89013671875-32,.369873046875-48.1201171875-.360107421875-2.320068359375-.0399169921875-4.659912109375.050048828125-6.780029296875.030029296875-.889892578125-.0400390625-1.60986328125-.280029296875-2.06982421875-.8399658203125-.52001953125-.6099853515625-.68017578125-1.6500244140625-.7099609375-2.739990234375-.110107421875-3.4100341796875.669921875-6.8399658203125.77978515625-10.27001953125-.079833984375-9.989990234375-.58984375-19.969970703125-.0400390625-29.8900146484375.030029296875-4.719970703125-.449951171875-9.780029296875-.259765625-14.3699951171875-.030029296875-5.7099609375.009765625-12.739990234375-7.01025390625-13.8900146484375-105.1298828125.72998046875-107.02978515625,157.3800048828125-1.119873046875,160.3900146484375h.2099609375c43.510009765625-1.0399169921875,79.06005859375-34.9100341796875,80.22998046875-78.5899658203125-.199951171875-2.9000244140625-.93994140625-5.4100341796875-2.47998046875-7.1400146484375ZM78.781966575737897,81.591958950275512l.030029296875.02001953125c.050048828125.239990234375-.639892578125,1.030029296875-.929931640625,1.3800048828125-6.070068359375,7.02001953125-13.18017578125,13.3699951171875-19.75,19.8900146484375,5.4599609375-8.02001953125,12.159912109375-16.4200439453125,20.64990234375-21.2900390625ZM49.092025169487897,126.621988247150512c.580078125-2.75,1-5.6400146484375,2.159912109375-8.18994140625l.090087890625-.1700439453125c7.52001953125-10.0699462890625,17.64990234375-18.030029296875,26.6201171875-26.9000244140625,1.929931640625-1.969970703125,3.48974609375-4.22998046875,5.369873046875-6.070068359375,1.650146484375-1.699951171875,3.530029296875-3.27001953125,5.179931640625-5.2899169921875,3.31005859375-4.550048828125,8.2900390625-6.8900146484375,13.900146484375-7.4000244140625,1.579833984375-.1300048828125,1.659912109375.580078125.489990234375,1.800048828125-5.969970703125,6.3099365234375-12.880126953125,11.7099609375-18.550048828125,18.4599609375-1.18994140625,1.419921875-2.4599609375,2.760009765625-3.85009765625,3.969970703125-10.64990234375,9.25-20.179931640625,20.0400390625-30.030029296875,30.1300048828125-1.039794921875,1.0699462890625-1.639892578125,1.0799560546875-1.3798828125-.3399658203125ZM48.822005638237897,137.561929653400512l.080078125-.179931640625c11.3798828125-14.68994140625,26.31982421875-26.330078125,38.510009765625-40.489990234375,1.139892578125-1.280029296875,2.35986328125-2.469970703125,3.6298828125-3.610107421875,3.39013671875-2.9599609375,6.030029296875-6.349853515625,9.400146484375-9.349853515625,1.119873046875-.989990234375,2.079833984375-2.550048828125,3-3.510009765625,2.059814453125-1.9400634765625,1.7998046875,1.2099609375,1.5400390625,2.43994140625-.300048828125,2.179931640625-.240234375,4.179931640625-1.47021484375,5.8900146484375-5.81005859375,8.0699462890625-14.139892578125,13.6400146484375-20.699951171875,21.0699462890625-5.159912109375,5.510009765625-10.260009765625,10.9000244140625-15.409912109375,16.4200439453125-2.4599609375,2.2999267578125-4.969970703125,4.0299072265625-6.880126953125,6.719970703125-3.139892578125,3.4100341796875-6.739990234375,5.989990234375-9.550048828125,9.6400146484375-3.099853515625,4-3.159912109375-2.8699951171875-2.14990234375-5.0400390625ZM51.682113060112897,156.131998012775512c-.77001953125-.580078125-1.440185546875-2.68994140625-1.110107421875-4.320068359375l.0400390625-.18994140625c.280029296875-1.280029296875,1.159912109375-2.280029296875,2.06005859375-3.2900390625,6.81982421875-7.8599853515625,14.909912109375-14.719970703125,22.39990234375-22.010009765625,8.510009765625-9.8399658203125,19.080078125-20.0799560546875,27.949951171875-28.699951171875.5-.550048828125,1.860107421875-1.590087890625,2.16015625-1.070068359375.33984375.800048828125-.050048828125,1.9100341796875-.130126953125,2.800048828125-.31005859375,1.919921875-.139892578125,3.699951171875-1,5.22998046875-6.85986328125,8.7900390625-16.10986328125,15.1500244140625-23.35009765625,23.6500244140625-4.83984375,4.6600341796875-9.079833984375,9.4200439453125-13.58984375,14.22998046875-1.60009765625,1.6600341796875-3.530029296875,2.9100341796875-5.2099609375,4.5699462890625-2.150146484375,2.52001953125-4.16015625,4.85009765625-6.739990234375,7.070068359375-1.010009765625.830078125-2.14013671875,2.739990234375-3.47998046875,2.030029296875ZM59.701888450737897,165.461954067463012c-.769775390625.75-1.72998046875,2.0799560546875-2.849853515625,1.9300537109375l-.130126953125-.030029296875c-1.14990234375-.3599853515625-1.559814453125-1.489990234375-1.909912109375-2.52001953125-.949951171875-3.1099853515625,2.110107421875-4.8900146484375,4.179931640625-6.739990234375,7.920166015625-8.320068359375,16.35009765625-15.820068359375,23.97998046875-24.3900146484375,4.93017578125-5.2099609375,9.77001953125-10.22998046875,15.01025390625-15.1500244140625,1.829833984375-1.5499267578125,3.22998046875-4.0899658203125,4.829833984375-5.6099853515625,4.25-3.3900146484375,2.139892578125,7.02001953125.280029296875,8.3299560546875-10.419921875,11.6900634765625-21.89990234375,22.02001953125-32.830078125,33.4600830078125-1.81982421875,1.969970703125-3.27001953125,4.0699462890625-5.159912109375,6.010009765625-1.68994140625,1.6900634765625-3.900146484375,3.0399169921875-5.400146484375,4.7099609375ZM63.031966575737897,176.912027309650512c-1.580078125-.56005859375-2.7998046875-2.60009765625-2.47998046875-4.2900390625.330078125-1.6500244140625,2.3701171875-2.4599609375,3.60009765625-3.68994140625l.14990234375-.130126953125c12.110107421875-13.669921875,26.570068359375-25.25,38.419921875-39.260009765625.64013671875-.679931640625,2.16015625-2.409912109375,2.670166015625-1.369873046875.300048828125,1.0599365234375-.0400390625,2.659912109375-.06005859375,3.909912109375.110107421875,3.320068359375-.849853515625,5.580078125-3.449951171875,7.570068359375-7.090087890625,5.9599609375-13.1201171875,12.2999267578125-19.22998046875,19.1099853515625-5.18017578125,4.719970703125-10.2099609375,9.3599853515625-15.130126953125,14.4300537109375-1.35986328125,1.159912109375-2.510009765625,3.969970703125-4.489990234375,3.719970703125ZM70.372054466362897,185.251993129963012c-2.10009765625-.6400146484375-4.380126953125-3.4000244140625-2.2099609375-5.4400634765625,3.2099609375-3.659912109375,7.510009765625-6.4599609375,10.77001953125-10.239990234375.889892578125-.9599609375,1.789794921875-1.909912109375,2.760009765625-2.800048828125,4.47998046875-3.989990234375,9.0498046875-7.679931640625,12.83984375-12.33984375,3.2099609375-4.14013671875,7.6201171875-6.8701171875,10.91015625-10.9801025390625.969970703125-.9599609375,2.14990234375-1.2799072265625,3.389892578125-.8199462890625,1.419921875.47998046875,3.25,1.050048828125,3.340087890625,1.8800048828125.08984375.6500244140625-.530029296875,1.2899169921875-.9599609375,1.7899169921875-1.820068359375,1.97998046875-4.2001953125,3.719970703125-6.050048828125,5.56005859375l-.14013671875.1400146484375c-9.60986328125,11.3299560546875-21.800048828125,20.3699951171875-31.669921875,31.47998046875-.7900390625.8699951171875-1.780029296875,2.030029296875-2.97998046875,1.77001953125ZM81.662093528862897,191.061929653400512c-2.030029296875,1.260009765625-6.77001953125-.6298828125-4.820068359375-3.510009765625,4.14990234375-4.949951171875,9.580078125-8.659912109375,14.06005859375-13.3199462890625,7.0498046875-7.5999755859375,14.139892578125-14.5999755859375,21.909912109375-21.510009765625,3.22998046875-3.1600341796875,5.47998046875-8.1199951171875,10.420166015625-8.5499267578125,2.14990234375-.2200927734375,4.929931640625-1.0400390625,5.31982421875.0899658203125l.030029296875.1099853515625c.25.739990234375-.630126953125,1.949951171875-1.409912109375,2.5400390625-1.280029296875,1.0399169921875-2.820068359375,2.0399169921875-4.02001953125,3.18994140625-3.050048828125,2.8900146484375-5.41015625,5.9599609375-8.47998046875,8.68994140625-9.25,8.25-17.489990234375,16.820068359375-25.989990234375,25.77001953125-2.18017578125,2.1700439453125-4.280029296875,5.1600341796875-7.02001953125,6.5ZM92.112044700737897,196.422037075275512c-1.75.849853515625-4.969970703125.2099609375-5.449951171875-1.840087890625-.0400390625-.6099853515625.25-1.0899658203125.659912109375-1.5899658203125,1.739990234375-2.02001953125,4.260009765625-3.4300537109375,6.2900390625-5.3599853515625,1.800048828125-1.699951171875,3.10009765625-3.9100341796875,4.780029296875-5.590087890625,3.489990234375-3.199951171875,6.7900390625-6.599853515625,10.239990234375-9.85986328125,8.81005859375-7.090087890625,15.260009765625-16.6900634765625,24.06005859375-23.570068359375,1.559814453125-1.1500244140625,2.679931640625-3.550048828125,4.18994140625-4.43994140625.83984375-.4200439453125,1.830078125-.300048828125,2.760009765625-.320068359375,2.030029296875.030029296875,4.4599609375-.52001953125,4.849853515625.4599609375l.0400390625.10009765625c.27001953125.60986328125-.419921875,1.64990234375-1.08984375,2.169921875-7.860107421875,6.2099609375-14.22021484375,14.4300537109375-22.170166015625,20.8900146484375-7.570068359375,7.1600341796875-13.909912109375,15.280029296875-21.83984375,22.1199951171875-2.580078125,2.0400390625-4.56005859375,5.2900390625-7.320068359375,6.830078125ZM107.872054466362897,197.101968715900512c-2.030029296875,2.1199951171875-6.52001953125,3.949951171875-8.800048828125,1.949951171875-.5400390625-.639892578125.2900390625-1.8099365234375.919921875-2.449951171875,6.330078125-7.030029296875,13.7001953125-13.47998046875,20.68017578125-20.1199951171875,4.829833984375-5.030029296875,9.56982421875-9.7999267578125,14.329833984375-14.8299560546875,3.300048828125-2.860107421875,6.170166015625-5.4599609375,9.0400390625-8.72998046875,1.440185546875-1.39013671875,3.2900390625-2.6201171875,4.690185546875-4.070068359375,1.77978515625-1.719970703125,2.889892578125-4.27001953125,5.429931640625-4.9000244140625.68994140625-.1700439453125,1.409912109375-.239990234375,2.119873046875-.3099365234375,1.800048828125-.10009765625,3.780029296875-.610107421875,4.300048828125.639892578125l.0400390625.110107421875c.079833984375,2.5699462890625-3.639892578125,3.8199462890625-5.199951171875,5.6099853515625-5.8701171875,5.8800048828125-11.43994140625,11.8099365234375-17.77001953125,17.1900634765625-9.85009765625,10.0699462890625-19.719970703125,20.0599365234375-29.780029296875,29.909912109375ZM173.741927513237897,156.991983364338012c-1.309814453125,3.3499755859375-2.719970703125,6.6500244140625-4.639892578125,9.6800537109375l-.10009765625.159912109375c-2.739990234375,5.5400390625-7.989990234375,9.580078125-12.43994140625,13.719970703125-6.929931640625,7.0400390625-14.219970703125,14.489990234375-24.010009765625,17.080078125-2.10986328125.419921875-.449951171875-1.25.219970703125-1.969970703125,7.5-8.06005859375,15.8701171875-15.35009765625,23.91015625-22.9200439453125,2.760009765625-2.8399658203125,4.83984375-6.27001953125,8.050048828125-8.75,2.97998046875-2.3299560546875,5.2197265625-5.27001953125,8.079833984375-7.7000732421875.550048828125-.449951171875.969970703125-.679931640625,1.130126953125-.5599365234375.199951171875.2899169921875-.06005859375.8499755859375-.2001953125,1.260009765625ZM175.372054466362897,146.591958950275512c-4.949951171875,5.27001953125-10.429931640625,10.2900390625-15.760009765625,15.25-10.9599609375,9.93994140625-20.60009765625,20.780029296875-31.52001953125,30.6600341796875-2.3798828125,2.3099365234375-4.429931640625,5.0899658203125-7.449951171875,6.5399169921875-1.8701171875.9600830078125-4.070068359375,1.56005859375-6.2900390625,1.590087890625-.510009765625.010009765625-1.0400390625-.06005859375-1.35009765625-.3900146484375-.449951171875-.510009765625.650146484375-1.6800537109375,1.18017578125-2.22998046875,10.929931640625-11.4600830078125,23.199951171875-21.8499755859375,34.139892578125-33.550048828125,1.820068359375-2.0899658203125,4.41015625-3.6500244140625,6.199951171875-5.5198974609375,2.199951171875-2.91015625,5.0400390625-4.9801025390625,7.739990234375-7.360107421875,2.9599609375-2.780029296875,4.760009765625-7.239990234375,9.090087890625-7.72998046875,1.469970703125-.18994140625,4.070068359375.050048828125,4.599853515625.929931640625l.050048828125.10009765625c.239990234375.4599609375-.059814453125,1.06005859375-.6298828125,1.7099609375ZM432.862044700737897,183.942056606525512c-.570068359375-21.06005859375-.22998046875-42.06005859375.1201171875-63.170166015625-3.800048828125-67.419921875,16.309814453125-66.159912109375-41.85009765625-64.18994140625-8.969970703125,2.830078125-6.239990234375,14.68994140625-6.630126953125,21.969970703125.35009765625,10.7100830078125-.019775390625,22.050048828125.260009765625,32.590087890625-1.909912109375,2.5599365234375-9.199951171875.3599853515625-12.25.969970703125-14.56005859375-.1500244140625-21.75-.6400146484375-20.0400390625,17.3499755859375-.169921875,23.4200439453125,1.02001953125,47.4700927734375-.27001953125,70.550048828125-16.2099609375,1.0699462890625-16.139892578125,4.0899658203125-15.2197265625-11.7100830078125-.550048828125-11.89990234375-.490234375-23.39990234375-.320068359375-35.27001953125.43994140625-10.349853515625-1.420166015625-18.139892578125-12.460205078125-17.0399169921875-4.419921875.489990234375-8.8798828125.5799560546875-13.269775390625.5299072265625-3.5.150146484375-7.1201171875,1.340087890625-6.989990234375-2.5198974609375,1.06982421875-10.0999755859375.1298828125-20.1500244140625.949951171875-30.260009765625,1.52001953125-16.2999267578125-9.47998046875-16.989990234375-23.0400390625-15.4400634765625-3.330078125-.260009765625-9.719970703125,2.10009765625-9.4599609375-2.85986328125-2.130126953125-10.16015625,6.85986328125-37.4700927734375-9.340087890625-36.56005859375-9.39990234375,2.0699462890625-6.429931640625,13.2900390625-6.169921875,20.159912109375-1.16015625,24.5.58984375,48.9200439453125-.580078125,73.39013671875.699951171875,16.639892578125-.47998046875,33.260009765625.39990234375,49.89990234375.16015625,7.97998046875-3.43994140625,22.77001953125,7.7001953125,24.1500244140625l.18994140625.02001953125c40.090087890625.239990234375,79.929931640625-.1600341796875,120.030029296875.0399169921875,8.64990234375.27001953125,17.369873046875.260009765625,25.919921875.010009765625,6.1201171875.1600341796875,14.35009765625,1.820068359375,19.159912109375-2.43994140625,6.340087890625-8.06005859375,1.31005859375-20.449951171875,3.16015625-30.169921875ZM280.521956810112897,200.541910122150512c-2.27001953125-.369873046875-5.469970703125.880126953125-7.219970703125-.0299072265625-1.449951171875-.800048828125-1.27001953125-2.9000244140625-1.159912109375-4.4100341796875.25-2.3900146484375-.070068359375-4.969970703125-.010009765625-7.3900146484375,1.22998046875-22.6500244140625-.070068359375-45.6600341796875.739990234375-68.1700439453125-.10009765625-4.3798828125-.7099609375-8.97998046875-.72998046875-13.159912109375,0-1.090087890625.059814453125-2.1400146484375.4599609375-2.77001953125.760009765625-1.25,2.340087890625-.679931640625,4.340087890625-.5400390625,2.869873046875.260009765625,6.5498046875.22998046875,9.02001953125-.14990234375,1.659912109375-.320068359375,2.97998046875.139892578125,3.009765625,2.139892578125.150146484375,5.780029296875-.889892578125,12-.1298828125,18.02001953125.1298828125,1.27001953125.25,2.550048828125.239990234375,3.820068359375-.27001953125,5.5400390625-1.139892578125,10.8199462890625-.550048828125,16.3299560546875l.010009765625.1900634765625c.050048828125,13.179931640625.159912109375,26.260009765625.030029296875,39.449951171875-.050048828125,1.8900146484375-.280029296875,3.8299560546875-.330078125,5.739990234375-.179931640625,3.760009765625.89013671875,6.909912109375,1.070068359375,8.949951171875.510009765625,4.52001953125-5.9599609375,2.090087890625-8.7900390625,1.97998046875ZM320.832015403862897,159.432046840900512c.550048828125,5.89990234375-.639892578125,11.7698974609375-.31005859375,17.7099609375.5400390625,5.97998046875.260009765625,11.780029296875.02001953125,17.659912109375-.090087890625,1.830078125,1.1201171875,3.75.10009765625,5.2000732421875l-.090087890625.0799560546875c-1.5,1.070068359375-3.699951171875.110107421875-5.4599609375.1400146484375-2.60009765625-.1900634765625-5.2900390625.5699462890625-7.64990234375.5899658203125-1.02001953125,0-2.2001953125-.0899658203125-2.860107421875-.89990234375-.599853515625-.820068359375-.52001953125-1.89013671875-.409912109375-3.090087890625.4599609375-7.030029296875.119873046875-13.949951171875.52978515625-21.02001953125.18017578125-5.47998046875-1.22998046875-10.760009765625-.679931640625-16.119873046875.219970703125-1.77001953125.050048828125-3.8701171875.10009765625-5.5400390625.139892578125-3.360107421875,4.22998046875-1.820068359375,6.39990234375-1.9100341796875,2.89013671875.3800048828125,10.6201171875-2.530029296875,10.64013671875,1.719970703125-.22998046875,1.6700439453125-.610107421875,3.6900634765625-.330078125,5.4801025390625ZM368.511947044487897,130.521890590900512l.090087890625-.159912109375c1.780029296875-3.06005859375,5.889892578125-1.530029296875,8.840087890625-2.06005859375,1.72998046875-.27001953125,3.0400390625-1.369873046875,4.199951171875-.719970703125,2.820068359375,1.840087890625-2.47998046875,2.47998046875-3.610107421875,3.6800537109375-2.56005859375,1.97998046875-5.1298828125,3.6199951171875-7.22998046875,6.0499267578125-.4599609375.550048828125-.85009765625,1.010009765625-1.35986328125,1.130126953125-.77001953125.2099609375-1.60009765625-.360107421875-1.5-1.150146484375.08984375-.659912109375.35986328125-1.27001953125.4599609375-1.929931640625.349853515625-1.6500244140625-.68017578125-3.4000244140625.10986328125-4.840087890625ZM368.232161888237897,147.951944301838012c.1298828125-.4599609375.31982421875-.9200439453125.58984375-1.2999267578125l.10009765625-.130126953125c4.159912109375-3.5599365234375,8.679931640625-7.0198974609375,12.97998046875-10.469970703125.669921875-.5699462890625,1.72998046875-1.780029296875,2.4599609375-1.659912109375,1.06005859375.409912109375.580078125,2.4599609375.6298828125,3.449951171875-.119873046875,1.85009765625.010009765625,3.4599609375-.77001953125,4.530029296875-1.98974609375,2.06005859375-4.889892578125,3.5999755859375-7.009765625,5.300048828125-1.64013671875,1.10986328125-3.47998046875,2.169921875-4.9501953125,4-.93994140625.909912109375-2.77001953125,4.10986328125-4.139892578125,2.929931640625-.860107421875-1.3399658203125-.31005859375-4.6099853515625.110107421875-6.6500244140625ZM384.991927513237897,153.851968715900512c-.119873046875,1.8499755859375,0,3.449951171875-.77001953125,4.52001953125-2,2.06005859375-4.889892578125,3.5899658203125-7.009765625,5.300048828125-1.64013671875,1.10986328125-3.47998046875,2.169921875-4.9501953125,3.989990234375-.93994140625.909912109375-2.760009765625,4.0899658203125-4.1298828125,2.969970703125-.830078125-1.31005859375-.330078125-4.739990234375.080078125-6.739990234375.1298828125-.469970703125.31982421875-.9000244140625.58984375-1.280029296875l.10009765625-.1300048828125c4.39990234375-3.8699951171875,9.4599609375-7.2999267578125,13.869873046875-11.2100830078125.590087890625-.5399169921875,1.150146484375-.949951171875,1.580078125-.869873046875,1.070068359375.409912109375.590087890625,2.449951171875.639892578125,3.449951171875ZM368.232161888237897,179.951944301838012c.1298828125-.4599609375.31982421875-.9200439453125.58984375-1.2999267578125l.10009765625-.130126953125c4.159912109375-3.5599365234375,8.679931640625-7.0198974609375,12.97998046875-10.469970703125.669921875-.5699462890625,1.72998046875-1.780029296875,2.4599609375-1.659912109375,1.06005859375.409912109375.580078125,2.4599609375.6298828125,3.449951171875-.119873046875,1.85009765625.010009765625,3.4599609375-.77001953125,4.530029296875-1.98974609375,2.06005859375-4.889892578125,3.5999755859375-7.009765625,5.300048828125-1.64013671875,1.10986328125-3.47998046875,2.169921875-4.9501953125,4-.93994140625.909912109375-2.77001953125,4.10986328125-4.139892578125,2.929931640625-.860107421875-1.3399658203125-.31005859375-4.6099853515625.110107421875-6.6500244140625ZM385.072005638237897,184.741983364338012c-.580078125,4.719970703125.449951171875,5.8599853515625-4.330078125,8.1400146484375-2.849853515625,1.159912109375-10.179931640625,11.2099609375-12.2099609375,7.52001953125l-.06982421875-.1400146484375c-2.830078125-6.8199462890625,6.719970703125-10.4200439453125,11.309814453125-14.2000732421875,1.25-.9599609375,2.610107421875-2.5999755859375,3.650146484375-3.369873046875,1.7099609375-1.1900634765625,2,.7999267578125,1.64990234375,2.0499267578125ZM411.842025169487897,200.621988247150512c-2.72998046875-.030029296875-5.60986328125.219970703125-8.219970703125.5-2.080078125.1400146484375-3.670166015625-.18994140625-3.420166015625-2.320068359375,1.31005859375-7.679931640625-.559814453125-15.5599365234375.18017578125-23.3798828125.800048828125-18.330078125-.4599609375-36.6700439453125.10009765625-54.989990234375l.009765625-.2000732421875c-.0400390625-15.0799560546875.22021484375-30.1800537109375-.02978515625-45.2899169921875-.070068359375-1.300048828125.119873046875-2.320068359375,1.219970703125-2.820068359375,2.269775390625-.969970703125,6.6298828125-.02001953125,10.25-.090087890625,3.050048828125-.14990234375,5.010009765625-.389892578125,4.929931640625,3.5.419921875,28.830078125-1.0400390625,58.9200439453125-.070068359375,88.010009765625.5,10.739990234375-.739990234375,21.47998046875.35009765625,32.2200927734375.349853515625,5.0299072265625.2099609375,4.9000244140625-5.300048828125,4.8599853515625ZM340.801027328812779,342.622476577174893c3.921354028940186-13.26317464848762,31.975839948154317-29.252852334815543,28.906889809080894-40.403549252381708-2.18008348172043-9.279315112918994-11.422641446575653-16.545606130677697-13.149673007752426-25.856007821448657-.690203695652599-3.673172664792219,1.331161610456547-8.396654390948243,4.355514806507927-11.02902772622474,5.111001764747925-3.800671079085078,9.134824206836129,6.064906947178315,11.467785911261672,10.291302117562736,2.584942544031946,5.190749439443607,5.116464305745467,10.94977335547992,7.690764476636105,14.106547129871615,1.380384694070017,1.839222316761152,2.887567811183544.611980122223031,3.981548104358808-.928929545887513,7.008109689792036-9.153691222676571,14.568707531816472-17.429093023418318,22.364593235222856-26.11378550262998,3.796773078574915-4.801242728108264,5.935503677703309-8.745546404119523,12.21044896290914-3.704097123227257,2.126871644901257,1.92138937339223,3.73015929470057,3.335036689853951,5.100887151038478,5.27667541626397,3.373418994509848,6.878370786624146-25.688332926507428,31.890344616331276-32.594507547302783,41.197025362458589-.540277646559844,1.074786733370274.080950014824339,2.494303673141985.683801581250009,3.598417527346101,5.369194605307712,10.144381815865927,15.447015695945083,20.049254901550739,17.796990581106002,30.650672586678411-.068742538171136,1.770747380987814-1.344881640126914,3.17396159530108-2.676444062906739,4.271025650908996-12.888357368254219,10.529315723306354-20.145280667509724-9.200796654455189-25.778465253843024-21.464680527655219-1.09564776741172-2.641312643398123-2.423534135010414-2.147943296595258-4.025919027697455-.234723837264028-7.19607408275624,8.186998326933463-14.778491318542365,15.835202159856635-21.24307716151452,24.723033704016416-1.145348449250378,1.697560081651318-2.476530409881889,4.192689721197894-4.523241992328622,4.754698583798017-3.778798213596019,1.146521511454921-9.502503027997591-4.433581896713804-10.555635827626247-8.978610585911156l-.012260738400073-.155986156274594ZM40.255363557251258,280.399308876601935c-7.703425112313198-.13753892281602-10.309804050968523-10.659736327123028-4.24475288315989-14.676520564127713,1.935866763289596-1.330436367114089,4.683163894467725-1.535743012598687,7.06976316964392-1.56393513765579,5.937200886563005-.112242737875931,11.71010099576597-.717681996553438,17.515417917338709.145568413106957,19.372675964972586-.005807545407151,39.064481754448934.818126444690279,58.654340282055273-.22517948073255,6.020949305602699-.470258046341769,11.785242659887444.911374051187522,17.755918214157646.23574471498614,7.271318089044144-.833987175936272,14.508885971419659.128400894864171,21.8128313177167-.287944803149003,43.250666740679662,1.035249731010481,86.604306069039012-.226481221317954,129.821150011362988.672276026971304,3.284426859034284.138216762969023,6.422264133088902-.940915360770305,9.781976796450181-.339952969959995,3.555362353914461.762684118615653,5.711615401753079,3.826033149454815,5.970074589144133,7.093328037997708.365233174821697,8.252493765347026-6.379905164725642,9.087100601402199-12.845425015813817,9.053101688559764-3.618548686374197.034721854830423-7.267048898916983-.101255727939133-10.998131019025095.012015938984405-1.483619192873448.011667648772345-2.968638154812652-.093997356387263-4.442980401334353-.225346568800887-5.764562912976544-.611343033406229-11.418566993836066.806594827376102-17.189522548027526.44784776204142-41.031566583300446-1.182558719881854-82.126152943235866.514267681146521-123.099482367164455-.764764877267226-9.046222010878409.006019732003551-18.145214856045641.985447470700819-27.227767898380989.184427701095046-2.034373073796814-.029976975740283-4.163974308612524.543283372720907-6.450540426809312.59887896419059-2.685269800027527.068078011732723-5.149731373767281-.447789967591234-7.666042651464522-.444386083416248-2.507911785500255.006128818644356-5.215748748314581.539516489066955-7.828130730813427.42315432029136-8.246183391082013-.305112074487624-16.186596905627084-.411990186536059-24.50849718480822-.178967697594999-7.268723154053077-.481037044472032-14.441113413058702-.623084731932977-21.677744424967386-.147646226449069l-.202454746100557-.011699159071213ZM40.192325060226722,312.088575203337314c-7.989778262444815-.379162661820374-9.334896806520192-9.209319264171427-3.916173492842063-14.080538810494545,1.252020895592068-1.073579041831181,2.8221635723894-1.788224124597036,4.63724877907589-1.890262719261955,23.577129691928349.602645111750462,46.962265464138909-.122347088861716,70.562536313855162.652718375671611,5.321394140124539.133229380910052,10.606779262610871-.552843402672806,15.867246394225731-.570724806826547,3.824035009429281.066455918369684,7.705592583488396.679164445040442,11.54043782588451-.080608843212758,2.626664924833676-.286916259610734,5.241292295269886.031875163351287,7.856015179300812.30881415166732,3.628680364145112.290876003375161,7.131885070139106-.625658088727505,10.724087519482055-.515877460589763,2.974080196503564-.096887628324112,5.89544997982739.559475673126144,8.855523649306633.690676504209478,5.598775892947742-.338101750829082,11.055185272476592-.667611569324436,16.708286895733181-.126705257112917,24.517881193234643-.546966502641226,48.99491534084882.870658824405837,73.369134475839019-.720512694653735,6.127336973191632-.176811068320603,17.600414113969236.84670440004993,16.189561832854451,8.694680333999713-.689405939223434,2.842319720795786-2.540244210405945,7.149082127833026-6.01941708693812,7.560992943408564-6.60220509773535,1.019570616763303-13.347498887493202-.039252459186173-20.015903915091258.435589569357035-6.96869602719562.352710655366536-13.947859721698478-.326192112082936-20.880327608263542-.34363222725915-4.104685986356344-.142536965546242-8.230195414242189.650903790485245-12.355000869169089.462658120837659-7.480518542284699-.611959733492768-14.86671606823802.326067961575973-22.145069837277333-.32479864043853-5.310187841632796-.453441285799272-10.668701658803911.409988396058907-15.968707577969326.309130292876944-11.592951184304184.116497074523068-23.063942775328542-.616545241658969-34.715696316974572-.274897496179619-22.703314027070519-.139296381365057-45.415937678126284,1.229025699074555-68.121028672498142-.314724844258308-10.635188609854595-.06511495822815-21.330537339399598,1.09705199884047-31.963491177830292.153087913624404l-.209262310703707-.025064405364901ZM40.144405404977078,344.512662130411627c-7.303588023398333-1.174292622285066-9.721468955882301-8.799778108636019-4.802527338284563-13.665294890664882,2.539897201602798-2.890031284248835,7.538827945021694-3.330192459543468,11.319382965157274-2.894316605681524,22.850255691408165,1.146395489065981,45.884014902532726.174960272461249,68.80484814383999-.044498274717625,11.578168594969611-.070244699343675,23.147423294194596.861696680163732,34.774986925292978.72671439887381,25.139445772258114-.902848084520883,49.942975943007696.226108560495049,74.706429632928121-.711879278856941,5.67983016105245.261166666939971,14.550135850255174.207453804247052,15.279584379337393,7.572146309523305.372747527660977,3.492732230239199-1.346117747605604,7.289992053354581-4.533509106839119,8.314464782983123-1.923954394889734.640880215218203-4.244008213699999.63699095289121-6.366284828438438.755007059457057-62.987073695503568-.192219262844446-126.024986724247356-.009961251917048-188.972169411916184-.014222073730707l-.210741361077453-.038121427185615Z"
      />
      <path
        class="cls-3"
        d="M320.541976341362897,194.801919887775512c-.090087890625,1.830078125,1.1201171875,3.75.10009765625,5.2000732421875l-.090087890625.0799560546875c-1.5,1.070068359375-3.699951171875.110107421875-5.4599609375.1400146484375-2.60009765625-.1900634765625-5.2900390625.5699462890625-7.64990234375.5899658203125-1.02001953125,0-2.2001953125-.0899658203125-2.860107421875-.89990234375-.599853515625-.820068359375-.52001953125-1.89013671875-.409912109375-3.090087890625.4599609375-7.030029296875.119873046875-13.949951171875.52978515625-21.02001953125.18017578125-5.47998046875-1.22998046875-10.760009765625-.679931640625-16.119873046875.219970703125-1.77001953125.050048828125-3.8701171875.10009765625-5.5400390625.139892578125-3.360107421875,4.22998046875-1.820068359375,6.39990234375-1.9100341796875,2.89013671875.3800048828125,10.6201171875-2.530029296875,10.64013671875,1.719970703125-.22998046875,1.6700439453125-.610107421875,3.6900634765625-.330078125,5.4801025390625.550048828125,5.89990234375-.639892578125,11.7698974609375-.31005859375,17.7099609375.5400390625,5.97998046875.260009765625,11.780029296875.02001953125,17.659912109375Z"
      />
      <path
        class="cls-1"
        d="M197.291976341362897,104.892007778400512c-4.449951171875-.9100341796875-9.2099609375.239990234375-13.7900390625-.27001953125-6.829833984375-.580078125-13.39990234375.0999755859375-20.349853515625-.06005859375-5.080078125-.419921875-9.900146484375.52001953125-15.06005859375.4599609375-4.81005859375-.119873046875-3.429931640625-4.079833984375-3.3798828125-7.369873046875-.06005859375-12.9200439453125-.880126953125-25.7900390625.009765625-38.6900634765625-.02978515625-2.5399169921875-.25-5.0699462890625-.4599609375-7.5599365234375-.06982421875-.739990234375-.0498046875-1.77001953125.420166015625-2.1800537109375l.08984375-.0799560546875c21.830078125.39990234375,45.25,20.89990234375,52.179931640625,41.409912109375.75,3.010009765625,5.730224609375,14.4200439453125.340087890625,14.340087890625Z"
      />
      <path
        class="cls-4"
        d="M448.701888450737897,20.791910122150512c.110107421875-1.409912109375.8701171875-3.8199462890625-.23974609375-4.60986328125-2.72998046875-.630126953125-6.610107421875.0699462890625-9.43017578125-.260009765625-31.030029296875,1.0299072265625-62.2900390625-.3701171875-93.31005859375.43994140625-70.669921875-.219970703125-141.259765625-.68994140625-211.829833984375.25-30.380126953125-.93994140625-61.02001953125-.8699951171875-91.429931640625-.1300048828125-5.93017578125-.3699951171875-11.610107421875-.0999755859375-17.4501953125-.3699951171875-2.429931640625.199951171875-5.89990234375-.6500244140625-7.929931640625.699951171875l-.090087890625.10009765625c-1.659912109375,47.919921875-.509765625,96.919921875-.31982421875,145.18994140625.349853515625,23.300048828125-2.41015625,47.7099609375.85986328125,70.25,7.43994140625,1.97998046875,15.7099609375-.47998046875,23.4599609375-.169921875,70.56005859375.929931640625,141.130126953125.5499267578125,211.4501953125.119873046875,53.8798828125.31005859375,108.219970703125.989990234375,162.08984375-.0699462890625,11.260009765625.0699462890625,23.10009765625,1.02001953125,34.050048828125.239990234375.43994140625-8.02001953125.43994140625-16.9400634765625.360107421875-25.1800537109375-.2900390625-62.219970703125.079833984375-124.2999267578125-.240234375-186.5ZM112.541976341362897,216.721963833088012h-.2099609375c-105.909912109375-3.010009765625-104.010009765625-159.6600341796875,1.119873046875-160.3900146484375,7.02001953125,1.1500244140625,6.980224609375,8.1800537109375,7.01025390625,13.8900146484375-.190185546875,4.5899658203125.289794921875,9.6500244140625.259765625,14.3699951171875-.5498046875,9.9200439453125-.039794921875,19.9000244140625.0400390625,29.8900146484375-.10986328125,3.4300537109375-.889892578125,6.8599853515625-.77978515625,10.27001953125.02978515625,1.0899658203125.18994140625,2.1300048828125.7099609375,2.739990234375.4599609375.5599365234375,1.179931640625.7999267578125,2.06982421875.8399658203125,2.1201171875.02001953125,4.4599609375-.0699462890625,6.780029296875-.030029296875,16.1201171875.72998046875,32.080078125-.530029296875,48.1201171875.360107421875,4.27001953125.0999755859375,9.64990234375-1.239990234375,12.6298828125,2.3299560546875,1.5400390625,1.72998046875,2.280029296875,4.239990234375,2.47998046875,7.1400146484375-1.169921875,43.679931640625-36.719970703125,77.550048828125-80.22998046875,78.5899658203125ZM216.442122825737897,113.981973598713012c-.39013671875,6.5399169921875-8.22021484375,6.1800537109375-13.050048828125,6.25-11.39013671875,1.0499267578125-22.780029296875-.4200439453125-34.330078125.0999755859375-3.320068359375.280029296875-6.22998046875.090087890625-9.39990234375-.0699462890625-2.969970703125.0799560546875-5.56005859375.3800048828125-8.400146484375.0198974609375-1.39990234375-.08984375-2.83984375-.0299072265625-4.239990234375.10009765625-3.530029296875.419921875-6.969970703125-.050048828125-10.52001953125-.340087890625l-.2099609375-.010009765625c-6.059814453125.0400390625-7.739990234375-4.10986328125-7.5-9.909912109375-.169921875-4.25-.72998046875-7.679931640625-.090087890625-12.050048828125-.02978515625-11.050048828125-.14990234375-22.199951171875-.159912109375-33.260009765625.090087890625-4.0999755859375.360107421875-8.27001953125.199951171875-12.3599853515625.010009765625-5.8599853515625-2.869873046875-18.1199951171875,5.6201171875-19.5399169921875,43.8798828125-3.97998046875,84.60009765625,37.429931640625,82.080078125,81.0699462890625ZM432.982161888237897,120.771890590900512c-.35009765625,21.110107421875-.690185546875,42.110107421875-.1201171875,63.170166015625-1.85009765625,9.719970703125,3.179931640625,22.10986328125-3.16015625,30.169921875-4.809814453125,4.260009765625-13.039794921875,2.5999755859375-19.159912109375,2.43994140625-8.550048828125.25-17.27001953125.260009765625-25.919921875-.010009765625-40.10009765625-.199951171875-79.93994140625.2000732421875-120.030029296875-.0399169921875l-.18994140625-.02001953125c-11.14013671875-1.3800048828125-7.5400390625-16.1700439453125-7.7001953125-24.1500244140625-.8798828125-16.639892578125.300048828125-33.260009765625-.39990234375-49.89990234375,1.169921875-24.4700927734375-.580078125-48.89013671875.580078125-73.39013671875-.260009765625-6.869873046875-3.22998046875-18.0899658203125,6.169921875-20.159912109375,16.199951171875-.9100341796875,7.2099609375,26.39990234375,9.340087890625,36.56005859375-.260009765625,4.9599609375,6.1298828125,2.599853515625,9.4599609375,2.85986328125,13.56005859375-1.5499267578125,24.56005859375-.85986328125,23.0400390625,15.4400634765625-.820068359375,10.1099853515625.119873046875,20.1600341796875-.949951171875,30.260009765625-.130126953125,3.8599853515625,3.489990234375,2.6700439453125,6.989990234375,2.5198974609375,4.389892578125.050048828125,8.849853515625-.0399169921875,13.269775390625-.5299072265625,11.0400390625-1.0999755859375,12.900146484375,6.6900634765625,12.460205078125,17.0399169921875-.170166015625,11.8701171875-.22998046875,23.3701171875.320068359375,35.27001953125-.920166015625,15.800048828125-.990234375,12.780029296875,15.2197265625,11.7100830078125,1.2900390625-23.0799560546875.10009765625-47.1300048828125.27001953125-70.550048828125-1.7099609375-17.989990234375,5.47998046875-17.5,20.0400390625-17.3499755859375,3.050048828125-.6099853515625,10.340087890625,1.5899658203125,12.25-.969970703125-.27978515625-10.5400390625.090087890625-21.8800048828125-.260009765625-32.590087890625.39013671875-7.280029296875-2.33984375-19.139892578125,6.630126953125-21.969970703125,58.159912109375-1.969970703125,38.050048828125-3.22998046875,41.85009765625,64.18994140625ZM385.072005638237897,184.741983364338012c-.580078125,4.719970703125.449951171875,5.8599853515625-4.330078125,8.1400146484375-2.849853515625,1.159912109375-10.179931640625,11.2099609375-12.2099609375,7.52001953125l-.06982421875-.1400146484375c-2.830078125-6.8199462890625,6.719970703125-10.4200439453125,11.309814453125-14.2000732421875,1.25-.9599609375,2.610107421875-2.5999755859375,3.650146484375-3.369873046875,1.7099609375-1.1900634765625,2,.7999267578125,1.64990234375,2.0499267578125ZM384.991927513237897,169.841958950275512c-.119873046875,1.85009765625.010009765625,3.4599609375-.77001953125,4.530029296875-1.98974609375,2.06005859375-4.889892578125,3.5999755859375-7.009765625,5.300048828125-1.64013671875,1.10986328125-3.47998046875,2.169921875-4.9501953125,4-.93994140625.909912109375-2.77001953125,4.10986328125-4.139892578125,2.929931640625-.860107421875-1.3399658203125-.31005859375-4.6099853515625.110107421875-6.6500244140625.1298828125-.4599609375.31982421875-.9200439453125.58984375-1.2999267578125l.10009765625-.130126953125c4.159912109375-3.5599365234375,8.679931640625-7.0198974609375,12.97998046875-10.469970703125.669921875-.5699462890625,1.72998046875-1.780029296875,2.4599609375-1.659912109375,1.06005859375.409912109375.580078125,2.4599609375.6298828125,3.449951171875ZM384.991927513237897,153.851968715900512c-.119873046875,1.8499755859375,0,3.449951171875-.77001953125,4.52001953125-2,2.06005859375-4.889892578125,3.5899658203125-7.009765625,5.300048828125-1.64013671875,1.10986328125-3.47998046875,2.169921875-4.9501953125,3.989990234375-.93994140625.909912109375-2.760009765625,4.0899658203125-4.1298828125,2.969970703125-.830078125-1.31005859375-.330078125-4.739990234375.080078125-6.739990234375.1298828125-.469970703125.31982421875-.9000244140625.58984375-1.280029296875l.10009765625-.1300048828125c4.39990234375-3.8699951171875,9.4599609375-7.2999267578125,13.869873046875-11.2100830078125.590087890625-.5399169921875,1.150146484375-.949951171875,1.580078125-.869873046875,1.070068359375.409912109375.590087890625,2.449951171875.639892578125,3.449951171875ZM384.991927513237897,137.841958950275512c-.119873046875,1.85009765625.010009765625,3.4599609375-.77001953125,4.530029296875-1.98974609375,2.06005859375-4.889892578125,3.5999755859375-7.009765625,5.300048828125-1.64013671875,1.10986328125-3.47998046875,2.169921875-4.9501953125,4-.93994140625.909912109375-2.77001953125,4.10986328125-4.139892578125,2.929931640625-.860107421875-1.3399658203125-.31005859375-4.6099853515625.110107421875-6.6500244140625.1298828125-.4599609375.31982421875-.9200439453125.58984375-1.2999267578125l.10009765625-.130126953125c4.159912109375-3.5599365234375,8.679931640625-7.0198974609375,12.97998046875-10.469970703125.669921875-.5699462890625,1.72998046875-1.780029296875,2.4599609375-1.659912109375,1.06005859375.409912109375.580078125,2.4599609375.6298828125,3.449951171875ZM378.031966575737897,131.262002895588012c-2.56005859375,1.97998046875-5.1298828125,3.6199951171875-7.22998046875,6.0499267578125-.4599609375.550048828125-.85009765625,1.010009765625-1.35986328125,1.130126953125-.77001953125.2099609375-1.60009765625-.360107421875-1.5-1.150146484375.08984375-.659912109375.35986328125-1.27001953125.4599609375-1.929931640625.349853515625-1.6500244140625-.68017578125-3.4000244140625.10986328125-4.840087890625l.090087890625-.159912109375c1.780029296875-3.06005859375,5.889892578125-1.530029296875,8.840087890625-2.06005859375,1.72998046875-.27001953125,3.0400390625-1.369873046875,4.199951171875-.719970703125,2.820068359375,1.840087890625-2.47998046875,2.47998046875-3.610107421875,3.6800537109375Z"
      />
    </g>
  </g>
</svg>
