<svg viewBox="0 0 384.408547537881532 465.01608069755639">
  <defs>
    <style>
      .cls-1 {
        fill: var(--black);
      }

      .cls-2 {
        fill: var(--yellow);
      }
    </style>
  </defs>
  <g>
    <g>
      <path
        class="cls-1"
        d="M244.667295014673982,204.45857023305507c-2.28997802734375-4.34002685546875-5.1199951171875-8.49005126953125-8.39996337890625-12.1600341796875-3.75-3.67999267578125-8.260009765625-6.70001220703125-12.760009765625-9.3800048828125l-.15997314453125-.0899658203125c-3.10003662109375-1.71002197265625-6.6400146484375-2.47003173828125-10.1600341796875-2.34002685546875-2.75-.04998779296875-5.57000732421875.57000732421875-6.70001220703125-.59002685546875-.5999755859375-1.5899658203125,1.36004638671875-3.0699462890625,2.27001953125-4.28997802734375,3.0999755859375-3.3399658203125,5.8900146484375-6.8900146484375,9.21002197265625-9.92999267578125,3.8599853515625-3.28997802734375,8.199951171875-5.9000244140625,12.65997314453125-8.32000732421875,7.59002685546875-3.78997802734375,10.6300048828125-13.82000732421875,8.4100341796875-21.64996337890625-2.5-8.77001953125-11.33001708984375-14.31005859375-20.0400390625-15.5-6.8699951171875-.46002197265625-13.97998046875,1.68994140625-20.010009765625,4.97998046875-3.219970703125,1.8499755859375-6.1099853515625,4.25-9.22998046875,6.27996826171875-10.719970703125,7.1500244140625-19.65997314453125,16.550048828125-28.09002685546875,26.20001220703125-4.3399658203125,4.72998046875-8.7099609375,9.45001220703125-12.44000244140625,14.69000244140625-3.63995361328125,4.47003173828125-6.63995361328125,9.27001953125-9.3299560546875,14.4000244140625-5.57000732421875,8.3499755859375-10.09002685546875,18.88995361328125-6.35003662109375,28.8699951171875,1.95001220703125,6.3499755859375,6.71002197265625,11.05999755859375,11.280029296875,15.6099853515625,3.19000244140625,3.010009765625,7.3499755859375,5.03997802734375,11.3699951171875,7.010009765625,3.510009765625,1.71002197265625,7.34002685546875,2.6400146484375,11.27001953125,2.45001220703125,14.52996826171875-.19000244140625,26.449951171875-9.7900390625,7.5899658203125,7.8599853515625-8,8.1300048828125-17.04998779296875,15.1099853515625-25.82000732421875,22.3599853515625-2.80999755859375,2.3800048828125-5.97998046875,4.280029296875-8.76995849609375,6.6600341796875-3.94000244140625,3.53997802734375-7.280029296875,8.53997802734375-7.96002197265625,13.79998779296875-.239990234375,6.739990234375,3.67999267578125,12.7099609375,7.57000732421875,17.91998291015625,2.8800048828125,4.1199951171875,6.8499755859375,7.22998046875,10.989990234375,10.02001953125,2.780029296875,1.8599853515625,5.44000244140625,3.95001220703125,8.54998779296875,4.55999755859375,3.82000732421875.76995849609375,8.1199951171875.6300048828125,11.6400146484375-1.010009765625,1.55999755859375-.760009765625,2.97998046875-1.78997802734375,4.3699951171875-2.80999755859375,3.6400146484375-2.760009765625,7.67999267578125-5.08001708984375,11.19000244140625-8.1099853515625,6.55999755859375-5.86004638671875,12.3900146484375-11.9000244140625,19.010009765625-17.489990234375,3.47998046875-3.60003662109375,6.32000732421875-7.6800537109375,10.1300048828125-10.95001220703125,2.89996337890625-2.6600341796875,5.22998046875-5.82000732421875,7.7099609375-8.85003662109375,3.46002197265625-3.90997314453125,6.4300537109375-8.16998291015625,9.20001220703125-12.5799560546875,5.260009765625-7.6700439453125,10.27001953125-15.58001708984375,13.4200439453125-24.3800048828125,3.65997314453125-10.75,3.0799560546875-22.9100341796875-1.62005615234375-33.239990234375ZM231.757321870142732,229.75855802602382l-.04998779296875.17999267578125c-2.3599853515625,6.3800048828125-4.82000732421875,12.89996337890625-8.6199951171875,18.6199951171875-3.4000244140625,5.969970703125-8.19000244140625,10.90997314453125-12.3699951171875,16.28997802734375-2.5,3.08001708984375-5.10003662109375,6.08001708984375-7.45001220703125,9.280029296875-3.1300048828125,4.26995849609375-7.22998046875,7.64996337890625-10.8699951171875,11.45001220703125-3.84002685546875,4.27996826171875-8.510009765625,7.63995361328125-12.6500244140625,11.6099853515625-1.39996337890625,1.3499755859375-2.80999755859375,2.7099609375-4.3499755859375,3.91998291015625-3.22003173828125,2.3900146484375-6.92999267578125,4.8900146484375-10.6199951171875,6.30999755859375-3.23004150390625,1.1199951171875-5.85003662109375-1.52001953125-8.08001708984375-3.5-4.17999267578125-3.6099853515625-10.83001708984375-10.41998291015625-4.1500244140625-14.95001220703125,5.25-4.199951171875,10.77001953125-8.25994873046875,15.96002197265625-12.69000244140625,3.0999755859375-2.75,6.3900146484375-5.26995849609375,9.510009765625-7.969970703125,5.65997314453125-5.6600341796875,11.83001708984375-11.02001953125,17.52996826171875-16.54998779296875,5.300048828125-5.96002197265625,10.35003662109375-12.280029296875,14.6300048828125-19.010009765625,2.4200439453125-4.60003662109375,5.10003662109375-9.030029296875,6.84002685546875-13.96002197265625,3.58001708984375-9.5899658203125-.260009765625-9.42999267578125-8.59002685546875-6.969970703125-5.27996826171875,1.32000732421875-10.03997802734375,3.7099609375-15.02996826171875,5.8599853515625-4.42999267578125,1.77001953125-9.030029296875,3.21002197265625-13.57000732421875,4.719970703125-5.80999755859375,1.83001708984375-12.260009765625,2.74005126953125-18.1600341796875.99005126953125-3.8699951171875-1.280029296875-7.1199951171875-4.48004150390625-9.8499755859375-7.800048828125-7.969970703125-9.26995849609375.57000732421875-19.53997802734375,5.760009765625-27.75,5.25-6.8699951171875,10.33001708984375-13.90997314453125,16.27001953125-20.19000244140625,3.44000244140625-4.03997802734375,6.75994873046875-8.17999267578125,10.77996826171875-11.67999267578125,4.27001953125-3.75,8.780029296875-7.22998046875,13.07000732421875-10.949951171875,4.5-4.030029296875,9.8499755859375-6.75,15.6400146484375-8.48004150390625,2.54998779296875-.80999755859375,5.64996337890625-1.02996826171875,7.70001220703125.510009765625,1.79998779296875,1.25,2.42999267578125,3.530029296875,1.12994384765625,5.30999755859375-.5999755859375.91998291015625-1.5699462890625,1.72998046875-2.65997314453125,2.44000244140625-4.489990234375,2.80999755859375-8.969970703125,5.47003173828125-12.94000244140625,8.9100341796875-7.510009765625,6.87994384765625-13.69000244140625,15.1099853515625-20.0999755859375,23-6.61004638671875,8.949951171875-12.10003662109375,18.63995361328125-18.8800048828125,27.469970703125-1.260009765625,1.53997802734375-4.98004150390625,6.40997314453125-.5400390625,5.47998046875,9.97003173828125-3.219970703125,19.46002197265625-8.1199951171875,29.6300048828125-10.82000732421875,5.739990234375-1.219970703125,11.61004638671875-3.17999267578125,17.45001220703125-1.79998779296875,6.03997802734375,1.80999755859375,11.780029296875,6.35003662109375,14.95001220703125,11.84002685546875,1.57000732421875,2.94000244140625,2.27001953125,6.22998046875,2.80999755859375,9.57000732421875.69000244140625,3.8699951171875,1.04998779296875,7.69000244140625-.1300048828125,11.30999755859375ZM75.767331635767732,185.40852140493007c-4.3900146484375-1.88995361328125-9.3800048828125-1.0799560546875-14.1099853515625-1.14996337890625-2.99005126953125-.04998779296875-6.030029296875-.23004150390625-8.99005126953125-.10003662109375-7.64996337890625-.01995849609375-15.28997802734375.1400146484375-22.94000244140625-.13995361328125-3.5899658203125-.050048828125-7.14996337890625.52996826171875-10.699951171875.52996826171875-4.3900146484375.07000732421875-8.98004150390625-1.17999267578125-13.20001220703125.4000244140625-5.35003662109375,1.82000732421875-8.10003662109375,8.8699951171875-3.47998046875,12.94000244140625,6.79998779296875,5.469970703125,18,1.63995361328125,26.199951171875,2.41998291015625,5.8900146484375-.28997802734375,11.74005126953125.44000244140625,17.60003662109375.46002197265625,8.8499755859375-.07000732421875,17.77996826171875-.25,26.54998779296875-.6600341796875l.19000244140625-.02996826171875c8.15997314453125-1.21002197265625,10.40997314453125-10.9300537109375,2.8800048828125-14.6700439453125ZM94.907346284205232,128.65852140493007c-1.69000244140625-3.32000732421875-5.34002685546875-5.0799560546875-8.47003173828125-6.8499755859375-3.83001708984375-2.1199951171875-7.3900146484375-4.6600341796875-11.15997314453125-6.82000732421875-3.3800048828125-1.84002685546875-6.9000244140625-3.260009765625-10.19000244140625-5.27996826171875-8.22003173828125-4.56005859375-15.84002685546875-10.0400390625-24.11004638671875-14.49005126953125-4.489990234375-3.1099853515625-11.67999267578125-4.25994873046875-14.79998779296875,1l-.0799560546875.1600341796875c-1.36004638671875,2.51995849609375-.96002197265625,6.14996337890625.75,8.52996826171875,2.199951171875,2.9200439453125,5.75994873046875,4.17999267578125,8.76995849609375,6.1400146484375,7.3800048828125,4.45001220703125,14.73004150390625,8.69000244140625,22.1300048828125,13.03997802734375,4.55999755859375,2.550048828125,9.02001953125,5.35003662109375,13.67999267578125,7.87005615234375,6.29998779296875,3.5799560546875,17.45001220703125,12.8599853515625,23.57000732421875,4.8199462890625,1.44000244140625-2.3599853515625,1.260009765625-5.5799560546875-.0899658203125-8.1199951171875ZM140.167295014673982,86.96851896352382c-.5899658203125-3.1099853515625-2.8199462890625-5.64996337890625-4.3199462890625-8.39996337890625-2.8900146484375-5.92999267578125-6.4200439453125-11.57000732421875-9.60003662109375-17.33001708984375-1.4599609375-2.72998046875-2.82000732421875-5.510009765625-4.54998779296875-8.07000732421875-3.030029296875-4.15997314453125-5.54998779296875-8.6300048828125-8.16998291015625-13.05999755859375-3.1600341796875-4.6099853515625-4.3900146484375-10.78997802734375-9.1500244140625-14.04998779296875-7.21002197265625-4.54998779296875-14.30999755859375,3.08001708984375-11.30999755859375,10.30999755859375l.05999755859375.15997314453125c6.780029296875,12.61004638671875,14.4000244140625,24.9300537109375,21.3599853515625,37.46002197265625,2.9100341796875,4.90997314453125,5.80999755859375,10.05999755859375,8.71002197265625,14.8900146484375,1.96002197265625,2.989990234375,3.77001953125,6.66998291015625,7.57000732421875,7.489990234375,4.8499755859375,1.08001708984375,10.4599609375-4.33001708984375,9.39996337890625-9.4000244140625ZM75.397336518580232,254.11854337758632c-2.96002197265625-1.03997802734375-6.17999267578125.0999755859375-8.9000244140625,1.3599853515625-4.67999267578125,2.0400390625-8.6099853515625,5.6099853515625-13.27996826171875,8.08001708984375-6.010009765625,2.5999755859375-10.96002197265625,6.22998046875-16.59002685546875,9.3599853515625-2.92999267578125,1.52001953125-6.1300048828125,2.77001953125-8.6300048828125,4.95001220703125-6.6099853515625,5.46002197265625-3.010009765625,16.1500244140625,6.1500244140625,14.010009765625,4.75-1.05999755859375,8.5799560546875-4.46002197265625,13-6.35003662109375,10.19000244140625-4.94000244140625,19.5899658203125-11.5,29.3599853515625-17.16998291015625l.15997314453125-.1099853515625c5.49005126953125-3.58001708984375,4.760009765625-11.71002197265625-1.26995849609375-14.1300048828125ZM349.367307221705232,273.57856535024257c-6.0999755859375-3.23004150390625-11.7099609375-7.32000732421875-18.0899658203125-10.0400390625-6.5400390625-3.3699951171875-12.6300048828125-9.7099609375-20.44000244140625-9.6199951171875-5.70001220703125.260009765625-8.29998779296875,7.46002197265625-5.33001708984375,11.95001220703125,2.010009765625,3.41998291015625,5.78997802734375,4.8800048828125,9.19000244140625,6.5,3.30999755859375,1.54998779296875,6.47998046875,3.71002197265625,9.78997802734375,5.46002197265625,6.3699951171875,3.79998779296875,12.6700439453125,8.239990234375,19.21002197265625,11.5999755859375,2.33001708984375,1.3699951171875,4.69000244140625,2.80999755859375,7.46002197265625,2.71002197265625,2.8299560546875-.09002685546875,5.92999267578125-1.35003662109375,7.3399658203125-3.72003173828125l.09002685546875-.14996337890625c3.95001220703125-7.08001708984375-3.80999755859375-11.7900390625-9.22003173828125-14.69000244140625ZM379.447324311548982,185.19856046743007c-3.21002197265625-1.35003662109375-6.96002197265625-.77001953125-10.3900146484375-.9000244140625-11.760009765625-.20001220703125-23.260009765625-.04998779296875-34.97998046875-.17999267578125-4.780029296875.1099853515625-9.53997802734375.0999755859375-14.32000732421875-.1099853515625-4.1199951171875.04998779296875-8.6400146484375.260009765625-12.260009765625,2.29998779296875-5.7099609375,3.1500244140625-3.80999755859375,10.760009765625,1.6099853515625,13.1199951171875,4.75,2.07000732421875,10.2900390625.75,15.30999755859375,1.19000244140625,5.52001953125.40997314453125,10.95001220703125.08001708984375,16.45001220703125-.29998779296875,6.84002685546875-.1300048828125,13.7900390625-.05999755859375,20.6099853515625.41998291015625,4.57000732421875.02001953125,9.08001708984375.030029296875,13.57000732421875-.1400146484375,4.47003173828125-.0899658203125,9.45001220703125-3.64996337890625,9.36004638671875-8.2099609375v-.17999267578125c-.08001708984375-2.87005615234375-2.23004150390625-5.81005859375-4.96002197265625-7.010009765625ZM354.877316987330232,92.66853117055507c-5.5999755859375-1.95001220703125-11.239990234375,2.08001708984375-15.760009765625,5.04998779296875-3.28997802734375,2.4200439453125-6.94000244140625,4.45001220703125-10.489990234375,6.5400390625-5.08001708984375,3.260009765625-10.67999267578125,5.4599609375-15.760009765625,8.66998291015625-4.8699951171875,2.91998291015625-9.6300048828125,5.6400146484375-14.27996826171875,8.8800048828125-2.1600341796875,1.3900146484375-4.6199951171875,2.41998291015625-6.52001953125,4.02001953125l-.1500244140625.1300048828125c-6.14996337890625,4.8499755859375-4,14.1199951171875,4.0400390625,14.3399658203125,5.15997314453125-.219970703125,9.27996826171875-3.80999755859375,13.66998291015625-6.239990234375,5.55999755859375-2.97003173828125,10.83001708984375-6.34002685546875,16.29998779296875-9.3599853515625,3.94000244140625-2.57000732421875,8.1500244140625-4.69000244140625,12.23004150390625-7.030029296875,2.719970703125-1.65997314453125,5.2099609375-3.66998291015625,7.94000244140625-5.260009765625,3.76995849609375-2.27996826171875,8.3399658203125-3.5,11.17999267578125-6.989990234375,3.3599853515625-3.8699951171875,2.8599853515625-10.8800048828125-2.4000244140625-12.75ZM282.337338959986482,25.26856779164882c-5.1300048828125,1.76995849609375-7.77001953125,7.3699951171875-10.09002685546875,11.92999267578125-3.92999267578125,8.449951171875-9.22998046875,16.28997802734375-14.1400146484375,24.17999267578125-4.3800048828125,7.70001220703125-8.69000244140625,15.489990234375-12.72998046875,23.30999755859375l-.07000732421875.17999267578125c-3.0899658203125,7.66998291015625,4.25,14.46002197265625,11.22003173828125,9.83001708984375,3.88995361328125-2.8800048828125,5.66998291015625-7.6600341796875,8.13995361328125-11.739990234375,1-1.71002197265625,2.1600341796875-3.4100341796875,3.12005615234375-5.11004638671875,4.39996337890625-7.8299560546875,8.8299560546875-15.47998046875,13.5-23.1300048828125,2.54998779296875-5.3399658203125,5.25994873046875-10.39996337890625,8.65997314453125-15.22998046875,4.3900146484375-6.1300048828125.989990234375-16.55999755859375-7.6099853515625-14.219970703125ZM200.417295014673982,52.72852872914882c-.02996826171875-8.04998779296875-.05999755859375-16.0899658203125.1400146484375-24.1400146484375-.469970703125-5.88995361328125-.65997314453125-11.72998046875-.1300048828125-17.5999755859375.7900390625-7.469970703125-7.510009765625-14.96002197265625-13.739990234375-8.58001708984375-4.08001708984375,4.86004638671875-2.8800048828125,12.08001708984375-2.55999755859375,17.98004150390625.530029296875,8.5999755859375-.07000732421875,17.239990234375-.32000732421875,25.82000732421875.07000732421875,8.8499755859375.25,17.77996826171875.6600341796875,26.54998779296875l.02996826171875.19000244140625c1.1600341796875,8.13995361328125,10.97998046875,10.40997314453125,14.66998291015625,2.8800048828125,1.8900146484375-4.3900146484375,1.08001708984375-9.3800048828125,1.1500244140625-14.11004638671875.04998779296875-2.989990234375.22998046875-6.02996826171875.0999755859375-8.989990234375ZM244.667295014673982,204.45857023305507c-2.28997802734375-4.34002685546875-5.1199951171875-8.49005126953125-8.39996337890625-12.1600341796875-3.75-3.67999267578125-8.260009765625-6.70001220703125-12.760009765625-9.3800048828125l-.15997314453125-.0899658203125c-3.10003662109375-1.71002197265625-6.6400146484375-2.47003173828125-10.1600341796875-2.34002685546875-2.75-.04998779296875-5.57000732421875.57000732421875-6.70001220703125-.59002685546875-.5999755859375-1.5899658203125,1.36004638671875-3.0699462890625,2.27001953125-4.28997802734375,3.0999755859375-3.3399658203125,5.8900146484375-6.8900146484375,9.21002197265625-9.92999267578125,3.8599853515625-3.28997802734375,8.199951171875-5.9000244140625,12.65997314453125-8.32000732421875,7.59002685546875-3.78997802734375,10.6300048828125-13.82000732421875,8.4100341796875-21.64996337890625-2.5-8.77001953125-11.33001708984375-14.31005859375-20.0400390625-15.5-6.8699951171875-.46002197265625-13.97998046875,1.68994140625-20.010009765625,4.97998046875-3.219970703125,1.8499755859375-6.1099853515625,4.25-9.22998046875,6.27996826171875-10.719970703125,7.1500244140625-19.65997314453125,16.550048828125-28.09002685546875,26.20001220703125-4.3399658203125,4.72998046875-8.7099609375,9.45001220703125-12.44000244140625,14.69000244140625-3.63995361328125,4.47003173828125-6.63995361328125,9.27001953125-9.3299560546875,14.4000244140625-5.57000732421875,8.3499755859375-10.09002685546875,18.88995361328125-6.35003662109375,28.8699951171875,1.95001220703125,6.3499755859375,6.71002197265625,11.05999755859375,11.280029296875,15.6099853515625,3.19000244140625,3.010009765625,7.3499755859375,5.03997802734375,11.3699951171875,7.010009765625,3.510009765625,1.71002197265625,7.34002685546875,2.6400146484375,11.27001953125,2.45001220703125,14.52996826171875-.19000244140625,26.449951171875-9.7900390625,7.5899658203125,7.8599853515625-8,8.1300048828125-17.04998779296875,15.1099853515625-25.82000732421875,22.3599853515625-2.80999755859375,2.3800048828125-5.97998046875,4.280029296875-8.76995849609375,6.6600341796875-3.94000244140625,3.53997802734375-7.280029296875,8.53997802734375-7.96002197265625,13.79998779296875-.239990234375,6.739990234375,3.67999267578125,12.7099609375,7.57000732421875,17.91998291015625,2.8800048828125,4.1199951171875,6.8499755859375,7.22998046875,10.989990234375,10.02001953125,2.780029296875,1.8599853515625,5.44000244140625,3.95001220703125,8.54998779296875,4.55999755859375,3.82000732421875.76995849609375,8.1199951171875.6300048828125,11.6400146484375-1.010009765625,1.55999755859375-.760009765625,2.97998046875-1.78997802734375,4.3699951171875-2.80999755859375,3.6400146484375-2.760009765625,7.67999267578125-5.08001708984375,11.19000244140625-8.1099853515625,6.55999755859375-5.86004638671875,12.3900146484375-11.9000244140625,19.010009765625-17.489990234375,3.47998046875-3.60003662109375,6.32000732421875-7.6800537109375,10.1300048828125-10.95001220703125,2.89996337890625-2.6600341796875,5.22998046875-5.82000732421875,7.7099609375-8.85003662109375,3.46002197265625-3.90997314453125,6.4300537109375-8.16998291015625,9.20001220703125-12.5799560546875,5.260009765625-7.6700439453125,10.27001953125-15.58001708984375,13.4200439453125-24.3800048828125,3.65997314453125-10.75,3.0799560546875-22.9100341796875-1.62005615234375-33.239990234375ZM231.757321870142732,229.75855802602382l-.04998779296875.17999267578125c-2.3599853515625,6.3800048828125-4.82000732421875,12.89996337890625-8.6199951171875,18.6199951171875-3.4000244140625,5.969970703125-8.19000244140625,10.90997314453125-12.3699951171875,16.28997802734375-2.5,3.08001708984375-5.10003662109375,6.08001708984375-7.45001220703125,9.280029296875-3.1300048828125,4.26995849609375-7.22998046875,7.64996337890625-10.8699951171875,11.45001220703125-3.84002685546875,4.27996826171875-8.510009765625,7.63995361328125-12.6500244140625,11.6099853515625-1.39996337890625,1.3499755859375-2.80999755859375,2.7099609375-4.3499755859375,3.91998291015625-3.22003173828125,2.3900146484375-6.92999267578125,4.8900146484375-10.6199951171875,6.30999755859375-3.23004150390625,1.1199951171875-5.85003662109375-1.52001953125-8.08001708984375-3.5-4.17999267578125-3.6099853515625-10.83001708984375-10.41998291015625-4.1500244140625-14.95001220703125,5.25-4.199951171875,10.77001953125-8.25994873046875,15.96002197265625-12.69000244140625,3.0999755859375-2.75,6.3900146484375-5.26995849609375,9.510009765625-7.969970703125,5.65997314453125-5.6600341796875,11.83001708984375-11.02001953125,17.52996826171875-16.54998779296875,5.300048828125-5.96002197265625,10.35003662109375-12.280029296875,14.6300048828125-19.010009765625,2.4200439453125-4.60003662109375,5.10003662109375-9.030029296875,6.84002685546875-13.96002197265625,3.58001708984375-9.5899658203125-.260009765625-9.42999267578125-8.59002685546875-6.969970703125-5.27996826171875,1.32000732421875-10.03997802734375,3.7099609375-15.02996826171875,5.8599853515625-4.42999267578125,1.77001953125-9.030029296875,3.21002197265625-13.57000732421875,4.719970703125-5.80999755859375,1.83001708984375-12.260009765625,2.74005126953125-18.1600341796875.99005126953125-3.8699951171875-1.280029296875-7.1199951171875-4.48004150390625-9.8499755859375-7.800048828125-7.969970703125-9.26995849609375.57000732421875-19.53997802734375,5.760009765625-27.75,5.25-6.8699951171875,10.33001708984375-13.90997314453125,16.27001953125-20.19000244140625,3.44000244140625-4.03997802734375,6.75994873046875-8.17999267578125,10.77996826171875-11.67999267578125,4.27001953125-3.75,8.780029296875-7.22998046875,13.07000732421875-10.949951171875,4.5-4.030029296875,9.8499755859375-6.75,15.6400146484375-8.48004150390625,2.54998779296875-.80999755859375,5.64996337890625-1.02996826171875,7.70001220703125.510009765625,1.79998779296875,1.25,2.42999267578125,3.530029296875,1.12994384765625,5.30999755859375-.5999755859375.91998291015625-1.5699462890625,1.72998046875-2.65997314453125,2.44000244140625-4.489990234375,2.80999755859375-8.969970703125,5.47003173828125-12.94000244140625,8.9100341796875-7.510009765625,6.87994384765625-13.69000244140625,15.1099853515625-20.0999755859375,23-6.61004638671875,8.949951171875-12.10003662109375,18.63995361328125-18.8800048828125,27.469970703125-1.260009765625,1.53997802734375-4.98004150390625,6.40997314453125-.5400390625,5.47998046875,9.97003173828125-3.219970703125,19.46002197265625-8.1199951171875,29.6300048828125-10.82000732421875,5.739990234375-1.219970703125,11.61004638671875-3.17999267578125,17.45001220703125-1.79998779296875,6.03997802734375,1.80999755859375,11.780029296875,6.35003662109375,14.95001220703125,11.84002685546875,1.57000732421875,2.94000244140625,2.27001953125,6.22998046875,2.80999755859375,9.57000732421875.69000244140625,3.8699951171875,1.04998779296875,7.69000244140625-.1300048828125,11.30999755859375ZM344.527341401392732,374.78852628774257c-.2900390625-8.67999267578125-.60003662109375-17.3699951171875-.17999267578125-26.04998779296875.219970703125-7.17999267578125,1.77996826171875-18.70001220703125-7.9300537109375-19.8599853515625l-.19000244140625-.030029296875c-52.26995849609375-2.40997314453125-38.3299560546875,9.10003662109375-39.68994140625-42.54998779296875-1.02001953125-24.04998779296875-.07000732421875-48.08001708984375-.1300048828125-72.1400146484375-.57000732421875-12.63995361328125.3800048828125-25.38995361328125-1.1400146484375-37.969970703125-1.4100341796875-8.67999267578125-4.5-17.09002685546875-7.29998779296875-25.3800048828125-16.3900146484375-38.96002197265625-57.94000244140625-64.82000732421875-100.05999755859375-63.1199951171875-47.72003173828125,1.54998779296875-91.02001953125,39.010009765625-97.99005126953125,86.45001220703125-2.8499755859375,16.42999267578125-1.719970703125,33.40997314453125-1.67999267578125,50.05999755859375.27001953125,30.6199951171875-.510009765625,61.0899658203125.10003662109375,91.699951171875.16998291015625,8.8900146484375,1.17999267578125,14.510009765625-10.0400390625,12.62005615234375-8.89996337890625.469970703125-29.219970703125-2.73004150390625-35.38995361328125,2.6099853515625-3.0400390625,3.41998291015625-2.33001708984375,8.719970703125-2.44000244140625,13.01995849609375.03997802734375,7.0400390625-.17999267578125,14.1300048828125-.5400390625,21.10003662109375.46002197265625,9.17999267578125-3.82000732421875,26.32000732421875,9.7900390625,26.77001953125,15.8800048828125.47998046875,31.75.25,47.64996337890625.3399658203125,4.54998779296875-.52001953125,7.47003173828125,1.52001953125,6.8699951171875,6.28997802734375-.3499755859375,5.1500244140625-.1300048828125,10.31005859375-.02996826171875,15.47003173828125-.48004150390625,12.3599853515625.29998779296875,24.719970703125.0999755859375,37.07000732421875.3699951171875,3.969970703125-1.1099853515625,8.77996826171875.73004150390625,12.33001708984375,4.22998046875,2.90997314453125,10.54998779296875.05999755859375,15.489990234375,1.13995361328125,2.9599609375.17999267578125,6.8599853515625-.0999755859375,7.42999267578125-3.719970703125,1.26995849609375-21.8599853515625-.530029296875-44.07000732421875.3399658203125-65.9000244140625,2.530029296875-5.20001220703125,10.35003662109375-1.69000244140625,14.99005126953125-2.3900146484375,6.7099609375-.18994140625,13.28997802734375.260009765625,19.989990234375-.2099609375,29.03997802734375-.1099853515625,58.010009765625.510009765625,87.04998779296875-.05999755859375,4.16998291015625-.280029296875,6.30999755859375,2.94000244140625,6.02996826171875,6.8399658203125.1600341796875,6.99005126953125-.199951171875,13.99005126953125-.25994873046875,20.98004150390625.25,12.42999267578125.30999755859375,24.8499755859375-.21002197265625,37.28997802734375-.1099853515625,2.1199951171875-.27001953125,5.07000732421875,1.469970703125,6.34002685546875,4.82000732421875,1.90997314453125,10.71002197265625.219970703125,15.8900146484375,1.1099853515625,4.989990234375.5999755859375,7.96002197265625-2.32000732421875,7.22998046875-7.45001220703125-.15997314453125-4.71002197265625.1600341796875-9.41998291015625-.18994140625-14.1199951171875-.02001953125-14.40997314453125-.010009765625-28.79998779296875.0899658203125-43.20001220703125-.94000244140625-7.65997314453125,4.32000732421875-7.75,10.27001953125-7.40997314453125,10.9599609375-.75,21.92999267578125.07000732421875,32.8900146484375-.36004638671875,14.8199462890625-.16998291015625,22.50994873046875.57000732421875,20.989990234375-17.6099853515625ZM103.767331635767732,287.06855558461757c.45001220703125-14.96002197265625.3900146484375-30.030029296875.010009765625-45.02001953125.0799560546875-16.52001953125.47998046875-33.219970703125.199951171875-49.719970703125l.010009765625-.19000244140625c.6700439453125-8.70001220703125,1.22003173828125-17.5,3.80999755859375-25.9100341796875,2.98004150390625-9,7.5400390625-17.489990234375,12.260009765625-25.69000244140625,7.46002197265625-11.0799560546875,18.44000244140625-19.57000732421875,30.0400390625-25.9599609375,31.8199462890625-16.34002685546875,74.25-13.02001953125,100.88995361328125,11.67999267578125,17.800048828125,14.55999755859375,27.1400146484375,37.38995361328125,29.22003173828125,59.90997314453125,1.3800048828125,13.69000244140625-.3599853515625,27.27001953125.72998046875,41.010009765625-.45001220703125,32.5.04998779296875,65.03997802734375-.32000732421875,97.52001953125-.3699951171875,7.16998291015625-11.510009765625,3-16.16998291015625,3.64996337890625-13.69000244140625.85003662109375-27.42999267578125.1300048828125-41.1300048828125-.05999755859375-35.4000244140625.530029296875-70.77996826171875.94000244140625-106.17999267578125.09002685546875-4.3499755859375-.83001708984375-12.83001708984375,2.8499755859375-13.05999755859375-3.8599853515625.3900146484375-5.8900146484375-.45001220703125-11.75-.58001708984375-17.6400146484375.30999755859375-6.70001220703125.83001708984375-13.1300048828125.27001953125-19.80999755859375ZM59.277341401392732,348.57856535024257c1.989990234375-1.510009765625,3.4599609375-3.59002685546875,5.3399658203125-4.510009765625l.1700439453125-.07000732421875c1.39996337890625-.67999267578125,8.54998779296875-1.1400146484375,6.67999267578125,1.17999267578125-4.1400146484375,5.05999755859375-8.5400390625,10.239990234375-13.800048828125,14.22998046875-2.28997802734375,1.55999755859375-2.37994384765625-1.8800048828125-2.41998291015625-4.0799560546875-.14996337890625-3.02001953125,1.55999755859375-5,4.030029296875-6.75ZM59.927304780298982,373.20857023305507c-.989990234375.87994384765625-2.5799560546875,2.90997314453125-3.8399658203125,2.18994140625-.96002197265625-.67999267578125-1.1700439453125-3.8599853515625-.4100341796875-5.969970703125l.05999755859375-.16998291015625c.57000732421875-1.59002685546875,1.84002685546875-2.92999267578125,3.05999755859375-4.1300048828125,3.60003662109375-3.80999755859375,7.300048828125-7.4100341796875,11.30999755859375-10.77001953125,3.6800537109375-3.6199951171875,7.050048828125-7.89996337890625,11.73004150390625-10.28997802734375,2.15997314453125-1.21002197265625,7.989990234375-1.280029296875,4.65997314453125,2.16998291015625-3.77996826171875,3.6199951171875-7.77001953125,7.1400146484375-11.0999755859375,11.20001220703125-4.94000244140625,5.510009765625-10.55999755859375,10.1099853515625-15.47003173828125,15.77001953125ZM78.287351167017732,370.05854581899257c-3.1400146484375,3.20001220703125-7.06005859375,6.489990234375-11.6700439453125,6.8499755859375-1.2099609375.10003662109375-2.1199951171875-.0799560546875-2.41998291015625-.54998779296875l-.03997802734375-.08001708984375c-.27001953125-.489990234375.0899658203125-1.28997802734375.8199462890625-2.239990234375,1.20001220703125-1.51995849609375,2.9000244140625-3.02996826171875,4.4300537109375-4.32000732421875,3-2.4599609375,5.67999267578125-5.199951171875,8.40997314453125-7.88995361328125,5.30999755859375-5.22003173828125,11.58001708984375-9.60003662109375,16.67999267578125-15.07000732421875,1.8800048828125-1.75,4.4000244140625-2.6600341796875,6.9100341796875-2.82000732421875,1.3499755859375-.08001708984375,2.38995361328125.1400146484375,2.69000244140625.6199951171875.50994873046875.989990234375-1.30999755859375,2.5-2.1600341796875,3.3399658203125-3.82000732421875,3.35003662109375-7.64996337890625,6.75-11.27996826171875,10.2900390625-3.85003662109375,4.29998779296875-8.21002197265625,7.8599853515625-12.3699951171875,11.8699951171875ZM86.937314545923982,376.04853605336757c-1.77001953125.83001708984375-6.260009765625,1.9000244140625-7.32000732421875.1300048828125.21002197265625-2.34002685546875,5.489990234375-5.58001708984375,7.4200439453125-7.6300048828125l.14996337890625-.1300048828125c7-5.53997802734375,12.5-12.94000244140625,19.53997802734375-18.52996826171875,2.60003662109375-2.08001708984375,4.98004150390625-4.58001708984375,7.9300537109375-5.550048828125,2.489990234375-1,7.9599609375-1.1099853515625,4.239990234375,2.780029296875-3.5400390625,3.69000244140625-7.8599853515625,6.77996826171875-11.32000732421875,10.510009765625-4.45001220703125,4.75-9.16998291015625,9.1199951171875-14.1099853515625,13.3800048828125-2.10003662109375,1.760009765625-4.02001953125,3.90997314453125-6.530029296875,5.03997802734375ZM108.157346284205232,371.78852628774257c-2.49005126953125,2.739990234375-5.94000244140625,4.92999267578125-9.69000244140625,5.07000732421875-1.1300048828125.07000732421875-1.97003173828125-.1099853515625-2.260009765625-.53997802734375l-.04998779296875-.07000732421875c-.32000732421875-.53997802734375.199951171875-1.510009765625,1.14996337890625-2.6600341796875,2.02001953125-2.38995361328125,4.760009765625-4.27996826171875,7.25-6.199951171875,3.280029296875-2.42999267578125,6.07000732421875-5.5,9.010009765625-8.36004638671875,4.21002197265625-3.67999267578125,7.97998046875-7.8299560546875,12.010009765625-11.699951171875,2.21002197265625-2,5.17999267578125-3.4000244140625,8.0999755859375-3.52001953125,1.20001220703125-.04998779296875,2.11004638671875.19000244140625,2.4100341796875.69000244140625.3399658203125.5.02996826171875,1.260009765625-.69000244140625,2.15997314453125-.94000244140625,1.1600341796875-2.42999267578125,2.42999267578125-3.6500244140625,3.48004150390625-5.739990234375,4.72998046875-11.05999755859375,9.80999755859375-16.0999755859375,15.19000244140625-2.4100341796875,2.26995849609375-5.1099853515625,4.16998291015625-7.489990234375,6.4599609375ZM120.007321870142732,375.40852140493007c-1.90997314453125.98004150390625-6.69000244140625,2.550048828125-7.83001708984375.5400390625,0-2.10003662109375,5-5.3900146484375,6.760009765625-7.35003662109375l.1500244140625-.1300048828125c3.8599853515625-3.63995361328125,8.02996826171875-7.01995849609375,11.8399658203125-10.69000244140625,2.55999755859375-2.55999755859375,5.1500244140625-5.0899658203125,7.8699951171875-7.51995849609375,3.55999755859375-3.3900146484375,7.4000244140625-7.60003662109375,12.59002685546875-6.09002685546875,2.53997802734375,1.21002197265625-2.5,4.6600341796875-3.489990234375,5.80999755859375-3.3699951171875,2.98004150390625-6.25,6.3699951171875-9.71002197265625,9.23004150390625-6.55999755859375,4.79998779296875-11.19000244140625,11.969970703125-18.17999267578125,16.199951171875ZM138.287351167017732,373.40852140493007c-1.37005615234375,1.30999755859375-2.9300537109375,2.48004150390625-4.75,3.010009765625-2.12005615234375.58001708984375-4.550048828125.58001708984375-5.1400146484375-.6099853515625l-.030029296875-.08001708984375c-.239990234375-.8900146484375,1.23004150390625-2.25,2.04998779296875-3,3.82000732421875-3.3699951171875,7.35003662109375-6.94000244140625,11.07000732421875-10.32000732421875,5.7900390625-4.66998291015625,10.72003173828125-10.260009765625,16.36004638671875-15.0799560546875,2.26995849609375-1.97003173828125,5.1199951171875-3.09002685546875,8.0999755859375-3.11004638671875,1.15997314453125,0,1.989990234375.25,2.20001220703125.71002197265625.3699951171875.90997314453125-1.1600341796875,2.3900146484375-1.94000244140625,3.219970703125-4.1400146484375,3.8800048828125-8.489990234375,7.6700439453125-12.6099853515625,11.60003662109375-5.32000732421875,4.28997802734375-10.60003662109375,8.80999755859375-15.30999755859375,13.65997314453125ZM151.697324311548982,375.93855070180507c-1.9000244140625.97998046875-6.8900146484375,2.3699951171875-7.97998046875.33001708984375-.20001220703125-.98004150390625,1.78997802734375-2.94000244140625,3.6099853515625-4.57000732421875,1.15997314453125-1.10003662109375,2.27001953125-2.22003173828125,3.489990234375-3.260009765625l.1500244140625-.1300048828125c6.63995361328125-5.77001953125,13.17999267578125-11.989990234375,19.78997802734375-17.8900146484375,2.260009765625-1.79998779296875,4.25-4.44000244140625,6.6099853515625-5.52001953125,1.9200439453125-1.13995361328125,9.58001708984375-1.72998046875,5.45001220703125,2.06005859375-6.45001220703125,5.25994873046875-11.72998046875,11.3299560546875-17.8699951171875,16.75-4.5999755859375,3.80999755859375-8,9.25-13.25,12.22998046875ZM168.227292573267732,374.96851896352382c-1.78997802734375.9100341796875-3.8299560546875,1.48004150390625-5.78997802734375,1.59002685546875-1.1199951171875.05999755859375-1.94000244140625-.1400146484375-2.21002197265625-.58001708984375l-.03997802734375-.07000732421875c-.22998046875-.44000244140625.05999755859375-1.0899658203125.70001220703125-1.8599853515625,1.46002197265625-1.70001220703125,3.469970703125-3.1400146484375,5.22998046875-4.57000732421875,3.83001708984375-3.05999755859375,6.45001220703125-7.08001708984375,10.30999755859375-10.07000732421875,5.57000732421875-4.1199951171875,10.280029296875-9.22998046875,15.6400146484375-13.5999755859375,1.79998779296875-1.52001953125,6.58001708984375-2.6500244140625,7.78997802734375-.91998291015625.70001220703125,1.17999267578125-1.40997314453125,3.0999755859375-2.3699951171875,4.02996826171875-3.82000732421875,3.489990234375-7.739990234375,6.84002685546875-11.699951171875,10.1600341796875-5.98004150390625,5.0999755859375-10.760009765625,11.78997802734375-17.56005859375,15.88995361328125ZM176.187314545923982,376.16853117055507c-.40997314453125-.77996826171875,1.6600341796875-2.67999267578125,3.45001220703125-4.42999267578125,1.08001708984375-1.08001708984375,2.05999755859375-2.219970703125,3.16998291015625-3.27996826171875l.1400146484375-.1300048828125c4.82000732421875-3.86004638671875,9.09002685546875-8.300048828125,13.80999755859375-12.23004150390625,4.40997314453125-3.39996337890625,7.32000732421875-9.3599853515625,12.6500244140625-11.3299560546875,3.1099853515625-1.10003662109375,9.91998291015625-1.510009765625,4.64996337890625,3.0799560546875-3.4599609375,3.21002197265625-6.57000732421875,6.72003173828125-10.3399658203125,9.59002685546875-1.6400146484375,1.30999755859375-3.32000732421875,2.6099853515625-4.84002685546875,4.04998779296875-4.67999267578125,5.05999755859375-9.3699951171875,10.22998046875-15.4000244140625,13.82000732421875-1.88995361328125,1.02001953125-5.8199462890625,2.3800048828125-7.28997802734375.8599853515625ZM194.687314545923982,376.68855070180507c-1.260009765625-.02001953125-2.14996337890625-.30999755859375-2.3499755859375-.82000732421875l-.02001953125-.07000732421875c-.16998291015625-1.27001953125,2.08001708984375-2.92999267578125,3.05999755859375-3.9000244140625,3.3900146484375-3.1199951171875,6.8800048828125-6.02996826171875,10.22003173828125-9.0899658203125,4.67999267578125-4.6099853515625,8.67999267578125-9.78997802734375,14.219970703125-13.52001953125,2.94000244140625-2.40997314453125,6.20001220703125-5.1400146484375,10.19000244140625-4.92999267578125,1.08001708984375.030029296875,1.8499755859375.27001953125,2.07000732421875.66998291015625.25.4000244140625-.07000732421875,1.030029296875-.75,1.85003662109375-.82000732421875,1-2.1199951171875,2.14996337890625-3.27001953125,3.22998046875-4.1099853515625,3.78997802734375-8.6300048828125,7.1600341796875-12.5,11.1600341796875-4.010009765625,4.5-8.76995849609375,8.19000244140625-13.29998779296875,12.12994384765625-2.05999755859375,1.8800048828125-4.77001953125,3.37005615234375-7.57000732421875,3.2900390625ZM221.807309663111482,370.15852140493007c-1.70001220703125,1.800048828125-3.3499755859375,3.7900390625-5.469970703125,5.11004638671875-1.8800048828125,1.19000244140625-6.73004150390625,2.8399658203125-8.010009765625.80999755859375-.30999755859375-.95001220703125,1.75-2.72003173828125,3.45001220703125-4.36004638671875,1.07000732421875-1.05999755859375,2.02996826171875-2.17999267578125,3.0899658203125-3.25l.1400146484375-.1300048828125c6.719970703125-5.8199462890625,13.69000244140625-11.80999755859375,19.78997802734375-18.38995361328125,2.21002197265625-2.35003662109375,4.6300048828125-4.70001220703125,7.6700439453125-5.59002685546875,2-.760009765625,7.8399658203125-1.20001220703125,4.76995849609375,2.33001708984375-5.3699951171875,5.6099853515625-11.5899658203125,10.3900146484375-16.88995361328125,16.04998779296875-2.760009765625,2.55999755859375-6.08001708984375,4.6500244140625-8.5400390625,7.41998291015625ZM224.137326752955232,376.03852628774257l-.03997802734375-.07000732421875c-.3800048828125-1.47998046875,2.25994873046875-3.13995361328125,3.3399658203125-4.17999267578125,3.1500244140625-2.51995849609375,5.92999267578125-5.41998291015625,9.05999755859375-8.03997802734375,3.57000732421875-3.010009765625,6.34002685546875-6.72998046875,10.08001708984375-9.55999755859375,2.72998046875-2.07000732421875,4.91998291015625-4.739990234375,7.52996826171875-6.96002197265625,2.0400390625-1.79998779296875,4.8800048828125-2.79998779296875,7.510009765625-2.8699951171875,1.20001220703125-.02996826171875,2.05999755859375.16998291015625,2.280029296875.55999755859375.20001220703125.33001708984375-.0400390625.83001708984375-.6300048828125,1.47998046875-2.3800048828125,2.35003662109375-4.94000244140625,4.86004638671875-7.20001220703125,7.3800048828125-4.3499755859375,4.280029296875-9.1099853515625,8.280029296875-13.6099853515625,12.6600341796875-3.77001953125,2.70001220703125-6.760009765625,6.47998046875-10.66998291015625,8.9599609375-2,.99005126953125-6,2.09002685546875-7.6500244140625.6400146484375ZM249.517331635767732,374.36854337758632c-1.8900146484375,1.41998291015625-8.04998779296875,3.77001953125-9.6300048828125,1.75.25-2.22003173828125,5.3900146484375-5.34002685546875,7.219970703125-7.34002685546875l.1400146484375-.1300048828125c4.02001953125-3.40997314453125,7.780029296875-7.5,11.45001220703125-11.40997314453125,2.6099853515625-2.53997802734375,5.6400146484375-4.69000244140625,8.239990234375-7.260009765625,2.22003173828125-2.07000732421875,4.16998291015625-4.75,7.21002197265625-5.6099853515625,3.30999755859375-.91998291015625,8.20001220703125-1.1300048828125,4.77996826171875,2.05999755859375-5.8399658203125,5.41998291015625-11.20001220703125,11.32000732421875-17.20001220703125,16.55999755859375-3.8599853515625,4-7.5799560546875,8.1099853515625-12.2099609375,11.3800048828125ZM258.947324311548982,376.81855558461757c-.8900146484375.16998291015625-2.6300048828125.16998291015625-2.77001953125-.35003662109375l-.02996826171875-.05999755859375c-.22003173828125-.699951171875,1.1300048828125-2.010009765625,1.79998779296875-2.699951171875,3.42999267578125-3.52001953125,7.30999755859375-6.84002685546875,10.719970703125-10.280029296875,5.08001708984375-6,11.6700439453125-10.27001953125,17.1700439453125-15.8800048828125.719970703125-.719970703125,1.47998046875-1.45001220703125,2.27996826171875-2.02996826171875,1.80999755859375-1.6500244140625,6.6300048828125-2.57000732421875,7.8599853515625-.94000244140625.3900146484375.51995849609375.1600341796875,1.25994873046875-.52996826171875,2.13995361328125-.90997314453125,1.1600341796875-2.15997314453125,2.20001220703125-3.25,3.22003173828125-3.54998779296875,3.19000244140625-6.71002197265625,6.6300048828125-10.53997802734375,9.40997314453125-7.70001220703125,5.47003173828125-12.760009765625,15.70001220703125-22.71002197265625,17.47003173828125ZM279.467343842798982,375.31855558461757c-1.98004150390625.95001220703125-5.6400146484375,2.2099609375-7.17999267578125.6300048828125l-.030029296875-.08001708984375c-.469970703125-2.70001220703125,9.8900146484375-9.72003173828125,12.05999755859375-12.260009765625,5.010009765625-4.95001220703125,10.58001708984375-9.40997314453125,15.67999267578125-14.260009765625,1.8599853515625-1.760009765625,3.45001220703125-3.969970703125,5.9000244140625-4.88995361328125,1.97998046875-.7900390625,5.2099609375-.97003173828125,6.1199951171875.17999267578125.510009765625,1.17999267578125-1.6600341796875,2.63995361328125-2.5400390625,3.52996826171875-4.93994140625,4.34002685546875-9.5899658203125,8.85003662109375-14.219970703125,13.41998291015625-5.17999267578125,4.59002685546875-9.72998046875,10.24005126953125-15.78997802734375,13.73004150390625ZM301.657346284205232,370.67854093618007c-2.1300048828125,1.83001708984375-4.010009765625,4.1500244140625-6.3699951171875,5.1199951171875-2.6800537109375,1.260009765625-10.27001953125,1.77001953125-5.0400390625-2.5899658203125,2.97003173828125-2.46002197265625,5.47998046875-5.260009765625,8.16998291015625-7.99005126953125,3.510009765625-3.0899658203125,7.0400390625-6.16998291015625,10.25-9.57000732421875,3.780029296875-3.52996826171875,7.21002197265625-7.92999267578125,11.7900390625-10.489990234375,1.82000732421875-.8800048828125,7.17999267578125-2.4599609375,8.41998291015625-.75-.42999267578125,2.23004150390625-5.78997802734375,5.280029296875-7.6500244140625,7.3800048828125l-.14996337890625.1300048828125c-4.010009765625,4.16998291015625-8.1099853515625,8.22998046875-12.3699951171875,12.1300048828125-2.22003173828125,2.32000732421875-4.6400146484375,4.47003173828125-7.04998779296875,6.6300048828125ZM328.407346284205232,376.31855558461757l-.1300048828125.1300048828125c-1.58001708984375,1.3299560546875-4.34002685546875.57000732421875-6.32000732421875.92999267578125-.91998291015625.05999755859375-2.1099853515625-.2900390625-2.0400390625-1.3599853515625.1600341796875-1.37005615234375,3.0400390625-2.70001220703125,4.1500244140625-4.05999755859375,1.27001953125-1.010009765625,2.27001953125-3.46002197265625,3.80999755859375-3.85003662109375,1.54998779296875.02001953125,1.08001708984375,2.05999755859375,1.0999755859375,3.1400146484375-.0999755859375,1.6400146484375.6700439453125,3.89996337890625-.5699462890625,5.07000732421875ZM328.597348725611482,359.47852872914882c-1.6400146484375,3.85003662109375-5.60003662109375,5.84002685546875-8.4100341796875,8.67999267578125l-.14996337890625.1400146484375c-2.97003173828125,2.69000244140625-5.050048828125,6.95001220703125-9.07000732421875,8.260009765625-2.34002685546875.67999267578125-5.280029296875.8599853515625-5.8699951171875-.46002197265625-.09002685546875-1.1300048828125,1.54998779296875-2.32000732421875,2.3699951171875-3.15997314453125,6.5899658203125-6.17999267578125,12.3399658203125-13.42999267578125,19.15997314453125-19.3599853515625,3.34002685546875-1.9300537109375,3.20001220703125,3.0699462890625,1.97003173828125,5.89996337890625ZM144.827329194361482,231.23853849477382c3.19000244140625,3.010009765625,7.3499755859375,5.03997802734375,11.3699951171875,7.010009765625,3.510009765625,1.71002197265625,7.34002685546875,2.6400146484375,11.27001953125,2.45001220703125,14.52996826171875-.19000244140625,26.449951171875-9.7900390625,7.5899658203125,7.8599853515625-8,8.1300048828125-17.04998779296875,15.1099853515625-25.82000732421875,22.3599853515625-2.80999755859375,2.3800048828125-5.97998046875,4.280029296875-8.76995849609375,6.6600341796875-3.94000244140625,3.53997802734375-7.280029296875,8.53997802734375-7.96002197265625,13.79998779296875-.239990234375,6.739990234375,3.67999267578125,12.7099609375,7.57000732421875,17.91998291015625,2.8800048828125,4.1199951171875,6.8499755859375,7.22998046875,10.989990234375,10.02001953125,2.780029296875,1.8599853515625,5.44000244140625,3.95001220703125,8.54998779296875,4.55999755859375,3.82000732421875.76995849609375,8.1199951171875.6300048828125,11.6400146484375-1.010009765625,1.55999755859375-.760009765625,2.97998046875-1.78997802734375,4.3699951171875-2.80999755859375,3.6400146484375-2.760009765625,7.67999267578125-5.08001708984375,11.19000244140625-8.1099853515625,6.55999755859375-5.86004638671875,12.3900146484375-11.9000244140625,19.010009765625-17.489990234375,3.47998046875-3.60003662109375,6.32000732421875-7.6800537109375,10.1300048828125-10.95001220703125,2.89996337890625-2.6600341796875,5.22998046875-5.82000732421875,7.7099609375-8.85003662109375,3.46002197265625-3.90997314453125,6.4300537109375-8.16998291015625,9.20001220703125-12.5799560546875,5.260009765625-7.6700439453125,10.27001953125-15.58001708984375,13.4200439453125-24.3800048828125,3.65997314453125-10.75,3.0799560546875-22.9100341796875-1.62005615234375-33.239990234375-2.28997802734375-4.34002685546875-5.1199951171875-8.49005126953125-8.39996337890625-12.1600341796875-3.75-3.67999267578125-8.260009765625-6.70001220703125-12.760009765625-9.3800048828125l-.15997314453125-.0899658203125c-3.10003662109375-1.71002197265625-6.6400146484375-2.47003173828125-10.1600341796875-2.34002685546875-2.75-.04998779296875-5.57000732421875.57000732421875-6.70001220703125-.59002685546875-.5999755859375-1.5899658203125,1.36004638671875-3.0699462890625,2.27001953125-4.28997802734375,3.0999755859375-3.3399658203125,5.8900146484375-6.8900146484375,9.21002197265625-9.92999267578125,3.8599853515625-3.28997802734375,8.199951171875-5.9000244140625,12.65997314453125-8.32000732421875,7.59002685546875-3.78997802734375,10.6300048828125-13.82000732421875,8.4100341796875-21.64996337890625-2.5-8.77001953125-11.33001708984375-14.31005859375-20.0400390625-15.5-6.8699951171875-.46002197265625-13.97998046875,1.68994140625-20.010009765625,4.97998046875-3.219970703125,1.8499755859375-6.1099853515625,4.25-9.22998046875,6.27996826171875-10.719970703125,7.1500244140625-19.65997314453125,16.550048828125-28.09002685546875,26.20001220703125-4.3399658203125,4.72998046875-8.7099609375,9.45001220703125-12.44000244140625,14.69000244140625-3.63995361328125,4.47003173828125-6.63995361328125,9.27001953125-9.3299560546875,14.4000244140625-5.57000732421875,8.3499755859375-10.09002685546875,18.88995361328125-6.35003662109375,28.8699951171875,1.95001220703125,6.3499755859375,6.71002197265625,11.05999755859375,11.280029296875,15.6099853515625ZM157.577329194361482,187.83851408071132c5.25-6.8699951171875,10.33001708984375-13.90997314453125,16.27001953125-20.19000244140625,3.44000244140625-4.03997802734375,6.75994873046875-8.17999267578125,10.77996826171875-11.67999267578125,4.27001953125-3.75,8.780029296875-7.22998046875,13.07000732421875-10.949951171875,4.5-4.030029296875,9.8499755859375-6.75,15.6400146484375-8.48004150390625,2.54998779296875-.80999755859375,5.64996337890625-1.02996826171875,7.70001220703125.510009765625,1.79998779296875,1.25,2.42999267578125,3.530029296875,1.12994384765625,5.30999755859375-.5999755859375.91998291015625-1.5699462890625,1.72998046875-2.65997314453125,2.44000244140625-4.489990234375,2.80999755859375-8.969970703125,5.47003173828125-12.94000244140625,8.9100341796875-7.510009765625,6.87994384765625-13.69000244140625,15.1099853515625-20.0999755859375,23-6.61004638671875,8.949951171875-12.10003662109375,18.63995361328125-18.8800048828125,27.469970703125-1.260009765625,1.53997802734375-4.98004150390625,6.40997314453125-.5400390625,5.47998046875,9.97003173828125-3.219970703125,19.46002197265625-8.1199951171875,29.6300048828125-10.82000732421875,5.739990234375-1.219970703125,11.61004638671875-3.17999267578125,17.45001220703125-1.79998779296875,6.03997802734375,1.80999755859375,11.780029296875,6.35003662109375,14.95001220703125,11.84002685546875,1.57000732421875,2.94000244140625,2.27001953125,6.22998046875,2.80999755859375,9.57000732421875.69000244140625,3.8699951171875,1.04998779296875,7.69000244140625-.1300048828125,11.30999755859375l-.04998779296875.17999267578125c-2.3599853515625,6.3800048828125-4.82000732421875,12.89996337890625-8.6199951171875,18.6199951171875-3.4000244140625,5.969970703125-8.19000244140625,10.90997314453125-12.3699951171875,16.28997802734375-2.5,3.08001708984375-5.10003662109375,6.08001708984375-7.45001220703125,9.280029296875-3.1300048828125,4.26995849609375-7.22998046875,7.64996337890625-10.8699951171875,11.45001220703125-3.84002685546875,4.27996826171875-8.510009765625,7.63995361328125-12.6500244140625,11.6099853515625-1.39996337890625,1.3499755859375-2.80999755859375,2.7099609375-4.3499755859375,3.91998291015625-3.22003173828125,2.3900146484375-6.92999267578125,4.8900146484375-10.6199951171875,6.30999755859375-3.23004150390625,1.1199951171875-5.85003662109375-1.52001953125-8.08001708984375-3.5-4.17999267578125-3.6099853515625-10.83001708984375-10.41998291015625-4.1500244140625-14.95001220703125,5.25-4.199951171875,10.77001953125-8.25994873046875,15.96002197265625-12.69000244140625,3.0999755859375-2.75,6.3900146484375-5.26995849609375,9.510009765625-7.969970703125,5.65997314453125-5.6600341796875,11.83001708984375-11.02001953125,17.52996826171875-16.54998779296875,5.300048828125-5.96002197265625,10.35003662109375-12.280029296875,14.6300048828125-19.010009765625,2.4200439453125-4.60003662109375,5.10003662109375-9.030029296875,6.84002685546875-13.96002197265625,3.58001708984375-9.5899658203125-.260009765625-9.42999267578125-8.59002685546875-6.969970703125-5.27996826171875,1.32000732421875-10.03997802734375,3.7099609375-15.02996826171875,5.8599853515625-4.42999267578125,1.77001953125-9.030029296875,3.21002197265625-13.57000732421875,4.719970703125-5.80999755859375,1.83001708984375-12.260009765625,2.74005126953125-18.1600341796875.99005126953125-3.8699951171875-1.280029296875-7.1199951171875-4.48004150390625-9.8499755859375-7.800048828125-7.969970703125-9.26995849609375.57000732421875-19.53997802734375,5.760009765625-27.75Z"
      />
      <path
        class="cls-2"
        d="M280.937314545923982,227.17854093618007c-1.0899658203125-13.739990234375.6500244140625-27.32000732421875-.72998046875-41.010009765625-2.08001708984375-22.52001953125-11.41998291015625-45.3499755859375-29.22003173828125-59.90997314453125-26.63995361328125-24.70001220703125-69.07000732421875-28.02001953125-100.88995361328125-11.67999267578125-11.60003662109375,6.38995361328125-22.58001708984375,14.8800048828125-30.0400390625,25.9599609375-4.719970703125,8.20001220703125-9.27996826171875,16.69000244140625-12.260009765625,25.69000244140625-2.5899658203125,8.4100341796875-3.13995361328125,17.21002197265625-3.80999755859375,25.9100341796875l-.010009765625.19000244140625c.280029296875,16.5-.1199951171875,33.199951171875-.199951171875,49.719970703125.3800048828125,14.989990234375.44000244140625,30.05999755859375-.010009765625,45.02001953125.55999755859375,6.67999267578125.03997802734375,13.1099853515625-.27001953125,19.80999755859375.1300048828125,5.8900146484375.97003173828125,11.75.58001708984375,17.6400146484375.22998046875,6.7099609375,8.71002197265625,3.02996826171875,13.05999755859375,3.8599853515625,35.4000244140625.8499755859375,70.77996826171875.44000244140625,106.17999267578125-.09002685546875,13.70001220703125.19000244140625,27.44000244140625.9100341796875,41.1300048828125.05999755859375,4.65997314453125-.64996337890625,15.79998779296875,3.52001953125,16.16998291015625-3.64996337890625.3699951171875-32.48004150390625-.1300048828125-65.02001953125.32000732421875-97.52001953125ZM246.287351167017732,237.69856046743007c-3.1500244140625,8.79998779296875-8.1600341796875,16.7099609375-13.4200439453125,24.3800048828125-2.76995849609375,4.40997314453125-5.739990234375,8.66998291015625-9.20001220703125,12.5799560546875-2.47998046875,3.030029296875-4.80999755859375,6.19000244140625-7.7099609375,8.85003662109375-3.80999755859375,3.26995849609375-6.6500244140625,7.3499755859375-10.1300048828125,10.95001220703125-6.6199951171875,5.5899658203125-12.45001220703125,11.62994384765625-19.010009765625,17.489990234375-3.510009765625,3.02996826171875-7.54998779296875,5.3499755859375-11.19000244140625,8.1099853515625-1.3900146484375,1.02001953125-2.80999755859375,2.04998779296875-4.3699951171875,2.80999755859375-3.52001953125,1.6400146484375-7.82000732421875,1.77996826171875-11.6400146484375,1.010009765625-3.1099853515625-.6099853515625-5.76995849609375-2.70001220703125-8.54998779296875-4.55999755859375-4.1400146484375-2.7900390625-8.1099853515625-5.9000244140625-10.989990234375-10.02001953125-3.8900146484375-5.21002197265625-7.80999755859375-11.17999267578125-7.57000732421875-17.91998291015625.67999267578125-5.260009765625,4.02001953125-10.260009765625,7.96002197265625-13.79998779296875,2.78997802734375-2.3800048828125,5.9599609375-4.280029296875,8.76995849609375-6.6600341796875,8.77001953125-7.25,17.82000732421875-14.22998046875,25.82000732421875-22.3599853515625,18.8599853515625-17.6500244140625,6.94000244140625-8.04998779296875-7.5899658203125-7.8599853515625-3.92999267578125.19000244140625-7.760009765625-.739990234375-11.27001953125-2.45001220703125-4.02001953125-1.97003173828125-8.17999267578125-4-11.3699951171875-7.010009765625-4.57000732421875-4.54998779296875-9.33001708984375-9.260009765625-11.280029296875-15.6099853515625-3.739990234375-9.98004150390625.780029296875-20.52001953125,6.35003662109375-28.8699951171875,2.69000244140625-5.1300048828125,5.69000244140625-9.92999267578125,9.3299560546875-14.4000244140625,3.73004150390625-5.239990234375,8.10003662109375-9.96002197265625,12.44000244140625-14.69000244140625,8.4300537109375-9.64996337890625,17.37005615234375-19.04998779296875,28.09002685546875-26.20001220703125,3.1199951171875-2.02996826171875,6.010009765625-4.42999267578125,9.22998046875-6.27996826171875,6.030029296875-3.2900390625,13.1400146484375-5.44000244140625,20.010009765625-4.97998046875,8.71002197265625,1.18994140625,17.5400390625,6.72998046875,20.0400390625,15.5,2.219970703125,7.8299560546875-.82000732421875,17.8599853515625-8.4100341796875,21.64996337890625-4.46002197265625,2.41998291015625-8.79998779296875,5.030029296875-12.65997314453125,8.32000732421875-3.32000732421875,3.03997802734375-6.11004638671875,6.59002685546875-9.21002197265625,9.92999267578125-.90997314453125,1.22003173828125-2.8699951171875,2.70001220703125-2.27001953125,4.28997802734375,1.1300048828125,1.1600341796875,3.95001220703125.5400390625,6.70001220703125.59002685546875,3.52001953125-.1300048828125,7.05999755859375.6300048828125,10.1600341796875,2.34002685546875l.15997314453125.0899658203125c4.5,2.67999267578125,9.010009765625,5.70001220703125,12.760009765625,9.3800048828125,3.27996826171875,3.66998291015625,6.1099853515625,7.82000732421875,8.39996337890625,12.1600341796875,4.70001220703125,10.3299560546875,5.280029296875,22.489990234375,1.62005615234375,33.239990234375Z"
      />
    </g>
  </g>
</svg>
