<svg viewBox="0 0 376.244656885060976 463.959134265699504">
  <defs>
    <style>
      .cls-1 {
        fill: var(--black);
      }

      .cls-2 {
        fill: var(--yellow);
      }
    </style>
  </defs>
  <g>
    <g>
      <path
        class="cls-1"
        d="M272.658426081483412,232.013342539455152h-.19000244140625c-15.54998779296875-.0400390625-30.83001708984375,4.2099609375-44.86004638671875,10.83001708984375-5.65997314453125,4.01995849609375-11.1099853515625,1.40997314453125-15.02996826171875-3.5-4.6500244140625-4.050048828125-4.47998046875-10.06005859375-4.33001708984375-15.70001220703125.239990234375-35.9200439453125.5-71.7900390625.010009765625-107.69000244140625.1099853515625-20.30999755859375,2.1600341796875-41.010009765625-3.8599853515625-60.71002197265625-8.260009765625-26.6300048828125-32.09002685546875-48.3800048828125-59.5400390625-53.719970703125-37.8299560546875-7.61004638671875-79.76995849609375,13.8800048828125-91.79998779296875,51.3299560546875-5.88995361328125,16.74005126953125-4.89996337890625,34.60003662109375-4.75,52.010009765625-.469970703125,20.20001220703125-.5,40.489990234375-.0899658203125,60.71002197265625-.34002685546875,15.78997802734375.22998046875,31.57000732421875.0999755859375,47.3599853515625-1.0899658203125,8.34002685546875,3.03997802734375,18.83001708984375-3.16998291015625,25.66998291015625C7.678384577577162,270.583349863673902-9.631612981016588,324.573340098048902,5.408426081483412,371.903357187892652c22.8699951171875,87.64996337890625,138.75,122.0999755859375,206.0999755859375,61.699951171875,7.6500244140625-9.65997314453125,14.75-4.02996826171875,23.489990234375.1500244140625,22.9200439453125,8.5999755859375,48.83001708984375,8.8699951171875,71.9000244140625.57000732421875,109.8900146484375-41.41998291015625,82.260009765625-198.72998046875-34.239990234375-202.30999755859375ZM359.008401667420912,319.553320566798902l-.05999755859375.16998291015625c-.53997802734375,1.59002685546875-1.719970703125,2.96002197265625-2.8900146484375,4.1800537109375-2.8599853515625,3.1099853515625-5.80999755859375,6.38995361328125-8.8299560546875,9.40997314453125-7.09002685546875,7.96002197265625-14.5,15.95001220703125-21.9100341796875,23.5-2.260009765625,1.989990234375-1.21002197265625-1.27001953125-.82000732421875-2.59002685546875,2.510009765625-10.02996826171875,10.22003173828125-17.05999755859375,17.3800048828125-23.9599609375,3.739990234375-3.84002685546875,7.6199951171875-7.54998779296875,11.1099853515625-11.6600341796875,1.2900390625-1.3599853515625,2.85003662109375-3.719970703125,4.6700439453125-3.75,1.3499755859375.050048828125,2.0799560546875,2.57000732421875,1.3499755859375,4.70001220703125ZM353.848428522889662,302.963354746486402l.0999755859375.02996826171875c.96002197265625.28997802734375,1.54998779296875,1.9100341796875,1.30999755859375,3.6500244140625-.41998291015625,3.25-3.239990234375,5.5-5.3499755859375,7.78997802734375-3.3800048828125,3.46002197265625-6.22003173828125,7.22003173828125-9.6199951171875,10.6300048828125-2.1700439453125,1.97998046875-9.55999755859375,12.17999267578125-12.1300048828125,11.280029296875-1.760009765625-1.1700439453125-.71002197265625-6.8800048828125,1.32000732421875-8.75,6.7099609375-6.1600341796875,11.8199462890625-13.550048828125,18.22998046875-19.87005615234375,1.46002197265625-1.3299560546875,2.8699951171875-2.969970703125,4.3900146484375-4.15997314453125.65997314453125-.489990234375,1.25-.71002197265625,1.75-.5999755859375ZM349.118387018983412,292.083349863673902l.1199951171875.03997802734375c1,.29998779296875,1.6500244140625,1.59002685546875,1.6199951171875,3.04998779296875.010009765625,1.9000244140625-1.1199951171875,3.6099853515625-2.40997314453125,5.030029296875-2.1300048828125,2.39996337890625-4.6199951171875,4.510009765625-6.72998046875,6.9599609375-1.7900390625,2.05999755859375-3.61004638671875,4.11004638671875-5.57000732421875,6.010009765625-2.5400390625,1.8599853515625-8.5,11.23004150390625-11.489990234375,9.45001220703125-2.1400146484375-1.27001953125-1.96002197265625-5.27996826171875-.05999755859375-7.16998291015625,4.57000732421875-5.010009765625,10.1199951171875-9.04998779296875,14.5799560546875-14.1500244140625,2.050048828125-2.2099609375,3.96002197265625-4.54998779296875,5.98004150390625-6.78997802734375,1.05999755859375-1.1300048828125,2.47998046875-2.760009765625,3.9599609375-2.42999267578125ZM342.348428522889662,282.303320566798902c1.469970703125-.29998779296875,3.19000244140625,1.46002197265625,3.1199951171875,3.1600341796875l-.010009765625.13995361328125c-.07000732421875,1.42999267578125-1.25,2.6300048828125-2.28997802734375,3.69000244140625-2.61004638671875,2.71002197265625-5.20001220703125,5.82000732421875-8.06005859375,8.45001220703125-3.42999267578125,3.59002685546875-6.75994873046875,7.44000244140625-10.3199462890625,10.85003662109375-1.3900146484375,1.3199462890625-2.69000244140625,3.15997314453125-4.46002197265625,3.90997314453125-2.6400146484375,1.010009765625-4.510009765625-2.67999267578125-3.489990234375-4.92999267578125.8399658203125-2.08001708984375,2.8599853515625-3.57000732421875,4.41998291015625-5.1400146484375,3.05999755859375-2.95001220703125,6.16998291015625-5.75,9.34002685546875-8.5899658203125,3.57000732421875-3.1300048828125,6.66998291015625-6.82000732421875,9.78997802734375-10.34002685546875.65997314453125-.6500244140625,1.30999755859375-1.09002685546875,1.96002197265625-1.20001220703125ZM335.678384577577162,273.703344980861402c1.5-.21002197265625,2.9100341796875,1.3499755859375,2.82000732421875,3l-.010009765625.14996337890625c-.13995361328125,1.69000244140625-1.66998291015625,3.10003662109375-2.8800048828125,4.2900390625-1.989990234375,1.8800048828125-3.77996826171875,4.0999755859375-5.78997802734375,6-3.6199951171875,3.27996826171875-6.64996337890625,7.19000244140625-10.14996337890625,10.510009765625-1.57000732421875,1.4599609375-3.02001953125,3.1199951171875-4.4300537109375,4.719970703125-1.79998779296875,2.4000244140625-5.5899658203125,3.02001953125-7.1199951171875.19000244140625-.8699951171875-1.780029296875.6600341796875-3.6400146484375,1.9000244140625-4.95001220703125,3.1199951171875-3.30999755859375,6.47998046875-6.27996826171875,9.83001708984375-9.32000732421875,3.41998291015625-2.949951171875,6.69000244140625-6.05999755859375,9.719970703125-9.41998291015625,1.85003662109375-1.71002197265625,3.57000732421875-4.69000244140625,6.1099853515625-5.16998291015625ZM311.958413874452162,280.383337656642652c3.02001953125-3.46002197265625,6.22998046875-6.69000244140625,9.71002197265625-9.69000244140625,1.75994873046875-1.58001708984375,3.3299560546875-3.69000244140625,5.66998291015625-3.91998291015625,1.5899658203125-.1199951171875,3.0999755859375.949951171875,3.1199951171875,2.26995849609375v.1300048828125c-.010009765625,1.260009765625-1.20001220703125,2.530029296875-2.1500244140625,3.5-2.41998291015625,2.4200439453125-4.75,5.04998779296875-7.32000732421875,7.35003662109375-5.54998779296875,5.489990234375-10.8199462890625,11.3800048828125-16.6300048828125,16.65997314453125-2,1.92999267578125-7.3399658203125,2.28997802734375-8.42999267578125.09002685546875-.2099609375-.550048828125.1199951171875-1.25.7900390625-2,1.22998046875-1.30999755859375,2.89996337890625-2.58001708984375,4.29998779296875-3.80999755859375,3.91998291015625-3.24005126953125,7.52001953125-6.84002685546875,10.94000244140625-10.58001708984375ZM265.528421198670912,248.403357187892652l.16998291015625-.07000732421875c1.8499755859375-.86004638671875,5.6199951171875-1.44000244140625,5.90997314453125-.0400390625-.0699462890625,1.4000244140625-2.2099609375,2.8800048828125-3.25994873046875,4.11004638671875-9.6300048828125,9.97998046875-19.07000732421875,20.219970703125-29.48004150390625,29.38995361328125-5.260009765625,4.4200439453125-9.5999755859375,9.72003173828125-14.30999755859375,14.70001220703125-4.45001220703125,4.29998779296875-9.01995849609375,8.42999267578125-13.3599853515625,12.84002685546875-4.78997802734375,5.239990234375-10.05999755859375,10.05999755859375-14.94000244140625,15.2099609375-2.92999267578125,3.19000244140625-5.989990234375,6.52001953125-9.3399658203125,9.21002197265625-3.98004150390625,3.46002197265625-4.11004638671875-.780029296875-2.5400390625-4.22003173828125,2.0400390625-4.0899658203125,5.72003173828125-7.76995849609375,9.1600341796875-10.92999267578125,3.699951171875-3.1099853515625,7.02996826171875-6.5899658203125,10.51995849609375-9.91998291015625,4.260009765625-4.3499755859375,8.2900390625-8.92999267578125,12.6199951171875-13.219970703125,3.6400146484375-3.3699951171875,7.300048828125-6.70001220703125,10.74005126953125-10.2900390625,6.8299560546875-6.72998046875,13.41998291015625-13.69000244140625,20.43994140625-20.22998046875,5.33001708984375-5.78997802734375,10.780029296875-12.780029296875,17.6700439453125-16.53997802734375ZM233.608377253358412,350.993323008205152c-4.739990234375,4.33001708984375-8.68994140625,9.67999267578125-13.37994384765625,14.05999755859375-2.33001708984375,2.10003662109375-4.62005615234375,4.25-6.86004638671875,6.45001220703125-3.489990234375,3.42999267578125-7.0799560546875,6.71002197265625-10.260009765625,10.46002197265625-1.2099609375,1.3199462890625-2.8199462890625,3.39996337890625-4.67999267578125,3.1300048828125l-.1199951171875-.02001953125c-1.3800048828125-.30999755859375-2.219970703125-2.1099853515625-1.70001220703125-3.91998291015625,1.02001953125-3.3800048828125,4.510009765625-5.6700439453125,6.81005859375-8.19000244140625,3.50994873046875-3.84002685546875,7.13995361328125-7.52001953125,10.75994873046875-11.24005126953125,3.6700439453125-4.16998291015625,7.780029296875-7.8399658203125,11.67999267578125-11.8699951171875,1.46002197265625-1.39996337890625,2.99005126953125-3.19000244140625,4.84002685546875-3.969970703125,3.9000244140625-1.3900146484375,6.010009765625,2.3699951171875,2.90997314453125,5.1099853515625ZM240.378396784608412,352.793310801173902l.1500244140625-.0899658203125c1.8800048828125-1.1500244140625,5.6400146484375-.73004150390625,5.8499755859375.91998291015625.20001220703125.92999267578125-.9599609375,2.1300048828125-1.760009765625,2.8699951171875-2.3599853515625,2.04998779296875-4.39996337890625,4.45001220703125-6.57000732421875,6.70001220703125-8.30999755859375,8.3499755859375-16.41998291015625,17.05999755859375-25.3399658203125,24.78997802734375-2.45001220703125,1.6199951171875-5.41998291015625,6.55999755859375-8.52001953125,5.58001708984375-2.510009765625-1.1500244140625-1.5-4.71002197265625.3800048828125-6.42999267578125,5.20001220703125-5.03997802734375,10.60003662109375-9.82000732421875,15.66998291015625-14.92999267578125,4.3800048828125-4.739990234375,8.97003173828125-9.1400146484375,13.6199951171875-13.6600341796875,2.11004638671875-1.89996337890625,4.09002685546875-4.32000732421875,6.52001953125-5.75ZM188.478433405702162,356.423315683986402c4.12994384765625-4.03997802734375,8.25994873046875-8.05999755859375,11.88995361328125-12.6300048828125,3.0400390625-3.76995849609375,6.70001220703125-6.90997314453125,10.11004638671875-10.3499755859375,1.8299560546875-1.760009765625,3.64996337890625-3.71002197265625,5.3699951171875-5.6099853515625.75994873046875-.780029296875,1.969970703125-2.010009765625,2.89996337890625-1.73004150390625l.09002685546875.030029296875c.989990234375.3800048828125,1.51995849609375,2.70001220703125.91998291015625,4.739990234375-.80999755859375,3.1199951171875-3.52996826171875,5.280029296875-5.71002197265625,7.52001953125-3.65997314453125,3.80999755859375-7.0799560546875,7.91998291015625-10.8299560546875,11.67999267578125-2.8900146484375,3.3499755859375-5.92999267578125,6.52001953125-9.030029296875,9.66998291015625-1.54998779296875,1.33001708984375-3.64996337890625,5.22003173828125-5.8699951171875,4.22998046875-1.90997314453125-1.2099609375-1.719970703125-5.69000244140625.1600341796875-7.54998779296875ZM185.418435847108412,350.933325449611402l-.09002685546875-.03997802734375c-2.1300048828125-1.58001708984375-.4000244140625-7.4000244140625,1.8900146484375-9.260009765625,4.25-4.5,8.47998046875-9.05999755859375,12.7099609375-13.59002685546875,7.67999267578125-8.25,15.99005126953125-16.5799560546875,24.4200439453125-23.91998291015625.25.05999755859375-.6700439453125,2.010009765625-.8800048828125,2.6199951171875-1.30999755859375,2.91998291015625-2.010009765625,6.239990234375-3.52001953125,8.9000244140625-3.96002197265625,6.19000244140625-10.239990234375,10.6300048828125-14.8499755859375,16.219970703125-4.84002685546875,5.3599853515625-10.10003662109375,10.10003662109375-14.92999267578125,15.57000732421875-1.24005126953125,1.1600341796875-3.07000732421875,3.91998291015625-4.75,3.5ZM192.878396784608412,367.933325449611402c3.33001708984375-3.239990234375,6.59002685546875-6.96002197265625,9.6500244140625-10.489990234375,3.969970703125-4.33001708984375,8.510009765625-8.1300048828125,12.6099853515625-12.3599853515625,1.72998046875-1.6700439453125,3.489990234375-3.3900146484375,5.030029296875-5.1600341796875,1.05999755859375-1.15997314453125,2.47998046875-2.77996826171875,4.05999755859375-2.6400146484375l.12994384765625.010009765625c1.34002685546875.21002197265625,2.31005859375,1.86004638671875,1.96002197265625,3.55999755859375-.69000244140625,3.20001220703125-4.02001953125,5.1700439453125-6.1099853515625,7.59002685546875-3.07000732421875,3.3499755859375-6.08001708984375,6.65997314453125-9.29998779296875,9.8599853515625-3.46002197265625,3.91998291015625-7.22003173828125,7.6199951171875-10.9100341796875,11.33001708984375-2.01995849609375,1.65997314453125-4.8800048828125,6.71002197265625-7.78997802734375,5.239990234375-2.239990234375-1.57000732421875-1.21002197265625-5.22998046875.66998291015625-6.94000244140625ZM233.888406550233412,262.833349863673902c4.469970703125-3.82000732421875,7.5999755859375-9.25,13.09002685546875-11.72003173828125,2.6199951171875-1.0899658203125,5.949951171875-2.219970703125,6.90997314453125-1.41998291015625l.02001953125.04998779296875c.15997314453125.3599853515625-.32000732421875,1.05999755859375-1.17999267578125,2-2.83001708984375,3.010009765625-5.75,6.10003662109375-8.73004150390625,8.989990234375-10.20001220703125,10.67999267578125-20.30999755859375,21.48004150390625-31.3699951171875,31.29998779296875-5.4599609375,4.57000732421875-10,10.0400390625-14.8499755859375,15.22003173828125-2.92999267578125,2.91998291015625-6.09002685546875,5.6199951171875-9.010009765625,8.54998779296875-5.07000732421875,5.21002197265625-2.739990234375-2.4599609375-1.16998291015625-5.78997802734375,2.8399658203125-5.1300048828125,7.80999755859375-8.989990234375,11.64996337890625-13.42999267578125,2.489990234375-2.489990234375,5.3900146484375-4.6700439453125,8-7.050048828125,4.6199951171875-4.47998046875,9.1400146484375-9.199951171875,13.35003662109375-13.989990234375,4.0999755859375-4.5799560546875,9.07000732421875-8.16998291015625,13.28997802734375-12.7099609375ZM217.788430964295912,267.203344980861402l.16998291015625-.1199951171875c2.969970703125-2.09002685546875,7.78997802734375-5.780029296875,10.469970703125-7.260009765625.1300048828125-.05999755859375.23004150390625-.10003662109375.2900390625-.1099853515625.05999755859375-.010009765625.0899658203125,0,.0799560546875.04998779296875-2.62994384765625,3.239990234375-6.1099853515625,6.7099609375-9.199951171875,9.67999267578125-3.800048828125,3.989990234375-7.550048828125,7.989990234375-11.58001708984375,11.760009765625-3.8800048828125,3.72998046875-7.8699951171875,8.14996337890625-12.1199951171875,11.32000732421875-.33001708984375.0799560546875.77001953125-1.61004638671875,2.1300048828125-3.6300048828125,1.3499755859375-2.030029296875,2.7099609375-4.05999755859375,4.1300048828125-6.04998779296875,4-6.25,9.80999755859375-11.23004150390625,15.6300048828125-15.6400146484375ZM59.878396784608412,246.853308359767652l.1500244140625-.1099853515625c6.89996337890625-5.8599853515625,1.6400146484375-24.21002197265625,2.78997802734375-33.14996337890625.44000244140625-26.3800048828125.41998291015625-52.760009765625.35003662109375-79.1600341796875-.4200439453125-15.02996826171875.7099609375-29.97998046875-.19000244140625-45.02001953125-.6800537109375-21.739990234375,5.39996337890625-43.53997802734375,22.8499755859375-57.75994873046875,32.1400146484375-28.9000244140625,86.9000244140625-15.45001220703125,103.219970703125,24.3199462890625,8.23004150390625,18.47003173828125,3.6800537109375,39.21002197265625,4.75,58.760009765625-.44000244140625,27.02001953125.22003173828125,54.09002685546875.1600341796875,81.05999755859375,1.3699951171875,16.030029296875-2.97998046875,33.300048828125,1.30999755859375,48.7900390625,1.96002197265625,4.30999755859375,11.510009765625,7.010009765625,10.3599853515625,12.29998779296875-48.6300048828125,52.510009765625-2.67999267578125,37.52996826171875-87.05999755859375,39.6199951171875-31.27001953125-.4000244140625-62.77001953125.6300048828125-93.92999267578125-.5-6.69000244140625-6.6099853515625,26.92999267578125-45.84002685546875,35.239990234375-49.1500244140625ZM169.238382136170912,348.003332773830152c.4000244140625,2.8800048828125.97003173828125,6.29998779296875,1.30999755859375,9.02996826171875.10003662109375.97003173828125.09002685546875,1.59002685546875-.1099853515625,1.69000244140625l-.03997802734375.02001953125c-.20001220703125.05999755859375-.60003662109375-.32000732421875-1.1400146484375-1.02001953125-2.1300048828125-2.92999267578125-4.28997802734375-6.14996337890625-5.54998779296875-9.5999755859375-2.21002197265625-5.3499755859375-3.780029296875-10.78997802734375-4.47003173828125-16.5-.91998291015625-4.8599853515625-.969970703125-9.8599853515625-.76995849609375-14.82000732421875.0899658203125-1.8499755859375.29998779296875-4.22998046875,1.92999267578125-5.239990234375,1.91998291015625-1.1400146484375,6.02996826171875-.83001708984375,8.42999267578125.04998779296875,1.6400146484375.75,1.72998046875,2.6600341796875,1.510009765625,4.34002685546875-1.05999755859375,10.6099853515625-2.6600341796875,21.40997314453125-1.10003662109375,32.04998779296875ZM146.028421198670912,342.943335215236402c.8900146484375,3.8800048828125,2.44000244140625,7.55999755859375,4.0899658203125,11.17999267578125.58001708984375,1.5999755859375,1.85003662109375,3.6300048828125,1.07000732421875,5.239990234375l-.05999755859375.09002685546875c-.469970703125.739990234375-2.20001220703125.91998291015625-3.3699951171875.92999267578125-2.6500244140625.010009765625-5.41998291015625.3399658203125-7.65997314453125-.80999755859375-6.69000244140625-4.0400390625-10.52001953125-14.59002685546875-12.27001953125-21.94000244140625-1.3699951171875-6.58001708984375-1.90997314453125-13.29998779296875-1.28997802734375-19.989990234375.16998291015625-4.52001953125,2.89996337890625-5.75,7.00994873046875-5.73004150390625,5.46002197265625-.25,10.34002685546875-1.699951171875,9.8900146484375,5.25-.45001220703125,8.6700439453125.73004150390625,17.33001708984375,2.59002685546875,25.780029296875ZM114.028421198670912,342.943335215236402c.8900146484375,3.8800048828125,2.44000244140625,7.55999755859375,4.0899658203125,11.17999267578125.58001708984375,1.5999755859375,1.85003662109375,3.6300048828125,1.07000732421875,5.239990234375l-.05999755859375.09002685546875c-.469970703125.739990234375-2.20001220703125.91998291015625-3.3699951171875.92999267578125-2.6500244140625.010009765625-5.41998291015625.3399658203125-7.65997314453125-.80999755859375-6.69000244140625-4.0400390625-10.52001953125-14.59002685546875-12.27001953125-21.94000244140625-1.3699951171875-6.58001708984375-1.90997314453125-13.29998779296875-1.28997802734375-19.989990234375.16998291015625-4.52001953125,2.89996337890625-5.75,7.00994873046875-5.73004150390625,5.46002197265625-.25,10.34002685546875-1.699951171875,9.8900146484375,5.25-.45001220703125,8.6700439453125.73004150390625,17.33001708984375,2.59002685546875,25.780029296875ZM82.028421198670912,342.943335215236402c.8900146484375,3.8800048828125,2.44000244140625,7.55999755859375,4.0899658203125,11.17999267578125.58001708984375,1.5999755859375,1.85003662109375,3.6300048828125,1.07000732421875,5.239990234375l-.05999755859375.09002685546875c-.469970703125.739990234375-2.20001220703125.91998291015625-3.3699951171875.92999267578125-2.6500244140625.010009765625-5.41998291015625.3399658203125-7.65997314453125-.80999755859375-6.69000244140625-4.0400390625-10.52001953125-14.59002685546875-12.27001953125-21.94000244140625-1.3699951171875-6.58001708984375-1.90997314453125-13.29998779296875-1.28997802734375-19.989990234375.16998291015625-4.52001953125,2.89996337890625-5.75,7.00994873046875-5.73004150390625,5.46002197265625-.25,10.34002685546875-1.699951171875,9.8900146484375,5.25-.45001220703125,8.6700439453125.73004150390625,17.33001708984375,2.59002685546875,25.780029296875ZM50.028421198670912,342.943335215236402c.8900146484375,3.8800048828125,2.44000244140625,7.55999755859375,4.0899658203125,11.17999267578125.58001708984375,1.5999755859375,1.85003662109375,3.6300048828125,1.07000732421875,5.239990234375l-.05999755859375.09002685546875c-.469970703125.739990234375-2.20001220703125.91998291015625-3.3699951171875.92999267578125-2.6500244140625.010009765625-5.41998291015625.3399658203125-7.65997314453125-.80999755859375-6.69000244140625-4.0400390625-10.52001953125-14.59002685546875-12.27001953125-21.94000244140625-1.3699951171875-6.58001708984375-1.90997314453125-13.29998779296875-1.28997802734375-19.989990234375.16998291015625-4.52001953125,2.89996337890625-5.75,7.00994873046875-5.73004150390625,5.46002197265625-.25,10.34002685546875-1.699951171875,9.8900146484375,5.25-.45001220703125,8.6700439453125.73004150390625,17.33001708984375,2.59002685546875,25.780029296875ZM19.388406550233412,359.753332773830152l-.09002685546875-.1500244140625c-1.54998779296875-3.00994873046875-1.8199462890625-6.65997314453125-2.37994384765625-10.04998779296875-.6300048828125-3.75-1.1600341796875-7.78997802734375-.9100341796875-11.6400146484375.1099853515625-1.1199951171875.6099853515625.4000244140625.79998779296875.96002197265625,1.6600341796875,6.16998291015625,3.55999755859375,12.34002685546875,6.36004638671875,18.1300048828125.4599609375,1.21002197265625,1.02996826171875,2.82000732421875.16998291015625,3.82000732421875-.92999267578125,1.04998779296875-3.1099853515625.3399658203125-3.95001220703125-1.07000732421875ZM203.428384577577162,421.063330332423902c-3.89996337890625,3.6400146484375-8.40997314453125,6.6199951171875-12.9599609375,9.40997314453125-6.760009765625,4.6800537109375-14.239990234375,8.02001953125-21.98004150390625,10.72003173828125-12.64996337890625,4.719970703125-26.25994873046875,6.96002197265625-39.7099609375,6.9000244140625h-.20001220703125c-16.739990234375.1199951171875-33.80999755859375-2.85003662109375-48.91998291015625-10.260009765625-7.44000244140625-3.83001708984375-14.27001953125-8.70001220703125-21.30999755859375-13.19000244140625-6.3699951171875-4.510009765625-11.59002685546875-10.45001220703125-16.82000732421875-16.17999267578125-3.79998779296875-3.800048828125-21.25-27.280029296875-17.1700439453125-31.1199951171875.780029296875-.9000244140625,3.09002685546875-1.1300048828125,4.6700439453125-1.12005615234375,4.39996337890625.09002685546875,8.6400146484375-.3199462890625,12.9599609375-.44000244140625,6.49005126953125.22003173828125,12.99005126953125.58001708984375,19.5.47003173828125,12.49005126953125-.66998291015625,24.97003173828125-.030029296875,37.45001220703125-.09002685546875,6.45001220703125-.0899658203125,12.8900146484375-.199951171875,19.33001708984375.050048828125,6.719970703125.1300048828125,13.4000244140625-.98004150390625,20.1199951171875-.24005126953125,7.510009765625.70001220703125,15.010009765625-.28997802734375,22.530029296875.1600341796875,3.72998046875.219970703125,7.6099853515625.08001708984375,11.30999755859375-.07000732421875,2.78997802734375-.09002685546875,4.91998291015625.760009765625,6.52996826171875,3.04998779296875,1.54998779296875,2.23004150390625,2.739990234375,4.94000244140625,4.09002685546875,7.34002685546875,5.1300048828125,10.92999267578125,13.8299560546875,19.6099853515625,22.25,28.02996826171875,2,2.4200439453125.3699951171875,4.83001708984375-1.6700439453125,6.58001708984375ZM231.498391901795912,382.653357187892652l-.15997314453125.1199951171875c-4.34002685546875,2.8499755859375-8.4100341796875,6.30999755859375-11.19000244140625,10.78997802734375-1.83001708984375,2.6400146484375-3.44000244140625,7.20001220703125-6.19000244140625,8.15997314453125-3.08001708984375,1.030029296875-5.6600341796875-2.3499755859375-3.33001708984375-5.02996826171875,7.09002685546875-7.45001220703125,15.02001953125-14.17999267578125,22.59002685546875-21.1500244140625,5.469970703125-5.66998291015625,10.57000732421875-11.469970703125,16.5799560546875-16.6300048828125,1.550048828125-1.47998046875,3.07000732421875-3.0699462890625,4.9200439453125-4.15997314453125,2.03997802734375-1.239990234375,4.52996826171875-1.8800048828125,6.91998291015625-2.22998046875,1.260009765625-.1600341796875,2.05999755859375-.11004638671875,2.17999267578125.26995849609375.030029296875.94000244140625-1.17999267578125,1.8699951171875-1.83001708984375,2.6300048828125-5.1099853515625,4.72003173828125-9.6099853515625,10.1700439453125-14.79998779296875,14.80999755859375-5.58001708984375,4.280029296875-10.39996337890625,8.25-15.69000244140625,12.4200439453125ZM248.188394343202162,415.773352305080152l-.1400146484375-.010009765625c-1.8599853515625-.07000732421875-3.38995361328125-1.3900146484375-4.78997802734375-2.530029296875-4.17999267578125-3.3699951171875-11.3800048828125-9.3299560546875-6.07000732421875-14.69000244140625,5.6400146484375-4.6199951171875,11.58001708984375-9.27996826171875,17.3599853515625-13.69000244140625,3.94000244140625-2.8499755859375,7.780029296875-5.80999755859375,11.21002197265625-9.25,7.4100341796875-7.80999755859375,16.03997802734375-14.55999755859375,22-23.63995361328125,4.27001953125-6.07000732421875,8.22003173828125-12.44000244140625,10.280029296875-19.6300048828125.51995849609375-2.030029296875,2.5-5.6300048828125.72998046875-7.1600341796875-1.21002197265625-.76995849609375-3.1600341796875-.22998046875-4.59002685546875.08001708984375-3.80999755859375.8699951171875-7.3299560546875,2.260009765625-10.76995849609375,3.8499755859375-5.1600341796875,2.07000732421875-10.5,3.71002197265625-15.739990234375,5.67999267578125-9.61004638671875,3.1300048828125-18.71002197265625,6.6400146484375-26.84002685546875-1.63995361328125-2.55999755859375-2.30999755859375-5.010009765625-5.04998779296875-5.9000244140625-8.45001220703125-2.5899658203125-8.82000732421875,9.98004150390625-21.8699951171875,14.4100341796875-29.59002685546875,3.79998779296875-5.22998046875,9.02996826171875-9.25994873046875,13.05999755859375-14.28997802734375,2.91998291015625-3.489990234375,6.27996826171875-6.58001708984375,9.77001953125-9.510009765625,4.89996337890625-4.3800048828125,9.68994140625-8.90997314453125,15.53997802734375-12.05999755859375,3.8800048828125-2.3699951171875,9.75-4.32000732421875,13.760009765625-1.760009765625,1.79998779296875,1.19000244140625,2.15997314453125,3.47003173828125.53997802734375,5.1700439453125-2.77001953125,2.67999267578125-6.77001953125,4.00994873046875-9.6400146484375,6.5999755859375-5.6099853515625,4.53997802734375-10.27996826171875,10.0999755859375-14.969970703125,15.52001953125-4.35003662109375,4.5799560546875-7.97003173828125,9.699951171875-11.5400390625,14.88995361328125-2.3499755859375,3.260009765625-4.89996337890625,6.3800048828125-7.18994140625,9.69000244140625-2.57000732421875,3.83001708984375-5.27001953125,7.5400390625-7.72003173828125,11.45001220703125-1.21002197265625,1.9000244140625-3.04998779296875,4.85003662109375.6300048828125,3.9000244140625,9.1500244140625-2.3599853515625,17.40997314453125-7.25,26.52001953125-9.73004150390625,6.25994873046875-1.8399658203125,13.3499755859375-3.7099609375,19.739990234375-1.76995849609375,5.010009765625,1.969970703125,9.3499755859375,6.29998779296875,11.72998046875,10.95001220703125,1.97003173828125,4.91998291015625,3.6099853515625,10.50994873046875,3.30999755859375,15.77996826171875-.3699951171875,3.95001220703125-2.53997802734375,7.53997802734375-3.989990234375,11.32000732421875-3.33001708984375,8.719970703125-9.989990234375,15.57000732421875-15.280029296875,23.1099853515625-6.5699462890625,8.1500244140625-13.78997802734375,15.73004150390625-21.41998291015625,22.8800048828125-4.3599853515625,4.739990234375-9.01995849609375,9.1199951171875-14.1300048828125,13.05999755859375-3.01995849609375,2.1199951171875-6.1300048828125,5.22998046875-9.8699951171875,5.47003173828125ZM276.108377253358412,420.293310801173902c-1.52996826171875,1.71002197265625-3.1199951171875,3.510009765625-5.26995849609375,4.3699951171875-1.80999755859375.760009765625-3.47003173828125.6600341796875-3.72003173828125-.04998779296875l-.01995849609375-.05999755859375c-.1500244140625-.55999755859375.50994873046875-1.3800048828125,1.5999755859375-2.3699951171875,1.47998046875-1.32000732421875,3-2.69000244140625,4.47998046875-4.0899658203125,5.49005126953125-4.81005859375,10.61004638671875-10.02001953125,15.6500244140625-15.2900390625,10.6300048828125-11.47998046875,20.84002685546875-23.3399658203125,31.44000244140625-34.8699951171875,4.989990234375-5.17999267578125,10.46002197265625-9.8499755859375,15.46002197265625-15.02001953125,5.03997802734375-5.50994873046875,10.54998779296875-10.52996826171875,15.66998291015625-15.969970703125,2.08001708984375-2.16998291015625,4.0899658203125-4.5999755859375,6.3699951171875-6.53997802734375,5.07000732421875-4.1300048828125,3.40997314453125,4.75994873046875,1.010009765625,7.15997314453125-2.510009765625,2.8699951171875-5.1400146484375,5.6400146484375-7.67999267578125,8.489990234375-4.4100341796875,4.1099853515625-8.9200439453125,8.1199951171875-13.1600341796875,12.4100341796875-4.02996826171875,4.1300048828125-7.8399658203125,8.449951171875-11.91998291015625,12.51995849609375-3.75,3.55999755859375-7.5999755859375,6.989990234375-11.16998291015625,10.73004150390625-5.82000732421875,5.6099853515625-11.24005126953125,11.6300048828125-17.19000244140625,17.0899658203125-3.86004638671875,3.4000244140625-6.8699951171875,7.57000732421875-10.48004150390625,11.19000244140625-3.5899658203125,3.52001953125-7.719970703125,6.530029296875-11.07000732421875,10.29998779296875ZM355.828408991639662,366.213354746486402c-1.71002197265625,4.1300048828125-3.239990234375,8.89996337890625-6.04998779296875,12.29998779296875l-.1300048828125.14996337890625c-7.1600341796875,7.5-14.3599853515625,15.050048828125-21.6300048828125,22.5-4.46002197265625,4.6400146484375-8.66998291015625,9.69000244140625-13.92999267578125,13.45001220703125-2.989990234375,2-6.48004150390625,3.27001953125-9.77001953125,4.6300048828125-3.16998291015625,1.260009765625-2.989990234375.32000732421875-.8699951171875-1.96002197265625,6.40997314453125-7.5999755859375,14.010009765625-14.0999755859375,20.97998046875-21.16998291015625,6.25-6.8399658203125,13.1700439453125-13.07000732421875,19.300048828125-20.010009765625,2.77996826171875-3.03997802734375,6.14996337890625-5.52996826171875,9.12994384765625-8.29998779296875.6800537109375-.55999755859375,3.49005126953125-3.5,2.97003173828125-1.5899658203125ZM359.038430964295912,352.393347422267652l-.09002685546875.15997314453125c-2.91998291015625,4.54998779296875-7.27001953125,8.1500244140625-10.989990234375,12.10003662109375-3.030029296875,3.16998291015625-5.91998291015625,6.3699951171875-9.05999755859375,9.449951171875-8.780029296875,9.55999755859375-18.34002685546875,18.300048828125-27.80999755859375,27.1300048828125-5.45001220703125,5.8900146484375-10.46002197265625,11.52001953125-16.48004150390625,16.9100341796875-2.04998779296875,2.07000732421875-4.22998046875,4.1099853515625-6.9599609375,5.19000244140625-6.3900146484375,2.26995849609375-8.52001953125,1.760009765625-3.1199951171875-3.3900146484375,3.15997314453125-3.1199951171875,6.07000732421875-6.44000244140625,9.1199951171875-9.59002685546875,3.6099853515625-3.6099853515625,7.8599853515625-6.5799560546875,11.28997802734375-10.3599853515625,4.02001953125-4.15997314453125,7.92999267578125-8.3900146484375,11.79998779296875-12.70001220703125,4.760009765625-4.260009765625,9.4200439453125-8.6199951171875,13.9100341796875-13.15997314453125,7.90997314453125-8.9000244140625,16.760009765625-16.96002197265625,25.17999267578125-25.32000732421875,1.09002685546875-1.030029296875,2.21002197265625-2.29998779296875,3.32000732421875-3.20001220703125.42999267578125-.30999755859375.7099609375-.54998779296875,1.1300048828125-.44000244140625,1.0799560546875,1.07000732421875-.20001220703125,5.17999267578125-1.239990234375,7.22003173828125Z"
      />
      <path
        class="cls-2"
        d="M203.428384577577162,421.063330332423902c-3.89996337890625,3.6400146484375-8.40997314453125,6.6199951171875-12.9599609375,9.40997314453125-6.760009765625,4.6800537109375-14.239990234375,8.02001953125-21.98004150390625,10.72003173828125-12.64996337890625,4.719970703125-26.25994873046875,6.96002197265625-39.7099609375,6.9000244140625h-.20001220703125c-16.739990234375.1199951171875-33.80999755859375-2.85003662109375-48.91998291015625-10.260009765625-7.44000244140625-3.83001708984375-14.27001953125-8.70001220703125-21.30999755859375-13.19000244140625-6.3699951171875-4.510009765625-11.59002685546875-10.45001220703125-16.82000732421875-16.17999267578125-3.79998779296875-3.800048828125-21.25-27.280029296875-17.1700439453125-31.1199951171875.780029296875-.9000244140625,3.09002685546875-1.1300048828125,4.6700439453125-1.12005615234375,4.39996337890625.09002685546875,8.6400146484375-.3199462890625,12.9599609375-.44000244140625,6.49005126953125.22003173828125,12.99005126953125.58001708984375,19.5.47003173828125,12.49005126953125-.66998291015625,24.97003173828125-.030029296875,37.45001220703125-.09002685546875,6.45001220703125-.0899658203125,12.8900146484375-.199951171875,19.33001708984375.050048828125,6.719970703125.1300048828125,13.4000244140625-.98004150390625,20.1199951171875-.24005126953125,7.510009765625.70001220703125,15.010009765625-.28997802734375,22.530029296875.1600341796875,3.72998046875.219970703125,7.6099853515625.08001708984375,11.30999755859375-.07000732421875,2.78997802734375-.09002685546875,4.91998291015625.760009765625,6.52996826171875,3.04998779296875,1.54998779296875,2.23004150390625,2.739990234375,4.94000244140625,4.09002685546875,7.34002685546875,5.1300048828125,10.92999267578125,13.8299560546875,19.6099853515625,22.25,28.02996826171875,2,2.4200439453125.3699951171875,4.83001708984375-1.6700439453125,6.58001708984375ZM195.268411433045912,244.583349863673902c-4.28997802734375-15.489990234375.05999755859375-32.760009765625-1.30999755859375-48.7900390625.05999755859375-26.969970703125-.60003662109375-54.03997802734375-.1600341796875-81.05999755859375-1.0699462890625-19.54998779296875,3.48004150390625-40.28997802734375-4.75-58.760009765625C172.728433405702162,16.203344980861402,117.968423640077162,2.753332773830152,85.828408991639662,31.653357187892652c-17.45001220703125,14.219970703125-23.530029296875,36.01995849609375-22.8499755859375,57.75994873046875.89996337890625,15.0400390625-.23004150390625,29.99005126953125.19000244140625,45.02001953125.0699462890625,26.4000244140625.0899658203125,52.780029296875-.35003662109375,79.1600341796875-1.14996337890625,8.93994140625,4.1099853515625,27.28997802734375-2.78997802734375,33.14996337890625l-.1500244140625.1099853515625c-8.30999755859375,3.30999755859375-41.92999267578125,42.5400390625-35.239990234375,49.1500244140625,31.15997314453125,1.1300048828125,62.65997314453125.0999755859375,93.92999267578125.5,84.3800048828125-2.09002685546875,38.42999267578125,12.8900146484375,87.05999755859375-39.6199951171875,1.1500244140625-5.28997802734375-8.39996337890625-7.989990234375-10.3599853515625-12.29998779296875Z"
      />
    </g>
  </g>
</svg>
